  0
SECTION
  2
HEADER
  9
$ACADVER
  1
AC1027
  9
$ACADMAINTVER
 70
     8
  9
$DWGCODEPAGE
  3
ANSI_1252
  9
$REQUIREDVERSIONS
160
                 0
  9
$INSBASE
 10
0.0
 20
0.0
 30
0.0
  9
$EXTMIN
 10
1.000000000000000E+20
 20
1.000000000000000E+20
 30
1.000000000000000E+20
  9
$EXTMAX
 10
-1.000000000000000E+20
 20
-1.000000000000000E+20
 30
-1.000000000000000E+20
  9
$LIMMIN
 10
0.0
 20
0.0
  9
$LIMMAX
 10
12.0
 20
9.0
  9
$ORTHOMODE
 70
     0
  9
$REGENMODE
 70
     1
  9
$FILLMODE
 70
     1
  9
$QTEXTMODE
 70
     0
  9
$MIRRTEXT
 70
     1
  9
$LTSCALE
 40
1.0
  9
$ATTMODE
 70
     1
  9
$TEXTSIZE
 40
0.2
  9
$TRACEWID
 40
0.05
  9
$TEXTSTYLE
  7
Standard
  9
$CLAYER
  8
0
  9
$CELTYPE
  6
ByLayer
  9
$CECOLOR
 62
   178
  9
$CELTSCALE
 40
1.0
  9
$DISPSILH
 70
     0
  9
$DIMSCALE
 40
1.0
  9
$DIMASZ
 40
2.5
  9
$DIMEXO
 40
0.625
  9
$DIMDLI
 40
0.38
  9
$DIMRND
 40
0.0
  9
$DIMDLE
 40
0.0
  9
$DIMEXE
 40
1.25
  9
$DIMTP
 40
0.0
  9
$DIMTM
 40
0.0
  9
$DIMTXT
 40
2.5
  9
$DIMCEN
 40
0.09
  9
$DIMTSZ
 40
0.0
  9
$DIMTOL
 70
     0
  9
$DIMLIM
 70
     0
  9
$DIMTIH
 70
     1
  9
$DIMTOH
 70
     1
  9
$DIMSE1
 70
     0
  9
$DIMSE2
 70
     0
  9
$DIMTAD
 70
     0
  9
$DIMZIN
 70
     8
  9
$DIMBLK
  1

  9
$DIMASO
 70
     1
  9
$DIMSHO
 70
     1
  9
$DIMPOST
  1

  9
$DIMAPOST
  1

  9
$DIMALT
 70
     0
  9
$DIMALTD
 70
     2
  9
$DIMALTF
 40
25.4
  9
$DIMLFAC
 40
1.0
  9
$DIMTOFL
 70
     0
  9
$DIMTVP
 40
0.0
  9
$DIMTIX
 70
     0
  9
$DIMSOXD
 70
     0
  9
$DIMSAH
 70
     0
  9
$DIMBLK1
  1

  9
$DIMBLK2
  1

  9
$DIMSTYLE
  2
Standard
  9
$DIMCLRD
 70
   178
  9
$DIMCLRE
 70
   178
  9
$DIMCLRT
 70
   178
  9
$DIMTFAC
 40
1.0
  9
$DIMGAP
 40
0.625
  9
$DIMJUST
 70
     0
  9
$DIMSD1
 70
     0
  9
$DIMSD2
 70
     0
  9
$DIMTOLJ
 70
     1
  9
$DIMTZIN
 70
     0
  9
$DIMALTZ
 70
     0
  9
$DIMALTTZ
 70
     0
  9
$DIMUPT
 70
     0
  9
$DIMDEC
 70
     4
  9
$DIMTDEC
 70
     4
  9
$DIMALTU
 70
     2
  9
$DIMALTTD
 70
     2
  9
$DIMTXSTY
  7
Standard
  9
$DIMAUNIT
 70
     0
  9
$DIMADEC
 70
     0
  9
$DIMALTRND
 40
0.0
  9
$DIMAZIN
 70
     2
  9
$DIMDSEP
 70
    46
  9
$DIMATFIT
 70
     3
  9
$DIMFRAC
 70
     0
  9
$DIMLDRBLK
  1

  9
$DIMLUNIT
 70
     2
  9
$DIMLWD
 70
    -2
  9
$DIMLWE
 70
    -2
  9
$DIMTMOVE
 70
     0
  9
$DIMFXL
 40
1.0
  9
$DIMFXLON
 70
     0
  9
$DIMJOGANG
 40
0.7853981633974483
  9
$DIMTFILL
 70
     0
  9
$DIMTFILLCLR
 70
     0
  9
$DIMARCSYM
 70
     0
  9
$DIMLTYPE
  6

  9
$DIMLTEX1
  6

  9
$DIMLTEX2
  6

  9
$DIMTXTDIRECTION
 70
     0
  9
$LUNITS
 70
     2
  9
$LUPREC
 70
     4
  9
$SKETCHINC
 40
0.1
  9
$FILLETRAD
 40
0.5
  9
$AUNITS
 70
     0
  9
$AUPREC
 70
     0
  9
$MENU
  1
.
  9
$ELEVATION
 40
0.0
  9
$PELEVATION
 40
0.0
  9
$THICKNESS
 40
0.0
  9
$LIMCHECK
 70
     0
  9
$CHAMFERA
 40
0.0
  9
$CHAMFERB
 40
0.0
  9
$CHAMFERC
 40
0.0
  9
$CHAMFERD
 40
0.0
  9
$SKPOLY
 70
     0
  9
$TDCREATE
 40
2456561.384606482
  9
$TDUCREATE
 40
2456561.342939815
  9
$TDUPDATE
 40
2456561.384606482
  9
$TDUUPDATE
 40
2456561.342939815
  9
$TDINDWG
 40
0.0000000116
  9
$TDUSRTIMER
 40
0.0000000116
  9
$USRTIMER
 70
     1
  9
$ANGBASE
 50
0.0
  9
$ANGDIR
 70
     0
  9
$PDMODE
 70
     0
  9
$PDSIZE
 40
0.0
  9
$PLINEWID
 40
0.0
  9
$SPLFRAME
 70
     0
  9
$SPLINETYPE
 70
     6
  9
$SPLINESEGS
 70
     8
  9
$HANDSEED
  5
2F9
  9
$SURFTAB1
 70
     6
  9
$SURFTAB2
 70
     6
  9
$SURFTYPE
 70
     6
  9
$SURFU
 70
     6
  9
$SURFV
 70
     6
  9
$UCSBASE
  2

  9
$UCSNAME
  2

  9
$UCSORG
 10
0.0
 20
0.0
 30
0.0
  9
$UCSXDIR
 10
1.0
 20
0.0
 30
0.0
  9
$UCSYDIR
 10
0.0
 20
1.0
 30
0.0
  9
$UCSORTHOREF
  2

  9
$UCSORTHOVIEW
 70
     0
  9
$UCSORGTOP
 10
0.0
 20
0.0
 30
0.0
  9
$UCSORGBOTTOM
 10
0.0
 20
0.0
 30
0.0
  9
$UCSORGLEFT
 10
0.0
 20
0.0
 30
0.0
  9
$UCSORGRIGHT
 10
0.0
 20
0.0
 30
0.0
  9
$UCSORGFRONT
 10
0.0
 20
0.0
 30
0.0
  9
$UCSORGBACK
 10
0.0
 20
0.0
 30
0.0
  9
$PUCSBASE
  2

  9
$PUCSNAME
  2

  9
$PUCSORG
 10
0.0
 20
0.0
 30
0.0
  9
$PUCSXDIR
 10
1.0
 20
0.0
 30
0.0
  9
$PUCSYDIR
 10
0.0
 20
1.0
 30
0.0
  9
$PUCSORTHOREF
  2

  9
$PUCSORTHOVIEW
 70
     0
  9
$PUCSORGTOP
 10
0.0
 20
0.0
 30
0.0
  9
$PUCSORGBOTTOM
 10
0.0
 20
0.0
 30
0.0
  9
$PUCSORGLEFT
 10
0.0
 20
0.0
 30
0.0
  9
$PUCSORGRIGHT
 10
0.0
 20
0.0
 30
0.0
  9
$PUCSORGFRONT
 10
0.0
 20
0.0
 30
0.0
  9
$PUCSORGBACK
 10
0.0
 20
0.0
 30
0.0
  9
$USERI1
 70
     0
  9
$USERI2
 70
     0
  9
$USERI3
 70
     0
  9
$USERI4
 70
     0
  9
$USERI5
 70
     0
  9
$USERR1
 40
0.0
  9
$USERR2
 40
0.0
  9
$USERR3
 40
0.0
  9
$USERR4
 40
0.0
  9
$USERR5
 40
0.0
  9
$WORLDVIEW
 70
     1
  9
$SHADEDGE
 70
     3
  9
$SHADEDIF
 70
    70
  9
$TILEMODE
 70
     1
  9
$MAXACTVP
 70
    64
  9
$PINSBASE
 10
0.0
 20
0.0
 30
0.0
  9
$PLIMCHECK
 70
     0
  9
$PEXTMIN
 10
1.000000000000000E+20
 20
1.000000000000000E+20
 30
1.000000000000000E+20
  9
$PEXTMAX
 10
-1.000000000000000E+20
 20
-1.000000000000000E+20
 30
-1.000000000000000E+20
  9
$PLIMMIN
 10
0.0
 20
0.0
  9
$PLIMMAX
 10
12.0
 20
9.0
  9
$UNITMODE
 70
     0
  9
$VISRETAIN
 70
     1
  9
$PLINEGEN
 70
     0
  9
$PSLTSCALE
 70
     1
  9
$TREEDEPTH
 70
  3020
  9
$CMLSTYLE
  2
Standard
  9
$CMLJUST
 70
     0
  9
$CMLSCALE
 40
1.0
  9
$PROXYGRAPHICS
 70
     1
  9
$MEASUREMENT
 70
     1
  9
$CELWEIGHT
370
    -1
  9
$ENDCAPS
280
     0
  9
$JOINSTYLE
280
     0
  9
$LWDISPLAY
290
     0
  9
$INSUNITS
 70
     0
  9
$HYPERLINKBASE
  1

  9
$STYLESHEET
  1

  9
$XEDIT
290
     1
  9
$CEPSNTYPE
380
     0
  9
$PSTYLEMODE
290
     1
  9
$FINGERPRINTGUID
  2
{6FFDD832-1171-400A-C365-D732C3DC71E4}
  9
$VERSIONGUID
  2
{FAEB1C32-E019-11D5-929B-00C0DF256EC4}
  9
$EXTNAMES
290
     1
  9
$PSVPSCALE
 40
0.0
  9
$OLESTARTUP
290
     0
  9
$SORTENTS
280
   127
  9
$INDEXCTL
280
     0
  9
$HIDETEXT
280
     1
  9
$XCLIPFRAME
280
     2
  9
$HALOGAP
280
     0
  9
$OBSCOLOR
 70
   257
  9
$OBSLTYPE
280
     0
  9
$INTERSECTIONDISPLAY
280
     0
  9
$INTERSECTIONCOLOR
 70
   257
  9
$DIMASSOC
280
     2
  9
$PROJECTNAME
  1

  9
$CAMERADISPLAY
290
     0
  9
$LENSLENGTH
 40
50.0
  9
$CAMERAHEIGHT
 40
0.0
  9
$STEPSPERSEC
 40
2.0
  9
$STEPSIZE
 40
6.0
  9
$3DDWFPREC
 40
2.0
  9
$PSOLWIDTH
 40
0.25
  9
$PSOLHEIGHT
 40
4.0
  9
$LOFTANG1
 40
1.570796326794897
  9
$LOFTANG2
 40
1.570796326794897
  9
$LOFTMAG1
 40
0.0
  9
$LOFTMAG2
 40
0.0
  9
$LOFTPARAM
 70
     7
  9
$LOFTNORMALS
280
     1
  9
$LATITUDE
 40
37.795
  9
$LONGITUDE
 40
-122.394
  9
$NORTHDIRECTION
 40
0.0
  9
$TIMEZONE
 70
 -8000
  9
$LIGHTGLYPHDISPLAY
280
     1
  9
$TILEMODELIGHTSYNCH
280
     1
  9
$CMATERIAL
347
28C
  9
$SOLIDHIST
280
     1
  9
$SHOWHIST
280
     1
  9
$DWFFRAME
280
     2
  9
$DGNFRAME
280
     2
  9
$REALWORLDSCALE
290
     1
  9
$INTERFERECOLOR
 62
   256
  9
$CSHADOW
280
     0
  9
$SHADOWPLANELOCATION
 40
0.0
  0
ENDSEC
  0
SECTION
  2
CLASSES
  0
CLASS
  1
ACDBDICTIONARYWDFLT
  2
AcDbDictionaryWithDefault
  3
ObjectDBX Classes
 90
        0
 91
        4
280
     0
281
     0
  0
CLASS
  1
VISUALSTYLE
  2
AcDbVisualStyle
  3
ObjectDBX Classes
 90
     4095
 91
        4
280
     0
281
     0
  0
CLASS
  1
MATERIAL
  2
AcDbMaterial
  3
ObjectDBX Classes
 90
     1153
 91
        4
280
     0
281
     0
  0
CLASS
  1
SCALE
  2
AcDbScale
  3
ObjectDBX Classes
 90
     1153
 91
        4
280
     0
281
     0
  0
CLASS
  1
SUN
  2
AcDbSun
  3
SCENEOE
 90
     1153
 91
        4
280
     0
281
     0
  0
CLASS
  1
DICTIONARYVAR
  2
AcDbDictionaryVar
  3
ObjectDBX Classes
 90
        0
 91
        4
280
     0
281
     0
  0
ENDSEC
  0
SECTION
  2
TABLES
  0
TABLE
  2
VPORT
  5
251
330
0
100
AcDbSymbolTable
 70
     1
  0
VPORT
  5
271
330
251
100
AcDbSymbolTableRecord
100
AcDbViewportTableRecord
  2
*Active
 70
     0
 10
0.0
 20
0.0
 11
1.0
 21
1.0
 12
10.42990654205607
 22
4.5
 13
0.0
 23
0.0
 14
0.5
 24
0.5
 15
0.5
 25
0.5
 16
0.0
 26
0.0
 36
1.0
 17
0.0
 27
0.0
 37
0.0
 40
9.0
 41
1.972972972850329
 42
50.0
 43
0.0
 44
0.0
 50
0.0
 51
0.0
 71
     0
 72
   100
 73
     1
 74
     3
 75
     0
 76
     0
 77
     0
 78
     0
281
     0
 65
     1
110
0.0
120
0.0
130
0.0
111
1.0
121
0.0
131
0.0
112
0.0
122
1.0
132
0.0
 79
     0
146
0.0
 60
     3
 61
     5
292
     1
282
     1
141
0.0
142
0.0
 63
   250
361
2B1
  0
ENDTAB
  0
TABLE
  2
LTYPE
  5
24E
330
0
100
AcDbSymbolTable
 70
    19
  0
LTYPE
  5
25C
330
24E
100
AcDbSymbolTableRecord
100
AcDbLinetypeTableRecord
  2
ByBlock
 70
     0
  3

 72
    65
 73
     0
 40
0.0
  0
LTYPE
  5
25D
330
24E
100
AcDbSymbolTableRecord
100
AcDbLinetypeTableRecord
  2
ByLayer
 70
     0
  3

 72
    65
 73
     0
 40
0.0
  0
LTYPE
  5
25E
330
24E
100
AcDbSymbolTableRecord
100
AcDbLinetypeTableRecord
  2
Continuous
 70
     0
  3
Solid line
 72
    65
 73
     0
 40
0.0
  0
LTYPE
  5
2E0
330
24E
100
AcDbSymbolTableRecord
100
AcDbLinetypeTableRecord
  2
BORDER
 70
     0
  3

 72
    65
 73
     6
 40
42.00000000000001
 49
12.0
 74
     0
 49
-6.0
 74
     0
 49
12.0
 74
     0
 49
-5.95
 74
     0
 49
0.1
 74
     0
 49
-5.95
 74
     0
  0
LTYPE
  5
2E1
330
24E
100
AcDbSymbolTableRecord
100
AcDbLinetypeTableRecord
  2
BORDER2
 70
     0
  3

 72
    65
 73
     6
 40
21.0
 49
6.0
 74
     0
 49
-3.0
 74
     0
 49
6.0
 74
     0
 49
-2.95
 74
     0
 49
0.1
 74
     0
 49
-2.95
 74
     0
  0
LTYPE
  5
2E2
330
24E
100
AcDbSymbolTableRecord
100
AcDbLinetypeTableRecord
  2
BORDERX2
 70
     0
  3

 72
    65
 73
     6
 40
84.0
 49
24.0
 74
     0
 49
-12.0
 74
     0
 49
24.0
 74
     0
 49
-11.95
 74
     0
 49
0.1
 74
     0
 49
-11.95
 74
     0
  0
LTYPE
  5
2E3
330
24E
100
AcDbSymbolTableRecord
100
AcDbLinetypeTableRecord
  2
CENTER
 70
     0
  3

 72
    65
 73
     4
 40
50.0
 49
32.0
 74
     0
 49
-6.0
 74
     0
 49
6.0
 74
     0
 49
-6.0
 74
     0
  0
LTYPE
  5
2E4
330
24E
100
AcDbSymbolTableRecord
100
AcDbLinetypeTableRecord
  2
CENTER2
 70
     0
  3

 72
    65
 73
     4
 40
25.0
 49
16.0
 74
     0
 49
-3.0
 74
     0
 49
3.0
 74
     0
 49
-3.0
 74
     0
  0
LTYPE
  5
2E5
330
24E
100
AcDbSymbolTableRecord
100
AcDbLinetypeTableRecord
  2
CENTERX2
 70
     0
  3

 72
    65
 73
     4
 40
100.0
 49
64.0
 74
     0
 49
-12.0
 74
     0
 49
12.0
 74
     0
 49
-12.0
 74
     0
  0
LTYPE
  5
2E6
330
24E
100
AcDbSymbolTableRecord
100
AcDbLinetypeTableRecord
  2
DASHDOT
 70
     0
  3

 72
    65
 73
     4
 40
24.0
 49
12.0
 74
     0
 49
-5.95
 74
     0
 49
0.1
 74
     0
 49
-5.95
 74
     0
  0
LTYPE
  5
2E7
330
24E
100
AcDbSymbolTableRecord
100
AcDbLinetypeTableRecord
  2
DASHDOT2
 70
     0
  3

 72
    65
 73
     4
 40
12.0
 49
6.0
 74
     0
 49
-2.95
 74
     0
 49
0.1
 74
     0
 49
-2.95
 74
     0
  0
LTYPE
  5
2E8
330
24E
100
AcDbSymbolTableRecord
100
AcDbLinetypeTableRecord
  2
DASHDOTX2
 70
     0
  3

 72
    65
 73
     4
 40
48.0
 49
24.0
 74
     0
 49
-11.95
 74
     0
 49
0.1
 74
     0
 49
-11.95
 74
     0
  0
LTYPE
  5
2E9
330
24E
100
AcDbSymbolTableRecord
100
AcDbLinetypeTableRecord
  2
DASHED
 70
     0
  3

 72
    65
 73
     2
 40
18.0
 49
12.0
 74
     0
 49
-6.0
 74
     0
  0
LTYPE
  5
2EA
330
24E
100
AcDbSymbolTableRecord
100
AcDbLinetypeTableRecord
  2
DASHED2
 70
     0
  3

 72
    65
 73
     2
 40
9.0
 49
6.0
 74
     0
 49
-3.0
 74
     0
  0
LTYPE
  5
2EB
330
24E
100
AcDbSymbolTableRecord
100
AcDbLinetypeTableRecord
  2
DASHEDX2
 70
     0
  3

 72
    65
 73
     2
 40
36.0
 49
24.0
 74
     0
 49
-12.0
 74
     0
  0
LTYPE
  5
2EC
330
24E
100
AcDbSymbolTableRecord
100
AcDbLinetypeTableRecord
  2
DIVIDE
 70
     0
  3

 72
    65
 73
     6
 40
29.99999999999999
 49
12.0
 74
     0
 49
-5.9
 74
     0
 49
0.15
 74
     0
 49
-5.9
 74
     0
 49
0.15
 74
     0
 49
-5.9
 74
     0
  0
LTYPE
  5
2ED
330
24E
100
AcDbSymbolTableRecord
100
AcDbLinetypeTableRecord
  2
DIVIDE2
 70
     0
  3

 72
    65
 73
     6
 40
15.0
 49
6.0
 74
     0
 49
-2.9
 74
     0
 49
0.15
 74
     0
 49
-2.9
 74
     0
 49
0.15
 74
     0
 49
-2.9
 74
     0
  0
LTYPE
  5
2EE
330
24E
100
AcDbSymbolTableRecord
100
AcDbLinetypeTableRecord
  2
DIVIDEX2
 70
     0
  3

 72
    65
 73
     6
 40
59.99999999999999
 49
24.0
 74
     0
 49
-11.9
 74
     0
 49
0.15
 74
     0
 49
-11.9
 74
     0
 49
0.15
 74
     0
 49
-11.9
 74
     0
  0
LTYPE
  5
2EF
330
24E
100
AcDbSymbolTableRecord
100
AcDbLinetypeTableRecord
  2
DOT
 70
     0
  3

 72
    65
 73
     2
 40
6.3
 49
0.1
 74
     0
 49
-6.2
 74
     0
  0
LTYPE
  5
2F0
330
24E
100
AcDbSymbolTableRecord
100
AcDbLinetypeTableRecord
  2
DOT2
 70
     0
  3

 72
    65
 73
     2
 40
3.2
 49
0.1
 74
     0
 49
-3.1
 74
     0
  0
LTYPE
  5
2F1
330
24E
100
AcDbSymbolTableRecord
100
AcDbLinetypeTableRecord
  2
DOTX2
 70
     0
  3

 72
    65
 73
     2
 40
12.5
 49
0.1
 74
     0
 49
-12.4
 74
     0
  0
ENDTAB
  0
TABLE
  2
LAYER
  5
24B
330
0
100
AcDbSymbolTable
 70
     2
  0
LAYER
  5
259
330
24B
100
AcDbSymbolTableRecord
100
AcDbLayerTableRecord
  2
0
 70
     0
 62
     7
420
 16777215
  6
Continuous
370
    -3
390
258
347
28E
348
0
  0
LAYER
  5
2F2
330
24B
100
AcDbSymbolTableRecord
100
AcDbLayerTableRecord
  2
engrave
 70
     0
 62
     3
420
    65280
  6
Continuous
370
     0
390
258
347
28E
348
0
  0
ENDTAB
  0
TABLE
  2
STYLE
  5
24C
330
0
100
AcDbSymbolTable
 70
     1
  0
STYLE
  5
25A
330
24C
100
AcDbSymbolTableRecord
100
AcDbTextStyleTableRecord
  2
Standard
 70
     0
 40
0.0
 41
1.0
 50
0.0
 71
     0
 42
0.2
  3
txt
  4

  0
ENDTAB
  0
TABLE
  2
VIEW
  5
24F
330
0
100
AcDbSymbolTable
 70
     0
  0
ENDTAB
  0
TABLE
  2
UCS
  5
250
330
0
100
AcDbSymbolTable
 70
     0
  0
ENDTAB
  0
TABLE
  2
APPID
  5
252
330
0
100
AcDbSymbolTable
 70
     2
  0
APPID
  5
25B
330
252
100
AcDbSymbolTableRecord
100
AcDbRegAppTableRecord
  2
ACAD
 70
     0
  0
APPID
  5
2B2
330
252
100
AcDbSymbolTableRecord
100
AcDbRegAppTableRecord
  2
QCAD
 70
     0
  0
ENDTAB
  0
TABLE
  2
DIMSTYLE
  5
253
330
0
100
AcDbSymbolTable
 70
     2
100
AcDbDimStyleTable
  0
DIMSTYLE
105
26F
330
253
100
AcDbSymbolTableRecord
100
AcDbDimStyleTableRecord
  2
Standard
 70
     0
178
     0
340
25A
  0
DIMSTYLE
105
2DF
330
253
100
AcDbSymbolTableRecord
100
AcDbDimStyleTableRecord
  2
QCADDimStyle
 70
     0
 41
2.5
 42
0.625
 44
1.25
 73
     0
 77
     1
140
2.5
147
0.625
178
     0
340
25A
  0
ENDTAB
  0
TABLE
  2
BLOCK_RECORD
  5
24A
330
0
100
AcDbSymbolTable
 70
     1
  0
BLOCK_RECORD
  5
267
330
24A
100
AcDbSymbolTableRecord
100
AcDbBlockTableRecord
  2
*Model_Space
340
26A
 70
     0
280
     1
281
     0
  0
BLOCK_RECORD
  5
263
330
24A
100
AcDbSymbolTableRecord
100
AcDbBlockTableRecord
  2
*Paper_Space
340
266
 70
     0
280
     1
281
     0
  0
BLOCK_RECORD
  5
26B
330
24A
100
AcDbSymbolTableRecord
100
AcDbBlockTableRecord
  2
*Paper_Space0
340
26E
 70
     0
280
     1
281
     0
  0
ENDTAB
  0
ENDSEC
  0
SECTION
  2
BLOCKS
  0
BLOCK
  5
268
330
267
100
AcDbEntity
  8
0
100
AcDbBlockBegin
  2
*Model_Space
 70
     0
 10
0.0
 20
0.0
 30
0.0
  3
*Model_Space
  1
*Model_Space
  0
ENDBLK
  5
269
330
267
100
AcDbEntity
  8
0
100
AcDbBlockEnd
  0
BLOCK
  5
264
330
263
100
AcDbEntity
 67
     1
  8
0
100
AcDbBlockBegin
  2
*Paper_Space
 70
     0
 10
0.0
 20
0.0
 30
0.0
  3
*Paper_Space
  1
*Paper_Space
  0
ENDBLK
  5
265
330
263
100
AcDbEntity
 67
     1
  8
0
100
AcDbBlockEnd
  0
BLOCK
  5
26C
330
26B
100
AcDbEntity
  8
0
100
AcDbBlockBegin
  2
*Paper_Space0
 70
     0
 10
0.0
 20
0.0
 30
0.0
  3
*Paper_Space0
  1
*Paper_Space0
  0
ENDBLK
  5
26D
330
26B
100
AcDbEntity
  8
0
100
AcDbBlockEnd
  0
ENDSEC
  0
SECTION
  2
ENTITIES
  0
SPLINE
  5
132
330
267
100
AcDbEntity
  8
engrave
100
AcDbSpline
210
0.0
220
0.0
230
1.0
 70
     8
 71
     3
 72
     8
 73
     4
 74
     0
 42
0.000000001
 43
0.001
 40
0.0
 40
0.0
 40
0.0
 40
0.0
 40
1.0
 40
1.0
 40
1.0
 40
1.0
 10
47.68314055380301
 20
-14.81878724150022
 30
0.0
 10
47.73267905129103
 20
-15.36184133660481
 30
0.0
 10
47.92008412197686
 20
-15.80114499357398
 30
0.0
 10
48.2453557658605
 20
-16.13669821240802
 30
0.0
  0
LINE
  5
133
330
267
100
AcDbEntity
  8
engrave
100
AcDbLine
 10
51.94111461619354
 20
-14.81878724150022
 30
0.0
 11
47.68314055380301
 21
-14.81878724150022
 31
0.0
  0
LINE
  5
134
330
267
100
AcDbEntity
  8
engrave
100
AcDbLine
 10
51.94111461619354
 20
-13.2302839116719
 30
0.0
 11
51.94111461619354
 21
-14.81878724150022
 31
0.0
  0
LINE
  5
135
330
267
100
AcDbEntity
  8
engrave
100
AcDbLine
 10
47.90606379249914
 20
-13.2302839116719
 30
0.0
 11
51.94111461619354
 21
-13.2302839116719
 31
0.0
  0
SPLINE
  5
136
330
267
100
AcDbEntity
  8
engrave
100
AcDbSpline
210
0.0
220
0.0
230
1.0
 70
     8
 71
     3
 72
     8
 73
     4
 74
     0
 42
0.000000001
 43
0.001
 40
0.0
 40
0.0
 40
0.0
 40
0.0
 40
1.0
 40
1.0
 40
1.0
 40
1.0
 10
48.65334735366287
 20
-12.17595513494558
 30
0.0
 10
48.32153288935626
 20
-12.48720644935162
 30
0.0
 10
48.07243836896839
 20
-12.83864937492689
 30
0.0
 10
47.90606379249914
 20
-13.2302839116719
 30
0.0
  0
SPLINE
  5
137
330
267
100
AcDbEntity
  8
engrave
100
AcDbSpline
210
0.0
220
0.0
230
1.0
 70
     8
 71
     3
 72
     8
 73
     4
 74
     0
 42
0.000000001
 43
0.001
 40
0.0
 40
0.0
 40
0.0
 40
0.0
 40
1.0
 40
1.0
 40
1.0
 40
1.0
 10
50.77041710480194
 20
-11.44549596915527
 30
0.0
 10
49.87778946138565
 20
-11.44549596915527
 30
0.0
 10
49.17209954433929
 20
-11.68898235775208
 30
0.0
 10
48.65334735366287
 20
-12.17595513494558
 30
0.0
  0
SPLINE
  5
138
330
267
100
AcDbEntity
  8
engrave
100
AcDbSpline
210
0.0
220
0.0
230
1.0
 70
     8
 71
     3
 72
     8
 73
     4
 74
     0
 42
0.000000001
 43
0.001
 40
0.0
 40
0.0
 40
0.0
 40
0.0
 40
1.0
 40
1.0
 40
1.0
 40
1.0
 10
52.32667367683143
 20
-12.08061689449698
 30
0.0
 10
51.92475756513613
 20
-11.65720294426922
 30
0.0
 10
51.4060053744596
 20
-11.44549596915527
 30
0.0
 10
50.77041710480194
 20
-11.44549596915527
 30
0.0
  0
SPLINE
  5
139
330
267
100
AcDbEntity
  8
engrave
100
AcDbSpline
210
0.0
220
0.0
230
1.0
 70
     8
 71
     3
 72
     8
 73
     4
 74
     0
 42
0.000000001
 43
0.001
 40
0.0
 40
0.0
 40
0.0
 40
0.0
 40
1.0
 40
1.0
 40
1.0
 40
1.0
 10
52.66035751840172
 20
-12.55730809674031
 30
0.0
 10
52.57249678700782
 20
-12.38158663395262
 30
0.0
 10
52.46126883981776
 20
-12.22268956653812
 30
0.0
 10
52.32667367683143
 20
-12.08061689449698
 30
0.0
  0
LINE
  5
13A
330
267
100
AcDbEntity
  8
engrave
100
AcDbLine
 10
54.23904661759548
 20
-11.62075008762707
 30
0.0
 11
52.66035751840172
 21
-12.55730809674031
 31
0.0
  0
SPLINE
  5
13B
330
267
100
AcDbEntity
  8
engrave
100
AcDbSpline
210
0.0
220
0.0
230
1.0
 70
     8
 71
     3
 72
     8
 73
     4
 74
     0
 42
0.000000001
 43
0.001
 40
0.0
 40
0.0
 40
0.0
 40
0.0
 40
1.0
 40
1.0
 40
1.0
 40
1.0
 10
53.79320014020334
 20
-11.10199789695059
 30
0.0
 10
53.96331347119997
 20
-11.26089496436498
 30
0.0
 10
54.11192896366401
 20
-11.43381236125708
 30
0.0
 10
54.23904661759548
 20
-11.62075008762707
 30
0.0
  0
SPLINE
  5
13C
330
267
100
AcDbEntity
  8
engrave
100
AcDbSpline
210
0.0
220
0.0
230
1.0
 70
     8
 71
     3
 72
     8
 73
     4
 74
     0
 42
0.000000001
 43
0.001
 40
0.0
 40
0.0
 40
0.0
 40
0.0
 40
1.0
 40
1.0
 40
1.0
 40
1.0
 10
50.77041710480194
 20
-10.0
 30
0.0
 10
52.00233672157958
 20
-10.0
 30
0.0
 10
53.00993106671342
 20
-10.36733263231679
 30
0.0
 10
53.79320014020334
 20
-11.10199789695059
 30
0.0
  0
SPLINE
  5
13D
330
267
100
AcDbEntity
  8
engrave
100
AcDbSpline
210
0.0
220
0.0
230
1.0
 70
     8
 71
     3
 72
     8
 73
     4
 74
     0
 42
0.000000001
 43
0.001
 40
0.0
 40
0.0
 40
0.0
 40
0.0
 40
1.0
 40
1.0
 40
1.0
 40
1.0
 10
47.48825797406244
 20
-11.07535927094278
 30
0.0
 10
48.38088561747873
 20
-10.3584530903143
 30
0.0
 10
49.47493866105856
 20
-10.0
 30
0.0
 10
50.77041710480194
 20
-10.0
 30
0.0
  0
SPLINE
  5
13E
330
267
100
AcDbEntity
  8
engrave
100
AcDbSpline
210
0.0
220
0.0
230
1.0
 70
     8
 71
     3
 72
     8
 73
     4
 74
     0
 42
0.000000001
 43
0.001
 40
0.0
 40
0.0
 40
0.0
 40
0.0
 40
1.0
 40
1.0
 40
1.0
 40
1.0
 10
45.76235541535232
 20
-14.52716438836308
 30
0.0
 10
45.76235541535232
 20
-13.15036803364882
 30
0.0
 10
46.33765626825561
 20
-11.99976632784211
 30
0.0
 10
47.48825797406244
 20
-11.07535927094278
 30
0.0
  0
SPLINE
  5
13F
330
267
100
AcDbEntity
  8
engrave
100
AcDbSpline
210
0.0
220
0.0
230
1.0
 70
     8
 71
     3
 72
     8
 73
     4
 74
     0
 42
0.000000001
 43
0.001
 40
0.0
 40
0.0
 40
0.0
 40
0.0
 40
1.0
 40
1.0
 40
1.0
 40
1.0
 10
46.77882930248859
 20
-17.11111111111109
 30
0.0
 10
46.10118004439767
 20
-16.47271877555789
 30
0.0
 10
45.76235541535232
 20
-15.61140320130858
 30
0.0
 10
45.76235541535232
 20
-14.52716438836308
 30
0.0
  0
SPLINE
  5
140
330
267
100
AcDbEntity
  8
engrave
100
AcDbSpline
210
0.0
220
0.0
230
1.0
 70
     8
 71
     3
 72
     8
 73
     4
 74
     0
 42
0.000000001
 43
0.001
 40
0.0
 40
0.0
 40
0.0
 40
0.0
 40
1.0
 40
1.0
 40
1.0
 40
1.0
 10
49.80161233788999
 20
-18.21310900806168
 30
0.0
 10
48.56595396658486
 20
-18.21310900806168
 30
0.0
 10
47.55835962145113
 20
-17.84577637574478
 30
0.0
 10
46.77882930248859
 20
-17.11111111111109
 30
0.0
  0
SPLINE
  5
141
330
267
100
AcDbEntity
  8
engrave
100
AcDbSpline
210
0.0
220
0.0
230
1.0
 70
     8
 71
     3
 72
     8
 73
     4
 74
     0
 42
0.000000001
 43
0.001
 40
0.0
 40
0.0
 40
0.0
 40
0.0
 40
1.0
 40
1.0
 40
1.0
 40
1.0
 10
53.08377146862949
 20
-17.13774973711878
 30
0.0
 10
52.19488257974058
 20
-17.85465591774738
 30
0.0
 10
51.10082953616075
 20
-18.21310900806168
 30
0.0
 10
49.80161233788999
 20
-18.21310900806168
 30
0.0
  0
SPLINE
  5
142
330
267
100
AcDbEntity
  8
engrave
100
AcDbSpline
210
0.0
220
0.0
230
1.0
 70
     8
 71
     3
 72
     8
 73
     4
 74
     0
 42
0.000000001
 43
0.001
 40
0.0
 40
0.0
 40
0.0
 40
0.0
 40
1.0
 40
1.0
 40
1.0
 40
1.0
 10
54.18016123378902
 20
-15.93059936908509
 30
0.0
 10
53.90536277602519
 20
-16.36803364879069
 30
0.0
 10
53.53989952097209
 20
-16.77041710480188
 30
0.0
 10
53.08377146862949
 20
-17.13774973711878
 30
0.0
  0
LINE
  5
143
330
267
100
AcDbEntity
  8
engrave
100
AcDbLine
 10
40.93936207500872
 20
-13.2302839116719
 30
0.0
 11
40.41219768664564
 21
-12.09183315807923
 31
0.0
  0
LINE
  5
144
330
267
100
AcDbEntity
  8
engrave
100
AcDbLine
 10
39.9298983526113
 20
-13.2302839116719
 30
0.0
 11
40.93936207500872
 21
-13.2302839116719
 31
0.0
  0
LINE
  5
145
330
267
100
AcDbEntity
  8
engrave
100
AcDbLine
 10
40.41219768664564
 20
-12.09183315807923
 30
0.0
 11
39.9298983526113
 21
-13.2302839116719
 31
0.0
  0
LINE
  5
146
330
267
100
AcDbEntity
  8
engrave
100
AcDbLine
 10
37.70066596565016
 20
-18.10655450403078
 30
0.0
 11
35.92709428671571
 21
-18.10655450403078
 31
0.0
  0
LINE
  5
147
330
267
100
AcDbEntity
  8
engrave
100
AcDbLine
 10
39.25832457062745
 20
-14.81878724150022
 30
0.0
 11
37.70066596565016
 21
-18.10655450403078
 31
0.0
  0
LINE
  5
148
330
267
100
AcDbEntity
  8
engrave
100
AcDbLine
 10
41.676831405538
 20
-14.81878724150022
 30
0.0
 11
39.25832457062745
 21
-14.81878724150022
 31
0.0
  0
LINE
  5
149
330
267
100
AcDbEntity
  8
engrave
100
AcDbLine
 10
43.20224325271647
 20
-18.10655450403078
 30
0.0
 11
41.676831405538
 21
-14.81878724150022
 31
0.0
  0
LINE
  5
14A
330
267
100
AcDbEntity
  8
engrave
100
AcDbLine
 10
45.22958289519806
 20
-18.10655450403078
 30
0.0
 11
43.20224325271647
 21
-18.10655450403078
 31
0.0
  0
LINE
  5
14B
330
267
100
AcDbEntity
  8
engrave
100
AcDbLine
 10
41.35436382754995
 20
-10.10655450403078
 30
0.0
 11
45.22958289519806
 21
-18.10655450403078
 31
0.0
  0
LINE
  5
14C
330
267
100
AcDbEntity
  8
engrave
100
AcDbLine
 10
39.80231335436383
 20
-10.10655450403078
 30
0.0
 11
41.35436382754995
 21
-10.10655450403078
 31
0.0
  0
LINE
  5
14D
330
267
100
AcDbEntity
  8
engrave
100
AcDbLine
 10
35.92709428671571
 20
-18.10655450403078
 30
0.0
 11
39.80231335436383
 21
-10.10655450403078
 31
0.0
  0
LINE
  5
14E
330
267
100
AcDbEntity
  8
engrave
100
AcDbLine
 10
24.90431125131443
 20
-18.10655450403078
 30
0.0
 11
23.05082369435684
 21
-18.10655450403078
 31
0.0
  0
LINE
  5
14F
330
267
100
AcDbEntity
  8
engrave
100
AcDbLine
 10
24.90431125131443
 20
-13.28916929547842
 30
0.0
 11
24.90431125131443
 21
-18.10655450403078
 31
0.0
  0
SPLINE
  5
150
330
267
100
AcDbEntity
  8
engrave
100
AcDbSpline
210
0.0
220
0.0
230
1.0
 70
     8
 71
     3
 72
     8
 73
     4
 74
     0
 42
0.000000001
 43
0.001
 40
0.0
 40
0.0
 40
0.0
 40
0.0
 40
1.0
 40
1.0
 40
1.0
 40
1.0
 10
25.5548545390817
 20
-11.90676480897298
 30
0.0
 10
25.12115901390348
 20
-12.24231802780702
 30
0.0
 10
24.90431125131443
 20
-12.70311952330883
 30
0.0
 10
24.90431125131443
 20
-13.28916929547842
 30
0.0
  0
SPLINE
  5
151
330
267
100
AcDbEntity
  8
engrave
100
AcDbSpline
210
0.0
220
0.0
230
1.0
 70
     8
 71
     3
 72
     8
 73
     4
 74
     0
 42
0.000000001
 43
0.001
 40
0.0
 40
0.0
 40
0.0
 40
0.0
 40
1.0
 40
1.0
 40
1.0
 40
1.0
 10
27.00035050823692
 20
-11.4511041009464
 30
0.0
 10
26.42925575417689
 20
-11.4511041009464
 30
0.0
 10
25.94742376445845
 20
-11.60299100362192
 30
0.0
 10
25.5548545390817
 20
-11.90676480897298
 30
0.0
  0
SPLINE
  5
152
330
267
100
AcDbEntity
  8
engrave
100
AcDbSpline
210
0.0
220
0.0
230
1.0
 70
     8
 71
     3
 72
     8
 73
     4
 74
     0
 42
0.000000001
 43
0.001
 40
0.0
 40
0.0
 40
0.0
 40
0.0
 40
1.0
 40
1.0
 40
1.0
 40
1.0
 10
27.73221170697514
 20
-11.74833508587449
 30
0.0
 10
27.52751489660011
 20
-11.55018109592243
 30
0.0
 10
27.2835611636873
 20
-11.4511041009464
 30
0.0
 10
27.00035050823692
 20
-11.4511041009464
 30
0.0
  0
SPLINE
  5
153
330
267
100
AcDbEntity
  8
engrave
100
AcDbSpline
210
0.0
220
0.0
230
1.0
 70
     8
 71
     3
 72
     8
 73
     4
 74
     0
 42
0.000000001
 43
0.001
 40
0.0
 40
0.0
 40
0.0
 40
0.0
 40
1.0
 40
1.0
 40
1.0
 40
1.0
 10
28.00701016473886
 20
-12.53627760252368
 30
0.0
 10
28.00701016473886
 20
-12.18670405421187
 30
0.0
 10
27.91541067881758
 20
-11.92405654866218
 30
0.0
 10
27.73221170697514
 20
-11.74833508587449
 30
0.0
  0
LINE
  5
154
330
267
100
AcDbEntity
  8
engrave
100
AcDbLine
 10
28.00701016473886
 20
-18.10655450403078
 30
0.0
 11
28.00701016473886
 21
-12.53627760252368
 31
0.0
  0
LINE
  5
155
330
267
100
AcDbEntity
  8
engrave
100
AcDbLine
 10
29.86049772169645
 20
-18.10655450403078
 30
0.0
 11
28.00701016473886
 21
-18.10655450403078
 31
0.0
  0
LINE
  5
156
330
267
100
AcDbEntity
  8
engrave
100
AcDbLine
 10
29.86049772169645
 20
-13.28916929547842
 30
0.0
 11
29.86049772169645
 21
-18.10655450403078
 31
0.0
  0
SPLINE
  5
157
330
267
100
AcDbEntity
  8
engrave
100
AcDbSpline
210
0.0
220
0.0
230
1.0
 70
     8
 71
     3
 72
     8
 73
     4
 74
     0
 42
0.000000001
 43
0.001
 40
0.0
 40
0.0
 40
0.0
 40
0.0
 40
1.0
 40
1.0
 40
1.0
 40
1.0
 10
30.41009463722401
 20
-11.90676480897298
 30
0.0
 10
30.043696693539
 20
-12.21334268021963
 30
0.0
 10
29.86049772169645
 20
-12.67414417572138
 30
0.0
 10
29.86049772169645
 20
-13.28916929547842
 30
0.0
  0
SPLINE
  5
158
330
267
100
AcDbEntity
  8
engrave
100
AcDbSpline
210
0.0
220
0.0
230
1.0
 70
     8
 71
     3
 72
     8
 73
     4
 74
     0
 42
0.000000001
 43
0.001
 40
0.0
 40
0.0
 40
0.0
 40
0.0
 40
1.0
 40
1.0
 40
1.0
 40
1.0
 10
31.61303890641432
 20
-11.48335085874521
 30
0.0
 10
31.15036803364876
 20
-11.48335085874521
 30
0.0
 10
30.74938661058536
 20
-11.62448884215439
 30
0.0
 10
30.41009463722401
 20
-11.90676480897298
 30
0.0
  0
SPLINE
  5
159
330
267
100
AcDbEntity
  8
engrave
100
AcDbSpline
210
0.0
220
0.0
230
1.0
 70
     8
 71
     3
 72
     8
 73
     4
 74
     0
 42
0.000000001
 43
0.001
 40
0.0
 40
0.0
 40
0.0
 40
0.0
 40
1.0
 40
1.0
 40
1.0
 40
1.0
 10
32.93655800911324
 20
-12.16053277252013
 30
0.0
 10
32.57950695174668
 20
-11.70907816333681
 30
0.0
 10
32.13833391751371
 20
-11.48335085874521
 30
0.0
 10
31.61303890641432
 20
-11.48335085874521
 30
0.0
  0
SPLINE
  5
15A
330
267
100
AcDbEntity
  8
engrave
100
AcDbSpline
210
0.0
220
0.0
230
1.0
 70
     8
 71
     3
 72
     8
 73
     4
 74
     0
 42
0.000000001
 43
0.001
 40
0.0
 40
0.0
 40
0.0
 40
0.0
 40
1.0
 40
1.0
 40
1.0
 40
1.0
 10
33.43988783736415
 20
-13.89765159481249
 30
0.0
 10
33.43988783736415
 20
-13.16298633017868
 30
0.0
 10
33.27211122794722
 20
-12.58394672274801
 30
0.0
 10
32.93655800911324
 20
-12.16053277252013
 30
0.0
  0
SPLINE
  5
15B
330
267
100
AcDbEntity
  8
engrave
100
AcDbSpline
210
0.0
220
0.0
230
1.0
 70
     8
 71
     3
 72
     8
 73
     4
 74
     0
 42
0.000000001
 43
0.001
 40
0.0
 40
0.0
 40
0.0
 40
0.0
 40
1.0
 40
1.0
 40
1.0
 40
1.0
 10
33.00525762355414
 20
-15.91517700665958
 30
0.0
 10
33.29501109942748
 20
-15.33940880944027
 30
0.0
 10
33.43988783736415
 20
-14.66690033882458
 30
0.0
 10
33.43988783736415
 20
-13.89765159481249
 30
0.0
  0
SPLINE
  5
15C
330
267
100
AcDbEntity
  8
engrave
100
AcDbSpline
210
0.0
220
0.0
230
1.0
 70
     8
 71
     3
 72
     8
 73
     4
 74
     0
 42
0.000000001
 43
0.001
 40
0.0
 40
0.0
 40
0.0
 40
0.0
 40
1.0
 40
1.0
 40
1.0
 40
1.0
 10
31.15737819838762
 20
-18.10655450403078
 30
0.0
 10
31.93690851735016
 20
-17.54200257039372
 30
0.0
 10
32.55286832573904
 20
-16.81154340460341
 30
0.0
 10
33.00525762355414
 20
-15.91517700665958
 30
0.0
  0
LINE
  5
15D
330
267
100
AcDbEntity
  8
engrave
100
AcDbLine
 10
33.3810024535577
 20
-18.10655450403078
 30
0.0
 11
31.15737819838762
 21
-18.10655450403078
 31
0.0
  0
SPLINE
  5
15E
330
267
100
AcDbEntity
  8
engrave
100
AcDbSpline
210
0.0
220
0.0
230
1.0
 70
     8
 71
     3
 72
     8
 73
     4
 74
     0
 42
0.000000001
 43
0.001
 40
0.0
 40
0.0
 40
0.0
 40
0.0
 40
1.0
 40
1.0
 40
1.0
 40
1.0
 10
34.66806869961442
 20
-16.34279705573078
 30
0.0
 10
34.36429489426337
 20
-16.87930833041241
 30
0.0
 10
33.93527281224442
 20
-17.46722747984569
 30
0.0
 10
33.3810024535577
 20
-18.10655450403078
 30
0.0
  0
SPLINE
  5
15F
330
267
100
AcDbEntity
  8
engrave
100
AcDbSpline
210
0.0
220
0.0
230
1.0
 70
     8
 71
     3
 72
     8
 73
     4
 74
     0
 42
0.000000001
 43
0.001
 40
0.0
 40
0.0
 40
0.0
 40
0.0
 40
1.0
 40
1.0
 40
1.0
 40
1.0
 10
35.34525061338945
 20
-13.74342797055732
 30
0.0
 10
35.34525061338945
 20
-14.67905129103872
 30
0.0
 10
35.11952330879774
 20
-15.54550765276309
 30
0.0
 10
34.66806869961442
 20
-16.34279705573078
 30
0.0
  0
SPLINE
  5
160
330
267
100
AcDbEntity
  8
engrave
100
AcDbSpline
210
0.0
220
0.0
230
1.0
 70
     8
 71
     3
 72
     8
 73
     4
 74
     0
 42
0.000000001
 43
0.001
 40
0.0
 40
0.0
 40
0.0
 40
0.0
 40
1.0
 40
1.0
 40
1.0
 40
1.0
 10
34.34419908867858
 20
-11.13424465474941
 30
0.0
 10
35.01156677181916
 20
-11.82871830821358
 30
0.0
 10
35.34525061338945
 20
-12.69844608014961
 30
0.0
 10
35.34525061338945
 20
-13.74342797055732
 30
0.0
  0
SPLINE
  5
161
330
267
100
AcDbEntity
  8
engrave
100
AcDbSpline
210
0.0
220
0.0
230
1.0
 70
     8
 71
     3
 72
     8
 73
     4
 74
     0
 42
0.000000001
 43
0.001
 40
0.0
 40
0.0
 40
0.0
 40
0.0
 40
1.0
 40
1.0
 40
1.0
 40
1.0
 10
31.61724500525759
 20
-10.0
 30
0.0
 10
32.71176539315343
 20
-10.0
 30
0.0
 10
33.62075008762702
 20
-10.37808155158308
 30
0.0
 10
34.34419908867858
 20
-11.13424465474941
 30
0.0
  0
SPLINE
  5
162
330
267
100
AcDbEntity
  8
engrave
100
AcDbSpline
210
0.0
220
0.0
230
1.0
 70
     8
 71
     3
 72
     8
 73
     4
 74
     0
 42
0.000000001
 43
0.001
 40
0.0
 40
0.0
 40
0.0
 40
0.0
 40
1.0
 40
1.0
 40
1.0
 40
1.0
 10
30.13529617946017
 20
-10.40238345601119
 30
0.0
 10
30.54095104568296
 20
-10.13412781867038
 30
0.0
 10
31.03493398761543
 20
-10.0
 30
0.0
 10
31.61724500525759
 20
-10.0
 30
0.0
  0
SPLINE
  5
163
330
267
100
AcDbEntity
  8
engrave
100
AcDbSpline
210
0.0
220
0.0
230
1.0
 70
     8
 71
     3
 72
     8
 73
     4
 74
     0
 42
0.000000001
 43
0.001
 40
0.0
 40
0.0
 40
0.0
 40
0.0
 40
1.0
 40
1.0
 40
1.0
 40
1.0
 10
29.3627760252366
 20
-11.01647388713633
 30
0.0
 10
29.59551349456717
 20
-10.794952681388
 30
0.0
 10
29.8530202126417
 20
-10.59025587101303
 30
0.0
 10
30.13529617946017
 20
-10.40238345601119
 30
0.0
  0
SPLINE
  5
164
330
267
100
AcDbEntity
  8
engrave
100
AcDbSpline
210
0.0
220
0.0
230
1.0
 70
     8
 71
     3
 72
     8
 73
     4
 74
     0
 42
0.000000001
 43
0.001
 40
0.0
 40
0.0
 40
0.0
 40
0.0
 40
1.0
 40
1.0
 40
1.0
 40
1.0
 10
29.13003855590603
 20
-10.75709779179812
 30
0.0
 10
29.21789928729993
 20
-10.838415702769
 30
0.0
 10
29.29547844374338
 20
-10.92487440121511
 30
0.0
 10
29.3627760252366
 20
-11.01647388713633
 30
0.0
  0
SPLINE
  5
165
330
267
100
AcDbEntity
  8
engrave
100
AcDbSpline
210
0.0
220
0.0
230
1.0
 70
     8
 71
     3
 72
     8
 73
     4
 74
     0
 42
0.000000001
 43
0.001
 40
0.0
 40
0.0
 40
0.0
 40
0.0
 40
1.0
 40
1.0
 40
1.0
 40
1.0
 10
27.09148264984231
 20
-10.0
 30
0.0
 10
27.90279238228766
 20
-10.0
 30
0.0
 10
28.58231101764227
 20
-10.25236593059941
 30
0.0
 10
29.13003855590603
 20
-10.75709779179812
 30
0.0
  0
SPLINE
  5
166
330
267
100
AcDbEntity
  8
engrave
100
AcDbSpline
210
0.0
220
0.0
230
1.0
 70
     8
 71
     3
 72
     8
 73
     4
 74
     0
 42
0.000000001
 43
0.001
 40
0.0
 40
0.0
 40
0.0
 40
0.0
 40
1.0
 40
1.0
 40
1.0
 40
1.0
 10
25.50297932001399
 20
-10.32947774272702
 30
0.0
 10
26.07781282860151
 20
-10.10982591424232
 30
0.0
 10
26.60731393854428
 20
-10.0
 30
0.0
 10
27.09148264984231
 20
-10.0
 30
0.0
  0
SPLINE
  5
167
330
267
100
AcDbEntity
  8
engrave
100
AcDbSpline
210
0.0
220
0.0
230
1.0
 70
     8
 71
     3
 72
     8
 73
     4
 74
     0
 42
0.000000001
 43
0.001
 40
0.0
 40
0.0
 40
0.0
 40
0.0
 40
1.0
 40
1.0
 40
1.0
 40
1.0
 10
24.74027339642487
 20
-10.69961444093929
 30
0.0
 10
24.96927211122795
 20
-10.55847645753011
 30
0.0
 10
25.22350741909099
 20
-10.43509755812602
 30
0.0
 10
25.50297932001399
 20
-10.32947774272702
 30
0.0
  0
SPLINE
  5
168
330
267
100
AcDbEntity
  8
engrave
100
AcDbSpline
210
0.0
220
0.0
230
1.0
 70
     8
 71
     3
 72
     8
 73
     4
 74
     0
 42
0.000000001
 43
0.001
 40
0.0
 40
0.0
 40
0.0
 40
0.0
 40
1.0
 40
1.0
 40
1.0
 40
1.0
 10
24.18366631615845
 20
-10.10655450403078
 30
0.0
 10
24.4350975581259
 20
-10.25516999649489
 30
0.0
 10
24.62063325154804
 20
-10.45285664213111
 30
0.0
 10
24.74027339642487
 20
-10.69961444093929
 30
0.0
  0
LINE
  5
169
330
267
100
AcDbEntity
  8
engrave
100
AcDbLine
 10
22.15071854188568
 20
-10.10655450403078
 30
0.0
 11
24.18366631615845
 21
-10.10655450403078
 31
0.0
  0
LINE
  5
16A
330
267
100
AcDbEntity
  8
engrave
100
AcDbLine
 10
22.15071854188568
 20
-10.21170697511388
 30
0.0
 11
22.15071854188568
 21
-10.10655450403078
 31
0.0
  0
SPLINE
  5
16B
330
267
100
AcDbEntity
  8
engrave
100
AcDbSpline
210
0.0
220
0.0
230
1.0
 70
     8
 71
     3
 72
     8
 73
     4
 74
     0
 42
0.000000001
 43
0.001
 40
0.0
 40
0.0
 40
0.0
 40
0.0
 40
1.0
 40
1.0
 40
1.0
 40
1.0
 10
23.05082369435684
 20
-11.48895899053628
 30
0.0
 10
23.05082369435684
 20
-10.85337072087862
 30
0.0
 10
22.75078864353316
 20
-10.42762004907121
 30
0.0
 10
22.15071854188568
 20
-10.21170697511388
 30
0.0
  0
LINE
  5
16C
330
267
100
AcDbEntity
  8
engrave
100
AcDbLine
 10
23.05082369435684
 20
-18.10655450403078
 30
0.0
 11
23.05082369435684
 21
-11.48895899053628
 31
0.0
  0
LINE
  5
16D
330
267
100
AcDbEntity
  8
engrave
100
AcDbLine
 10
20.95618647038202
 20
-18.10655450403078
 30
0.0
 11
19.10269891342443
 21
-18.10655450403078
 31
0.0
  0
LINE
  5
16E
330
267
100
AcDbEntity
  8
engrave
100
AcDbLine
 10
20.95618647038202
 20
-11.48895899053628
 30
0.0
 11
20.95618647038202
 21
-18.10655450403078
 31
0.0
  0
SPLINE
  5
16F
330
267
100
AcDbEntity
  8
engrave
100
AcDbSpline
210
0.0
220
0.0
230
1.0
 70
     8
 71
     3
 72
     8
 73
     4
 74
     0
 42
0.000000001
 43
0.001
 40
0.0
 40
0.0
 40
0.0
 40
0.0
 40
1.0
 40
1.0
 40
1.0
 40
1.0
 10
20.23554153522605
 20
-10.10655450403078
 30
0.0
 10
20.7159714919967
 20
-10.3925692253768
 30
0.0
 10
20.95618647038202
 20
-10.85337072087862
 30
0.0
 10
20.95618647038202
 20
-11.48895899053628
 30
0.0
  0
LINE
  5
170
330
267
100
AcDbEntity
  8
engrave
100
AcDbLine
 10
18.20259376095339
 20
-10.10655450403078
 30
0.0
 11
20.23554153522605
 21
-10.10655450403078
 31
0.0
  0
LINE
  5
171
330
267
100
AcDbEntity
  8
engrave
100
AcDbLine
 10
18.20259376095339
 20
-10.21170697511388
 30
0.0
 11
18.20259376095339
 21
-10.10655450403078
 31
0.0
  0
SPLINE
  5
172
330
267
100
AcDbEntity
  8
engrave
100
AcDbSpline
210
0.0
220
0.0
230
1.0
 70
     8
 71
     3
 72
     8
 73
     4
 74
     0
 42
0.000000001
 43
0.001
 40
0.0
 40
0.0
 40
0.0
 40
0.0
 40
1.0
 40
1.0
 40
1.0
 40
1.0
 10
19.10269891342443
 20
-11.48895899053628
 30
0.0
 10
19.10269891342443
 20
-10.85337072087862
 30
0.0
 10
18.80266386260075
 20
-10.42762004907121
 30
0.0
 10
18.20259376095339
 20
-10.21170697511388
 30
0.0
  0
LINE
  5
173
330
267
100
AcDbEntity
  8
engrave
100
AcDbLine
 10
19.10269891342443
 20
-18.10655450403078
 30
0.0
 11
19.10269891342443
 21
-11.48895899053628
 31
0.0
  0
LINE
  5
174
330
267
100
AcDbEntity
  8
engrave
100
AcDbLine
 10
11.80371538731163
 20
-18.10655450403078
 30
0.0
 11
9.950227830354038
 21
-18.10655450403078
 31
0.0
  0
LINE
  5
175
330
267
100
AcDbEntity
  8
engrave
100
AcDbLine
 10
11.80371538731163
 20
-14.81878724150022
 30
0.0
 11
11.80371538731163
 21
-18.10655450403078
 31
0.0
  0
LINE
  5
176
330
267
100
AcDbEntity
  8
engrave
100
AcDbLine
 10
15.09709078163337
 20
-14.81878724150022
 30
0.0
 11
11.80371538731163
 21
-14.81878724150022
 31
0.0
  0
LINE
  5
177
330
267
100
AcDbEntity
  8
engrave
100
AcDbLine
 10
15.09709078163337
 20
-16.7241500175254
 30
0.0
 11
15.09709078163337
 21
-14.81878724150022
 31
0.0
  0
SPLINE
  5
178
330
267
100
AcDbEntity
  8
engrave
100
AcDbSpline
210
0.0
220
0.0
230
1.0
 70
     8
 71
     3
 72
     8
 73
     4
 74
     0
 42
0.000000001
 43
0.001
 40
0.0
 40
0.0
 40
0.0
 40
0.0
 40
1.0
 40
1.0
 40
1.0
 40
1.0
 10
15.81633368384155
 20
-18.10655450403078
 30
0.0
 10
15.3368384157028
 20
-17.82053978268488
 30
0.0
 10
15.09709078163337
 20
-17.35973828718312
 30
0.0
 10
15.09709078163337
 20
-16.7241500175254
 30
0.0
  0
LINE
  5
179
330
267
100
AcDbEntity
  8
engrave
100
AcDbLine
 10
17.850683491062
 20
-18.10655450403078
 30
0.0
 11
15.81633368384155
 21
-18.10655450403078
 31
0.0
  0
LINE
  5
17A
330
267
100
AcDbEntity
  8
engrave
100
AcDbLine
 10
17.850683491062
 20
-18.0
 30
0.0
 11
17.850683491062
 21
-18.10655450403078
 31
0.0
  0
SPLINE
  5
17B
330
267
100
AcDbEntity
  8
engrave
100
AcDbSpline
210
0.0
220
0.0
230
1.0
 70
     8
 71
     3
 72
     8
 73
     4
 74
     0
 42
0.000000001
 43
0.001
 40
0.0
 40
0.0
 40
0.0
 40
0.0
 40
1.0
 40
1.0
 40
1.0
 40
1.0
 10
16.95057833859096
 20
-16.7241500175254
 30
0.0
 10
16.95057833859096
 20
-17.35973828718312
 30
0.0
 10
17.25061338941464
 20
-17.78502161467458
 30
0.0
 10
17.850683491062
 20
-18.0
 30
0.0
  0
LINE
  5
17C
330
267
100
AcDbEntity
  8
engrave
100
AcDbLine
 10
16.95057833859096
 20
-10.10655450403078
 30
0.0
 11
16.95057833859096
 21
-16.7241500175254
 31
0.0
  0
LINE
  5
17D
330
267
100
AcDbEntity
  8
engrave
100
AcDbLine
 10
15.09709078163337
 20
-10.10655450403078
 30
0.0
 11
16.95057833859096
 21
-10.10655450403078
 31
0.0
  0
LINE
  5
17E
330
267
100
AcDbEntity
  8
engrave
100
AcDbLine
 10
15.09709078163337
 20
-13.2302839116719
 30
0.0
 11
15.09709078163337
 21
-10.10655450403078
 31
0.0
  0
LINE
  5
17F
330
267
100
AcDbEntity
  8
engrave
100
AcDbLine
 10
11.80371538731163
 20
-13.2302839116719
 30
0.0
 11
15.09709078163337
 21
-13.2302839116719
 31
0.0
  0
LINE
  5
180
330
267
100
AcDbEntity
  8
engrave
100
AcDbLine
 10
11.80371538731163
 20
-11.48895899053628
 30
0.0
 11
11.80371538731163
 21
-13.2302839116719
 31
0.0
  0
SPLINE
  5
181
330
267
100
AcDbEntity
  8
engrave
100
AcDbSpline
210
0.0
220
0.0
230
1.0
 70
     8
 71
     3
 72
     8
 73
     4
 74
     0
 42
0.000000001
 43
0.001
 40
0.0
 40
0.0
 40
0.0
 40
0.0
 40
1.0
 40
1.0
 40
1.0
 40
1.0
 10
11.08307045215565
 20
-10.10655450403078
 30
0.0
 10
11.5635004089263
 20
-10.3925692253768
 30
0.0
 10
11.80371538731163
 20
-10.85337072087862
 30
0.0
 10
11.80371538731163
 20
-11.48895899053628
 30
0.0
  0
LINE
  5
182
330
267
100
AcDbEntity
  8
engrave
100
AcDbLine
 10
9.050122677882882
 20
-10.10655450403078
 30
0.0
 11
11.08307045215565
 21
-10.10655450403078
 31
0.0
  0
LINE
  5
183
330
267
100
AcDbEntity
  8
engrave
100
AcDbLine
 10
9.050122677882882
 20
-10.21170697511388
 30
0.0
 11
9.050122677882882
 21
-10.10655450403078
 31
0.0
  0
SPLINE
  5
184
330
267
100
AcDbEntity
  8
engrave
100
AcDbSpline
210
0.0
220
0.0
230
1.0
 70
     8
 71
     3
 72
     8
 73
     4
 74
     0
 42
0.000000001
 43
0.001
 40
0.0
 40
0.0
 40
0.0
 40
0.0
 40
1.0
 40
1.0
 40
1.0
 40
1.0
 10
9.950227830354038
 20
-11.48895899053628
 30
0.0
 10
9.950227830354038
 20
-10.85337072087862
 30
0.0
 10
9.650192779530357
 20
-10.42762004907121
 30
0.0
 10
9.050122677882882
 20
-10.21170697511388
 30
0.0
  0
LINE
  5
185
330
267
100
AcDbEntity
  8
engrave
100
AcDbLine
 10
9.950227830354038
 20
-18.10655450403078
 30
0.0
 11
9.950227830354038
 21
-11.48895899053628
 31
0.0
  0
LINE
  5
186
330
267
100
AcDbEntity
  8
engrave
100
AcDbLine
 10
6.956887486855976
 20
-14.88748685594112
 30
0.0
 11
8.417805818436705
 21
-15.93059936908509
 31
0.0
  0
SPLINE
  5
187
330
267
100
AcDbEntity
  8
engrave
100
AcDbSpline
210
0.0
220
0.0
230
1.0
 70
     8
 71
     3
 72
     8
 73
     4
 74
     0
 42
0.000000001
 43
0.001
 40
0.0
 40
0.0
 40
0.0
 40
0.0
 40
1.0
 40
1.0
 40
1.0
 40
1.0
 10
6.157728706624653
 20
-16.03575184016819
 30
0.0
 10
6.52786540483703
 20
-15.72169645986679
 30
0.0
 10
6.7942516649141
 20
-15.33894146512438
 30
0.0
 10
6.956887486855976
 20
-14.88748685594112
 30
0.0
  0
SPLINE
  5
188
330
267
100
AcDbEntity
  8
engrave
100
AcDbSpline
210
0.0
220
0.0
230
1.0
 70
     8
 71
     3
 72
     8
 73
     4
 74
     0
 42
0.000000001
 43
0.001
 40
0.0
 40
0.0
 40
0.0
 40
0.0
 40
1.0
 40
1.0
 40
1.0
 40
1.0
 10
4.039256922537675
 20
-16.7676130389064
 30
0.0
 10
4.875803248042985
 20
-16.7676130389064
 30
0.0
 10
5.581960509405349
 20
-16.5236593059937
 30
0.0
 10
6.157728706624653
 20
-16.03575184016819
 30
0.0
  0
SPLINE
  5
189
330
267
100
AcDbEntity
  8
engrave
100
AcDbSpline
210
0.0
220
0.0
230
1.0
 70
     8
 71
     3
 72
     8
 73
     4
 74
     0
 42
0.000000001
 43
0.001
 40
0.0
 40
0.0
 40
0.0
 40
0.0
 40
1.0
 40
1.0
 40
1.0
 40
1.0
 10
2.483000350508291
 20
-16.13669821240802
 30
0.0
 10
2.888655216730967
 20
-16.55730809674031
 30
0.0
 10
3.407407407407391
 20
-16.7676130389064
 30
0.0
 10
4.039256922537675
 20
-16.7676130389064
 30
0.0
  0
SPLINE
  5
18A
330
267
100
AcDbEntity
  8
engrave
100
AcDbSpline
210
0.0
220
0.0
230
1.0
 70
     8
 71
     3
 72
     8
 73
     4
 74
     0
 42
0.000000001
 43
0.001
 40
0.0
 40
0.0
 40
0.0
 40
0.0
 40
1.0
 40
1.0
 40
1.0
 40
1.0
 10
1.905362776025186
 20
-14.49631966351211
 30
0.0
 10
1.905362776025186
 20
-15.19079331697628
 30
0.0
 10
2.097908634186183
 20
-15.73758616660831
 30
0.0
 10
2.483000350508291
 20
-16.13669821240802
 30
0.0
  0
SPLINE
  5
18B
330
267
100
AcDbEntity
  8
engrave
100
AcDbSpline
210
0.0
220
0.0
230
1.0
 70
     8
 71
     3
 72
     8
 73
     4
 74
     0
 42
0.000000001
 43
0.001
 40
0.0
 40
0.0
 40
0.0
 40
0.0
 40
1.0
 40
1.0
 40
1.0
 40
1.0
 10
2.890991938310549
 20
-12.17595513494558
 30
0.0
 10
2.233905830120307
 20
-12.79098025470267
 30
0.0
 10
1.905362776025186
 20
-13.56443509755809
 30
0.0
 10
1.905362776025186
 20
-14.49631966351211
 30
0.0
  0
SPLINE
  5
18C
330
267
100
AcDbEntity
  8
engrave
100
AcDbSpline
210
0.0
220
0.0
230
1.0
 70
     8
 71
     3
 72
     8
 73
     4
 74
     0
 42
0.000000001
 43
0.001
 40
0.0
 40
0.0
 40
0.0
 40
0.0
 40
1.0
 40
1.0
 40
1.0
 40
1.0
 10
5.008061689449733
 20
-11.44549596915527
 30
0.0
 10
4.118238111928918
 20
-11.44549596915527
 30
0.0
 10
3.412548194882561
 20
-11.68898235775208
 30
0.0
 10
2.890991938310549
 20
-12.17595513494558
 30
0.0
  0
SPLINE
  5
18D
330
267
100
AcDbEntity
  8
engrave
100
AcDbSpline
210
0.0
220
0.0
230
1.0
 70
     8
 71
     3
 72
     8
 73
     4
 74
     0
 42
0.000000001
 43
0.001
 40
0.0
 40
0.0
 40
0.0
 40
0.0
 40
1.0
 40
1.0
 40
1.0
 40
1.0
 10
6.564318261479116
 20
-12.08061689449698
 30
0.0
 10
6.162402149783816
 20
-11.65720294426922
 30
0.0
 10
5.643649959107393
 20
-11.44549596915527
 30
0.0
 10
5.008061689449733
 20
-11.44549596915527
 30
0.0
  0
SPLINE
  5
18E
330
267
100
AcDbEntity
  8
engrave
100
AcDbSpline
210
0.0
220
0.0
230
1.0
 70
     8
 71
     3
 72
     8
 73
     4
 74
     0
 42
0.000000001
 43
0.001
 40
0.0
 40
0.0
 40
0.0
 40
0.0
 40
1.0
 40
1.0
 40
1.0
 40
1.0
 10
6.898002103049407
 20
-12.55730809674031
 30
0.0
 10
6.810141371655618
 20
-12.38158663395262
 30
0.0
 10
6.698913424465445
 20
-12.22268956653812
 30
0.0
 10
6.564318261479116
 20
-12.08061689449698
 30
0.0
  0
LINE
  5
18F
330
267
100
AcDbEntity
  8
engrave
100
AcDbLine
 10
8.476691202243273
 20
-11.62075008762707
 30
0.0
 11
6.898002103049407
 21
-12.55730809674031
 31
0.0
  0
SPLINE
  5
190
330
267
100
AcDbEntity
  8
engrave
100
AcDbSpline
210
0.0
220
0.0
230
1.0
 70
     8
 71
     3
 72
     8
 73
     4
 74
     0
 42
0.000000001
 43
0.001
 40
0.0
 40
0.0
 40
0.0
 40
0.0
 40
1.0
 40
1.0
 40
1.0
 40
1.0
 10
8.030844724851022
 20
-11.10199789695059
 30
0.0
 10
8.20095805584765
 20
-11.26089496436498
 30
0.0
 10
8.349573548311696
 20
-11.43381236125708
 30
0.0
 10
8.476691202243273
 20
-11.62075008762707
 30
0.0
  0
SPLINE
  5
191
330
267
100
AcDbEntity
  8
engrave
100
AcDbSpline
210
0.0
220
0.0
230
1.0
 70
     8
 71
     3
 72
     8
 73
     4
 74
     0
 42
0.000000001
 43
0.001
 40
0.0
 40
0.0
 40
0.0
 40
0.0
 40
1.0
 40
1.0
 40
1.0
 40
1.0
 10
5.008061689449733
 20
-10.0
 30
0.0
 10
6.239981306227378
 20
-10.0
 30
0.0
 10
7.247575651361103
 20
-10.36733263231679
 30
0.0
 10
8.030844724851022
 20
-11.10199789695059
 30
0.0
  0
SPLINE
  5
192
330
267
100
AcDbEntity
  8
engrave
100
AcDbSpline
210
0.0
220
0.0
230
1.0
 70
     8
 71
     3
 72
     8
 73
     4
 74
     0
 42
0.000000001
 43
0.001
 40
0.0
 40
0.0
 40
0.0
 40
0.0
 40
1.0
 40
1.0
 40
1.0
 40
1.0
 10
1.725902558710118
 20
-11.07535927094278
 30
0.0
 10
2.618530202126408
 20
-10.3584530903143
 30
0.0
 10
3.712583245706242
 20
-10.0
 30
0.0
 10
5.008061689449733
 20
-10.0
 30
0.0
  0
SPLINE
  5
193
330
267
100
AcDbEntity
  8
engrave
100
AcDbSpline
210
0.0
220
0.0
230
1.0
 70
     8
 71
     3
 72
     8
 73
     4
 74
     0
 42
0.000000001
 43
0.001
 40
0.0
 40
0.0
 40
0.0
 40
0.0
 40
1.0
 40
1.0
 40
1.0
 40
1.0
 10
0.0
 20
-14.52716438836308
 30
0.0
 10
0.0
 20
-13.15036803364882
 30
0.0
 10
0.5753008529034105
 20
-11.99976632784211
 30
0.0
 10
1.725902558710118
 20
-11.07535927094278
 30
0.0
  0
SPLINE
  5
194
330
267
100
AcDbEntity
  8
engrave
100
AcDbSpline
210
0.0
220
0.0
230
1.0
 70
     8
 71
     3
 72
     8
 73
     4
 74
     0
 42
0.000000001
 43
0.001
 40
0.0
 40
0.0
 40
0.0
 40
0.0
 40
1.0
 40
1.0
 40
1.0
 40
1.0
 10
1.016473887136385
 20
-17.11111111111109
 30
0.0
 10
0.3388246290454617
 20
-16.47271877555789
 30
0.0
 10
0.0
 20
-15.61140320130858
 30
0.0
 10
0.0
 20
-14.52716438836308
 30
0.0
  0
SPLINE
  5
195
330
267
100
AcDbEntity
  8
engrave
100
AcDbSpline
210
0.0
220
0.0
230
1.0
 70
     8
 71
     3
 72
     8
 73
     4
 74
     0
 42
0.000000001
 43
0.001
 40
0.0
 40
0.0
 40
0.0
 40
0.0
 40
1.0
 40
1.0
 40
1.0
 40
1.0
 10
4.039256922537675
 20
-18.21310900806168
 30
0.0
 10
2.803598551232653
 20
-18.21310900806168
 30
0.0
 10
1.796004206098814
 20
-17.84577637574478
 30
0.0
 10
1.016473887136385
 20
-17.11111111111109
 30
0.0
  0
SPLINE
  5
196
330
267
100
AcDbEntity
  8
engrave
100
AcDbSpline
210
0.0
220
0.0
230
1.0
 70
     8
 71
     3
 72
     8
 73
     4
 74
     0
 42
0.000000001
 43
0.001
 40
0.0
 40
0.0
 40
0.0
 40
0.0
 40
1.0
 40
1.0
 40
1.0
 40
1.0
 10
7.321416053277289
 20
-17.13774973711878
 30
0.0
 10
6.432527164388375
 20
-17.85465591774738
 30
0.0
 10
5.338474120808542
 20
-18.21310900806168
 30
0.0
 10
4.039256922537675
 20
-18.21310900806168
 30
0.0
  0
SPLINE
  5
197
330
267
100
AcDbEntity
  8
engrave
100
AcDbSpline
210
0.0
220
0.0
230
1.0
 70
     8
 71
     3
 72
     8
 73
     4
 74
     0
 42
0.000000001
 43
0.001
 40
0.0
 40
0.0
 40
0.0
 40
0.0
 40
1.0
 40
1.0
 40
1.0
 40
1.0
 10
8.417805818436705
 20
-15.93059936908509
 30
0.0
 10
8.143007360672982
 20
-16.36803364879069
 30
0.0
 10
7.777544105619768
 20
-16.77041710480188
 30
0.0
 10
7.321416053277289
 20
-17.13774973711878
 30
0.0
  0
LINE
  5
198
330
267
100
AcDbEntity
  8
engrave
100
AcDbLine
 10
4.290220820189234
 20
-4.876270592358878
 30
0.0
 11
4.817385208552423
 21
-6.014721345951614
 31
0.0
  0
LINE
  5
199
330
267
100
AcDbEntity
  8
engrave
100
AcDbLine
 10
5.29968454258676
 20
-4.876270592358878
 30
0.0
 11
4.290220820189234
 21
-4.876270592358878
 31
0.0
  0
LINE
  5
19A
330
267
100
AcDbEntity
  8
engrave
100
AcDbLine
 10
4.817385208552423
 20
-6.014721345951614
 30
0.0
 11
5.29968454258676
 21
-4.876270592358878
 31
0.0
  0
LINE
  5
19B
330
267
100
AcDbEntity
  8
engrave
100
AcDbLine
 10
7.52891692954779
 20
0.0
 30
0.0
 11
9.302488608482236
 21
0.0
 31
0.0
  0
LINE
  5
19C
330
267
100
AcDbEntity
  8
engrave
100
AcDbLine
 10
5.971258324570613
 20
-3.287767262530679
 30
0.0
 11
7.52891692954779
 21
0.0
 31
0.0
  0
LINE
  5
19D
330
267
100
AcDbEntity
  8
engrave
100
AcDbLine
 10
3.552751489659954
 20
-3.287767262530679
 30
0.0
 11
5.971258324570613
 21
-3.287767262530679
 31
0.0
  0
LINE
  5
19E
330
267
100
AcDbEntity
  8
engrave
100
AcDbLine
 10
2.027339642481593
 20
0.0
 30
0.0
 11
3.552751489659954
 21
-3.287767262530679
 31
0.0
  0
LINE
  5
19F
330
267
100
AcDbEntity
  8
engrave
100
AcDbLine
 10
0.0
 20
0.0
 30
0.0
 11
2.027339642481593
 21
0.0
 31
0.0
  0
LINE
  5
1A0
330
267
100
AcDbEntity
  8
engrave
100
AcDbLine
 10
3.875219067648118
 20
-8.0
 30
0.0
 11
0.0
 21
0.0
 31
0.0
  0
LINE
  5
1A1
330
267
100
AcDbEntity
  8
engrave
100
AcDbLine
 10
5.427269540834232
 20
-8.0
 30
0.0
 11
3.875219067648118
 21
-8.0
 31
0.0
  0
LINE
  5
1A2
330
267
100
AcDbEntity
  8
engrave
100
AcDbLine
 10
9.302488608482236
 20
0.0
 30
0.0
 11
5.427269540834232
 21
-8.0
 31
0.0
  0
LINE
  5
1A3
330
267
100
AcDbEntity
  8
engrave
100
AcDbLine
 10
15.39011566771819
 20
0.0
 30
0.0
 11
17.24360322467578
 21
0.0
 31
0.0
  0
LINE
  5
1A4
330
267
100
AcDbEntity
  8
engrave
100
AcDbLine
 10
15.39011566771819
 20
-4.601472134595213
 30
0.0
 11
15.39011566771819
 21
0.0
 31
0.0
  0
SPLINE
  5
1A5
330
267
100
AcDbEntity
  8
engrave
100
AcDbSpline
210
0.0
220
0.0
230
1.0
 70
     8
 71
     3
 72
     8
 73
     4
 74
     0
 42
0.000000001
 43
0.001
 40
0.0
 40
0.0
 40
0.0
 40
0.0
 40
1.0
 40
1.0
 40
1.0
 40
1.0
 10
14.75499474237643
 20
-6.125481948825779
 30
0.0
 10
15.17840869260431
 20
-5.719827082603103
 30
0.0
 10
15.39011566771819
 20
-5.211823811192914
 30
0.0
 10
15.39011566771819
 20
-4.601472134595213
 30
0.0
  0
SPLINE
  5
1A6
330
267
100
AcDbEntity
  8
engrave
100
AcDbSpline
210
0.0
220
0.0
230
1.0
 70
     8
 71
     3
 72
     8
 73
     4
 74
     0
 42
0.000000001
 43
0.001
 40
0.0
 40
0.0
 40
0.0
 40
0.0
 40
1.0
 40
1.0
 40
1.0
 40
1.0
 10
13.50017525411852
 20
-6.655450403084387
 30
0.0
 10
13.96565019277955
 20
-6.655450403084387
 30
0.0
 10
14.38392335553215
 20
-6.478794251664908
 30
0.0
 10
14.75499474237643
 20
-6.125481948825779
 30
0.0
  0
SPLINE
  5
1A7
330
267
100
AcDbEntity
  8
engrave
100
AcDbSpline
210
0.0
220
0.0
230
1.0
 70
     8
 71
     3
 72
     8
 73
     4
 74
     0
 42
0.000000001
 43
0.001
 40
0.0
 40
0.0
 40
0.0
 40
0.0
 40
1.0
 40
1.0
 40
1.0
 40
1.0
 10
12.55240098142303
 20
-6.184367332632291
 30
0.0
 10
12.77485687580327
 20
-6.498422712933689
 30
0.0
 10
13.09078163336835
 20
-6.655450403084387
 30
0.0
 10
13.50017525411852
 20
-6.655450403084387
 30
0.0
  0
SPLINE
  5
1A8
330
267
100
AcDbEntity
  8
engrave
100
AcDbSpline
210
0.0
220
0.0
230
1.0
 70
     8
 71
     3
 72
     8
 73
     4
 74
     0
 42
0.000000001
 43
0.001
 40
0.0
 40
0.0
 40
0.0
 40
0.0
 40
1.0
 40
1.0
 40
1.0
 40
1.0
 10
12.27199439186825
 20
-5.087977567472819
 30
0.0
 10
12.27199439186825
 20
-5.554387194765809
 30
0.0
 10
12.3654632550531
 20
-5.91985044981891
 30
0.0
 10
12.55240098142303
 20
-6.184367332632291
 30
0.0
  0
SPLINE
  5
1A9
330
267
100
AcDbEntity
  8
engrave
100
AcDbSpline
210
0.0
220
0.0
230
1.0
 70
     8
 71
     3
 72
     8
 73
     4
 74
     0
 42
0.000000001
 43
0.001
 40
0.0
 40
0.0
 40
0.0
 40
0.0
 40
1.0
 40
1.0
 40
1.0
 40
1.0
 10
12.9071153172099
 20
-3.610234840518672
 30
0.0
 10
12.48370136698213
 20
-4.027105970323589
 30
0.0
 10
12.27199439186825
 20
-4.519686879308324
 30
0.0
 10
12.27199439186825
 20
-5.087977567472819
 30
0.0
  0
SPLINE
  5
1AA
330
267
100
AcDbEntity
  8
engrave
100
AcDbSpline
210
0.0
220
0.0
230
1.0
 70
     8
 71
     3
 72
     8
 73
     4
 74
     0
 42
0.000000001
 43
0.001
 40
0.0
 40
0.0
 40
0.0
 40
0.0
 40
1.0
 40
1.0
 40
1.0
 40
1.0
 10
14.2362425517
 20
-3.05502979320022
 30
0.0
 10
13.72777193597381
 20
-3.05502979320022
 30
0.0
 10
13.28472952447714
 20
-3.240098142306408
 30
0.0
 10
12.9071153172099
 20
-3.610234840518672
 30
0.0
  0
SPLINE
  5
1AB
330
267
100
AcDbEntity
  8
engrave
100
AcDbSpline
210
0.0
220
0.0
230
1.0
 70
     8
 71
     3
 72
     8
 73
     4
 74
     0
 42
0.000000001
 43
0.001
 40
0.0
 40
0.0
 40
0.0
 40
0.0
 40
1.0
 40
1.0
 40
1.0
 40
1.0
 10
15.18401682439537
 20
-3.155976165439881
 30
0.0
 10
15.0036219184484
 20
-3.088678583946717
 30
0.0
 10
14.68769716088332
 20
-3.05502979320022
 30
0.0
 10
14.2362425517
 20
-3.05502979320022
 30
0.0
  0
LINE
  5
1AC
330
267
100
AcDbEntity
  8
engrave
100
AcDbLine
 10
12.11777076761302
 20
0.0
 30
0.0
 11
15.18401682439537
 21
-3.155976165439881
 31
0.0
  0
LINE
  5
1AD
330
267
100
AcDbEntity
  8
engrave
100
AcDbLine
 10
9.634770417104846
 20
0.0
 30
0.0
 11
12.11777076761302
 21
0.0
 31
0.0
  0
LINE
  5
1AE
330
267
100
AcDbEntity
  8
engrave
100
AcDbLine
 10
11.98037153873111
 20
-2.334384858044189
 30
0.0
 11
9.634770417104846
 21
0.0
 31
0.0
  0
SPLINE
  5
1AF
330
267
100
AcDbEntity
  8
engrave
100
AcDbSpline
210
0.0
220
0.0
230
1.0
 70
     8
 71
     3
 72
     8
 73
     4
 74
     0
 42
0.000000001
 43
0.001
 40
0.0
 40
0.0
 40
0.0
 40
0.0
 40
1.0
 40
1.0
 40
1.0
 40
1.0
 10
10.35962145110409
 20
-5.341745531020024
 30
0.0
 10
10.35962145110409
 20
-4.089262764341584
 30
0.0
 10
10.8998714803131
 20
-3.086809206682972
 30
0.0
 10
11.98037153873111
 20
-2.334384858044189
 30
0.0
  0
SPLINE
  5
1B0
330
267
100
AcDbEntity
  8
engrave
100
AcDbSpline
210
0.0
220
0.0
230
1.0
 70
     8
 71
     3
 72
     8
 73
     4
 74
     0
 42
0.000000001
 43
0.001
 40
0.0
 40
0.0
 40
0.0
 40
0.0
 40
1.0
 40
1.0
 40
1.0
 40
1.0
 10
11.13915177006663
 20
-7.233087977567493
 30
0.0
 10
10.61946489075831
 20
-6.745180511741978
 30
0.0
 10
10.35962145110409
 20
-6.114733029559488
 30
0.0
 10
10.35962145110409
 20
-5.341745531020024
 30
0.0
  0
SPLINE
  5
1B1
330
267
100
AcDbEntity
  8
engrave
100
AcDbSpline
210
0.0
220
0.0
230
1.0
 70
     8
 71
     3
 72
     8
 73
     4
 74
     0
 42
0.000000001
 43
0.001
 40
0.0
 40
0.0
 40
0.0
 40
0.0
 40
1.0
 40
1.0
 40
1.0
 40
1.0
 10
13.38941465124435
 20
-8.106554504030782
 30
0.0
 10
12.50987264867388
 20
-8.106554504030782
 30
0.0
 10
11.75978502161468
 20
-7.815398995209705
 30
0.0
 10
11.13915177006663
 20
-7.233087977567493
 30
0.0
  0
SPLINE
  5
1B2
330
267
100
AcDbEntity
  8
engrave
100
AcDbSpline
210
0.0
220
0.0
230
1.0
 70
     8
 71
     3
 72
     8
 73
     4
 74
     0
 42
0.000000001
 43
0.001
 40
0.0
 40
0.0
 40
0.0
 40
0.0
 40
1.0
 40
1.0
 40
1.0
 40
1.0
 10
14.90361023484047
 20
-7.772870662460491
 30
0.0
 10
14.4446781166024
 20
-7.99532655684078
 30
0.0
 10
13.9399462554037
 20
-8.106554504030782
 30
0.0
 10
13.38941465124435
 20
-8.106554504030782
 30
0.0
  0
SPLINE
  5
1B3
330
267
100
AcDbEntity
  8
engrave
100
AcDbSpline
210
0.0
220
0.0
230
1.0
 70
     8
 71
     3
 72
     8
 73
     4
 74
     0
 42
0.000000001
 43
0.001
 40
0.0
 40
0.0
 40
0.0
 40
0.0
 40
1.0
 40
1.0
 40
1.0
 40
1.0
 10
15.55976165439893
 20
-7.422362425517008
 30
0.0
 10
15.35506484402379
 20
-7.542937259025621
 30
0.0
 10
15.13634770417104
 20
-7.659773338006801
 30
0.0
 10
14.90361023484047
 20
-7.772870662460491
 30
0.0
  0
SPLINE
  5
1B4
330
267
100
AcDbEntity
  8
engrave
100
AcDbSpline
210
0.0
220
0.0
230
1.0
 70
     8
 71
     3
 72
     8
 73
     4
 74
     0
 42
0.000000001
 43
0.001
 40
0.0
 40
0.0
 40
0.0
 40
0.0
 40
1.0
 40
1.0
 40
1.0
 40
1.0
 10
16.11076060287417
 20
-8.0
 30
0.0
 10
15.86306811543409
 20
-7.851384507536011
 30
0.0
 10
15.67940179927564
 20
-7.6588386493749
 30
0.0
 10
15.55976165439893
 20
-7.422362425517008
 30
0.0
  0
LINE
  5
1B5
330
267
100
AcDbEntity
  8
engrave
100
AcDbLine
 10
18.14370837714682
 20
-8.0
 30
0.0
 11
16.11076060287417
 21
-8.0
 31
0.0
  0
LINE
  5
1B6
330
267
100
AcDbEntity
  8
engrave
100
AcDbLine
 10
18.14370837714682
 20
-7.894847528917012
 30
0.0
 11
18.14370837714682
 21
-8.0
 31
0.0
  0
SPLINE
  5
1B7
330
267
100
AcDbEntity
  8
engrave
100
AcDbSpline
210
0.0
220
0.0
230
1.0
 70
     8
 71
     3
 72
     8
 73
     4
 74
     0
 42
0.000000001
 43
0.001
 40
0.0
 40
0.0
 40
0.0
 40
0.0
 40
1.0
 40
1.0
 40
1.0
 40
1.0
 10
17.24360322467578
 20
-6.617595513494621
 30
0.0
 10
17.24360322467578
 20
-7.253183783152224
 30
0.0
 10
17.54363827549946
 20
-7.678934454959688
 30
0.0
 10
18.14370837714682
 20
-7.894847528917012
 30
0.0
  0
LINE
  5
1B8
330
267
100
AcDbEntity
  8
engrave
100
AcDbLine
 10
17.24360322467578
 20
0.0
 30
0.0
 11
17.24360322467578
 21
-6.617595513494621
 31
0.0
  0
LINE
  5
1B9
330
267
100
AcDbEntity
  8
engrave
100
AcDbLine
 10
20.23694356817384
 20
-3.21906764808972
 30
0.0
 11
18.77602523659311
 21
-2.175955134945696
 31
0.0
  0
SPLINE
  5
1BA
330
267
100
AcDbEntity
  8
engrave
100
AcDbSpline
210
0.0
220
0.0
230
1.0
 70
     8
 71
     3
 72
     8
 73
     4
 74
     0
 42
0.000000001
 43
0.001
 40
0.0
 40
0.0
 40
0.0
 40
0.0
 40
1.0
 40
1.0
 40
1.0
 40
1.0
 10
21.03610234840517
 20
-2.070802663862594
 30
0.0
 10
20.66596565019279
 20
-2.384858044163991
 30
0.0
 10
20.3995793901156
 20
-2.767613038906404
 30
0.0
 10
20.23694356817384
 20
-3.21906764808972
 30
0.0
  0
SPLINE
  5
1BB
330
267
100
AcDbEntity
  8
engrave
100
AcDbSpline
210
0.0
220
0.0
230
1.0
 70
     8
 71
     3
 72
     8
 73
     4
 74
     0
 42
0.000000001
 43
0.001
 40
0.0
 40
0.0
 40
0.0
 40
0.0
 40
1.0
 40
1.0
 40
1.0
 40
1.0
 10
23.15457413249214
 20
-1.338941465124378
 30
0.0
 10
22.31802780698683
 20
-1.338941465124378
 30
0.0
 10
21.61187054562447
 20
-1.582895198037079
 30
0.0
 10
21.03610234840517
 20
-2.070802663862594
 30
0.0
  0
SPLINE
  5
1BC
330
267
100
AcDbEntity
  8
engrave
100
AcDbSpline
210
0.0
220
0.0
230
1.0
 70
     8
 71
     3
 72
     8
 73
     4
 74
     0
 42
0.000000001
 43
0.001
 40
0.0
 40
0.0
 40
0.0
 40
0.0
 40
1.0
 40
1.0
 40
1.0
 40
1.0
 10
24.71083070452153
 20
-1.969856291622875
 30
0.0
 10
24.30517583829885
 20
-1.549246407290582
 30
0.0
 10
23.78642364762243
 20
-1.338941465124378
 30
0.0
 10
23.15457413249214
 20
-1.338941465124378
 30
0.0
  0
SPLINE
  5
1BD
330
267
100
AcDbEntity
  8
engrave
100
AcDbSpline
210
0.0
220
0.0
230
1.0
 70
     8
 71
     3
 72
     8
 73
     4
 74
     0
 42
0.000000001
 43
0.001
 40
0.0
 40
0.0
 40
0.0
 40
0.0
 40
1.0
 40
1.0
 40
1.0
 40
1.0
 10
25.27304591657901
 20
-3.287767262530679
 30
0.0
 10
25.22350741909099
 20
-2.744713167426085
 30
0.0
 10
25.03610234840517
 20
-2.305409510456911
 30
0.0
 10
24.71083070452153
 20
-1.969856291622875
 30
0.0
  0
LINE
  5
1BE
330
267
100
AcDbEntity
  8
engrave
100
AcDbLine
 10
21.01507185418859
 20
-3.287767262530679
 30
0.0
 11
25.27304591657901
 21
-3.287767262530679
 31
0.0
  0
LINE
  5
1BF
330
267
100
AcDbEntity
  8
engrave
100
AcDbLine
 10
21.01507185418859
 20
-4.876270592358878
 30
0.0
 11
21.01507185418859
 21
-3.287767262530679
 31
0.0
  0
LINE
  5
1C0
330
267
100
AcDbEntity
  8
engrave
100
AcDbLine
 10
25.05012267788288
 20
-4.876270592358878
 30
0.0
 11
21.01507185418859
 21
-4.876270592358878
 31
0.0
  0
SPLINE
  5
1C1
330
267
100
AcDbEntity
  8
engrave
100
AcDbSpline
210
0.0
220
0.0
230
1.0
 70
     8
 71
     3
 72
     8
 73
     4
 74
     0
 42
0.000000001
 43
0.001
 40
0.0
 40
0.0
 40
0.0
 40
0.0
 40
1.0
 40
1.0
 40
1.0
 40
1.0
 10
24.30283911671927
 20
-5.930599369085201
 30
0.0
 10
24.63465358102576
 20
-5.619348054679278
 30
0.0
 10
24.88374810141374
 20
-5.267905129103895
 30
0.0
 10
25.05012267788288
 20
-4.876270592358878
 30
0.0
  0
SPLINE
  5
1C2
330
267
100
AcDbEntity
  8
engrave
100
AcDbSpline
210
0.0
220
0.0
230
1.0
 70
     8
 71
     3
 72
     8
 73
     4
 74
     0
 42
0.000000001
 43
0.001
 40
0.0
 40
0.0
 40
0.0
 40
0.0
 40
1.0
 40
1.0
 40
1.0
 40
1.0
 10
22.18576936558009
 20
-6.661058534875622
 30
0.0
 10
23.07839700899638
 20
-6.661058534875622
 30
0.0
 10
23.78408692604273
 20
-6.417572146278815
 30
0.0
 10
24.30283911671927
 20
-5.930599369085201
 30
0.0
  0
SPLINE
  5
1C3
330
267
100
AcDbEntity
  8
engrave
100
AcDbSpline
210
0.0
220
0.0
230
1.0
 70
     8
 71
     3
 72
     8
 73
     4
 74
     0
 42
0.000000001
 43
0.001
 40
0.0
 40
0.0
 40
0.0
 40
0.0
 40
1.0
 40
1.0
 40
1.0
 40
1.0
 10
20.6295127935507
 20
-6.025937609533798
 30
0.0
 10
21.03142890524589
 20
-6.449351559761681
 30
0.0
 10
21.55018109592243
 20
-6.661058534875622
 30
0.0
 10
22.18576936558009
 20
-6.661058534875622
 30
0.0
  0
SPLINE
  5
1C4
330
267
100
AcDbEntity
  8
engrave
100
AcDbSpline
210
0.0
220
0.0
230
1.0
 70
     8
 71
     3
 72
     8
 73
     4
 74
     0
 42
0.000000001
 43
0.001
 40
0.0
 40
0.0
 40
0.0
 40
0.0
 40
1.0
 40
1.0
 40
1.0
 40
1.0
 10
20.29582895198041
 20
-5.549246407290582
 30
0.0
 10
20.3836896833742
 20
-5.724967870078274
 30
0.0
 10
20.49491763056426
 20
-5.883864937492717
 30
0.0
 10
20.6295127935507
 20
-6.025937609533798
 30
0.0
  0
LINE
  5
1C5
330
267
100
AcDbEntity
  8
engrave
100
AcDbLine
 10
18.71713985278654
 20
-6.485804416403823
 30
0.0
 11
20.29582895198041
 21
-5.549246407290582
 31
0.0
  0
SPLINE
  5
1C6
330
267
100
AcDbEntity
  8
engrave
100
AcDbSpline
210
0.0
220
0.0
230
1.0
 70
     8
 71
     3
 72
     8
 73
     4
 74
     0
 42
0.000000001
 43
0.001
 40
0.0
 40
0.0
 40
0.0
 40
0.0
 40
1.0
 40
1.0
 40
1.0
 40
1.0
 10
19.1629863301788
 20
-7.00455660708019
 30
0.0
 10
18.99287299918217
 20
-6.845659539665917
 30
0.0
 10
18.84425750671812
 20
-6.6727421427737
 30
0.0
 10
18.71713985278654
 20
-6.485804416403823
 30
0.0
  0
SPLINE
  5
1C7
330
267
100
AcDbEntity
  8
engrave
100
AcDbSpline
210
0.0
220
0.0
230
1.0
 70
     8
 71
     3
 72
     8
 73
     4
 74
     0
 42
0.000000001
 43
0.001
 40
0.0
 40
0.0
 40
0.0
 40
0.0
 40
1.0
 40
1.0
 40
1.0
 40
1.0
 10
22.18576936558009
 20
-8.106554504030782
 30
0.0
 10
20.95384974880244
 20
-8.106554504030782
 30
0.0
 10
19.9462554036686
 20
-7.739221871713994
 30
0.0
 10
19.1629863301788
 20
-7.00455660708019
 30
0.0
  0
SPLINE
  5
1C8
330
267
100
AcDbEntity
  8
engrave
100
AcDbSpline
210
0.0
220
0.0
230
1.0
 70
     8
 71
     3
 72
     8
 73
     4
 74
     0
 42
0.000000001
 43
0.001
 40
0.0
 40
0.0
 40
0.0
 40
0.0
 40
1.0
 40
1.0
 40
1.0
 40
1.0
 10
25.4679284963197
 20
-7.031195233087999
 30
0.0
 10
24.57530085290341
 20
-7.748101413716483
 30
0.0
 10
23.48124780932346
 20
-8.106554504030782
 30
0.0
 10
22.18576936558009
 20
-8.106554504030782
 30
0.0
  0
SPLINE
  5
1C9
330
267
100
AcDbEntity
  8
engrave
100
AcDbSpline
210
0.0
220
0.0
230
1.0
 70
     8
 71
     3
 72
     8
 73
     4
 74
     0
 42
0.000000001
 43
0.001
 40
0.0
 40
0.0
 40
0.0
 40
0.0
 40
1.0
 40
1.0
 40
1.0
 40
1.0
 10
27.19383105502982
 20
-3.579390115667707
 30
0.0
 10
27.19383105502982
 20
-4.956186470382079
 30
0.0
 10
26.61853020212641
 20
-6.106788176188786
 30
0.0
 10
25.4679284963197
 20
-7.031195233087999
 30
0.0
  0
SPLINE
  5
1CA
330
267
100
AcDbEntity
  8
engrave
100
AcDbSpline
210
0.0
220
0.0
230
1.0
 70
     8
 71
     3
 72
     8
 73
     4
 74
     0
 42
0.000000001
 43
0.001
 40
0.0
 40
0.0
 40
0.0
 40
0.0
 40
1.0
 40
1.0
 40
1.0
 40
1.0
 10
26.17735716789343
 20
-0.9954433929198103
 30
0.0
 10
26.85500642598436
 20
-1.633835728472889
 30
0.0
 10
27.19383105502982
 20
-2.49515130272232
 30
0.0
 10
27.19383105502982
 20
-3.579390115667707
 30
0.0
  0
SPLINE
  5
1CB
330
267
100
AcDbEntity
  8
engrave
100
AcDbSpline
210
0.0
220
0.0
230
1.0
 70
     8
 71
     3
 72
     8
 73
     4
 74
     0
 42
0.000000001
 43
0.001
 40
0.0
 40
0.0
 40
0.0
 40
0.0
 40
1.0
 40
1.0
 40
1.0
 40
1.0
 10
23.15457413249214
 20
0.1065545040307825
 30
0.0
 10
24.39023250379717
 20
0.1065545040307825
 30
0.0
 10
25.39782684893089
 20
-0.260778128286006
 30
0.0
 10
26.17735716789343
 20
-0.9954433929198103
 30
0.0
  0
SPLINE
  5
1CC
330
267
100
AcDbEntity
  8
engrave
100
AcDbSpline
210
0.0
220
0.0
230
1.0
 70
     8
 71
     3
 72
     8
 73
     4
 74
     0
 42
0.000000001
 43
0.001
 40
0.0
 40
0.0
 40
0.0
 40
0.0
 40
1.0
 40
1.0
 40
1.0
 40
1.0
 10
19.87241500175253
 20
-0.968804766912001
 30
0.0
 10
20.76130389064144
 20
-0.2518985862835166
 30
0.0
 10
21.85535693422128
 20
0.1065545040307825
 30
0.0
 10
23.15457413249214
 20
0.1065545040307825
 30
0.0
  0
SPLINE
  5
1CD
330
267
100
AcDbEntity
  8
engrave
100
AcDbSpline
210
0.0
220
0.0
230
1.0
 70
     8
 71
     3
 72
     8
 73
     4
 74
     0
 42
0.000000001
 43
0.001
 40
0.0
 40
0.0
 40
0.0
 40
0.0
 40
1.0
 40
1.0
 40
1.0
 40
1.0
 10
18.77602523659311
 20
-2.175955134945696
 30
0.0
 10
19.05082369435684
 20
-1.738520855240097
 30
0.0
 10
19.41628694940994
 20
-1.336137399228903
 30
0.0
 10
19.87241500175253
 20
-0.968804766912001
 30
0.0
  0
LINE
  5
1CE
330
267
100
AcDbEntity
  8
engrave
100
AcDbLine
 10
32.01682439537331
 20
-4.876270592358878
 30
0.0
 11
32.54398878373638
 21
-6.014721345951614
 31
0.0
  0
LINE
  5
1CF
330
267
100
AcDbEntity
  8
engrave
100
AcDbLine
 10
33.02628811777072
 20
-4.876270592358878
 30
0.0
 11
32.01682439537331
 21
-4.876270592358878
 31
0.0
  0
LINE
  5
1D0
330
267
100
AcDbEntity
  8
engrave
100
AcDbLine
 10
32.54398878373638
 20
-6.014721345951614
 30
0.0
 11
33.02628811777072
 21
-4.876270592358878
 31
0.0
  0
LINE
  5
1D1
330
267
100
AcDbEntity
  8
engrave
100
AcDbLine
 10
35.25552050473186
 20
0.0
 30
0.0
 11
37.02909218366631
 21
0.0
 31
0.0
  0
LINE
  5
1D2
330
267
100
AcDbEntity
  8
engrave
100
AcDbLine
 10
33.69786189975468
 20
-3.287767262530679
 30
0.0
 11
35.25552050473186
 21
0.0
 31
0.0
  0
LINE
  5
1D3
330
267
100
AcDbEntity
  8
engrave
100
AcDbLine
 10
31.27935506484403
 20
-3.287767262530679
 30
0.0
 11
33.69786189975468
 21
-3.287767262530679
 31
0.0
  0
LINE
  5
1D4
330
267
100
AcDbEntity
  8
engrave
100
AcDbLine
 10
29.75394321766566
 20
0.0
 30
0.0
 11
31.27935506484403
 21
-3.287767262530679
 31
0.0
  0
LINE
  5
1D5
330
267
100
AcDbEntity
  8
engrave
100
AcDbLine
 10
27.72660357518407
 20
0.0
 30
0.0
 11
29.75394321766566
 21
0.0
 31
0.0
  0
LINE
  5
1D6
330
267
100
AcDbEntity
  8
engrave
100
AcDbLine
 10
31.60182264283208
 20
-8.0
 30
0.0
 11
27.72660357518407
 21
0.0
 31
0.0
  0
LINE
  5
1D7
330
267
100
AcDbEntity
  8
engrave
100
AcDbLine
 10
33.15387311601819
 20
-8.0
 30
0.0
 11
31.60182264283208
 21
-8.0
 31
0.0
  0
LINE
  5
1D8
330
267
100
AcDbEntity
  8
engrave
100
AcDbLine
 10
37.02909218366631
 20
0.0
 30
0.0
 11
33.15387311601819
 21
-8.0
 31
0.0
  0
LINE
  5
1D9
330
267
100
AcDbEntity
  8
engrave
100
AcDbLine
 10
48.0518752190676
 20
0.0
 30
0.0
 11
49.90536277602519
 21
0.0
 31
0.0
  0
LINE
  5
1DA
330
267
100
AcDbEntity
  8
engrave
100
AcDbLine
 10
48.0518752190676
 20
-4.817385208552423
 30
0.0
 11
48.0518752190676
 21
0.0
 31
0.0
  0
SPLINE
  5
1DB
330
267
100
AcDbEntity
  8
engrave
100
AcDbSpline
210
0.0
220
0.0
230
1.0
 70
     8
 71
     3
 72
     8
 73
     4
 74
     0
 42
0.000000001
 43
0.001
 40
0.0
 40
0.0
 40
0.0
 40
0.0
 40
1.0
 40
1.0
 40
1.0
 40
1.0
 10
47.40133193130043
 20
-6.199789695057916
 30
0.0
 10
47.83502745647854
 20
-5.86423647622388
 30
0.0
 10
48.0518752190676
 20
-5.403434980722125
 30
0.0
 10
48.0518752190676
 20
-4.817385208552423
 30
0.0
  0
SPLINE
  5
1DC
330
267
100
AcDbEntity
  8
engrave
100
AcDbSpline
210
0.0
220
0.0
230
1.0
 70
     8
 71
     3
 72
     8
 73
     4
 74
     0
 42
0.000000001
 43
0.001
 40
0.0
 40
0.0
 40
0.0
 40
0.0
 40
1.0
 40
1.0
 40
1.0
 40
1.0
 10
45.9558359621451
 20
-6.655450403084387
 30
0.0
 10
46.52693071620513
 20
-6.655450403084387
 30
0.0
 10
47.00876270592357
 20
-6.503563500408916
 30
0.0
 10
47.40133193130043
 20
-6.199789695057916
 30
0.0
  0
SPLINE
  5
1DD
330
267
100
AcDbEntity
  8
engrave
100
AcDbSpline
210
0.0
220
0.0
230
1.0
 70
     8
 71
     3
 72
     8
 73
     4
 74
     0
 42
0.000000001
 43
0.001
 40
0.0
 40
0.0
 40
0.0
 40
0.0
 40
1.0
 40
1.0
 40
1.0
 40
1.0
 10
45.22397476340689
 20
-6.358219418156409
 30
0.0
 10
45.42867157378203
 20
-6.556373408108414
 30
0.0
 10
45.67262530669473
 20
-6.655450403084387
 30
0.0
 10
45.9558359621451
 20
-6.655450403084387
 30
0.0
  0
SPLINE
  5
1DE
330
267
100
AcDbEntity
  8
engrave
100
AcDbSpline
210
0.0
220
0.0
230
1.0
 70
     8
 71
     3
 72
     8
 73
     4
 74
     0
 42
0.000000001
 43
0.001
 40
0.0
 40
0.0
 40
0.0
 40
0.0
 40
1.0
 40
1.0
 40
1.0
 40
1.0
 10
44.94917630564316
 20
-5.570276901507214
 30
0.0
 10
44.94917630564316
 20
-5.91985044981891
 30
0.0
 10
45.04077579156444
 20
-6.182497955368603
 30
0.0
 10
45.22397476340689
 20
-6.358219418156409
 30
0.0
  0
LINE
  5
1DF
330
267
100
AcDbEntity
  8
engrave
100
AcDbLine
 10
44.94917630564316
 20
0.0
 30
0.0
 11
44.94917630564316
 21
-5.570276901507214
 31
0.0
  0
LINE
  5
1E0
330
267
100
AcDbEntity
  8
engrave
100
AcDbLine
 10
43.09568874868557
 20
0.0
 30
0.0
 11
44.94917630564316
 21
0.0
 31
0.0
  0
LINE
  5
1E1
330
267
100
AcDbEntity
  8
engrave
100
AcDbLine
 10
43.09568874868557
 20
-4.817385208552423
 30
0.0
 11
43.09568874868557
 21
0.0
 31
0.0
  0
SPLINE
  5
1E2
330
267
100
AcDbEntity
  8
engrave
100
AcDbSpline
210
0.0
220
0.0
230
1.0
 70
     8
 71
     3
 72
     8
 73
     4
 74
     0
 42
0.000000001
 43
0.001
 40
0.0
 40
0.0
 40
0.0
 40
0.0
 40
1.0
 40
1.0
 40
1.0
 40
1.0
 10
42.54609183315802
 20
-6.199789695057916
 30
0.0
 10
42.91248977684313
 20
-5.893211823811214
 30
0.0
 10
43.09568874868557
 20
-5.432410328309402
 30
0.0
 10
43.09568874868557
 20
-4.817385208552423
 30
0.0
  0
SPLINE
  5
1E3
330
267
100
AcDbEntity
  8
engrave
100
AcDbSpline
210
0.0
220
0.0
230
1.0
 70
     8
 71
     3
 72
     8
 73
     4
 74
     0
 42
0.000000001
 43
0.001
 40
0.0
 40
0.0
 40
0.0
 40
0.0
 40
1.0
 40
1.0
 40
1.0
 40
1.0
 10
41.3431475639677
 20
-6.623203645285685
 30
0.0
 10
41.80581843673326
 20
-6.623203645285685
 30
0.0
 10
42.20679985979666
 20
-6.482065661876391
 30
0.0
 10
42.54609183315802
 20
-6.199789695057916
 30
0.0
  0
SPLINE
  5
1E4
330
267
100
AcDbEntity
  8
engrave
100
AcDbSpline
210
0.0
220
0.0
230
1.0
 70
     8
 71
     3
 72
     8
 73
     4
 74
     0
 42
0.000000001
 43
0.001
 40
0.0
 40
0.0
 40
0.0
 40
0.0
 40
1.0
 40
1.0
 40
1.0
 40
1.0
 10
40.01962846126889
 20
-5.946021731510712
 30
0.0
 10
40.37667951863534
 20
-6.397476340694027
 30
0.0
 10
40.81785255286832
 20
-6.623203645285685
 30
0.0
 10
41.3431475639677
 20
-6.623203645285685
 30
0.0
  0
SPLINE
  5
1E5
330
267
100
AcDbEntity
  8
engrave
100
AcDbSpline
210
0.0
220
0.0
230
1.0
 70
     8
 71
     3
 72
     8
 73
     4
 74
     0
 42
0.000000001
 43
0.001
 40
0.0
 40
0.0
 40
0.0
 40
0.0
 40
1.0
 40
1.0
 40
1.0
 40
1.0
 10
39.51629863301787
 20
-4.208902909218409
 30
0.0
 10
39.51629863301787
 20
-4.9435681738521
 30
0.0
 10
39.68407524243491
 20
-5.522607781282886
 30
0.0
 10
40.01962846126889
 20
-5.946021731510712
 30
0.0
  0
SPLINE
  5
1E6
330
267
100
AcDbEntity
  8
engrave
100
AcDbSpline
210
0.0
220
0.0
230
1.0
 70
     8
 71
     3
 72
     8
 73
     4
 74
     0
 42
0.000000001
 43
0.001
 40
0.0
 40
0.0
 40
0.0
 40
0.0
 40
1.0
 40
1.0
 40
1.0
 40
1.0
 10
39.95092884682788
 20
-2.191377497371207
 30
0.0
 10
39.66117537095454
 20
-2.767145694590511
 30
0.0
 10
39.51629863301787
 20
-3.439654165206207
 30
0.0
 10
39.51629863301787
 20
-4.208902909218409
 30
0.0
  0
SPLINE
  5
1E7
330
267
100
AcDbEntity
  8
engrave
100
AcDbSpline
210
0.0
220
0.0
230
1.0
 70
     8
 71
     3
 72
     8
 73
     4
 74
     0
 42
0.000000001
 43
0.001
 40
0.0
 40
0.0
 40
0.0
 40
0.0
 40
1.0
 40
1.0
 40
1.0
 40
1.0
 10
41.7988082719944
 20
0.0
 30
0.0
 10
41.01927795303186
 20
-0.5645519336371194
 30
0.0
 10
40.40331814464309
 20
-1.295011099427484
 30
0.0
 10
39.95092884682788
 20
-2.191377497371207
 30
0.0
  0
LINE
  5
1E8
330
267
100
AcDbEntity
  8
engrave
100
AcDbLine
 10
39.57518401682444
 20
0.0
 30
0.0
 11
41.7988082719944
 21
0.0
 31
0.0
  0
SPLINE
  5
1E9
330
267
100
AcDbEntity
  8
engrave
100
AcDbSpline
210
0.0
220
0.0
230
1.0
 70
     8
 71
     3
 72
     8
 73
     4
 74
     0
 42
0.000000001
 43
0.001
 40
0.0
 40
0.0
 40
0.0
 40
0.0
 40
1.0
 40
1.0
 40
1.0
 40
1.0
 10
38.2881177707676
 20
-1.763757448300112
 30
0.0
 10
38.59189157611866
 20
-1.227246173618425
 30
0.0
 10
39.0209136581376
 20
-0.6393270241850928
 30
0.0
 10
39.57518401682444
 20
0.0
 30
0.0
  0
SPLINE
  5
1EA
330
267
100
AcDbEntity
  8
engrave
100
AcDbSpline
210
0.0
220
0.0
230
1.0
 70
     8
 71
     3
 72
     8
 73
     4
 74
     0
 42
0.000000001
 43
0.001
 40
0.0
 40
0.0
 40
0.0
 40
0.0
 40
1.0
 40
1.0
 40
1.0
 40
1.0
 10
37.61093585699268
 20
-4.363126533473519
 30
0.0
 10
37.61093585699268
 20
-3.427503212992178
 30
0.0
 10
37.83666316158428
 20
-2.56104685126769
 30
0.0
 10
38.2881177707676
 20
-1.763757448300112
 30
0.0
  0
SPLINE
  5
1EB
330
267
100
AcDbEntity
  8
engrave
100
AcDbSpline
210
0.0
220
0.0
230
1.0
 70
     8
 71
     3
 72
     8
 73
     4
 74
     0
 42
0.000000001
 43
0.001
 40
0.0
 40
0.0
 40
0.0
 40
0.0
 40
1.0
 40
1.0
 40
1.0
 40
1.0
 10
38.61198738170344
 20
-6.972309849281373
 30
0.0
 10
37.94461969856297
 20
-6.277836195817315
 30
0.0
 10
37.61093585699268
 20
-5.408108423881288
 30
0.0
 10
37.61093585699268
 20
-4.363126533473519
 30
0.0
  0
SPLINE
  5
1EC
330
267
100
AcDbEntity
  8
engrave
100
AcDbSpline
210
0.0
220
0.0
230
1.0
 70
     8
 71
     3
 72
     8
 73
     4
 74
     0
 42
0.000000001
 43
0.001
 40
0.0
 40
0.0
 40
0.0
 40
0.0
 40
1.0
 40
1.0
 40
1.0
 40
1.0
 10
41.33894146512444
 20
-8.106554504030782
 30
0.0
 10
40.24442107722859
 20
-8.106554504030782
 30
0.0
 10
39.33543638275501
 20
-7.728472952447703
 30
0.0
 10
38.61198738170344
 20
-6.972309849281373
 30
0.0
  0
SPLINE
  5
1ED
330
267
100
AcDbEntity
  8
engrave
100
AcDbSpline
210
0.0
220
0.0
230
1.0
 70
     8
 71
     3
 72
     8
 73
     4
 74
     0
 42
0.000000001
 43
0.001
 40
0.0
 40
0.0
 40
0.0
 40
0.0
 40
1.0
 40
1.0
 40
1.0
 40
1.0
 10
42.82089029092185
 20
-7.704171048019589
 30
0.0
 10
42.41523542469918
 20
-7.972426685360517
 30
0.0
 10
41.9212524827667
 20
-8.106554504030782
 30
0.0
 10
41.33894146512444
 20
-8.106554504030782
 30
0.0
  0
SPLINE
  5
1EE
330
267
100
AcDbEntity
  8
engrave
100
AcDbSpline
210
0.0
220
0.0
230
1.0
 70
     8
 71
     3
 72
     8
 73
     4
 74
     0
 42
0.000000001
 43
0.001
 40
0.0
 40
0.0
 40
0.0
 40
0.0
 40
1.0
 40
1.0
 40
1.0
 40
1.0
 10
43.59341044514542
 20
-7.090080616894511
 30
0.0
 10
43.36067297581496
 20
-7.311601822642785
 30
0.0
 10
43.10316625774044
 20
-7.516298633017925
 30
0.0
 10
42.82089029092185
 20
-7.704171048019589
 30
0.0
  0
SPLINE
  5
1EF
330
267
100
AcDbEntity
  8
engrave
100
AcDbSpline
210
0.0
220
0.0
230
1.0
 70
     8
 71
     3
 72
     8
 73
     4
 74
     0
 42
0.000000001
 43
0.001
 40
0.0
 40
0.0
 40
0.0
 40
0.0
 40
1.0
 40
1.0
 40
1.0
 40
1.0
 10
43.826147914476
 20
-7.349456712232723
 30
0.0
 10
43.73828718308209
 20
-7.268138801261784
 30
0.0
 10
43.66070802663864
 20
-7.181680102815676
 30
0.0
 10
43.59341044514542
 20
-7.090080616894511
 30
0.0
  0
SPLINE
  5
1F0
330
267
100
AcDbEntity
  8
engrave
100
AcDbSpline
210
0.0
220
0.0
230
1.0
 70
     8
 71
     3
 72
     8
 73
     4
 74
     0
 42
0.000000001
 43
0.001
 40
0.0
 40
0.0
 40
0.0
 40
0.0
 40
1.0
 40
1.0
 40
1.0
 40
1.0
 10
45.86470382053983
 20
-8.106554504030782
 30
0.0
 10
45.05339408809436
 20
-8.106554504030782
 30
0.0
 10
44.37387545273987
 20
-7.854188573431486
 30
0.0
 10
43.826147914476
 20
-7.349456712232723
 30
0.0
  0
SPLINE
  5
1F1
330
267
100
AcDbEntity
  8
engrave
100
AcDbSpline
210
0.0
220
0.0
230
1.0
 70
     8
 71
     3
 72
     8
 73
     4
 74
     0
 42
0.000000001
 43
0.001
 40
0.0
 40
0.0
 40
0.0
 40
0.0
 40
1.0
 40
1.0
 40
1.0
 40
1.0
 10
47.45320715036803
 20
-7.777076761303874
 30
0.0
 10
46.87837364178063
 20
-7.996728589788518
 30
0.0
 10
46.34887253183786
 20
-8.106554504030782
 30
0.0
 10
45.86470382053983
 20
-8.106554504030782
 30
0.0
  0
SPLINE
  5
1F2
330
267
100
AcDbEntity
  8
engrave
100
AcDbSpline
210
0.0
220
0.0
230
1.0
 70
     8
 71
     3
 72
     8
 73
     4
 74
     0
 42
0.000000001
 43
0.001
 40
0.0
 40
0.0
 40
0.0
 40
0.0
 40
1.0
 40
1.0
 40
1.0
 40
1.0
 10
48.21591307395727
 20
-7.406940063091497
 30
0.0
 10
47.98691435915407
 20
-7.548078046500677
 30
0.0
 10
47.73267905129103
 20
-7.671456945904879
 30
0.0
 10
47.45320715036803
 20
-7.777076761303874
 30
0.0
  0
SPLINE
  5
1F3
330
267
100
AcDbEntity
  8
engrave
100
AcDbSpline
210
0.0
220
0.0
230
1.0
 70
     8
 71
     3
 72
     8
 73
     4
 74
     0
 42
0.000000001
 43
0.001
 40
0.0
 40
0.0
 40
0.0
 40
0.0
 40
1.0
 40
1.0
 40
1.0
 40
1.0
 10
48.77252015422368
 20
-8.0
 30
0.0
 10
48.52108891225612
 20
-7.851384507536011
 30
0.0
 10
48.33555321883398
 20
-7.653697861899673
 30
0.0
 10
48.21591307395727
 20
-7.406940063091497
 30
0.0
  0
LINE
  5
1F4
330
267
100
AcDbEntity
  8
engrave
100
AcDbLine
 10
50.80546792849634
 20
-8.0
 30
0.0
 11
48.77252015422368
 21
-8.0
 31
0.0
  0
LINE
  5
1F5
330
267
100
AcDbEntity
  8
engrave
100
AcDbLine
 10
50.80546792849634
 20
-7.894847528917012
 30
0.0
 11
50.80546792849634
 21
-8.0
 31
0.0
  0
SPLINE
  5
1F6
330
267
100
AcDbEntity
  8
engrave
100
AcDbSpline
210
0.0
220
0.0
230
1.0
 70
     8
 71
     3
 72
     8
 73
     4
 74
     0
 42
0.000000001
 43
0.001
 40
0.0
 40
0.0
 40
0.0
 40
0.0
 40
1.0
 40
1.0
 40
1.0
 40
1.0
 10
49.90536277602519
 20
-6.617595513494621
 30
0.0
 10
49.90536277602519
 20
-7.253183783152224
 30
0.0
 10
50.20539782684898
 20
-7.678934454959688
 30
0.0
 10
50.80546792849634
 20
-7.894847528917012
 30
0.0
  0
LINE
  5
1F7
330
267
100
AcDbEntity
  8
engrave
100
AcDbLine
 10
49.90536277602519
 20
0.0
 30
0.0
 11
49.90536277602519
 21
-6.617595513494621
 31
0.0
  0
LINE
  5
1F8
330
267
100
AcDbEntity
  8
engrave
100
AcDbLine
 10
52.0
 20
0.0
 30
0.0
 11
53.85348755695759
 21
0.0
 31
0.0
  0
LINE
  5
1F9
330
267
100
AcDbEntity
  8
engrave
100
AcDbLine
 10
52.0
 20
-6.617595513494621
 30
0.0
 11
52.0
 21
0.0
 31
0.0
  0
SPLINE
  5
1FA
330
267
100
AcDbEntity
  8
engrave
100
AcDbSpline
210
0.0
220
0.0
230
1.0
 70
     8
 71
     3
 72
     8
 73
     4
 74
     0
 42
0.000000001
 43
0.001
 40
0.0
 40
0.0
 40
0.0
 40
0.0
 40
1.0
 40
1.0
 40
1.0
 40
1.0
 10
52.72064493515597
 20
-8.0
 30
0.0
 10
52.24021497838532
 20
-7.713985278653979
 30
0.0
 10
52.0
 20
-7.253183783152224
 30
0.0
 10
52.0
 20
-6.617595513494621
 30
0.0
  0
LINE
  5
1FB
330
267
100
AcDbEntity
  8
engrave
100
AcDbLine
 10
54.75359270942863
 20
-8.0
 30
0.0
 11
52.72064493515597
 21
-8.0
 31
0.0
  0
LINE
  5
1FC
330
267
100
AcDbEntity
  8
engrave
100
AcDbLine
 10
54.75359270942863
 20
-7.894847528917012
 30
0.0
 11
54.75359270942863
 21
-8.0
 31
0.0
  0
SPLINE
  5
1FD
330
267
100
AcDbEntity
  8
engrave
100
AcDbSpline
210
0.0
220
0.0
230
1.0
 70
     8
 71
     3
 72
     8
 73
     4
 74
     0
 42
0.000000001
 43
0.001
 40
0.0
 40
0.0
 40
0.0
 40
0.0
 40
1.0
 40
1.0
 40
1.0
 40
1.0
 10
53.85348755695759
 20
-6.617595513494621
 30
0.0
 10
53.85348755695759
 20
-7.253183783152224
 30
0.0
 10
54.15352260778127
 20
-7.678934454959688
 30
0.0
 10
54.75359270942863
 20
-7.894847528917012
 30
0.0
  0
LINE
  5
1FE
330
267
100
AcDbEntity
  8
engrave
100
AcDbLine
 10
53.85348755695759
 20
0.0
 30
0.0
 11
53.85348755695759
 21
-6.617595513494621
 31
0.0
  0
LINE
  5
1FF
330
267
100
AcDbEntity
  8
engrave
100
AcDbLine
 10
61.1524710830704
 20
0.0
 30
0.0
 11
63.00595864002798
 21
0.0
 31
0.0
  0
LINE
  5
200
330
267
100
AcDbEntity
  8
engrave
100
AcDbLine
 10
61.1524710830704
 20
-3.287767262530679
 30
0.0
 11
61.1524710830704
 21
0.0
 31
0.0
  0
LINE
  5
201
330
267
100
AcDbEntity
  8
engrave
100
AcDbLine
 10
57.85909568874865
 20
-3.287767262530679
 30
0.0
 11
61.1524710830704
 21
-3.287767262530679
 31
0.0
  0
LINE
  5
202
330
267
100
AcDbEntity
  8
engrave
100
AcDbLine
 10
57.85909568874865
 20
-1.382404486505379
 30
0.0
 11
57.85909568874865
 21
-3.287767262530679
 31
0.0
  0
SPLINE
  5
203
330
267
100
AcDbEntity
  8
engrave
100
AcDbSpline
210
0.0
220
0.0
230
1.0
 70
     8
 71
     3
 72
     8
 73
     4
 74
     0
 42
0.000000001
 43
0.001
 40
0.0
 40
0.0
 40
0.0
 40
0.0
 40
1.0
 40
1.0
 40
1.0
 40
1.0
 10
57.13985278654047
 20
0.0
 30
0.0
 10
57.61934805467934
 20
-0.2860147213460209
 30
0.0
 10
57.85909568874865
 20
-0.7468162168477761
 30
0.0
 10
57.85909568874865
 20
-1.382404486505379
 30
0.0
  0
LINE
  5
204
330
267
100
AcDbEntity
  8
engrave
100
AcDbLine
 10
55.10550297932002
 20
0.0
 30
0.0
 11
57.13985278654047
 21
0.0
 31
0.0
  0
LINE
  5
205
330
267
100
AcDbEntity
  8
engrave
100
AcDbLine
 10
55.10550297932002
 20
-0.1065545040307825
 30
0.0
 11
55.10550297932002
 21
0.0
 31
0.0
  0
SPLINE
  5
206
330
267
100
AcDbEntity
  8
engrave
100
AcDbSpline
210
0.0
220
0.0
230
1.0
 70
     8
 71
     3
 72
     8
 73
     4
 74
     0
 42
0.000000001
 43
0.001
 40
0.0
 40
0.0
 40
0.0
 40
0.0
 40
1.0
 40
1.0
 40
1.0
 40
1.0
 10
56.00560813179106
 20
-1.382404486505379
 30
0.0
 10
56.00560813179106
 20
-0.7468162168477761
 30
0.0
 10
55.70557308096738
 20
-0.3215328893562059
 30
0.0
 10
55.10550297932002
 20
-0.1065545040307825
 30
0.0
  0
LINE
  5
207
330
267
100
AcDbEntity
  8
engrave
100
AcDbLine
 10
56.00560813179106
 20
-8.0
 30
0.0
 11
56.00560813179106
 21
-1.382404486505379
 31
0.0
  0
LINE
  5
208
330
267
100
AcDbEntity
  8
engrave
100
AcDbLine
 10
57.85909568874865
 20
-8.0
 30
0.0
 11
56.00560813179106
 21
-8.0
 31
0.0
  0
LINE
  5
209
330
267
100
AcDbEntity
  8
engrave
100
AcDbLine
 10
57.85909568874865
 20
-4.876270592358878
 30
0.0
 11
57.85909568874865
 21
-8.0
 31
0.0
  0
LINE
  5
20A
330
267
100
AcDbEntity
  8
engrave
100
AcDbLine
 10
61.1524710830704
 20
-4.876270592358878
 30
0.0
 11
57.85909568874865
 21
-4.876270592358878
 31
0.0
  0
LINE
  5
20B
330
267
100
AcDbEntity
  8
engrave
100
AcDbLine
 10
61.1524710830704
 20
-6.617595513494621
 30
0.0
 11
61.1524710830704
 21
-4.876270592358878
 31
0.0
  0
SPLINE
  5
20C
330
267
100
AcDbEntity
  8
engrave
100
AcDbSpline
210
0.0
220
0.0
230
1.0
 70
     8
 71
     3
 72
     8
 73
     4
 74
     0
 42
0.000000001
 43
0.001
 40
0.0
 40
0.0
 40
0.0
 40
0.0
 40
1.0
 40
1.0
 40
1.0
 40
1.0
 10
61.87311601822648
 20
-8.0
 30
0.0
 10
61.39268606145583
 20
-7.713985278653979
 30
0.0
 10
61.1524710830704
 20
-7.253183783152224
 30
0.0
 10
61.1524710830704
 20
-6.617595513494621
 30
0.0
  0
LINE
  5
20D
330
267
100
AcDbEntity
  8
engrave
100
AcDbLine
 10
63.90606379249914
 20
-8.0
 30
0.0
 11
61.87311601822648
 21
-8.0
 31
0.0
  0
LINE
  5
20E
330
267
100
AcDbEntity
  8
engrave
100
AcDbLine
 10
63.90606379249914
 20
-7.894847528917012
 30
0.0
 11
63.90606379249914
 21
-8.0
 31
0.0
  0
SPLINE
  5
20F
330
267
100
AcDbEntity
  8
engrave
100
AcDbSpline
210
0.0
220
0.0
230
1.0
 70
     8
 71
     3
 72
     8
 73
     4
 74
     0
 42
0.000000001
 43
0.001
 40
0.0
 40
0.0
 40
0.0
 40
0.0
 40
1.0
 40
1.0
 40
1.0
 40
1.0
 10
63.00595864002798
 20
-6.617595513494621
 30
0.0
 10
63.00595864002798
 20
-7.253183783152224
 30
0.0
 10
63.30599369085178
 20
-7.678934454959688
 30
0.0
 10
63.90606379249914
 20
-7.894847528917012
 30
0.0
  0
LINE
  5
210
330
267
100
AcDbEntity
  8
engrave
100
AcDbLine
 10
63.00595864002798
 20
0.0
 30
0.0
 11
63.00595864002798
 21
-6.617595513494621
 31
0.0
  0
LINE
  5
211
330
267
100
AcDbEntity
  8
engrave
100
AcDbLine
 10
65.99929898352616
 20
-3.21906764808972
 30
0.0
 11
64.53838065194532
 21
-2.175955134945696
 31
0.0
  0
SPLINE
  5
212
330
267
100
AcDbEntity
  8
engrave
100
AcDbSpline
210
0.0
220
0.0
230
1.0
 70
     8
 71
     3
 72
     8
 73
     4
 74
     0
 42
0.000000001
 43
0.001
 40
0.0
 40
0.0
 40
0.0
 40
0.0
 40
1.0
 40
1.0
 40
1.0
 40
1.0
 10
66.79845776375748
 20
-2.070802663862594
 30
0.0
 10
66.42832106554499
 20
-2.384858044163991
 30
0.0
 10
66.16193480546792
 20
-2.767613038906404
 30
0.0
 10
65.99929898352616
 20
-3.21906764808972
 30
0.0
  0
SPLINE
  5
213
330
267
100
AcDbEntity
  8
engrave
100
AcDbSpline
210
0.0
220
0.0
230
1.0
 70
     8
 71
     3
 72
     8
 73
     4
 74
     0
 42
0.000000001
 43
0.001
 40
0.0
 40
0.0
 40
0.0
 40
0.0
 40
1.0
 40
1.0
 40
1.0
 40
1.0
 10
68.91692954784435
 20
-1.338941465124378
 30
0.0
 10
68.08038322233904
 20
-1.338941465124378
 30
0.0
 10
67.37422596097679
 20
-1.582895198037079
 30
0.0
 10
66.79845776375748
 20
-2.070802663862594
 30
0.0
  0
SPLINE
  5
214
330
267
100
AcDbEntity
  8
engrave
100
AcDbSpline
210
0.0
220
0.0
230
1.0
 70
     8
 71
     3
 72
     8
 73
     4
 74
     0
 42
0.000000001
 43
0.001
 40
0.0
 40
0.0
 40
0.0
 40
0.0
 40
1.0
 40
1.0
 40
1.0
 40
1.0
 10
70.47318611987384
 20
-1.969856291622875
 30
0.0
 10
70.06753125365117
 20
-1.549246407290582
 30
0.0
 10
69.54877906297463
 20
-1.338941465124378
 30
0.0
 10
68.91692954784435
 20
-1.338941465124378
 30
0.0
  0
SPLINE
  5
215
330
267
100
AcDbEntity
  8
engrave
100
AcDbSpline
210
0.0
220
0.0
230
1.0
 70
     8
 71
     3
 72
     8
 73
     4
 74
     0
 42
0.000000001
 43
0.001
 40
0.0
 40
0.0
 40
0.0
 40
0.0
 40
1.0
 40
1.0
 40
1.0
 40
1.0
 10
71.05082369435684
 20
-3.610234840518672
 30
0.0
 10
71.05082369435684
 20
-2.915761187054613
 30
0.0
 10
70.85827783619584
 20
-2.368968337422587
 30
0.0
 10
70.47318611987384
 20
-1.969856291622875
 30
0.0
  0
SPLINE
  5
216
330
267
100
AcDbEntity
  8
engrave
100
AcDbSpline
210
0.0
220
0.0
230
1.0
 70
     8
 71
     3
 72
     8
 73
     4
 74
     0
 42
0.000000001
 43
0.001
 40
0.0
 40
0.0
 40
0.0
 40
0.0
 40
1.0
 40
1.0
 40
1.0
 40
1.0
 10
70.06519453207147
 20
-5.930599369085201
 30
0.0
 10
70.72228064026172
 20
-5.315574249328222
 30
0.0
 10
71.05082369435684
 20
-4.542119406472693
 30
0.0
 10
71.05082369435684
 20
-3.610234840518672
 30
0.0
  0
SPLINE
  5
217
330
267
100
AcDbEntity
  8
engrave
100
AcDbSpline
210
0.0
220
0.0
230
1.0
 70
     8
 71
     3
 72
     8
 73
     4
 74
     0
 42
0.000000001
 43
0.001
 40
0.0
 40
0.0
 40
0.0
 40
0.0
 40
1.0
 40
1.0
 40
1.0
 40
1.0
 10
67.9481247809324
 20
-6.661058534875622
 30
0.0
 10
68.8379483584531
 20
-6.661058534875622
 30
0.0
 10
69.54363827549946
 20
-6.417572146278815
 30
0.0
 10
70.06519453207147
 20
-5.930599369085201
 30
0.0
  0
SPLINE
  5
218
330
267
100
AcDbEntity
  8
engrave
100
AcDbSpline
210
0.0
220
0.0
230
1.0
 70
     8
 71
     3
 72
     8
 73
     4
 74
     0
 42
0.000000001
 43
0.001
 40
0.0
 40
0.0
 40
0.0
 40
0.0
 40
1.0
 40
1.0
 40
1.0
 40
1.0
 10
66.3918682089029
 20
-6.025937609533798
 30
0.0
 10
66.7937843205982
 20
-6.449351559761681
 30
0.0
 10
67.31253651127463
 20
-6.661058534875622
 30
0.0
 10
67.9481247809324
 20
-6.661058534875622
 30
0.0
  0
SPLINE
  5
219
330
267
100
AcDbEntity
  8
engrave
100
AcDbSpline
210
0.0
220
0.0
230
1.0
 70
     8
 71
     3
 72
     8
 73
     4
 74
     0
 42
0.000000001
 43
0.001
 40
0.0
 40
0.0
 40
0.0
 40
0.0
 40
1.0
 40
1.0
 40
1.0
 40
1.0
 10
66.05818436733261
 20
-5.549246407290582
 30
0.0
 10
66.14604509872652
 20
-5.724967870078274
 30
0.0
 10
66.25727304591658
 20
-5.883864937492717
 30
0.0
 10
66.3918682089029
 20
-6.025937609533798
 30
0.0
  0
LINE
  5
21A
330
267
100
AcDbEntity
  8
engrave
100
AcDbLine
 10
64.47949526813886
 20
-6.485804416403823
 30
0.0
 11
66.05818436733261
 21
-5.549246407290582
 31
0.0
  0
SPLINE
  5
21B
330
267
100
AcDbEntity
  8
engrave
100
AcDbSpline
210
0.0
220
0.0
230
1.0
 70
     8
 71
     3
 72
     8
 73
     4
 74
     0
 42
0.000000001
 43
0.001
 40
0.0
 40
0.0
 40
0.0
 40
0.0
 40
1.0
 40
1.0
 40
1.0
 40
1.0
 10
64.925341745531
 20
-7.00455660708019
 30
0.0
 10
64.75522841453437
 20
-6.845659539665917
 30
0.0
 10
64.60661292207033
 20
-6.6727421427737
 30
0.0
 10
64.47949526813886
 20
-6.485804416403823
 30
0.0
  0
SPLINE
  5
21C
330
267
100
AcDbEntity
  8
engrave
100
AcDbSpline
210
0.0
220
0.0
230
1.0
 70
     8
 71
     3
 72
     8
 73
     4
 74
     0
 42
0.000000001
 43
0.001
 40
0.0
 40
0.0
 40
0.0
 40
0.0
 40
1.0
 40
1.0
 40
1.0
 40
1.0
 10
67.9481247809324
 20
-8.106554504030782
 30
0.0
 10
66.71620516415464
 20
-8.106554504030782
 30
0.0
 10
65.70861081902092
 20
-7.739221871713994
 30
0.0
 10
64.925341745531
 20
-7.00455660708019
 30
0.0
  0
SPLINE
  5
21D
330
267
100
AcDbEntity
  8
engrave
100
AcDbSpline
210
0.0
220
0.0
230
1.0
 70
     8
 71
     3
 72
     8
 73
     4
 74
     0
 42
0.000000001
 43
0.001
 40
0.0
 40
0.0
 40
0.0
 40
0.0
 40
1.0
 40
1.0
 40
1.0
 40
1.0
 10
71.2302839116719
 20
-7.031195233087999
 30
0.0
 10
70.33765626825561
 20
-7.748101413716483
 30
0.0
 10
69.24360322467578
 20
-8.106554504030782
 30
0.0
 10
67.9481247809324
 20
-8.106554504030782
 30
0.0
  0
SPLINE
  5
21E
330
267
100
AcDbEntity
  8
engrave
100
AcDbSpline
210
0.0
220
0.0
230
1.0
 70
     8
 71
     3
 72
     8
 73
     4
 74
     0
 42
0.000000001
 43
0.001
 40
0.0
 40
0.0
 40
0.0
 40
0.0
 40
1.0
 40
1.0
 40
1.0
 40
1.0
 10
72.95618647038202
 20
-3.579390115667707
 30
0.0
 10
72.95618647038202
 20
-4.956186470382079
 30
0.0
 10
72.38088561747873
 20
-6.106788176188786
 30
0.0
 10
71.2302839116719
 20
-7.031195233087999
 30
0.0
  0
SPLINE
  5
21F
330
267
100
AcDbEntity
  8
engrave
100
AcDbSpline
210
0.0
220
0.0
230
1.0
 70
     8
 71
     3
 72
     8
 73
     4
 74
     0
 42
0.000000001
 43
0.001
 40
0.0
 40
0.0
 40
0.0
 40
0.0
 40
1.0
 40
1.0
 40
1.0
 40
1.0
 10
71.93971258324575
 20
-0.9954433929198103
 30
0.0
 10
72.61736184133656
 20
-1.633835728472889
 30
0.0
 10
72.95618647038202
 20
-2.49515130272232
 30
0.0
 10
72.95618647038202
 20
-3.579390115667707
 30
0.0
  0
SPLINE
  5
220
330
267
100
AcDbEntity
  8
engrave
100
AcDbSpline
210
0.0
220
0.0
230
1.0
 70
     8
 71
     3
 72
     8
 73
     4
 74
     0
 42
0.000000001
 43
0.001
 40
0.0
 40
0.0
 40
0.0
 40
0.0
 40
1.0
 40
1.0
 40
1.0
 40
1.0
 10
68.91692954784435
 20
0.1065545040307825
 30
0.0
 10
70.15258791914948
 20
0.1065545040307825
 30
0.0
 10
71.16018226428321
 20
-0.260778128286006
 30
0.0
 10
71.93971258324575
 20
-0.9954433929198103
 30
0.0
  0
SPLINE
  5
221
330
267
100
AcDbEntity
  8
engrave
100
AcDbSpline
210
0.0
220
0.0
230
1.0
 70
     8
 71
     3
 72
     8
 73
     4
 74
     0
 42
0.000000001
 43
0.001
 40
0.0
 40
0.0
 40
0.0
 40
0.0
 40
1.0
 40
1.0
 40
1.0
 40
1.0
 10
65.63477041710485
 20
-0.968804766912001
 30
0.0
 10
66.52365930599365
 20
-0.2518985862835166
 30
0.0
 10
67.6177123495736
 20
0.1065545040307825
 30
0.0
 10
68.91692954784435
 20
0.1065545040307825
 30
0.0
  0
SPLINE
  5
222
330
267
100
AcDbEntity
  8
engrave
100
AcDbSpline
210
0.0
220
0.0
230
1.0
 70
     8
 71
     3
 72
     8
 73
     4
 74
     0
 42
0.000000001
 43
0.001
 40
0.0
 40
0.0
 40
0.0
 40
0.0
 40
1.0
 40
1.0
 40
1.0
 40
1.0
 10
64.53838065194532
 20
-2.175955134945696
 30
0.0
 10
64.81317910970904
 20
-1.738520855240097
 30
0.0
 10
65.17864236476225
 20
-1.336137399228903
 30
0.0
 10
65.63477041710485
 20
-0.968804766912001
 30
0.0
  0
LINE
  5
223
330
267
100
AcDbEntity
  8
engrave
100
AcDbLine
 10
68.66596565019279
 20
-13.2302839116719
 30
0.0
 11
68.13880126182971
 21
-12.09183315807923
 31
0.0
  0
LINE
  5
224
330
267
100
AcDbEntity
  8
engrave
100
AcDbLine
 10
67.65650192779526
 20
-13.2302839116719
 30
0.0
 11
68.66596565019279
 21
-13.2302839116719
 31
0.0
  0
LINE
  5
225
330
267
100
AcDbEntity
  8
engrave
100
AcDbLine
 10
68.13880126182971
 20
-12.09183315807923
 30
0.0
 11
67.65650192779526
 21
-13.2302839116719
 31
0.0
  0
LINE
  5
226
330
267
100
AcDbEntity
  8
engrave
100
AcDbLine
 10
65.42726954083423
 20
-18.10655450403078
 30
0.0
 11
63.65369786189979
 21
-18.10655450403078
 31
0.0
  0
LINE
  5
227
330
267
100
AcDbEntity
  8
engrave
100
AcDbLine
 10
66.98492814581141
 20
-14.81878724150022
 30
0.0
 11
65.42726954083423
 21
-18.10655450403078
 31
0.0
  0
LINE
  5
228
330
267
100
AcDbEntity
  8
engrave
100
AcDbLine
 10
69.40343498072207
 20
-14.81878724150022
 30
0.0
 11
66.98492814581141
 21
-14.81878724150022
 31
0.0
  0
LINE
  5
229
330
267
100
AcDbEntity
  8
engrave
100
AcDbLine
 10
70.92884682790043
 20
-18.10655450403078
 30
0.0
 11
69.40343498072207
 21
-14.81878724150022
 31
0.0
  0
LINE
  5
22A
330
267
100
AcDbEntity
  8
engrave
100
AcDbLine
 10
72.95618647038202
 20
-18.10655450403078
 30
0.0
 11
70.92884682790043
 21
-18.10655450403078
 31
0.0
  0
LINE
  5
22B
330
267
100
AcDbEntity
  8
engrave
100
AcDbLine
 10
69.0809674027339
 20
-10.10655450403078
 30
0.0
 11
72.95618647038202
 21
-18.10655450403078
 31
0.0
  0
LINE
  5
22C
330
267
100
AcDbEntity
  8
engrave
100
AcDbLine
 10
67.5289169295479
 20
-10.10655450403078
 30
0.0
 11
69.0809674027339
 21
-10.10655450403078
 31
0.0
  0
LINE
  5
22D
330
267
100
AcDbEntity
  8
engrave
100
AcDbLine
 10
63.65369786189979
 20
-18.10655450403078
 30
0.0
 11
67.5289169295479
 21
-10.10655450403078
 31
0.0
  0
LINE
  5
22E
330
267
100
AcDbEntity
  8
engrave
100
AcDbLine
 10
57.56607080266383
 20
-18.10655450403078
 30
0.0
 11
55.71258324570624
 21
-18.10655450403078
 31
0.0
  0
LINE
  5
22F
330
267
100
AcDbEntity
  8
engrave
100
AcDbLine
 10
57.56607080266383
 20
-13.50508236943568
 30
0.0
 11
57.56607080266383
 21
-18.10655450403078
 31
0.0
  0
SPLINE
  5
230
330
267
100
AcDbEntity
  8
engrave
100
AcDbSpline
210
0.0
220
0.0
230
1.0
 70
     8
 71
     3
 72
     8
 73
     4
 74
     0
 42
0.000000001
 43
0.001
 40
0.0
 40
0.0
 40
0.0
 40
0.0
 40
1.0
 40
1.0
 40
1.0
 40
1.0
 10
58.2011917280056
 20
-11.98107255520512
 30
0.0
 10
57.77777777777783
 20
-12.38672742142768
 30
0.0
 10
57.56607080266383
 20
-12.89473069283792
 30
0.0
 10
57.56607080266383
 20
-13.50508236943568
 30
0.0
  0
SPLINE
  5
231
330
267
100
AcDbEntity
  8
engrave
100
AcDbSpline
210
0.0
220
0.0
230
1.0
 70
     8
 71
     3
 72
     8
 73
     4
 74
     0
 42
0.000000001
 43
0.001
 40
0.0
 40
0.0
 40
0.0
 40
0.0
 40
1.0
 40
1.0
 40
1.0
 40
1.0
 10
59.45601121626362
 20
-11.4511041009464
 30
0.0
 10
58.99053627760259
 20
-11.4511041009464
 30
0.0
 10
58.57226311484987
 20
-11.62776025236587
 30
0.0
 10
58.2011917280056
 20
-11.98107255520512
 30
0.0
  0
SPLINE
  5
232
330
267
100
AcDbEntity
  8
engrave
100
AcDbSpline
210
0.0
220
0.0
230
1.0
 70
     8
 71
     3
 72
     8
 73
     4
 74
     0
 42
0.000000001
 43
0.001
 40
0.0
 40
0.0
 40
0.0
 40
0.0
 40
1.0
 40
1.0
 40
1.0
 40
1.0
 10
60.40378548895899
 20
-11.92218717139849
 30
0.0
 10
60.18132959457887
 20
-11.60813179109709
 30
0.0
 10
59.86540483701367
 20
-11.4511041009464
 30
0.0
 10
59.45601121626362
 20
-11.4511041009464
 30
0.0
  0
SPLINE
  5
233
330
267
100
AcDbEntity
  8
engrave
100
AcDbSpline
210
0.0
220
0.0
230
1.0
 70
     8
 71
     3
 72
     8
 73
     4
 74
     0
 42
0.000000001
 43
0.001
 40
0.0
 40
0.0
 40
0.0
 40
0.0
 40
1.0
 40
1.0
 40
1.0
 40
1.0
 10
60.68419207851389
 20
-13.01857693655802
 30
0.0
 10
60.68419207851389
 20
-12.55216730926509
 30
0.0
 10
60.59072321532892
 20
-12.18670405421187
 30
0.0
 10
60.40378548895899
 20
-11.92218717139849
 30
0.0
  0
SPLINE
  5
234
330
267
100
AcDbEntity
  8
engrave
100
AcDbSpline
210
0.0
220
0.0
230
1.0
 70
     8
 71
     3
 72
     8
 73
     4
 74
     0
 42
0.000000001
 43
0.001
 40
0.0
 40
0.0
 40
0.0
 40
0.0
 40
1.0
 40
1.0
 40
1.0
 40
1.0
 10
60.04907115317212
 20
-14.49631966351211
 30
0.0
 10
60.47248510339989
 20
-14.07944853370719
 30
0.0
 10
60.68419207851389
 20
-13.58686762472252
 30
0.0
 10
60.68419207851389
 20
-13.01857693655802
 30
0.0
  0
SPLINE
  5
235
330
267
100
AcDbEntity
  8
engrave
100
AcDbSpline
210
0.0
220
0.0
230
1.0
 70
     8
 71
     3
 72
     8
 73
     4
 74
     0
 42
0.000000001
 43
0.001
 40
0.0
 40
0.0
 40
0.0
 40
0.0
 40
1.0
 40
1.0
 40
1.0
 40
1.0
 10
58.71994391868213
 20
-15.05152471083068
 30
0.0
 10
59.22841453440822
 20
-15.05152471083068
 30
0.0
 10
59.67145694590488
 20
-14.86645636172449
 30
0.0
 10
60.04907115317212
 20
-14.49631966351211
 30
0.0
  0
SPLINE
  5
236
330
267
100
AcDbEntity
  8
engrave
100
AcDbSpline
210
0.0
220
0.0
230
1.0
 70
     8
 71
     3
 72
     8
 73
     4
 74
     0
 42
0.000000001
 43
0.001
 40
0.0
 40
0.0
 40
0.0
 40
0.0
 40
1.0
 40
1.0
 40
1.0
 40
1.0
 10
57.77216964598665
 20
-14.95057833859101
 30
0.0
 10
57.95256455193362
 20
-15.01787592008412
 30
0.0
 10
58.26848930949882
 20
-15.05152471083068
 30
0.0
 10
58.71994391868213
 20
-15.05152471083068
 30
0.0
  0
LINE
  5
237
330
267
100
AcDbEntity
  8
engrave
100
AcDbLine
 10
60.838415702769
 20
-18.10655450403078
 30
0.0
 11
57.77216964598665
 21
-14.95057833859101
 31
0.0
  0
LINE
  5
238
330
267
100
AcDbEntity
  8
engrave
100
AcDbLine
 10
63.32141605327729
 20
-18.10655450403078
 30
0.0
 11
60.838415702769
 21
-18.10655450403078
 31
0.0
  0
LINE
  5
239
330
267
100
AcDbEntity
  8
engrave
100
AcDbLine
 10
60.97581493165092
 20
-15.77216964598671
 30
0.0
 11
63.32141605327729
 21
-18.10655450403078
 31
0.0
  0
SPLINE
  5
23A
330
267
100
AcDbEntity
  8
engrave
100
AcDbSpline
210
0.0
220
0.0
230
1.0
 70
     8
 71
     3
 72
     8
 73
     4
 74
     0
 42
0.000000001
 43
0.001
 40
0.0
 40
0.0
 40
0.0
 40
0.0
 40
1.0
 40
1.0
 40
1.0
 40
1.0
 10
62.59656501927793
 20
-12.76480897301087
 30
0.0
 10
62.59656501927793
 20
-14.0172917396892
 30
0.0
 10
62.05631499006893
 20
-15.01974529734781
 30
0.0
 10
60.97581493165092
 20
-15.77216964598671
 30
0.0
  0
SPLINE
  5
23B
330
267
100
AcDbEntity
  8
engrave
100
AcDbSpline
210
0.0
220
0.0
230
1.0
 70
     8
 71
     3
 72
     8
 73
     4
 74
     0
 42
0.000000001
 43
0.001
 40
0.0
 40
0.0
 40
0.0
 40
0.0
 40
1.0
 40
1.0
 40
1.0
 40
1.0
 10
61.8170347003155
 20
-10.87346652646329
 30
0.0
 10
62.33672157962383
 20
-11.3613739922888
 30
0.0
 10
62.59656501927793
 20
-11.99182147447129
 30
0.0
 10
62.59656501927793
 20
-12.76480897301087
 30
0.0
  0
SPLINE
  5
23C
330
267
100
AcDbEntity
  8
engrave
100
AcDbSpline
210
0.0
220
0.0
230
1.0
 70
     8
 71
     3
 72
     8
 73
     4
 74
     0
 42
0.000000001
 43
0.001
 40
0.0
 40
0.0
 40
0.0
 40
0.0
 40
1.0
 40
1.0
 40
1.0
 40
1.0
 10
59.56677181913778
 20
-10.0
 30
0.0
 10
60.44631382170815
 20
-10.0
 30
0.0
 10
61.19640144876735
 20
-10.29115550882108
 30
0.0
 10
61.8170347003155
 20
-10.87346652646329
 30
0.0
  0
SPLINE
  5
23D
330
267
100
AcDbEntity
  8
engrave
100
AcDbSpline
210
0.0
220
0.0
230
1.0
 70
     8
 71
     3
 72
     8
 73
     4
 74
     0
 42
0.000000001
 43
0.001
 40
0.0
 40
0.0
 40
0.0
 40
0.0
 40
1.0
 40
1.0
 40
1.0
 40
1.0
 10
58.05257623554155
 20
-10.33368384157029
 30
0.0
 10
58.51150835377962
 20
-10.11122794719012
 30
0.0
 10
59.01624021497844
 20
-10.0
 30
0.0
 10
59.56677181913778
 20
-10.0
 30
0.0
  0
SPLINE
  5
23E
330
267
100
AcDbEntity
  8
engrave
100
AcDbSpline
210
0.0
220
0.0
230
1.0
 70
     8
 71
     3
 72
     8
 73
     4
 74
     0
 42
0.000000001
 43
0.001
 40
0.0
 40
0.0
 40
0.0
 40
0.0
 40
1.0
 40
1.0
 40
1.0
 40
1.0
 10
57.39642481598321
 20
-10.68419207851377
 30
0.0
 10
57.60112162635824
 20
-10.56361724500528
 30
0.0
 10
57.81983876621098
 20
-10.44678116602398
 30
0.0
 10
58.05257623554155
 20
-10.33368384157029
 30
0.0
  0
SPLINE
  5
23F
330
267
100
AcDbEntity
  8
engrave
100
AcDbSpline
210
0.0
220
0.0
230
1.0
 70
     8
 71
     3
 72
     8
 73
     4
 74
     0
 42
0.000000001
 43
0.001
 40
0.0
 40
0.0
 40
0.0
 40
0.0
 40
1.0
 40
1.0
 40
1.0
 40
1.0
 10
56.84542586750786
 20
-10.10655450403078
 30
0.0
 10
57.09311835494805
 20
-10.25516999649489
 30
0.0
 10
57.2767846711065
 20
-10.44771585465588
 30
0.0
 10
57.39642481598321
 20
-10.68419207851377
 30
0.0
  0
LINE
  5
240
330
267
100
AcDbEntity
  8
engrave
100
AcDbLine
 10
54.8124780932352
 20
-10.10655450403078
 30
0.0
 11
56.84542586750786
 21
-10.10655450403078
 31
0.0
  0
LINE
  5
241
330
267
100
AcDbEntity
  8
engrave
100
AcDbLine
 10
54.8124780932352
 20
-10.21170697511388
 30
0.0
 11
54.8124780932352
 21
-10.10655450403078
 31
0.0
  0
SPLINE
  5
242
330
267
100
AcDbEntity
  8
engrave
100
AcDbSpline
210
0.0
220
0.0
230
1.0
 70
     8
 71
     3
 72
     8
 73
     4
 74
     0
 42
0.000000001
 43
0.001
 40
0.0
 40
0.0
 40
0.0
 40
0.0
 40
1.0
 40
1.0
 40
1.0
 40
1.0
 10
55.71258324570624
 20
-11.48895899053628
 30
0.0
 10
55.71258324570624
 20
-10.85337072087862
 30
0.0
 10
55.41254819488256
 20
-10.42762004907121
 30
0.0
 10
54.8124780932352
 20
-10.21170697511388
 30
0.0
  0
LINE
  5
243
330
267
100
AcDbEntity
  8
engrave
100
AcDbLine
 10
55.71258324570624
 20
-18.10655450403078
 30
0.0
 11
55.71258324570624
 21
-11.48895899053628
 31
0.0
  0
LINE
  5
244
330
267
100
AcDbEntity
  8
engrave
100
AcDbLine
 10
52.71924290220818
 20
-14.88748685594112
 30
0.0
 11
54.18016123378902
 21
-15.93059936908509
 31
0.0
  0
SPLINE
  5
245
330
267
100
AcDbEntity
  8
engrave
100
AcDbSpline
210
0.0
220
0.0
230
1.0
 70
     8
 71
     3
 72
     8
 73
     4
 74
     0
 42
0.000000001
 43
0.001
 40
0.0
 40
0.0
 40
0.0
 40
0.0
 40
1.0
 40
1.0
 40
1.0
 40
1.0
 10
51.92008412197686
 20
-16.03575184016819
 30
0.0
 10
52.29022082018923
 20
-15.72169645986679
 30
0.0
 10
52.55660708026642
 20
-15.33894146512438
 30
0.0
 10
52.71924290220818
 20
-14.88748685594112
 30
0.0
  0
SPLINE
  5
246
330
267
100
AcDbEntity
  8
engrave
100
AcDbSpline
210
0.0
220
0.0
230
1.0
 70
     8
 71
     3
 72
     8
 73
     4
 74
     0
 42
0.000000001
 43
0.001
 40
0.0
 40
0.0
 40
0.0
 40
0.0
 40
1.0
 40
1.0
 40
1.0
 40
1.0
 10
49.80161233788999
 20
-16.7676130389064
 30
0.0
 10
50.6381586633953
 20
-16.7676130389064
 30
0.0
 10
51.34431592475755
 20
-16.5236593059937
 30
0.0
 10
51.92008412197686
 20
-16.03575184016819
 30
0.0
  0
SPLINE
  5
247
330
267
100
AcDbEntity
  8
engrave
100
AcDbSpline
210
0.0
220
0.0
230
1.0
 70
     8
 71
     3
 72
     8
 73
     4
 74
     0
 42
0.000000001
 43
0.001
 40
0.0
 40
0.0
 40
0.0
 40
0.0
 40
1.0
 40
1.0
 40
1.0
 40
1.0
 10
48.2453557658605
 20
-16.13669821240802
 30
0.0
 10
48.65101063208317
 20
-16.55730809674031
 30
0.0
 10
49.16976282275971
 20
-16.7676130389064
 30
0.0
 10
49.80161233788999
 20
-16.7676130389064
 30
0.0
  0
ENDSEC
  0
SECTION
  2
OBJECTS
  0
DICTIONARY
  5
255
330
0
100
AcDbDictionary
281
     1
  3
ACAD_DETAILVIEWSTYLE
350
2F7
  3
ACAD_GROUP
350
256
  3
ACAD_LAYOUT
350
262
  3
ACAD_MATERIAL
350
28B
  3
ACAD_MLEADERSTYLE
350
2F6
  3
ACAD_MLINESTYLE
350
25F
  3
ACAD_PLOTSETTINGS
350
261
  3
ACAD_PLOTSTYLENAME
350
257
  3
ACAD_SCALELIST
350
28F
  3
ACAD_SECTIONVIEWSTYLE
350
2F8
  3
ACAD_TABLESTYLE
350
2F5
  3
ACAD_VISUALSTYLE
350
272
  3
AcDbVariableDictionary
350
2F3
  3
QCAD_OBJECTS
350
2B3
  0
SUN
  5
2B1
330
271
100
AcDbSun
 90
        1
290
     0
 63
     7
421
 16777215
 40
1.0
291
     1
 91
  2455826
 92
 54000000
292
     0
 70
     2
 71
   256
280
     1
  0
DICTIONARY
  5
2F7
102
{ACAD_REACTORS
330
255
102
}
330
255
100
AcDbDictionary
281
     1
  0
DICTIONARY
  5
256
102
{ACAD_REACTORS
330
255
102
}
330
255
100
AcDbDictionary
281
     1
  0
DICTIONARY
  5
262
102
{ACAD_REACTORS
330
255
102
}
330
255
100
AcDbDictionary
281
     1
  3
Layout1
350
266
  3
Layout2
350
26E
  3
Model
350
26A
  0
DICTIONARY
  5
28B
102
{ACAD_REACTORS
330
255
102
}
330
255
100
AcDbDictionary
281
     1
  3
ByBlock
350
28D
  3
ByLayer
350
28C
  3
Global
350
28E
  0
DICTIONARY
  5
2F6
102
{ACAD_REACTORS
330
255
102
}
330
255
100
AcDbDictionary
281
     1
  0
DICTIONARY
  5
25F
102
{ACAD_REACTORS
330
255
102
}
330
255
100
AcDbDictionary
281
     1
  3
Standard
350
260
  0
DICTIONARY
  5
261
102
{ACAD_REACTORS
330
255
102
}
330
255
100
AcDbDictionary
281
     1
  0
ACDBDICTIONARYWDFLT
  5
257
102
{ACAD_REACTORS
330
255
102
}
330
255
100
AcDbDictionary
281
     1
  3
Normal
350
258
100
AcDbDictionaryWithDefault
340
258
  0
DICTIONARY
  5
28F
102
{ACAD_REACTORS
330
255
102
}
330
255
100
AcDbDictionary
281
     1
  3
A0
350
290
  3
A1
350
291
  3
A2
350
292
  3
A3
350
293
  3
A4
350
294
  3
A5
350
295
  3
A6
350
296
  3
A7
350
297
  3
A8
350
298
  3
A9
350
299
  3
B0
350
29A
  3
B1
350
29B
  3
B2
350
29C
  3
B3
350
29D
  3
B4
350
29E
  3
B5
350
29F
  3
B6
350
2A0
  3
B7
350
2A1
  3
B8
350
2A2
  3
B9
350
2A3
  3
C0
350
2A4
  3
C1
350
2A5
  3
C2
350
2A6
  3
C3
350
2A7
  3
C4
350
2A8
  3
C5
350
2A9
  3
C6
350
2AA
  3
C7
350
2AB
  3
C8
350
2AC
  3
C9
350
2AD
  3
D0
350
2AE
  3
D1
350
2AF
  3
D2
350
2B0
  0
DICTIONARY
  5
2F8
102
{ACAD_REACTORS
330
255
102
}
330
255
100
AcDbDictionary
281
     1
  0
DICTIONARY
  5
2F5
102
{ACAD_REACTORS
330
255
102
}
330
255
100
AcDbDictionary
281
     1
  0
DICTIONARY
  5
272
102
{ACAD_REACTORS
330
255
102
}
330
255
100
AcDbDictionary
281
     1
  3
2dWireframe
350
277
  3
Basic
350
27A
  3
Brighten
350
27E
  3
ColorChange
350
282
  3
Conceptual
350
27C
  3
Dim
350
27D
  3
EdgeColorOff
350
285
  3
Facepattern
350
281
  3
Flat
350
273
  3
FlatWithEdges
350
274
  3
Gouraud
350
275
  3
GouraudWithEdges
350
276
  3
Hidden
350
279
  3
JitterOff
350
283
  3
Linepattern
350
280
  3
OverhangOff
350
284
  3
Realistic
350
27B
  3
Shaded
350
28A
  3
Shaded with edges
350
289
  3
Shades of Gray
350
286
  3
Sketchy
350
287
  3
Thicken
350
27F
  3
Wireframe
350
278
  3
X-Ray
350
288
  0
DICTIONARY
  5
2F3
102
{ACAD_REACTORS
330
255
102
}
330
255
100
AcDbDictionary
281
     1
  3
CANNOSCALE
350
2F4
  0
DICTIONARY
  5
2B3
102
{ACAD_REACTORS
330
255
102
}
330
255
100
AcDbDictionary
281
     1
  3
Grid/DisplayGrid00
350
2B4
  3
Grid/DisplayGrid01
350
2B5
  3
Grid/DisplayGrid02
350
2B6
  3
Grid/DisplayGrid03
350
2B7
  3
Grid/GridSpacingX00
350
2B8
  3
Grid/GridSpacingX01
350
2B9
  3
Grid/GridSpacingX02
350
2BA
  3
Grid/GridSpacingX03
350
2BB
  3
Grid/GridSpacingY00
350
2BC
  3
Grid/GridSpacingY01
350
2BD
  3
Grid/GridSpacingY02
350
2BE
  3
Grid/GridSpacingY03
350
2BF
  3
Grid/IsometricGrid00
350
2C0
  3
Grid/IsometricGrid01
350
2C1
  3
Grid/IsometricGrid02
350
2C2
  3
Grid/IsometricGrid03
350
2C3
  3
Grid/IsometricProjection00
350
2C4
  3
Grid/IsometricProjection01
350
2C5
  3
Grid/IsometricProjection02
350
2C6
  3
Grid/IsometricProjection03
350
2C7
  3
Grid/MetaGridSpacingX00
350
2C8
  3
Grid/MetaGridSpacingX01
350
2C9
  3
Grid/MetaGridSpacingX02
350
2CA
  3
Grid/MetaGridSpacingX03
350
2CB
  3
Grid/MetaGridSpacingY00
350
2CC
  3
Grid/MetaGridSpacingY01
350
2CD
  3
Grid/MetaGridSpacingY02
350
2CE
  3
Grid/MetaGridSpacingY03
350
2CF
  3
MultiPageSettings/Columns
350
2D0
  3
MultiPageSettings/GlueMarginsBottom
350
2D1
  3
MultiPageSettings/GlueMarginsLeft
350
2D2
  3
MultiPageSettings/GlueMarginsRight
350
2D3
  3
MultiPageSettings/GlueMarginsTop
350
2D4
  3
MultiPageSettings/PrintCropMarks
350
2D5
  3
MultiPageSettings/Rows
350
2D6
  3
PageSettings/OffsetX
350
2D7
  3
PageSettings/OffsetY
350
2D8
  3
PageSettings/PageOrientation
350
2D9
  3
PageSettings/PaperHeight
350
2DA
  3
PageSettings/PaperWidth
350
2DB
  3
PageSettings/Scale
350
2DC
  3
PageSettings/ShowPaperBorders
350
2DD
  3
UnitSettings/PaperUnit
350
2DE
  0
LAYOUT
  5
266
102
{ACAD_REACTORS
330
262
102
}
330
262
100
AcDbPlotSettings
  1

  2
none_device
  4

  6

 40
0.0
 41
0.0
 42
0.0
 43
0.0
 44
0.0
 45
0.0
 46
0.0
 47
0.0
 48
0.0
 49
0.0
140
0.0
141
0.0
142
1.0
143
1.0
 70
   688
 72
     0
 73
     0
 74
     5
  7

 75
    16
 76
     0
 77
     2
 78
   300
147
1.0
148
0.0
149
0.0
100
AcDbLayout
  1
Layout1
 70
     1
 71
     1
 10
0.0
 20
0.0
 11
12.0
 21
9.0
 12
0.0
 22
0.0
 32
0.0
 14
1.000000000000000E+20
 24
1.000000000000000E+20
 34
1.000000000000000E+20
 15
-1.000000000000000E+20
 25
-1.000000000000000E+20
 35
-1.000000000000000E+20
146
0.0
 13
0.0
 23
0.0
 33
0.0
 16
1.0
 26
0.0
 36
0.0
 17
0.0
 27
1.0
 37
0.0
 76
     0
330
263
  0
LAYOUT
  5
26E
102
{ACAD_REACTORS
330
262
102
}
330
262
100
AcDbPlotSettings
  1

  2
none_device
  4

  6

 40
0.0
 41
0.0
 42
0.0
 43
0.0
 44
0.0
 45
0.0
 46
0.0
 47
0.0
 48
0.0
 49
0.0
140
0.0
141
0.0
142
1.0
143
1.0
 70
   688
 72
     0
 73
     0
 74
     5
  7

 75
    16
 76
     0
 77
     2
 78
   300
147
1.0
148
0.0
149
0.0
100
AcDbLayout
  1
Layout2
 70
     1
 71
     2
 10
0.0
 20
0.0
 11
0.0
 21
0.0
 12
0.0
 22
0.0
 32
0.0
 14
0.0
 24
0.0
 34
0.0
 15
0.0
 25
0.0
 35
0.0
146
0.0
 13
0.0
 23
0.0
 33
0.0
 16
1.0
 26
0.0
 36
0.0
 17
0.0
 27
1.0
 37
0.0
 76
     0
330
26B
  0
LAYOUT
  5
26A
102
{ACAD_REACTORS
330
262
102
}
330
262
100
AcDbPlotSettings
  1

  2
none_device
  4
Letter_(8.50_x_11.00_Inches)
  6

 40
6.35
 41
6.35
 42
6.35000508
 43
6.35000508
 44
215.9
 45
279.4
 46
0.0
 47
0.0
 48
0.0
 49
0.0
140
0.0
141
0.0
142
1.0
143
1.0
 70
  1712
 72
     0
 73
     0
 74
     0
  7

 75
     0
 76
     0
 77
     2
 78
   300
147
1.0
148
0.0
149
0.0
100
AcDbLayout
  1
Model
 70
     1
 71
     0
 10
0.0
 20
0.0
 11
12.0
 21
9.0
 12
0.0
 22
0.0
 32
0.0
 14
1.000000000000000E+20
 24
1.000000000000000E+20
 34
1.000000000000000E+20
 15
-1.000000000000000E+20
 25
-1.000000000000000E+20
 35
-1.000000000000000E+20
146
0.0
 13
0.0
 23
0.0
 33
0.0
 16
1.0
 26
0.0
 36
0.0
 17
0.0
 27
1.0
 37
0.0
 76
     0
330
267
331
271
  0
MATERIAL
  5
28D
102
{ACAD_REACTORS
330
28B
102
}
330
28B
100
AcDbMaterial
  1
ByBlock
 72
     1
 94
      127
  0
MATERIAL
  5
28C
102
{ACAD_REACTORS
330
28B
102
}
330
28B
100
AcDbMaterial
  1
ByLayer
 72
     1
 94
      127
  0
MATERIAL
  5
28E
102
{ACAD_REACTORS
330
28B
102
}
330
28B
100
AcDbMaterial
  1
Global
 72
     1
 94
      127
  0
MLINESTYLE
  5
260
102
{ACAD_REACTORS
330
25F
102
}
330
25F
100
AcDbMlineStyle
  2
Standard
 70
     0
  3

 62
   256
 51
90.0
 52
90.0
 71
     2
 49
0.5
 62
   256
  6
BYLAYER
 49
-0.5
 62
   256
  6
BYLAYER
  0
ACDBPLACEHOLDER
  5
258
102
{ACAD_REACTORS
330
257
102
}
330
257
  0
SCALE
  5
290
102
{ACAD_REACTORS
330
28F
102
}
330
28F
100
AcDbScale
 70
     0
300
1:1
140
1.0
141
1.0
290
     1
  0
SCALE
  5
291
102
{ACAD_REACTORS
330
28F
102
}
330
28F
100
AcDbScale
 70
     0
300
1:2
140
1.0
141
2.0
290
     0
  0
SCALE
  5
292
102
{ACAD_REACTORS
330
28F
102
}
330
28F
100
AcDbScale
 70
     0
300
1:4
140
1.0
141
4.0
290
     0
  0
SCALE
  5
293
102
{ACAD_REACTORS
330
28F
102
}
330
28F
100
AcDbScale
 70
     0
300
1:5
140
1.0
141
5.0
290
     0
  0
SCALE
  5
294
102
{ACAD_REACTORS
330
28F
102
}
330
28F
100
AcDbScale
 70
     0
300
1:8
140
1.0
141
8.0
290
     0
  0
SCALE
  5
295
102
{ACAD_REACTORS
330
28F
102
}
330
28F
100
AcDbScale
 70
     0
300
1:10
140
1.0
141
10.0
290
     0
  0
SCALE
  5
296
102
{ACAD_REACTORS
330
28F
102
}
330
28F
100
AcDbScale
 70
     0
300
1:16
140
1.0
141
16.0
290
     0
  0
SCALE
  5
297
102
{ACAD_REACTORS
330
28F
102
}
330
28F
100
AcDbScale
 70
     0
300
1:20
140
1.0
141
20.0
290
     0
  0
SCALE
  5
298
102
{ACAD_REACTORS
330
28F
102
}
330
28F
100
AcDbScale
 70
     0
300
1:30
140
1.0
141
30.0
290
     0
  0
SCALE
  5
299
102
{ACAD_REACTORS
330
28F
102
}
330
28F
100
AcDbScale
 70
     0
300
1:40
140
1.0
141
40.0
290
     0
  0
SCALE
  5
29A
102
{ACAD_REACTORS
330
28F
102
}
330
28F
100
AcDbScale
 70
     0
300
1:50
140
1.0
141
50.0
290
     0
  0
SCALE
  5
29B
102
{ACAD_REACTORS
330
28F
102
}
330
28F
100
AcDbScale
 70
     0
300
1:100
140
1.0
141
100.0
290
     0
  0
SCALE
  5
29C
102
{ACAD_REACTORS
330
28F
102
}
330
28F
100
AcDbScale
 70
     0
300
2:1
140
2.0
141
1.0
290
     0
  0
SCALE
  5
29D
102
{ACAD_REACTORS
330
28F
102
}
330
28F
100
AcDbScale
 70
     0
300
4:1
140
4.0
141
1.0
290
     0
  0
SCALE
  5
29E
102
{ACAD_REACTORS
330
28F
102
}
330
28F
100
AcDbScale
 70
     0
300
8:1
140
8.0
141
1.0
290
     0
  0
SCALE
  5
29F
102
{ACAD_REACTORS
330
28F
102
}
330
28F
100
AcDbScale
 70
     0
300
10:1
140
10.0
141
1.0
290
     0
  0
SCALE
  5
2A0
102
{ACAD_REACTORS
330
28F
102
}
330
28F
100
AcDbScale
 70
     0
300
100:1
140
100.0
141
1.0
290
     0
  0
SCALE
  5
2A1
102
{ACAD_REACTORS
330
28F
102
}
330
28F
100
AcDbScale
 70
     0
300
1/128" = 1'-0"
140
0.0078125
141
12.0
290
     0
  0
SCALE
  5
2A2
102
{ACAD_REACTORS
330
28F
102
}
330
28F
100
AcDbScale
 70
     0
300
1/64" = 1'-0"
140
0.015625
141
12.0
290
     0
  0
SCALE
  5
2A3
102
{ACAD_REACTORS
330
28F
102
}
330
28F
100
AcDbScale
 70
     0
300
1/32" = 1'-0"
140
0.03125
141
12.0
290
     0
  0
SCALE
  5
2A4
102
{ACAD_REACTORS
330
28F
102
}
330
28F
100
AcDbScale
 70
     0
300
1/16" = 1'-0"
140
0.0625
141
12.0
290
     0
  0
SCALE
  5
2A5
102
{ACAD_REACTORS
330
28F
102
}
330
28F
100
AcDbScale
 70
     0
300
3/32" = 1'-0"
140
0.09375
141
12.0
290
     0
  0
SCALE
  5
2A6
102
{ACAD_REACTORS
330
28F
102
}
330
28F
100
AcDbScale
 70
     0
300
1/8" = 1'-0"
140
0.125
141
12.0
290
     0
  0
SCALE
  5
2A7
102
{ACAD_REACTORS
330
28F
102
}
330
28F
100
AcDbScale
 70
     0
300
3/16" = 1'-0"
140
0.1875
141
12.0
290
     0
  0
SCALE
  5
2A8
102
{ACAD_REACTORS
330
28F
102
}
330
28F
100
AcDbScale
 70
     0
300
1/4" = 1'-0"
140
0.25
141
12.0
290
     0
  0
SCALE
  5
2A9
102
{ACAD_REACTORS
330
28F
102
}
330
28F
100
AcDbScale
 70
     0
300
3/8" = 1'-0"
140
0.375
141
12.0
290
     0
  0
SCALE
  5
2AA
102
{ACAD_REACTORS
330
28F
102
}
330
28F
100
AcDbScale
 70
     0
300
1/2" = 1'-0"
140
0.5
141
12.0
290
     0
  0
SCALE
  5
2AB
102
{ACAD_REACTORS
330
28F
102
}
330
28F
100
AcDbScale
 70
     0
300
3/4" = 1'-0"
140
0.75
141
12.0
290
     0
  0
SCALE
  5
2AC
102
{ACAD_REACTORS
330
28F
102
}
330
28F
100
AcDbScale
 70
     0
300
1" = 1'-0"
140
1.0
141
12.0
290
     0
  0
SCALE
  5
2AD
102
{ACAD_REACTORS
330
28F
102
}
330
28F
100
AcDbScale
 70
     0
300
1-1/2" = 1'-0"
140
1.5
141
12.0
290
     0
  0
SCALE
  5
2AE
102
{ACAD_REACTORS
330
28F
102
}
330
28F
100
AcDbScale
 70
     0
300
3" = 1'-0"
140
3.0
141
12.0
290
     0
  0
SCALE
  5
2AF
102
{ACAD_REACTORS
330
28F
102
}
330
28F
100
AcDbScale
 70
     0
300
6" = 1'-0"
140
6.0
141
12.0
290
     0
  0
SCALE
  5
2B0
102
{ACAD_REACTORS
330
28F
102
}
330
28F
100
AcDbScale
 70
     0
300
1'-0" = 1'-0"
140
12.0
141
12.0
290
     0
  0
VISUALSTYLE
  5
277
102
{ACAD_REACTORS
330
272
102
}
330
272
100
AcDbVisualStyle
  2
2dWireframe
 70
     4
177
     3
291
     0
 70
    58
 90
        0
176
     1
 90
        2
176
     1
 90
        0
176
     1
 90
        0
176
     1
 40
0.6
176
     1
 40
30.0
176
     1
 62
     7
420
 16777215
176
     1
 90
        1
176
     1
 90
        4
176
     1
 62
     7
176
     1
 62
   257
176
     1
 90
        1
176
     1
 90
        1
176
     1
 40
1.0
176
     1
 90
        0
176
     1
 62
   257
176
     1
 40
1.0
176
     1
 90
        1
176
     1
 90
        6
176
     1
 90
        2
176
     1
 62
     7
176
     1
 90
        5
176
     1
 90
        0
176
     1
 90
        0
176
     1
290
     0
176
     1
 90
        1
176
     1
 40
0.0
176
     1
 90
        0
176
     1
290
     1
176
     1
290
     1
176
     1
290
     0
176
     1
290
     0
176
     1
290
     0
176
     1
290
     0
176
     1
290
     0
176
     1
290
     0
176
     1
290
     0
176
     1
 90
       50
176
     1
 40
0.0
176
     1
 40
1.0
176
     1
 90
        0
176
     1
 62
   178
420
        0
176
     1
 90
       50
176
     1
 90
        3
176
     1
 62
     5
420
      255
176
     1
290
     0
176
     1
 90
       50
176
     1
 90
       50
176
     1
 90
       50
176
     1
290
     0
176
     1
 90
       50
176
     1
 62
   256
176
     0
 40
1.0
176
     0
 90
        2
176
     1
  1
strokes_ogs.tif
176
     1
290
     0
176
     1
 40
1.0
176
     1
 40
1.0
176
     1
  0
VISUALSTYLE
  5
27A
102
{ACAD_REACTORS
330
272
102
}
330
272
100
AcDbVisualStyle
  2
Basic
 70
     7
177
     3
291
     1
 70
    58
 90
        1
176
     1
 90
        0
176
     1
 90
        1
176
     1
 90
        0
176
     1
 40
0.6
176
     1
 40
30.0
176
     1
 62
     7
420
 16777215
176
     1
 90
        0
176
     1
 90
        4
176
     1
 62
     7
176
     1
 62
   257
176
     1
 90
        1
176
     1
 90
        1
176
     1
 40
1.0
176
     1
 90
        8
176
     1
 62
     7
176
     1
 40
1.0
176
     1
 90
        1
176
     1
 90
        6
176
     1
 90
        2
176
     1
 62
     7
176
     1
 90
        5
176
     1
 90
        0
176
     1
 90
        0
176
     1
290
     0
176
     1
 90
        1
176
     1
 40
0.0
176
     1
 90
        0
176
     1
290
     0
176
     1
290
     1
176
     1
290
     1
176
     1
290
     0
176
     1
290
     0
176
     1
290
     0
176
     1
290
     0
176
     1
290
     0
176
     1
290
     0
176
     1
 90
       50
176
     1
 40
0.0
176
     1
 40
1.0
176
     1
 90
        0
176
     1
 62
   178
420
        0
176
     1
 90
       50
176
     1
 90
        3
176
     1
 62
     5
420
      255
176
     1
290
     0
176
     1
 90
       50
176
     1
 90
       50
176
     1
 90
       50
176
     1
290
     0
176
     1
 90
       50
176
     1
 62
   256
176
     0
 40
1.0
176
     0
 90
        2
176
     1
  1
strokes_ogs.tif
176
     1
290
     0
176
     1
 40
1.0
176
     1
 40
1.0
176
     1
  0
VISUALSTYLE
  5
27E
102
{ACAD_REACTORS
330
272
102
}
330
272
100
AcDbVisualStyle
  2
Brighten
 70
    12
177
     3
291
     1
 70
    58
 90
        2
176
     1
 90
        2
176
     1
 90
        0
176
     1
 90
        0
176
     1
 40
0.6
176
     1
 40
30.0
176
     1
 62
     7
420
 16777215
176
     1
 90
        1
176
     1
 90
        4
176
     1
 62
     7
176
     1
 62
   257
176
     1
 90
        1
176
     1
 90
        1
176
     1
 40
1.0
176
     1
 90
        8
176
     1
 62
     7
176
     1
 40
1.0
176
     1
 90
        1
176
     1
 90
        6
176
     1
 90
        2
176
     1
 62
     7
176
     1
 90
        5
176
     1
 90
        0
176
     1
 90
        0
176
     1
290
     0
176
     1
 90
        1
176
     1
 40
50.0
176
     1
 90
        0
176
     1
290
     0
176
     1
290
     1
176
     1
290
     1
176
     1
290
     0
176
     1
290
     0
176
     1
290
     0
176
     1
290
     0
176
     1
290
     0
176
     1
290
     0
176
     1
 90
       50
176
     1
 40
0.0
176
     1
 40
1.0
176
     1
 90
        0
176
     1
 62
   178
420
        0
176
     1
 90
       50
176
     1
 90
        3
176
     1
 62
     5
420
      255
176
     1
290
     0
176
     1
 90
       50
176
     1
 90
       50
176
     1
 90
       50
176
     1
290
     0
176
     1
 90
       50
176
     1
 62
   256
176
     0
 40
1.0
176
     0
 90
        2
176
     1
  1
strokes_ogs.tif
176
     1
290
     0
176
     1
 40
1.0
176
     1
 40
1.0
176
     1
  0
VISUALSTYLE
  5
282
102
{ACAD_REACTORS
330
272
102
}
330
272
100
AcDbVisualStyle
  2
ColorChange
 70
    16
177
     3
291
     1
 70
    58
 90
        2
176
     1
 90
        2
176
     1
 90
        3
176
     1
 90
        0
176
     1
 40
0.6
176
     1
 40
30.0
176
     1
 62
     8
420
  8421504
176
     1
 90
        1
176
     1
 90
        4
176
     1
 62
     7
176
     1
 62
   257
176
     1
 90
        1
176
     1
 90
        1
176
     1
 40
1.0
176
     1
 90
        8
176
     1
 62
     8
420
  8421504
176
     1
 40
1.0
176
     1
 90
        1
176
     1
 90
        6
176
     1
 90
        2
176
     1
 62
     7
176
     1
 90
        5
176
     1
 90
        0
176
     1
 90
        0
176
     1
290
     0
176
     1
 90
        1
176
     1
 40
0.0
176
     1
 90
        0
176
     1
290
     0
176
     1
290
     1
176
     1
290
     1
176
     1
290
     0
176
     1
290
     0
176
     1
290
     0
176
     1
290
     0
176
     1
290
     0
176
     1
290
     0
176
     1
 90
       50
176
     1
 40
0.0
176
     1
 40
1.0
176
     1
 90
        0
176
     1
 62
   178
420
        0
176
     1
 90
       50
176
     1
 90
        3
176
     1
 62
     5
420
      255
176
     1
290
     0
176
     1
 90
       50
176
     1
 90
       50
176
     1
 90
       50
176
     1
290
     0
176
     1
 90
       50
176
     1
 62
   256
176
     0
 40
1.0
176
     0
 90
        2
176
     1
  1
strokes_ogs.tif
176
     1
290
     0
176
     1
 40
1.0
176
     1
 40
1.0
176
     1
  0
VISUALSTYLE
  5
27C
102
{ACAD_REACTORS
330
272
102
}
330
272
100
AcDbVisualStyle
  2
Conceptual
 70
     9
177
     3
291
     0
 70
    58
 90
        3
176
     1
 90
        2
176
     1
 90
        0
176
     1
 90
        0
176
     1
 40
0.6
176
     1
 40
30.0
176
     1
 62
     7
420
 16777215
176
     1
 90
        2
176
     1
 90
        2
176
     1
 62
     7
176
     1
 62
   257
176
     1
 90
        1
176
     1
 90
        1
176
     1
 40
179.0
176
     1
 90
        8
176
     1
 62
     7
176
     1
 40
1.0
176
     1
 90
        1
176
     1
 90
        6
176
     1
 90
        2
176
     1
 62
     7
176
     1
 90
        3
176
     1
 90
        0
176
     1
 90
        0
176
     1
290
     0
176
     1
 90
        1
176
     1
 40
0.0
176
     1
 90
        0
176
     1
290
     0
176
     1
290
     1
176
     1
290
     1
176
     1
290
     0
176
     1
290
     0
176
     1
290
     0
176
     1
290
     0
176
     1
290
     0
176
     1
290
     0
176
     1
 90
       50
176
     1
 40
0.0
176
     1
 40
1.0
176
     1
 90
        0
176
     1
 62
   178
420
        0
176
     1
 90
       50
176
     1
 90
        3
176
     1
 62
     5
420
      255
176
     1
290
     0
176
     1
 90
       50
176
     1
 90
       50
176
     1
 90
       50
176
     1
290
     0
176
     1
 90
       50
176
     1
 62
   256
176
     0
 40
1.0
176
     0
 90
        2
176
     1
  1
strokes_ogs.tif
176
     1
290
     0
176
     1
 40
1.0
176
     1
 40
1.0
176
     1
  0
VISUALSTYLE
  5
27D
102
{ACAD_REACTORS
330
272
102
}
330
272
100
AcDbVisualStyle
  2
Dim
 70
    11
177
     3
291
     1
 70
    58
 90
        2
176
     1
 90
        2
176
     1
 90
        0
176
     1
 90
        0
176
     1
 40
0.6
176
     1
 40
30.0
176
     1
 62
     7
420
 16777215
176
     1
 90
        1
176
     1
 90
        4
176
     1
 62
     7
176
     1
 62
   257
176
     1
 90
        1
176
     1
 90
        1
176
     1
 40
1.0
176
     1
 90
        8
176
     1
 62
     7
176
     1
 40
1.0
176
     1
 90
        1
176
     1
 90
        6
176
     1
 90
        2
176
     1
 62
     7
176
     1
 90
        5
176
     1
 90
        0
176
     1
 90
        0
176
     1
290
     0
176
     1
 90
        1
176
     1
 40
-50.0
176
     1
 90
        0
176
     1
290
     0
176
     1
290
     1
176
     1
290
     1
176
     1
290
     0
176
     1
290
     0
176
     1
290
     0
176
     1
290
     0
176
     1
290
     0
176
     1
290
     0
176
     1
 90
       50
176
     1
 40
0.0
176
     1
 40
1.0
176
     1
 90
        0
176
     1
 62
   178
420
        0
176
     1
 90
       50
176
     1
 90
        3
176
     1
 62
     5
420
      255
176
     1
290
     0
176
     1
 90
       50
176
     1
 90
       50
176
     1
 90
       50
176
     1
290
     0
176
     1
 90
       50
176
     1
 62
   256
176
     0
 40
1.0
176
     0
 90
        2
176
     1
  1
strokes_ogs.tif
176
     1
290
     0
176
     1
 40
1.0
176
     1
 40
1.0
176
     1
  0
VISUALSTYLE
  5
285
102
{ACAD_REACTORS
330
272
102
}
330
272
100
AcDbVisualStyle
  2
EdgeColorOff
 70
    22
177
     3
291
     1
 70
    58
 90
        2
176
     0
 90
        2
176
     0
 90
        0
176
     0
 90
        0
176
     0
 40
0.6
176
     0
 40
30.0
176
     0
 62
     7
420
 16777215
176
     0
 90
        1
176
     0
 90
        4
176
     0
 62
     7
176
     0
 62
   257
176
     0
 90
        1
176
     0
 90
        1
176
     0
 40
1.0
176
     0
 90
        8
176
     2
 62
     7
176
     0
 40
1.0
176
     0
 90
        1
176
     0
 90
        6
176
     0
 90
        2
176
     0
 62
     7
176
     0
 90
        5
176
     0
 90
        0
176
     0
 90
        0
176
     0
290
     0
176
     0
 90
        1
176
     0
 40
0.0
176
     0
 90
        0
176
     0
290
     0
176
     0
290
     1
176
     0
290
     1
176
     0
290
     0
176
     0
290
     0
176
     0
290
     0
176
     0
290
     0
176
     0
290
     0
176
     0
290
     0
176
     0
 90
       50
176
     0
 40
0.0
176
     0
 40
1.0
176
     0
 90
        0
176
     0
 62
   178
420
        0
176
     0
 90
       50
176
     0
 90
        3
176
     0
 62
     5
420
      255
176
     0
290
     0
176
     0
 90
       50
176
     0
 90
       50
176
     0
 90
       50
176
     0
290
     0
176
     0
 90
       50
176
     0
 62
   256
176
     0
 40
1.0
176
     0
 90
        2
176
     0
  1
strokes_ogs.tif
176
     0
290
     0
176
     0
 40
1.0
176
     0
 40
1.0
176
     0
  0
VISUALSTYLE
  5
281
102
{ACAD_REACTORS
330
272
102
}
330
272
100
AcDbVisualStyle
  2
Facepattern
 70
    15
177
     3
291
     1
 70
    58
 90
        2
176
     1
 90
        2
176
     1
 90
        0
176
     1
 90
        0
176
     1
 40
0.6
176
     1
 40
30.0
176
     1
 62
     7
420
 16777215
176
     1
 90
        1
176
     1
 90
        4
176
     1
 62
     7
176
     1
 62
   257
176
     1
 90
        1
176
     1
 90
        1
176
     1
 40
1.0
176
     1
 90
        8
176
     1
 62
     7
176
     1
 40
1.0
176
     1
 90
        1
176
     1
 90
        6
176
     1
 90
        2
176
     1
 62
     7
176
     1
 90
        5
176
     1
 90
        0
176
     1
 90
        0
176
     1
290
     0
176
     1
 90
        1
176
     1
 40
0.0
176
     1
 90
        0
176
     1
290
     0
176
     1
290
     1
176
     1
290
     1
176
     1
290
     0
176
     1
290
     0
176
     1
290
     0
176
     1
290
     0
176
     1
290
     0
176
     1
290
     0
176
     1
 90
       50
176
     1
 40
0.0
176
     1
 40
1.0
176
     1
 90
        0
176
     1
 62
   178
420
        0
176
     1
 90
       50
176
     1
 90
        3
176
     1
 62
     5
420
      255
176
     1
290
     0
176
     1
 90
       50
176
     1
 90
       50
176
     1
 90
       50
176
     1
290
     0
176
     1
 90
       50
176
     1
 62
   256
176
     0
 40
1.0
176
     0
 90
        2
176
     1
  1
strokes_ogs.tif
176
     1
290
     0
176
     1
 40
1.0
176
     1
 40
1.0
176
     1
  0
VISUALSTYLE
  5
273
102
{ACAD_REACTORS
330
272
102
}
330
272
100
AcDbVisualStyle
  2
Flat
 70
     0
177
     3
291
     1
 70
    58
 90
        2
176
     1
 90
        1
176
     1
 90
        1
176
     1
 90
        2
176
     1
 40
0.6
176
     1
 40
30.0
176
     1
 62
     7
420
 16777215
176
     1
 90
        0
176
     1
 90
        0
176
     1
 62
     7
176
     1
 62
   257
176
     1
 90
        1
176
     1
 90
        1
176
     1
 40
1.0
176
     1
 90
        8
176
     1
 62
     7
176
     1
 40
1.0
176
     1
 90
        1
176
     1
 90
        6
176
     1
 90
        2
176
     1
 62
     7
176
     1
 90
        5
176
     1
 90
        0
176
     1
 90
        0
176
     1
290
     0
176
     1
 90
       13
176
     1
 40
0.0
176
     1
 90
        0
176
     1
290
     0
176
     1
290
     1
176
     1
290
     1
176
     1
290
     0
176
     1
290
     0
176
     1
290
     0
176
     1
290
     0
176
     1
290
     0
176
     1
290
     0
176
     1
 90
       50
176
     1
 40
0.0
176
     1
 40
1.0
176
     1
 90
        0
176
     1
 62
   178
420
        0
176
     1
 90
       50
176
     1
 90
        3
176
     1
 62
     5
420
      255
176
     1
290
     0
176
     1
 90
       50
176
     1
 90
       50
176
     1
 90
       50
176
     1
290
     0
176
     1
 90
       50
176
     1
 62
   256
176
     0
 40
1.0
176
     0
 90
        2
176
     1
  1
strokes_ogs.tif
176
     1
290
     0
176
     1
 40
1.0
176
     1
 40
1.0
176
     1
  0
VISUALSTYLE
  5
274
102
{ACAD_REACTORS
330
272
102
}
330
272
100
AcDbVisualStyle
  2
FlatWithEdges
 70
     1
177
     3
291
     1
 70
    58
 90
        2
176
     1
 90
        1
176
     1
 90
        1
176
     1
 90
        2
176
     1
 40
0.6
176
     1
 40
30.0
176
     1
 62
     7
420
 16777215
176
     1
 90
        1
176
     1
 90
        0
176
     1
 62
     7
176
     1
 62
   257
176
     1
 90
        1
176
     1
 90
        1
176
     1
 40
1.0
176
     1
 90
        0
176
     1
 62
   257
176
     1
 40
1.0
176
     1
 90
        1
176
     1
 90
        6
176
     1
 90
        2
176
     1
 62
     7
176
     1
 90
        5
176
     1
 90
        0
176
     1
 90
        0
176
     1
290
     0
176
     1
 90
       13
176
     1
 40
0.0
176
     1
 90
        0
176
     1
290
     0
176
     1
290
     1
176
     1
290
     1
176
     1
290
     0
176
     1
290
     0
176
     1
290
     0
176
     1
290
     0
176
     1
290
     0
176
     1
290
     0
176
     1
 90
       50
176
     1
 40
0.0
176
     1
 40
1.0
176
     1
 90
        0
176
     1
 62
   178
420
        0
176
     1
 90
       50
176
     1
 90
        3
176
     1
 62
     5
420
      255
176
     1
290
     0
176
     1
 90
       50
176
     1
 90
       50
176
     1
 90
       50
176
     1
290
     0
176
     1
 90
       50
176
     1
 62
   256
176
     0
 40
1.0
176
     0
 90
        2
176
     1
  1
strokes_ogs.tif
176
     1
290
     0
176
     1
 40
1.0
176
     1
 40
1.0
176
     1
  0
VISUALSTYLE
  5
275
102
{ACAD_REACTORS
330
272
102
}
330
272
100
AcDbVisualStyle
  2
Gouraud
 70
     2
177
     3
291
     1
 70
    58
 90
        2
176
     1
 90
        2
176
     1
 90
        1
176
     1
 90
        2
176
     1
 40
0.6
176
     1
 40
30.0
176
     1
 62
     7
420
 16777215
176
     1
 90
        0
176
     1
 90
        0
176
     1
 62
     7
176
     1
 62
   257
176
     1
 90
        1
176
     1
 90
        1
176
     1
 40
1.0
176
     1
 90
        0
176
     1
 62
     7
176
     1
 40
1.0
176
     1
 90
        1
176
     1
 90
        6
176
     1
 90
        2
176
     1
 62
     7
176
     1
 90
        5
176
     1
 90
        0
176
     1
 90
        0
176
     1
290
     0
176
     1
 90
       13
176
     1
 40
0.0
176
     1
 90
        0
176
     1
290
     0
176
     1
290
     1
176
     1
290
     1
176
     1
290
     0
176
     1
290
     0
176
     1
290
     0
176
     1
290
     0
176
     1
290
     0
176
     1
290
     0
176
     1
 90
       50
176
     1
 40
0.0
176
     1
 40
1.0
176
     1
 90
        0
176
     1
 62
   178
420
        0
176
     1
 90
       50
176
     1
 90
        3
176
     1
 62
     5
420
      255
176
     1
290
     0
176
     1
 90
       50
176
     1
 90
       50
176
     1
 90
       50
176
     1
290
     0
176
     1
 90
       50
176
     1
 62
   256
176
     0
 40
1.0
176
     0
 90
        2
176
     1
  1
strokes_ogs.tif
176
     1
290
     0
176
     1
 40
1.0
176
     1
 40
1.0
176
     1
  0
VISUALSTYLE
  5
276
102
{ACAD_REACTORS
330
272
102
}
330
272
100
AcDbVisualStyle
  2
GouraudWithEdges
 70
     3
177
     3
291
     1
 70
    58
 90
        2
176
     1
 90
        2
176
     1
 90
        1
176
     1
 90
        2
176
     1
 40
0.6
176
     1
 40
30.0
176
     1
 62
     7
420
 16777215
176
     1
 90
        1
176
     1
 90
        0
176
     1
 62
     7
176
     1
 62
   257
176
     1
 90
        1
176
     1
 90
        1
176
     1
 40
1.0
176
     1
 90
        0
176
     1
 62
   257
176
     1
 40
1.0
176
     1
 90
        1
176
     1
 90
        6
176
     1
 90
        2
176
     1
 62
     7
176
     1
 90
        5
176
     1
 90
        0
176
     1
 90
        0
176
     1
290
     0
176
     1
 90
       13
176
     1
 40
0.0
176
     1
 90
        0
176
     1
290
     0
176
     1
290
     1
176
     1
290
     1
176
     1
290
     0
176
     1
290
     0
176
     1
290
     0
176
     1
290
     0
176
     1
290
     0
176
     1
290
     0
176
     1
 90
       50
176
     1
 40
0.0
176
     1
 40
1.0
176
     1
 90
        0
176
     1
 62
   178
420
        0
176
     1
 90
       50
176
     1
 90
        3
176
     1
 62
     5
420
      255
176
     1
290
     0
176
     1
 90
       50
176
     1
 90
       50
176
     1
 90
       50
176
     1
290
     0
176
     1
 90
       50
176
     1
 62
   256
176
     0
 40
1.0
176
     0
 90
        2
176
     1
  1
strokes_ogs.tif
176
     1
290
     0
176
     1
 40
1.0
176
     1
 40
1.0
176
     1
  0
VISUALSTYLE
  5
279
102
{ACAD_REACTORS
330
272
102
}
330
272
100
AcDbVisualStyle
  2
Hidden
 70
     6
177
     3
291
     0
 70
    58
 90
        1
176
     1
 90
        2
176
     1
 90
        2
176
     1
 90
        0
176
     1
 40
0.6
176
     1
 40
30.0
176
     1
 62
     7
420
 16777215
176
     1
 90
        2
176
     1
 90
        2
176
     1
 62
     7
176
     1
 62
   257
176
     1
 90
        2
176
     1
 90
        1
176
     1
 40
40.0
176
     1
 90
        0
176
     1
 62
   257
176
     1
 40
1.0
176
     1
 90
        1
176
     1
 90
        6
176
     1
 90
        2
176
     1
 62
     7
176
     1
 90
        3
176
     1
 90
        0
176
     1
 90
        0
176
     1
290
     0
176
     1
 90
        1
176
     1
 40
0.0
176
     1
 90
        0
176
     1
290
     0
176
     1
290
     1
176
     1
290
     1
176
     1
290
     0
176
     1
290
     0
176
     1
290
     0
176
     1
290
     0
176
     1
290
     0
176
     1
290
     0
176
     1
 90
       50
176
     1
 40
0.0
176
     1
 40
1.0
176
     1
 90
        0
176
     1
 62
   178
420
        0
176
     1
 90
       50
176
     1
 90
        3
176
     1
 62
     5
420
      255
176
     1
290
     0
176
     1
 90
       50
176
     1
 90
       50
176
     1
 90
       50
176
     1
290
     0
176
     1
 90
       50
176
     1
 62
   256
176
     0
 40
1.0
176
     0
 90
        2
176
     1
  1
strokes_ogs.tif
176
     1
290
     0
176
     1
 40
1.0
176
     1
 40
1.0
176
     1
  0
VISUALSTYLE
  5
283
102
{ACAD_REACTORS
330
272
102
}
330
272
100
AcDbVisualStyle
  2
JitterOff
 70
    20
177
     3
291
     1
 70
    58
 90
        2
176
     0
 90
        2
176
     0
 90
        0
176
     0
 90
        0
176
     0
 40
0.6
176
     0
 40
30.0
176
     0
 62
     7
420
 16777215
176
     0
 90
        1
176
     0
 90
        4
176
     0
 62
     7
176
     0
 62
   257
176
     0
 90
        1
176
     0
 90
        1
176
     0
 40
1.0
176
     0
 90
       10
176
     2
 62
     7
176
     0
 40
1.0
176
     0
 90
        1
176
     0
 90
        6
176
     0
 90
        2
176
     0
 62
     7
176
     0
 90
        5
176
     0
 90
        0
176
     0
 90
        0
176
     0
290
     0
176
     0
 90
        1
176
     0
 40
0.0
176
     0
 90
        0
176
     0
290
     0
176
     0
290
     1
176
     0
290
     1
176
     0
290
     0
176
     0
290
     0
176
     0
290
     0
176
     0
290
     0
176
     0
290
     0
176
     0
290
     0
176
     0
 90
       50
176
     0
 40
0.0
176
     0
 40
1.0
176
     0
 90
        0
176
     0
 62
   178
420
        0
176
     0
 90
       50
176
     0
 90
        3
176
     0
 62
     5
420
      255
176
     0
290
     0
176
     0
 90
       50
176
     0
 90
       50
176
     0
 90
       50
176
     0
290
     0
176
     0
 90
       50
176
     0
 62
   256
176
     0
 40
1.0
176
     0
 90
        2
176
     0
  1
strokes_ogs.tif
176
     0
290
     0
176
     0
 40
1.0
176
     0
 40
1.0
176
     0
  0
VISUALSTYLE
  5
280
102
{ACAD_REACTORS
330
272
102
}
330
272
100
AcDbVisualStyle
  2
Linepattern
 70
    14
177
     3
291
     1
 70
    58
 90
        2
176
     1
 90
        2
176
     1
 90
        0
176
     1
 90
        0
176
     1
 40
0.6
176
     1
 40
30.0
176
     1
 62
     7
420
 16777215
176
     1
 90
        1
176
     1
 90
        4
176
     1
 62
     7
176
     1
 62
   257
176
     1
 90
        7
176
     1
 90
        7
176
     1
 40
1.0
176
     1
 90
        8
176
     1
 62
     7
176
     1
 40
1.0
176
     1
 90
        1
176
     1
 90
        6
176
     1
 90
        2
176
     1
 62
     7
176
     1
 90
        5
176
     1
 90
        0
176
     1
 90
        0
176
     1
290
     0
176
     1
 90
        1
176
     1
 40
0.0
176
     1
 90
        0
176
     1
290
     0
176
     1
290
     1
176
     1
290
     1
176
     1
290
     0
176
     1
290
     0
176
     1
290
     0
176
     1
290
     0
176
     1
290
     0
176
     1
290
     0
176
     1
 90
       50
176
     1
 40
0.0
176
     1
 40
1.0
176
     1
 90
        0
176
     1
 62
   178
420
        0
176
     1
 90
       50
176
     1
 90
        3
176
     1
 62
     5
420
      255
176
     1
290
     0
176
     1
 90
       50
176
     1
 90
       50
176
     1
 90
       50
176
     1
290
     0
176
     1
 90
       50
176
     1
 62
   256
176
     0
 40
1.0
176
     0
 90
        2
176
     1
  1
strokes_ogs.tif
176
     1
290
     0
176
     1
 40
1.0
176
     1
 40
1.0
176
     1
  0
VISUALSTYLE
  5
284
102
{ACAD_REACTORS
330
272
102
}
330
272
100
AcDbVisualStyle
  2
OverhangOff
 70
    21
177
     3
291
     1
 70
    58
 90
        2
176
     0
 90
        2
176
     0
 90
        0
176
     0
 90
        0
176
     0
 40
0.6
176
     0
 40
30.0
176
     0
 62
     7
420
 16777215
176
     0
 90
        1
176
     0
 90
        4
176
     0
 62
     7
176
     0
 62
   257
176
     0
 90
        1
176
     0
 90
        1
176
     0
 40
1.0
176
     0
 90
        9
176
     2
 62
     7
176
     0
 40
1.0
176
     0
 90
        1
176
     0
 90
        6
176
     0
 90
        2
176
     0
 62
     7
176
     0
 90
        5
176
     0
 90
        0
176
     0
 90
        0
176
     0
290
     0
176
     0
 90
        1
176
     0
 40
0.0
176
     0
 90
        0
176
     0
290
     0
176
     0
290
     1
176
     0
290
     1
176
     0
290
     0
176
     0
290
     0
176
     0
290
     0
176
     0
290
     0
176
     0
290
     0
176
     0
290
     0
176
     0
 90
       50
176
     0
 40
0.0
176
     0
 40
1.0
176
     0
 90
        0
176
     0
 62
   178
420
        0
176
     0
 90
       50
176
     0
 90
        3
176
     0
 62
     5
420
      255
176
     0
290
     0
176
     0
 90
       50
176
     0
 90
       50
176
     0
 90
       50
176
     0
290
     0
176
     0
 90
       50
176
     0
 62
   256
176
     0
 40
1.0
176
     0
 90
        2
176
     0
  1
strokes_ogs.tif
176
     0
290
     0
176
     0
 40
1.0
176
     0
 40
1.0
176
     0
  0
VISUALSTYLE
  5
27B
102
{ACAD_REACTORS
330
272
102
}
330
272
100
AcDbVisualStyle
  2
Realistic
 70
     8
177
     3
291
     0
 70
    58
 90
        2
176
     1
 90
        3
176
     1
 90
        0
176
     1
 90
        2
176
     1
 40
0.6
176
     1
 40
30.0
176
     1
 62
     7
420
 16777215
176
     1
 90
        0
176
     1
 90
        0
176
     1
 62
     7
176
     1
 62
   257
176
     1
 90
        1
176
     1
 90
        1
176
     1
 40
1.0
176
     1
 90
        8
176
     1
 62
   257
176
     1
 40
1.0
176
     1
 90
        1
176
     1
 90
        6
176
     1
 90
        2
176
     1
 62
     7
176
     1
 90
        3
176
     1
 90
        0
176
     1
 90
        0
176
     1
290
     0
176
     1
 90
       13
176
     1
 40
0.0
176
     1
 90
        0
176
     1
290
     0
176
     1
290
     1
176
     1
290
     1
176
     1
290
     0
176
     1
290
     0
176
     1
290
     0
176
     1
290
     0
176
     1
290
     0
176
     1
290
     0
176
     1
 90
       50
176
     1
 40
0.0
176
     1
 40
1.0
176
     1
 90
        0
176
     1
 62
   178
420
        0
176
     1
 90
       50
176
     1
 90
        3
176
     1
 62
     5
420
      255
176
     1
290
     0
176
     1
 90
       50
176
     1
 90
       50
176
     1
 90
       50
176
     1
290
     0
176
     1
 90
       50
176
     1
 62
   256
176
     0
 40
1.0
176
     0
 90
        2
176
     1
  1
strokes_ogs.tif
176
     1
290
     0
176
     1
 40
1.0
176
     1
 40
1.0
176
     1
  0
VISUALSTYLE
  5
28A
102
{ACAD_REACTORS
330
272
102
}
330
272
100
AcDbVisualStyle
  2
Shaded
 70
    27
177
     3
291
     0
 70
    58
 90
        2
176
     1
 90
        2
176
     1
 90
        1
176
     1
 90
        2
176
     1
 40
0.6
176
     1
 40
30.0
176
     1
 62
     7
420
 16777215
176
     1
 90
        0
176
     1
 90
        4
176
     1
 62
     7
176
     1
 62
   257
176
     1
 90
        1
176
     1
 90
        1
176
     1
 40
1.0
176
     1
 90
        8
176
     1
 62
   257
176
     1
 40
1.0
176
     1
 90
        1
176
     1
 90
        6
176
     1
 90
        2
176
     1
 62
     8
420
  7895160
176
     1
 90
        3
176
     1
 90
        0
176
     1
 90
        0
176
     1
290
     0
176
     1
 90
        5
176
     1
 40
0.0
176
     1
 90
        0
176
     1
290
     0
176
     1
290
     1
176
     1
290
     1
176
     1
290
     0
176
     1
290
     0
176
     1
290
     0
176
     1
290
     0
176
     1
290
     0
176
     1
290
     0
176
     1
 90
       50
176
     1
 40
0.0
176
     1
 40
1.0
176
     1
 90
        0
176
     1
 62
   178
420
        0
176
     1
 90
       50
176
     1
 90
        3
176
     1
 62
     5
420
      255
176
     1
290
     0
176
     1
 90
       50
176
     1
 90
       50
176
     1
 90
       50
176
     1
290
     0
176
     1
 90
       50
176
     1
 62
   256
176
     0
 40
1.0
176
     0
 90
        2
176
     1
  1
strokes_ogs.tif
176
     1
290
     0
176
     1
 40
1.0
176
     1
 40
1.0
176
     1
  0
VISUALSTYLE
  5
289
102
{ACAD_REACTORS
330
272
102
}
330
272
100
AcDbVisualStyle
  2
Shaded with edges
 70
    26
177
     3
291
     0
 70
    58
 90
        2
176
     1
 90
        2
176
     1
 90
        1
176
     1
 90
        2
176
     1
 40
0.6
176
     1
 40
30.0
176
     1
 62
     7
420
 16777215
176
     1
 90
        1
176
     1
 90
       10
176
     1
 62
     7
176
     1
 62
   257
176
     1
 90
        2
176
     1
 90
        1
176
     1
 40
1.0
176
     1
 90
        8
176
     1
 62
   257
176
     1
 40
1.0
176
     1
 90
        1
176
     1
 90
        6
176
     1
 90
        2
176
     1
 62
     7
176
     1
 90
        3
176
     1
 90
        0
176
     1
 90
        0
176
     1
290
     0
176
     1
 90
        5
176
     1
 40
0.0
176
     1
 90
        0
176
     1
290
     0
176
     1
290
     1
176
     1
290
     1
176
     1
290
     0
176
     1
290
     0
176
     1
290
     0
176
     1
290
     0
176
     1
290
     0
176
     1
290
     0
176
     1
 90
       50
176
     1
 40
0.0
176
     1
 40
1.0
176
     1
 90
        0
176
     1
 62
   178
420
        0
176
     1
 90
       50
176
     1
 90
        3
176
     1
 62
     5
420
      255
176
     1
290
     0
176
     1
 90
       50
176
     1
 90
       50
176
     1
 90
       50
176
     1
290
     0
176
     1
 90
       50
176
     1
 62
   256
176
     0
 40
1.0
176
     0
 90
        2
176
     1
  1
strokes_ogs.tif
176
     1
290
     0
176
     1
 40
1.0
176
     1
 40
1.0
176
     1
  0
VISUALSTYLE
  5
286
102
{ACAD_REACTORS
330
272
102
}
330
272
100
AcDbVisualStyle
  2
Shades of Gray
 70
    23
177
     3
291
     0
 70
    58
 90
        2
176
     1
 90
        2
176
     1
 90
        3
176
     1
 90
        0
176
     1
 40
0.6
176
     1
 40
30.0
176
     1
 62
     7
420
 16777215
176
     1
 90
        2
176
     1
 90
        2
176
     1
 62
     7
176
     1
 62
     7
176
     1
 90
        1
176
     1
 90
        1
176
     1
 40
40.0
176
     1
 90
        8
176
     1
 62
     7
176
     1
 40
1.0
176
     1
 90
        1
176
     1
 90
        6
176
     1
 90
        2
176
     1
 62
     7
176
     1
 90
        3
176
     1
 90
        0
176
     1
 90
        0
176
     1
290
     0
176
     1
 90
        1
176
     1
 40
0.0
176
     1
 90
        0
176
     1
290
     0
176
     1
290
     1
176
     1
290
     1
176
     1
290
     0
176
     1
290
     0
176
     1
290
     0
176
     1
290
     0
176
     1
290
     0
176
     1
290
     0
176
     1
 90
       50
176
     1
 40
0.0
176
     1
 40
1.0
176
     1
 90
        0
176
     1
 62
   178
420
        0
176
     1
 90
       50
176
     1
 90
        3
176
     1
 62
     5
420
      255
176
     1
290
     0
176
     1
 90
       50
176
     1
 90
       50
176
     1
 90
       50
176
     1
290
     0
176
     1
 90
       50
176
     1
 62
   256
176
     0
 40
1.0
176
     0
 90
        2
176
     1
  1
strokes_ogs.tif
176
     1
290
     0
176
     1
 40
1.0
176
     1
 40
1.0
176
     1
  0
VISUALSTYLE
  5
287
102
{ACAD_REACTORS
330
272
102
}
330
272
100
AcDbVisualStyle
  2
Sketchy
 70
    24
177
     3
291
     0
 70
    58
 90
        1
176
     1
 90
        2
176
     1
 90
        2
176
     1
 90
        0
176
     1
 40
0.6
176
     1
 40
30.0
176
     1
 62
     7
420
 16777215
176
     1
 90
        2
176
     1
 90
        2
176
     1
 62
     7
176
     1
 62
     7
176
     1
 90
        1
176
     1
 90
        1
176
     1
 40
40.0
176
     1
 90
       11
176
     1
 62
     7
176
     1
 40
1.0
176
     1
 90
        1
176
     1
 90
        6
176
     1
 90
        2
176
     1
 62
     7
176
     1
 90
        6
176
     1
 90
        0
176
     1
 90
        0
176
     1
290
     0
176
     1
 90
        1
176
     1
 40
0.0
176
     1
 90
        0
176
     1
290
     0
176
     1
290
     1
176
     1
290
     1
176
     1
290
     0
176
     1
290
     0
176
     1
290
     0
176
     1
290
     0
176
     1
290
     0
176
     1
290
     0
176
     1
 90
       50
176
     1
 40
0.0
176
     1
 40
1.0
176
     1
 90
        0
176
     1
 62
   178
420
        0
176
     1
 90
       50
176
     1
 90
        3
176
     1
 62
     5
420
      255
176
     1
290
     0
176
     1
 90
       50
176
     1
 90
       50
176
     1
 90
       50
176
     1
290
     0
176
     1
 90
       50
176
     1
 62
   256
176
     0
 40
1.0
176
     0
 90
        2
176
     1
  1
strokes_ogs.tif
176
     1
290
     0
176
     1
 40
1.0
176
     1
 40
1.0
176
     1
  0
VISUALSTYLE
  5
27F
102
{ACAD_REACTORS
330
272
102
}
330
272
100
AcDbVisualStyle
  2
Thicken
 70
    13
177
     3
291
     1
 70
    58
 90
        2
176
     1
 90
        2
176
     1
 90
        0
176
     1
 90
        0
176
     1
 40
0.6
176
     1
 40
30.0
176
     1
 62
     7
420
 16777215
176
     1
 90
        1
176
     1
 90
        4
176
     1
 62
     7
176
     1
 62
   257
176
     1
 90
        1
176
     1
 90
        1
176
     1
 40
1.0
176
     1
 90
       12
176
     1
 62
     7
176
     1
 40
1.0
176
     1
 90
        1
176
     1
 90
        6
176
     1
 90
        2
176
     1
 62
     7
176
     1
 90
        5
176
     1
 90
        0
176
     1
 90
        0
176
     1
290
     0
176
     1
 90
        1
176
     1
 40
0.0
176
     1
 90
        0
176
     1
290
     0
176
     1
290
     1
176
     1
290
     1
176
     1
290
     0
176
     1
290
     0
176
     1
290
     0
176
     1
290
     0
176
     1
290
     0
176
     1
290
     0
176
     1
 90
       50
176
     1
 40
0.0
176
     1
 40
1.0
176
     1
 90
        0
176
     1
 62
   178
420
        0
176
     1
 90
       50
176
     1
 90
        3
176
     1
 62
     5
420
      255
176
     1
290
     0
176
     1
 90
       50
176
     1
 90
       50
176
     1
 90
       50
176
     1
290
     0
176
     1
 90
       50
176
     1
 62
   256
176
     0
 40
1.0
176
     0
 90
        2
176
     1
  1
strokes_ogs.tif
176
     1
290
     0
176
     1
 40
1.0
176
     1
 40
1.0
176
     1
  0
VISUALSTYLE
  5
278
102
{ACAD_REACTORS
330
272
102
}
330
272
100
AcDbVisualStyle
  2
Wireframe
 70
     5
177
     3
291
     0
 70
    58
 90
        0
176
     1
 90
        2
176
     1
 90
        0
176
     1
 90
        0
176
     1
 40
0.6
176
     1
 40
30.0
176
     1
 62
     7
420
 16777215
176
     1
 90
        1
176
     1
 90
        4
176
     1
 62
     7
176
     1
 62
   257
176
     1
 90
        1
176
     1
 90
        1
176
     1
 40
1.0
176
     1
 90
        0
176
     1
 62
   257
176
     1
 40
1.0
176
     1
 90
        1
176
     1
 90
        6
176
     1
 90
        2
176
     1
 62
     7
176
     1
 90
        3
176
     1
 90
        0
176
     1
 90
        0
176
     1
290
     0
176
     1
 90
        1
176
     1
 40
0.0
176
     1
 90
        0
176
     1
290
     0
176
     1
290
     1
176
     1
290
     1
176
     1
290
     0
176
     1
290
     0
176
     1
290
     0
176
     1
290
     0
176
     1
290
     0
176
     1
290
     0
176
     1
 90
       50
176
     1
 40
0.0
176
     1
 40
1.0
176
     1
 90
        0
176
     1
 62
   178
420
        0
176
     1
 90
       50
176
     1
 90
        3
176
     1
 62
     5
420
      255
176
     1
290
     0
176
     1
 90
       50
176
     1
 90
       50
176
     1
 90
       50
176
     1
290
     0
176
     1
 90
       50
176
     1
 62
   256
176
     0
 40
1.0
176
     0
 90
        2
176
     1
  1
strokes_ogs.tif
176
     1
290
     0
176
     1
 40
1.0
176
     1
 40
1.0
176
     1
  0
VISUALSTYLE
  5
288
102
{ACAD_REACTORS
330
272
102
}
330
272
100
AcDbVisualStyle
  2
X-Ray
 70
    25
177
     3
291
     0
 70
    58
 90
        2
176
     1
 90
        2
176
     1
 90
        1
176
     1
 90
        1
176
     1
 40
0.5
176
     1
 40
30.0
176
     1
 62
     7
420
 16777215
176
     1
 90
        1
176
     1
 90
        0
176
     1
 62
     7
176
     1
 62
   257
176
     1
 90
        1
176
     1
 90
        1
176
     1
 40
1.0
176
     1
 90
        8
176
     1
 62
     7
176
     1
 40
1.0
176
     1
 90
        1
176
     1
 90
        6
176
     1
 90
        2
176
     1
 62
     7
176
     1
 90
        3
176
     1
 90
        0
176
     1
 90
        0
176
     1
290
     0
176
     1
 90
       13
176
     1
 40
0.0
176
     1
 90
        0
176
     1
290
     0
176
     1
290
     1
176
     1
290
     1
176
     1
290
     0
176
     1
290
     0
176
     1
290
     0
176
     1
290
     0
176
     1
290
     0
176
     1
290
     0
176
     1
 90
       50
176
     1
 40
0.0
176
     1
 40
1.0
176
     1
 90
        0
176
     1
 62
   178
420
        0
176
     1
 90
       50
176
     1
 90
        3
176
     1
 62
     5
420
      255
176
     1
290
     0
176
     1
 90
       50
176
     1
 90
       50
176
     1
 90
       50
176
     1
290
     0
176
     1
 90
       50
176
     1
 62
   256
176
     0
 40
1.0
176
     0
 90
        2
176
     1
  1
strokes_ogs.tif
176
     1
290
     0
176
     1
 40
1.0
176
     1
 40
1.0
176
     1
  0
DICTIONARYVAR
  5
2F4
102
{ACAD_REACTORS
330
2F3
102
}
330
2F3
100
DictionaryVariables
280
     0
  1
1:1
  0
XRECORD
  5
2B4
102
{ACAD_REACTORS
330
2B3
102
}
330
2B3
100
AcDbXrecord
280
     1
290
     1
  0
XRECORD
  5
2B5
102
{ACAD_REACTORS
330
2B3
102
}
330
2B3
100
AcDbXrecord
280
     1
290
     1
  0
XRECORD
  5
2B6
102
{ACAD_REACTORS
330
2B3
102
}
330
2B3
100
AcDbXrecord
280
     1
290
     1
  0
XRECORD
  5
2B7
102
{ACAD_REACTORS
330
2B3
102
}
330
2B3
100
AcDbXrecord
280
     1
290
     1
  0
XRECORD
  5
2B8
102
{ACAD_REACTORS
330
2B3
102
}
330
2B3
100
AcDbXrecord
280
     1
1000
auto
  0
XRECORD
  5
2B9
102
{ACAD_REACTORS
330
2B3
102
}
330
2B3
100
AcDbXrecord
280
     1
1000
auto
  0
XRECORD
  5
2BA
102
{ACAD_REACTORS
330
2B3
102
}
330
2B3
100
AcDbXrecord
280
     1
1000
auto
  0
XRECORD
  5
2BB
102
{ACAD_REACTORS
330
2B3
102
}
330
2B3
100
AcDbXrecord
280
     1
1000
auto
  0
XRECORD
  5
2BC
102
{ACAD_REACTORS
330
2B3
102
}
330
2B3
100
AcDbXrecord
280
     1
1000
auto
  0
XRECORD
  5
2BD
102
{ACAD_REACTORS
330
2B3
102
}
330
2B3
100
AcDbXrecord
280
     1
1000
auto
  0
XRECORD
  5
2BE
102
{ACAD_REACTORS
330
2B3
102
}
330
2B3
100
AcDbXrecord
280
     1
1000
auto
  0
XRECORD
  5
2BF
102
{ACAD_REACTORS
330
2B3
102
}
330
2B3
100
AcDbXrecord
280
     1
1000
auto
  0
XRECORD
  5
2C0
102
{ACAD_REACTORS
330
2B3
102
}
330
2B3
100
AcDbXrecord
280
     1
290
     0
  0
XRECORD
  5
2C1
102
{ACAD_REACTORS
330
2B3
102
}
330
2B3
100
AcDbXrecord
280
     1
290
     0
  0
XRECORD
  5
2C2
102
{ACAD_REACTORS
330
2B3
102
}
330
2B3
100
AcDbXrecord
280
     1
290
     0
  0
XRECORD
  5
2C3
102
{ACAD_REACTORS
330
2B3
102
}
330
2B3
100
AcDbXrecord
280
     1
290
     0
  0
XRECORD
  5
2C4
102
{ACAD_REACTORS
330
2B3
102
}
330
2B3
100
AcDbXrecord
280
     1
 90
        0
  0
XRECORD
  5
2C5
102
{ACAD_REACTORS
330
2B3
102
}
330
2B3
100
AcDbXrecord
280
     1
 90
        0
  0
XRECORD
  5
2C6
102
{ACAD_REACTORS
330
2B3
102
}
330
2B3
100
AcDbXrecord
280
     1
 90
        0
  0
XRECORD
  5
2C7
102
{ACAD_REACTORS
330
2B3
102
}
330
2B3
100
AcDbXrecord
280
     1
 90
        0
  0
XRECORD
  5
2C8
102
{ACAD_REACTORS
330
2B3
102
}
330
2B3
100
AcDbXrecord
280
     1
1000
auto
  0
XRECORD
  5
2C9
102
{ACAD_REACTORS
330
2B3
102
}
330
2B3
100
AcDbXrecord
280
     1
1000
auto
  0
XRECORD
  5
2CA
102
{ACAD_REACTORS
330
2B3
102
}
330
2B3
100
AcDbXrecord
280
     1
1000
auto
  0
XRECORD
  5
2CB
102
{ACAD_REACTORS
330
2B3
102
}
330
2B3
100
AcDbXrecord
280
     1
1000
auto
  0
XRECORD
  5
2CC
102
{ACAD_REACTORS
330
2B3
102
}
330
2B3
100
AcDbXrecord
280
     1
1000
auto
  0
XRECORD
  5
2CD
102
{ACAD_REACTORS
330
2B3
102
}
330
2B3
100
AcDbXrecord
280
     1
1000
auto
  0
XRECORD
  5
2CE
102
{ACAD_REACTORS
330
2B3
102
}
330
2B3
100
AcDbXrecord
280
     1
1000
auto
  0
XRECORD
  5
2CF
102
{ACAD_REACTORS
330
2B3
102
}
330
2B3
100
AcDbXrecord
280
     1
1000
auto
  0
XRECORD
  5
2D0
102
{ACAD_REACTORS
330
2B3
102
}
330
2B3
100
AcDbXrecord
280
     1
 90
        1
  0
XRECORD
  5
2D1
102
{ACAD_REACTORS
330
2B3
102
}
330
2B3
100
AcDbXrecord
280
     1
 40
0.0
  0
XRECORD
  5
2D2
102
{ACAD_REACTORS
330
2B3
102
}
330
2B3
100
AcDbXrecord
280
     1
 40
0.0
  0
XRECORD
  5
2D3
102
{ACAD_REACTORS
330
2B3
102
}
330
2B3
100
AcDbXrecord
280
     1
 40
0.0
  0
XRECORD
  5
2D4
102
{ACAD_REACTORS
330
2B3
102
}
330
2B3
100
AcDbXrecord
280
     1
 40
0.0
  0
XRECORD
  5
2D5
102
{ACAD_REACTORS
330
2B3
102
}
330
2B3
100
AcDbXrecord
280
     1
290
     0
  0
XRECORD
  5
2D6
102
{ACAD_REACTORS
330
2B3
102
}
330
2B3
100
AcDbXrecord
280
     1
 90
        1
  0
XRECORD
  5
2D7
102
{ACAD_REACTORS
330
2B3
102
}
330
2B3
100
AcDbXrecord
280
     1
 40
0.0
  0
XRECORD
  5
2D8
102
{ACAD_REACTORS
330
2B3
102
}
330
2B3
100
AcDbXrecord
280
     1
 40
0.0
  0
XRECORD
  5
2D9
102
{ACAD_REACTORS
330
2B3
102
}
330
2B3
100
AcDbXrecord
280
     1
1000
Portrait
  0
XRECORD
  5
2DA
102
{ACAD_REACTORS
330
2B3
102
}
330
2B3
100
AcDbXrecord
280
     1
 40
297.0
  0
XRECORD
  5
2DB
102
{ACAD_REACTORS
330
2B3
102
}
330
2B3
100
AcDbXrecord
280
     1
 40
210.0
  0
XRECORD
  5
2DC
102
{ACAD_REACTORS
330
2B3
102
}
330
2B3
100
AcDbXrecord
280
     1
1000
1:1
  0
XRECORD
  5
2DD
102
{ACAD_REACTORS
330
2B3
102
}
330
2B3
100
AcDbXrecord
280
     1
290
     1
  0
XRECORD
  5
2DE
102
{ACAD_REACTORS
330
2B3
102
}
330
2B3
100
AcDbXrecord
280
     1
 90
        4
  0
ENDSEC
  0
EOF
