  0
SECTION
  2
HEADER
  9
$ACADVER
  1
AC1027
  9
$ACADMAINTVER
 70
     8
  9
$DWGCODEPAGE
  3
ANSI_1252
  9
$REQUIREDVERSIONS
160
                 0
  9
$INSBASE
 10
0.0
 20
0.0
 30
0.0
  9
$EXTMIN
 10
1.000000000000000E+20
 20
1.000000000000000E+20
 30
1.000000000000000E+20
  9
$EXTMAX
 10
-1.000000000000000E+20
 20
-1.000000000000000E+20
 30
-1.000000000000000E+20
  9
$LIMMIN
 10
0.0
 20
0.0
  9
$LIMMAX
 10
12.0
 20
9.0
  9
$ORTHOMODE
 70
     0
  9
$REGENMODE
 70
     1
  9
$FILLMODE
 70
     1
  9
$QTEXTMODE
 70
     0
  9
$MIRRTEXT
 70
     1
  9
$LTSCALE
 40
1.0
  9
$ATTMODE
 70
     1
  9
$TEXTSIZE
 40
0.2
  9
$TRACEWID
 40
0.05
  9
$TEXTSTYLE
  7
Standard
  9
$CLAYER
  8
0
  9
$CELTYPE
  6
ByLayer
  9
$CECOLOR
 62
   178
  9
$CELTSCALE
 40
1.0
  9
$DISPSILH
 70
     0
  9
$DIMSCALE
 40
1.0
  9
$DIMASZ
 40
2.5
  9
$DIMEXO
 40
0.625
  9
$DIMDLI
 40
0.38
  9
$DIMRND
 40
0.0
  9
$DIMDLE
 40
0.0
  9
$DIMEXE
 40
1.25
  9
$DIMTP
 40
0.0
  9
$DIMTM
 40
0.0
  9
$DIMTXT
 40
2.5
  9
$DIMCEN
 40
0.09
  9
$DIMTSZ
 40
0.0
  9
$DIMTOL
 70
     0
  9
$DIMLIM
 70
     0
  9
$DIMTIH
 70
     1
  9
$DIMTOH
 70
     1
  9
$DIMSE1
 70
     0
  9
$DIMSE2
 70
     0
  9
$DIMTAD
 70
     0
  9
$DIMZIN
 70
     8
  9
$DIMBLK
  1

  9
$DIMASO
 70
     1
  9
$DIMSHO
 70
     1
  9
$DIMPOST
  1

  9
$DIMAPOST
  1

  9
$DIMALT
 70
     0
  9
$DIMALTD
 70
     2
  9
$DIMALTF
 40
25.4
  9
$DIMLFAC
 40
1.0
  9
$DIMTOFL
 70
     0
  9
$DIMTVP
 40
0.0
  9
$DIMTIX
 70
     0
  9
$DIMSOXD
 70
     0
  9
$DIMSAH
 70
     0
  9
$DIMBLK1
  1

  9
$DIMBLK2
  1

  9
$DIMSTYLE
  2
Standard
  9
$DIMCLRD
 70
   178
  9
$DIMCLRE
 70
   178
  9
$DIMCLRT
 70
   178
  9
$DIMTFAC
 40
1.0
  9
$DIMGAP
 40
0.625
  9
$DIMJUST
 70
     0
  9
$DIMSD1
 70
     0
  9
$DIMSD2
 70
     0
  9
$DIMTOLJ
 70
     1
  9
$DIMTZIN
 70
     0
  9
$DIMALTZ
 70
     0
  9
$DIMALTTZ
 70
     0
  9
$DIMUPT
 70
     0
  9
$DIMDEC
 70
     4
  9
$DIMTDEC
 70
     4
  9
$DIMALTU
 70
     2
  9
$DIMALTTD
 70
     2
  9
$DIMTXSTY
  7
Standard
  9
$DIMAUNIT
 70
     0
  9
$DIMADEC
 70
     0
  9
$DIMALTRND
 40
0.0
  9
$DIMAZIN
 70
     2
  9
$DIMDSEP
 70
    46
  9
$DIMATFIT
 70
     3
  9
$DIMFRAC
 70
     0
  9
$DIMLDRBLK
  1

  9
$DIMLUNIT
 70
     2
  9
$DIMLWD
 70
    -2
  9
$DIMLWE
 70
    -2
  9
$DIMTMOVE
 70
     0
  9
$DIMFXL
 40
1.0
  9
$DIMFXLON
 70
     0
  9
$DIMJOGANG
 40
0.7853981633974483
  9
$DIMTFILL
 70
     0
  9
$DIMTFILLCLR
 70
     0
  9
$DIMARCSYM
 70
     0
  9
$DIMLTYPE
  6

  9
$DIMLTEX1
  6

  9
$DIMLTEX2
  6

  9
$DIMTXTDIRECTION
 70
     0
  9
$LUNITS
 70
     2
  9
$LUPREC
 70
     4
  9
$SKETCHINC
 40
0.1
  9
$FILLETRAD
 40
0.5
  9
$AUNITS
 70
     0
  9
$AUPREC
 70
     0
  9
$MENU
  1
.
  9
$ELEVATION
 40
0.0
  9
$PELEVATION
 40
0.0
  9
$THICKNESS
 40
0.0
  9
$LIMCHECK
 70
     0
  9
$CHAMFERA
 40
0.0
  9
$CHAMFERB
 40
0.0
  9
$CHAMFERC
 40
0.0
  9
$CHAMFERD
 40
0.0
  9
$SKPOLY
 70
     0
  9
$TDCREATE
 40
2456644.797164341
  9
$TDUCREATE
 40
2456644.755497685
  9
$TDUPDATE
 40
2456644.797164341
  9
$TDUUPDATE
 40
2456644.755497685
  9
$TDINDWG
 40
0.0000000116
  9
$TDUSRTIMER
 40
0.0000000116
  9
$USRTIMER
 70
     1
  9
$ANGBASE
 50
0.0
  9
$ANGDIR
 70
     0
  9
$PDMODE
 70
     0
  9
$PDSIZE
 40
0.0
  9
$PLINEWID
 40
0.0
  9
$SPLFRAME
 70
     0
  9
$SPLINETYPE
 70
     6
  9
$SPLINESEGS
 70
     8
  9
$HANDSEED
  5
410
  9
$SURFTAB1
 70
     6
  9
$SURFTAB2
 70
     6
  9
$SURFTYPE
 70
     6
  9
$SURFU
 70
     6
  9
$SURFV
 70
     6
  9
$UCSBASE
  2

  9
$UCSNAME
  2

  9
$UCSORG
 10
0.0
 20
0.0
 30
0.0
  9
$UCSXDIR
 10
1.0
 20
0.0
 30
0.0
  9
$UCSYDIR
 10
0.0
 20
1.0
 30
0.0
  9
$UCSORTHOREF
  2

  9
$UCSORTHOVIEW
 70
     0
  9
$UCSORGTOP
 10
0.0
 20
0.0
 30
0.0
  9
$UCSORGBOTTOM
 10
0.0
 20
0.0
 30
0.0
  9
$UCSORGLEFT
 10
0.0
 20
0.0
 30
0.0
  9
$UCSORGRIGHT
 10
0.0
 20
0.0
 30
0.0
  9
$UCSORGFRONT
 10
0.0
 20
0.0
 30
0.0
  9
$UCSORGBACK
 10
0.0
 20
0.0
 30
0.0
  9
$PUCSBASE
  2

  9
$PUCSNAME
  2

  9
$PUCSORG
 10
0.0
 20
0.0
 30
0.0
  9
$PUCSXDIR
 10
1.0
 20
0.0
 30
0.0
  9
$PUCSYDIR
 10
0.0
 20
1.0
 30
0.0
  9
$PUCSORTHOREF
  2

  9
$PUCSORTHOVIEW
 70
     0
  9
$PUCSORGTOP
 10
0.0
 20
0.0
 30
0.0
  9
$PUCSORGBOTTOM
 10
0.0
 20
0.0
 30
0.0
  9
$PUCSORGLEFT
 10
0.0
 20
0.0
 30
0.0
  9
$PUCSORGRIGHT
 10
0.0
 20
0.0
 30
0.0
  9
$PUCSORGFRONT
 10
0.0
 20
0.0
 30
0.0
  9
$PUCSORGBACK
 10
0.0
 20
0.0
 30
0.0
  9
$USERI1
 70
     0
  9
$USERI2
 70
     0
  9
$USERI3
 70
     0
  9
$USERI4
 70
     0
  9
$USERI5
 70
     0
  9
$USERR1
 40
0.0
  9
$USERR2
 40
0.0
  9
$USERR3
 40
0.0
  9
$USERR4
 40
0.0
  9
$USERR5
 40
0.0
  9
$WORLDVIEW
 70
     1
  9
$SHADEDGE
 70
     3
  9
$SHADEDIF
 70
    70
  9
$TILEMODE
 70
     1
  9
$MAXACTVP
 70
    64
  9
$PINSBASE
 10
0.0
 20
0.0
 30
0.0
  9
$PLIMCHECK
 70
     0
  9
$PEXTMIN
 10
1.000000000000000E+20
 20
1.000000000000000E+20
 30
1.000000000000000E+20
  9
$PEXTMAX
 10
-1.000000000000000E+20
 20
-1.000000000000000E+20
 30
-1.000000000000000E+20
  9
$PLIMMIN
 10
0.0
 20
0.0
  9
$PLIMMAX
 10
12.0
 20
9.0
  9
$UNITMODE
 70
     0
  9
$VISRETAIN
 70
     1
  9
$PLINEGEN
 70
     0
  9
$PSLTSCALE
 70
     1
  9
$TREEDEPTH
 70
  3020
  9
$CMLSTYLE
  2
Standard
  9
$CMLJUST
 70
     0
  9
$CMLSCALE
 40
1.0
  9
$PROXYGRAPHICS
 70
     1
  9
$MEASUREMENT
 70
     1
  9
$CELWEIGHT
370
    -1
  9
$ENDCAPS
280
     0
  9
$JOINSTYLE
280
     0
  9
$LWDISPLAY
290
     0
  9
$INSUNITS
 70
     0
  9
$HYPERLINKBASE
  1

  9
$STYLESHEET
  1

  9
$XEDIT
290
     1
  9
$CEPSNTYPE
380
     0
  9
$PSTYLEMODE
290
     1
  9
$FINGERPRINTGUID
  2
{3A258D09-2D40-7ED9-7F41-9E2B235EF45B}
  9
$VERSIONGUID
  2
{FAEB1C32-E019-11D5-929B-00C0DF256EC4}
  9
$EXTNAMES
290
     1
  9
$PSVPSCALE
 40
0.0
  9
$OLESTARTUP
290
     0
  9
$SORTENTS
280
   127
  9
$INDEXCTL
280
     0
  9
$HIDETEXT
280
     1
  9
$XCLIPFRAME
280
     2
  9
$HALOGAP
280
     0
  9
$OBSCOLOR
 70
   257
  9
$OBSLTYPE
280
     0
  9
$INTERSECTIONDISPLAY
280
     0
  9
$INTERSECTIONCOLOR
 70
   257
  9
$DIMASSOC
280
     2
  9
$PROJECTNAME
  1

  9
$CAMERADISPLAY
290
     0
  9
$LENSLENGTH
 40
50.0
  9
$CAMERAHEIGHT
 40
0.0
  9
$STEPSPERSEC
 40
2.0
  9
$STEPSIZE
 40
6.0
  9
$3DDWFPREC
 40
2.0
  9
$PSOLWIDTH
 40
0.25
  9
$PSOLHEIGHT
 40
4.0
  9
$LOFTANG1
 40
1.570796326794897
  9
$LOFTANG2
 40
1.570796326794897
  9
$LOFTMAG1
 40
0.0
  9
$LOFTMAG2
 40
0.0
  9
$LOFTPARAM
 70
     7
  9
$LOFTNORMALS
280
     1
  9
$LATITUDE
 40
37.795
  9
$LONGITUDE
 40
-122.394
  9
$NORTHDIRECTION
 40
0.0
  9
$TIMEZONE
 70
 -8000
  9
$LIGHTGLYPHDISPLAY
280
     1
  9
$TILEMODELIGHTSYNCH
280
     1
  9
$CMATERIAL
347
3A3
  9
$SOLIDHIST
280
     1
  9
$SHOWHIST
280
     1
  9
$DWFFRAME
280
     2
  9
$DGNFRAME
280
     2
  9
$REALWORLDSCALE
290
     1
  9
$INTERFERECOLOR
 62
   256
  9
$CSHADOW
280
     0
  9
$SHADOWPLANELOCATION
 40
0.0
  0
ENDSEC
  0
SECTION
  2
CLASSES
  0
CLASS
  1
ACDBDICTIONARYWDFLT
  2
AcDbDictionaryWithDefault
  3
ObjectDBX Classes
 90
        0
 91
        4
280
     0
281
     0
  0
CLASS
  1
VISUALSTYLE
  2
AcDbVisualStyle
  3
ObjectDBX Classes
 90
     4095
 91
        4
280
     0
281
     0
  0
CLASS
  1
MATERIAL
  2
AcDbMaterial
  3
ObjectDBX Classes
 90
     1153
 91
        4
280
     0
281
     0
  0
CLASS
  1
SCALE
  2
AcDbScale
  3
ObjectDBX Classes
 90
     1153
 91
        4
280
     0
281
     0
  0
CLASS
  1
SUN
  2
AcDbSun
  3
SCENEOE
 90
     1153
 91
        4
280
     0
281
     0
  0
CLASS
  1
DICTIONARYVAR
  2
AcDbDictionaryVar
  3
ObjectDBX Classes
 90
        0
 91
        4
280
     0
281
     0
  0
ENDSEC
  0
SECTION
  2
TABLES
  0
TABLE
  2
VPORT
  5
368
330
0
100
AcDbSymbolTable
 70
     1
  0
VPORT
  5
388
330
368
100
AcDbSymbolTableRecord
100
AcDbViewportTableRecord
  2
*Active
 70
     0
 10
0.0
 20
0.0
 11
1.0
 21
1.0
 12
10.42990654205607
 22
4.5
 13
0.0
 23
0.0
 14
0.5
 24
0.5
 15
0.5
 25
0.5
 16
0.0
 26
0.0
 36
1.0
 17
0.0
 27
0.0
 37
0.0
 40
9.0
 41
1.972972972850329
 42
50.0
 43
0.0
 44
0.0
 50
0.0
 51
0.0
 71
     0
 72
   100
 73
     1
 74
     3
 75
     0
 76
     0
 77
     0
 78
     0
281
     0
 65
     1
110
0.0
120
0.0
130
0.0
111
1.0
121
0.0
131
0.0
112
0.0
122
1.0
132
0.0
 79
     0
146
0.0
 60
     3
 61
     5
292
     1
282
     1
141
0.0
142
0.0
 63
   250
361
3C8
  0
ENDTAB
  0
TABLE
  2
LTYPE
  5
365
330
0
100
AcDbSymbolTable
 70
    19
  0
LTYPE
  5
373
330
365
100
AcDbSymbolTableRecord
100
AcDbLinetypeTableRecord
  2
ByBlock
 70
     0
  3

 72
    65
 73
     0
 40
0.0
  0
LTYPE
  5
374
330
365
100
AcDbSymbolTableRecord
100
AcDbLinetypeTableRecord
  2
ByLayer
 70
     0
  3

 72
    65
 73
     0
 40
0.0
  0
LTYPE
  5
375
330
365
100
AcDbSymbolTableRecord
100
AcDbLinetypeTableRecord
  2
Continuous
 70
     0
  3
Solid line
 72
    65
 73
     0
 40
0.0
  0
LTYPE
  5
3F7
330
365
100
AcDbSymbolTableRecord
100
AcDbLinetypeTableRecord
  2
BORDER
 70
     0
  3

 72
    65
 73
     6
 40
42.00000000000001
 49
12.0
 74
     0
 49
-6.0
 74
     0
 49
12.0
 74
     0
 49
-5.95
 74
     0
 49
0.1
 74
     0
 49
-5.95
 74
     0
  0
LTYPE
  5
3F8
330
365
100
AcDbSymbolTableRecord
100
AcDbLinetypeTableRecord
  2
BORDER2
 70
     0
  3

 72
    65
 73
     6
 40
21.0
 49
6.0
 74
     0
 49
-3.0
 74
     0
 49
6.0
 74
     0
 49
-2.95
 74
     0
 49
0.1
 74
     0
 49
-2.95
 74
     0
  0
LTYPE
  5
3F9
330
365
100
AcDbSymbolTableRecord
100
AcDbLinetypeTableRecord
  2
BORDERX2
 70
     0
  3

 72
    65
 73
     6
 40
84.0
 49
24.0
 74
     0
 49
-12.0
 74
     0
 49
24.0
 74
     0
 49
-11.95
 74
     0
 49
0.1
 74
     0
 49
-11.95
 74
     0
  0
LTYPE
  5
3FA
330
365
100
AcDbSymbolTableRecord
100
AcDbLinetypeTableRecord
  2
CENTER
 70
     0
  3

 72
    65
 73
     4
 40
50.0
 49
32.0
 74
     0
 49
-6.0
 74
     0
 49
6.0
 74
     0
 49
-6.0
 74
     0
  0
LTYPE
  5
3FB
330
365
100
AcDbSymbolTableRecord
100
AcDbLinetypeTableRecord
  2
CENTER2
 70
     0
  3

 72
    65
 73
     4
 40
25.0
 49
16.0
 74
     0
 49
-3.0
 74
     0
 49
3.0
 74
     0
 49
-3.0
 74
     0
  0
LTYPE
  5
3FC
330
365
100
AcDbSymbolTableRecord
100
AcDbLinetypeTableRecord
  2
CENTERX2
 70
     0
  3

 72
    65
 73
     4
 40
100.0
 49
64.0
 74
     0
 49
-12.0
 74
     0
 49
12.0
 74
     0
 49
-12.0
 74
     0
  0
LTYPE
  5
3FD
330
365
100
AcDbSymbolTableRecord
100
AcDbLinetypeTableRecord
  2
DASHDOT
 70
     0
  3

 72
    65
 73
     4
 40
24.0
 49
12.0
 74
     0
 49
-5.95
 74
     0
 49
0.1
 74
     0
 49
-5.95
 74
     0
  0
LTYPE
  5
3FE
330
365
100
AcDbSymbolTableRecord
100
AcDbLinetypeTableRecord
  2
DASHDOT2
 70
     0
  3

 72
    65
 73
     4
 40
12.0
 49
6.0
 74
     0
 49
-2.95
 74
     0
 49
0.1
 74
     0
 49
-2.95
 74
     0
  0
LTYPE
  5
3FF
330
365
100
AcDbSymbolTableRecord
100
AcDbLinetypeTableRecord
  2
DASHDOTX2
 70
     0
  3

 72
    65
 73
     4
 40
48.0
 49
24.0
 74
     0
 49
-11.95
 74
     0
 49
0.1
 74
     0
 49
-11.95
 74
     0
  0
LTYPE
  5
400
330
365
100
AcDbSymbolTableRecord
100
AcDbLinetypeTableRecord
  2
DASHED
 70
     0
  3

 72
    65
 73
     2
 40
18.0
 49
12.0
 74
     0
 49
-6.0
 74
     0
  0
LTYPE
  5
401
330
365
100
AcDbSymbolTableRecord
100
AcDbLinetypeTableRecord
  2
DASHED2
 70
     0
  3

 72
    65
 73
     2
 40
9.0
 49
6.0
 74
     0
 49
-3.0
 74
     0
  0
LTYPE
  5
402
330
365
100
AcDbSymbolTableRecord
100
AcDbLinetypeTableRecord
  2
DASHEDX2
 70
     0
  3

 72
    65
 73
     2
 40
36.0
 49
24.0
 74
     0
 49
-12.0
 74
     0
  0
LTYPE
  5
403
330
365
100
AcDbSymbolTableRecord
100
AcDbLinetypeTableRecord
  2
DIVIDE
 70
     0
  3

 72
    65
 73
     6
 40
29.99999999999999
 49
12.0
 74
     0
 49
-5.9
 74
     0
 49
0.15
 74
     0
 49
-5.9
 74
     0
 49
0.15
 74
     0
 49
-5.9
 74
     0
  0
LTYPE
  5
404
330
365
100
AcDbSymbolTableRecord
100
AcDbLinetypeTableRecord
  2
DIVIDE2
 70
     0
  3

 72
    65
 73
     6
 40
15.0
 49
6.0
 74
     0
 49
-2.9
 74
     0
 49
0.15
 74
     0
 49
-2.9
 74
     0
 49
0.15
 74
     0
 49
-2.9
 74
     0
  0
LTYPE
  5
405
330
365
100
AcDbSymbolTableRecord
100
AcDbLinetypeTableRecord
  2
DIVIDEX2
 70
     0
  3

 72
    65
 73
     6
 40
59.99999999999999
 49
24.0
 74
     0
 49
-11.9
 74
     0
 49
0.15
 74
     0
 49
-11.9
 74
     0
 49
0.15
 74
     0
 49
-11.9
 74
     0
  0
LTYPE
  5
406
330
365
100
AcDbSymbolTableRecord
100
AcDbLinetypeTableRecord
  2
DOT
 70
     0
  3

 72
    65
 73
     2
 40
6.3
 49
0.1
 74
     0
 49
-6.2
 74
     0
  0
LTYPE
  5
407
330
365
100
AcDbSymbolTableRecord
100
AcDbLinetypeTableRecord
  2
DOT2
 70
     0
  3

 72
    65
 73
     2
 40
3.2
 49
0.1
 74
     0
 49
-3.1
 74
     0
  0
LTYPE
  5
408
330
365
100
AcDbSymbolTableRecord
100
AcDbLinetypeTableRecord
  2
DOTX2
 70
     0
  3

 72
    65
 73
     2
 40
12.5
 49
0.1
 74
     0
 49
-12.4
 74
     0
  0
ENDTAB
  0
TABLE
  2
LAYER
  5
362
330
0
100
AcDbSymbolTable
 70
     2
  0
LAYER
  5
370
330
362
100
AcDbSymbolTableRecord
100
AcDbLayerTableRecord
  2
0
 70
     0
 62
     7
420
 16777215
  6
Continuous
370
    -3
390
36F
347
3A5
348
0
  0
LAYER
  5
409
330
362
100
AcDbSymbolTableRecord
100
AcDbLayerTableRecord
  2
engrave
 70
     0
 62
     3
420
    65280
  6
Continuous
370
     0
390
36F
347
3A5
348
0
  0
ENDTAB
  0
TABLE
  2
STYLE
  5
363
330
0
100
AcDbSymbolTable
 70
     1
  0
STYLE
  5
371
330
363
100
AcDbSymbolTableRecord
100
AcDbTextStyleTableRecord
  2
Standard
 70
     0
 40
0.0
 41
1.0
 50
0.0
 71
     0
 42
0.2
  3
txt
  4

  0
ENDTAB
  0
TABLE
  2
VIEW
  5
366
330
0
100
AcDbSymbolTable
 70
     0
  0
ENDTAB
  0
TABLE
  2
UCS
  5
367
330
0
100
AcDbSymbolTable
 70
     0
  0
ENDTAB
  0
TABLE
  2
APPID
  5
369
330
0
100
AcDbSymbolTable
 70
     2
  0
APPID
  5
372
330
369
100
AcDbSymbolTableRecord
100
AcDbRegAppTableRecord
  2
ACAD
 70
     0
  0
APPID
  5
3C9
330
369
100
AcDbSymbolTableRecord
100
AcDbRegAppTableRecord
  2
QCAD
 70
     0
  0
ENDTAB
  0
TABLE
  2
DIMSTYLE
  5
36A
330
0
100
AcDbSymbolTable
 70
     2
100
AcDbDimStyleTable
  0
DIMSTYLE
105
386
330
36A
100
AcDbSymbolTableRecord
100
AcDbDimStyleTableRecord
  2
Standard
 70
     0
178
     0
340
371
  0
DIMSTYLE
105
3F6
330
36A
100
AcDbSymbolTableRecord
100
AcDbDimStyleTableRecord
  2
QCADDimStyle
 70
     0
 41
2.5
 42
0.625
 44
1.25
 73
     0
 77
     1
140
2.5
147
0.625
178
     0
340
371
  0
ENDTAB
  0
TABLE
  2
BLOCK_RECORD
  5
361
330
0
100
AcDbSymbolTable
 70
     1
  0
BLOCK_RECORD
  5
37E
330
361
100
AcDbSymbolTableRecord
100
AcDbBlockTableRecord
  2
*Model_Space
340
381
 70
     0
280
     1
281
     0
  0
BLOCK_RECORD
  5
37A
330
361
100
AcDbSymbolTableRecord
100
AcDbBlockTableRecord
  2
*Paper_Space
340
37D
 70
     0
280
     1
281
     0
  0
BLOCK_RECORD
  5
382
330
361
100
AcDbSymbolTableRecord
100
AcDbBlockTableRecord
  2
*Paper_Space0
340
385
 70
     0
280
     1
281
     0
  0
ENDTAB
  0
ENDSEC
  0
SECTION
  2
BLOCKS
  0
BLOCK
  5
37F
330
37E
100
AcDbEntity
  8
0
100
AcDbBlockBegin
  2
*Model_Space
 70
     0
 10
0.0
 20
0.0
 30
0.0
  3
*Model_Space
  1
*Model_Space
  0
ENDBLK
  5
380
330
37E
100
AcDbEntity
  8
0
100
AcDbBlockEnd
  0
BLOCK
  5
37B
330
37A
100
AcDbEntity
 67
     1
  8
0
100
AcDbBlockBegin
  2
*Paper_Space
 70
     0
 10
0.0
 20
0.0
 30
0.0
  3
*Paper_Space
  1
*Paper_Space
  0
ENDBLK
  5
37C
330
37A
100
AcDbEntity
 67
     1
  8
0
100
AcDbBlockEnd
  0
BLOCK
  5
383
330
382
100
AcDbEntity
  8
0
100
AcDbBlockBegin
  2
*Paper_Space0
 70
     0
 10
0.0
 20
0.0
 30
0.0
  3
*Paper_Space0
  1
*Paper_Space0
  0
ENDBLK
  5
384
330
382
100
AcDbEntity
  8
0
100
AcDbBlockEnd
  0
ENDSEC
  0
SECTION
  2
ENTITIES
  0
SPLINE
  5
24A
330
37E
100
AcDbEntity
  8
engrave
100
AcDbSpline
210
0.0
220
0.0
230
1.0
 70
     8
 71
     3
 72
     8
 73
     4
 74
     0
 42
0.000000001
 43
0.001
 40
0.0
 40
0.0
 40
0.0
 40
0.0
 40
1.0
 40
1.0
 40
1.0
 40
1.0
 10
28.0602874167543
 20
6.824044865054329
 30
0.0
 10
28.33508587451805
 20
7.261479144759901
 30
0.0
 10
28.70054912957121
 20
7.663862600771118
 30
0.0
 10
29.15667718191378
 20
8.031195233087978
 30
0.0
  0
SPLINE
  5
24B
330
37E
100
AcDbEntity
  8
engrave
100
AcDbSpline
210
0.0
220
0.0
230
1.0
 70
     8
 71
     3
 72
     8
 73
     4
 74
     0
 42
0.000000001
 43
0.001
 40
0.0
 40
0.0
 40
0.0
 40
0.0
 40
1.0
 40
1.0
 40
1.0
 40
1.0
 10
29.15667718191378
 20
8.031195233087978
 30
0.0
 10
30.04556607080266
 20
8.748101413716556
 30
0.0
 10
31.13961911438252
 20
9.106554504030845
 30
0.0
 10
32.43883631265335
 20
9.106554504030845
 30
0.0
  0
SPLINE
  5
24C
330
37E
100
AcDbEntity
  8
engrave
100
AcDbSpline
210
0.0
220
0.0
230
1.0
 70
     8
 71
     3
 72
     8
 73
     4
 74
     0
 42
0.000000001
 43
0.001
 40
0.0
 40
0.0
 40
0.0
 40
0.0
 40
1.0
 40
1.0
 40
1.0
 40
1.0
 10
32.43883631265335
 20
9.106554504030845
 30
0.0
 10
33.67449468395841
 20
9.106554504030845
 30
0.0
 10
34.68208902909218
 20
8.739221871713985
 30
0.0
 10
35.46161934805468
 20
8.004556607080266
 30
0.0
  0
SPLINE
  5
24D
330
37E
100
AcDbEntity
  8
engrave
100
AcDbSpline
210
0.0
220
0.0
230
1.0
 70
     8
 71
     3
 72
     8
 73
     4
 74
     0
 42
0.000000001
 43
0.001
 40
0.0
 40
0.0
 40
0.0
 40
0.0
 40
1.0
 40
1.0
 40
1.0
 40
1.0
 10
35.46161934805468
 20
8.004556607080266
 30
0.0
 10
36.13926860614558
 20
7.366164271527047
 30
0.0
 10
36.47809323519103
 20
6.504848697277719
 30
0.0
 10
36.47809323519103
 20
5.420609884332282
 30
0.0
  0
SPLINE
  5
24E
330
37E
100
AcDbEntity
  8
engrave
100
AcDbSpline
210
0.0
220
0.0
230
1.0
 70
     8
 71
     3
 72
     8
 73
     4
 74
     0
 42
0.000000001
 43
0.001
 40
0.0
 40
0.0
 40
0.0
 40
0.0
 40
1.0
 40
1.0
 40
1.0
 40
1.0
 10
36.47809323519103
 20
5.420609884332282
 30
0.0
 10
36.47809323519103
 20
4.043813529617946
 30
0.0
 10
35.90279238228765
 20
2.893211823811193
 30
0.0
 10
34.7521906764809
 20
1.968804766912022
 30
0.0
  0
SPLINE
  5
24F
330
37E
100
AcDbEntity
  8
engrave
100
AcDbSpline
210
0.0
220
0.0
230
1.0
 70
     8
 71
     3
 72
     8
 73
     4
 74
     0
 42
0.000000001
 43
0.001
 40
0.0
 40
0.0
 40
0.0
 40
0.0
 40
1.0
 40
1.0
 40
1.0
 40
1.0
 10
34.7521906764809
 20
1.968804766912022
 30
0.0
 10
33.85956303306461
 20
1.251898586283445
 30
0.0
 10
32.76550998948476
 20
0.8934454959691553
 30
0.0
 10
31.47003154574133
 20
0.8934454959691553
 30
0.0
  0
SPLINE
  5
250
330
37E
100
AcDbEntity
  8
engrave
100
AcDbSpline
210
0.0
220
0.0
230
1.0
 70
     8
 71
     3
 72
     8
 73
     4
 74
     0
 42
0.000000001
 43
0.001
 40
0.0
 40
0.0
 40
0.0
 40
0.0
 40
1.0
 40
1.0
 40
1.0
 40
1.0
 10
31.47003154574133
 20
0.8934454959691553
 30
0.0
 10
30.23811192896367
 20
0.8934454959691553
 30
0.0
 10
29.23051758382989
 20
1.260778128286015
 30
0.0
 10
28.44724851034
 20
1.995443392919734
 30
0.0
  0
SPLINE
  5
251
330
37E
100
AcDbEntity
  8
engrave
100
AcDbSpline
210
0.0
220
0.0
230
1.0
 70
     8
 71
     3
 72
     8
 73
     4
 74
     0
 42
0.000000001
 43
0.001
 40
0.0
 40
0.0
 40
0.0
 40
0.0
 40
1.0
 40
1.0
 40
1.0
 40
1.0
 10
28.44724851034
 20
1.995443392919734
 30
0.0
 10
28.27713517934338
 20
2.154340460334151
 30
0.0
 10
28.12851968687931
 20
2.327257857226312
 30
0.0
 10
28.00140203294777
 20
2.514195583596214
 30
0.0
  0
LINE
  5
252
330
37E
100
AcDbEntity
  8
engrave
100
AcDbLine
 10
28.00140203294777
 20
2.514195583596214
 30
0.0
 11
29.58009113214161
 21
3.450753592709429
 31
0.0
  0
SPLINE
  5
253
330
37E
100
AcDbEntity
  8
engrave
100
AcDbSpline
210
0.0
220
0.0
230
1.0
 70
     8
 71
     3
 72
     8
 73
     4
 74
     0
 42
0.000000001
 43
0.001
 40
0.0
 40
0.0
 40
0.0
 40
0.0
 40
1.0
 40
1.0
 40
1.0
 40
1.0
 10
29.58009113214161
 20
3.450753592709429
 30
0.0
 10
29.66795186353546
 20
3.275032129921719
 30
0.0
 10
29.77917981072555
 20
3.116135062507301
 30
0.0
 10
29.91377497371188
 20
2.974062390466176
 30
0.0
  0
SPLINE
  5
254
330
37E
100
AcDbEntity
  8
engrave
100
AcDbSpline
210
0.0
220
0.0
230
1.0
 70
     8
 71
     3
 72
     8
 73
     4
 74
     0
 42
0.000000001
 43
0.001
 40
0.0
 40
0.0
 40
0.0
 40
0.0
 40
1.0
 40
1.0
 40
1.0
 40
1.0
 10
29.91377497371188
 20
2.974062390466176
 30
0.0
 10
30.31569108540717
 20
2.550648440238345
 30
0.0
 10
30.83444327608366
 20
2.33894146512443
 30
0.0
 10
31.47003154574133
 20
2.33894146512443
 30
0.0
  0
SPLINE
  5
255
330
37E
100
AcDbEntity
  8
engrave
100
AcDbSpline
210
0.0
220
0.0
230
1.0
 70
     8
 71
     3
 72
     8
 73
     4
 74
     0
 42
0.000000001
 43
0.001
 40
0.0
 40
0.0
 40
0.0
 40
0.0
 40
1.0
 40
1.0
 40
1.0
 40
1.0
 10
31.47003154574133
 20
2.33894146512443
 30
0.0
 10
32.35985512326207
 20
2.33894146512443
 30
0.0
 10
33.06554504030845
 20
2.58242785372123
 30
0.0
 10
33.58710129688048
 20
3.069400630914826
 30
0.0
  0
SPLINE
  5
256
330
37E
100
AcDbEntity
  8
engrave
100
AcDbSpline
210
0.0
220
0.0
230
1.0
 70
     8
 71
     3
 72
     8
 73
     4
 74
     0
 42
0.000000001
 43
0.001
 40
0.0
 40
0.0
 40
0.0
 40
0.0
 40
1.0
 40
1.0
 40
1.0
 40
1.0
 10
33.58710129688048
 20
3.069400630914826
 30
0.0
 10
34.24418740507069
 20
3.684425750671807
 30
0.0
 10
34.57273045916579
 20
4.457880593527282
 30
0.0
 10
34.57273045916579
 20
5.389765159481247
 30
0.0
  0
SPLINE
  5
257
330
37E
100
AcDbEntity
  8
engrave
100
AcDbSpline
210
0.0
220
0.0
230
1.0
 70
     8
 71
     3
 72
     8
 73
     4
 74
     0
 42
0.000000001
 43
0.001
 40
0.0
 40
0.0
 40
0.0
 40
0.0
 40
1.0
 40
1.0
 40
1.0
 40
1.0
 10
34.57273045916579
 20
5.389765159481247
 30
0.0
 10
34.57273045916579
 20
6.084238812945438
 30
0.0
 10
34.38018460100479
 20
6.631031662577403
 30
0.0
 10
33.99509288468279
 20
7.030143708377148
 30
0.0
  0
SPLINE
  5
258
330
37E
100
AcDbEntity
  8
engrave
100
AcDbSpline
210
0.0
220
0.0
230
1.0
 70
     8
 71
     3
 72
     8
 73
     4
 74
     0
 42
0.000000001
 43
0.001
 40
0.0
 40
0.0
 40
0.0
 40
0.0
 40
1.0
 40
1.0
 40
1.0
 40
1.0
 10
33.99509288468279
 20
7.030143708377148
 30
0.0
 10
33.5894380184601
 20
7.450753592709429
 30
0.0
 10
33.07068582778362
 20
7.66105853487557
 30
0.0
 10
32.43883631265335
 20
7.66105853487557
 30
0.0
  0
SPLINE
  5
259
330
37E
100
AcDbEntity
  8
engrave
100
AcDbSpline
210
0.0
220
0.0
230
1.0
 70
     8
 71
     3
 72
     8
 73
     4
 74
     0
 42
0.000000001
 43
0.001
 40
0.0
 40
0.0
 40
0.0
 40
0.0
 40
1.0
 40
1.0
 40
1.0
 40
1.0
 10
32.43883631265335
 20
7.66105853487557
 30
0.0
 10
31.60228998714803
 20
7.66105853487557
 30
0.0
 10
30.89613272578573
 20
7.417104801962846
 30
0.0
 10
30.32036452856642
 20
6.929197336137399
 30
0.0
  0
SPLINE
  5
25A
330
37E
100
AcDbEntity
  8
engrave
100
AcDbSpline
210
0.0
220
0.0
230
1.0
 70
     8
 71
     3
 72
     8
 73
     4
 74
     0
 42
0.000000001
 43
0.001
 40
0.0
 40
0.0
 40
0.0
 40
0.0
 40
1.0
 40
1.0
 40
1.0
 40
1.0
 10
30.32036452856642
 20
6.929197336137399
 30
0.0
 10
29.95022783035402
 20
6.615141955835963
 30
0.0
 10
29.6838415702769
 20
6.232386961093586
 30
0.0
 10
29.52120574833509
 20
5.78093235191027
 30
0.0
  0
LINE
  5
25B
330
37E
100
AcDbEntity
  8
engrave
100
AcDbLine
 10
29.52120574833509
 20
5.78093235191027
 30
0.0
 11
28.0602874167543
 21
6.824044865054329
 31
0.0
  0
LINE
  5
25C
330
37E
100
AcDbEntity
  8
engrave
100
AcDbLine
 10
26.52786540483702
 20
9.0
 30
0.0
 11
26.52786540483702
 21
2.382404486505433
 31
0.0
  0
SPLINE
  5
25D
330
37E
100
AcDbEntity
  8
engrave
100
AcDbSpline
210
0.0
220
0.0
230
1.0
 70
     8
 71
     3
 72
     8
 73
     4
 74
     0
 42
0.000000001
 43
0.001
 40
0.0
 40
0.0
 40
0.0
 40
0.0
 40
1.0
 40
1.0
 40
1.0
 40
1.0
 10
26.52786540483702
 20
2.382404486505433
 30
0.0
 10
26.52786540483702
 20
1.746816216847763
 30
0.0
 10
26.82790045566071
 20
1.321065545040309
 30
0.0
 10
27.4279705573081
 20
1.10515247108307
 30
0.0
  0
LINE
  5
25E
330
37E
100
AcDbEntity
  8
engrave
100
AcDbLine
 10
27.4279705573081
 20
1.10515247108307
 30
0.0
 11
27.4279705573081
 21
1.0
 31
0.0
  0
LINE
  5
25F
330
37E
100
AcDbEntity
  8
engrave
100
AcDbLine
 10
27.4279705573081
 20
1.0
 30
0.0
 11
25.3950227830354
 21
1.0
 31
0.0
  0
SPLINE
  5
260
330
37E
100
AcDbEntity
  8
engrave
100
AcDbSpline
210
0.0
220
0.0
230
1.0
 70
     8
 71
     3
 72
     8
 73
     4
 74
     0
 42
0.000000001
 43
0.001
 40
0.0
 40
0.0
 40
0.0
 40
0.0
 40
1.0
 40
1.0
 40
1.0
 40
1.0
 10
25.3950227830354
 20
1.0
 30
0.0
 10
24.91459282626475
 20
1.286014721345952
 30
0.0
 10
24.67437784787943
 20
1.746816216847763
 30
0.0
 10
24.67437784787943
 20
2.382404486505433
 30
0.0
  0
LINE
  5
261
330
37E
100
AcDbEntity
  8
engrave
100
AcDbLine
 10
24.67437784787943
 20
2.382404486505433
 30
0.0
 11
24.67437784787943
 21
4.123729407641079
 31
0.0
  0
LINE
  5
262
330
37E
100
AcDbEntity
  8
engrave
100
AcDbLine
 10
24.67437784787943
 20
4.123729407641079
 30
0.0
 11
21.38100245355766
 21
4.123729407641079
 31
0.0
  0
LINE
  5
263
330
37E
100
AcDbEntity
  8
engrave
100
AcDbLine
 10
21.38100245355766
 20
4.123729407641079
 30
0.0
 11
21.38100245355766
 21
1.0
 31
0.0
  0
LINE
  5
264
330
37E
100
AcDbEntity
  8
engrave
100
AcDbLine
 10
21.38100245355766
 20
1.0
 30
0.0
 11
19.52751489660007
 21
1.0
 31
0.0
  0
LINE
  5
265
330
37E
100
AcDbEntity
  8
engrave
100
AcDbLine
 10
19.52751489660007
 20
1.0
 30
0.0
 11
19.52751489660007
 21
7.617595513494567
 31
0.0
  0
SPLINE
  5
266
330
37E
100
AcDbEntity
  8
engrave
100
AcDbSpline
210
0.0
220
0.0
230
1.0
 70
     8
 71
     3
 72
     8
 73
     4
 74
     0
 42
0.000000001
 43
0.001
 40
0.0
 40
0.0
 40
0.0
 40
0.0
 40
1.0
 40
1.0
 40
1.0
 40
1.0
 10
19.52751489660007
 20
7.617595513494567
 30
0.0
 10
19.52751489660007
 20
8.253183783152236
 30
0.0
 10
19.22747984577638
 20
8.678467110643767
 30
0.0
 10
18.62740974412899
 20
8.893445495969155
 30
0.0
  0
LINE
  5
267
330
37E
100
AcDbEntity
  8
engrave
100
AcDbLine
 10
18.62740974412899
 20
8.893445495969155
 30
0.0
 11
18.62740974412899
 21
9.0
 31
0.0
  0
LINE
  5
268
330
37E
100
AcDbEntity
  8
engrave
100
AcDbLine
 10
18.62740974412899
 20
9.0
 30
0.0
 11
20.66175955134946
 21
9.0
 31
0.0
  0
SPLINE
  5
269
330
37E
100
AcDbEntity
  8
engrave
100
AcDbSpline
210
0.0
220
0.0
230
1.0
 70
     8
 71
     3
 72
     8
 73
     4
 74
     0
 42
0.000000001
 43
0.001
 40
0.0
 40
0.0
 40
0.0
 40
0.0
 40
1.0
 40
1.0
 40
1.0
 40
1.0
 10
20.66175955134946
 20
9.0
 30
0.0
 10
21.14125481948826
 20
8.713985278654048
 30
0.0
 10
21.38100245355766
 20
8.253183783152236
 30
0.0
 10
21.38100245355766
 20
7.617595513494567
 30
0.0
  0
LINE
  5
26A
330
37E
100
AcDbEntity
  8
engrave
100
AcDbLine
 10
21.38100245355766
 20
7.617595513494567
 30
0.0
 11
21.38100245355766
 21
5.71223273746933
 31
0.0
  0
LINE
  5
26B
330
37E
100
AcDbEntity
  8
engrave
100
AcDbLine
 10
21.38100245355766
 20
5.71223273746933
 30
0.0
 11
24.67437784787943
 21
5.71223273746933
 31
0.0
  0
LINE
  5
26C
330
37E
100
AcDbEntity
  8
engrave
100
AcDbLine
 10
24.67437784787943
 20
5.71223273746933
 30
0.0
 11
24.67437784787943
 21
9.0
 31
0.0
  0
LINE
  5
26D
330
37E
100
AcDbEntity
  8
engrave
100
AcDbLine
 10
24.67437784787943
 20
9.0
 30
0.0
 11
26.52786540483702
 21
9.0
 31
0.0
  0
LINE
  5
26E
330
37E
100
AcDbEntity
  8
engrave
100
AcDbLine
 10
17.37539432176656
 20
9.0
 30
0.0
 11
17.37539432176656
 21
2.382404486505433
 31
0.0
  0
SPLINE
  5
26F
330
37E
100
AcDbEntity
  8
engrave
100
AcDbSpline
210
0.0
220
0.0
230
1.0
 70
     8
 71
     3
 72
     8
 73
     4
 74
     0
 42
0.000000001
 43
0.001
 40
0.0
 40
0.0
 40
0.0
 40
0.0
 40
1.0
 40
1.0
 40
1.0
 40
1.0
 10
17.37539432176656
 20
2.382404486505433
 30
0.0
 10
17.37539432176656
 20
1.746816216847763
 30
0.0
 10
17.67542937259025
 20
1.321065545040309
 30
0.0
 10
18.27549947423764
 20
1.10515247108307
 30
0.0
  0
LINE
  5
270
330
37E
100
AcDbEntity
  8
engrave
100
AcDbLine
 10
18.27549947423764
 20
1.10515247108307
 30
0.0
 11
18.27549947423764
 21
1.0
 31
0.0
  0
LINE
  5
271
330
37E
100
AcDbEntity
  8
engrave
100
AcDbLine
 10
18.27549947423764
 20
1.0
 30
0.0
 11
16.24255169996495
 21
1.0
 31
0.0
  0
SPLINE
  5
272
330
37E
100
AcDbEntity
  8
engrave
100
AcDbSpline
210
0.0
220
0.0
230
1.0
 70
     8
 71
     3
 72
     8
 73
     4
 74
     0
 42
0.000000001
 43
0.001
 40
0.0
 40
0.0
 40
0.0
 40
0.0
 40
1.0
 40
1.0
 40
1.0
 40
1.0
 10
16.24255169996495
 20
1.0
 30
0.0
 10
15.7621217431943
 20
1.286014721345952
 30
0.0
 10
15.52190676480897
 20
1.746816216847763
 30
0.0
 10
15.52190676480897
 20
2.382404486505433
 30
0.0
  0
LINE
  5
273
330
37E
100
AcDbEntity
  8
engrave
100
AcDbLine
 10
15.52190676480897
 20
2.382404486505433
 30
0.0
 11
15.52190676480897
 21
9.0
 31
0.0
  0
LINE
  5
274
330
37E
100
AcDbEntity
  8
engrave
100
AcDbLine
 10
15.52190676480897
 20
9.0
 30
0.0
 11
17.37539432176656
 21
9.0
 31
0.0
  0
LINE
  5
275
330
37E
100
AcDbEntity
  8
engrave
100
AcDbLine
 10
13.42726954083421
 20
9.0
 30
0.0
 11
13.42726954083421
 21
2.382404486505433
 31
0.0
  0
SPLINE
  5
276
330
37E
100
AcDbEntity
  8
engrave
100
AcDbSpline
210
0.0
220
0.0
230
1.0
 70
     8
 71
     3
 72
     8
 73
     4
 74
     0
 42
0.000000001
 43
0.001
 40
0.0
 40
0.0
 40
0.0
 40
0.0
 40
1.0
 40
1.0
 40
1.0
 40
1.0
 10
13.42726954083421
 20
2.382404486505433
 30
0.0
 10
13.42726954083421
 20
1.746816216847763
 30
0.0
 10
13.72730459165791
 20
1.321065545040309
 30
0.0
 10
14.32737469330529
 20
1.10515247108307
 30
0.0
  0
LINE
  5
277
330
37E
100
AcDbEntity
  8
engrave
100
AcDbLine
 10
14.32737469330529
 20
1.10515247108307
 30
0.0
 11
14.32737469330529
 21
1.0
 31
0.0
  0
LINE
  5
278
330
37E
100
AcDbEntity
  8
engrave
100
AcDbLine
 10
14.32737469330529
 20
1.0
 30
0.0
 11
12.2944269190326
 21
1.0
 31
0.0
  0
SPLINE
  5
279
330
37E
100
AcDbEntity
  8
engrave
100
AcDbSpline
210
0.0
220
0.0
230
1.0
 70
     8
 71
     3
 72
     8
 73
     4
 74
     0
 42
0.000000001
 43
0.001
 40
0.0
 40
0.0
 40
0.0
 40
0.0
 40
1.0
 40
1.0
 40
1.0
 40
1.0
 10
12.2944269190326
 20
1.0
 30
0.0
 10
12.04299567706508
 20
1.148615492464073
 30
0.0
 10
11.85745998364295
 20
1.346302138100246
 30
0.0
 10
11.73781983876621
 20
1.593059936908517
 30
0.0
  0
SPLINE
  5
27A
330
37E
100
AcDbEntity
  8
engrave
100
AcDbSpline
210
0.0
220
0.0
230
1.0
 70
     8
 71
     3
 72
     8
 73
     4
 74
     0
 42
0.000000001
 43
0.001
 40
0.0
 40
0.0
 40
0.0
 40
0.0
 40
1.0
 40
1.0
 40
1.0
 40
1.0
 10
11.73781983876621
 20
1.593059936908517
 30
0.0
 10
11.50882112396308
 20
1.45192195349924
 30
0.0
 10
11.25458581610001
 20
1.328543054095103
 30
0.0
 10
10.97511391517701
 20
1.222923238696109
 30
0.0
  0
SPLINE
  5
27B
330
37E
100
AcDbEntity
  8
engrave
100
AcDbSpline
210
0.0
220
0.0
230
1.0
 70
     8
 71
     3
 72
     8
 73
     4
 74
     0
 42
0.000000001
 43
0.001
 40
0.0
 40
0.0
 40
0.0
 40
0.0
 40
1.0
 40
1.0
 40
1.0
 40
1.0
 10
10.97511391517701
 20
1.222923238696109
 30
0.0
 10
10.40028040658956
 20
1.003271410211473
 30
0.0
 10
9.870779296646802
 20
0.8934454959691553
 30
0.0
 10
9.386610585348755
 20
0.8934454959691553
 30
0.0
  0
SPLINE
  5
27C
330
37E
100
AcDbEntity
  8
engrave
100
AcDbSpline
210
0.0
220
0.0
230
1.0
 70
     8
 71
     3
 72
     8
 73
     4
 74
     0
 42
0.000000001
 43
0.001
 40
0.0
 40
0.0
 40
0.0
 40
0.0
 40
1.0
 40
1.0
 40
1.0
 40
1.0
 10
9.386610585348755
 20
0.8934454959691553
 30
0.0
 10
8.575300852903375
 20
0.8934454959691553
 30
0.0
 10
7.895782217548781
 20
1.145811426568525
 30
0.0
 10
7.348054679284964
 20
1.650543287767262
 30
0.0
  0
SPLINE
  5
27D
330
37E
100
AcDbEntity
  8
engrave
100
AcDbSpline
210
0.0
220
0.0
230
1.0
 70
     8
 71
     3
 72
     8
 73
     4
 74
     0
 42
0.000000001
 43
0.001
 40
0.0
 40
0.0
 40
0.0
 40
0.0
 40
1.0
 40
1.0
 40
1.0
 40
1.0
 10
7.348054679284964
 20
1.650543287767262
 30
0.0
 10
7.260193947891107
 20
1.73186119873817
 30
0.0
 10
7.182614791447598
 20
1.818319897184251
 30
0.0
 10
7.115317209954434
 20
1.909919383105503
 30
0.0
  0
SPLINE
  5
27E
330
37E
100
AcDbEntity
  8
engrave
100
AcDbSpline
210
0.0
220
0.0
230
1.0
 70
     8
 71
     3
 72
     8
 73
     4
 74
     0
 42
0.000000001
 43
0.001
 40
0.0
 40
0.0
 40
0.0
 40
0.0
 40
1.0
 40
1.0
 40
1.0
 40
1.0
 10
7.115317209954434
 20
1.909919383105503
 30
0.0
 10
6.882579740623903
 20
1.688398177357167
 30
0.0
 10
6.625073022549362
 20
1.483701366982124
 30
0.0
 10
6.342797055730809
 20
1.295828951980371
 30
0.0
  0
SPLINE
  5
27F
330
37E
100
AcDbEntity
  8
engrave
100
AcDbSpline
210
0.0
220
0.0
230
1.0
 70
     8
 71
     3
 72
     8
 73
     4
 74
     0
 42
0.000000001
 43
0.001
 40
0.0
 40
0.0
 40
0.0
 40
0.0
 40
1.0
 40
1.0
 40
1.0
 40
1.0
 10
6.342797055730809
 20
1.295828951980371
 30
0.0
 10
5.937142189508123
 20
1.027573314639561
 30
0.0
 10
5.44315924757565
 20
0.8934454959691553
 30
0.0
 10
4.860848229933403
 20
0.8934454959691553
 30
0.0
  0
SPLINE
  5
280
330
37E
100
AcDbEntity
  8
engrave
100
AcDbSpline
210
0.0
220
0.0
230
1.0
 70
     8
 71
     3
 72
     8
 73
     4
 74
     0
 42
0.000000001
 43
0.001
 40
0.0
 40
0.0
 40
0.0
 40
0.0
 40
1.0
 40
1.0
 40
1.0
 40
1.0
 10
4.860848229933403
 20
0.8934454959691553
 30
0.0
 10
3.766327842037619
 20
0.8934454959691553
 30
0.0
 10
2.857343147563967
 20
1.271527047552285
 30
0.0
 10
2.133894146512439
 20
2.027690150718541
 30
0.0
  0
SPLINE
  5
281
330
37E
100
AcDbEntity
  8
engrave
100
AcDbSpline
210
0.0
220
0.0
230
1.0
 70
     8
 71
     3
 72
     8
 73
     4
 74
     0
 42
0.000000001
 43
0.001
 40
0.0
 40
0.0
 40
0.0
 40
0.0
 40
1.0
 40
1.0
 40
1.0
 40
1.0
 10
2.133894146512439
 20
2.027690150718541
 30
0.0
 10
1.466526463371892
 20
2.722163804182731
 30
0.0
 10
1.132842621801615
 20
3.591891576118705
 30
0.0
 10
1.132842621801615
 20
4.636873466526463
 30
0.0
  0
SPLINE
  5
282
330
37E
100
AcDbEntity
  8
engrave
100
AcDbSpline
210
0.0
220
0.0
230
1.0
 70
     8
 71
     3
 72
     8
 73
     4
 74
     0
 42
0.000000001
 43
0.001
 40
0.0
 40
0.0
 40
0.0
 40
0.0
 40
1.0
 40
1.0
 40
1.0
 40
1.0
 10
1.132842621801615
 20
4.636873466526463
 30
0.0
 10
1.132842621801615
 20
5.572496787007829
 30
0.0
 10
1.358569926393272
 20
6.438953148732327
 30
0.0
 10
1.810024535576588
 20
7.236242551699965
 30
0.0
  0
SPLINE
  5
283
330
37E
100
AcDbEntity
  8
engrave
100
AcDbSpline
210
0.0
220
0.0
230
1.0
 70
     8
 71
     3
 72
     8
 73
     4
 74
     0
 42
0.000000001
 43
0.001
 40
0.0
 40
0.0
 40
0.0
 40
0.0
 40
1.0
 40
1.0
 40
1.0
 40
1.0
 10
1.810024535576588
 20
7.236242551699965
 30
0.0
 10
2.11379834092768
 20
7.772753826381587
 30
0.0
 10
2.542820422946605
 20
8.360672975814932
 30
0.0
 10
3.097090781633369
 20
9.0
 30
0.0
  0
LINE
  5
284
330
37E
100
AcDbEntity
  8
engrave
100
AcDbLine
 10
3.097090781633369
 20
9.0
 30
0.0
 11
5.320715036803364
 21
9.0
 31
0.0
  0
SPLINE
  5
285
330
37E
100
AcDbEntity
  8
engrave
100
AcDbSpline
210
0.0
220
0.0
230
1.0
 70
     8
 71
     3
 72
     8
 73
     4
 74
     0
 42
0.000000001
 43
0.001
 40
0.0
 40
0.0
 40
0.0
 40
0.0
 40
1.0
 40
1.0
 40
1.0
 40
1.0
 10
5.320715036803364
 20
9.0
 30
0.0
 10
4.541184717840871
 20
8.435448066362893
 30
0.0
 10
3.925224909452041
 20
7.704988900572497
 30
0.0
 10
3.472835611636874
 20
6.808622502628811
 30
0.0
  0
SPLINE
  5
286
330
37E
100
AcDbEntity
  8
engrave
100
AcDbSpline
210
0.0
220
0.0
230
1.0
 70
     8
 71
     3
 72
     8
 73
     4
 74
     0
 42
0.000000001
 43
0.001
 40
0.0
 40
0.0
 40
0.0
 40
0.0
 40
1.0
 40
1.0
 40
1.0
 40
1.0
 10
3.472835611636874
 20
6.808622502628811
 30
0.0
 10
3.18308213576352
 20
6.23285430540951
 30
0.0
 10
3.03820539782685
 20
5.560345834793783
 30
0.0
 10
3.03820539782685
 20
4.791097090781633
 30
0.0
  0
SPLINE
  5
287
330
37E
100
AcDbEntity
  8
engrave
100
AcDbSpline
210
0.0
220
0.0
230
1.0
 70
     8
 71
     3
 72
     8
 73
     4
 74
     0
 42
0.000000001
 43
0.001
 40
0.0
 40
0.0
 40
0.0
 40
0.0
 40
1.0
 40
1.0
 40
1.0
 40
1.0
 10
3.03820539782685
 20
4.791097090781633
 30
0.0
 10
3.03820539782685
 20
4.056431826147914
 30
0.0
 10
3.20598200724384
 20
3.47739221871714
 30
0.0
 10
3.541535226077812
 20
3.05397826848931
 30
0.0
  0
SPLINE
  5
288
330
37E
100
AcDbEntity
  8
engrave
100
AcDbSpline
210
0.0
220
0.0
230
1.0
 70
     8
 71
     3
 72
     8
 73
     4
 74
     0
 42
0.000000001
 43
0.001
 40
0.0
 40
0.0
 40
0.0
 40
0.0
 40
1.0
 40
1.0
 40
1.0
 40
1.0
 10
3.541535226077812
 20
3.05397826848931
 30
0.0
 10
3.898586283444331
 20
2.602523659305993
 30
0.0
 10
4.339759317677299
 20
2.376796354714335
 30
0.0
 10
4.865054328776729
 20
2.376796354714335
 30
0.0
  0
SPLINE
  5
289
330
37E
100
AcDbEntity
  8
engrave
100
AcDbSpline
210
0.0
220
0.0
230
1.0
 70
     8
 71
     3
 72
     8
 73
     4
 74
     0
 42
0.000000001
 43
0.001
 40
0.0
 40
0.0
 40
0.0
 40
0.0
 40
1.0
 40
1.0
 40
1.0
 40
1.0
 10
4.865054328776729
 20
2.376796354714335
 30
0.0
 10
5.327725201542236
 20
2.376796354714335
 30
0.0
 10
5.728706624605678
 20
2.517934338123613
 30
0.0
 10
6.067998597967051
 20
2.800210304942166
 30
0.0
  0
SPLINE
  5
28A
330
37E
100
AcDbEntity
  8
engrave
100
AcDbSpline
210
0.0
220
0.0
230
1.0
 70
     8
 71
     3
 72
     8
 73
     4
 74
     0
 42
0.000000001
 43
0.001
 40
0.0
 40
0.0
 40
0.0
 40
0.0
 40
1.0
 40
1.0
 40
1.0
 40
1.0
 10
6.067998597967051
 20
2.800210304942166
 30
0.0
 10
6.43439654165206
 20
3.106788176188807
 30
0.0
 10
6.617595513494567
 20
3.567589671690619
 30
0.0
 10
6.617595513494567
 20
4.182614791447599
 30
0.0
  0
LINE
  5
28B
330
37E
100
AcDbEntity
  8
engrave
100
AcDbLine
 10
6.617595513494567
 20
4.182614791447599
 30
0.0
 11
6.617595513494567
 21
9.0
 31
0.0
  0
LINE
  5
28C
330
37E
100
AcDbEntity
  8
engrave
100
AcDbLine
 10
6.617595513494567
 20
9.0
 30
0.0
 11
8.471083070452156
 21
9.0
 31
0.0
  0
LINE
  5
28D
330
37E
100
AcDbEntity
  8
engrave
100
AcDbLine
 10
8.471083070452156
 20
9.0
 30
0.0
 11
8.471083070452156
 21
3.429723098492815
 31
0.0
  0
SPLINE
  5
28E
330
37E
100
AcDbEntity
  8
engrave
100
AcDbSpline
210
0.0
220
0.0
230
1.0
 70
     8
 71
     3
 72
     8
 73
     4
 74
     0
 42
0.000000001
 43
0.001
 40
0.0
 40
0.0
 40
0.0
 40
0.0
 40
1.0
 40
1.0
 40
1.0
 40
1.0
 10
8.471083070452156
 20
3.429723098492815
 30
0.0
 10
8.471083070452156
 20
3.080149550181096
 30
0.0
 10
8.562682556373407
 20
2.817502044631381
 30
0.0
 10
8.745881528215914
 20
2.641780581843673
 30
0.0
  0
SPLINE
  5
28F
330
37E
100
AcDbEntity
  8
engrave
100
AcDbSpline
210
0.0
220
0.0
230
1.0
 70
     8
 71
     3
 72
     8
 73
     4
 74
     0
 42
0.000000001
 43
0.001
 40
0.0
 40
0.0
 40
0.0
 40
0.0
 40
1.0
 40
1.0
 40
1.0
 40
1.0
 10
8.745881528215914
 20
2.641780581843673
 30
0.0
 10
8.950578338590958
 20
2.443626591891577
 30
0.0
 10
9.19453207150368
 20
2.344549596915527
 30
0.0
 10
9.477742726954084
 20
2.344549596915527
 30
0.0
  0
SPLINE
  5
290
330
37E
100
AcDbEntity
  8
engrave
100
AcDbSpline
210
0.0
220
0.0
230
1.0
 70
     8
 71
     3
 72
     8
 73
     4
 74
     0
 42
0.000000001
 43
0.001
 40
0.0
 40
0.0
 40
0.0
 40
0.0
 40
1.0
 40
1.0
 40
1.0
 40
1.0
 10
9.477742726954084
 20
2.344549596915527
 30
0.0
 10
10.04883748101414
 20
2.344549596915527
 30
0.0
 10
10.53066947073256
 20
2.496436499591073
 30
0.0
 10
10.92323869610936
 20
2.800210304942166
 30
0.0
  0
SPLINE
  5
291
330
37E
100
AcDbEntity
  8
engrave
100
AcDbSpline
210
0.0
220
0.0
230
1.0
 70
     8
 71
     3
 72
     8
 73
     4
 74
     0
 42
0.000000001
 43
0.001
 40
0.0
 40
0.0
 40
0.0
 40
0.0
 40
1.0
 40
1.0
 40
1.0
 40
1.0
 10
10.92323869610936
 20
2.800210304942166
 30
0.0
 10
11.35693422128753
 20
3.135763523776141
 30
0.0
 10
11.57378198387662
 20
3.596565019277953
 30
0.0
 10
11.57378198387662
 20
4.182614791447599
 30
0.0
  0
LINE
  5
292
330
37E
100
AcDbEntity
  8
engrave
100
AcDbLine
 10
11.57378198387662
 20
4.182614791447599
 30
0.0
 11
11.57378198387662
 21
9.0
 31
0.0
  0
LINE
  5
293
330
37E
100
AcDbEntity
  8
engrave
100
AcDbLine
 10
11.57378198387662
 20
9.0
 30
0.0
 11
13.42726954083421
 21
9.0
 31
0.0
  0
LINE
  5
294
330
37E
100
AcDbEntity
  8
engrave
100
AcDbLine
 10
0.5509989484752893
 20
9.0
 30
0.0
 11
-3.3242201191728
 21
1.0
 31
0.0
  0
LINE
  5
295
330
37E
100
AcDbEntity
  8
engrave
100
AcDbLine
 10
-3.3242201191728
 20
1.0
 30
0.0
 11
-4.876270592358921
 21
1.0
 31
0.0
  0
LINE
  5
296
330
37E
100
AcDbEntity
  8
engrave
100
AcDbLine
 10
-4.876270592358921
 20
1.0
 30
0.0
 11
-8.75148966000701
 21
9.0
 31
0.0
  0
LINE
  5
297
330
37E
100
AcDbEntity
  8
engrave
100
AcDbLine
 10
-8.75148966000701
 20
9.0
 30
0.0
 11
-6.72415001752541
 21
9.0
 31
0.0
  0
LINE
  5
298
330
37E
100
AcDbEntity
  8
engrave
100
AcDbLine
 10
-6.72415001752541
 20
9.0
 30
0.0
 11
-5.198738170347006
 21
5.71223273746933
 31
0.0
  0
LINE
  5
299
330
37E
100
AcDbEntity
  8
engrave
100
AcDbLine
 10
-5.198738170347006
 20
5.71223273746933
 30
0.0
 11
-2.780231335436383
 21
5.71223273746933
 31
0.0
  0
LINE
  5
29A
330
37E
100
AcDbEntity
  8
engrave
100
AcDbLine
 10
-2.780231335436383
 20
5.71223273746933
 30
0.0
 11
-1.22257273045917
 21
9.0
 31
0.0
  0
LINE
  5
29B
330
37E
100
AcDbEntity
  8
engrave
100
AcDbLine
 10
-1.22257273045917
 20
9.0
 30
0.0
 11
0.5509989484752893
 21
9.0
 31
0.0
  0
LINE
  5
29C
330
37E
100
AcDbEntity
  8
engrave
100
AcDbLine
 10
-3.934104451454608
 20
2.98527865404837
 30
0.0
 11
-3.451805117420257
 21
4.123729407641079
 31
0.0
  0
LINE
  5
29D
330
37E
100
AcDbEntity
  8
engrave
100
AcDbLine
 10
-3.451805117420257
 20
4.123729407641079
 30
0.0
 11
-4.461268839817734
 21
4.123729407641079
 31
0.0
  0
LINE
  5
29E
330
37E
100
AcDbEntity
  8
engrave
100
AcDbLine
 10
-4.461268839817734
 20
4.123729407641079
 30
0.0
 11
-3.934104451454608
 21
2.98527865404837
 31
0.0
  0
SPLINE
  5
29F
330
37E
100
AcDbEntity
  8
engrave
100
AcDbSpline
210
0.0
220
0.0
230
1.0
 70
     8
 71
     3
 72
     8
 73
     4
 74
     0
 42
0.000000001
 43
0.001
 40
0.0
 40
0.0
 40
0.0
 40
0.0
 40
1.0
 40
1.0
 40
1.0
 40
1.0
 10
-17.70206799859797
 20
6.824044865054329
 30
0.0
 10
-17.42726954083421
 20
7.261479144759901
 30
0.0
 10
-17.06180628578105
 20
7.663862600771118
 30
0.0
 10
-16.60567823343849
 20
8.031195233087978
 30
0.0
  0
SPLINE
  5
2A0
330
37E
100
AcDbEntity
  8
engrave
100
AcDbSpline
210
0.0
220
0.0
230
1.0
 70
     8
 71
     3
 72
     8
 73
     4
 74
     0
 42
0.000000001
 43
0.001
 40
0.0
 40
0.0
 40
0.0
 40
0.0
 40
1.0
 40
1.0
 40
1.0
 40
1.0
 10
-16.60567823343849
 20
8.031195233087978
 30
0.0
 10
-15.7167893445496
 20
8.748101413716556
 30
0.0
 10
-14.62273630096974
 20
9.106554504030845
 30
0.0
 10
-13.32351910269892
 20
9.106554504030845
 30
0.0
  0
SPLINE
  5
2A1
330
37E
100
AcDbEntity
  8
engrave
100
AcDbSpline
210
0.0
220
0.0
230
1.0
 70
     8
 71
     3
 72
     8
 73
     4
 74
     0
 42
0.000000001
 43
0.001
 40
0.0
 40
0.0
 40
0.0
 40
0.0
 40
1.0
 40
1.0
 40
1.0
 40
1.0
 10
-13.32351910269892
 20
9.106554504030845
 30
0.0
 10
-12.08786073139385
 20
9.106554504030845
 30
0.0
 10
-11.08026638626008
 20
8.739221871713985
 30
0.0
 10
-10.30073606729758
 20
8.004556607080266
 30
0.0
  0
SPLINE
  5
2A2
330
37E
100
AcDbEntity
  8
engrave
100
AcDbSpline
210
0.0
220
0.0
230
1.0
 70
     8
 71
     3
 72
     8
 73
     4
 74
     0
 42
0.000000001
 43
0.001
 40
0.0
 40
0.0
 40
0.0
 40
0.0
 40
1.0
 40
1.0
 40
1.0
 40
1.0
 10
-10.30073606729758
 20
8.004556607080266
 30
0.0
 10
-9.623086809206683
 20
7.366164271527047
 30
0.0
 10
-9.284262180161235
 20
6.504848697277719
 30
0.0
 10
-9.284262180161235
 20
5.420609884332282
 30
0.0
  0
SPLINE
  5
2A3
330
37E
100
AcDbEntity
  8
engrave
100
AcDbSpline
210
0.0
220
0.0
230
1.0
 70
     8
 71
     3
 72
     8
 73
     4
 74
     0
 42
0.000000001
 43
0.001
 40
0.0
 40
0.0
 40
0.0
 40
0.0
 40
1.0
 40
1.0
 40
1.0
 40
1.0
 10
-9.284262180161235
 20
5.420609884332282
 30
0.0
 10
-9.284262180161235
 20
4.043813529617946
 30
0.0
 10
-9.859563033064617
 20
2.893211823811193
 30
0.0
 10
-11.01016473887137
 20
1.968804766912022
 30
0.0
  0
SPLINE
  5
2A4
330
37E
100
AcDbEntity
  8
engrave
100
AcDbSpline
210
0.0
220
0.0
230
1.0
 70
     8
 71
     3
 72
     8
 73
     4
 74
     0
 42
0.000000001
 43
0.001
 40
0.0
 40
0.0
 40
0.0
 40
0.0
 40
1.0
 40
1.0
 40
1.0
 40
1.0
 10
-11.01016473887137
 20
1.968804766912022
 30
0.0
 10
-11.90279238228765
 20
1.251898586283445
 30
0.0
 10
-12.99684542586751
 20
0.8934454959691553
 30
0.0
 10
-14.29232386961094
 20
0.8934454959691553
 30
0.0
  0
SPLINE
  5
2A5
330
37E
100
AcDbEntity
  8
engrave
100
AcDbSpline
210
0.0
220
0.0
230
1.0
 70
     8
 71
     3
 72
     8
 73
     4
 74
     0
 42
0.000000001
 43
0.001
 40
0.0
 40
0.0
 40
0.0
 40
0.0
 40
1.0
 40
1.0
 40
1.0
 40
1.0
 10
-14.29232386961094
 20
0.8934454959691553
 30
0.0
 10
-15.52424348638859
 20
0.8934454959691553
 30
0.0
 10
-16.53183783152238
 20
1.260778128286015
 30
0.0
 10
-17.31510690501227
 20
1.995443392919734
 30
0.0
  0
SPLINE
  5
2A6
330
37E
100
AcDbEntity
  8
engrave
100
AcDbSpline
210
0.0
220
0.0
230
1.0
 70
     8
 71
     3
 72
     8
 73
     4
 74
     0
 42
0.000000001
 43
0.001
 40
0.0
 40
0.0
 40
0.0
 40
0.0
 40
1.0
 40
1.0
 40
1.0
 40
1.0
 10
-17.31510690501227
 20
1.995443392919734
 30
0.0
 10
-17.48522023600889
 20
2.154340460334151
 30
0.0
 10
-17.63383572847296
 20
2.327257857226312
 30
0.0
 10
-17.76095338240449
 20
2.514195583596214
 30
0.0
  0
LINE
  5
2A7
330
37E
100
AcDbEntity
  8
engrave
100
AcDbLine
 10
-17.76095338240449
 20
2.514195583596214
 30
0.0
 11
-16.18226428321066
 21
3.450753592709429
 31
0.0
  0
SPLINE
  5
2A8
330
37E
100
AcDbEntity
  8
engrave
100
AcDbSpline
210
0.0
220
0.0
230
1.0
 70
     8
 71
     3
 72
     8
 73
     4
 74
     0
 42
0.000000001
 43
0.001
 40
0.0
 40
0.0
 40
0.0
 40
0.0
 40
1.0
 40
1.0
 40
1.0
 40
1.0
 10
-16.18226428321066
 20
3.450753592709429
 30
0.0
 10
-16.0944035518168
 20
3.275032129921719
 30
0.0
 10
-15.98317560462671
 20
3.116135062507301
 30
0.0
 10
-15.84858044164038
 20
2.974062390466176
 30
0.0
  0
SPLINE
  5
2A9
330
37E
100
AcDbEntity
  8
engrave
100
AcDbSpline
210
0.0
220
0.0
230
1.0
 70
     8
 71
     3
 72
     8
 73
     4
 74
     0
 42
0.000000001
 43
0.001
 40
0.0
 40
0.0
 40
0.0
 40
0.0
 40
1.0
 40
1.0
 40
1.0
 40
1.0
 10
-15.84858044164038
 20
2.974062390466176
 30
0.0
 10
-15.44666432994509
 20
2.550648440238345
 30
0.0
 10
-14.92791213926861
 20
2.33894146512443
 30
0.0
 10
-14.29232386961094
 20
2.33894146512443
 30
0.0
  0
SPLINE
  5
2AA
330
37E
100
AcDbEntity
  8
engrave
100
AcDbSpline
210
0.0
220
0.0
230
1.0
 70
     8
 71
     3
 72
     8
 73
     4
 74
     0
 42
0.000000001
 43
0.001
 40
0.0
 40
0.0
 40
0.0
 40
0.0
 40
1.0
 40
1.0
 40
1.0
 40
1.0
 10
-14.29232386961094
 20
2.33894146512443
 30
0.0
 10
-13.39969622619466
 20
2.33894146512443
 30
0.0
 10
-12.69400630914826
 20
2.58242785372123
 30
0.0
 10
-12.17525411847178
 20
3.069400630914826
 30
0.0
  0
SPLINE
  5
2AB
330
37E
100
AcDbEntity
  8
engrave
100
AcDbSpline
210
0.0
220
0.0
230
1.0
 70
     8
 71
     3
 72
     8
 73
     4
 74
     0
 42
0.000000001
 43
0.001
 40
0.0
 40
0.0
 40
0.0
 40
0.0
 40
1.0
 40
1.0
 40
1.0
 40
1.0
 10
-12.17525411847178
 20
3.069400630914826
 30
0.0
 10
-11.84343965416521
 20
3.380651945320715
 30
0.0
 10
-11.59434513377731
 20
3.732094870896132
 30
0.0
 10
-11.4279705573081
 20
4.123729407641079
 30
0.0
  0
LINE
  5
2AC
330
37E
100
AcDbEntity
  8
engrave
100
AcDbLine
 10
-11.4279705573081
 20
4.123729407641079
 30
0.0
 11
-15.46302138100246
 21
4.123729407641079
 31
0.0
  0
LINE
  5
2AD
330
37E
100
AcDbEntity
  8
engrave
100
AcDbLine
 10
-15.46302138100246
 20
4.123729407641079
 30
0.0
 11
-15.46302138100246
 21
5.71223273746933
 31
0.0
  0
LINE
  5
2AE
330
37E
100
AcDbEntity
  8
engrave
100
AcDbLine
 10
-15.46302138100246
 20
5.71223273746933
 30
0.0
 11
-11.20504731861199
 21
5.71223273746933
 31
0.0
  0
SPLINE
  5
2AF
330
37E
100
AcDbEntity
  8
engrave
100
AcDbSpline
210
0.0
220
0.0
230
1.0
 70
     8
 71
     3
 72
     8
 73
     4
 74
     0
 42
0.000000001
 43
0.001
 40
0.0
 40
0.0
 40
0.0
 40
0.0
 40
1.0
 40
1.0
 40
1.0
 40
1.0
 10
-11.20504731861199
 20
5.71223273746933
 30
0.0
 10
-11.25458581610002
 20
6.255286832573899
 30
0.0
 10
-11.44199088678584
 20
6.694590489543172
 30
0.0
 10
-11.76726253066947
 20
7.030143708377148
 30
0.0
  0
SPLINE
  5
2B0
330
37E
100
AcDbEntity
  8
engrave
100
AcDbSpline
210
0.0
220
0.0
230
1.0
 70
     8
 71
     3
 72
     8
 73
     4
 74
     0
 42
0.000000001
 43
0.001
 40
0.0
 40
0.0
 40
0.0
 40
0.0
 40
1.0
 40
1.0
 40
1.0
 40
1.0
 10
-11.76726253066947
 20
7.030143708377148
 30
0.0
 10
-12.17291739689217
 20
7.450753592709429
 30
0.0
 10
-12.69166958756865
 20
7.66105853487557
 30
0.0
 10
-13.32351910269892
 20
7.66105853487557
 30
0.0
  0
SPLINE
  5
2B1
330
37E
100
AcDbEntity
  8
engrave
100
AcDbSpline
210
0.0
220
0.0
230
1.0
 70
     8
 71
     3
 72
     8
 73
     4
 74
     0
 42
0.000000001
 43
0.001
 40
0.0
 40
0.0
 40
0.0
 40
0.0
 40
1.0
 40
1.0
 40
1.0
 40
1.0
 10
-13.32351910269892
 20
7.66105853487557
 30
0.0
 10
-14.16006542820423
 20
7.66105853487557
 30
0.0
 10
-14.86622268956654
 20
7.417104801962846
 30
0.0
 10
-15.44199088678584
 20
6.929197336137399
 30
0.0
  0
SPLINE
  5
2B2
330
37E
100
AcDbEntity
  8
engrave
100
AcDbSpline
210
0.0
220
0.0
230
1.0
 70
     8
 71
     3
 72
     8
 73
     4
 74
     0
 42
0.000000001
 43
0.001
 40
0.0
 40
0.0
 40
0.0
 40
0.0
 40
1.0
 40
1.0
 40
1.0
 40
1.0
 10
-15.44199088678584
 20
6.929197336137399
 30
0.0
 10
-15.81212758499825
 20
6.615141955835963
 30
0.0
 10
-16.07851384507536
 20
6.232386961093586
 30
0.0
 10
-16.24114966701718
 20
5.78093235191027
 30
0.0
  0
LINE
  5
2B3
330
37E
100
AcDbEntity
  8
engrave
100
AcDbLine
 10
-16.24114966701718
 20
5.78093235191027
 30
0.0
 11
-17.70206799859797
 21
6.824044865054329
 31
0.0
  0
LINE
  5
2B4
330
37E
100
AcDbEntity
  8
engrave
100
AcDbLine
 10
-19.23449001051525
 20
9.0
 30
0.0
 11
-19.23449001051525
 21
2.382404486505433
 31
0.0
  0
SPLINE
  5
2B5
330
37E
100
AcDbEntity
  8
engrave
100
AcDbSpline
210
0.0
220
0.0
230
1.0
 70
     8
 71
     3
 72
     8
 73
     4
 74
     0
 42
0.000000001
 43
0.001
 40
0.0
 40
0.0
 40
0.0
 40
0.0
 40
1.0
 40
1.0
 40
1.0
 40
1.0
 10
-19.23449001051525
 20
2.382404486505433
 30
0.0
 10
-19.23449001051525
 20
1.746816216847763
 30
0.0
 10
-18.93445495969156
 20
1.321065545040309
 30
0.0
 10
-18.33438485804417
 20
1.10515247108307
 30
0.0
  0
LINE
  5
2B6
330
37E
100
AcDbEntity
  8
engrave
100
AcDbLine
 10
-18.33438485804417
 20
1.10515247108307
 30
0.0
 11
-18.33438485804417
 21
1.0
 31
0.0
  0
LINE
  5
2B7
330
37E
100
AcDbEntity
  8
engrave
100
AcDbLine
 10
-18.33438485804417
 20
1.0
 30
0.0
 11
-20.36733263231686
 21
1.0
 31
0.0
  0
SPLINE
  5
2B8
330
37E
100
AcDbEntity
  8
engrave
100
AcDbSpline
210
0.0
220
0.0
230
1.0
 70
     8
 71
     3
 72
     8
 73
     4
 74
     0
 42
0.000000001
 43
0.001
 40
0.0
 40
0.0
 40
0.0
 40
0.0
 40
1.0
 40
1.0
 40
1.0
 40
1.0
 10
-20.36733263231686
 20
1.0
 30
0.0
 10
-20.61502511975698
 20
1.148615492464073
 30
0.0
 10
-20.79869143591541
 20
1.341161350625072
 30
0.0
 10
-20.91833158079215
 20
1.577637574483
 30
0.0
  0
SPLINE
  5
2B9
330
37E
100
AcDbEntity
  8
engrave
100
AcDbSpline
210
0.0
220
0.0
230
1.0
 70
     8
 71
     3
 72
     8
 73
     4
 74
     0
 42
0.000000001
 43
0.001
 40
0.0
 40
0.0
 40
0.0
 40
0.0
 40
1.0
 40
1.0
 40
1.0
 40
1.0
 10
-20.91833158079215
 20
1.577637574483
 30
0.0
 10
-21.1230283911672
 20
1.457062740974413
 30
0.0
 10
-21.34174553101998
 20
1.340226661993224
 30
0.0
 10
-21.57448300035051
 20
1.227129337539433
 30
0.0
  0
SPLINE
  5
2BA
330
37E
100
AcDbEntity
  8
engrave
100
AcDbSpline
210
0.0
220
0.0
230
1.0
 70
     8
 71
     3
 72
     8
 73
     4
 74
     0
 42
0.000000001
 43
0.001
 40
0.0
 40
0.0
 40
0.0
 40
0.0
 40
1.0
 40
1.0
 40
1.0
 40
1.0
 10
-21.57448300035051
 20
1.227129337539433
 30
0.0
 10
-22.03341511858863
 20
1.004673443159247
 30
0.0
 10
-22.53814697978736
 20
0.8934454959691553
 30
0.0
 10
-23.08867858394672
 20
0.8934454959691553
 30
0.0
  0
SPLINE
  5
2BB
330
37E
100
AcDbEntity
  8
engrave
100
AcDbSpline
210
0.0
220
0.0
230
1.0
 70
     8
 71
     3
 72
     8
 73
     4
 74
     0
 42
0.000000001
 43
0.001
 40
0.0
 40
0.0
 40
0.0
 40
0.0
 40
1.0
 40
1.0
 40
1.0
 40
1.0
 10
-23.08867858394672
 20
0.8934454959691553
 30
0.0
 10
-23.96822058651712
 20
0.8934454959691553
 30
0.0
 10
-24.71830821357636
 20
1.184601004790279
 30
0.0
 10
-25.33894146512444
 20
1.766912022432527
 30
0.0
  0
SPLINE
  5
2BC
330
37E
100
AcDbEntity
  8
engrave
100
AcDbSpline
210
0.0
220
0.0
230
1.0
 70
     8
 71
     3
 72
     8
 73
     4
 74
     0
 42
0.000000001
 43
0.001
 40
0.0
 40
0.0
 40
0.0
 40
0.0
 40
1.0
 40
1.0
 40
1.0
 40
1.0
 10
-25.33894146512444
 20
1.766912022432527
 30
0.0
 10
-25.85862834443276
 20
2.254819488257974
 30
0.0
 10
-26.11847178408693
 20
2.885266970440473
 30
0.0
 10
-26.11847178408693
 20
3.65825446898002
 30
0.0
  0
SPLINE
  5
2BD
330
37E
100
AcDbEntity
  8
engrave
100
AcDbSpline
210
0.0
220
0.0
230
1.0
 70
     8
 71
     3
 72
     8
 73
     4
 74
     0
 42
0.000000001
 43
0.001
 40
0.0
 40
0.0
 40
0.0
 40
0.0
 40
1.0
 40
1.0
 40
1.0
 40
1.0
 10
-26.11847178408693
 20
3.65825446898002
 30
0.0
 10
-26.11847178408693
 20
4.910737235658372
 30
0.0
 10
-25.57822175487791
 20
5.913190793316978
 30
0.0
 10
-24.49772169645987
 20
6.665615141955836
 30
0.0
  0
LINE
  5
2BE
330
37E
100
AcDbEntity
  8
engrave
100
AcDbLine
 10
-24.49772169645987
 20
6.665615141955836
 30
0.0
 11
-26.84332281808623
 21
9.0
 31
0.0
  0
LINE
  5
2BF
330
37E
100
AcDbEntity
  8
engrave
100
AcDbLine
 10
-26.84332281808623
 20
9.0
 30
0.0
 11
-24.36032246757799
 21
9.0
 31
0.0
  0
LINE
  5
2C0
330
37E
100
AcDbEntity
  8
engrave
100
AcDbLine
 10
-24.36032246757799
 20
9.0
 30
0.0
 11
-21.29407641079565
 21
5.844023834560113
 31
0.0
  0
SPLINE
  5
2C1
330
37E
100
AcDbEntity
  8
engrave
100
AcDbSpline
210
0.0
220
0.0
230
1.0
 70
     8
 71
     3
 72
     8
 73
     4
 74
     0
 42
0.000000001
 43
0.001
 40
0.0
 40
0.0
 40
0.0
 40
0.0
 40
1.0
 40
1.0
 40
1.0
 40
1.0
 10
-21.29407641079565
 20
5.844023834560113
 30
0.0
 10
-21.47447131674261
 20
5.911321416053277
 30
0.0
 10
-21.79039607430775
 20
5.94497020679986
 30
0.0
 10
-22.24185068349107
 20
5.94497020679986
 30
0.0
  0
SPLINE
  5
2C2
330
37E
100
AcDbEntity
  8
engrave
100
AcDbSpline
210
0.0
220
0.0
230
1.0
 70
     8
 71
     3
 72
     8
 73
     4
 74
     0
 42
0.000000001
 43
0.001
 40
0.0
 40
0.0
 40
0.0
 40
0.0
 40
1.0
 40
1.0
 40
1.0
 40
1.0
 10
-22.24185068349107
 20
5.94497020679986
 30
0.0
 10
-22.7503212992172
 20
5.94497020679986
 30
0.0
 10
-23.19336371071387
 20
5.759901857693656
 30
0.0
 10
-23.57097791798108
 20
5.389765159481247
 30
0.0
  0
SPLINE
  5
2C3
330
37E
100
AcDbEntity
  8
engrave
100
AcDbSpline
210
0.0
220
0.0
230
1.0
 70
     8
 71
     3
 72
     8
 73
     4
 74
     0
 42
0.000000001
 43
0.001
 40
0.0
 40
0.0
 40
0.0
 40
0.0
 40
1.0
 40
1.0
 40
1.0
 40
1.0
 10
-23.57097791798108
 20
5.389765159481247
 30
0.0
 10
-23.99439186820891
 20
4.972894029676363
 30
0.0
 10
-24.20609884332282
 20
4.480313120691671
 30
0.0
 10
-24.20609884332282
 20
3.912022432527165
 30
0.0
  0
SPLINE
  5
2C4
330
37E
100
AcDbEntity
  8
engrave
100
AcDbSpline
210
0.0
220
0.0
230
1.0
 70
     8
 71
     3
 72
     8
 73
     4
 74
     0
 42
0.000000001
 43
0.001
 40
0.0
 40
0.0
 40
0.0
 40
0.0
 40
1.0
 40
1.0
 40
1.0
 40
1.0
 10
-24.20609884332282
 20
3.912022432527165
 30
0.0
 10
-24.20609884332282
 20
3.445612805234257
 30
0.0
 10
-24.11262998013787
 20
3.080149550181096
 30
0.0
 10
-23.92569225376796
 20
2.815632667367683
 30
0.0
  0
SPLINE
  5
2C5
330
37E
100
AcDbEntity
  8
engrave
100
AcDbSpline
210
0.0
220
0.0
230
1.0
 70
     8
 71
     3
 72
     8
 73
     4
 74
     0
 42
0.000000001
 43
0.001
 40
0.0
 40
0.0
 40
0.0
 40
0.0
 40
1.0
 40
1.0
 40
1.0
 40
1.0
 10
-23.92569225376796
 20
2.815632667367683
 30
0.0
 10
-23.70323635938779
 20
2.501577287066246
 30
0.0
 10
-23.38731160182265
 20
2.344549596915527
 30
0.0
 10
-22.97791798107256
 20
2.344549596915527
 30
0.0
  0
SPLINE
  5
2C6
330
37E
100
AcDbEntity
  8
engrave
100
AcDbSpline
210
0.0
220
0.0
230
1.0
 70
     8
 71
     3
 72
     8
 73
     4
 74
     0
 42
0.000000001
 43
0.001
 40
0.0
 40
0.0
 40
0.0
 40
0.0
 40
1.0
 40
1.0
 40
1.0
 40
1.0
 10
-22.97791798107256
 20
2.344549596915527
 30
0.0
 10
-22.5124430424115
 20
2.344549596915527
 30
0.0
 10
-22.09416987965884
 20
2.521205748335086
 30
0.0
 10
-21.72309849281459
 20
2.874518051174203
 30
0.0
  0
SPLINE
  5
2C7
330
37E
100
AcDbEntity
  8
engrave
100
AcDbSpline
210
0.0
220
0.0
230
1.0
 70
     8
 71
     3
 72
     8
 73
     4
 74
     0
 42
0.000000001
 43
0.001
 40
0.0
 40
0.0
 40
0.0
 40
0.0
 40
1.0
 40
1.0
 40
1.0
 40
1.0
 10
-21.72309849281459
 20
2.874518051174203
 30
0.0
 10
-21.29968454258675
 20
3.280172917396892
 30
0.0
 10
-21.08797756747284
 20
3.788176188807103
 30
0.0
 10
-21.08797756747284
 20
4.398527865404837
 30
0.0
  0
LINE
  5
2C8
330
37E
100
AcDbEntity
  8
engrave
100
AcDbLine
 10
-21.08797756747284
 20
4.398527865404837
 30
0.0
 11
-21.08797756747284
 21
9.0
 31
0.0
  0
LINE
  5
2C9
330
37E
100
AcDbEntity
  8
engrave
100
AcDbLine
 10
-21.08797756747284
 20
9.0
 30
0.0
 11
-19.23449001051525
 21
9.0
 31
0.0
  0
LINE
  5
2CA
330
37E
100
AcDbEntity
  8
engrave
100
AcDbLine
 10
-27.17560462670873
 20
9.0
 30
0.0
 11
-31.05082369435682
 21
1.0
 31
0.0
  0
LINE
  5
2CB
330
37E
100
AcDbEntity
  8
engrave
100
AcDbLine
 10
-31.05082369435682
 20
1.0
 30
0.0
 11
-32.60287416754294
 21
1.0
 31
0.0
  0
LINE
  5
2CC
330
37E
100
AcDbEntity
  8
engrave
100
AcDbLine
 10
-32.60287416754294
 20
1.0
 30
0.0
 11
-36.47809323519103
 21
9.0
 31
0.0
  0
LINE
  5
2CD
330
37E
100
AcDbEntity
  8
engrave
100
AcDbLine
 10
-36.47809323519103
 20
9.0
 30
0.0
 11
-34.45075359270943
 21
9.0
 31
0.0
  0
LINE
  5
2CE
330
37E
100
AcDbEntity
  8
engrave
100
AcDbLine
 10
-34.45075359270943
 20
9.0
 30
0.0
 11
-32.92534174553103
 21
5.71223273746933
 31
0.0
  0
LINE
  5
2CF
330
37E
100
AcDbEntity
  8
engrave
100
AcDbLine
 10
-32.92534174553103
 20
5.71223273746933
 30
0.0
 11
-30.5068349106204
 21
5.71223273746933
 31
0.0
  0
LINE
  5
2D0
330
37E
100
AcDbEntity
  8
engrave
100
AcDbLine
 10
-30.5068349106204
 20
5.71223273746933
 30
0.0
 11
-28.94917630564319
 21
9.0
 31
0.0
  0
LINE
  5
2D1
330
37E
100
AcDbEntity
  8
engrave
100
AcDbLine
 10
-28.94917630564319
 20
9.0
 30
0.0
 11
-27.17560462670873
 21
9.0
 31
0.0
  0
LINE
  5
2D2
330
37E
100
AcDbEntity
  8
engrave
100
AcDbLine
 10
-31.66070802663863
 20
2.98527865404837
 30
0.0
 11
-31.17840869260428
 21
4.123729407641079
 31
0.0
  0
LINE
  5
2D3
330
37E
100
AcDbEntity
  8
engrave
100
AcDbLine
 10
-31.17840869260428
 20
4.123729407641079
 30
0.0
 11
-32.18787241500175
 21
4.123729407641079
 31
0.0
  0
LINE
  5
2D4
330
37E
100
AcDbEntity
  8
engrave
100
AcDbLine
 10
-32.18787241500175
 20
4.123729407641079
 30
0.0
 11
-31.66070802663863
 21
2.98527865404837
 31
0.0
  0
SPLINE
  5
2D5
330
37E
100
AcDbEntity
  8
engrave
100
AcDbSpline
210
0.0
220
0.0
230
1.0
 70
     8
 71
     3
 72
     8
 73
     4
 74
     0
 42
0.000000001
 43
0.001
 40
0.0
 40
0.0
 40
0.0
 40
0.0
 40
1.0
 40
1.0
 40
1.0
 40
1.0
 10
-28.0602874167543
 20
-6.824044865054329
 30
0.0
 10
-28.33508587451805
 20
-7.261479144759901
 30
0.0
 10
-28.70054912957121
 20
-7.663862600771118
 30
0.0
 10
-29.15667718191378
 20
-8.031195233087978
 30
0.0
  0
SPLINE
  5
2D6
330
37E
100
AcDbEntity
  8
engrave
100
AcDbSpline
210
0.0
220
0.0
230
1.0
 70
     8
 71
     3
 72
     8
 73
     4
 74
     0
 42
0.000000001
 43
0.001
 40
0.0
 40
0.0
 40
0.0
 40
0.0
 40
1.0
 40
1.0
 40
1.0
 40
1.0
 10
-29.15667718191378
 20
-8.031195233087978
 30
0.0
 10
-30.04556607080266
 20
-8.748101413716556
 30
0.0
 10
-31.13961911438252
 20
-9.106554504030845
 30
0.0
 10
-32.43883631265335
 20
-9.106554504030845
 30
0.0
  0
SPLINE
  5
2D7
330
37E
100
AcDbEntity
  8
engrave
100
AcDbSpline
210
0.0
220
0.0
230
1.0
 70
     8
 71
     3
 72
     8
 73
     4
 74
     0
 42
0.000000001
 43
0.001
 40
0.0
 40
0.0
 40
0.0
 40
0.0
 40
1.0
 40
1.0
 40
1.0
 40
1.0
 10
-32.43883631265335
 20
-9.106554504030845
 30
0.0
 10
-33.67449468395841
 20
-9.106554504030845
 30
0.0
 10
-34.68208902909218
 20
-8.739221871713985
 30
0.0
 10
-35.46161934805468
 20
-8.004556607080266
 30
0.0
  0
SPLINE
  5
2D8
330
37E
100
AcDbEntity
  8
engrave
100
AcDbSpline
210
0.0
220
0.0
230
1.0
 70
     8
 71
     3
 72
     8
 73
     4
 74
     0
 42
0.000000001
 43
0.001
 40
0.0
 40
0.0
 40
0.0
 40
0.0
 40
1.0
 40
1.0
 40
1.0
 40
1.0
 10
-35.46161934805468
 20
-8.004556607080266
 30
0.0
 10
-36.13926860614558
 20
-7.366164271527047
 30
0.0
 10
-36.47809323519103
 20
-6.504848697277719
 30
0.0
 10
-36.47809323519103
 20
-5.420609884332282
 30
0.0
  0
SPLINE
  5
2D9
330
37E
100
AcDbEntity
  8
engrave
100
AcDbSpline
210
0.0
220
0.0
230
1.0
 70
     8
 71
     3
 72
     8
 73
     4
 74
     0
 42
0.000000001
 43
0.001
 40
0.0
 40
0.0
 40
0.0
 40
0.0
 40
1.0
 40
1.0
 40
1.0
 40
1.0
 10
-36.47809323519103
 20
-5.420609884332282
 30
0.0
 10
-36.47809323519103
 20
-4.043813529617946
 30
0.0
 10
-35.90279238228765
 20
-2.893211823811193
 30
0.0
 10
-34.7521906764809
 20
-1.968804766912022
 30
0.0
  0
SPLINE
  5
2DA
330
37E
100
AcDbEntity
  8
engrave
100
AcDbSpline
210
0.0
220
0.0
230
1.0
 70
     8
 71
     3
 72
     8
 73
     4
 74
     0
 42
0.000000001
 43
0.001
 40
0.0
 40
0.0
 40
0.0
 40
0.0
 40
1.0
 40
1.0
 40
1.0
 40
1.0
 10
-34.7521906764809
 20
-1.968804766912022
 30
0.0
 10
-33.85956303306461
 20
-1.251898586283445
 30
0.0
 10
-32.76550998948476
 20
-0.8934454959691553
 30
0.0
 10
-31.47003154574133
 20
-0.8934454959691553
 30
0.0
  0
SPLINE
  5
2DB
330
37E
100
AcDbEntity
  8
engrave
100
AcDbSpline
210
0.0
220
0.0
230
1.0
 70
     8
 71
     3
 72
     8
 73
     4
 74
     0
 42
0.000000001
 43
0.001
 40
0.0
 40
0.0
 40
0.0
 40
0.0
 40
1.0
 40
1.0
 40
1.0
 40
1.0
 10
-31.47003154574133
 20
-0.8934454959691553
 30
0.0
 10
-30.23811192896367
 20
-0.8934454959691553
 30
0.0
 10
-29.23051758382989
 20
-1.260778128286015
 30
0.0
 10
-28.44724851034
 20
-1.995443392919734
 30
0.0
  0
SPLINE
  5
2DC
330
37E
100
AcDbEntity
  8
engrave
100
AcDbSpline
210
0.0
220
0.0
230
1.0
 70
     8
 71
     3
 72
     8
 73
     4
 74
     0
 42
0.000000001
 43
0.001
 40
0.0
 40
0.0
 40
0.0
 40
0.0
 40
1.0
 40
1.0
 40
1.0
 40
1.0
 10
-28.44724851034
 20
-1.995443392919734
 30
0.0
 10
-28.27713517934338
 20
-2.154340460334151
 30
0.0
 10
-28.12851968687931
 20
-2.327257857226312
 30
0.0
 10
-28.00140203294777
 20
-2.514195583596214
 30
0.0
  0
LINE
  5
2DD
330
37E
100
AcDbEntity
  8
engrave
100
AcDbLine
 10
-28.00140203294777
 20
-2.514195583596214
 30
0.0
 11
-29.58009113214161
 21
-3.450753592709429
 31
0.0
  0
SPLINE
  5
2DE
330
37E
100
AcDbEntity
  8
engrave
100
AcDbSpline
210
0.0
220
0.0
230
1.0
 70
     8
 71
     3
 72
     8
 73
     4
 74
     0
 42
0.000000001
 43
0.001
 40
0.0
 40
0.0
 40
0.0
 40
0.0
 40
1.0
 40
1.0
 40
1.0
 40
1.0
 10
-29.58009113214161
 20
-3.450753592709429
 30
0.0
 10
-29.66795186353546
 20
-3.275032129921719
 30
0.0
 10
-29.77917981072555
 20
-3.116135062507301
 30
0.0
 10
-29.91377497371188
 20
-2.974062390466176
 30
0.0
  0
SPLINE
  5
2DF
330
37E
100
AcDbEntity
  8
engrave
100
AcDbSpline
210
0.0
220
0.0
230
1.0
 70
     8
 71
     3
 72
     8
 73
     4
 74
     0
 42
0.000000001
 43
0.001
 40
0.0
 40
0.0
 40
0.0
 40
0.0
 40
1.0
 40
1.0
 40
1.0
 40
1.0
 10
-29.91377497371188
 20
-2.974062390466176
 30
0.0
 10
-30.31569108540717
 20
-2.550648440238345
 30
0.0
 10
-30.83444327608366
 20
-2.33894146512443
 30
0.0
 10
-31.47003154574133
 20
-2.33894146512443
 30
0.0
  0
SPLINE
  5
2E0
330
37E
100
AcDbEntity
  8
engrave
100
AcDbSpline
210
0.0
220
0.0
230
1.0
 70
     8
 71
     3
 72
     8
 73
     4
 74
     0
 42
0.000000001
 43
0.001
 40
0.0
 40
0.0
 40
0.0
 40
0.0
 40
1.0
 40
1.0
 40
1.0
 40
1.0
 10
-31.47003154574133
 20
-2.33894146512443
 30
0.0
 10
-32.35985512326207
 20
-2.33894146512443
 30
0.0
 10
-33.06554504030845
 20
-2.58242785372123
 30
0.0
 10
-33.58710129688048
 20
-3.069400630914826
 30
0.0
  0
SPLINE
  5
2E1
330
37E
100
AcDbEntity
  8
engrave
100
AcDbSpline
210
0.0
220
0.0
230
1.0
 70
     8
 71
     3
 72
     8
 73
     4
 74
     0
 42
0.000000001
 43
0.001
 40
0.0
 40
0.0
 40
0.0
 40
0.0
 40
1.0
 40
1.0
 40
1.0
 40
1.0
 10
-33.58710129688048
 20
-3.069400630914826
 30
0.0
 10
-34.24418740507069
 20
-3.684425750671807
 30
0.0
 10
-34.57273045916579
 20
-4.457880593527282
 30
0.0
 10
-34.57273045916579
 20
-5.389765159481247
 30
0.0
  0
SPLINE
  5
2E2
330
37E
100
AcDbEntity
  8
engrave
100
AcDbSpline
210
0.0
220
0.0
230
1.0
 70
     8
 71
     3
 72
     8
 73
     4
 74
     0
 42
0.000000001
 43
0.001
 40
0.0
 40
0.0
 40
0.0
 40
0.0
 40
1.0
 40
1.0
 40
1.0
 40
1.0
 10
-34.57273045916579
 20
-5.389765159481247
 30
0.0
 10
-34.57273045916579
 20
-6.084238812945438
 30
0.0
 10
-34.38018460100479
 20
-6.631031662577403
 30
0.0
 10
-33.99509288468279
 20
-7.030143708377148
 30
0.0
  0
SPLINE
  5
2E3
330
37E
100
AcDbEntity
  8
engrave
100
AcDbSpline
210
0.0
220
0.0
230
1.0
 70
     8
 71
     3
 72
     8
 73
     4
 74
     0
 42
0.000000001
 43
0.001
 40
0.0
 40
0.0
 40
0.0
 40
0.0
 40
1.0
 40
1.0
 40
1.0
 40
1.0
 10
-33.99509288468279
 20
-7.030143708377148
 30
0.0
 10
-33.5894380184601
 20
-7.450753592709429
 30
0.0
 10
-33.07068582778362
 20
-7.66105853487557
 30
0.0
 10
-32.43883631265335
 20
-7.66105853487557
 30
0.0
  0
SPLINE
  5
2E4
330
37E
100
AcDbEntity
  8
engrave
100
AcDbSpline
210
0.0
220
0.0
230
1.0
 70
     8
 71
     3
 72
     8
 73
     4
 74
     0
 42
0.000000001
 43
0.001
 40
0.0
 40
0.0
 40
0.0
 40
0.0
 40
1.0
 40
1.0
 40
1.0
 40
1.0
 10
-32.43883631265335
 20
-7.66105853487557
 30
0.0
 10
-31.60228998714803
 20
-7.66105853487557
 30
0.0
 10
-30.89613272578573
 20
-7.417104801962846
 30
0.0
 10
-30.32036452856642
 20
-6.929197336137399
 30
0.0
  0
SPLINE
  5
2E5
330
37E
100
AcDbEntity
  8
engrave
100
AcDbSpline
210
0.0
220
0.0
230
1.0
 70
     8
 71
     3
 72
     8
 73
     4
 74
     0
 42
0.000000001
 43
0.001
 40
0.0
 40
0.0
 40
0.0
 40
0.0
 40
1.0
 40
1.0
 40
1.0
 40
1.0
 10
-30.32036452856642
 20
-6.929197336137399
 30
0.0
 10
-29.95022783035402
 20
-6.615141955835963
 30
0.0
 10
-29.6838415702769
 20
-6.232386961093586
 30
0.0
 10
-29.52120574833509
 20
-5.78093235191027
 30
0.0
  0
LINE
  5
2E6
330
37E
100
AcDbEntity
  8
engrave
100
AcDbLine
 10
-29.52120574833509
 20
-5.78093235191027
 30
0.0
 11
-28.0602874167543
 21
-6.824044865054329
 31
0.0
  0
LINE
  5
2E7
330
37E
100
AcDbEntity
  8
engrave
100
AcDbLine
 10
-26.52786540483702
 20
-9.0
 30
0.0
 11
-26.52786540483702
 21
-2.382404486505433
 31
0.0
  0
SPLINE
  5
2E8
330
37E
100
AcDbEntity
  8
engrave
100
AcDbSpline
210
0.0
220
0.0
230
1.0
 70
     8
 71
     3
 72
     8
 73
     4
 74
     0
 42
0.000000001
 43
0.001
 40
0.0
 40
0.0
 40
0.0
 40
0.0
 40
1.0
 40
1.0
 40
1.0
 40
1.0
 10
-26.52786540483702
 20
-2.382404486505433
 30
0.0
 10
-26.52786540483702
 20
-1.746816216847763
 30
0.0
 10
-26.82790045566071
 20
-1.321065545040309
 30
0.0
 10
-27.4279705573081
 20
-1.10515247108307
 30
0.0
  0
LINE
  5
2E9
330
37E
100
AcDbEntity
  8
engrave
100
AcDbLine
 10
-27.4279705573081
 20
-1.10515247108307
 30
0.0
 11
-27.4279705573081
 21
-1.0
 31
0.0
  0
LINE
  5
2EA
330
37E
100
AcDbEntity
  8
engrave
100
AcDbLine
 10
-27.4279705573081
 20
-1.0
 30
0.0
 11
-25.3950227830354
 21
-1.0
 31
0.0
  0
SPLINE
  5
2EB
330
37E
100
AcDbEntity
  8
engrave
100
AcDbSpline
210
0.0
220
0.0
230
1.0
 70
     8
 71
     3
 72
     8
 73
     4
 74
     0
 42
0.000000001
 43
0.001
 40
0.0
 40
0.0
 40
0.0
 40
0.0
 40
1.0
 40
1.0
 40
1.0
 40
1.0
 10
-25.3950227830354
 20
-1.0
 30
0.0
 10
-24.91459282626475
 20
-1.286014721345952
 30
0.0
 10
-24.67437784787943
 20
-1.746816216847763
 30
0.0
 10
-24.67437784787943
 20
-2.382404486505433
 30
0.0
  0
LINE
  5
2EC
330
37E
100
AcDbEntity
  8
engrave
100
AcDbLine
 10
-24.67437784787943
 20
-2.382404486505433
 30
0.0
 11
-24.67437784787943
 21
-4.123729407641079
 31
0.0
  0
LINE
  5
2ED
330
37E
100
AcDbEntity
  8
engrave
100
AcDbLine
 10
-24.67437784787943
 20
-4.123729407641079
 30
0.0
 11
-21.38100245355766
 21
-4.123729407641079
 31
0.0
  0
LINE
  5
2EE
330
37E
100
AcDbEntity
  8
engrave
100
AcDbLine
 10
-21.38100245355766
 20
-4.123729407641079
 30
0.0
 11
-21.38100245355766
 21
-1.0
 31
0.0
  0
LINE
  5
2EF
330
37E
100
AcDbEntity
  8
engrave
100
AcDbLine
 10
-21.38100245355766
 20
-1.0
 30
0.0
 11
-19.52751489660007
 21
-1.0
 31
0.0
  0
LINE
  5
2F0
330
37E
100
AcDbEntity
  8
engrave
100
AcDbLine
 10
-19.52751489660007
 20
-1.0
 30
0.0
 11
-19.52751489660007
 21
-7.617595513494567
 31
0.0
  0
SPLINE
  5
2F1
330
37E
100
AcDbEntity
  8
engrave
100
AcDbSpline
210
0.0
220
0.0
230
1.0
 70
     8
 71
     3
 72
     8
 73
     4
 74
     0
 42
0.000000001
 43
0.001
 40
0.0
 40
0.0
 40
0.0
 40
0.0
 40
1.0
 40
1.0
 40
1.0
 40
1.0
 10
-19.52751489660007
 20
-7.617595513494567
 30
0.0
 10
-19.52751489660007
 20
-8.253183783152236
 30
0.0
 10
-19.22747984577638
 20
-8.678467110643767
 30
0.0
 10
-18.62740974412899
 20
-8.893445495969155
 30
0.0
  0
LINE
  5
2F2
330
37E
100
AcDbEntity
  8
engrave
100
AcDbLine
 10
-18.62740974412899
 20
-8.893445495969155
 30
0.0
 11
-18.62740974412899
 21
-9.0
 31
0.0
  0
LINE
  5
2F3
330
37E
100
AcDbEntity
  8
engrave
100
AcDbLine
 10
-18.62740974412899
 20
-9.0
 30
0.0
 11
-20.66175955134946
 21
-9.0
 31
0.0
  0
SPLINE
  5
2F4
330
37E
100
AcDbEntity
  8
engrave
100
AcDbSpline
210
0.0
220
0.0
230
1.0
 70
     8
 71
     3
 72
     8
 73
     4
 74
     0
 42
0.000000001
 43
0.001
 40
0.0
 40
0.0
 40
0.0
 40
0.0
 40
1.0
 40
1.0
 40
1.0
 40
1.0
 10
-20.66175955134946
 20
-9.0
 30
0.0
 10
-21.14125481948826
 20
-8.713985278654048
 30
0.0
 10
-21.38100245355766
 20
-8.253183783152236
 30
0.0
 10
-21.38100245355766
 20
-7.617595513494567
 30
0.0
  0
LINE
  5
2F5
330
37E
100
AcDbEntity
  8
engrave
100
AcDbLine
 10
-21.38100245355766
 20
-7.617595513494567
 30
0.0
 11
-21.38100245355766
 21
-5.71223273746933
 31
0.0
  0
LINE
  5
2F6
330
37E
100
AcDbEntity
  8
engrave
100
AcDbLine
 10
-21.38100245355766
 20
-5.71223273746933
 30
0.0
 11
-24.67437784787943
 21
-5.71223273746933
 31
0.0
  0
LINE
  5
2F7
330
37E
100
AcDbEntity
  8
engrave
100
AcDbLine
 10
-24.67437784787943
 20
-5.71223273746933
 30
0.0
 11
-24.67437784787943
 21
-9.0
 31
0.0
  0
LINE
  5
2F8
330
37E
100
AcDbEntity
  8
engrave
100
AcDbLine
 10
-24.67437784787943
 20
-9.0
 30
0.0
 11
-26.52786540483702
 21
-9.0
 31
0.0
  0
LINE
  5
2F9
330
37E
100
AcDbEntity
  8
engrave
100
AcDbLine
 10
-17.37539432176656
 20
-9.0
 30
0.0
 11
-17.37539432176656
 21
-2.382404486505433
 31
0.0
  0
SPLINE
  5
2FA
330
37E
100
AcDbEntity
  8
engrave
100
AcDbSpline
210
0.0
220
0.0
230
1.0
 70
     8
 71
     3
 72
     8
 73
     4
 74
     0
 42
0.000000001
 43
0.001
 40
0.0
 40
0.0
 40
0.0
 40
0.0
 40
1.0
 40
1.0
 40
1.0
 40
1.0
 10
-17.37539432176656
 20
-2.382404486505433
 30
0.0
 10
-17.37539432176656
 20
-1.746816216847763
 30
0.0
 10
-17.67542937259025
 20
-1.321065545040309
 30
0.0
 10
-18.27549947423764
 20
-1.10515247108307
 30
0.0
  0
LINE
  5
2FB
330
37E
100
AcDbEntity
  8
engrave
100
AcDbLine
 10
-18.27549947423764
 20
-1.10515247108307
 30
0.0
 11
-18.27549947423764
 21
-1.0
 31
0.0
  0
LINE
  5
2FC
330
37E
100
AcDbEntity
  8
engrave
100
AcDbLine
 10
-18.27549947423764
 20
-1.0
 30
0.0
 11
-16.24255169996495
 21
-1.0
 31
0.0
  0
SPLINE
  5
2FD
330
37E
100
AcDbEntity
  8
engrave
100
AcDbSpline
210
0.0
220
0.0
230
1.0
 70
     8
 71
     3
 72
     8
 73
     4
 74
     0
 42
0.000000001
 43
0.001
 40
0.0
 40
0.0
 40
0.0
 40
0.0
 40
1.0
 40
1.0
 40
1.0
 40
1.0
 10
-16.24255169996495
 20
-1.0
 30
0.0
 10
-15.7621217431943
 20
-1.286014721345952
 30
0.0
 10
-15.52190676480897
 20
-1.746816216847763
 30
0.0
 10
-15.52190676480897
 20
-2.382404486505433
 30
0.0
  0
LINE
  5
2FE
330
37E
100
AcDbEntity
  8
engrave
100
AcDbLine
 10
-15.52190676480897
 20
-2.382404486505433
 30
0.0
 11
-15.52190676480897
 21
-9.0
 31
0.0
  0
LINE
  5
2FF
330
37E
100
AcDbEntity
  8
engrave
100
AcDbLine
 10
-15.52190676480897
 20
-9.0
 30
0.0
 11
-17.37539432176656
 21
-9.0
 31
0.0
  0
LINE
  5
300
330
37E
100
AcDbEntity
  8
engrave
100
AcDbLine
 10
-13.42726954083421
 20
-9.0
 30
0.0
 11
-13.42726954083421
 21
-2.382404486505433
 31
0.0
  0
SPLINE
  5
301
330
37E
100
AcDbEntity
  8
engrave
100
AcDbSpline
210
0.0
220
0.0
230
1.0
 70
     8
 71
     3
 72
     8
 73
     4
 74
     0
 42
0.000000001
 43
0.001
 40
0.0
 40
0.0
 40
0.0
 40
0.0
 40
1.0
 40
1.0
 40
1.0
 40
1.0
 10
-13.42726954083421
 20
-2.382404486505433
 30
0.0
 10
-13.42726954083421
 20
-1.746816216847763
 30
0.0
 10
-13.72730459165791
 20
-1.321065545040309
 30
0.0
 10
-14.32737469330529
 20
-1.10515247108307
 30
0.0
  0
LINE
  5
302
330
37E
100
AcDbEntity
  8
engrave
100
AcDbLine
 10
-14.32737469330529
 20
-1.10515247108307
 30
0.0
 11
-14.32737469330529
 21
-1.0
 31
0.0
  0
LINE
  5
303
330
37E
100
AcDbEntity
  8
engrave
100
AcDbLine
 10
-14.32737469330529
 20
-1.0
 30
0.0
 11
-12.2944269190326
 21
-1.0
 31
0.0
  0
SPLINE
  5
304
330
37E
100
AcDbEntity
  8
engrave
100
AcDbSpline
210
0.0
220
0.0
230
1.0
 70
     8
 71
     3
 72
     8
 73
     4
 74
     0
 42
0.000000001
 43
0.001
 40
0.0
 40
0.0
 40
0.0
 40
0.0
 40
1.0
 40
1.0
 40
1.0
 40
1.0
 10
-12.2944269190326
 20
-1.0
 30
0.0
 10
-12.04299567706508
 20
-1.148615492464073
 30
0.0
 10
-11.85745998364295
 20
-1.346302138100246
 30
0.0
 10
-11.73781983876621
 20
-1.593059936908517
 30
0.0
  0
SPLINE
  5
305
330
37E
100
AcDbEntity
  8
engrave
100
AcDbSpline
210
0.0
220
0.0
230
1.0
 70
     8
 71
     3
 72
     8
 73
     4
 74
     0
 42
0.000000001
 43
0.001
 40
0.0
 40
0.0
 40
0.0
 40
0.0
 40
1.0
 40
1.0
 40
1.0
 40
1.0
 10
-11.73781983876621
 20
-1.593059936908517
 30
0.0
 10
-11.50882112396308
 20
-1.45192195349924
 30
0.0
 10
-11.25458581610001
 20
-1.328543054095103
 30
0.0
 10
-10.97511391517701
 20
-1.222923238696109
 30
0.0
  0
SPLINE
  5
306
330
37E
100
AcDbEntity
  8
engrave
100
AcDbSpline
210
0.0
220
0.0
230
1.0
 70
     8
 71
     3
 72
     8
 73
     4
 74
     0
 42
0.000000001
 43
0.001
 40
0.0
 40
0.0
 40
0.0
 40
0.0
 40
1.0
 40
1.0
 40
1.0
 40
1.0
 10
-10.97511391517701
 20
-1.222923238696109
 30
0.0
 10
-10.40028040658956
 20
-1.003271410211473
 30
0.0
 10
-9.870779296646802
 20
-0.8934454959691553
 30
0.0
 10
-9.386610585348755
 20
-0.8934454959691553
 30
0.0
  0
SPLINE
  5
307
330
37E
100
AcDbEntity
  8
engrave
100
AcDbSpline
210
0.0
220
0.0
230
1.0
 70
     8
 71
     3
 72
     8
 73
     4
 74
     0
 42
0.000000001
 43
0.001
 40
0.0
 40
0.0
 40
0.0
 40
0.0
 40
1.0
 40
1.0
 40
1.0
 40
1.0
 10
-9.386610585348755
 20
-0.8934454959691553
 30
0.0
 10
-8.575300852903375
 20
-0.8934454959691553
 30
0.0
 10
-7.895782217548781
 20
-1.145811426568525
 30
0.0
 10
-7.348054679284964
 20
-1.650543287767262
 30
0.0
  0
SPLINE
  5
308
330
37E
100
AcDbEntity
  8
engrave
100
AcDbSpline
210
0.0
220
0.0
230
1.0
 70
     8
 71
     3
 72
     8
 73
     4
 74
     0
 42
0.000000001
 43
0.001
 40
0.0
 40
0.0
 40
0.0
 40
0.0
 40
1.0
 40
1.0
 40
1.0
 40
1.0
 10
-7.348054679284964
 20
-1.650543287767262
 30
0.0
 10
-7.260193947891107
 20
-1.73186119873817
 30
0.0
 10
-7.182614791447598
 20
-1.818319897184251
 30
0.0
 10
-7.115317209954434
 20
-1.909919383105503
 30
0.0
  0
SPLINE
  5
309
330
37E
100
AcDbEntity
  8
engrave
100
AcDbSpline
210
0.0
220
0.0
230
1.0
 70
     8
 71
     3
 72
     8
 73
     4
 74
     0
 42
0.000000001
 43
0.001
 40
0.0
 40
0.0
 40
0.0
 40
0.0
 40
1.0
 40
1.0
 40
1.0
 40
1.0
 10
-7.115317209954434
 20
-1.909919383105503
 30
0.0
 10
-6.882579740623903
 20
-1.688398177357167
 30
0.0
 10
-6.625073022549362
 20
-1.483701366982124
 30
0.0
 10
-6.342797055730809
 20
-1.295828951980371
 30
0.0
  0
SPLINE
  5
30A
330
37E
100
AcDbEntity
  8
engrave
100
AcDbSpline
210
0.0
220
0.0
230
1.0
 70
     8
 71
     3
 72
     8
 73
     4
 74
     0
 42
0.000000001
 43
0.001
 40
0.0
 40
0.0
 40
0.0
 40
0.0
 40
1.0
 40
1.0
 40
1.0
 40
1.0
 10
-6.342797055730809
 20
-1.295828951980371
 30
0.0
 10
-5.937142189508123
 20
-1.027573314639561
 30
0.0
 10
-5.44315924757565
 20
-0.8934454959691553
 30
0.0
 10
-4.860848229933403
 20
-0.8934454959691553
 30
0.0
  0
SPLINE
  5
30B
330
37E
100
AcDbEntity
  8
engrave
100
AcDbSpline
210
0.0
220
0.0
230
1.0
 70
     8
 71
     3
 72
     8
 73
     4
 74
     0
 42
0.000000001
 43
0.001
 40
0.0
 40
0.0
 40
0.0
 40
0.0
 40
1.0
 40
1.0
 40
1.0
 40
1.0
 10
-4.860848229933403
 20
-0.8934454959691553
 30
0.0
 10
-3.766327842037619
 20
-0.8934454959691553
 30
0.0
 10
-2.857343147563967
 20
-1.271527047552285
 30
0.0
 10
-2.133894146512439
 20
-2.027690150718541
 30
0.0
  0
SPLINE
  5
30C
330
37E
100
AcDbEntity
  8
engrave
100
AcDbSpline
210
0.0
220
0.0
230
1.0
 70
     8
 71
     3
 72
     8
 73
     4
 74
     0
 42
0.000000001
 43
0.001
 40
0.0
 40
0.0
 40
0.0
 40
0.0
 40
1.0
 40
1.0
 40
1.0
 40
1.0
 10
-2.133894146512439
 20
-2.027690150718541
 30
0.0
 10
-1.466526463371892
 20
-2.722163804182731
 30
0.0
 10
-1.132842621801615
 20
-3.591891576118705
 30
0.0
 10
-1.132842621801615
 20
-4.636873466526463
 30
0.0
  0
SPLINE
  5
30D
330
37E
100
AcDbEntity
  8
engrave
100
AcDbSpline
210
0.0
220
0.0
230
1.0
 70
     8
 71
     3
 72
     8
 73
     4
 74
     0
 42
0.000000001
 43
0.001
 40
0.0
 40
0.0
 40
0.0
 40
0.0
 40
1.0
 40
1.0
 40
1.0
 40
1.0
 10
-1.132842621801615
 20
-4.636873466526463
 30
0.0
 10
-1.132842621801615
 20
-5.572496787007829
 30
0.0
 10
-1.358569926393272
 20
-6.438953148732327
 30
0.0
 10
-1.810024535576588
 20
-7.236242551699965
 30
0.0
  0
SPLINE
  5
30E
330
37E
100
AcDbEntity
  8
engrave
100
AcDbSpline
210
0.0
220
0.0
230
1.0
 70
     8
 71
     3
 72
     8
 73
     4
 74
     0
 42
0.000000001
 43
0.001
 40
0.0
 40
0.0
 40
0.0
 40
0.0
 40
1.0
 40
1.0
 40
1.0
 40
1.0
 10
-1.810024535576588
 20
-7.236242551699965
 30
0.0
 10
-2.11379834092768
 20
-7.772753826381587
 30
0.0
 10
-2.542820422946605
 20
-8.360672975814932
 30
0.0
 10
-3.097090781633369
 20
-9.0
 30
0.0
  0
LINE
  5
30F
330
37E
100
AcDbEntity
  8
engrave
100
AcDbLine
 10
-3.097090781633369
 20
-9.0
 30
0.0
 11
-5.320715036803364
 21
-9.0
 31
0.0
  0
SPLINE
  5
310
330
37E
100
AcDbEntity
  8
engrave
100
AcDbSpline
210
0.0
220
0.0
230
1.0
 70
     8
 71
     3
 72
     8
 73
     4
 74
     0
 42
0.000000001
 43
0.001
 40
0.0
 40
0.0
 40
0.0
 40
0.0
 40
1.0
 40
1.0
 40
1.0
 40
1.0
 10
-5.320715036803364
 20
-9.0
 30
0.0
 10
-4.541184717840871
 20
-8.435448066362893
 30
0.0
 10
-3.925224909452041
 20
-7.704988900572497
 30
0.0
 10
-3.472835611636874
 20
-6.808622502628811
 30
0.0
  0
SPLINE
  5
311
330
37E
100
AcDbEntity
  8
engrave
100
AcDbSpline
210
0.0
220
0.0
230
1.0
 70
     8
 71
     3
 72
     8
 73
     4
 74
     0
 42
0.000000001
 43
0.001
 40
0.0
 40
0.0
 40
0.0
 40
0.0
 40
1.0
 40
1.0
 40
1.0
 40
1.0
 10
-3.472835611636874
 20
-6.808622502628811
 30
0.0
 10
-3.18308213576352
 20
-6.23285430540951
 30
0.0
 10
-3.03820539782685
 20
-5.560345834793783
 30
0.0
 10
-3.03820539782685
 20
-4.791097090781633
 30
0.0
  0
SPLINE
  5
312
330
37E
100
AcDbEntity
  8
engrave
100
AcDbSpline
210
0.0
220
0.0
230
1.0
 70
     8
 71
     3
 72
     8
 73
     4
 74
     0
 42
0.000000001
 43
0.001
 40
0.0
 40
0.0
 40
0.0
 40
0.0
 40
1.0
 40
1.0
 40
1.0
 40
1.0
 10
-3.03820539782685
 20
-4.791097090781633
 30
0.0
 10
-3.03820539782685
 20
-4.056431826147914
 30
0.0
 10
-3.20598200724384
 20
-3.47739221871714
 30
0.0
 10
-3.541535226077812
 20
-3.05397826848931
 30
0.0
  0
SPLINE
  5
313
330
37E
100
AcDbEntity
  8
engrave
100
AcDbSpline
210
0.0
220
0.0
230
1.0
 70
     8
 71
     3
 72
     8
 73
     4
 74
     0
 42
0.000000001
 43
0.001
 40
0.0
 40
0.0
 40
0.0
 40
0.0
 40
1.0
 40
1.0
 40
1.0
 40
1.0
 10
-3.541535226077812
 20
-3.05397826848931
 30
0.0
 10
-3.898586283444331
 20
-2.602523659305993
 30
0.0
 10
-4.339759317677299
 20
-2.376796354714335
 30
0.0
 10
-4.865054328776729
 20
-2.376796354714335
 30
0.0
  0
SPLINE
  5
314
330
37E
100
AcDbEntity
  8
engrave
100
AcDbSpline
210
0.0
220
0.0
230
1.0
 70
     8
 71
     3
 72
     8
 73
     4
 74
     0
 42
0.000000001
 43
0.001
 40
0.0
 40
0.0
 40
0.0
 40
0.0
 40
1.0
 40
1.0
 40
1.0
 40
1.0
 10
-4.865054328776729
 20
-2.376796354714335
 30
0.0
 10
-5.327725201542236
 20
-2.376796354714335
 30
0.0
 10
-5.728706624605678
 20
-2.517934338123613
 30
0.0
 10
-6.067998597967051
 20
-2.800210304942166
 30
0.0
  0
SPLINE
  5
315
330
37E
100
AcDbEntity
  8
engrave
100
AcDbSpline
210
0.0
220
0.0
230
1.0
 70
     8
 71
     3
 72
     8
 73
     4
 74
     0
 42
0.000000001
 43
0.001
 40
0.0
 40
0.0
 40
0.0
 40
0.0
 40
1.0
 40
1.0
 40
1.0
 40
1.0
 10
-6.067998597967051
 20
-2.800210304942166
 30
0.0
 10
-6.43439654165206
 20
-3.106788176188807
 30
0.0
 10
-6.617595513494567
 20
-3.567589671690619
 30
0.0
 10
-6.617595513494567
 20
-4.182614791447599
 30
0.0
  0
LINE
  5
316
330
37E
100
AcDbEntity
  8
engrave
100
AcDbLine
 10
-6.617595513494567
 20
-4.182614791447599
 30
0.0
 11
-6.617595513494567
 21
-9.0
 31
0.0
  0
LINE
  5
317
330
37E
100
AcDbEntity
  8
engrave
100
AcDbLine
 10
-6.617595513494567
 20
-9.0
 30
0.0
 11
-8.471083070452156
 21
-9.0
 31
0.0
  0
LINE
  5
318
330
37E
100
AcDbEntity
  8
engrave
100
AcDbLine
 10
-8.471083070452156
 20
-9.0
 30
0.0
 11
-8.471083070452156
 21
-3.429723098492815
 31
0.0
  0
SPLINE
  5
319
330
37E
100
AcDbEntity
  8
engrave
100
AcDbSpline
210
0.0
220
0.0
230
1.0
 70
     8
 71
     3
 72
     8
 73
     4
 74
     0
 42
0.000000001
 43
0.001
 40
0.0
 40
0.0
 40
0.0
 40
0.0
 40
1.0
 40
1.0
 40
1.0
 40
1.0
 10
-8.471083070452156
 20
-3.429723098492815
 30
0.0
 10
-8.471083070452156
 20
-3.080149550181096
 30
0.0
 10
-8.562682556373407
 20
-2.817502044631381
 30
0.0
 10
-8.745881528215914
 20
-2.641780581843673
 30
0.0
  0
SPLINE
  5
31A
330
37E
100
AcDbEntity
  8
engrave
100
AcDbSpline
210
0.0
220
0.0
230
1.0
 70
     8
 71
     3
 72
     8
 73
     4
 74
     0
 42
0.000000001
 43
0.001
 40
0.0
 40
0.0
 40
0.0
 40
0.0
 40
1.0
 40
1.0
 40
1.0
 40
1.0
 10
-8.745881528215914
 20
-2.641780581843673
 30
0.0
 10
-8.950578338590958
 20
-2.443626591891577
 30
0.0
 10
-9.19453207150368
 20
-2.344549596915527
 30
0.0
 10
-9.477742726954084
 20
-2.344549596915527
 30
0.0
  0
SPLINE
  5
31B
330
37E
100
AcDbEntity
  8
engrave
100
AcDbSpline
210
0.0
220
0.0
230
1.0
 70
     8
 71
     3
 72
     8
 73
     4
 74
     0
 42
0.000000001
 43
0.001
 40
0.0
 40
0.0
 40
0.0
 40
0.0
 40
1.0
 40
1.0
 40
1.0
 40
1.0
 10
-9.477742726954084
 20
-2.344549596915527
 30
0.0
 10
-10.04883748101414
 20
-2.344549596915527
 30
0.0
 10
-10.53066947073256
 20
-2.496436499591073
 30
0.0
 10
-10.92323869610936
 20
-2.800210304942166
 30
0.0
  0
SPLINE
  5
31C
330
37E
100
AcDbEntity
  8
engrave
100
AcDbSpline
210
0.0
220
0.0
230
1.0
 70
     8
 71
     3
 72
     8
 73
     4
 74
     0
 42
0.000000001
 43
0.001
 40
0.0
 40
0.0
 40
0.0
 40
0.0
 40
1.0
 40
1.0
 40
1.0
 40
1.0
 10
-10.92323869610936
 20
-2.800210304942166
 30
0.0
 10
-11.35693422128753
 20
-3.135763523776141
 30
0.0
 10
-11.57378198387662
 20
-3.596565019277953
 30
0.0
 10
-11.57378198387662
 20
-4.182614791447599
 30
0.0
  0
LINE
  5
31D
330
37E
100
AcDbEntity
  8
engrave
100
AcDbLine
 10
-11.57378198387662
 20
-4.182614791447599
 30
0.0
 11
-11.57378198387662
 21
-9.0
 31
0.0
  0
LINE
  5
31E
330
37E
100
AcDbEntity
  8
engrave
100
AcDbLine
 10
-11.57378198387662
 20
-9.0
 30
0.0
 11
-13.42726954083421
 21
-9.0
 31
0.0
  0
LINE
  5
31F
330
37E
100
AcDbEntity
  8
engrave
100
AcDbLine
 10
-0.5509989484752893
 20
-9.0
 30
0.0
 11
3.3242201191728
 21
-1.0
 31
0.0
  0
LINE
  5
320
330
37E
100
AcDbEntity
  8
engrave
100
AcDbLine
 10
3.3242201191728
 20
-1.0
 30
0.0
 11
4.876270592358921
 21
-1.0
 31
0.0
  0
LINE
  5
321
330
37E
100
AcDbEntity
  8
engrave
100
AcDbLine
 10
4.876270592358921
 20
-1.0
 30
0.0
 11
8.75148966000701
 21
-9.0
 31
0.0
  0
LINE
  5
322
330
37E
100
AcDbEntity
  8
engrave
100
AcDbLine
 10
8.75148966000701
 20
-9.0
 30
0.0
 11
6.72415001752541
 21
-9.0
 31
0.0
  0
LINE
  5
323
330
37E
100
AcDbEntity
  8
engrave
100
AcDbLine
 10
6.72415001752541
 20
-9.0
 30
0.0
 11
5.198738170347006
 21
-5.71223273746933
 31
0.0
  0
LINE
  5
324
330
37E
100
AcDbEntity
  8
engrave
100
AcDbLine
 10
5.198738170347006
 20
-5.71223273746933
 30
0.0
 11
2.780231335436383
 21
-5.71223273746933
 31
0.0
  0
LINE
  5
325
330
37E
100
AcDbEntity
  8
engrave
100
AcDbLine
 10
2.780231335436383
 20
-5.71223273746933
 30
0.0
 11
1.22257273045917
 21
-9.0
 31
0.0
  0
LINE
  5
326
330
37E
100
AcDbEntity
  8
engrave
100
AcDbLine
 10
1.22257273045917
 20
-9.0
 30
0.0
 11
-0.5509989484752893
 21
-9.0
 31
0.0
  0
LINE
  5
327
330
37E
100
AcDbEntity
  8
engrave
100
AcDbLine
 10
3.934104451454608
 20
-2.98527865404837
 30
0.0
 11
3.451805117420257
 21
-4.123729407641079
 31
0.0
  0
LINE
  5
328
330
37E
100
AcDbEntity
  8
engrave
100
AcDbLine
 10
3.451805117420257
 20
-4.123729407641079
 30
0.0
 11
4.461268839817734
 21
-4.123729407641079
 31
0.0
  0
LINE
  5
329
330
37E
100
AcDbEntity
  8
engrave
100
AcDbLine
 10
4.461268839817734
 20
-4.123729407641079
 30
0.0
 11
3.934104451454608
 21
-2.98527865404837
 31
0.0
  0
SPLINE
  5
32A
330
37E
100
AcDbEntity
  8
engrave
100
AcDbSpline
210
0.0
220
0.0
230
1.0
 70
     8
 71
     3
 72
     8
 73
     4
 74
     0
 42
0.000000001
 43
0.001
 40
0.0
 40
0.0
 40
0.0
 40
0.0
 40
1.0
 40
1.0
 40
1.0
 40
1.0
 10
17.70206799859797
 20
-6.824044865054329
 30
0.0
 10
17.42726954083421
 20
-7.261479144759901
 30
0.0
 10
17.06180628578105
 20
-7.663862600771118
 30
0.0
 10
16.60567823343849
 20
-8.031195233087978
 30
0.0
  0
SPLINE
  5
32B
330
37E
100
AcDbEntity
  8
engrave
100
AcDbSpline
210
0.0
220
0.0
230
1.0
 70
     8
 71
     3
 72
     8
 73
     4
 74
     0
 42
0.000000001
 43
0.001
 40
0.0
 40
0.0
 40
0.0
 40
0.0
 40
1.0
 40
1.0
 40
1.0
 40
1.0
 10
16.60567823343849
 20
-8.031195233087978
 30
0.0
 10
15.7167893445496
 20
-8.748101413716556
 30
0.0
 10
14.62273630096974
 20
-9.106554504030845
 30
0.0
 10
13.32351910269892
 20
-9.106554504030845
 30
0.0
  0
SPLINE
  5
32C
330
37E
100
AcDbEntity
  8
engrave
100
AcDbSpline
210
0.0
220
0.0
230
1.0
 70
     8
 71
     3
 72
     8
 73
     4
 74
     0
 42
0.000000001
 43
0.001
 40
0.0
 40
0.0
 40
0.0
 40
0.0
 40
1.0
 40
1.0
 40
1.0
 40
1.0
 10
13.32351910269892
 20
-9.106554504030845
 30
0.0
 10
12.08786073139385
 20
-9.106554504030845
 30
0.0
 10
11.08026638626008
 20
-8.739221871713985
 30
0.0
 10
10.30073606729758
 20
-8.004556607080266
 30
0.0
  0
SPLINE
  5
32D
330
37E
100
AcDbEntity
  8
engrave
100
AcDbSpline
210
0.0
220
0.0
230
1.0
 70
     8
 71
     3
 72
     8
 73
     4
 74
     0
 42
0.000000001
 43
0.001
 40
0.0
 40
0.0
 40
0.0
 40
0.0
 40
1.0
 40
1.0
 40
1.0
 40
1.0
 10
10.30073606729758
 20
-8.004556607080266
 30
0.0
 10
9.623086809206683
 20
-7.366164271527047
 30
0.0
 10
9.284262180161235
 20
-6.504848697277719
 30
0.0
 10
9.284262180161235
 20
-5.420609884332282
 30
0.0
  0
SPLINE
  5
32E
330
37E
100
AcDbEntity
  8
engrave
100
AcDbSpline
210
0.0
220
0.0
230
1.0
 70
     8
 71
     3
 72
     8
 73
     4
 74
     0
 42
0.000000001
 43
0.001
 40
0.0
 40
0.0
 40
0.0
 40
0.0
 40
1.0
 40
1.0
 40
1.0
 40
1.0
 10
9.284262180161235
 20
-5.420609884332282
 30
0.0
 10
9.284262180161235
 20
-4.043813529617946
 30
0.0
 10
9.859563033064617
 20
-2.893211823811193
 30
0.0
 10
11.01016473887137
 20
-1.968804766912022
 30
0.0
  0
SPLINE
  5
32F
330
37E
100
AcDbEntity
  8
engrave
100
AcDbSpline
210
0.0
220
0.0
230
1.0
 70
     8
 71
     3
 72
     8
 73
     4
 74
     0
 42
0.000000001
 43
0.001
 40
0.0
 40
0.0
 40
0.0
 40
0.0
 40
1.0
 40
1.0
 40
1.0
 40
1.0
 10
11.01016473887137
 20
-1.968804766912022
 30
0.0
 10
11.90279238228765
 20
-1.251898586283445
 30
0.0
 10
12.99684542586751
 20
-0.8934454959691553
 30
0.0
 10
14.29232386961094
 20
-0.8934454959691553
 30
0.0
  0
SPLINE
  5
330
330
37E
100
AcDbEntity
  8
engrave
100
AcDbSpline
210
0.0
220
0.0
230
1.0
 70
     8
 71
     3
 72
     8
 73
     4
 74
     0
 42
0.000000001
 43
0.001
 40
0.0
 40
0.0
 40
0.0
 40
0.0
 40
1.0
 40
1.0
 40
1.0
 40
1.0
 10
14.29232386961094
 20
-0.8934454959691553
 30
0.0
 10
15.52424348638859
 20
-0.8934454959691553
 30
0.0
 10
16.53183783152238
 20
-1.260778128286015
 30
0.0
 10
17.31510690501227
 20
-1.995443392919734
 30
0.0
  0
SPLINE
  5
331
330
37E
100
AcDbEntity
  8
engrave
100
AcDbSpline
210
0.0
220
0.0
230
1.0
 70
     8
 71
     3
 72
     8
 73
     4
 74
     0
 42
0.000000001
 43
0.001
 40
0.0
 40
0.0
 40
0.0
 40
0.0
 40
1.0
 40
1.0
 40
1.0
 40
1.0
 10
17.31510690501227
 20
-1.995443392919734
 30
0.0
 10
17.48522023600889
 20
-2.154340460334151
 30
0.0
 10
17.63383572847296
 20
-2.327257857226312
 30
0.0
 10
17.76095338240449
 20
-2.514195583596214
 30
0.0
  0
LINE
  5
332
330
37E
100
AcDbEntity
  8
engrave
100
AcDbLine
 10
17.76095338240449
 20
-2.514195583596214
 30
0.0
 11
16.18226428321066
 21
-3.450753592709429
 31
0.0
  0
SPLINE
  5
333
330
37E
100
AcDbEntity
  8
engrave
100
AcDbSpline
210
0.0
220
0.0
230
1.0
 70
     8
 71
     3
 72
     8
 73
     4
 74
     0
 42
0.000000001
 43
0.001
 40
0.0
 40
0.0
 40
0.0
 40
0.0
 40
1.0
 40
1.0
 40
1.0
 40
1.0
 10
16.18226428321066
 20
-3.450753592709429
 30
0.0
 10
16.0944035518168
 20
-3.275032129921719
 30
0.0
 10
15.98317560462671
 20
-3.116135062507301
 30
0.0
 10
15.84858044164038
 20
-2.974062390466176
 30
0.0
  0
SPLINE
  5
334
330
37E
100
AcDbEntity
  8
engrave
100
AcDbSpline
210
0.0
220
0.0
230
1.0
 70
     8
 71
     3
 72
     8
 73
     4
 74
     0
 42
0.000000001
 43
0.001
 40
0.0
 40
0.0
 40
0.0
 40
0.0
 40
1.0
 40
1.0
 40
1.0
 40
1.0
 10
15.84858044164038
 20
-2.974062390466176
 30
0.0
 10
15.44666432994509
 20
-2.550648440238345
 30
0.0
 10
14.92791213926861
 20
-2.33894146512443
 30
0.0
 10
14.29232386961094
 20
-2.33894146512443
 30
0.0
  0
SPLINE
  5
335
330
37E
100
AcDbEntity
  8
engrave
100
AcDbSpline
210
0.0
220
0.0
230
1.0
 70
     8
 71
     3
 72
     8
 73
     4
 74
     0
 42
0.000000001
 43
0.001
 40
0.0
 40
0.0
 40
0.0
 40
0.0
 40
1.0
 40
1.0
 40
1.0
 40
1.0
 10
14.29232386961094
 20
-2.33894146512443
 30
0.0
 10
13.39969622619466
 20
-2.33894146512443
 30
0.0
 10
12.69400630914826
 20
-2.58242785372123
 30
0.0
 10
12.17525411847178
 20
-3.069400630914826
 30
0.0
  0
SPLINE
  5
336
330
37E
100
AcDbEntity
  8
engrave
100
AcDbSpline
210
0.0
220
0.0
230
1.0
 70
     8
 71
     3
 72
     8
 73
     4
 74
     0
 42
0.000000001
 43
0.001
 40
0.0
 40
0.0
 40
0.0
 40
0.0
 40
1.0
 40
1.0
 40
1.0
 40
1.0
 10
12.17525411847178
 20
-3.069400630914826
 30
0.0
 10
11.84343965416521
 20
-3.380651945320715
 30
0.0
 10
11.59434513377731
 20
-3.732094870896132
 30
0.0
 10
11.4279705573081
 20
-4.123729407641079
 30
0.0
  0
LINE
  5
337
330
37E
100
AcDbEntity
  8
engrave
100
AcDbLine
 10
11.4279705573081
 20
-4.123729407641079
 30
0.0
 11
15.46302138100246
 21
-4.123729407641079
 31
0.0
  0
LINE
  5
338
330
37E
100
AcDbEntity
  8
engrave
100
AcDbLine
 10
15.46302138100246
 20
-4.123729407641079
 30
0.0
 11
15.46302138100246
 21
-5.71223273746933
 31
0.0
  0
LINE
  5
339
330
37E
100
AcDbEntity
  8
engrave
100
AcDbLine
 10
15.46302138100246
 20
-5.71223273746933
 30
0.0
 11
11.20504731861199
 21
-5.71223273746933
 31
0.0
  0
SPLINE
  5
33A
330
37E
100
AcDbEntity
  8
engrave
100
AcDbSpline
210
0.0
220
0.0
230
1.0
 70
     8
 71
     3
 72
     8
 73
     4
 74
     0
 42
0.000000001
 43
0.001
 40
0.0
 40
0.0
 40
0.0
 40
0.0
 40
1.0
 40
1.0
 40
1.0
 40
1.0
 10
11.20504731861199
 20
-5.71223273746933
 30
0.0
 10
11.25458581610002
 20
-6.255286832573899
 30
0.0
 10
11.44199088678584
 20
-6.694590489543172
 30
0.0
 10
11.76726253066947
 20
-7.030143708377148
 30
0.0
  0
SPLINE
  5
33B
330
37E
100
AcDbEntity
  8
engrave
100
AcDbSpline
210
0.0
220
0.0
230
1.0
 70
     8
 71
     3
 72
     8
 73
     4
 74
     0
 42
0.000000001
 43
0.001
 40
0.0
 40
0.0
 40
0.0
 40
0.0
 40
1.0
 40
1.0
 40
1.0
 40
1.0
 10
11.76726253066947
 20
-7.030143708377148
 30
0.0
 10
12.17291739689217
 20
-7.450753592709429
 30
0.0
 10
12.69166958756865
 20
-7.66105853487557
 30
0.0
 10
13.32351910269892
 20
-7.66105853487557
 30
0.0
  0
SPLINE
  5
33C
330
37E
100
AcDbEntity
  8
engrave
100
AcDbSpline
210
0.0
220
0.0
230
1.0
 70
     8
 71
     3
 72
     8
 73
     4
 74
     0
 42
0.000000001
 43
0.001
 40
0.0
 40
0.0
 40
0.0
 40
0.0
 40
1.0
 40
1.0
 40
1.0
 40
1.0
 10
13.32351910269892
 20
-7.66105853487557
 30
0.0
 10
14.16006542820423
 20
-7.66105853487557
 30
0.0
 10
14.86622268956654
 20
-7.417104801962846
 30
0.0
 10
15.44199088678584
 20
-6.929197336137399
 30
0.0
  0
SPLINE
  5
33D
330
37E
100
AcDbEntity
  8
engrave
100
AcDbSpline
210
0.0
220
0.0
230
1.0
 70
     8
 71
     3
 72
     8
 73
     4
 74
     0
 42
0.000000001
 43
0.001
 40
0.0
 40
0.0
 40
0.0
 40
0.0
 40
1.0
 40
1.0
 40
1.0
 40
1.0
 10
15.44199088678584
 20
-6.929197336137399
 30
0.0
 10
15.81212758499825
 20
-6.615141955835963
 30
0.0
 10
16.07851384507536
 20
-6.232386961093586
 30
0.0
 10
16.24114966701718
 20
-5.78093235191027
 30
0.0
  0
LINE
  5
33E
330
37E
100
AcDbEntity
  8
engrave
100
AcDbLine
 10
16.24114966701718
 20
-5.78093235191027
 30
0.0
 11
17.70206799859797
 21
-6.824044865054329
 31
0.0
  0
LINE
  5
33F
330
37E
100
AcDbEntity
  8
engrave
100
AcDbLine
 10
19.23449001051525
 20
-9.0
 30
0.0
 11
19.23449001051525
 21
-2.382404486505433
 31
0.0
  0
SPLINE
  5
340
330
37E
100
AcDbEntity
  8
engrave
100
AcDbSpline
210
0.0
220
0.0
230
1.0
 70
     8
 71
     3
 72
     8
 73
     4
 74
     0
 42
0.000000001
 43
0.001
 40
0.0
 40
0.0
 40
0.0
 40
0.0
 40
1.0
 40
1.0
 40
1.0
 40
1.0
 10
19.23449001051525
 20
-2.382404486505433
 30
0.0
 10
19.23449001051525
 20
-1.746816216847763
 30
0.0
 10
18.93445495969156
 20
-1.321065545040309
 30
0.0
 10
18.33438485804417
 20
-1.10515247108307
 30
0.0
  0
LINE
  5
341
330
37E
100
AcDbEntity
  8
engrave
100
AcDbLine
 10
18.33438485804417
 20
-1.10515247108307
 30
0.0
 11
18.33438485804417
 21
-1.0
 31
0.0
  0
LINE
  5
342
330
37E
100
AcDbEntity
  8
engrave
100
AcDbLine
 10
18.33438485804417
 20
-1.0
 30
0.0
 11
20.36733263231686
 21
-1.0
 31
0.0
  0
SPLINE
  5
343
330
37E
100
AcDbEntity
  8
engrave
100
AcDbSpline
210
0.0
220
0.0
230
1.0
 70
     8
 71
     3
 72
     8
 73
     4
 74
     0
 42
0.000000001
 43
0.001
 40
0.0
 40
0.0
 40
0.0
 40
0.0
 40
1.0
 40
1.0
 40
1.0
 40
1.0
 10
20.36733263231686
 20
-1.0
 30
0.0
 10
20.61502511975698
 20
-1.148615492464073
 30
0.0
 10
20.79869143591541
 20
-1.341161350625072
 30
0.0
 10
20.91833158079215
 20
-1.577637574483
 30
0.0
  0
SPLINE
  5
344
330
37E
100
AcDbEntity
  8
engrave
100
AcDbSpline
210
0.0
220
0.0
230
1.0
 70
     8
 71
     3
 72
     8
 73
     4
 74
     0
 42
0.000000001
 43
0.001
 40
0.0
 40
0.0
 40
0.0
 40
0.0
 40
1.0
 40
1.0
 40
1.0
 40
1.0
 10
20.91833158079215
 20
-1.577637574483
 30
0.0
 10
21.1230283911672
 20
-1.457062740974413
 30
0.0
 10
21.34174553101998
 20
-1.340226661993224
 30
0.0
 10
21.57448300035051
 20
-1.227129337539433
 30
0.0
  0
SPLINE
  5
345
330
37E
100
AcDbEntity
  8
engrave
100
AcDbSpline
210
0.0
220
0.0
230
1.0
 70
     8
 71
     3
 72
     8
 73
     4
 74
     0
 42
0.000000001
 43
0.001
 40
0.0
 40
0.0
 40
0.0
 40
0.0
 40
1.0
 40
1.0
 40
1.0
 40
1.0
 10
21.57448300035051
 20
-1.227129337539433
 30
0.0
 10
22.03341511858863
 20
-1.004673443159247
 30
0.0
 10
22.53814697978736
 20
-0.8934454959691553
 30
0.0
 10
23.08867858394672
 20
-0.8934454959691553
 30
0.0
  0
SPLINE
  5
346
330
37E
100
AcDbEntity
  8
engrave
100
AcDbSpline
210
0.0
220
0.0
230
1.0
 70
     8
 71
     3
 72
     8
 73
     4
 74
     0
 42
0.000000001
 43
0.001
 40
0.0
 40
0.0
 40
0.0
 40
0.0
 40
1.0
 40
1.0
 40
1.0
 40
1.0
 10
23.08867858394672
 20
-0.8934454959691553
 30
0.0
 10
23.96822058651712
 20
-0.8934454959691553
 30
0.0
 10
24.71830821357636
 20
-1.184601004790279
 30
0.0
 10
25.33894146512444
 20
-1.766912022432527
 30
0.0
  0
SPLINE
  5
347
330
37E
100
AcDbEntity
  8
engrave
100
AcDbSpline
210
0.0
220
0.0
230
1.0
 70
     8
 71
     3
 72
     8
 73
     4
 74
     0
 42
0.000000001
 43
0.001
 40
0.0
 40
0.0
 40
0.0
 40
0.0
 40
1.0
 40
1.0
 40
1.0
 40
1.0
 10
25.33894146512444
 20
-1.766912022432527
 30
0.0
 10
25.85862834443276
 20
-2.254819488257974
 30
0.0
 10
26.11847178408693
 20
-2.885266970440473
 30
0.0
 10
26.11847178408693
 20
-3.65825446898002
 30
0.0
  0
SPLINE
  5
348
330
37E
100
AcDbEntity
  8
engrave
100
AcDbSpline
210
0.0
220
0.0
230
1.0
 70
     8
 71
     3
 72
     8
 73
     4
 74
     0
 42
0.000000001
 43
0.001
 40
0.0
 40
0.0
 40
0.0
 40
0.0
 40
1.0
 40
1.0
 40
1.0
 40
1.0
 10
26.11847178408693
 20
-3.65825446898002
 30
0.0
 10
26.11847178408693
 20
-4.910737235658372
 30
0.0
 10
25.57822175487791
 20
-5.913190793316978
 30
0.0
 10
24.49772169645987
 20
-6.665615141955836
 30
0.0
  0
LINE
  5
349
330
37E
100
AcDbEntity
  8
engrave
100
AcDbLine
 10
24.49772169645987
 20
-6.665615141955836
 30
0.0
 11
26.84332281808623
 21
-9.0
 31
0.0
  0
LINE
  5
34A
330
37E
100
AcDbEntity
  8
engrave
100
AcDbLine
 10
26.84332281808623
 20
-9.0
 30
0.0
 11
24.36032246757799
 21
-9.0
 31
0.0
  0
LINE
  5
34B
330
37E
100
AcDbEntity
  8
engrave
100
AcDbLine
 10
24.36032246757799
 20
-9.0
 30
0.0
 11
21.29407641079565
 21
-5.844023834560113
 31
0.0
  0
SPLINE
  5
34C
330
37E
100
AcDbEntity
  8
engrave
100
AcDbSpline
210
0.0
220
0.0
230
1.0
 70
     8
 71
     3
 72
     8
 73
     4
 74
     0
 42
0.000000001
 43
0.001
 40
0.0
 40
0.0
 40
0.0
 40
0.0
 40
1.0
 40
1.0
 40
1.0
 40
1.0
 10
21.29407641079565
 20
-5.844023834560113
 30
0.0
 10
21.47447131674261
 20
-5.911321416053277
 30
0.0
 10
21.79039607430775
 20
-5.94497020679986
 30
0.0
 10
22.24185068349107
 20
-5.94497020679986
 30
0.0
  0
SPLINE
  5
34D
330
37E
100
AcDbEntity
  8
engrave
100
AcDbSpline
210
0.0
220
0.0
230
1.0
 70
     8
 71
     3
 72
     8
 73
     4
 74
     0
 42
0.000000001
 43
0.001
 40
0.0
 40
0.0
 40
0.0
 40
0.0
 40
1.0
 40
1.0
 40
1.0
 40
1.0
 10
22.24185068349107
 20
-5.94497020679986
 30
0.0
 10
22.7503212992172
 20
-5.94497020679986
 30
0.0
 10
23.19336371071387
 20
-5.759901857693656
 30
0.0
 10
23.57097791798108
 20
-5.389765159481247
 30
0.0
  0
SPLINE
  5
34E
330
37E
100
AcDbEntity
  8
engrave
100
AcDbSpline
210
0.0
220
0.0
230
1.0
 70
     8
 71
     3
 72
     8
 73
     4
 74
     0
 42
0.000000001
 43
0.001
 40
0.0
 40
0.0
 40
0.0
 40
0.0
 40
1.0
 40
1.0
 40
1.0
 40
1.0
 10
23.57097791798108
 20
-5.389765159481247
 30
0.0
 10
23.99439186820891
 20
-4.972894029676363
 30
0.0
 10
24.20609884332282
 20
-4.480313120691671
 30
0.0
 10
24.20609884332282
 20
-3.912022432527165
 30
0.0
  0
SPLINE
  5
34F
330
37E
100
AcDbEntity
  8
engrave
100
AcDbSpline
210
0.0
220
0.0
230
1.0
 70
     8
 71
     3
 72
     8
 73
     4
 74
     0
 42
0.000000001
 43
0.001
 40
0.0
 40
0.0
 40
0.0
 40
0.0
 40
1.0
 40
1.0
 40
1.0
 40
1.0
 10
24.20609884332282
 20
-3.912022432527165
 30
0.0
 10
24.20609884332282
 20
-3.445612805234257
 30
0.0
 10
24.11262998013787
 20
-3.080149550181096
 30
0.0
 10
23.92569225376796
 20
-2.815632667367683
 30
0.0
  0
SPLINE
  5
350
330
37E
100
AcDbEntity
  8
engrave
100
AcDbSpline
210
0.0
220
0.0
230
1.0
 70
     8
 71
     3
 72
     8
 73
     4
 74
     0
 42
0.000000001
 43
0.001
 40
0.0
 40
0.0
 40
0.0
 40
0.0
 40
1.0
 40
1.0
 40
1.0
 40
1.0
 10
23.92569225376796
 20
-2.815632667367683
 30
0.0
 10
23.70323635938779
 20
-2.501577287066246
 30
0.0
 10
23.38731160182265
 20
-2.344549596915527
 30
0.0
 10
22.97791798107256
 20
-2.344549596915527
 30
0.0
  0
SPLINE
  5
351
330
37E
100
AcDbEntity
  8
engrave
100
AcDbSpline
210
0.0
220
0.0
230
1.0
 70
     8
 71
     3
 72
     8
 73
     4
 74
     0
 42
0.000000001
 43
0.001
 40
0.0
 40
0.0
 40
0.0
 40
0.0
 40
1.0
 40
1.0
 40
1.0
 40
1.0
 10
22.97791798107256
 20
-2.344549596915527
 30
0.0
 10
22.5124430424115
 20
-2.344549596915527
 30
0.0
 10
22.09416987965884
 20
-2.521205748335086
 30
0.0
 10
21.72309849281459
 20
-2.874518051174203
 30
0.0
  0
SPLINE
  5
352
330
37E
100
AcDbEntity
  8
engrave
100
AcDbSpline
210
0.0
220
0.0
230
1.0
 70
     8
 71
     3
 72
     8
 73
     4
 74
     0
 42
0.000000001
 43
0.001
 40
0.0
 40
0.0
 40
0.0
 40
0.0
 40
1.0
 40
1.0
 40
1.0
 40
1.0
 10
21.72309849281459
 20
-2.874518051174203
 30
0.0
 10
21.29968454258675
 20
-3.280172917396892
 30
0.0
 10
21.08797756747284
 20
-3.788176188807103
 30
0.0
 10
21.08797756747284
 20
-4.398527865404837
 30
0.0
  0
LINE
  5
353
330
37E
100
AcDbEntity
  8
engrave
100
AcDbLine
 10
21.08797756747284
 20
-4.398527865404837
 30
0.0
 11
21.08797756747284
 21
-9.0
 31
0.0
  0
LINE
  5
354
330
37E
100
AcDbEntity
  8
engrave
100
AcDbLine
 10
21.08797756747284
 20
-9.0
 30
0.0
 11
19.23449001051525
 21
-9.0
 31
0.0
  0
LINE
  5
355
330
37E
100
AcDbEntity
  8
engrave
100
AcDbLine
 10
27.17560462670873
 20
-9.0
 30
0.0
 11
31.05082369435682
 21
-1.0
 31
0.0
  0
LINE
  5
356
330
37E
100
AcDbEntity
  8
engrave
100
AcDbLine
 10
31.05082369435682
 20
-1.0
 30
0.0
 11
32.60287416754294
 21
-1.0
 31
0.0
  0
LINE
  5
357
330
37E
100
AcDbEntity
  8
engrave
100
AcDbLine
 10
32.60287416754294
 20
-1.0
 30
0.0
 11
36.47809323519103
 21
-9.0
 31
0.0
  0
LINE
  5
358
330
37E
100
AcDbEntity
  8
engrave
100
AcDbLine
 10
36.47809323519103
 20
-9.0
 30
0.0
 11
34.45075359270943
 21
-9.0
 31
0.0
  0
LINE
  5
359
330
37E
100
AcDbEntity
  8
engrave
100
AcDbLine
 10
34.45075359270943
 20
-9.0
 30
0.0
 11
32.92534174553103
 21
-5.71223273746933
 31
0.0
  0
LINE
  5
35A
330
37E
100
AcDbEntity
  8
engrave
100
AcDbLine
 10
32.92534174553103
 20
-5.71223273746933
 30
0.0
 11
30.5068349106204
 21
-5.71223273746933
 31
0.0
  0
LINE
  5
35B
330
37E
100
AcDbEntity
  8
engrave
100
AcDbLine
 10
30.5068349106204
 20
-5.71223273746933
 30
0.0
 11
28.94917630564319
 21
-9.0
 31
0.0
  0
LINE
  5
35C
330
37E
100
AcDbEntity
  8
engrave
100
AcDbLine
 10
28.94917630564319
 20
-9.0
 30
0.0
 11
27.17560462670873
 21
-9.0
 31
0.0
  0
LINE
  5
35D
330
37E
100
AcDbEntity
  8
engrave
100
AcDbLine
 10
31.66070802663863
 20
-2.98527865404837
 30
0.0
 11
31.17840869260428
 21
-4.123729407641079
 31
0.0
  0
LINE
  5
35E
330
37E
100
AcDbEntity
  8
engrave
100
AcDbLine
 10
31.17840869260428
 20
-4.123729407641079
 30
0.0
 11
32.18787241500175
 21
-4.123729407641079
 31
0.0
  0
LINE
  5
35F
330
37E
100
AcDbEntity
  8
engrave
100
AcDbLine
 10
32.18787241500175
 20
-4.123729407641079
 30
0.0
 11
31.66070802663863
 21
-2.98527865404837
 31
0.0
  0
ENDSEC
  0
SECTION
  2
OBJECTS
  0
DICTIONARY
  5
36C
330
0
100
AcDbDictionary
281
     1
  3
ACAD_DETAILVIEWSTYLE
350
40E
  3
ACAD_GROUP
350
36D
  3
ACAD_LAYOUT
350
379
  3
ACAD_MATERIAL
350
3A2
  3
ACAD_MLEADERSTYLE
350
40D
  3
ACAD_MLINESTYLE
350
376
  3
ACAD_PLOTSETTINGS
350
378
  3
ACAD_PLOTSTYLENAME
350
36E
  3
ACAD_SCALELIST
350
3A6
  3
ACAD_SECTIONVIEWSTYLE
350
40F
  3
ACAD_TABLESTYLE
350
40C
  3
ACAD_VISUALSTYLE
350
389
  3
AcDbVariableDictionary
350
40A
  3
QCAD_OBJECTS
350
3CA
  0
SUN
  5
3C8
330
388
100
AcDbSun
 90
        1
290
     0
 63
     7
421
 16777215
 40
1.0
291
     1
 91
  2455826
 92
 54000000
292
     0
 70
     2
 71
   256
280
     1
  0
DICTIONARY
  5
40E
102
{ACAD_REACTORS
330
36C
102
}
330
36C
100
AcDbDictionary
281
     1
  0
DICTIONARY
  5
36D
102
{ACAD_REACTORS
330
36C
102
}
330
36C
100
AcDbDictionary
281
     1
  0
DICTIONARY
  5
379
102
{ACAD_REACTORS
330
36C
102
}
330
36C
100
AcDbDictionary
281
     1
  3
Layout1
350
37D
  3
Layout2
350
385
  3
Model
350
381
  0
DICTIONARY
  5
3A2
102
{ACAD_REACTORS
330
36C
102
}
330
36C
100
AcDbDictionary
281
     1
  3
ByBlock
350
3A4
  3
ByLayer
350
3A3
  3
Global
350
3A5
  0
DICTIONARY
  5
40D
102
{ACAD_REACTORS
330
36C
102
}
330
36C
100
AcDbDictionary
281
     1
  0
DICTIONARY
  5
376
102
{ACAD_REACTORS
330
36C
102
}
330
36C
100
AcDbDictionary
281
     1
  3
Standard
350
377
  0
DICTIONARY
  5
378
102
{ACAD_REACTORS
330
36C
102
}
330
36C
100
AcDbDictionary
281
     1
  0
ACDBDICTIONARYWDFLT
  5
36E
102
{ACAD_REACTORS
330
36C
102
}
330
36C
100
AcDbDictionary
281
     1
  3
Normal
350
36F
100
AcDbDictionaryWithDefault
340
36F
  0
DICTIONARY
  5
3A6
102
{ACAD_REACTORS
330
36C
102
}
330
36C
100
AcDbDictionary
281
     1
  3
A0
350
3A7
  3
A1
350
3A8
  3
A2
350
3A9
  3
A3
350
3AA
  3
A4
350
3AB
  3
A5
350
3AC
  3
A6
350
3AD
  3
A7
350
3AE
  3
A8
350
3AF
  3
A9
350
3B0
  3
B0
350
3B1
  3
B1
350
3B2
  3
B2
350
3B3
  3
B3
350
3B4
  3
B4
350
3B5
  3
B5
350
3B6
  3
B6
350
3B7
  3
B7
350
3B8
  3
B8
350
3B9
  3
B9
350
3BA
  3
C0
350
3BB
  3
C1
350
3BC
  3
C2
350
3BD
  3
C3
350
3BE
  3
C4
350
3BF
  3
C5
350
3C0
  3
C6
350
3C1
  3
C7
350
3C2
  3
C8
350
3C3
  3
C9
350
3C4
  3
D0
350
3C5
  3
D1
350
3C6
  3
D2
350
3C7
  0
DICTIONARY
  5
40F
102
{ACAD_REACTORS
330
36C
102
}
330
36C
100
AcDbDictionary
281
     1
  0
DICTIONARY
  5
40C
102
{ACAD_REACTORS
330
36C
102
}
330
36C
100
AcDbDictionary
281
     1
  0
DICTIONARY
  5
389
102
{ACAD_REACTORS
330
36C
102
}
330
36C
100
AcDbDictionary
281
     1
  3
2dWireframe
350
38E
  3
Basic
350
391
  3
Brighten
350
395
  3
ColorChange
350
399
  3
Conceptual
350
393
  3
Dim
350
394
  3
EdgeColorOff
350
39C
  3
Facepattern
350
398
  3
Flat
350
38A
  3
FlatWithEdges
350
38B
  3
Gouraud
350
38C
  3
GouraudWithEdges
350
38D
  3
Hidden
350
390
  3
JitterOff
350
39A
  3
Linepattern
350
397
  3
OverhangOff
350
39B
  3
Realistic
350
392
  3
Shaded
350
3A1
  3
Shaded with edges
350
3A0
  3
Shades of Gray
350
39D
  3
Sketchy
350
39E
  3
Thicken
350
396
  3
Wireframe
350
38F
  3
X-Ray
350
39F
  0
DICTIONARY
  5
40A
102
{ACAD_REACTORS
330
36C
102
}
330
36C
100
AcDbDictionary
281
     1
  3
CANNOSCALE
350
40B
  0
DICTIONARY
  5
3CA
102
{ACAD_REACTORS
330
36C
102
}
330
36C
100
AcDbDictionary
281
     1
  3
Grid/DisplayGrid00
350
3CB
  3
Grid/DisplayGrid01
350
3CC
  3
Grid/DisplayGrid02
350
3CD
  3
Grid/DisplayGrid03
350
3CE
  3
Grid/GridSpacingX00
350
3CF
  3
Grid/GridSpacingX01
350
3D0
  3
Grid/GridSpacingX02
350
3D1
  3
Grid/GridSpacingX03
350
3D2
  3
Grid/GridSpacingY00
350
3D3
  3
Grid/GridSpacingY01
350
3D4
  3
Grid/GridSpacingY02
350
3D5
  3
Grid/GridSpacingY03
350
3D6
  3
Grid/IsometricGrid00
350
3D7
  3
Grid/IsometricGrid01
350
3D8
  3
Grid/IsometricGrid02
350
3D9
  3
Grid/IsometricGrid03
350
3DA
  3
Grid/IsometricProjection00
350
3DB
  3
Grid/IsometricProjection01
350
3DC
  3
Grid/IsometricProjection02
350
3DD
  3
Grid/IsometricProjection03
350
3DE
  3
Grid/MetaGridSpacingX00
350
3DF
  3
Grid/MetaGridSpacingX01
350
3E0
  3
Grid/MetaGridSpacingX02
350
3E1
  3
Grid/MetaGridSpacingX03
350
3E2
  3
Grid/MetaGridSpacingY00
350
3E3
  3
Grid/MetaGridSpacingY01
350
3E4
  3
Grid/MetaGridSpacingY02
350
3E5
  3
Grid/MetaGridSpacingY03
350
3E6
  3
MultiPageSettings/Columns
350
3E7
  3
MultiPageSettings/GlueMarginsBottom
350
3E8
  3
MultiPageSettings/GlueMarginsLeft
350
3E9
  3
MultiPageSettings/GlueMarginsRight
350
3EA
  3
MultiPageSettings/GlueMarginsTop
350
3EB
  3
MultiPageSettings/PrintCropMarks
350
3EC
  3
MultiPageSettings/Rows
350
3ED
  3
PageSettings/OffsetX
350
3EE
  3
PageSettings/OffsetY
350
3EF
  3
PageSettings/PageOrientation
350
3F0
  3
PageSettings/PaperHeight
350
3F1
  3
PageSettings/PaperWidth
350
3F2
  3
PageSettings/Scale
350
3F3
  3
PageSettings/ShowPaperBorders
350
3F4
  3
UnitSettings/PaperUnit
350
3F5
  0
LAYOUT
  5
37D
102
{ACAD_REACTORS
330
379
102
}
330
379
100
AcDbPlotSettings
  1

  2
none_device
  4

  6

 40
0.0
 41
0.0
 42
0.0
 43
0.0
 44
0.0
 45
0.0
 46
0.0
 47
0.0
 48
0.0
 49
0.0
140
0.0
141
0.0
142
1.0
143
1.0
 70
   688
 72
     0
 73
     0
 74
     5
  7

 75
    16
 76
     0
 77
     2
 78
   300
147
1.0
148
0.0
149
0.0
100
AcDbLayout
  1
Layout1
 70
     1
 71
     1
 10
0.0
 20
0.0
 11
12.0
 21
9.0
 12
0.0
 22
0.0
 32
0.0
 14
1.000000000000000E+20
 24
1.000000000000000E+20
 34
1.000000000000000E+20
 15
-1.000000000000000E+20
 25
-1.000000000000000E+20
 35
-1.000000000000000E+20
146
0.0
 13
0.0
 23
0.0
 33
0.0
 16
1.0
 26
0.0
 36
0.0
 17
0.0
 27
1.0
 37
0.0
 76
     0
330
37A
  0
LAYOUT
  5
385
102
{ACAD_REACTORS
330
379
102
}
330
379
100
AcDbPlotSettings
  1

  2
none_device
  4

  6

 40
0.0
 41
0.0
 42
0.0
 43
0.0
 44
0.0
 45
0.0
 46
0.0
 47
0.0
 48
0.0
 49
0.0
140
0.0
141
0.0
142
1.0
143
1.0
 70
   688
 72
     0
 73
     0
 74
     5
  7

 75
    16
 76
     0
 77
     2
 78
   300
147
1.0
148
0.0
149
0.0
100
AcDbLayout
  1
Layout2
 70
     1
 71
     2
 10
0.0
 20
0.0
 11
0.0
 21
0.0
 12
0.0
 22
0.0
 32
0.0
 14
0.0
 24
0.0
 34
0.0
 15
0.0
 25
0.0
 35
0.0
146
0.0
 13
0.0
 23
0.0
 33
0.0
 16
1.0
 26
0.0
 36
0.0
 17
0.0
 27
1.0
 37
0.0
 76
     0
330
382
  0
LAYOUT
  5
381
102
{ACAD_REACTORS
330
379
102
}
330
379
100
AcDbPlotSettings
  1

  2
none_device
  4
Letter_(8.50_x_11.00_Inches)
  6

 40
6.35
 41
6.35
 42
6.35000508
 43
6.35000508
 44
215.9
 45
279.4
 46
0.0
 47
0.0
 48
0.0
 49
0.0
140
0.0
141
0.0
142
1.0
143
1.0
 70
  1712
 72
     0
 73
     0
 74
     0
  7

 75
     0
 76
     0
 77
     2
 78
   300
147
1.0
148
0.0
149
0.0
100
AcDbLayout
  1
Model
 70
     1
 71
     0
 10
0.0
 20
0.0
 11
12.0
 21
9.0
 12
0.0
 22
0.0
 32
0.0
 14
1.000000000000000E+20
 24
1.000000000000000E+20
 34
1.000000000000000E+20
 15
-1.000000000000000E+20
 25
-1.000000000000000E+20
 35
-1.000000000000000E+20
146
0.0
 13
0.0
 23
0.0
 33
0.0
 16
1.0
 26
0.0
 36
0.0
 17
0.0
 27
1.0
 37
0.0
 76
     0
330
37E
331
388
  0
MATERIAL
  5
3A4
102
{ACAD_REACTORS
330
3A2
102
}
330
3A2
100
AcDbMaterial
  1
ByBlock
 72
     1
 94
      127
  0
MATERIAL
  5
3A3
102
{ACAD_REACTORS
330
3A2
102
}
330
3A2
100
AcDbMaterial
  1
ByLayer
 72
     1
 94
      127
  0
MATERIAL
  5
3A5
102
{ACAD_REACTORS
330
3A2
102
}
330
3A2
100
AcDbMaterial
  1
Global
 72
     1
 94
      127
  0
MLINESTYLE
  5
377
102
{ACAD_REACTORS
330
376
102
}
330
376
100
AcDbMlineStyle
  2
Standard
 70
     0
  3

 62
   256
 51
90.0
 52
90.0
 71
     2
 49
0.5
 62
   256
  6
BYLAYER
 49
-0.5
 62
   256
  6
BYLAYER
  0
ACDBPLACEHOLDER
  5
36F
102
{ACAD_REACTORS
330
36E
102
}
330
36E
  0
SCALE
  5
3A7
102
{ACAD_REACTORS
330
3A6
102
}
330
3A6
100
AcDbScale
 70
     0
300
1:1
140
1.0
141
1.0
290
     1
  0
SCALE
  5
3A8
102
{ACAD_REACTORS
330
3A6
102
}
330
3A6
100
AcDbScale
 70
     0
300
1:2
140
1.0
141
2.0
290
     0
  0
SCALE
  5
3A9
102
{ACAD_REACTORS
330
3A6
102
}
330
3A6
100
AcDbScale
 70
     0
300
1:4
140
1.0
141
4.0
290
     0
  0
SCALE
  5
3AA
102
{ACAD_REACTORS
330
3A6
102
}
330
3A6
100
AcDbScale
 70
     0
300
1:5
140
1.0
141
5.0
290
     0
  0
SCALE
  5
3AB
102
{ACAD_REACTORS
330
3A6
102
}
330
3A6
100
AcDbScale
 70
     0
300
1:8
140
1.0
141
8.0
290
     0
  0
SCALE
  5
3AC
102
{ACAD_REACTORS
330
3A6
102
}
330
3A6
100
AcDbScale
 70
     0
300
1:10
140
1.0
141
10.0
290
     0
  0
SCALE
  5
3AD
102
{ACAD_REACTORS
330
3A6
102
}
330
3A6
100
AcDbScale
 70
     0
300
1:16
140
1.0
141
16.0
290
     0
  0
SCALE
  5
3AE
102
{ACAD_REACTORS
330
3A6
102
}
330
3A6
100
AcDbScale
 70
     0
300
1:20
140
1.0
141
20.0
290
     0
  0
SCALE
  5
3AF
102
{ACAD_REACTORS
330
3A6
102
}
330
3A6
100
AcDbScale
 70
     0
300
1:30
140
1.0
141
30.0
290
     0
  0
SCALE
  5
3B0
102
{ACAD_REACTORS
330
3A6
102
}
330
3A6
100
AcDbScale
 70
     0
300
1:40
140
1.0
141
40.0
290
     0
  0
SCALE
  5
3B1
102
{ACAD_REACTORS
330
3A6
102
}
330
3A6
100
AcDbScale
 70
     0
300
1:50
140
1.0
141
50.0
290
     0
  0
SCALE
  5
3B2
102
{ACAD_REACTORS
330
3A6
102
}
330
3A6
100
AcDbScale
 70
     0
300
1:100
140
1.0
141
100.0
290
     0
  0
SCALE
  5
3B3
102
{ACAD_REACTORS
330
3A6
102
}
330
3A6
100
AcDbScale
 70
     0
300
2:1
140
2.0
141
1.0
290
     0
  0
SCALE
  5
3B4
102
{ACAD_REACTORS
330
3A6
102
}
330
3A6
100
AcDbScale
 70
     0
300
4:1
140
4.0
141
1.0
290
     0
  0
SCALE
  5
3B5
102
{ACAD_REACTORS
330
3A6
102
}
330
3A6
100
AcDbScale
 70
     0
300
8:1
140
8.0
141
1.0
290
     0
  0
SCALE
  5
3B6
102
{ACAD_REACTORS
330
3A6
102
}
330
3A6
100
AcDbScale
 70
     0
300
10:1
140
10.0
141
1.0
290
     0
  0
SCALE
  5
3B7
102
{ACAD_REACTORS
330
3A6
102
}
330
3A6
100
AcDbScale
 70
     0
300
100:1
140
100.0
141
1.0
290
     0
  0
SCALE
  5
3B8
102
{ACAD_REACTORS
330
3A6
102
}
330
3A6
100
AcDbScale
 70
     0
300
1/128" = 1'-0"
140
0.0078125
141
12.0
290
     0
  0
SCALE
  5
3B9
102
{ACAD_REACTORS
330
3A6
102
}
330
3A6
100
AcDbScale
 70
     0
300
1/64" = 1'-0"
140
0.015625
141
12.0
290
     0
  0
SCALE
  5
3BA
102
{ACAD_REACTORS
330
3A6
102
}
330
3A6
100
AcDbScale
 70
     0
300
1/32" = 1'-0"
140
0.03125
141
12.0
290
     0
  0
SCALE
  5
3BB
102
{ACAD_REACTORS
330
3A6
102
}
330
3A6
100
AcDbScale
 70
     0
300
1/16" = 1'-0"
140
0.0625
141
12.0
290
     0
  0
SCALE
  5
3BC
102
{ACAD_REACTORS
330
3A6
102
}
330
3A6
100
AcDbScale
 70
     0
300
3/32" = 1'-0"
140
0.09375
141
12.0
290
     0
  0
SCALE
  5
3BD
102
{ACAD_REACTORS
330
3A6
102
}
330
3A6
100
AcDbScale
 70
     0
300
1/8" = 1'-0"
140
0.125
141
12.0
290
     0
  0
SCALE
  5
3BE
102
{ACAD_REACTORS
330
3A6
102
}
330
3A6
100
AcDbScale
 70
     0
300
3/16" = 1'-0"
140
0.1875
141
12.0
290
     0
  0
SCALE
  5
3BF
102
{ACAD_REACTORS
330
3A6
102
}
330
3A6
100
AcDbScale
 70
     0
300
1/4" = 1'-0"
140
0.25
141
12.0
290
     0
  0
SCALE
  5
3C0
102
{ACAD_REACTORS
330
3A6
102
}
330
3A6
100
AcDbScale
 70
     0
300
3/8" = 1'-0"
140
0.375
141
12.0
290
     0
  0
SCALE
  5
3C1
102
{ACAD_REACTORS
330
3A6
102
}
330
3A6
100
AcDbScale
 70
     0
300
1/2" = 1'-0"
140
0.5
141
12.0
290
     0
  0
SCALE
  5
3C2
102
{ACAD_REACTORS
330
3A6
102
}
330
3A6
100
AcDbScale
 70
     0
300
3/4" = 1'-0"
140
0.75
141
12.0
290
     0
  0
SCALE
  5
3C3
102
{ACAD_REACTORS
330
3A6
102
}
330
3A6
100
AcDbScale
 70
     0
300
1" = 1'-0"
140
1.0
141
12.0
290
     0
  0
SCALE
  5
3C4
102
{ACAD_REACTORS
330
3A6
102
}
330
3A6
100
AcDbScale
 70
     0
300
1-1/2" = 1'-0"
140
1.5
141
12.0
290
     0
  0
SCALE
  5
3C5
102
{ACAD_REACTORS
330
3A6
102
}
330
3A6
100
AcDbScale
 70
     0
300
3" = 1'-0"
140
3.0
141
12.0
290
     0
  0
SCALE
  5
3C6
102
{ACAD_REACTORS
330
3A6
102
}
330
3A6
100
AcDbScale
 70
     0
300
6" = 1'-0"
140
6.0
141
12.0
290
     0
  0
SCALE
  5
3C7
102
{ACAD_REACTORS
330
3A6
102
}
330
3A6
100
AcDbScale
 70
     0
300
1'-0" = 1'-0"
140
12.0
141
12.0
290
     0
  0
VISUALSTYLE
  5
38E
102
{ACAD_REACTORS
330
389
102
}
330
389
100
AcDbVisualStyle
  2
2dWireframe
 70
     4
177
     3
291
     0
 70
    58
 90
        0
176
     1
 90
        2
176
     1
 90
        0
176
     1
 90
        0
176
     1
 40
0.6
176
     1
 40
30.0
176
     1
 62
     7
420
 16777215
176
     1
 90
        1
176
     1
 90
        4
176
     1
 62
     7
176
     1
 62
   257
176
     1
 90
        1
176
     1
 90
        1
176
     1
 40
1.0
176
     1
 90
        0
176
     1
 62
   257
176
     1
 40
1.0
176
     1
 90
        1
176
     1
 90
        6
176
     1
 90
        2
176
     1
 62
     7
176
     1
 90
        5
176
     1
 90
        0
176
     1
 90
        0
176
     1
290
     0
176
     1
 90
        1
176
     1
 40
0.0
176
     1
 90
        0
176
     1
290
     1
176
     1
290
     1
176
     1
290
     0
176
     1
290
     0
176
     1
290
     0
176
     1
290
     0
176
     1
290
     0
176
     1
290
     0
176
     1
290
     0
176
     1
 90
       50
176
     1
 40
0.0
176
     1
 40
1.0
176
     1
 90
        0
176
     1
 62
   178
420
        0
176
     1
 90
       50
176
     1
 90
        3
176
     1
 62
     5
420
      255
176
     1
290
     0
176
     1
 90
       50
176
     1
 90
       50
176
     1
 90
       50
176
     1
290
     0
176
     1
 90
       50
176
     1
 62
   256
176
     0
 40
1.0
176
     0
 90
        2
176
     1
  1
strokes_ogs.tif
176
     1
290
     0
176
     1
 40
1.0
176
     1
 40
1.0
176
     1
  0
VISUALSTYLE
  5
391
102
{ACAD_REACTORS
330
389
102
}
330
389
100
AcDbVisualStyle
  2
Basic
 70
     7
177
     3
291
     1
 70
    58
 90
        1
176
     1
 90
        0
176
     1
 90
        1
176
     1
 90
        0
176
     1
 40
0.6
176
     1
 40
30.0
176
     1
 62
     7
420
 16777215
176
     1
 90
        0
176
     1
 90
        4
176
     1
 62
     7
176
     1
 62
   257
176
     1
 90
        1
176
     1
 90
        1
176
     1
 40
1.0
176
     1
 90
        8
176
     1
 62
     7
176
     1
 40
1.0
176
     1
 90
        1
176
     1
 90
        6
176
     1
 90
        2
176
     1
 62
     7
176
     1
 90
        5
176
     1
 90
        0
176
     1
 90
        0
176
     1
290
     0
176
     1
 90
        1
176
     1
 40
0.0
176
     1
 90
        0
176
     1
290
     0
176
     1
290
     1
176
     1
290
     1
176
     1
290
     0
176
     1
290
     0
176
     1
290
     0
176
     1
290
     0
176
     1
290
     0
176
     1
290
     0
176
     1
 90
       50
176
     1
 40
0.0
176
     1
 40
1.0
176
     1
 90
        0
176
     1
 62
   178
420
        0
176
     1
 90
       50
176
     1
 90
        3
176
     1
 62
     5
420
      255
176
     1
290
     0
176
     1
 90
       50
176
     1
 90
       50
176
     1
 90
       50
176
     1
290
     0
176
     1
 90
       50
176
     1
 62
   256
176
     0
 40
1.0
176
     0
 90
        2
176
     1
  1
strokes_ogs.tif
176
     1
290
     0
176
     1
 40
1.0
176
     1
 40
1.0
176
     1
  0
VISUALSTYLE
  5
395
102
{ACAD_REACTORS
330
389
102
}
330
389
100
AcDbVisualStyle
  2
Brighten
 70
    12
177
     3
291
     1
 70
    58
 90
        2
176
     1
 90
        2
176
     1
 90
        0
176
     1
 90
        0
176
     1
 40
0.6
176
     1
 40
30.0
176
     1
 62
     7
420
 16777215
176
     1
 90
        1
176
     1
 90
        4
176
     1
 62
     7
176
     1
 62
   257
176
     1
 90
        1
176
     1
 90
        1
176
     1
 40
1.0
176
     1
 90
        8
176
     1
 62
     7
176
     1
 40
1.0
176
     1
 90
        1
176
     1
 90
        6
176
     1
 90
        2
176
     1
 62
     7
176
     1
 90
        5
176
     1
 90
        0
176
     1
 90
        0
176
     1
290
     0
176
     1
 90
        1
176
     1
 40
50.0
176
     1
 90
        0
176
     1
290
     0
176
     1
290
     1
176
     1
290
     1
176
     1
290
     0
176
     1
290
     0
176
     1
290
     0
176
     1
290
     0
176
     1
290
     0
176
     1
290
     0
176
     1
 90
       50
176
     1
 40
0.0
176
     1
 40
1.0
176
     1
 90
        0
176
     1
 62
   178
420
        0
176
     1
 90
       50
176
     1
 90
        3
176
     1
 62
     5
420
      255
176
     1
290
     0
176
     1
 90
       50
176
     1
 90
       50
176
     1
 90
       50
176
     1
290
     0
176
     1
 90
       50
176
     1
 62
   256
176
     0
 40
1.0
176
     0
 90
        2
176
     1
  1
strokes_ogs.tif
176
     1
290
     0
176
     1
 40
1.0
176
     1
 40
1.0
176
     1
  0
VISUALSTYLE
  5
399
102
{ACAD_REACTORS
330
389
102
}
330
389
100
AcDbVisualStyle
  2
ColorChange
 70
    16
177
     3
291
     1
 70
    58
 90
        2
176
     1
 90
        2
176
     1
 90
        3
176
     1
 90
        0
176
     1
 40
0.6
176
     1
 40
30.0
176
     1
 62
     8
420
  8421504
176
     1
 90
        1
176
     1
 90
        4
176
     1
 62
     7
176
     1
 62
   257
176
     1
 90
        1
176
     1
 90
        1
176
     1
 40
1.0
176
     1
 90
        8
176
     1
 62
     8
420
  8421504
176
     1
 40
1.0
176
     1
 90
        1
176
     1
 90
        6
176
     1
 90
        2
176
     1
 62
     7
176
     1
 90
        5
176
     1
 90
        0
176
     1
 90
        0
176
     1
290
     0
176
     1
 90
        1
176
     1
 40
0.0
176
     1
 90
        0
176
     1
290
     0
176
     1
290
     1
176
     1
290
     1
176
     1
290
     0
176
     1
290
     0
176
     1
290
     0
176
     1
290
     0
176
     1
290
     0
176
     1
290
     0
176
     1
 90
       50
176
     1
 40
0.0
176
     1
 40
1.0
176
     1
 90
        0
176
     1
 62
   178
420
        0
176
     1
 90
       50
176
     1
 90
        3
176
     1
 62
     5
420
      255
176
     1
290
     0
176
     1
 90
       50
176
     1
 90
       50
176
     1
 90
       50
176
     1
290
     0
176
     1
 90
       50
176
     1
 62
   256
176
     0
 40
1.0
176
     0
 90
        2
176
     1
  1
strokes_ogs.tif
176
     1
290
     0
176
     1
 40
1.0
176
     1
 40
1.0
176
     1
  0
VISUALSTYLE
  5
393
102
{ACAD_REACTORS
330
389
102
}
330
389
100
AcDbVisualStyle
  2
Conceptual
 70
     9
177
     3
291
     0
 70
    58
 90
        3
176
     1
 90
        2
176
     1
 90
        0
176
     1
 90
        0
176
     1
 40
0.6
176
     1
 40
30.0
176
     1
 62
     7
420
 16777215
176
     1
 90
        2
176
     1
 90
        2
176
     1
 62
     7
176
     1
 62
   257
176
     1
 90
        1
176
     1
 90
        1
176
     1
 40
179.0
176
     1
 90
        8
176
     1
 62
     7
176
     1
 40
1.0
176
     1
 90
        1
176
     1
 90
        6
176
     1
 90
        2
176
     1
 62
     7
176
     1
 90
        3
176
     1
 90
        0
176
     1
 90
        0
176
     1
290
     0
176
     1
 90
        1
176
     1
 40
0.0
176
     1
 90
        0
176
     1
290
     0
176
     1
290
     1
176
     1
290
     1
176
     1
290
     0
176
     1
290
     0
176
     1
290
     0
176
     1
290
     0
176
     1
290
     0
176
     1
290
     0
176
     1
 90
       50
176
     1
 40
0.0
176
     1
 40
1.0
176
     1
 90
        0
176
     1
 62
   178
420
        0
176
     1
 90
       50
176
     1
 90
        3
176
     1
 62
     5
420
      255
176
     1
290
     0
176
     1
 90
       50
176
     1
 90
       50
176
     1
 90
       50
176
     1
290
     0
176
     1
 90
       50
176
     1
 62
   256
176
     0
 40
1.0
176
     0
 90
        2
176
     1
  1
strokes_ogs.tif
176
     1
290
     0
176
     1
 40
1.0
176
     1
 40
1.0
176
     1
  0
VISUALSTYLE
  5
394
102
{ACAD_REACTORS
330
389
102
}
330
389
100
AcDbVisualStyle
  2
Dim
 70
    11
177
     3
291
     1
 70
    58
 90
        2
176
     1
 90
        2
176
     1
 90
        0
176
     1
 90
        0
176
     1
 40
0.6
176
     1
 40
30.0
176
     1
 62
     7
420
 16777215
176
     1
 90
        1
176
     1
 90
        4
176
     1
 62
     7
176
     1
 62
   257
176
     1
 90
        1
176
     1
 90
        1
176
     1
 40
1.0
176
     1
 90
        8
176
     1
 62
     7
176
     1
 40
1.0
176
     1
 90
        1
176
     1
 90
        6
176
     1
 90
        2
176
     1
 62
     7
176
     1
 90
        5
176
     1
 90
        0
176
     1
 90
        0
176
     1
290
     0
176
     1
 90
        1
176
     1
 40
-50.0
176
     1
 90
        0
176
     1
290
     0
176
     1
290
     1
176
     1
290
     1
176
     1
290
     0
176
     1
290
     0
176
     1
290
     0
176
     1
290
     0
176
     1
290
     0
176
     1
290
     0
176
     1
 90
       50
176
     1
 40
0.0
176
     1
 40
1.0
176
     1
 90
        0
176
     1
 62
   178
420
        0
176
     1
 90
       50
176
     1
 90
        3
176
     1
 62
     5
420
      255
176
     1
290
     0
176
     1
 90
       50
176
     1
 90
       50
176
     1
 90
       50
176
     1
290
     0
176
     1
 90
       50
176
     1
 62
   256
176
     0
 40
1.0
176
     0
 90
        2
176
     1
  1
strokes_ogs.tif
176
     1
290
     0
176
     1
 40
1.0
176
     1
 40
1.0
176
     1
  0
VISUALSTYLE
  5
39C
102
{ACAD_REACTORS
330
389
102
}
330
389
100
AcDbVisualStyle
  2
EdgeColorOff
 70
    22
177
     3
291
     1
 70
    58
 90
        2
176
     0
 90
        2
176
     0
 90
        0
176
     0
 90
        0
176
     0
 40
0.6
176
     0
 40
30.0
176
     0
 62
     7
420
 16777215
176
     0
 90
        1
176
     0
 90
        4
176
     0
 62
     7
176
     0
 62
   257
176
     0
 90
        1
176
     0
 90
        1
176
     0
 40
1.0
176
     0
 90
        8
176
     2
 62
     7
176
     0
 40
1.0
176
     0
 90
        1
176
     0
 90
        6
176
     0
 90
        2
176
     0
 62
     7
176
     0
 90
        5
176
     0
 90
        0
176
     0
 90
        0
176
     0
290
     0
176
     0
 90
        1
176
     0
 40
0.0
176
     0
 90
        0
176
     0
290
     0
176
     0
290
     1
176
     0
290
     1
176
     0
290
     0
176
     0
290
     0
176
     0
290
     0
176
     0
290
     0
176
     0
290
     0
176
     0
290
     0
176
     0
 90
       50
176
     0
 40
0.0
176
     0
 40
1.0
176
     0
 90
        0
176
     0
 62
   178
420
        0
176
     0
 90
       50
176
     0
 90
        3
176
     0
 62
     5
420
      255
176
     0
290
     0
176
     0
 90
       50
176
     0
 90
       50
176
     0
 90
       50
176
     0
290
     0
176
     0
 90
       50
176
     0
 62
   256
176
     0
 40
1.0
176
     0
 90
        2
176
     0
  1
strokes_ogs.tif
176
     0
290
     0
176
     0
 40
1.0
176
     0
 40
1.0
176
     0
  0
VISUALSTYLE
  5
398
102
{ACAD_REACTORS
330
389
102
}
330
389
100
AcDbVisualStyle
  2
Facepattern
 70
    15
177
     3
291
     1
 70
    58
 90
        2
176
     1
 90
        2
176
     1
 90
        0
176
     1
 90
        0
176
     1
 40
0.6
176
     1
 40
30.0
176
     1
 62
     7
420
 16777215
176
     1
 90
        1
176
     1
 90
        4
176
     1
 62
     7
176
     1
 62
   257
176
     1
 90
        1
176
     1
 90
        1
176
     1
 40
1.0
176
     1
 90
        8
176
     1
 62
     7
176
     1
 40
1.0
176
     1
 90
        1
176
     1
 90
        6
176
     1
 90
        2
176
     1
 62
     7
176
     1
 90
        5
176
     1
 90
        0
176
     1
 90
        0
176
     1
290
     0
176
     1
 90
        1
176
     1
 40
0.0
176
     1
 90
        0
176
     1
290
     0
176
     1
290
     1
176
     1
290
     1
176
     1
290
     0
176
     1
290
     0
176
     1
290
     0
176
     1
290
     0
176
     1
290
     0
176
     1
290
     0
176
     1
 90
       50
176
     1
 40
0.0
176
     1
 40
1.0
176
     1
 90
        0
176
     1
 62
   178
420
        0
176
     1
 90
       50
176
     1
 90
        3
176
     1
 62
     5
420
      255
176
     1
290
     0
176
     1
 90
       50
176
     1
 90
       50
176
     1
 90
       50
176
     1
290
     0
176
     1
 90
       50
176
     1
 62
   256
176
     0
 40
1.0
176
     0
 90
        2
176
     1
  1
strokes_ogs.tif
176
     1
290
     0
176
     1
 40
1.0
176
     1
 40
1.0
176
     1
  0
VISUALSTYLE
  5
38A
102
{ACAD_REACTORS
330
389
102
}
330
389
100
AcDbVisualStyle
  2
Flat
 70
     0
177
     3
291
     1
 70
    58
 90
        2
176
     1
 90
        1
176
     1
 90
        1
176
     1
 90
        2
176
     1
 40
0.6
176
     1
 40
30.0
176
     1
 62
     7
420
 16777215
176
     1
 90
        0
176
     1
 90
        0
176
     1
 62
     7
176
     1
 62
   257
176
     1
 90
        1
176
     1
 90
        1
176
     1
 40
1.0
176
     1
 90
        8
176
     1
 62
     7
176
     1
 40
1.0
176
     1
 90
        1
176
     1
 90
        6
176
     1
 90
        2
176
     1
 62
     7
176
     1
 90
        5
176
     1
 90
        0
176
     1
 90
        0
176
     1
290
     0
176
     1
 90
       13
176
     1
 40
0.0
176
     1
 90
        0
176
     1
290
     0
176
     1
290
     1
176
     1
290
     1
176
     1
290
     0
176
     1
290
     0
176
     1
290
     0
176
     1
290
     0
176
     1
290
     0
176
     1
290
     0
176
     1
 90
       50
176
     1
 40
0.0
176
     1
 40
1.0
176
     1
 90
        0
176
     1
 62
   178
420
        0
176
     1
 90
       50
176
     1
 90
        3
176
     1
 62
     5
420
      255
176
     1
290
     0
176
     1
 90
       50
176
     1
 90
       50
176
     1
 90
       50
176
     1
290
     0
176
     1
 90
       50
176
     1
 62
   256
176
     0
 40
1.0
176
     0
 90
        2
176
     1
  1
strokes_ogs.tif
176
     1
290
     0
176
     1
 40
1.0
176
     1
 40
1.0
176
     1
  0
VISUALSTYLE
  5
38B
102
{ACAD_REACTORS
330
389
102
}
330
389
100
AcDbVisualStyle
  2
FlatWithEdges
 70
     1
177
     3
291
     1
 70
    58
 90
        2
176
     1
 90
        1
176
     1
 90
        1
176
     1
 90
        2
176
     1
 40
0.6
176
     1
 40
30.0
176
     1
 62
     7
420
 16777215
176
     1
 90
        1
176
     1
 90
        0
176
     1
 62
     7
176
     1
 62
   257
176
     1
 90
        1
176
     1
 90
        1
176
     1
 40
1.0
176
     1
 90
        0
176
     1
 62
   257
176
     1
 40
1.0
176
     1
 90
        1
176
     1
 90
        6
176
     1
 90
        2
176
     1
 62
     7
176
     1
 90
        5
176
     1
 90
        0
176
     1
 90
        0
176
     1
290
     0
176
     1
 90
       13
176
     1
 40
0.0
176
     1
 90
        0
176
     1
290
     0
176
     1
290
     1
176
     1
290
     1
176
     1
290
     0
176
     1
290
     0
176
     1
290
     0
176
     1
290
     0
176
     1
290
     0
176
     1
290
     0
176
     1
 90
       50
176
     1
 40
0.0
176
     1
 40
1.0
176
     1
 90
        0
176
     1
 62
   178
420
        0
176
     1
 90
       50
176
     1
 90
        3
176
     1
 62
     5
420
      255
176
     1
290
     0
176
     1
 90
       50
176
     1
 90
       50
176
     1
 90
       50
176
     1
290
     0
176
     1
 90
       50
176
     1
 62
   256
176
     0
 40
1.0
176
     0
 90
        2
176
     1
  1
strokes_ogs.tif
176
     1
290
     0
176
     1
 40
1.0
176
     1
 40
1.0
176
     1
  0
VISUALSTYLE
  5
38C
102
{ACAD_REACTORS
330
389
102
}
330
389
100
AcDbVisualStyle
  2
Gouraud
 70
     2
177
     3
291
     1
 70
    58
 90
        2
176
     1
 90
        2
176
     1
 90
        1
176
     1
 90
        2
176
     1
 40
0.6
176
     1
 40
30.0
176
     1
 62
     7
420
 16777215
176
     1
 90
        0
176
     1
 90
        0
176
     1
 62
     7
176
     1
 62
   257
176
     1
 90
        1
176
     1
 90
        1
176
     1
 40
1.0
176
     1
 90
        0
176
     1
 62
     7
176
     1
 40
1.0
176
     1
 90
        1
176
     1
 90
        6
176
     1
 90
        2
176
     1
 62
     7
176
     1
 90
        5
176
     1
 90
        0
176
     1
 90
        0
176
     1
290
     0
176
     1
 90
       13
176
     1
 40
0.0
176
     1
 90
        0
176
     1
290
     0
176
     1
290
     1
176
     1
290
     1
176
     1
290
     0
176
     1
290
     0
176
     1
290
     0
176
     1
290
     0
176
     1
290
     0
176
     1
290
     0
176
     1
 90
       50
176
     1
 40
0.0
176
     1
 40
1.0
176
     1
 90
        0
176
     1
 62
   178
420
        0
176
     1
 90
       50
176
     1
 90
        3
176
     1
 62
     5
420
      255
176
     1
290
     0
176
     1
 90
       50
176
     1
 90
       50
176
     1
 90
       50
176
     1
290
     0
176
     1
 90
       50
176
     1
 62
   256
176
     0
 40
1.0
176
     0
 90
        2
176
     1
  1
strokes_ogs.tif
176
     1
290
     0
176
     1
 40
1.0
176
     1
 40
1.0
176
     1
  0
VISUALSTYLE
  5
38D
102
{ACAD_REACTORS
330
389
102
}
330
389
100
AcDbVisualStyle
  2
GouraudWithEdges
 70
     3
177
     3
291
     1
 70
    58
 90
        2
176
     1
 90
        2
176
     1
 90
        1
176
     1
 90
        2
176
     1
 40
0.6
176
     1
 40
30.0
176
     1
 62
     7
420
 16777215
176
     1
 90
        1
176
     1
 90
        0
176
     1
 62
     7
176
     1
 62
   257
176
     1
 90
        1
176
     1
 90
        1
176
     1
 40
1.0
176
     1
 90
        0
176
     1
 62
   257
176
     1
 40
1.0
176
     1
 90
        1
176
     1
 90
        6
176
     1
 90
        2
176
     1
 62
     7
176
     1
 90
        5
176
     1
 90
        0
176
     1
 90
        0
176
     1
290
     0
176
     1
 90
       13
176
     1
 40
0.0
176
     1
 90
        0
176
     1
290
     0
176
     1
290
     1
176
     1
290
     1
176
     1
290
     0
176
     1
290
     0
176
     1
290
     0
176
     1
290
     0
176
     1
290
     0
176
     1
290
     0
176
     1
 90
       50
176
     1
 40
0.0
176
     1
 40
1.0
176
     1
 90
        0
176
     1
 62
   178
420
        0
176
     1
 90
       50
176
     1
 90
        3
176
     1
 62
     5
420
      255
176
     1
290
     0
176
     1
 90
       50
176
     1
 90
       50
176
     1
 90
       50
176
     1
290
     0
176
     1
 90
       50
176
     1
 62
   256
176
     0
 40
1.0
176
     0
 90
        2
176
     1
  1
strokes_ogs.tif
176
     1
290
     0
176
     1
 40
1.0
176
     1
 40
1.0
176
     1
  0
VISUALSTYLE
  5
390
102
{ACAD_REACTORS
330
389
102
}
330
389
100
AcDbVisualStyle
  2
Hidden
 70
     6
177
     3
291
     0
 70
    58
 90
        1
176
     1
 90
        2
176
     1
 90
        2
176
     1
 90
        0
176
     1
 40
0.6
176
     1
 40
30.0
176
     1
 62
     7
420
 16777215
176
     1
 90
        2
176
     1
 90
        2
176
     1
 62
     7
176
     1
 62
   257
176
     1
 90
        2
176
     1
 90
        1
176
     1
 40
40.0
176
     1
 90
        0
176
     1
 62
   257
176
     1
 40
1.0
176
     1
 90
        1
176
     1
 90
        6
176
     1
 90
        2
176
     1
 62
     7
176
     1
 90
        3
176
     1
 90
        0
176
     1
 90
        0
176
     1
290
     0
176
     1
 90
        1
176
     1
 40
0.0
176
     1
 90
        0
176
     1
290
     0
176
     1
290
     1
176
     1
290
     1
176
     1
290
     0
176
     1
290
     0
176
     1
290
     0
176
     1
290
     0
176
     1
290
     0
176
     1
290
     0
176
     1
 90
       50
176
     1
 40
0.0
176
     1
 40
1.0
176
     1
 90
        0
176
     1
 62
   178
420
        0
176
     1
 90
       50
176
     1
 90
        3
176
     1
 62
     5
420
      255
176
     1
290
     0
176
     1
 90
       50
176
     1
 90
       50
176
     1
 90
       50
176
     1
290
     0
176
     1
 90
       50
176
     1
 62
   256
176
     0
 40
1.0
176
     0
 90
        2
176
     1
  1
strokes_ogs.tif
176
     1
290
     0
176
     1
 40
1.0
176
     1
 40
1.0
176
     1
  0
VISUALSTYLE
  5
39A
102
{ACAD_REACTORS
330
389
102
}
330
389
100
AcDbVisualStyle
  2
JitterOff
 70
    20
177
     3
291
     1
 70
    58
 90
        2
176
     0
 90
        2
176
     0
 90
        0
176
     0
 90
        0
176
     0
 40
0.6
176
     0
 40
30.0
176
     0
 62
     7
420
 16777215
176
     0
 90
        1
176
     0
 90
        4
176
     0
 62
     7
176
     0
 62
   257
176
     0
 90
        1
176
     0
 90
        1
176
     0
 40
1.0
176
     0
 90
       10
176
     2
 62
     7
176
     0
 40
1.0
176
     0
 90
        1
176
     0
 90
        6
176
     0
 90
        2
176
     0
 62
     7
176
     0
 90
        5
176
     0
 90
        0
176
     0
 90
        0
176
     0
290
     0
176
     0
 90
        1
176
     0
 40
0.0
176
     0
 90
        0
176
     0
290
     0
176
     0
290
     1
176
     0
290
     1
176
     0
290
     0
176
     0
290
     0
176
     0
290
     0
176
     0
290
     0
176
     0
290
     0
176
     0
290
     0
176
     0
 90
       50
176
     0
 40
0.0
176
     0
 40
1.0
176
     0
 90
        0
176
     0
 62
   178
420
        0
176
     0
 90
       50
176
     0
 90
        3
176
     0
 62
     5
420
      255
176
     0
290
     0
176
     0
 90
       50
176
     0
 90
       50
176
     0
 90
       50
176
     0
290
     0
176
     0
 90
       50
176
     0
 62
   256
176
     0
 40
1.0
176
     0
 90
        2
176
     0
  1
strokes_ogs.tif
176
     0
290
     0
176
     0
 40
1.0
176
     0
 40
1.0
176
     0
  0
VISUALSTYLE
  5
397
102
{ACAD_REACTORS
330
389
102
}
330
389
100
AcDbVisualStyle
  2
Linepattern
 70
    14
177
     3
291
     1
 70
    58
 90
        2
176
     1
 90
        2
176
     1
 90
        0
176
     1
 90
        0
176
     1
 40
0.6
176
     1
 40
30.0
176
     1
 62
     7
420
 16777215
176
     1
 90
        1
176
     1
 90
        4
176
     1
 62
     7
176
     1
 62
   257
176
     1
 90
        7
176
     1
 90
        7
176
     1
 40
1.0
176
     1
 90
        8
176
     1
 62
     7
176
     1
 40
1.0
176
     1
 90
        1
176
     1
 90
        6
176
     1
 90
        2
176
     1
 62
     7
176
     1
 90
        5
176
     1
 90
        0
176
     1
 90
        0
176
     1
290
     0
176
     1
 90
        1
176
     1
 40
0.0
176
     1
 90
        0
176
     1
290
     0
176
     1
290
     1
176
     1
290
     1
176
     1
290
     0
176
     1
290
     0
176
     1
290
     0
176
     1
290
     0
176
     1
290
     0
176
     1
290
     0
176
     1
 90
       50
176
     1
 40
0.0
176
     1
 40
1.0
176
     1
 90
        0
176
     1
 62
   178
420
        0
176
     1
 90
       50
176
     1
 90
        3
176
     1
 62
     5
420
      255
176
     1
290
     0
176
     1
 90
       50
176
     1
 90
       50
176
     1
 90
       50
176
     1
290
     0
176
     1
 90
       50
176
     1
 62
   256
176
     0
 40
1.0
176
     0
 90
        2
176
     1
  1
strokes_ogs.tif
176
     1
290
     0
176
     1
 40
1.0
176
     1
 40
1.0
176
     1
  0
VISUALSTYLE
  5
39B
102
{ACAD_REACTORS
330
389
102
}
330
389
100
AcDbVisualStyle
  2
OverhangOff
 70
    21
177
     3
291
     1
 70
    58
 90
        2
176
     0
 90
        2
176
     0
 90
        0
176
     0
 90
        0
176
     0
 40
0.6
176
     0
 40
30.0
176
     0
 62
     7
420
 16777215
176
     0
 90
        1
176
     0
 90
        4
176
     0
 62
     7
176
     0
 62
   257
176
     0
 90
        1
176
     0
 90
        1
176
     0
 40
1.0
176
     0
 90
        9
176
     2
 62
     7
176
     0
 40
1.0
176
     0
 90
        1
176
     0
 90
        6
176
     0
 90
        2
176
     0
 62
     7
176
     0
 90
        5
176
     0
 90
        0
176
     0
 90
        0
176
     0
290
     0
176
     0
 90
        1
176
     0
 40
0.0
176
     0
 90
        0
176
     0
290
     0
176
     0
290
     1
176
     0
290
     1
176
     0
290
     0
176
     0
290
     0
176
     0
290
     0
176
     0
290
     0
176
     0
290
     0
176
     0
290
     0
176
     0
 90
       50
176
     0
 40
0.0
176
     0
 40
1.0
176
     0
 90
        0
176
     0
 62
   178
420
        0
176
     0
 90
       50
176
     0
 90
        3
176
     0
 62
     5
420
      255
176
     0
290
     0
176
     0
 90
       50
176
     0
 90
       50
176
     0
 90
       50
176
     0
290
     0
176
     0
 90
       50
176
     0
 62
   256
176
     0
 40
1.0
176
     0
 90
        2
176
     0
  1
strokes_ogs.tif
176
     0
290
     0
176
     0
 40
1.0
176
     0
 40
1.0
176
     0
  0
VISUALSTYLE
  5
392
102
{ACAD_REACTORS
330
389
102
}
330
389
100
AcDbVisualStyle
  2
Realistic
 70
     8
177
     3
291
     0
 70
    58
 90
        2
176
     1
 90
        3
176
     1
 90
        0
176
     1
 90
        2
176
     1
 40
0.6
176
     1
 40
30.0
176
     1
 62
     7
420
 16777215
176
     1
 90
        0
176
     1
 90
        0
176
     1
 62
     7
176
     1
 62
   257
176
     1
 90
        1
176
     1
 90
        1
176
     1
 40
1.0
176
     1
 90
        8
176
     1
 62
   257
176
     1
 40
1.0
176
     1
 90
        1
176
     1
 90
        6
176
     1
 90
        2
176
     1
 62
     7
176
     1
 90
        3
176
     1
 90
        0
176
     1
 90
        0
176
     1
290
     0
176
     1
 90
       13
176
     1
 40
0.0
176
     1
 90
        0
176
     1
290
     0
176
     1
290
     1
176
     1
290
     1
176
     1
290
     0
176
     1
290
     0
176
     1
290
     0
176
     1
290
     0
176
     1
290
     0
176
     1
290
     0
176
     1
 90
       50
176
     1
 40
0.0
176
     1
 40
1.0
176
     1
 90
        0
176
     1
 62
   178
420
        0
176
     1
 90
       50
176
     1
 90
        3
176
     1
 62
     5
420
      255
176
     1
290
     0
176
     1
 90
       50
176
     1
 90
       50
176
     1
 90
       50
176
     1
290
     0
176
     1
 90
       50
176
     1
 62
   256
176
     0
 40
1.0
176
     0
 90
        2
176
     1
  1
strokes_ogs.tif
176
     1
290
     0
176
     1
 40
1.0
176
     1
 40
1.0
176
     1
  0
VISUALSTYLE
  5
3A1
102
{ACAD_REACTORS
330
389
102
}
330
389
100
AcDbVisualStyle
  2
Shaded
 70
    27
177
     3
291
     0
 70
    58
 90
        2
176
     1
 90
        2
176
     1
 90
        1
176
     1
 90
        2
176
     1
 40
0.6
176
     1
 40
30.0
176
     1
 62
     7
420
 16777215
176
     1
 90
        0
176
     1
 90
        4
176
     1
 62
     7
176
     1
 62
   257
176
     1
 90
        1
176
     1
 90
        1
176
     1
 40
1.0
176
     1
 90
        8
176
     1
 62
   257
176
     1
 40
1.0
176
     1
 90
        1
176
     1
 90
        6
176
     1
 90
        2
176
     1
 62
     8
420
  7895160
176
     1
 90
        3
176
     1
 90
        0
176
     1
 90
        0
176
     1
290
     0
176
     1
 90
        5
176
     1
 40
0.0
176
     1
 90
        0
176
     1
290
     0
176
     1
290
     1
176
     1
290
     1
176
     1
290
     0
176
     1
290
     0
176
     1
290
     0
176
     1
290
     0
176
     1
290
     0
176
     1
290
     0
176
     1
 90
       50
176
     1
 40
0.0
176
     1
 40
1.0
176
     1
 90
        0
176
     1
 62
   178
420
        0
176
     1
 90
       50
176
     1
 90
        3
176
     1
 62
     5
420
      255
176
     1
290
     0
176
     1
 90
       50
176
     1
 90
       50
176
     1
 90
       50
176
     1
290
     0
176
     1
 90
       50
176
     1
 62
   256
176
     0
 40
1.0
176
     0
 90
        2
176
     1
  1
strokes_ogs.tif
176
     1
290
     0
176
     1
 40
1.0
176
     1
 40
1.0
176
     1
  0
VISUALSTYLE
  5
3A0
102
{ACAD_REACTORS
330
389
102
}
330
389
100
AcDbVisualStyle
  2
Shaded with edges
 70
    26
177
     3
291
     0
 70
    58
 90
        2
176
     1
 90
        2
176
     1
 90
        1
176
     1
 90
        2
176
     1
 40
0.6
176
     1
 40
30.0
176
     1
 62
     7
420
 16777215
176
     1
 90
        1
176
     1
 90
       10
176
     1
 62
     7
176
     1
 62
   257
176
     1
 90
        2
176
     1
 90
        1
176
     1
 40
1.0
176
     1
 90
        8
176
     1
 62
   257
176
     1
 40
1.0
176
     1
 90
        1
176
     1
 90
        6
176
     1
 90
        2
176
     1
 62
     7
176
     1
 90
        3
176
     1
 90
        0
176
     1
 90
        0
176
     1
290
     0
176
     1
 90
        5
176
     1
 40
0.0
176
     1
 90
        0
176
     1
290
     0
176
     1
290
     1
176
     1
290
     1
176
     1
290
     0
176
     1
290
     0
176
     1
290
     0
176
     1
290
     0
176
     1
290
     0
176
     1
290
     0
176
     1
 90
       50
176
     1
 40
0.0
176
     1
 40
1.0
176
     1
 90
        0
176
     1
 62
   178
420
        0
176
     1
 90
       50
176
     1
 90
        3
176
     1
 62
     5
420
      255
176
     1
290
     0
176
     1
 90
       50
176
     1
 90
       50
176
     1
 90
       50
176
     1
290
     0
176
     1
 90
       50
176
     1
 62
   256
176
     0
 40
1.0
176
     0
 90
        2
176
     1
  1
strokes_ogs.tif
176
     1
290
     0
176
     1
 40
1.0
176
     1
 40
1.0
176
     1
  0
VISUALSTYLE
  5
39D
102
{ACAD_REACTORS
330
389
102
}
330
389
100
AcDbVisualStyle
  2
Shades of Gray
 70
    23
177
     3
291
     0
 70
    58
 90
        2
176
     1
 90
        2
176
     1
 90
        3
176
     1
 90
        0
176
     1
 40
0.6
176
     1
 40
30.0
176
     1
 62
     7
420
 16777215
176
     1
 90
        2
176
     1
 90
        2
176
     1
 62
     7
176
     1
 62
     7
176
     1
 90
        1
176
     1
 90
        1
176
     1
 40
40.0
176
     1
 90
        8
176
     1
 62
     7
176
     1
 40
1.0
176
     1
 90
        1
176
     1
 90
        6
176
     1
 90
        2
176
     1
 62
     7
176
     1
 90
        3
176
     1
 90
        0
176
     1
 90
        0
176
     1
290
     0
176
     1
 90
        1
176
     1
 40
0.0
176
     1
 90
        0
176
     1
290
     0
176
     1
290
     1
176
     1
290
     1
176
     1
290
     0
176
     1
290
     0
176
     1
290
     0
176
     1
290
     0
176
     1
290
     0
176
     1
290
     0
176
     1
 90
       50
176
     1
 40
0.0
176
     1
 40
1.0
176
     1
 90
        0
176
     1
 62
   178
420
        0
176
     1
 90
       50
176
     1
 90
        3
176
     1
 62
     5
420
      255
176
     1
290
     0
176
     1
 90
       50
176
     1
 90
       50
176
     1
 90
       50
176
     1
290
     0
176
     1
 90
       50
176
     1
 62
   256
176
     0
 40
1.0
176
     0
 90
        2
176
     1
  1
strokes_ogs.tif
176
     1
290
     0
176
     1
 40
1.0
176
     1
 40
1.0
176
     1
  0
VISUALSTYLE
  5
39E
102
{ACAD_REACTORS
330
389
102
}
330
389
100
AcDbVisualStyle
  2
Sketchy
 70
    24
177
     3
291
     0
 70
    58
 90
        1
176
     1
 90
        2
176
     1
 90
        2
176
     1
 90
        0
176
     1
 40
0.6
176
     1
 40
30.0
176
     1
 62
     7
420
 16777215
176
     1
 90
        2
176
     1
 90
        2
176
     1
 62
     7
176
     1
 62
     7
176
     1
 90
        1
176
     1
 90
        1
176
     1
 40
40.0
176
     1
 90
       11
176
     1
 62
     7
176
     1
 40
1.0
176
     1
 90
        1
176
     1
 90
        6
176
     1
 90
        2
176
     1
 62
     7
176
     1
 90
        6
176
     1
 90
        0
176
     1
 90
        0
176
     1
290
     0
176
     1
 90
        1
176
     1
 40
0.0
176
     1
 90
        0
176
     1
290
     0
176
     1
290
     1
176
     1
290
     1
176
     1
290
     0
176
     1
290
     0
176
     1
290
     0
176
     1
290
     0
176
     1
290
     0
176
     1
290
     0
176
     1
 90
       50
176
     1
 40
0.0
176
     1
 40
1.0
176
     1
 90
        0
176
     1
 62
   178
420
        0
176
     1
 90
       50
176
     1
 90
        3
176
     1
 62
     5
420
      255
176
     1
290
     0
176
     1
 90
       50
176
     1
 90
       50
176
     1
 90
       50
176
     1
290
     0
176
     1
 90
       50
176
     1
 62
   256
176
     0
 40
1.0
176
     0
 90
        2
176
     1
  1
strokes_ogs.tif
176
     1
290
     0
176
     1
 40
1.0
176
     1
 40
1.0
176
     1
  0
VISUALSTYLE
  5
396
102
{ACAD_REACTORS
330
389
102
}
330
389
100
AcDbVisualStyle
  2
Thicken
 70
    13
177
     3
291
     1
 70
    58
 90
        2
176
     1
 90
        2
176
     1
 90
        0
176
     1
 90
        0
176
     1
 40
0.6
176
     1
 40
30.0
176
     1
 62
     7
420
 16777215
176
     1
 90
        1
176
     1
 90
        4
176
     1
 62
     7
176
     1
 62
   257
176
     1
 90
        1
176
     1
 90
        1
176
     1
 40
1.0
176
     1
 90
       12
176
     1
 62
     7
176
     1
 40
1.0
176
     1
 90
        1
176
     1
 90
        6
176
     1
 90
        2
176
     1
 62
     7
176
     1
 90
        5
176
     1
 90
        0
176
     1
 90
        0
176
     1
290
     0
176
     1
 90
        1
176
     1
 40
0.0
176
     1
 90
        0
176
     1
290
     0
176
     1
290
     1
176
     1
290
     1
176
     1
290
     0
176
     1
290
     0
176
     1
290
     0
176
     1
290
     0
176
     1
290
     0
176
     1
290
     0
176
     1
 90
       50
176
     1
 40
0.0
176
     1
 40
1.0
176
     1
 90
        0
176
     1
 62
   178
420
        0
176
     1
 90
       50
176
     1
 90
        3
176
     1
 62
     5
420
      255
176
     1
290
     0
176
     1
 90
       50
176
     1
 90
       50
176
     1
 90
       50
176
     1
290
     0
176
     1
 90
       50
176
     1
 62
   256
176
     0
 40
1.0
176
     0
 90
        2
176
     1
  1
strokes_ogs.tif
176
     1
290
     0
176
     1
 40
1.0
176
     1
 40
1.0
176
     1
  0
VISUALSTYLE
  5
38F
102
{ACAD_REACTORS
330
389
102
}
330
389
100
AcDbVisualStyle
  2
Wireframe
 70
     5
177
     3
291
     0
 70
    58
 90
        0
176
     1
 90
        2
176
     1
 90
        0
176
     1
 90
        0
176
     1
 40
0.6
176
     1
 40
30.0
176
     1
 62
     7
420
 16777215
176
     1
 90
        1
176
     1
 90
        4
176
     1
 62
     7
176
     1
 62
   257
176
     1
 90
        1
176
     1
 90
        1
176
     1
 40
1.0
176
     1
 90
        0
176
     1
 62
   257
176
     1
 40
1.0
176
     1
 90
        1
176
     1
 90
        6
176
     1
 90
        2
176
     1
 62
     7
176
     1
 90
        3
176
     1
 90
        0
176
     1
 90
        0
176
     1
290
     0
176
     1
 90
        1
176
     1
 40
0.0
176
     1
 90
        0
176
     1
290
     0
176
     1
290
     1
176
     1
290
     1
176
     1
290
     0
176
     1
290
     0
176
     1
290
     0
176
     1
290
     0
176
     1
290
     0
176
     1
290
     0
176
     1
 90
       50
176
     1
 40
0.0
176
     1
 40
1.0
176
     1
 90
        0
176
     1
 62
   178
420
        0
176
     1
 90
       50
176
     1
 90
        3
176
     1
 62
     5
420
      255
176
     1
290
     0
176
     1
 90
       50
176
     1
 90
       50
176
     1
 90
       50
176
     1
290
     0
176
     1
 90
       50
176
     1
 62
   256
176
     0
 40
1.0
176
     0
 90
        2
176
     1
  1
strokes_ogs.tif
176
     1
290
     0
176
     1
 40
1.0
176
     1
 40
1.0
176
     1
  0
VISUALSTYLE
  5
39F
102
{ACAD_REACTORS
330
389
102
}
330
389
100
AcDbVisualStyle
  2
X-Ray
 70
    25
177
     3
291
     0
 70
    58
 90
        2
176
     1
 90
        2
176
     1
 90
        1
176
     1
 90
        1
176
     1
 40
0.5
176
     1
 40
30.0
176
     1
 62
     7
420
 16777215
176
     1
 90
        1
176
     1
 90
        0
176
     1
 62
     7
176
     1
 62
   257
176
     1
 90
        1
176
     1
 90
        1
176
     1
 40
1.0
176
     1
 90
        8
176
     1
 62
     7
176
     1
 40
1.0
176
     1
 90
        1
176
     1
 90
        6
176
     1
 90
        2
176
     1
 62
     7
176
     1
 90
        3
176
     1
 90
        0
176
     1
 90
        0
176
     1
290
     0
176
     1
 90
       13
176
     1
 40
0.0
176
     1
 90
        0
176
     1
290
     0
176
     1
290
     1
176
     1
290
     1
176
     1
290
     0
176
     1
290
     0
176
     1
290
     0
176
     1
290
     0
176
     1
290
     0
176
     1
290
     0
176
     1
 90
       50
176
     1
 40
0.0
176
     1
 40
1.0
176
     1
 90
        0
176
     1
 62
   178
420
        0
176
     1
 90
       50
176
     1
 90
        3
176
     1
 62
     5
420
      255
176
     1
290
     0
176
     1
 90
       50
176
     1
 90
       50
176
     1
 90
       50
176
     1
290
     0
176
     1
 90
       50
176
     1
 62
   256
176
     0
 40
1.0
176
     0
 90
        2
176
     1
  1
strokes_ogs.tif
176
     1
290
     0
176
     1
 40
1.0
176
     1
 40
1.0
176
     1
  0
DICTIONARYVAR
  5
40B
102
{ACAD_REACTORS
330
40A
102
}
330
40A
100
DictionaryVariables
280
     0
  1
1:1
  0
XRECORD
  5
3CB
102
{ACAD_REACTORS
330
3CA
102
}
330
3CA
100
AcDbXrecord
280
     1
290
     1
  0
XRECORD
  5
3CC
102
{ACAD_REACTORS
330
3CA
102
}
330
3CA
100
AcDbXrecord
280
     1
290
     1
  0
XRECORD
  5
3CD
102
{ACAD_REACTORS
330
3CA
102
}
330
3CA
100
AcDbXrecord
280
     1
290
     1
  0
XRECORD
  5
3CE
102
{ACAD_REACTORS
330
3CA
102
}
330
3CA
100
AcDbXrecord
280
     1
290
     1
  0
XRECORD
  5
3CF
102
{ACAD_REACTORS
330
3CA
102
}
330
3CA
100
AcDbXrecord
280
     1
1000
auto
  0
XRECORD
  5
3D0
102
{ACAD_REACTORS
330
3CA
102
}
330
3CA
100
AcDbXrecord
280
     1
1000
auto
  0
XRECORD
  5
3D1
102
{ACAD_REACTORS
330
3CA
102
}
330
3CA
100
AcDbXrecord
280
     1
1000
auto
  0
XRECORD
  5
3D2
102
{ACAD_REACTORS
330
3CA
102
}
330
3CA
100
AcDbXrecord
280
     1
1000
auto
  0
XRECORD
  5
3D3
102
{ACAD_REACTORS
330
3CA
102
}
330
3CA
100
AcDbXrecord
280
     1
1000
auto
  0
XRECORD
  5
3D4
102
{ACAD_REACTORS
330
3CA
102
}
330
3CA
100
AcDbXrecord
280
     1
1000
auto
  0
XRECORD
  5
3D5
102
{ACAD_REACTORS
330
3CA
102
}
330
3CA
100
AcDbXrecord
280
     1
1000
auto
  0
XRECORD
  5
3D6
102
{ACAD_REACTORS
330
3CA
102
}
330
3CA
100
AcDbXrecord
280
     1
1000
auto
  0
XRECORD
  5
3D7
102
{ACAD_REACTORS
330
3CA
102
}
330
3CA
100
AcDbXrecord
280
     1
290
     0
  0
XRECORD
  5
3D8
102
{ACAD_REACTORS
330
3CA
102
}
330
3CA
100
AcDbXrecord
280
     1
290
     0
  0
XRECORD
  5
3D9
102
{ACAD_REACTORS
330
3CA
102
}
330
3CA
100
AcDbXrecord
280
     1
290
     0
  0
XRECORD
  5
3DA
102
{ACAD_REACTORS
330
3CA
102
}
330
3CA
100
AcDbXrecord
280
     1
290
     0
  0
XRECORD
  5
3DB
102
{ACAD_REACTORS
330
3CA
102
}
330
3CA
100
AcDbXrecord
280
     1
 90
        0
  0
XRECORD
  5
3DC
102
{ACAD_REACTORS
330
3CA
102
}
330
3CA
100
AcDbXrecord
280
     1
 90
        0
  0
XRECORD
  5
3DD
102
{ACAD_REACTORS
330
3CA
102
}
330
3CA
100
AcDbXrecord
280
     1
 90
        0
  0
XRECORD
  5
3DE
102
{ACAD_REACTORS
330
3CA
102
}
330
3CA
100
AcDbXrecord
280
     1
 90
        0
  0
XRECORD
  5
3DF
102
{ACAD_REACTORS
330
3CA
102
}
330
3CA
100
AcDbXrecord
280
     1
1000
auto
  0
XRECORD
  5
3E0
102
{ACAD_REACTORS
330
3CA
102
}
330
3CA
100
AcDbXrecord
280
     1
1000
auto
  0
XRECORD
  5
3E1
102
{ACAD_REACTORS
330
3CA
102
}
330
3CA
100
AcDbXrecord
280
     1
1000
auto
  0
XRECORD
  5
3E2
102
{ACAD_REACTORS
330
3CA
102
}
330
3CA
100
AcDbXrecord
280
     1
1000
auto
  0
XRECORD
  5
3E3
102
{ACAD_REACTORS
330
3CA
102
}
330
3CA
100
AcDbXrecord
280
     1
1000
auto
  0
XRECORD
  5
3E4
102
{ACAD_REACTORS
330
3CA
102
}
330
3CA
100
AcDbXrecord
280
     1
1000
auto
  0
XRECORD
  5
3E5
102
{ACAD_REACTORS
330
3CA
102
}
330
3CA
100
AcDbXrecord
280
     1
1000
auto
  0
XRECORD
  5
3E6
102
{ACAD_REACTORS
330
3CA
102
}
330
3CA
100
AcDbXrecord
280
     1
1000
auto
  0
XRECORD
  5
3E7
102
{ACAD_REACTORS
330
3CA
102
}
330
3CA
100
AcDbXrecord
280
     1
 90
        1
  0
XRECORD
  5
3E8
102
{ACAD_REACTORS
330
3CA
102
}
330
3CA
100
AcDbXrecord
280
     1
 40
0.0
  0
XRECORD
  5
3E9
102
{ACAD_REACTORS
330
3CA
102
}
330
3CA
100
AcDbXrecord
280
     1
 40
0.0
  0
XRECORD
  5
3EA
102
{ACAD_REACTORS
330
3CA
102
}
330
3CA
100
AcDbXrecord
280
     1
 40
0.0
  0
XRECORD
  5
3EB
102
{ACAD_REACTORS
330
3CA
102
}
330
3CA
100
AcDbXrecord
280
     1
 40
0.0
  0
XRECORD
  5
3EC
102
{ACAD_REACTORS
330
3CA
102
}
330
3CA
100
AcDbXrecord
280
     1
290
     0
  0
XRECORD
  5
3ED
102
{ACAD_REACTORS
330
3CA
102
}
330
3CA
100
AcDbXrecord
280
     1
 90
        1
  0
XRECORD
  5
3EE
102
{ACAD_REACTORS
330
3CA
102
}
330
3CA
100
AcDbXrecord
280
     1
 40
0.0
  0
XRECORD
  5
3EF
102
{ACAD_REACTORS
330
3CA
102
}
330
3CA
100
AcDbXrecord
280
     1
 40
0.0
  0
XRECORD
  5
3F0
102
{ACAD_REACTORS
330
3CA
102
}
330
3CA
100
AcDbXrecord
280
     1
1000
Portrait
  0
XRECORD
  5
3F1
102
{ACAD_REACTORS
330
3CA
102
}
330
3CA
100
AcDbXrecord
280
     1
 40
297.0
  0
XRECORD
  5
3F2
102
{ACAD_REACTORS
330
3CA
102
}
330
3CA
100
AcDbXrecord
280
     1
 40
210.0
  0
XRECORD
  5
3F3
102
{ACAD_REACTORS
330
3CA
102
}
330
3CA
100
AcDbXrecord
280
     1
1000
1:1
  0
XRECORD
  5
3F4
102
{ACAD_REACTORS
330
3CA
102
}
330
3CA
100
AcDbXrecord
280
     1
290
     1
  0
XRECORD
  5
3F5
102
{ACAD_REACTORS
330
3CA
102
}
330
3CA
100
AcDbXrecord
280
     1
 90
        4
  0
ENDSEC
  0
EOF
