  0
SECTION
  2
HEADER
  9
$ACADVER
  1
AC1027
  9
$ACADMAINTVER
 70
     8
  9
$DWGCODEPAGE
  3
ANSI_1252
  9
$REQUIREDVERSIONS
160
                 0
  9
$INSBASE
 10
0.0
 20
0.0
 30
0.0
  9
$EXTMIN
 10
1.000000000000000E+20
 20
1.000000000000000E+20
 30
1.000000000000000E+20
  9
$EXTMAX
 10
-1.000000000000000E+20
 20
-1.000000000000000E+20
 30
-1.000000000000000E+20
  9
$LIMMIN
 10
0.0
 20
0.0
  9
$LIMMAX
 10
12.0
 20
9.0
  9
$ORTHOMODE
 70
     0
  9
$REGENMODE
 70
     1
  9
$FILLMODE
 70
     1
  9
$QTEXTMODE
 70
     0
  9
$MIRRTEXT
 70
     1
  9
$LTSCALE
 40
1.0
  9
$ATTMODE
 70
     1
  9
$TEXTSIZE
 40
0.2
  9
$TRACEWID
 40
0.05
  9
$TEXTSTYLE
  7
Standard
  9
$CLAYER
  8
0
  9
$CELTYPE
  6
ByLayer
  9
$CECOLOR
 62
   178
  9
$CELTSCALE
 40
1.0
  9
$DISPSILH
 70
     0
  9
$DIMSCALE
 40
1.0
  9
$DIMASZ
 40
2.5
  9
$DIMEXO
 40
0.625
  9
$DIMDLI
 40
0.38
  9
$DIMRND
 40
0.0
  9
$DIMDLE
 40
0.0
  9
$DIMEXE
 40
1.25
  9
$DIMTP
 40
0.0
  9
$DIMTM
 40
0.0
  9
$DIMTXT
 40
2.5
  9
$DIMCEN
 40
0.09
  9
$DIMTSZ
 40
0.0
  9
$DIMTOL
 70
     0
  9
$DIMLIM
 70
     0
  9
$DIMTIH
 70
     1
  9
$DIMTOH
 70
     1
  9
$DIMSE1
 70
     0
  9
$DIMSE2
 70
     0
  9
$DIMTAD
 70
     0
  9
$DIMZIN
 70
     8
  9
$DIMBLK
  1

  9
$DIMASO
 70
     1
  9
$DIMSHO
 70
     1
  9
$DIMPOST
  1

  9
$DIMAPOST
  1

  9
$DIMALT
 70
     0
  9
$DIMALTD
 70
     2
  9
$DIMALTF
 40
25.4
  9
$DIMLFAC
 40
1.0
  9
$DIMTOFL
 70
     0
  9
$DIMTVP
 40
0.0
  9
$DIMTIX
 70
     0
  9
$DIMSOXD
 70
     0
  9
$DIMSAH
 70
     0
  9
$DIMBLK1
  1

  9
$DIMBLK2
  1

  9
$DIMSTYLE
  2
Standard
  9
$DIMCLRD
 70
   178
  9
$DIMCLRE
 70
   178
  9
$DIMCLRT
 70
   178
  9
$DIMTFAC
 40
1.0
  9
$DIMGAP
 40
0.625
  9
$DIMJUST
 70
     0
  9
$DIMSD1
 70
     0
  9
$DIMSD2
 70
     0
  9
$DIMTOLJ
 70
     1
  9
$DIMTZIN
 70
     0
  9
$DIMALTZ
 70
     0
  9
$DIMALTTZ
 70
     0
  9
$DIMUPT
 70
     0
  9
$DIMDEC
 70
     4
  9
$DIMTDEC
 70
     4
  9
$DIMALTU
 70
     2
  9
$DIMALTTD
 70
     2
  9
$DIMTXSTY
  7
Standard
  9
$DIMAUNIT
 70
     0
  9
$DIMADEC
 70
     0
  9
$DIMALTRND
 40
0.0
  9
$DIMAZIN
 70
     2
  9
$DIMDSEP
 70
    46
  9
$DIMATFIT
 70
     3
  9
$DIMFRAC
 70
     0
  9
$DIMLDRBLK
  1

  9
$DIMLUNIT
 70
     2
  9
$DIMLWD
 70
    -2
  9
$DIMLWE
 70
    -2
  9
$DIMTMOVE
 70
     0
  9
$DIMFXL
 40
1.0
  9
$DIMFXLON
 70
     0
  9
$DIMJOGANG
 40
0.7853981633974483
  9
$DIMTFILL
 70
     0
  9
$DIMTFILLCLR
 70
     0
  9
$DIMARCSYM
 70
     0
  9
$DIMLTYPE
  6

  9
$DIMLTEX1
  6

  9
$DIMLTEX2
  6

  9
$DIMTXTDIRECTION
 70
     0
  9
$LUNITS
 70
     2
  9
$LUPREC
 70
     4
  9
$SKETCHINC
 40
0.1
  9
$FILLETRAD
 40
0.5
  9
$AUNITS
 70
     0
  9
$AUPREC
 70
     0
  9
$MENU
  1
.
  9
$ELEVATION
 40
0.0
  9
$PELEVATION
 40
0.0
  9
$THICKNESS
 40
0.0
  9
$LIMCHECK
 70
     0
  9
$CHAMFERA
 40
0.0
  9
$CHAMFERB
 40
0.0
  9
$CHAMFERC
 40
0.0
  9
$CHAMFERD
 40
0.0
  9
$SKPOLY
 70
     0
  9
$TDCREATE
 40
2456628.832442118
  9
$TDUCREATE
 40
2456628.790775463
  9
$TDUPDATE
 40
2456628.832442118
  9
$TDUUPDATE
 40
2456628.790775463
  9
$TDINDWG
 40
0.0000000116
  9
$TDUSRTIMER
 40
0.0000000116
  9
$USRTIMER
 70
     1
  9
$ANGBASE
 50
0.0
  9
$ANGDIR
 70
     0
  9
$PDMODE
 70
     0
  9
$PDSIZE
 40
0.0
  9
$PLINEWID
 40
0.0
  9
$SPLFRAME
 70
     0
  9
$SPLINETYPE
 70
     6
  9
$SPLINESEGS
 70
     8
  9
$HANDSEED
  5
23D
  9
$SURFTAB1
 70
     6
  9
$SURFTAB2
 70
     6
  9
$SURFTYPE
 70
     6
  9
$SURFU
 70
     6
  9
$SURFV
 70
     6
  9
$UCSBASE
  2

  9
$UCSNAME
  2

  9
$UCSORG
 10
0.0
 20
0.0
 30
0.0
  9
$UCSXDIR
 10
1.0
 20
0.0
 30
0.0
  9
$UCSYDIR
 10
0.0
 20
1.0
 30
0.0
  9
$UCSORTHOREF
  2

  9
$UCSORTHOVIEW
 70
     0
  9
$UCSORGTOP
 10
0.0
 20
0.0
 30
0.0
  9
$UCSORGBOTTOM
 10
0.0
 20
0.0
 30
0.0
  9
$UCSORGLEFT
 10
0.0
 20
0.0
 30
0.0
  9
$UCSORGRIGHT
 10
0.0
 20
0.0
 30
0.0
  9
$UCSORGFRONT
 10
0.0
 20
0.0
 30
0.0
  9
$UCSORGBACK
 10
0.0
 20
0.0
 30
0.0
  9
$PUCSBASE
  2

  9
$PUCSNAME
  2

  9
$PUCSORG
 10
0.0
 20
0.0
 30
0.0
  9
$PUCSXDIR
 10
1.0
 20
0.0
 30
0.0
  9
$PUCSYDIR
 10
0.0
 20
1.0
 30
0.0
  9
$PUCSORTHOREF
  2

  9
$PUCSORTHOVIEW
 70
     0
  9
$PUCSORGTOP
 10
0.0
 20
0.0
 30
0.0
  9
$PUCSORGBOTTOM
 10
0.0
 20
0.0
 30
0.0
  9
$PUCSORGLEFT
 10
0.0
 20
0.0
 30
0.0
  9
$PUCSORGRIGHT
 10
0.0
 20
0.0
 30
0.0
  9
$PUCSORGFRONT
 10
0.0
 20
0.0
 30
0.0
  9
$PUCSORGBACK
 10
0.0
 20
0.0
 30
0.0
  9
$USERI1
 70
     0
  9
$USERI2
 70
     0
  9
$USERI3
 70
     0
  9
$USERI4
 70
     0
  9
$USERI5
 70
     0
  9
$USERR1
 40
0.0
  9
$USERR2
 40
0.0
  9
$USERR3
 40
0.0
  9
$USERR4
 40
0.0
  9
$USERR5
 40
0.0
  9
$WORLDVIEW
 70
     1
  9
$SHADEDGE
 70
     3
  9
$SHADEDIF
 70
    70
  9
$TILEMODE
 70
     1
  9
$MAXACTVP
 70
    64
  9
$PINSBASE
 10
0.0
 20
0.0
 30
0.0
  9
$PLIMCHECK
 70
     0
  9
$PEXTMIN
 10
1.000000000000000E+20
 20
1.000000000000000E+20
 30
1.000000000000000E+20
  9
$PEXTMAX
 10
-1.000000000000000E+20
 20
-1.000000000000000E+20
 30
-1.000000000000000E+20
  9
$PLIMMIN
 10
0.0
 20
0.0
  9
$PLIMMAX
 10
12.0
 20
9.0
  9
$UNITMODE
 70
     0
  9
$VISRETAIN
 70
     1
  9
$PLINEGEN
 70
     0
  9
$PSLTSCALE
 70
     1
  9
$TREEDEPTH
 70
  3020
  9
$CMLSTYLE
  2
Standard
  9
$CMLJUST
 70
     0
  9
$CMLSCALE
 40
1.0
  9
$PROXYGRAPHICS
 70
     1
  9
$MEASUREMENT
 70
     1
  9
$CELWEIGHT
370
    -1
  9
$ENDCAPS
280
     0
  9
$JOINSTYLE
280
     0
  9
$LWDISPLAY
290
     0
  9
$INSUNITS
 70
     4
  9
$HYPERLINKBASE
  1

  9
$STYLESHEET
  1

  9
$XEDIT
290
     1
  9
$CEPSNTYPE
380
     0
  9
$PSTYLEMODE
290
     1
  9
$FINGERPRINTGUID
  2
{27BDF4FA-7564-F786-EDCB-1519A6A00D88}
  9
$VERSIONGUID
  2
{FAEB1C32-E019-11D5-929B-00C0DF256EC4}
  9
$EXTNAMES
290
     1
  9
$PSVPSCALE
 40
0.0
  9
$OLESTARTUP
290
     0
  9
$SORTENTS
280
   127
  9
$INDEXCTL
280
     0
  9
$HIDETEXT
280
     1
  9
$XCLIPFRAME
280
     2
  9
$HALOGAP
280
     0
  9
$OBSCOLOR
 70
   257
  9
$OBSLTYPE
280
     0
  9
$INTERSECTIONDISPLAY
280
     0
  9
$INTERSECTIONCOLOR
 70
   257
  9
$DIMASSOC
280
     2
  9
$PROJECTNAME
  1

  9
$CAMERADISPLAY
290
     0
  9
$LENSLENGTH
 40
50.0
  9
$CAMERAHEIGHT
 40
0.0
  9
$STEPSPERSEC
 40
2.0
  9
$STEPSIZE
 40
6.0
  9
$3DDWFPREC
 40
2.0
  9
$PSOLWIDTH
 40
0.25
  9
$PSOLHEIGHT
 40
4.0
  9
$LOFTANG1
 40
1.570796326794897
  9
$LOFTANG2
 40
1.570796326794897
  9
$LOFTMAG1
 40
0.0
  9
$LOFTMAG2
 40
0.0
  9
$LOFTPARAM
 70
     7
  9
$LOFTNORMALS
280
     1
  9
$LATITUDE
 40
37.795
  9
$LONGITUDE
 40
-122.394
  9
$NORTHDIRECTION
 40
0.0
  9
$TIMEZONE
 70
 -8000
  9
$LIGHTGLYPHDISPLAY
280
     1
  9
$TILEMODELIGHTSYNCH
280
     1
  9
$CMATERIAL
347
1CF
  9
$SOLIDHIST
280
     1
  9
$SHOWHIST
280
     1
  9
$DWFFRAME
280
     2
  9
$DGNFRAME
280
     2
  9
$REALWORLDSCALE
290
     1
  9
$INTERFERECOLOR
 62
   256
  9
$CSHADOW
280
     0
  9
$SHADOWPLANELOCATION
 40
0.0
  0
ENDSEC
  0
SECTION
  2
CLASSES
  0
CLASS
  1
ACDBDICTIONARYWDFLT
  2
AcDbDictionaryWithDefault
  3
ObjectDBX Classes
 90
        0
 91
        4
280
     0
281
     0
  0
CLASS
  1
VISUALSTYLE
  2
AcDbVisualStyle
  3
ObjectDBX Classes
 90
     4095
 91
        4
280
     0
281
     0
  0
CLASS
  1
MATERIAL
  2
AcDbMaterial
  3
ObjectDBX Classes
 90
     1153
 91
        4
280
     0
281
     0
  0
CLASS
  1
SCALE
  2
AcDbScale
  3
ObjectDBX Classes
 90
     1153
 91
        4
280
     0
281
     0
  0
CLASS
  1
SUN
  2
AcDbSun
  3
SCENEOE
 90
     1153
 91
        4
280
     0
281
     0
  0
CLASS
  1
DICTIONARYVAR
  2
AcDbDictionaryVar
  3
ObjectDBX Classes
 90
        0
 91
        4
280
     0
281
     0
  0
ENDSEC
  0
SECTION
  2
TABLES
  0
TABLE
  2
VPORT
  5
194
330
0
100
AcDbSymbolTable
 70
     1
  0
VPORT
  5
1B4
330
194
100
AcDbSymbolTableRecord
100
AcDbViewportTableRecord
  2
*Active
 70
     0
 10
0.0
 20
0.0
 11
1.0
 21
1.0
 12
10.42990654205607
 22
4.5
 13
0.0
 23
0.0
 14
0.5
 24
0.5
 15
0.5
 25
0.5
 16
0.0
 26
0.0
 36
1.0
 17
0.0
 27
0.0
 37
0.0
 40
9.0
 41
1.972972972850329
 42
50.0
 43
0.0
 44
0.0
 50
0.0
 51
0.0
 71
     0
 72
   100
 73
     1
 74
     3
 75
     0
 76
     0
 77
     0
 78
     0
281
     0
 65
     1
110
0.0
120
0.0
130
0.0
111
1.0
121
0.0
131
0.0
112
0.0
122
1.0
132
0.0
 79
     0
146
0.0
 60
     3
 61
     5
292
     1
282
     1
141
0.0
142
0.0
 63
   250
361
1F4
  0
ENDTAB
  0
TABLE
  2
LTYPE
  5
191
330
0
100
AcDbSymbolTable
 70
    19
  0
LTYPE
  5
19F
330
191
100
AcDbSymbolTableRecord
100
AcDbLinetypeTableRecord
  2
ByBlock
 70
     0
  3

 72
    65
 73
     0
 40
0.0
  0
LTYPE
  5
1A0
330
191
100
AcDbSymbolTableRecord
100
AcDbLinetypeTableRecord
  2
ByLayer
 70
     0
  3

 72
    65
 73
     0
 40
0.0
  0
LTYPE
  5
1A1
330
191
100
AcDbSymbolTableRecord
100
AcDbLinetypeTableRecord
  2
Continuous
 70
     0
  3
Solid line
 72
    65
 73
     0
 40
0.0
  0
LTYPE
  5
223
330
191
100
AcDbSymbolTableRecord
100
AcDbLinetypeTableRecord
  2
BORDER
 70
     0
  3

 72
    65
 73
     6
 40
42.0
 49
12.0
 74
     0
 49
-6.0
 74
     0
 49
12.0
 74
     0
 49
-5.95
 74
     0
 49
0.1
 74
     0
 49
-5.95
 74
     0
  0
LTYPE
  5
224
330
191
100
AcDbSymbolTableRecord
100
AcDbLinetypeTableRecord
  2
BORDER2
 70
     0
  3

 72
    65
 73
     6
 40
21.0
 49
6.0
 74
     0
 49
-3.0
 74
     0
 49
6.0
 74
     0
 49
-2.95
 74
     0
 49
0.1
 74
     0
 49
-2.95
 74
     0
  0
LTYPE
  5
225
330
191
100
AcDbSymbolTableRecord
100
AcDbLinetypeTableRecord
  2
BORDERX2
 70
     0
  3

 72
    65
 73
     6
 40
84.0
 49
24.0
 74
     0
 49
-12.0
 74
     0
 49
24.0
 74
     0
 49
-11.95
 74
     0
 49
0.1
 74
     0
 49
-11.95
 74
     0
  0
LTYPE
  5
226
330
191
100
AcDbSymbolTableRecord
100
AcDbLinetypeTableRecord
  2
CENTER
 70
     0
  3

 72
    65
 73
     4
 40
50.0
 49
32.0
 74
     0
 49
-6.0
 74
     0
 49
6.0
 74
     0
 49
-6.0
 74
     0
  0
LTYPE
  5
227
330
191
100
AcDbSymbolTableRecord
100
AcDbLinetypeTableRecord
  2
CENTER2
 70
     0
  3

 72
    65
 73
     4
 40
25.0
 49
16.0
 74
     0
 49
-3.0
 74
     0
 49
3.0
 74
     0
 49
-3.0
 74
     0
  0
LTYPE
  5
228
330
191
100
AcDbSymbolTableRecord
100
AcDbLinetypeTableRecord
  2
CENTERX2
 70
     0
  3

 72
    65
 73
     4
 40
100.0
 49
64.0
 74
     0
 49
-12.0
 74
     0
 49
12.0
 74
     0
 49
-12.0
 74
     0
  0
LTYPE
  5
229
330
191
100
AcDbSymbolTableRecord
100
AcDbLinetypeTableRecord
  2
DASHDOT
 70
     0
  3

 72
    65
 73
     4
 40
24.0
 49
12.0
 74
     0
 49
-5.95
 74
     0
 49
0.1
 74
     0
 49
-5.95
 74
     0
  0
LTYPE
  5
22A
330
191
100
AcDbSymbolTableRecord
100
AcDbLinetypeTableRecord
  2
DASHDOT2
 70
     0
  3

 72
    65
 73
     4
 40
12.0
 49
6.0
 74
     0
 49
-2.95
 74
     0
 49
0.1
 74
     0
 49
-2.95
 74
     0
  0
LTYPE
  5
22B
330
191
100
AcDbSymbolTableRecord
100
AcDbLinetypeTableRecord
  2
DASHDOTX2
 70
     0
  3

 72
    65
 73
     4
 40
48.0
 49
24.0
 74
     0
 49
-11.95
 74
     0
 49
0.1
 74
     0
 49
-11.95
 74
     0
  0
LTYPE
  5
22C
330
191
100
AcDbSymbolTableRecord
100
AcDbLinetypeTableRecord
  2
DASHED
 70
     0
  3

 72
    65
 73
     2
 40
18.0
 49
12.0
 74
     0
 49
-6.0
 74
     0
  0
LTYPE
  5
22D
330
191
100
AcDbSymbolTableRecord
100
AcDbLinetypeTableRecord
  2
DASHED2
 70
     0
  3

 72
    65
 73
     2
 40
9.0
 49
6.0
 74
     0
 49
-3.0
 74
     0
  0
LTYPE
  5
22E
330
191
100
AcDbSymbolTableRecord
100
AcDbLinetypeTableRecord
  2
DASHEDX2
 70
     0
  3

 72
    65
 73
     2
 40
36.0
 49
24.0
 74
     0
 49
-12.0
 74
     0
  0
LTYPE
  5
22F
330
191
100
AcDbSymbolTableRecord
100
AcDbLinetypeTableRecord
  2
DIVIDE
 70
     0
  3

 72
    65
 73
     6
 40
30.0
 49
12.0
 74
     0
 49
-5.9
 74
     0
 49
0.15
 74
     0
 49
-5.9
 74
     0
 49
0.15
 74
     0
 49
-5.9
 74
     0
  0
LTYPE
  5
230
330
191
100
AcDbSymbolTableRecord
100
AcDbLinetypeTableRecord
  2
DIVIDE2
 70
     0
  3

 72
    65
 73
     6
 40
15.0
 49
6.0
 74
     0
 49
-2.9
 74
     0
 49
0.15
 74
     0
 49
-2.9
 74
     0
 49
0.15
 74
     0
 49
-2.9
 74
     0
  0
LTYPE
  5
231
330
191
100
AcDbSymbolTableRecord
100
AcDbLinetypeTableRecord
  2
DIVIDEX2
 70
     0
  3

 72
    65
 73
     6
 40
60.0
 49
24.0
 74
     0
 49
-11.9
 74
     0
 49
0.15
 74
     0
 49
-11.9
 74
     0
 49
0.15
 74
     0
 49
-11.9
 74
     0
  0
LTYPE
  5
232
330
191
100
AcDbSymbolTableRecord
100
AcDbLinetypeTableRecord
  2
DOT
 70
     0
  3

 72
    65
 73
     2
 40
6.3
 49
0.1
 74
     0
 49
-6.2
 74
     0
  0
LTYPE
  5
233
330
191
100
AcDbSymbolTableRecord
100
AcDbLinetypeTableRecord
  2
DOT2
 70
     0
  3

 72
    65
 73
     2
 40
3.2
 49
0.1
 74
     0
 49
-3.1
 74
     0
  0
LTYPE
  5
234
330
191
100
AcDbSymbolTableRecord
100
AcDbLinetypeTableRecord
  2
DOTX2
 70
     0
  3

 72
    65
 73
     2
 40
12.5
 49
0.1
 74
     0
 49
-12.4
 74
     0
  0
ENDTAB
  0
TABLE
  2
LAYER
  5
18E
330
0
100
AcDbSymbolTable
 70
     3
  0
LAYER
  5
19C
330
18E
100
AcDbSymbolTableRecord
100
AcDbLayerTableRecord
  2
0
 70
     0
 62
     7
420
 16777215
  6
Continuous
370
    25
390
19B
347
1D1
348
0
  0
LAYER
  5
235
330
18E
100
AcDbSymbolTableRecord
100
AcDbLayerTableRecord
  2
PCB
 70
     0
 62
     5
420
      255
  6
Continuous
370
     0
390
19B
347
1D1
348
0
  0
LAYER
  5
236
330
18E
100
AcDbSymbolTableRecord
100
AcDbLayerTableRecord
  2
cut
 70
     0
 62
     1
420
 16711680
  6
Continuous
370
     0
390
19B
347
1D1
348
0
  0
ENDTAB
  0
TABLE
  2
STYLE
  5
18F
330
0
100
AcDbSymbolTable
 70
     1
  0
STYLE
  5
19D
330
18F
100
AcDbSymbolTableRecord
100
AcDbTextStyleTableRecord
  2
Standard
 70
     0
 40
0.0
 41
1.0
 50
0.0
 71
     0
 42
0.2
  3
txt
  4

  0
ENDTAB
  0
TABLE
  2
VIEW
  5
192
330
0
100
AcDbSymbolTable
 70
     0
  0
ENDTAB
  0
TABLE
  2
UCS
  5
193
330
0
100
AcDbSymbolTable
 70
     0
  0
ENDTAB
  0
TABLE
  2
APPID
  5
195
330
0
100
AcDbSymbolTable
 70
     2
  0
APPID
  5
19E
330
195
100
AcDbSymbolTableRecord
100
AcDbRegAppTableRecord
  2
ACAD
 70
     0
  0
APPID
  5
1F5
330
195
100
AcDbSymbolTableRecord
100
AcDbRegAppTableRecord
  2
QCAD
 70
     0
  0
ENDTAB
  0
TABLE
  2
DIMSTYLE
  5
196
330
0
100
AcDbSymbolTable
 70
     2
100
AcDbDimStyleTable
  0
DIMSTYLE
105
1B2
330
196
100
AcDbSymbolTableRecord
100
AcDbDimStyleTableRecord
  2
Standard
 70
     0
178
     0
340
19D
  0
DIMSTYLE
105
222
330
196
100
AcDbSymbolTableRecord
100
AcDbDimStyleTableRecord
  2
QCADDimStyle
 70
     0
 41
2.5
 42
0.625
 44
1.25
 73
     0
 77
     1
140
2.5
147
0.625
178
     0
340
19D
  0
ENDTAB
  0
TABLE
  2
BLOCK_RECORD
  5
18D
330
0
100
AcDbSymbolTable
 70
     1
  0
BLOCK_RECORD
  5
1AA
330
18D
100
AcDbSymbolTableRecord
100
AcDbBlockTableRecord
  2
*Model_Space
340
1AD
 70
     0
280
     1
281
     0
  0
BLOCK_RECORD
  5
1A6
330
18D
100
AcDbSymbolTableRecord
100
AcDbBlockTableRecord
  2
*Paper_Space
340
1A9
 70
     0
280
     1
281
     0
  0
BLOCK_RECORD
  5
1AE
330
18D
100
AcDbSymbolTableRecord
100
AcDbBlockTableRecord
  2
*Paper_Space0
340
1B1
 70
     0
280
     1
281
     0
  0
ENDTAB
  0
ENDSEC
  0
SECTION
  2
BLOCKS
  0
BLOCK
  5
1AB
330
1AA
100
AcDbEntity
  8
0
100
AcDbBlockBegin
  2
*Model_Space
 70
     0
 10
0.0
 20
0.0
 30
0.0
  3
*Model_Space
  1
*Model_Space
  0
ENDBLK
  5
1AC
330
1AA
100
AcDbEntity
  8
0
100
AcDbBlockEnd
  0
BLOCK
  5
1A7
330
1A6
100
AcDbEntity
 67
     1
  8
0
100
AcDbBlockBegin
  2
*Paper_Space
 70
     0
 10
0.0
 20
0.0
 30
0.0
  3
*Paper_Space
  1
*Paper_Space
  0
ENDBLK
  5
1A8
330
1A6
100
AcDbEntity
 67
     1
  8
0
100
AcDbBlockEnd
  0
BLOCK
  5
1AF
330
1AE
100
AcDbEntity
  8
0
100
AcDbBlockBegin
  2
*Paper_Space0
 70
     0
 10
0.0
 20
0.0
 30
0.0
  3
*Paper_Space0
  1
*Paper_Space0
  0
ENDBLK
  5
1B0
330
1AE
100
AcDbEntity
  8
0
100
AcDbBlockEnd
  0
ENDSEC
  0
SECTION
  2
ENTITIES
  0
ARC
  5
46
330
1AA
100
AcDbEntity
  8
PCB
100
AcDbCircle
 10
78.85174354309004
 20
-16.82540110252285
 30
0.0
 40
0.8250097356172332
100
AcDbArc
 50
89.9999759691576
 51
180.0000240424842
  0
ARC
  5
47
330
1AA
100
AcDbEntity
  8
PCB
100
AcDbCircle
 10
78.85174260909491
 20
-16.82540272856448
 30
0.0
 40
0.8250113616599077
100
AcDbArc
 50
0.0000888991168573
 51
89.99991110467677
  0
LINE
  5
48
330
1AA
100
AcDbEntity
  8
PCB
100
AcDbLine
 10
79.67675397075391
 20
-16.82540144854619
 30
0.0
 11
79.67675397075391
 21
-16.82540144854619
 31
0.0
  0
ARC
  5
49
330
1AA
100
AcDbEntity
  8
PCB
100
AcDbCircle
 10
78.25178857312403
 20
-16.82540199437057
 30
0.0
 40
0.8250097898194085
100
AcDbArc
 50
269.9999797334651
 51
0.0000379137027178
  0
ARC
  5
4A
330
1AA
100
AcDbEntity
  8
PCB
100
AcDbCircle
 10
78.2517896155216
 20
-16.82540036833035
 30
0.0
 40
0.8250114158594505
100
AcDbArc
 50
180.0000750204252
 51
269.9999073405875
  0
ARC
  5
4B
330
1AA
100
AcDbEntity
  8
PCB
100
AcDbCircle
 10
78.25178956132186
 20
-16.82540272856448
 30
0.0
 40
0.8250113616598292
100
AcDbArc
 50
90.00008889532326
 51
179.9999111008831
  0
ARC
  5
4C
330
1AA
100
AcDbEntity
  8
PCB
100
AcDbCircle
 10
78.25178862732685
 20
-16.82540110252285
 30
0.0
 40
0.8250097356172196
100
AcDbArc
 50
359.9999759575159
 51
90.0000240308424
  0
LINE
  5
4D
330
1AA
100
AcDbEntity
  8
PCB
100
AcDbLine
 10
79.07679836294392
 20
-16.82540144854619
 30
0.0
 11
79.07679836294392
 21
-16.82540144854619
 31
0.0
  0
ARC
  5
4E
330
1AA
100
AcDbEntity
  8
PCB
100
AcDbCircle
 10
78.85174277170097
 20
-9.525296961286244
 30
0.0
 40
0.8250111990540111
100
AcDbArc
 50
270.0000776025981
 51
359.9999223957796
  0
ARC
  5
4F
330
1AA
100
AcDbEntity
  8
PCB
100
AcDbCircle
 10
78.85174338048421
 20
-9.52529858732737
 30
0.0
 40
0.8250095730115903
100
AcDbArc
 50
179.9999646739869
 51
270.0000353235902
  0
ARC
  5
50
330
1AA
100
AcDbEntity
  8
PCB
100
AcDbCircle
 10
78.85174354309004
 20
-9.525297732675597
 30
0.0
 40
0.8250097356172358
100
AcDbArc
 50
89.9999759691576
 51
180.0000240424842
  0
ARC
  5
51
330
1AA
100
AcDbEntity
  8
PCB
100
AcDbCircle
 10
78.85174260909491
 20
-9.525299358717291
 30
0.0
 40
0.8250113616599077
100
AcDbArc
 50
0.0000888991168573
 51
89.99991110467677
  0
LINE
  5
52
330
1AA
100
AcDbEntity
  8
PCB
100
AcDbLine
 10
79.67675397075391
 20
-9.525298078698938
 30
0.0
 11
79.67675397075391
 21
-9.525298078698938
 31
0.0
  0
ARC
  5
53
330
1AA
100
AcDbEntity
  8
PCB
100
AcDbCircle
 10
78.25178878993256
 20
-9.52529858732737
 30
0.0
 40
0.8250095730122671
100
AcDbArc
 50
269.9999646764098
 51
0.0000353260130729
  0
ARC
  5
54
330
1AA
100
AcDbEntity
  8
PCB
100
AcDbCircle
 10
78.2517893987158
 20
-9.525296961286244
 30
0.0
 40
0.8250111990536254
100
AcDbArc
 50
180.0000776042204
 51
269.9999223974031
  0
ARC
  5
55
330
1AA
100
AcDbEntity
  8
PCB
100
AcDbCircle
 10
78.25178956132186
 20
-9.525299358717291
 30
0.0
 40
0.8250113616598292
100
AcDbArc
 50
90.00008889532326
 51
179.9999111008831
  0
ARC
  5
56
330
1AA
100
AcDbEntity
  8
PCB
100
AcDbCircle
 10
78.25178862732685
 20
-9.525297732675597
 30
0.0
 40
0.8250097356172196
100
AcDbArc
 50
359.9999759575159
 51
90.0000240308424
  0
LINE
  5
57
330
1AA
100
AcDbEntity
  8
PCB
100
AcDbLine
 10
79.07679836294392
 20
-9.525298078698938
 30
0.0
 11
79.07679836294392
 21
-9.525298078698938
 31
0.0
  0
ARC
  5
58
330
1AA
100
AcDbEntity
  8
PCB
100
AcDbCircle
 10
77.6515775528602
 20
-9.525296961286244
 30
0.0
 40
0.8250111990540111
100
AcDbArc
 50
270.0000776025981
 51
359.9999223957796
  0
ARC
  5
59
330
1AA
100
AcDbEntity
  8
PCB
100
AcDbCircle
 10
77.65157816164344
 20
-9.52529858732737
 30
0.0
 40
0.8250095730115903
100
AcDbArc
 50
179.9999646739869
 51
270.0000353235902
  0
ARC
  5
5A
330
1AA
100
AcDbEntity
  8
PCB
100
AcDbCircle
 10
77.65157832424916
 20
-9.525297732675597
 30
0.0
 40
0.8250097356172287
100
AcDbArc
 50
89.9999759691576
 51
180.0000240424842
  0
ARC
  5
5B
330
1AA
100
AcDbEntity
  8
PCB
100
AcDbCircle
 10
77.65157739025415
 20
-9.525299358717291
 30
0.0
 40
0.8250113616599167
100
AcDbArc
 50
0.0000888909169664
 51
89.99991110467609
  0
LINE
  5
5C
330
1AA
100
AcDbEntity
  8
PCB
100
AcDbLine
 10
78.47658875191303
 20
-9.525298078698938
 30
0.0
 11
78.47658875191303
 21
-9.525298078698938
 31
0.0
  0
ARC
  5
5D
330
1AA
100
AcDbEntity
  8
PCB
100
AcDbCircle
 10
30.48114667369975
 20
-39.37075139941112
 30
0.0
 40
0.6750103257357023
100
AcDbArc
 50
270.0001567083833
 51
359.9998432889228
  0
ARC
  5
5E
330
1AA
100
AcDbEntity
  8
PCB
100
AcDbCircle
 10
30.48114874006467
 20
-39.37075302545753
 30
0.0
 40
0.6750086996865112
100
AcDbArc
 50
180.0000187052434
 51
269.9999813125233
  0
ARC
  5
5F
330
1AA
100
AcDbEntity
  8
PCB
100
AcDbCircle
 10
30.48114711402786
 20
-39.37075183974002
 30
0.0
 40
0.6750070736511706
100
AcDbArc
 50
89.99988066668121
 51
180.0001193330026
  0
ARC
  5
60
330
1AA
100
AcDbEntity
  8
PCB
100
AcDbCircle
 10
30.48114829974702
 20
-39.37075346577564
 30
0.0
 40
0.6750086996851622
100
AcDbArc
 50
0.0000187052434022
 51
89.99998131263783
  0
LINE
  5
61
330
1AA
100
AcDbEntity
  8
PCB
100
AcDbLine
 10
31.15615699943214
 20
-39.37075324561732
 30
0.0
 11
31.15615699943214
 21
-39.37075324561732
 31
0.0
  0
ARC
  5
62
330
1AA
100
AcDbEntity
  8
PCB
100
AcDbCircle
 10
27.94111446451291
 20
-39.37075139941112
 30
0.0
 40
0.6750103257357023
100
AcDbArc
 50
270.0001567083833
 51
359.9998432889228
  0
ARC
  5
63
330
1AA
100
AcDbEntity
  8
PCB
100
AcDbCircle
 10
27.94111653087782
 20
-39.37075302545753
 30
0.0
 40
0.6750086996865112
100
AcDbArc
 50
180.0000187052434
 51
269.9999813125233
  0
ARC
  5
64
330
1AA
100
AcDbEntity
  8
PCB
100
AcDbCircle
 10
27.94111490484102
 20
-39.37075183974002
 30
0.0
 40
0.6750070736511706
100
AcDbArc
 50
89.99988066668121
 51
180.0001193330026
  0
ARC
  5
65
330
1AA
100
AcDbEntity
  8
PCB
100
AcDbCircle
 10
27.94111609056017
 20
-39.37075346577564
 30
0.0
 40
0.6750086996851665
100
AcDbArc
 50
0.0000186662334674
 51
89.99998131263742
  0
LINE
  5
66
330
1AA
100
AcDbEntity
  8
PCB
100
AcDbLine
 10
28.61612479024529
 20
-39.37075324561732
 30
0.0
 11
28.61612479024529
 21
-39.37075324561732
 31
0.0
  0
ARC
  5
67
330
1AA
100
AcDbEntity
  8
PCB
100
AcDbCircle
 10
25.40108225532606
 20
-39.37075139941112
 30
0.0
 40
0.6750103257357023
100
AcDbArc
 50
270.0001567083833
 51
359.9998432889228
  0
ARC
  5
68
330
1AA
100
AcDbEntity
  8
PCB
100
AcDbCircle
 10
25.40108457250506
 20
-39.37075226663643
 30
0.0
 40
0.6750094585078156
100
AcDbArc
 50
180.0000830972236
 51
269.9999600230731
  0
ARC
  5
69
330
1AA
100
AcDbEntity
  8
PCB
100
AcDbCircle
 10
25.40108294646473
 20
-39.37075259855584
 30
0.0
 40
0.6750078324664692
100
AcDbArc
 50
89.99990195602993
 51
180.0000549209433
  0
ARC
  5
6A
330
1AA
100
AcDbEntity
  8
PCB
100
AcDbCircle
 10
25.40108388137332
 20
-39.37075346577564
 30
0.0
 40
0.6750086996851665
100
AcDbArc
 50
0.0000186662334674
 51
89.99998131263742
  0
LINE
  5
6B
330
1AA
100
AcDbEntity
  8
PCB
100
AcDbLine
 10
26.07609258105845
 20
-39.37075324561732
 30
0.0
 11
26.07609258105845
 21
-39.37075324561732
 31
0.0
  0
ARC
  5
6C
330
1AA
100
AcDbEntity
  8
PCB
100
AcDbCircle
 10
22.86097355078618
 20
-39.37075237504149
 30
0.0
 40
0.6750093501033853
100
AcDbArc
 50
270.0000738957663
 51
359.99992610541
  0
ARC
  5
6D
330
1AA
100
AcDbEntity
  8
PCB
100
AcDbCircle
 10
22.86097545454379
 20
-39.37075221243549
 30
0.0
 40
0.6750095127093789
100
AcDbArc
 50
180.0000876938172
 51
269.9999123020581
  0
ARC
  5
6E
330
1AA
100
AcDbEntity
  8
PCB
100
AcDbCircle
 10
22.86097382850289
 20
-39.37075265275797
 30
0.0
 40
0.6750078866679169
100
AcDbArc
 50
89.9999496771264
 51
180.000050321972
  0
ARC
  5
6F
330
1AA
100
AcDbEntity
  8
PCB
100
AcDbCircle
 10
22.8609751768256
 20
-39.37075249015419
 30
0.0
 40
0.6750077240639507
100
AcDbArc
 50
359.999935875972
 51
90.00006412499651
  0
LINE
  5
70
330
1AA
100
AcDbEntity
  8
PCB
100
AcDbLine
 10
23.53598290088917
 20
-39.37075324561732
 30
0.0
 11
23.53598290088917
 21
-39.37075324561732
 31
0.0
  0
ARC
  5
71
330
1AA
100
AcDbEntity
  8
PCB
100
AcDbCircle
 10
20.32094261161535
 20
-39.37075237504149
 30
0.0
 40
0.6750093501033946
100
AcDbArc
 50
270.000073895766
 51
359.9999260955462
  0
ARC
  5
72
330
1AA
100
AcDbEntity
  8
PCB
100
AcDbCircle
 10
20.32094451537307
 20
-39.37075221243549
 30
0.0
 40
0.6750095127093814
100
AcDbArc
 50
180.000087702129
 51
269.9999123020579
  0
ARC
  5
73
330
1AA
100
AcDbEntity
  8
PCB
100
AcDbCircle
 10
20.32094288933126
 20
-39.3707526527574
 30
0.0
 40
0.675007886667344
100
AcDbArc
 50
89.99994967705874
 51
180.000050321972
  0
ARC
  5
74
330
1AA
100
AcDbEntity
  8
PCB
100
AcDbCircle
 10
20.32094423765489
 20
-39.37075249015419
 30
0.0
 40
0.6750077240639437
100
AcDbArc
 50
359.999935875972
 51
90.0000641249971
  0
LINE
  5
75
330
1AA
100
AcDbEntity
  8
PCB
100
AcDbLine
 10
20.99595196171845
 20
-39.37075324561732
 30
0.0
 11
20.99595196171845
 21
-39.37075324561732
 31
0.0
  0
ARC
  5
76
330
1AA
100
AcDbEntity
  8
PCB
100
AcDbCircle
 10
17.78091040242839
 20
-39.37075237504121
 30
0.0
 40
0.6750093501036717
100
AcDbArc
 50
270.000073895776
 51
359.99992610541
  0
ARC
  5
77
330
1AA
100
AcDbEntity
  8
PCB
100
AcDbCircle
 10
17.78091230618611
 20
-39.37075221243549
 30
0.0
 40
0.6750095127093765
100
AcDbArc
 50
180.0000876938172
 51
269.9999123020582
  0
ARC
  5
78
330
1AA
100
AcDbEntity
  8
PCB
100
AcDbCircle
 10
17.78091068014442
 20
-39.3707526527574
 30
0.0
 40
0.6750078866673533
100
AcDbArc
 50
89.99994967705874
 51
180.000050321972
  0
ARC
  5
79
330
1AA
100
AcDbEntity
  8
PCB
100
AcDbCircle
 10
17.78091202846804
 20
-39.37075249015419
 30
0.0
 40
0.6750077240639415
100
AcDbArc
 50
359.999935875972
 51
90.00006412499725
  0
LINE
  5
7A
330
1AA
100
AcDbEntity
  8
PCB
100
AcDbLine
 10
18.4559197525316
 20
-39.37075324561732
 30
0.0
 11
18.4559197525316
 21
-39.37075324561732
 31
0.0
  0
ARC
  5
7B
330
1AA
100
AcDbEntity
  8
PCB
100
AcDbCircle
 10
15.24087819324154
 20
-39.37075237504121
 30
0.0
 40
0.6750093501036717
100
AcDbArc
 50
270.000073895776
 51
359.99992610541
  0
ARC
  5
7C
330
1AA
100
AcDbEntity
  8
PCB
100
AcDbCircle
 10
15.24088009699926
 20
-39.37075221243549
 30
0.0
 40
0.6750095127093765
100
AcDbArc
 50
180.0000876938172
 51
269.9999123020582
  0
ARC
  5
7D
330
1AA
100
AcDbEntity
  8
PCB
100
AcDbCircle
 10
15.24087847095757
 20
-39.3707526527574
 30
0.0
 40
0.675007886667344
100
AcDbArc
 50
89.99994967705874
 51
180.000050321972
  0
ARC
  5
7E
330
1AA
100
AcDbEntity
  8
PCB
100
AcDbCircle
 10
15.24087981928119
 20
-39.37075249015419
 30
0.0
 40
0.675007724063939
100
AcDbArc
 50
359.999935875972
 51
90.00006412499746
  0
LINE
  5
7F
330
1AA
100
AcDbEntity
  8
PCB
100
AcDbLine
 10
15.91588754334464
 20
-39.37075324561732
 30
0.0
 11
15.91588754334464
 21
-39.37075324561732
 31
0.0
  0
ARC
  5
80
330
1AA
100
AcDbEntity
  8
PCB
100
AcDbCircle
 10
12.70084598405469
 20
-39.37075237504121
 30
0.0
 40
0.6750093501036717
100
AcDbArc
 50
270.0000738957758
 51
359.9999260955462
  0
ARC
  5
81
330
1AA
100
AcDbEntity
  8
PCB
100
AcDbCircle
 10
12.70084788781242
 20
-39.37075221243549
 30
0.0
 40
0.6750095127093814
100
AcDbArc
 50
180.000087702129
 51
269.9999123020579
  0
ARC
  5
82
330
1AA
100
AcDbEntity
  8
PCB
100
AcDbCircle
 10
12.70084626177072
 20
-39.3707526527574
 30
0.0
 40
0.6750078866673533
100
AcDbArc
 50
89.99994967705874
 51
180.000050321972
  0
ARC
  5
83
330
1AA
100
AcDbEntity
  8
PCB
100
AcDbCircle
 10
12.70084761009434
 20
-39.37075249015419
 30
0.0
 40
0.675007724063939
100
AcDbArc
 50
359.999935875972
 51
90.00006412499746
  0
LINE
  5
84
330
1AA
100
AcDbEntity
  8
PCB
100
AcDbLine
 10
13.37585533415779
 20
-39.37075324561732
 30
0.0
 11
13.37585533415779
 21
-39.37075324561732
 31
0.0
  0
ARC
  5
85
330
1AA
100
AcDbEntity
  8
PCB
100
AcDbCircle
 10
10.16081377486785
 20
-39.37075237504121
 30
0.0
 40
0.6750093501036717
100
AcDbArc
 50
270.0000738957758
 51
359.9999260955462
  0
ARC
  5
86
330
1AA
100
AcDbEntity
  8
PCB
100
AcDbCircle
 10
10.16081567862568
 20
-39.37075221243532
 30
0.0
 40
0.6750095127094354
100
AcDbArc
 50
180.0000876938172
 51
269.9999123020534
  0
ARC
  5
87
330
1AA
100
AcDbEntity
  8
PCB
100
AcDbCircle
 10
10.16081405258387
 20
-39.3707526527574
 30
0.0
 40
0.675007886667344
100
AcDbArc
 50
89.99994967705832
 51
180.000050321972
  0
ARC
  5
88
330
1AA
100
AcDbEntity
  8
PCB
100
AcDbCircle
 10
10.16081540090738
 20
-39.37075249015419
 30
0.0
 40
0.6750077240639415
100
AcDbArc
 50
359.999935875972
 51
90.00006412499725
  0
LINE
  5
89
330
1AA
100
AcDbEntity
  8
PCB
100
AcDbLine
 10
10.83582312497094
 20
-39.37075324561732
 30
0.0
 11
10.83582312497094
 21
-39.37075324561732
 31
0.0
  0
ARC
  5
8A
330
1AA
100
AcDbEntity
  8
PCB
100
AcDbCircle
 10
30.48114667369975
 20
-41.91078360859802
 30
0.0
 40
0.6750103257357023
100
AcDbArc
 50
270.0001567083833
 51
359.9998432889228
  0
ARC
  5
8B
330
1AA
100
AcDbEntity
  8
PCB
100
AcDbCircle
 10
30.48114874006467
 20
-41.91078523464444
 30
0.0
 40
0.6750086996865112
100
AcDbArc
 50
180.0000187052434
 51
269.9999813125233
  0
ARC
  5
8C
330
1AA
100
AcDbEntity
  8
PCB
100
AcDbCircle
 10
30.48114711402786
 20
-41.91078404892693
 30
0.0
 40
0.6750070736511706
100
AcDbArc
 50
89.99988066668121
 51
180.0001193330026
  0
ARC
  5
8D
330
1AA
100
AcDbEntity
  8
PCB
100
AcDbCircle
 10
30.48114829974645
 20
-41.9107856749639
 30
0.0
 40
0.6750086996857304
100
AcDbArc
 50
0.0000187052434022
 51
89.99998131258958
  0
LINE
  5
8E
330
1AA
100
AcDbEntity
  8
PCB
100
AcDbLine
 10
31.15615699943214
 20
-41.91078545480417
 30
0.0
 11
31.15615699943214
 21
-41.91078545480417
 31
0.0
  0
ARC
  5
8F
330
1AA
100
AcDbEntity
  8
PCB
100
AcDbCircle
 10
27.94111446451291
 20
-41.91078360859802
 30
0.0
 40
0.6750103257357023
100
AcDbArc
 50
270.0001567083833
 51
359.9998432889228
  0
ARC
  5
90
330
1AA
100
AcDbEntity
  8
PCB
100
AcDbCircle
 10
27.94111653087782
 20
-41.91078523464444
 30
0.0
 40
0.6750086996865112
100
AcDbArc
 50
180.0000187052434
 51
269.9999813125233
  0
ARC
  5
91
330
1AA
100
AcDbEntity
  8
PCB
100
AcDbCircle
 10
27.94111490484102
 20
-41.91078404892693
 30
0.0
 40
0.6750070736511706
100
AcDbArc
 50
89.99988066668082
 51
180.0001193330026
  0
ARC
  5
92
330
1AA
100
AcDbEntity
  8
PCB
100
AcDbCircle
 10
27.9411160905596
 20
-41.9107856749639
 30
0.0
 40
0.6750086996857396
100
AcDbArc
 50
0.0000187052434022
 51
89.99998131258882
  0
LINE
  5
93
330
1AA
100
AcDbEntity
  8
PCB
100
AcDbLine
 10
28.61612479024529
 20
-41.91078545480417
 30
0.0
 11
28.61612479024529
 21
-41.91078545480417
 31
0.0
  0
ARC
  5
94
330
1AA
100
AcDbEntity
  8
PCB
100
AcDbCircle
 10
25.40108225532606
 20
-41.91078360859802
 30
0.0
 40
0.6750103257357023
100
AcDbArc
 50
270.0001567083833
 51
359.9998432889228
  0
ARC
  5
95
330
1AA
100
AcDbEntity
  8
PCB
100
AcDbCircle
 10
25.40108457250506
 20
-41.91078447582328
 30
0.0
 40
0.6750094585078156
100
AcDbArc
 50
180.0000830972236
 51
269.9999600230731
  0
ARC
  5
96
330
1AA
100
AcDbEntity
  8
PCB
100
AcDbCircle
 10
25.40108294646529
 20
-41.91078480774405
 30
0.0
 40
0.6750078324678369
100
AcDbArc
 50
89.99990195607776
 51
180.0000549209433
  0
ARC
  5
97
330
1AA
100
AcDbEntity
  8
PCB
100
AcDbCircle
 10
25.40108388137276
 20
-41.9107856749639
 30
0.0
 40
0.6750086996857441
100
AcDbArc
 50
0.0000186662334674
 51
89.99998131258842
  0
LINE
  5
98
330
1AA
100
AcDbEntity
  8
PCB
100
AcDbLine
 10
26.07609258105845
 20
-41.91078545480417
 30
0.0
 11
26.07609258105845
 21
-41.91078545480417
 31
0.0
  0
ARC
  5
99
330
1AA
100
AcDbEntity
  8
PCB
100
AcDbCircle
 10
22.86097355078618
 20
-41.91078458422834
 30
0.0
 40
0.6750093501033853
100
AcDbArc
 50
270.0000738957663
 51
359.99992610541
  0
ARC
  5
9A
330
1AA
100
AcDbEntity
  8
PCB
100
AcDbCircle
 10
22.86097545454379
 20
-41.91078442162234
 30
0.0
 40
0.6750095127093789
100
AcDbArc
 50
180.0000876938172
 51
269.9999123020581
  0
ARC
  5
9B
330
1AA
100
AcDbEntity
  8
PCB
100
AcDbCircle
 10
22.86097382850289
 20
-41.91078486194488
 30
0.0
 40
0.6750078866679169
100
AcDbArc
 50
89.9999496771264
 51
180.000050321972
  0
ARC
  5
9C
330
1AA
100
AcDbEntity
  8
PCB
100
AcDbCircle
 10
22.86097517682617
 20
-41.91078469933967
 30
0.0
 40
0.6750077240633869
100
AcDbArc
 50
359.999935875972
 51
90.00006412504436
  0
LINE
  5
9D
330
1AA
100
AcDbEntity
  8
PCB
100
AcDbLine
 10
23.53598290088917
 20
-41.91078545480417
 30
0.0
 11
23.53598290088917
 21
-41.91078545480417
 31
0.0
  0
ARC
  5
9E
330
1AA
100
AcDbEntity
  8
PCB
100
AcDbCircle
 10
20.32094261161535
 20
-41.91078458422834
 30
0.0
 40
0.6750093501033853
100
AcDbArc
 50
270.000073895766
 51
359.9999260955462
  0
ARC
  5
9F
330
1AA
100
AcDbEntity
  8
PCB
100
AcDbCircle
 10
20.32094451537307
 20
-41.91078442162234
 30
0.0
 40
0.6750095127093814
100
AcDbArc
 50
180.000087702129
 51
269.9999123020579
  0
ARC
  5
A0
330
1AA
100
AcDbEntity
  8
PCB
100
AcDbCircle
 10
20.32094288933126
 20
-41.91078486194431
 30
0.0
 40
0.6750078866673533
100
AcDbArc
 50
89.99994967705874
 51
180.000050321972
  0
ARC
  5
A1
330
1AA
100
AcDbEntity
  8
PCB
100
AcDbCircle
 10
20.32094423765545
 20
-41.91078469933967
 30
0.0
 40
0.6750077240633707
100
AcDbArc
 50
359.999935875972
 51
90.00006412504571
  0
LINE
  5
A2
330
1AA
100
AcDbEntity
  8
PCB
100
AcDbLine
 10
20.99595196171845
 20
-41.91078545480417
 30
0.0
 11
20.99595196171845
 21
-41.91078545480417
 31
0.0
  0
ARC
  5
A3
330
1AA
100
AcDbEntity
  8
PCB
100
AcDbCircle
 10
17.78091040242839
 20
-41.91078458422805
 30
0.0
 40
0.6750093501036717
100
AcDbArc
 50
270.000073895776
 51
359.99992610541
  0
ARC
  5
A4
330
1AA
100
AcDbEntity
  8
PCB
100
AcDbCircle
 10
17.78091230618611
 20
-41.91078442162234
 30
0.0
 40
0.6750095127093765
100
AcDbArc
 50
180.0000876938172
 51
269.9999123020582
  0
ARC
  5
A5
330
1AA
100
AcDbEntity
  8
PCB
100
AcDbCircle
 10
17.78091068014442
 20
-41.91078486194431
 30
0.0
 40
0.675007886667344
100
AcDbArc
 50
89.99994967705874
 51
180.000050321972
  0
ARC
  5
A6
330
1AA
100
AcDbEntity
  8
PCB
100
AcDbCircle
 10
17.78091202846861
 20
-41.91078469933967
 30
0.0
 40
0.6750077240633731
100
AcDbArc
 50
359.999935875972
 51
90.00006412504551
  0
LINE
  5
A7
330
1AA
100
AcDbEntity
  8
PCB
100
AcDbLine
 10
18.4559197525316
 20
-41.91078545480417
 30
0.0
 11
18.4559197525316
 21
-41.91078545480417
 31
0.0
  0
ARC
  5
A8
330
1AA
100
AcDbEntity
  8
PCB
100
AcDbCircle
 10
15.24087819324154
 20
-41.91078458422805
 30
0.0
 40
0.6750093501036717
100
AcDbArc
 50
270.000073895776
 51
359.99992610541
  0
ARC
  5
A9
330
1AA
100
AcDbEntity
  8
PCB
100
AcDbCircle
 10
15.24088009699926
 20
-41.91078442162234
 30
0.0
 40
0.6750095127093765
100
AcDbArc
 50
180.0000876938172
 51
269.9999123020582
  0
ARC
  5
AA
330
1AA
100
AcDbEntity
  8
PCB
100
AcDbCircle
 10
15.24087847095757
 20
-41.91078486194431
 30
0.0
 40
0.6750078866673533
100
AcDbArc
 50
89.99994967705874
 51
180.000050321972
  0
ARC
  5
AB
330
1AA
100
AcDbEntity
  8
PCB
100
AcDbCircle
 10
15.24087981928176
 20
-41.91078469933967
 30
0.0
 40
0.6750077240633731
100
AcDbArc
 50
359.999935875972
 51
90.00006412504551
  0
LINE
  5
AC
330
1AA
100
AcDbEntity
  8
PCB
100
AcDbLine
 10
15.91588754334464
 20
-41.91078545480417
 30
0.0
 11
15.91588754334464
 21
-41.91078545480417
 31
0.0
  0
ARC
  5
AD
330
1AA
100
AcDbEntity
  8
PCB
100
AcDbCircle
 10
12.70084598405469
 20
-41.91078458422805
 30
0.0
 40
0.6750093501036717
100
AcDbArc
 50
270.0000738957758
 51
359.9999260955462
  0
ARC
  5
AE
330
1AA
100
AcDbEntity
  8
PCB
100
AcDbCircle
 10
12.70084788781242
 20
-41.91078442162234
 30
0.0
 40
0.6750095127093814
100
AcDbArc
 50
180.000087702129
 51
269.9999123020579
  0
ARC
  5
AF
330
1AA
100
AcDbEntity
  8
PCB
100
AcDbCircle
 10
12.70084626177072
 20
-41.91078486194431
 30
0.0
 40
0.675007886667344
100
AcDbArc
 50
89.99994967705855
 51
180.0000503364553
  0
ARC
  5
B0
330
1AA
100
AcDbEntity
  8
PCB
100
AcDbCircle
 10
12.70084761009491
 20
-41.91078469933967
 30
0.0
 40
0.6750077240633755
100
AcDbArc
 50
359.999935875972
 51
90.00006412504533
  0
LINE
  5
B1
330
1AA
100
AcDbEntity
  8
PCB
100
AcDbLine
 10
13.37585533415779
 20
-41.91078545480417
 30
0.0
 11
13.37585533415779
 21
-41.91078545480417
 31
0.0
  0
ARC
  5
B2
330
1AA
100
AcDbEntity
  8
PCB
100
AcDbCircle
 10
10.16081377486785
 20
-41.91078458422805
 30
0.0
 40
0.6750093501036717
100
AcDbArc
 50
270.0000738957758
 51
359.9999260955462
  0
ARC
  5
B3
330
1AA
100
AcDbEntity
  8
PCB
100
AcDbCircle
 10
10.16081567862568
 20
-41.91078442162217
 30
0.0
 40
0.6750095127094401
100
AcDbArc
 50
180.000087702129
 51
269.999912302053
  0
ARC
  5
B4
330
1AA
100
AcDbEntity
  8
PCB
100
AcDbCircle
 10
10.16081405258387
 20
-41.91078486194431
 30
0.0
 40
0.6750078866673533
100
AcDbArc
 50
89.99994967705832
 51
180.000050321972
  0
ARC
  5
B5
330
1AA
100
AcDbEntity
  8
PCB
100
AcDbCircle
 10
10.16081540090806
 20
-41.91078469933967
 30
0.0
 40
0.6750077240633707
100
AcDbArc
 50
359.999935875972
 51
90.00006412504571
  0
LINE
  5
B6
330
1AA
100
AcDbEntity
  8
PCB
100
AcDbLine
 10
10.83582312497094
 20
-41.91078545480417
 30
0.0
 11
10.83582312497094
 21
-41.91078545480417
 31
0.0
  0
ARC
  5
B7
330
1AA
100
AcDbEntity
  8
PCB
100
AcDbCircle
 10
7.620781565681
 20
-39.37075237504138
 30
0.0
 40
0.6750093501035238
100
AcDbArc
 50
270.0000738957708
 51
359.99992610541
  0
ARC
  5
B8
330
1AA
100
AcDbEntity
  8
PCB
100
AcDbCircle
 10
7.62078346943872
 20
-39.37075221243532
 30
0.0
 40
0.6750095127094411
100
AcDbArc
 50
180.0000876938172
 51
269.9999123020528
  0
ARC
  5
B9
330
1AA
100
AcDbEntity
  8
PCB
100
AcDbCircle
 10
7.620781843397026
 20
-39.3707526527574
 30
0.0
 40
0.6750078866673533
100
AcDbArc
 50
89.99994967705827
 51
180.000050321972
  0
ARC
  5
BA
330
1AA
100
AcDbEntity
  8
PCB
100
AcDbCircle
 10
7.620783191720989
 20
-39.3707524901539
 30
0.0
 40
0.6750077240635372
100
AcDbArc
 50
359.999935875972
 51
90.00006412503167
  0
LINE
  5
BB
330
1AA
100
AcDbEntity
  8
PCB
100
AcDbLine
 10
8.295790915784096
 20
-39.37075324561732
 30
0.0
 11
8.295790915784096
 21
-39.37075324561732
 31
0.0
  0
ARC
  5
BC
330
1AA
100
AcDbEntity
  8
PCB
100
AcDbCircle
 10
7.620781565681
 20
-41.91078458422822
 30
0.0
 40
0.6750093501035238
100
AcDbArc
 50
270.000073895771
 51
359.99992610541
  0
ARC
  5
BD
330
1AA
100
AcDbEntity
  8
PCB
100
AcDbCircle
 10
7.62078346943872
 20
-41.91078442162217
 30
0.0
 40
0.6750095127094379
100
AcDbArc
 50
180.000087702129
 51
269.9999123020531
  0
ARC
  5
BE
330
1AA
100
AcDbEntity
  8
PCB
100
AcDbCircle
 10
7.620781843397026
 20
-41.91078486194431
 30
0.0
 40
0.675007886667344
100
AcDbArc
 50
89.99994967705832
 51
180.000050321972
  0
ARC
  5
BF
330
1AA
100
AcDbEntity
  8
PCB
100
AcDbCircle
 10
7.620783191721557
 20
-41.91078469933939
 30
0.0
 40
0.675007724062963
100
AcDbArc
 50
359.999935875972
 51
90.00006412508043
  0
LINE
  5
C0
330
1AA
100
AcDbEntity
  8
PCB
100
AcDbLine
 10
8.295790915784096
 20
-41.91078545480417
 30
0.0
 11
8.295790915784096
 21
-41.91078545480417
 31
0.0
  0
LINE
  5
C1
330
1AA
100
AcDbEntity
  8
PCB
100
AcDbLine
 10
80.00085446054948
 20
0.0
 30
0.0
 11
0.0
 21
0.0
 31
0.0
  0
LINE
  5
C2
330
1AA
100
AcDbEntity
  8
PCB
100
AcDbLine
 10
0.0
 20
0.0
 30
0.0
 11
0.0
 21
-43.99843792753489
 31
0.0
  0
LINE
  5
C3
330
1AA
100
AcDbEntity
  8
PCB
100
AcDbLine
 10
80.00085446054948
 20
-43.99843792753489
 30
0.0
 11
80.00085446054948
 21
0.0
 31
0.0
  0
LINE
  5
C4
330
1AA
100
AcDbEntity
  8
PCB
100
AcDbLine
 10
0.0
 20
-43.99843792753489
 30
0.0
 11
80.00085446054948
 21
-43.99843792753489
 31
0.0
  0
ARC
  5
C5
330
1AA
100
AcDbEntity
  8
PCB
100
AcDbCircle
 10
0.000680717030491
 20
-0.0001854107496797
 30
0.0
 40
0.0016660187276582
100
AcDbArc
 50
270.0003989891538
 51
359.9996010108296
  0
ARC
  5
C6
330
1AA
100
AcDbEntity
  8
PCB
100
AcDbCircle
 10
0.0006807202535128
 20
-0.0001854053294892
 30
0.0
 40
0.0016660241478335
100
AcDbArc
 50
180.0005853924392
 51
270.0002881454878
  0
ARC
  5
C7
330
1AA
100
AcDbEntity
  8
PCB
100
AcDbCircle
 10
0.0006807256735328
 20
-0.0001854193927784
 30
0.0
 40
0.0016660295677955
100
AcDbArc
 50
89.9998982541488
 51
180.0001017460363
  0
ARC
  5
C8
330
1AA
100
AcDbEntity
  8
PCB
100
AcDbCircle
 10
0.0006807116102436
 20
-0.0001854139727016
 30
0.0
 40
0.0016660241478339
100
AcDbArc
 50
359.9997118555052
 51
89.99941460769811
  0
LINE
  5
C9
330
1AA
100
AcDbEntity
  8
PCB
100
AcDbLine
 10
0.0023467357581239
 20
-0.0001854223513078
 30
0.0
 11
0.0023467357581239
 21
-0.0001854223513078
 31
0.0
  0
LINE
  5
CA
330
1AA
100
AcDbEntity
  8
PCB
100
AcDbLine
 10
-0.00254003220914
 20
0.0
 30
0.0
 11
0.0025400322092537
 21
0.0
 31
0.0
  0
LINE
  5
CB
330
1AA
100
AcDbEntity
  8
PCB
100
AcDbLine
 10
0.0
 20
0.00254003220914
 30
0.0
 11
0.0
 21
-0.0025400322091969
 31
0.0
  0
ARC
  5
CC
330
1AA
100
AcDbEntity
  8
PCB
100
AcDbCircle
 10
7.620781565680659
 20
-28.57561548599705
 30
0.0
 40
0.6750093501036672
100
AcDbArc
 50
270.0000738957995
 51
359.9999260955462
  0
ARC
  5
CD
330
1AA
100
AcDbEntity
  8
PCB
100
AcDbCircle
 10
7.620783469438152
 20
-28.57561532339253
 30
0.0
 40
0.6750095127088624
100
AcDbArc
 50
180.0000876938172
 51
269.999912302102
  0
ARC
  5
CE
330
1AA
100
AcDbEntity
  8
PCB
100
AcDbCircle
 10
7.620781843397026
 20
-28.57561576371324
 30
0.0
 40
0.675007886667344
100
AcDbArc
 50
89.99994967705827
 51
180.000050321972
  0
ARC
  5
CF
330
1AA
100
AcDbEntity
  8
PCB
100
AcDbCircle
 10
7.620783191720989
 20
-28.57561560110975
 30
0.0
 40
0.6750077240635372
100
AcDbArc
 50
359.999935875972
 51
90.00006412503167
  0
LINE
  5
D0
330
1AA
100
AcDbEntity
  8
PCB
100
AcDbLine
 10
8.295790915784096
 20
-28.57561635657316
 30
0.0
 11
8.295790915784096
 21
-28.57561635657316
 31
0.0
  0
ARC
  5
D1
330
1AA
100
AcDbEntity
  8
PCB
100
AcDbCircle
 10
7.620781565680659
 20
-26.0355832768102
 30
0.0
 40
0.6750093501036625
100
AcDbArc
 50
270.0000738957996
 51
359.99992610541
  0
ARC
  5
D2
330
1AA
100
AcDbEntity
  8
PCB
100
AcDbCircle
 10
7.620783469438152
 20
-26.03558311420568
 30
0.0
 40
0.6750095127088661
100
AcDbArc
 50
180.0000876938172
 51
269.9999123021017
  0
ARC
  5
D3
330
1AA
100
AcDbEntity
  8
PCB
100
AcDbCircle
 10
7.620781843397026
 20
-26.0355835545264
 30
0.0
 40
0.6750078866673486
100
AcDbArc
 50
89.99994967705827
 51
180.000050321972
  0
ARC
  5
D4
330
1AA
100
AcDbEntity
  8
PCB
100
AcDbCircle
 10
7.620783191720989
 20
-26.03558339192284
 30
0.0
 40
0.6750077240635372
100
AcDbArc
 50
359.999935875972
 51
90.00006412503167
  0
LINE
  5
D5
330
1AA
100
AcDbEntity
  8
PCB
100
AcDbLine
 10
8.295790915784096
 20
-26.03558414738632
 30
0.0
 11
8.295790915784096
 21
-26.03558414738632
 31
0.0
  0
ARC
  5
D6
330
1AA
100
AcDbEntity
  8
PCB
100
AcDbCircle
 10
7.620781565680659
 20
-36.83072016585436
 30
0.0
 40
0.6750093501036625
100
AcDbArc
 50
270.0000738957992
 51
359.99992610541
  0
ARC
  5
D7
330
1AA
100
AcDbEntity
  8
PCB
100
AcDbCircle
 10
7.620783469438152
 20
-36.83072000324984
 30
0.0
 40
0.6750095127088661
100
AcDbArc
 50
180.0000876938172
 51
269.9999123021017
  0
ARC
  5
D8
330
1AA
100
AcDbEntity
  8
PCB
100
AcDbCircle
 10
7.620781843397026
 20
-36.83072044357056
 30
0.0
 40
0.6750078866673486
100
AcDbArc
 50
89.99994967705814
 51
180.000050321972
  0
ARC
  5
D9
330
1AA
100
AcDbEntity
  8
PCB
100
AcDbCircle
 10
7.620783191720989
 20
-36.830720280967
 30
0.0
 40
0.6750077240635372
100
AcDbArc
 50
359.999935875972
 51
90.00006412503167
  0
LINE
  5
DA
330
1AA
100
AcDbEntity
  8
PCB
100
AcDbLine
 10
8.295790915784096
 20
-36.83072103643048
 30
0.0
 11
8.295790915784096
 21
-36.83072103643048
 31
0.0
  0
ARC
  5
DB
330
1AA
100
AcDbEntity
  8
PCB
100
AcDbCircle
 10
10.16081377486785
 20
-36.83072016585436
 30
0.0
 40
0.6750093501036672
100
AcDbArc
 50
270.0000738957755
 51
359.99992610541
  0
ARC
  5
DC
330
1AA
100
AcDbEntity
  8
PCB
100
AcDbCircle
 10
10.160815678625
 20
-36.83072000324984
 30
0.0
 40
0.6750095127088624
100
AcDbArc
 50
180.0000876938172
 51
269.999912302102
  0
ARC
  5
DD
330
1AA
100
AcDbEntity
  8
PCB
100
AcDbCircle
 10
10.16081405258387
 20
-36.83072044357056
 30
0.0
 40
0.6750078866673533
100
AcDbArc
 50
89.99994967705832
 51
180.000050321972
  0
ARC
  5
DE
330
1AA
100
AcDbEntity
  8
PCB
100
AcDbCircle
 10
10.16081540090738
 20
-36.83072028096734
 30
0.0
 40
0.6750077240639437
100
AcDbArc
 50
359.999935875972
 51
90.0000641249971
  0
LINE
  5
DF
330
1AA
100
AcDbEntity
  8
PCB
100
AcDbLine
 10
10.83582312497094
 20
-36.83072103643048
 30
0.0
 11
10.83582312497094
 21
-36.83072103643048
 31
0.0
  0
ARC
  5
E0
330
1AA
100
AcDbEntity
  8
PCB
100
AcDbCircle
 10
12.70084598405469
 20
-36.83072016585436
 30
0.0
 40
0.6750093501036672
100
AcDbArc
 50
270.0000738957755
 51
359.99992610541
  0
ARC
  5
E1
330
1AA
100
AcDbEntity
  8
PCB
100
AcDbCircle
 10
12.70084788781185
 20
-36.83072000325001
 30
0.0
 40
0.6750095127088106
100
AcDbArc
 50
180.000087702129
 51
269.9999123021063
  0
ARC
  5
E2
330
1AA
100
AcDbEntity
  8
PCB
100
AcDbCircle
 10
12.70084626177072
 20
-36.83072044357056
 30
0.0
 40
0.6750078866673486
100
AcDbArc
 50
89.99994967705855
 51
180.0000503364553
  0
ARC
  5
E3
330
1AA
100
AcDbEntity
  8
PCB
100
AcDbCircle
 10
12.70084761009434
 20
-36.83072028096734
 30
0.0
 40
0.6750077240639437
100
AcDbArc
 50
359.999935875972
 51
90.0000641249971
  0
LINE
  5
E4
330
1AA
100
AcDbEntity
  8
PCB
100
AcDbLine
 10
13.37585533415779
 20
-36.83072103643048
 30
0.0
 11
13.37585533415779
 21
-36.83072103643048
 31
0.0
  0
ARC
  5
E5
330
1AA
100
AcDbEntity
  8
PCB
100
AcDbCircle
 10
15.24087819324154
 20
-36.83072016585436
 30
0.0
 40
0.6750093501036672
100
AcDbArc
 50
270.0000738957758
 51
359.9999260955462
  0
ARC
  5
E6
330
1AA
100
AcDbEntity
  8
PCB
100
AcDbCircle
 10
15.24088009699869
 20
-36.83072000325001
 30
0.0
 40
0.6750095127088083
100
AcDbArc
 50
180.0000876938172
 51
269.9999123021065
  0
ARC
  5
E7
330
1AA
100
AcDbEntity
  8
PCB
100
AcDbCircle
 10
15.24087847095757
 20
-36.83072044357056
 30
0.0
 40
0.6750078866673533
100
AcDbArc
 50
89.99994967705874
 51
180.000050321972
  0
ARC
  5
E8
330
1AA
100
AcDbEntity
  8
PCB
100
AcDbCircle
 10
15.24087981928119
 20
-36.83072028096728
 30
0.0
 40
0.675007724063939
100
AcDbArc
 50
359.999935875972
 51
90.00006412499746
  0
LINE
  5
E9
330
1AA
100
AcDbEntity
  8
PCB
100
AcDbLine
 10
15.91588754334464
 20
-36.83072103643048
 30
0.0
 11
15.91588754334464
 21
-36.83072103643048
 31
0.0
  0
ARC
  5
EA
330
1AA
100
AcDbEntity
  8
PCB
100
AcDbCircle
 10
17.78091040242839
 20
-36.83072016585436
 30
0.0
 40
0.6750093501036672
100
AcDbArc
 50
270.0000738957755
 51
359.99992610541
  0
ARC
  5
EB
330
1AA
100
AcDbEntity
  8
PCB
100
AcDbCircle
 10
17.78091230618554
 20
-36.83072000325001
 30
0.0
 40
0.6750095127088036
100
AcDbArc
 50
180.0000876938172
 51
269.9999123021068
  0
ARC
  5
EC
330
1AA
100
AcDbEntity
  8
PCB
100
AcDbCircle
 10
17.78091068014442
 20
-36.83072044357056
 30
0.0
 40
0.6750078866673486
100
AcDbArc
 50
89.99994967705874
 51
180.000050321972
  0
ARC
  5
ED
330
1AA
100
AcDbEntity
  8
PCB
100
AcDbCircle
 10
17.78091202846804
 20
-36.83072028096728
 30
0.0
 40
0.675007724063939
100
AcDbArc
 50
359.999935875972
 51
90.00006412499746
  0
LINE
  5
EE
330
1AA
100
AcDbEntity
  8
PCB
100
AcDbLine
 10
18.4559197525316
 20
-36.83072103643048
 30
0.0
 11
18.4559197525316
 21
-36.83072103643048
 31
0.0
  0
ARC
  5
EF
330
1AA
100
AcDbEntity
  8
PCB
100
AcDbCircle
 10
20.32094261161535
 20
-36.83072016585464
 30
0.0
 40
0.6750093501033853
100
AcDbArc
 50
270.0000738957654
 51
359.99992610541
  0
ARC
  5
F0
330
1AA
100
AcDbEntity
  8
PCB
100
AcDbCircle
 10
20.3209445153725
 20
-36.83072000325001
 30
0.0
 40
0.6750095127088083
100
AcDbArc
 50
180.0000876938172
 51
269.9999123021065
  0
ARC
  5
F1
330
1AA
100
AcDbEntity
  8
PCB
100
AcDbCircle
 10
20.32094288933126
 20
-36.83072044357056
 30
0.0
 40
0.6750078866673533
100
AcDbArc
 50
89.99994967705874
 51
180.000050321972
  0
ARC
  5
F2
330
1AA
100
AcDbEntity
  8
PCB
100
AcDbCircle
 10
20.32094423765489
 20
-36.83072028096728
 30
0.0
 40
0.6750077240639368
100
AcDbArc
 50
359.999935875972
 51
90.00006412499768
  0
LINE
  5
F3
330
1AA
100
AcDbEntity
  8
PCB
100
AcDbLine
 10
20.99595196171845
 20
-36.83072103643048
 30
0.0
 11
20.99595196171845
 21
-36.83072103643048
 31
0.0
  0
ARC
  5
F4
330
1AA
100
AcDbEntity
  8
PCB
100
AcDbCircle
 10
22.86097355078618
 20
-36.83072016585464
 30
0.0
 40
0.675009350103376
100
AcDbArc
 50
270.000073895766
 51
359.9999260955462
  0
ARC
  5
F5
330
1AA
100
AcDbEntity
  8
PCB
100
AcDbCircle
 10
22.86097545454322
 20
-36.83072000325001
 30
0.0
 40
0.6750095127088059
100
AcDbArc
 50
180.0000876938172
 51
269.9999123021067
  0
ARC
  5
F6
330
1AA
100
AcDbEntity
  8
PCB
100
AcDbCircle
 10
22.86097382850289
 20
-36.83072044357112
 30
0.0
 40
0.6750078866679169
100
AcDbArc
 50
89.9999496771264
 51
180.000050321972
  0
ARC
  5
F7
330
1AA
100
AcDbEntity
  8
PCB
100
AcDbCircle
 10
22.8609751768256
 20
-36.83072028096734
 30
0.0
 40
0.6750077240639507
100
AcDbArc
 50
359.999935875972
 51
90.00006412499651
  0
LINE
  5
F8
330
1AA
100
AcDbEntity
  8
PCB
100
AcDbLine
 10
23.53598290088917
 20
-36.83072103643048
 30
0.0
 11
23.53598290088917
 21
-36.83072103643048
 31
0.0
  0
ARC
  5
F9
330
1AA
100
AcDbEntity
  8
PCB
100
AcDbCircle
 10
25.40108225532663
 20
-36.83071919022564
 30
0.0
 40
0.6750103257343302
100
AcDbArc
 50
270.0001567083347
 51
359.9998432889228
  0
ARC
  5
FA
330
1AA
100
AcDbEntity
  8
PCB
100
AcDbCircle
 10
25.40108457250392
 20
-36.83072005745117
 30
0.0
 40
0.675009458506679
100
AcDbArc
 50
180.0000830972236
 51
269.9999600231696
  0
ARC
  5
FB
330
1AA
100
AcDbEntity
  8
PCB
100
AcDbCircle
 10
25.40108294646473
 20
-36.83072038936893
 30
0.0
 40
0.6750078324664692
100
AcDbArc
 50
89.99990195602953
 51
180.0000549209433
  0
ARC
  5
FC
330
1AA
100
AcDbEntity
  8
PCB
100
AcDbCircle
 10
25.40108388137332
 20
-36.83072125658879
 30
0.0
 40
0.6750086996851714
100
AcDbArc
 50
0.0000187052434022
 51
89.99998131263705
  0
LINE
  5
FD
330
1AA
100
AcDbEntity
  8
PCB
100
AcDbLine
 10
26.07609258105845
 20
-36.83072103643048
 30
0.0
 11
26.07609258105845
 21
-36.83072103643048
 31
0.0
  0
ARC
  5
FE
330
1AA
100
AcDbEntity
  8
PCB
100
AcDbCircle
 10
27.94111446451348
 20
-36.83071919022564
 30
0.0
 40
0.6750103257343302
100
AcDbArc
 50
270.0001567083343
 51
359.9998432935742
  0
ARC
  5
FF
330
1AA
100
AcDbEntity
  8
PCB
100
AcDbCircle
 10
27.94111653087668
 20
-36.83072081627233
 30
0.0
 40
0.6750086996853744
100
AcDbArc
 50
180.0000186662334
 51
269.9999813126197
  0
ARC
  5
100
330
1AA
100
AcDbEntity
  8
PCB
100
AcDbCircle
 10
27.94111490484102
 20
-36.83071963055318
 30
0.0
 40
0.6750070736511845
100
AcDbArc
 50
89.99988066668121
 51
180.0001193330026
  0
ARC
  5
101
330
1AA
100
AcDbEntity
  8
PCB
100
AcDbCircle
 10
27.94111609056017
 20
-36.83072125658879
 30
0.0
 40
0.6750086996851665
100
AcDbArc
 50
0.0000186662334674
 51
89.99998131263742
  0
LINE
  5
102
330
1AA
100
AcDbEntity
  8
PCB
100
AcDbLine
 10
28.61612479024529
 20
-36.83072103643048
 30
0.0
 11
28.61612479024529
 21
-36.83072103643048
 31
0.0
  0
ARC
  5
103
330
1AA
100
AcDbEntity
  8
PCB
100
AcDbCircle
 10
30.48114667370032
 20
-36.83071919022564
 30
0.0
 40
0.6750103257343302
100
AcDbArc
 50
270.0001567083347
 51
359.9998432889228
  0
ARC
  5
104
330
1AA
100
AcDbEntity
  8
PCB
100
AcDbCircle
 10
30.48114874006353
 20
-36.83072081627233
 30
0.0
 40
0.6750086996853838
100
AcDbArc
 50
180.0000187052434
 51
269.999981312619
  0
ARC
  5
105
330
1AA
100
AcDbEntity
  8
PCB
100
AcDbCircle
 10
30.48114711402786
 20
-36.83071963055318
 30
0.0
 40
0.6750070736511845
100
AcDbArc
 50
89.99988066668121
 51
180.0001193330026
  0
ARC
  5
106
330
1AA
100
AcDbEntity
  8
PCB
100
AcDbCircle
 10
30.48114829974702
 20
-36.83072125658879
 30
0.0
 40
0.6750086996851665
100
AcDbArc
 50
0.0000186662334674
 51
89.99998131263742
  0
LINE
  5
107
330
1AA
100
AcDbEntity
  8
PCB
100
AcDbLine
 10
31.15615699943214
 20
-36.83072103643048
 30
0.0
 11
31.15615699943214
 21
-36.83072103643048
 31
0.0
  0
ARC
  5
108
330
1AA
100
AcDbEntity
  8
PCB
100
AcDbCircle
 10
10.16081475049259
 20
-10.16030623604428
 30
0.0
 40
0.6750083744784086
100
AcDbArc
 50
269.9999910833096
 51
0.0000089544535452
  0
ARC
  5
109
330
1AA
100
AcDbEntity
  8
PCB
100
AcDbCircle
 10
10.16081470299912
 20
-10.16030607344067
 30
0.0
 40
0.6750085370821561
100
AcDbArc
 50
180.0000049045562
 51
269.9999951146278
  0
ARC
  5
10A
330
1AA
100
AcDbEntity
  8
PCB
100
AcDbCircle
 10
10.16081486560358
 20
-10.16030635115527
 30
0.0
 40
0.6750086996866174
100
AcDbArc
 50
90.00001868749277
 51
179.9999813337665
  0
ARC
  5
10B
330
1AA
100
AcDbEntity
  8
PCB
100
AcDbCircle
 10
10.16081458788881
 20
-10.1603061885512
 30
0.0
 40
0.6750085370821503
100
AcDbArc
 50
0.0000049045561969
 51
89.99999511462822
  0
LINE
  5
10C
330
1AA
100
AcDbEntity
  8
PCB
100
AcDbLine
 10
10.83582312497094
 20
-10.16030613099565
 30
0.0
 11
10.83582312497094
 21
-10.16030613099565
 31
0.0
  0
ARC
  5
10D
330
1AA
100
AcDbEntity
  8
PCB
100
AcDbCircle
 10
10.16081458788892
 20
-7.620274626263324
 30
0.0
 40
0.6750085370821526
100
AcDbArc
 50
270.0000048853597
 51
359.9999950954439
  0
ARC
  5
10E
330
1AA
100
AcDbEntity
  8
PCB
100
AcDbCircle
 10
10.16081486560358
 20
-7.620274463658859
 30
0.0
 40
0.6750086996867017
100
AcDbArc
 50
180.0000186662334
 51
269.9999813125072
  0
ARC
  5
10F
330
1AA
100
AcDbEntity
  8
PCB
100
AcDbCircle
 10
10.16081470299923
 20
-7.620274741373805
 30
0.0
 40
0.6750085370823524
100
AcDbArc
 50
90.00000488538412
 51
179.9999950954438
  0
ARC
  5
110
330
1AA
100
AcDbEntity
  8
PCB
100
AcDbCircle
 10
10.1608147504927
 20
-7.620274578769852
 30
0.0
 40
0.6750083744782677
100
AcDbArc
 50
359.9999910455464
 51
90.00000891670254
  0
LINE
  5
111
330
1AA
100
AcDbEntity
  8
PCB
100
AcDbLine
 10
10.83582312497094
 20
-7.620274683818479
 30
0.0
 11
10.83582312497094
 21
-7.620274683818479
 31
0.0
  0
ARC
  5
112
330
1AA
100
AcDbEntity
  8
PCB
100
AcDbCircle
 10
10.16081458788892
 20
-5.08024241707642
 30
0.0
 40
0.6750085370821548
100
AcDbArc
 50
270.0000048853598
 51
359.9999950954439
  0
ARC
  5
113
330
1AA
100
AcDbEntity
  8
PCB
100
AcDbCircle
 10
10.16081486560347
 20
-5.080242254472068
 30
0.0
 40
0.6750086996865562
100
AcDbArc
 50
180.0000186662334
 51
269.9999813125195
  0
ARC
  5
114
330
1AA
100
AcDbEntity
  8
PCB
100
AcDbCircle
 10
10.16081470299923
 20
-5.080242532186958
 30
0.0
 40
0.6750085370823536
100
AcDbArc
 50
90.00000488538412
 51
179.9999950954438
  0
ARC
  5
115
330
1AA
100
AcDbEntity
  8
PCB
100
AcDbCircle
 10
10.1608147504927
 20
-5.080242369582948
 30
0.0
 40
0.67500837447827
100
AcDbArc
 50
359.9999910455464
 51
90.00000891670236
  0
LINE
  5
116
330
1AA
100
AcDbEntity
  8
PCB
100
AcDbLine
 10
10.83582312497094
 20
-5.080242474631632
 30
0.0
 11
10.83582312497094
 21
-5.080242474631632
 31
0.0
  0
ARC
  5
117
330
1AA
100
AcDbEntity
  8
PCB
100
AcDbCircle
 10
10.1608147504927
 20
-2.540209862486961
 30
0.0
 40
0.6750083744783532
100
AcDbArc
 50
269.9999910832977
 51
0.0000089544535452
  0
ARC
  5
118
330
1AA
100
AcDbEntity
  8
PCB
100
AcDbCircle
 10
10.16081470299923
 20
-2.540209699882951
 30
0.0
 40
0.6750085370822969
100
AcDbArc
 50
180.0000049045562
 51
269.9999951146159
  0
ARC
  5
119
330
1AA
100
AcDbEntity
  8
PCB
100
AcDbCircle
 10
10.16081464879812
 20
-2.540210014795662
 30
0.0
 40
0.675008482881151
100
AcDbArc
 50
90.00000028470764
 51
179.9999781493986
  0
ARC
  5
11A
330
1AA
100
AcDbEntity
  8
PCB
100
AcDbCircle
 10
10.16081480469404
 20
-2.540209852191595
 30
0.0
 40
0.6750083202768874
100
AcDbArc
 50
0.0000080544844698
 51
90.00001351740244
  0
LINE
  5
11B
330
1AA
100
AcDbEntity
  8
PCB
100
AcDbLine
 10
10.83582312497094
 20
-2.540209757438333
 30
0.0
 11
10.83582312497094
 21
-2.540209757438333
 31
0.0
  0
SPLINE
  5
11C
330
1AA
100
AcDbEntity
  8
PCB
100
AcDbSpline
210
0.0
220
0.0
230
1.0
 70
     8
 71
     3
 72
     8
 73
     4
 74
     0
 42
0.000000001
 43
0.001
 40
0.0
 40
0.0
 40
0.0
 40
0.0
 40
1.0
 40
1.0
 40
1.0
 40
1.0
 10
72.69668703916761
 20
-22.86046844694607
 30
0.0
 10
72.69668703916761
 20
-23.73032711529459
 30
0.0
 10
71.99152583728528
 20
-24.43548831717681
 30
0.0
 10
71.12166640692715
 20
-24.43548831717681
 30
0.0
  0
SPLINE
  5
11D
330
1AA
100
AcDbEntity
  8
PCB
100
AcDbSpline
210
0.0
220
0.0
230
1.0
 70
     8
 71
     3
 72
     8
 73
     4
 74
     0
 42
0.000000001
 43
0.001
 40
0.0
 40
0.0
 40
0.0
 40
0.0
 40
1.0
 40
1.0
 40
1.0
 40
1.0
 10
71.12166640692715
 20
-24.43548831717681
 30
0.0
 10
70.25180697656901
 20
-24.43548831717681
 30
0.0
 10
69.5466457746868
 20
-23.73032711529459
 30
0.0
 10
69.5466457746868
 20
-22.86046844694607
 30
0.0
  0
SPLINE
  5
11E
330
1AA
100
AcDbEntity
  8
PCB
100
AcDbSpline
210
0.0
220
0.0
230
1.0
 70
     8
 71
     3
 72
     8
 73
     4
 74
     0
 42
0.000000001
 43
0.001
 40
0.0
 40
0.0
 40
0.0
 40
0.0
 40
1.0
 40
1.0
 40
1.0
 40
1.0
 10
69.5466457746868
 20
-22.86046844694607
 30
0.0
 10
69.5466457746868
 20
-21.99060850858154
 30
0.0
 10
70.25180697656901
 20
-21.28544781470572
 30
0.0
 10
71.12166640692715
 20
-21.28544781470572
 30
0.0
  0
SPLINE
  5
11F
330
1AA
100
AcDbEntity
  8
PCB
100
AcDbSpline
210
0.0
220
0.0
230
1.0
 70
     8
 71
     3
 72
     8
 73
     4
 74
     0
 42
0.000000001
 43
0.001
 40
0.0
 40
0.0
 40
0.0
 40
0.0
 40
1.0
 40
1.0
 40
1.0
 40
1.0
 10
71.12166640692715
 20
-21.28544781470572
 30
0.0
 10
71.99152583728528
 20
-21.28544781470572
 30
0.0
 10
72.69668703916761
 20
-21.99060850858154
 30
0.0
 10
72.69668703916761
 20
-22.86046844694607
 30
0.0
  0
LINE
  5
120
330
1AA
100
AcDbEntity
  8
PCB
100
AcDbLine
 10
72.69668703916761
 20
-22.86046844694607
 30
0.0
 11
72.69668703916761
 21
-22.86046844694607
 31
0.0
  0
SPLINE
  5
121
330
1AA
100
AcDbEntity
  8
PCB
100
AcDbSpline
210
0.0
220
0.0
230
1.0
 70
     8
 71
     3
 72
     8
 73
     4
 74
     0
 42
0.000000001
 43
0.001
 40
0.0
 40
0.0
 40
0.0
 40
0.0
 40
1.0
 40
1.0
 40
1.0
 40
1.0
 10
72.69668703916761
 20
-34.29068882724357
 30
0.0
 10
72.69668703916761
 20
-35.16054825760176
 30
0.0
 10
71.99152583728528
 20
-35.86570945948398
 30
0.0
 10
71.12166640692715
 20
-35.86570945948398
 30
0.0
  0
SPLINE
  5
122
330
1AA
100
AcDbEntity
  8
PCB
100
AcDbSpline
210
0.0
220
0.0
230
1.0
 70
     8
 71
     3
 72
     8
 73
     4
 74
     0
 42
0.000000001
 43
0.001
 40
0.0
 40
0.0
 40
0.0
 40
0.0
 40
1.0
 40
1.0
 40
1.0
 40
1.0
 10
71.12166640692715
 20
-35.86570945948398
 30
0.0
 10
70.25180697656901
 20
-35.86570945948398
 30
0.0
 10
69.5466457746868
 20
-35.16054825760176
 30
0.0
 10
69.5466457746868
 20
-34.29068882724357
 30
0.0
  0
SPLINE
  5
123
330
1AA
100
AcDbEntity
  8
PCB
100
AcDbSpline
210
0.0
220
0.0
230
1.0
 70
     8
 71
     3
 72
     8
 73
     4
 74
     0
 42
0.000000001
 43
0.001
 40
0.0
 40
0.0
 40
0.0
 40
0.0
 40
1.0
 40
1.0
 40
1.0
 40
1.0
 10
69.5466457746868
 20
-34.29068882724357
 30
0.0
 10
69.5466457746868
 20
-33.42082685685324
 30
0.0
 10
70.25180697656901
 20
-32.71566819500322
 30
0.0
 10
71.12166640692715
 20
-32.71566819500322
 30
0.0
  0
SPLINE
  5
124
330
1AA
100
AcDbEntity
  8
PCB
100
AcDbSpline
210
0.0
220
0.0
230
1.0
 70
     8
 71
     3
 72
     8
 73
     4
 74
     0
 42
0.000000001
 43
0.001
 40
0.0
 40
0.0
 40
0.0
 40
0.0
 40
1.0
 40
1.0
 40
1.0
 40
1.0
 10
71.12166640692715
 20
-32.71566819500322
 30
0.0
 10
71.99152583728528
 20
-32.71566819500322
 30
0.0
 10
72.69668703916761
 20
-33.42082685685324
 30
0.0
 10
72.69668703916761
 20
-34.29068882724357
 30
0.0
  0
LINE
  5
125
330
1AA
100
AcDbEntity
  8
PCB
100
AcDbLine
 10
72.69668703916761
 20
-34.29068882724357
 30
0.0
 11
72.69668703916761
 21
-34.29068882724357
 31
0.0
  0
ARC
  5
126
330
1AA
100
AcDbEntity
  8
PCB
100
AcDbCircle
 10
64.77158493110494
 20
-33.02067176979477
 30
0.0
 40
0.7250099664208832
100
AcDbArc
 50
270.0000753018262
 51
359.999924693486
  0
ARC
  5
127
330
1AA
100
AcDbEntity
  8
PCB
100
AcDbCircle
 10
64.77158521077547
 20
-33.0206733958351
 30
0.0
 40
0.7250083403806129
100
AcDbArc
 50
179.9999467913359
 51
270.0000532002607
  0
ARC
  5
128
330
1AA
100
AcDbEntity
  8
PCB
100
AcDbCircle
 10
64.77158358474458
 20
-33.02067042343509
 30
0.0
 40
0.7250067143533868
100
AcDbArc
 50
89.99981829776306
 51
180.0001817014063
  0
ARC
  5
129
330
1AA
100
AcDbEntity
  8
PCB
100
AcDbCircle
 10
64.77158655714527
 20
-33.02067204946479
 30
0.0
 40
0.7250083403798457
100
AcDbArc
 50
359.999946805037
 51
90.00005320032137
  0
LINE
  5
12A
330
1AA
100
AcDbEntity
  8
PCB
100
AcDbLine
 10
65.49659489752491
 20
-33.02067272265015
 30
0.0
 11
65.49659489752491
 21
-33.02067272265015
 31
0.0
  0
ARC
  5
12B
330
1AA
100
AcDbEntity
  8
PCB
100
AcDbCircle
 10
64.77158493110494
 20
-30.48063956060787
 30
0.0
 40
0.7250099664208832
100
AcDbArc
 50
270.0000753018248
 51
359.999924693486
  0
ARC
  5
12C
330
1AA
100
AcDbEntity
  8
PCB
100
AcDbCircle
 10
64.77158521077547
 20
-30.48064118664825
 30
0.0
 40
0.7250083403806312
100
AcDbArc
 50
179.999946805037
 51
270.0000532002593
  0
ARC
  5
12D
330
1AA
100
AcDbEntity
  8
PCB
100
AcDbCircle
 10
64.77158358474458
 20
-30.48063821424818
 30
0.0
 40
0.7250067143533868
100
AcDbArc
 50
89.99981829776162
 51
180.000181705418
  0
ARC
  5
12E
330
1AA
100
AcDbEntity
  8
PCB
100
AcDbCircle
 10
64.77158655714527
 20
-30.48063984027788
 30
0.0
 40
0.7250083403798457
100
AcDbArc
 50
359.999946805037
 51
90.00005320032137
  0
LINE
  5
12F
330
1AA
100
AcDbEntity
  8
PCB
100
AcDbLine
 10
65.49659489752491
 20
-30.4806405134633
 30
0.0
 11
65.49659489752491
 21
-30.4806405134633
 31
0.0
  0
ARC
  5
130
330
1AA
100
AcDbEntity
  8
PCB
100
AcDbCircle
 10
64.77158493110494
 20
-27.94060735142102
 30
0.0
 40
0.7250099664208832
100
AcDbArc
 50
270.0000753018262
 51
359.999924693486
  0
ARC
  5
131
330
1AA
100
AcDbEntity
  8
PCB
100
AcDbCircle
 10
64.77158521077547
 20
-27.94060897746141
 30
0.0
 40
0.7250083403806129
100
AcDbArc
 50
179.9999467913359
 51
270.0000532002607
  0
ARC
  5
132
330
1AA
100
AcDbEntity
  8
PCB
100
AcDbCircle
 10
64.77158358474458
 20
-27.94060600506134
 30
0.0
 40
0.7250067143533868
100
AcDbArc
 50
89.99981829776162
 51
180.000181705418
  0
ARC
  5
133
330
1AA
100
AcDbEntity
  8
PCB
100
AcDbCircle
 10
64.77158655714527
 20
-27.94060763109104
 30
0.0
 40
0.7250083403798457
100
AcDbArc
 50
359.999946805037
 51
90.00005320032137
  0
LINE
  5
134
330
1AA
100
AcDbEntity
  8
PCB
100
AcDbLine
 10
65.49659489752491
 20
-27.94060830427645
 30
0.0
 11
65.49659489752491
 21
-27.94060830427645
 31
0.0
  0
ARC
  5
135
330
1AA
100
AcDbEntity
  8
PCB
100
AcDbCircle
 10
64.77158493110494
 20
-25.40057514223417
 30
0.0
 40
0.7250099664208832
100
AcDbArc
 50
270.0000753018248
 51
359.999924693486
  0
ARC
  5
136
330
1AA
100
AcDbEntity
  8
PCB
100
AcDbCircle
 10
64.77158521077547
 20
-25.4005767682745
 30
0.0
 40
0.7250083403806312
100
AcDbArc
 50
179.999946805037
 51
270.0000532002593
  0
ARC
  5
137
330
1AA
100
AcDbEntity
  8
PCB
100
AcDbCircle
 10
64.77158358474458
 20
-25.40057379587449
 30
0.0
 40
0.7250067143533868
100
AcDbArc
 50
89.99981829776162
 51
180.000181705418
  0
ARC
  5
138
330
1AA
100
AcDbEntity
  8
PCB
100
AcDbCircle
 10
64.77158655714527
 20
-25.40057542190419
 30
0.0
 40
0.7250083403798457
100
AcDbArc
 50
359.999946805037
 51
90.00005320032137
  0
LINE
  5
139
330
1AA
100
AcDbEntity
  8
PCB
100
AcDbLine
 10
65.49659489752491
 20
-25.4005760950896
 30
0.0
 11
65.49659489752491
 21
-25.4005760950896
 31
0.0
  0
ARC
  5
13A
330
1AA
100
AcDbEntity
  8
PCB
100
AcDbCircle
 10
62.23155272191809
 20
-31.75065566520129
 30
0.0
 40
0.7250099664208878
100
AcDbArc
 50
270.0000753018255
 51
359.999924693486
  0
ARC
  5
13B
330
1AA
100
AcDbEntity
  8
PCB
100
AcDbCircle
 10
62.23155300158862
 20
-31.75065729124168
 30
0.0
 40
0.7250083403806312
100
AcDbArc
 50
179.999946805037
 51
270.0000532002593
  0
ARC
  5
13C
330
1AA
100
AcDbEntity
  8
PCB
100
AcDbCircle
 10
62.23155137555773
 20
-31.75065431884161
 30
0.0
 40
0.7250067143533868
100
AcDbArc
 50
89.99981829776306
 51
180.0001817014063
  0
ARC
  5
13D
330
1AA
100
AcDbEntity
  8
PCB
100
AcDbCircle
 10
62.23155434795842
 20
-31.75065594487137
 30
0.0
 40
0.7250083403798552
100
AcDbArc
 50
359.9999467913358
 51
90.00005320032062
  0
LINE
  5
13E
330
1AA
100
AcDbEntity
  8
PCB
100
AcDbLine
 10
62.95656268833795
 20
-31.75065661805672
 30
0.0
 11
62.95656268833795
 21
-31.75065661805672
 31
0.0
  0
ARC
  5
13F
330
1AA
100
AcDbEntity
  8
PCB
100
AcDbCircle
 10
62.23155272191809
 20
-29.21062345601445
 30
0.0
 40
0.7250099664208784
100
AcDbArc
 50
270.0000753018255
 51
359.999924693486
  0
ARC
  5
140
330
1AA
100
AcDbEntity
  8
PCB
100
AcDbCircle
 10
62.23155300158862
 20
-29.21062508205483
 30
0.0
 40
0.7250083403806312
100
AcDbArc
 50
179.999946805037
 51
270.0000532002593
  0
ARC
  5
141
330
1AA
100
AcDbEntity
  8
PCB
100
AcDbCircle
 10
62.23155137555773
 20
-29.21062210965476
 30
0.0
 40
0.7250067143533868
100
AcDbArc
 50
89.99981829776162
 51
180.000181705418
  0
ARC
  5
142
330
1AA
100
AcDbEntity
  8
PCB
100
AcDbCircle
 10
62.23155434795842
 20
-29.21062373568446
 30
0.0
 40
0.7250083403798552
100
AcDbArc
 50
359.9999467913358
 51
90.00005320032062
  0
LINE
  5
143
330
1AA
100
AcDbEntity
  8
PCB
100
AcDbLine
 10
62.95656268833795
 20
-29.21062440886988
 30
0.0
 11
62.95656268833795
 21
-29.21062440886988
 31
0.0
  0
ARC
  5
144
330
1AA
100
AcDbEntity
  8
PCB
100
AcDbCircle
 10
62.23155272191809
 20
-26.6705912468276
 30
0.0
 40
0.7250099664208878
100
AcDbArc
 50
270.0000753018255
 51
359.999924693486
  0
ARC
  5
145
330
1AA
100
AcDbEntity
  8
PCB
100
AcDbCircle
 10
62.23155300158862
 20
-26.67059287286793
 30
0.0
 40
0.7250083403806312
100
AcDbArc
 50
179.999946805037
 51
270.0000532002593
  0
ARC
  5
146
330
1AA
100
AcDbEntity
  8
PCB
100
AcDbCircle
 10
62.23155137555773
 20
-26.67058990046792
 30
0.0
 40
0.7250067143533868
100
AcDbArc
 50
89.99981829776162
 51
180.000181705418
  0
ARC
  5
147
330
1AA
100
AcDbEntity
  8
PCB
100
AcDbCircle
 10
62.23155434795842
 20
-26.67059152649762
 30
0.0
 40
0.7250083403798367
100
AcDbArc
 50
359.9999467913358
 51
90.00005320032207
  0
LINE
  5
148
330
1AA
100
AcDbEntity
  8
PCB
100
AcDbLine
 10
62.95656268833795
 20
-26.67059219968303
 30
0.0
 11
62.95656268833795
 21
-26.67059219968303
 31
0.0
  0
ARC
  5
149
330
1AA
100
AcDbEntity
  8
PCB
100
AcDbCircle
 10
62.23155272191809
 20
-24.13055903764069
 30
0.0
 40
0.7250099664208832
100
AcDbArc
 50
270.0000753018255
 51
359.999924693486
  0
ARC
  5
14A
330
1AA
100
AcDbEntity
  8
PCB
100
AcDbCircle
 10
62.23155300158862
 20
-24.13056066368108
 30
0.0
 40
0.7250083403806312
100
AcDbArc
 50
179.999946805037
 51
270.0000532002593
  0
ARC
  5
14B
330
1AA
100
AcDbEntity
  8
PCB
100
AcDbCircle
 10
62.23155137555773
 20
-24.13055769128107
 30
0.0
 40
0.7250067143533868
100
AcDbArc
 50
89.99981829776162
 51
180.000181705418
  0
ARC
  5
14C
330
1AA
100
AcDbEntity
  8
PCB
100
AcDbCircle
 10
62.23155434795842
 20
-24.13055931731077
 30
0.0
 40
0.7250083403798367
100
AcDbArc
 50
359.9999467913358
 51
90.00005320032207
  0
LINE
  5
14D
330
1AA
100
AcDbEntity
  8
PCB
100
AcDbLine
 10
62.95656268833795
 20
-24.13055999049612
 30
0.0
 11
62.95656268833795
 21
-24.13055999049612
 31
0.0
  0
SPLINE
  5
14E
330
1AA
100
AcDbEntity
  8
PCB
100
AcDbSpline
210
0.0
220
0.0
230
1.0
 70
     8
 71
     3
 72
     8
 73
     4
 74
     0
 42
0.000000001
 43
0.001
 40
0.0
 40
0.0
 40
0.0
 40
0.0
 40
1.0
 40
1.0
 40
1.0
 40
1.0
 10
69.2466070100088
 20
-20.83044955904506
 30
0.0
 10
69.2466070100088
 20
-21.47939172003498
 30
0.0
 10
68.72053585909975
 20
-22.00546312494731
 30
0.0
 10
68.07159319010339
 20
-22.00546312494731
 30
0.0
  0
SPLINE
  5
14F
330
1AA
100
AcDbEntity
  8
PCB
100
AcDbSpline
210
0.0
220
0.0
230
1.0
 70
     8
 71
     3
 72
     8
 73
     4
 74
     0
 42
0.000000001
 43
0.001
 40
0.0
 40
0.0
 40
0.0
 40
0.0
 40
1.0
 40
1.0
 40
1.0
 40
1.0
 10
68.07159319010339
 20
-22.00546312494731
 30
0.0
 10
67.42265052110713
 20
-22.00546312494731
 30
0.0
 10
66.89657937019797
 20
-21.47939172003498
 30
0.0
 10
66.89657937019797
 20
-20.83044955904506
 30
0.0
  0
SPLINE
  5
150
330
1AA
100
AcDbEntity
  8
PCB
100
AcDbSpline
210
0.0
220
0.0
230
1.0
 70
     8
 71
     3
 72
     8
 73
     4
 74
     0
 42
0.000000001
 43
0.001
 40
0.0
 40
0.0
 40
0.0
 40
0.0
 40
1.0
 40
1.0
 40
1.0
 40
1.0
 10
66.89657937019797
 20
-20.83044955904506
 30
0.0
 10
66.89657937019797
 20
-20.18150714405198
 30
0.0
 10
67.42265052110713
 20
-19.65543573913965
 30
0.0
 10
68.07159319010339
 20
-19.65543573913965
 30
0.0
  0
SPLINE
  5
151
330
1AA
100
AcDbEntity
  8
PCB
100
AcDbSpline
210
0.0
220
0.0
230
1.0
 70
     8
 71
     3
 72
     8
 73
     4
 74
     0
 42
0.000000001
 43
0.001
 40
0.0
 40
0.0
 40
0.0
 40
0.0
 40
1.0
 40
1.0
 40
1.0
 40
1.0
 10
68.07159319010339
 20
-19.65543573913965
 30
0.0
 10
68.72053585909975
 20
-19.65543573913965
 30
0.0
 10
69.2466070100088
 20
-20.18150714405198
 30
0.0
 10
69.2466070100088
 20
-20.83044955904506
 30
0.0
  0
LINE
  5
152
330
1AA
100
AcDbEntity
  8
PCB
100
AcDbLine
 10
69.2466070100088
 20
-20.83044955904506
 30
0.0
 11
69.2466070100088
 21
-20.83044955904506
 31
0.0
  0
SPLINE
  5
153
330
1AA
100
AcDbEntity
  8
PCB
100
AcDbSpline
210
0.0
220
0.0
230
1.0
 70
     8
 71
     3
 72
     8
 73
     4
 74
     0
 42
0.000000001
 43
0.001
 40
0.0
 40
0.0
 40
0.0
 40
0.0
 40
1.0
 40
1.0
 40
1.0
 40
1.0
 10
69.2466070100088
 20
-36.32068256882576
 30
0.0
 10
69.2466070100088
 20
-36.96962523782207
 30
0.0
 10
68.72053585909975
 20
-37.49569638873118
 30
0.0
 10
68.07159319010339
 20
-37.49569638873118
 30
0.0
  0
SPLINE
  5
154
330
1AA
100
AcDbEntity
  8
PCB
100
AcDbSpline
210
0.0
220
0.0
230
1.0
 70
     8
 71
     3
 72
     8
 73
     4
 74
     0
 42
0.000000001
 43
0.001
 40
0.0
 40
0.0
 40
0.0
 40
0.0
 40
1.0
 40
1.0
 40
1.0
 40
1.0
 10
68.07159319010339
 20
-37.49569638873118
 30
0.0
 10
67.42265052110713
 20
-37.49569638873118
 30
0.0
 10
66.89657937019797
 20
-36.96962523782207
 30
0.0
 10
66.89657937019797
 20
-36.32068256882576
 30
0.0
  0
SPLINE
  5
155
330
1AA
100
AcDbEntity
  8
PCB
100
AcDbSpline
210
0.0
220
0.0
230
1.0
 70
     8
 71
     3
 72
     8
 73
     4
 74
     0
 42
0.000000001
 43
0.001
 40
0.0
 40
0.0
 40
0.0
 40
0.0
 40
1.0
 40
1.0
 40
1.0
 40
1.0
 10
66.89657937019797
 20
-36.32068256882576
 30
0.0
 10
66.89657937019797
 20
-35.67173989982945
 30
0.0
 10
67.42265052110713
 20
-35.14566874892034
 30
0.0
 10
68.07159319010339
 20
-35.14566874892034
 30
0.0
  0
SPLINE
  5
156
330
1AA
100
AcDbEntity
  8
PCB
100
AcDbSpline
210
0.0
220
0.0
230
1.0
 70
     8
 71
     3
 72
     8
 73
     4
 74
     0
 42
0.000000001
 43
0.001
 40
0.0
 40
0.0
 40
0.0
 40
0.0
 40
1.0
 40
1.0
 40
1.0
 40
1.0
 10
68.07159319010339
 20
-35.14566874892034
 30
0.0
 10
68.72053585909975
 20
-35.14566874892034
 30
0.0
 10
69.2466070100088
 20
-35.67173989982945
 30
0.0
 10
69.2466070100088
 20
-36.32068256882576
 30
0.0
  0
LINE
  5
157
330
1AA
100
AcDbEntity
  8
PCB
100
AcDbLine
 10
69.2466070100088
 20
-36.32068256882576
 30
0.0
 11
69.2466070100088
 21
-36.32068256882576
 31
0.0
  0
ARC
  5
158
330
1AA
100
AcDbEntity
  8
PCB
100
AcDbCircle
 10
75.18164875051696
 20
-35.20052830506552
 30
0.0
 40
0.775009607111511
100
AcDbArc
 50
270.0000043995325
 51
359.999995563662
  0
ARC
  5
159
330
1AA
100
AcDbEntity
  8
PCB
100
AcDbCircle
 10
75.18164886953718
 20
-35.20052830506552
 30
0.0
 40
0.7750096071128184
100
AcDbArc
 50
180.000004436338
 51
269.9999956004675
  0
ARC
  5
15A
330
1AA
100
AcDbEntity
  8
PCB
100
AcDbCircle
 10
75.18164886953718
 20
-35.20052842408313
 30
0.0
 40
0.7750096071115062
100
AcDbArc
 50
90.00000439953186
 51
179.999995563662
  0
ARC
  5
15B
330
1AA
100
AcDbEntity
  8
PCB
100
AcDbCircle
 10
75.18164875051696
 20
-35.20052842408319
 30
0.0
 40
0.7750096071128092
100
AcDbArc
 50
0.0000044363380004
 51
89.99999560046814
  0
LINE
  5
15C
330
1AA
100
AcDbEntity
  8
PCB
100
AcDbLine
 10
75.95665835762975
 20
-35.20052836457432
 30
0.0
 11
75.95665835762975
 21
-35.20052836457432
 31
0.0
  0
ARC
  5
15D
330
1AA
100
AcDbEntity
  8
PCB
100
AcDbCircle
 10
75.18164875051696
 20
-21.95047467015144
 30
0.0
 40
0.775009607111511
100
AcDbArc
 50
270.0000043995318
 51
359.999995563662
  0
ARC
  5
15E
330
1AA
100
AcDbEntity
  8
PCB
100
AcDbCircle
 10
75.18164886953718
 20
-21.95047467015144
 30
0.0
 40
0.7750096071128092
100
AcDbArc
 50
180.000004436338
 51
269.9999956004681
  0
ARC
  5
15F
330
1AA
100
AcDbEntity
  8
PCB
100
AcDbCircle
 10
75.18164870693295
 20
-21.95047462656493
 30
0.0
 40
0.7750094445073173
100
AcDbArc
 50
89.99999237833858
 51
180.0000076839628
  0
ARC
  5
160
330
1AA
100
AcDbEntity
  8
PCB
100
AcDbCircle
 10
75.1816489131212
 20
-21.95047462656493
 30
0.0
 40
0.7750094445085233
100
AcDbArc
 50
359.9999924114938
 51
90.0000076216621
  0
LINE
  5
161
330
1AA
100
AcDbEntity
  8
PCB
100
AcDbLine
 10
75.95665835762975
 20
-21.9504747296603
 30
0.0
 11
75.95665835762975
 21
-21.9504747296603
 31
0.0
  0
ARC
  5
162
330
1AA
100
AcDbEntity
  8
PCB
100
AcDbCircle
 10
75.18164875051684
 20
-24.49048249502908
 30
0.0
 40
0.775009607111511
100
AcDbArc
 50
270.0000043995332
 51
359.999995563662
  0
ARC
  5
163
330
1AA
100
AcDbEntity
  8
PCB
100
AcDbCircle
 10
75.18164886953718
 20
-24.49048249502908
 30
0.0
 40
0.7750096071128092
100
AcDbArc
 50
180.000004436338
 51
269.9999956004681
  0
ARC
  5
164
330
1AA
100
AcDbEntity
  8
PCB
100
AcDbCircle
 10
75.18164886953718
 20
-24.49048261404675
 30
0.0
 40
0.7750096071115062
100
AcDbArc
 50
90.00000439953186
 51
179.999995563662
  0
ARC
  5
165
330
1AA
100
AcDbEntity
  8
PCB
100
AcDbCircle
 10
75.18164875051696
 20
-24.49048261404675
 30
0.0
 40
0.7750096071128092
100
AcDbArc
 50
0.0000044363380004
 51
89.99999560046814
  0
LINE
  5
166
330
1AA
100
AcDbEntity
  8
PCB
100
AcDbLine
 10
75.95665835762975
 20
-24.49048255453795
 30
0.0
 11
75.95665835762975
 21
-24.49048255453795
 31
0.0
  0
ARC
  5
167
330
1AA
100
AcDbEntity
  8
PCB
100
AcDbCircle
 10
75.18164875051696
 20
-32.38566461084463
 30
0.0
 40
0.7750096071115202
100
AcDbArc
 50
270.0000043995325
 51
359.999995563662
  0
ARC
  5
168
330
1AA
100
AcDbEntity
  8
PCB
100
AcDbCircle
 10
75.18164886953718
 20
-32.38566461084463
 30
0.0
 40
0.7750096071128092
100
AcDbArc
 50
180.000004436338
 51
269.9999956004681
  0
ARC
  5
169
330
1AA
100
AcDbEntity
  8
PCB
100
AcDbCircle
 10
75.18164886953718
 20
-32.3856647298623
 30
0.0
 40
0.775009607111511
100
AcDbArc
 50
90.00000439953254
 51
179.999995563662
  0
ARC
  5
16A
330
1AA
100
AcDbEntity
  8
PCB
100
AcDbCircle
 10
75.18164875051696
 20
-32.3856647298623
 30
0.0
 40
0.7750096071128184
100
AcDbArc
 50
0.0000044363380004
 51
89.99999560046744
  0
LINE
  5
16B
330
1AA
100
AcDbEntity
  8
PCB
100
AcDbLine
 10
75.95665835762975
 20
-32.38566467035344
 30
0.0
 11
75.95665835762975
 21
-32.38566467035344
 31
0.0
  0
LINE
  5
16C
330
1AA
100
AcDbEntity
  8
PCB
100
AcDbLine
 10
76.8359743279027
 20
-5.31882744603729
 30
0.0
 11
77.43542192927077
 21
-5.31882744603729
 31
0.0
  0
LINE
  5
16D
330
1AA
100
AcDbEntity
  8
PCB
100
AcDbLine
 10
76.8359743279027
 20
-3.568745253907537
 30
0.0
 11
77.43542192927077
 21
-3.568745253907537
 31
0.0
  0
LINE
  5
16E
330
1AA
100
AcDbEntity
  8
PCB
100
AcDbLine
 10
76.8359743279027
 20
-1.943124640027975
 30
0.0
 11
77.43542192927077
 21
-1.943124640027975
 31
0.0
  0
LINE
  5
16F
330
1AA
100
AcDbEntity
  8
PCB
100
AcDbLine
 10
76.8359743279027
 20
-6.944448059916908
 30
0.0
 11
77.43542192927077
 21
-6.944448059916908
 31
0.0
  0
ARC
  5
170
330
1AA
100
AcDbEntity
  8
PCB
100
AcDbCircle
 10
74.57661602385429
 20
-7.945296789319741
 30
0.0
 40
0.8250097356172402
100
AcDbArc
 50
269.999975969159
 51
0.0000240121466403
  0
ARC
  5
171
330
1AA
100
AcDbEntity
  8
PCB
100
AcDbCircle
 10
74.5766153318076
 20
-7.945296789319741
 30
0.0
 40
0.8250097356172196
100
AcDbArc
 50
179.9999759575158
 51
270.0000240308425
  0
ARC
  5
172
330
1AA
100
AcDbEntity
  8
PCB
100
AcDbCircle
 10
74.576615169202
 20
-7.945295934668025
 30
0.0
 40
0.8250095730123411
100
AcDbArc
 50
89.9999646764214
 51
180.000035326013
  0
ARC
  5
173
330
1AA
100
AcDbEntity
  8
PCB
100
AcDbCircle
 10
74.57661618645989
 20
-7.945295934668025
 30
0.0
 40
0.8250095730117751
100
AcDbArc
 50
359.9999646739869
 51
90.00003532357732
  0
LINE
  5
174
330
1AA
100
AcDbEntity
  8
PCB
100
AcDbLine
 10
75.40162575947147
 20
-7.945296443296343
 30
0.0
 11
75.40162575947147
 21
-7.945296443296343
 31
0.0
  0
ARC
  5
175
330
1AA
100
AcDbEntity
  8
PCB
100
AcDbCircle
 10
74.57661602385451
 20
-0.9451971317060384
 30
0.0
 40
0.8250097356171635
100
AcDbArc
 50
269.9999759691461
 51
0.0000240121466403
  0
ARC
  5
176
330
1AA
100
AcDbEntity
  8
PCB
100
AcDbCircle
 10
74.57661533180737
 20
-0.9451971317060952
 30
0.0
 40
0.8250097356170346
100
AcDbArc
 50
179.9999759575158
 51
270.0000240308552
  0
ARC
  5
177
330
1AA
100
AcDbEntity
  8
PCB
100
AcDbCircle
 10
74.57661516920189
 20
-0.9451962770540376
 30
0.0
 40
0.8250095730121045
100
AcDbArc
 50
89.99996467640983
 51
180.000035326013
  0
ARC
  5
178
330
1AA
100
AcDbEntity
  8
PCB
100
AcDbCircle
 10
74.57661618646
 20
-0.9451962770540376
 30
0.0
 40
0.8250095730116271
100
AcDbArc
 50
359.9999646739869
 51
90.0000353235876
  0
LINE
  5
179
330
1AA
100
AcDbEntity
  8
PCB
100
AcDbLine
 10
75.40162575947147
 20
-0.94519678568264
 30
0.0
 11
75.40162575947147
 21
-0.94519678568264
 31
0.0
  0
LINE
  5
17A
330
1AA
100
AcDbEntity
  8
PCB
100
AcDbLine
 10
73.2748491706227
 20
-11.57492677726458
 30
0.0
 11
72.72620221343834
 21
-11.57492677726458
 31
0.0
  0
LINE
  5
17B
330
1AA
100
AcDbEntity
  8
PCB
100
AcDbLine
 10
73.2748491706227
 20
-13.17514706905229
 30
0.0
 11
72.72620221343834
 21
-13.17514706905229
 31
0.0
  0
LINE
  5
17C
330
1AA
100
AcDbEntity
  8
PCB
100
AcDbLine
 10
73.2748491706227
 20
-14.77536736083999
 30
0.0
 11
72.72620221343834
 21
-14.77536736083999
 31
0.0
  0
LINE
  5
17D
330
1AA
100
AcDbEntity
  8
PCB
100
AcDbLine
 10
74.87506946241035
 20
-12.3750369231584
 30
0.0
 11
74.3264225052261
 21
-12.3750369231584
 31
0.0
  0
LINE
  5
17E
330
1AA
100
AcDbEntity
  8
PCB
100
AcDbLine
 10
74.87506946241035
 20
-13.97525721494617
 30
0.0
 11
74.3264225052261
 21
-13.97525721494617
 31
0.0
  0
ARC
  5
17F
330
1AA
100
AcDbEntity
  8
PCB
100
AcDbCircle
 10
77.6515773360544
 20
-16.82540036833035
 30
0.0
 40
0.8250114158606768
100
AcDbArc
 50
270.0000926594112
 51
359.9999249795747
  0
ARC
  5
180
330
1AA
100
AcDbEntity
  8
PCB
100
AcDbCircle
 10
77.65157837845197
 20
-16.82540199437057
 30
0.0
 40
0.8250097898200853
100
AcDbArc
 50
179.9999620862973
 51
270.0000202665349
  0
ARC
  5
181
330
1AA
100
AcDbEntity
  8
PCB
100
AcDbCircle
 10
77.65157832424916
 20
-16.82540110252285
 30
0.0
 40
0.8250097356172332
100
AcDbArc
 50
89.99997596915632
 51
180.0000240424842
  0
ARC
  5
182
330
1AA
100
AcDbEntity
  8
PCB
100
AcDbCircle
 10
77.65157739025415
 20
-16.82540272856454
 30
0.0
 40
0.8250113616599167
100
AcDbArc
 50
0.0000888909169664
 51
89.99991110467609
  0
LINE
  5
183
330
1AA
100
AcDbEntity
  8
PCB
100
AcDbLine
 10
78.47658875191303
 20
-16.82540144854619
 30
0.0
 11
78.47658875191303
 21
-16.82540144854619
 31
0.0
  0
ARC
  5
184
330
1AA
100
AcDbEntity
  8
PCB
100
AcDbCircle
 10
78.85174255489517
 20
-16.82540036833035
 30
0.0
 40
0.8250114158606768
100
AcDbArc
 50
270.0000926594112
 51
359.9999249795747
  0
ARC
  5
185
330
1AA
100
AcDbEntity
  8
PCB
100
AcDbCircle
 10
78.85174359729274
 20
-16.82540199437057
 30
0.0
 40
0.8250097898201036
100
AcDbArc
 50
179.9999621055282
 51
270.0000202665336
  0
LWPOLYLINE
  5
187
330
1AA
100
AcDbEntity
  8
cut
100
AcDbPolyline
 90
        4
 70
     1
 43
0.0
 10
9.399999999999999
 20
-1.8
 10
11.0
 20
-1.8
 10
11.0
 20
-11.0
 10
9.399999999999999
 20
-11.0
  0
LWPOLYLINE
  5
188
330
1AA
100
AcDbEntity
  8
cut
100
AcDbPolyline
 90
        4
 70
     1
 43
0.0
 10
6.8
 20
-25.2
 10
8.399999999999999
 20
-25.2
 10
8.399999999999999
 20
-29.4
 10
6.8
 20
-29.4
  0
LWPOLYLINE
  5
189
330
1AA
100
AcDbEntity
  8
cut
100
AcDbPolyline
 90
        4
 70
     1
 43
0.0
 10
6.8
 20
-36.0
 10
6.8
 20
-42.7
 10
31.3
 20
-42.7
 10
31.3
 20
-36.0
  0
LWPOLYLINE
  5
18A
330
1AA
100
AcDbEntity
  8
cut
100
AcDbPolyline
 90
       10
 70
     1
 43
0.0
 10
76.0
 20
-36.0
 10
68.0
 20
-38.0
 10
61.0
 20
-33.0
 10
61.0
 20
-23.0
 10
68.0
 20
-19.0
 10
76.0
 20
-21.0
 10
76.0
 20
-26.0
 10
66.0
 20
-26.0
 10
66.0
 20
-31.0
 10
76.0
 20
-31.0
  0
LWPOLYLINE
  5
18B
330
1AA
100
AcDbEntity
  8
cut
100
AcDbPolyline
 90
        7
 70
     1
 43
0.0
 10
80.0
 20
-18.0
 10
77.0
 20
-18.0
 10
72.0
 20
-15.0
 10
72.0
 20
-11.0
 10
73.0
 20
-10.0
 10
73.0
 20
0.0
 10
80.00085446054948
 20
0.0
  0
ENDSEC
  0
SECTION
  2
OBJECTS
  0
DICTIONARY
  5
198
330
0
100
AcDbDictionary
281
     1
  3
ACAD_DETAILVIEWSTYLE
350
23B
  3
ACAD_GROUP
350
199
  3
ACAD_LAYOUT
350
1A5
  3
ACAD_MATERIAL
350
1CE
  3
ACAD_MLEADERSTYLE
350
23A
  3
ACAD_MLINESTYLE
350
1A2
  3
ACAD_PLOTSETTINGS
350
1A4
  3
ACAD_PLOTSTYLENAME
350
19A
  3
ACAD_SCALELIST
350
1D2
  3
ACAD_SECTIONVIEWSTYLE
350
23C
  3
ACAD_TABLESTYLE
350
239
  3
ACAD_VISUALSTYLE
350
1B5
  3
AcDbVariableDictionary
350
237
  3
QCAD_OBJECTS
350
1F6
  0
SUN
  5
1F4
330
1B4
100
AcDbSun
 90
        1
290
     0
 63
     7
421
 16777215
 40
1.0
291
     1
 91
  2455826
 92
 54000000
292
     0
 70
     2
 71
   256
280
     1
  0
DICTIONARY
  5
23B
102
{ACAD_REACTORS
330
198
102
}
330
198
100
AcDbDictionary
281
     1
  0
DICTIONARY
  5
199
102
{ACAD_REACTORS
330
198
102
}
330
198
100
AcDbDictionary
281
     1
  0
DICTIONARY
  5
1A5
102
{ACAD_REACTORS
330
198
102
}
330
198
100
AcDbDictionary
281
     1
  3
Layout1
350
1A9
  3
Layout2
350
1B1
  3
Model
350
1AD
  0
DICTIONARY
  5
1CE
102
{ACAD_REACTORS
330
198
102
}
330
198
100
AcDbDictionary
281
     1
  3
ByBlock
350
1D0
  3
ByLayer
350
1CF
  3
Global
350
1D1
  0
DICTIONARY
  5
23A
102
{ACAD_REACTORS
330
198
102
}
330
198
100
AcDbDictionary
281
     1
  0
DICTIONARY
  5
1A2
102
{ACAD_REACTORS
330
198
102
}
330
198
100
AcDbDictionary
281
     1
  3
Standard
350
1A3
  0
DICTIONARY
  5
1A4
102
{ACAD_REACTORS
330
198
102
}
330
198
100
AcDbDictionary
281
     1
  0
ACDBDICTIONARYWDFLT
  5
19A
102
{ACAD_REACTORS
330
198
102
}
330
198
100
AcDbDictionary
281
     1
  3
Normal
350
19B
100
AcDbDictionaryWithDefault
340
19B
  0
DICTIONARY
  5
1D2
102
{ACAD_REACTORS
330
198
102
}
330
198
100
AcDbDictionary
281
     1
  3
A0
350
1D3
  3
A1
350
1D4
  3
A2
350
1D5
  3
A3
350
1D6
  3
A4
350
1D7
  3
A5
350
1D8
  3
A6
350
1D9
  3
A7
350
1DA
  3
A8
350
1DB
  3
A9
350
1DC
  3
B0
350
1DD
  3
B1
350
1DE
  3
B2
350
1DF
  3
B3
350
1E0
  3
B4
350
1E1
  3
B5
350
1E2
  3
B6
350
1E3
  3
B7
350
1E4
  3
B8
350
1E5
  3
B9
350
1E6
  3
C0
350
1E7
  3
C1
350
1E8
  3
C2
350
1E9
  3
C3
350
1EA
  3
C4
350
1EB
  3
C5
350
1EC
  3
C6
350
1ED
  3
C7
350
1EE
  3
C8
350
1EF
  3
C9
350
1F0
  3
D0
350
1F1
  3
D1
350
1F2
  3
D2
350
1F3
  0
DICTIONARY
  5
23C
102
{ACAD_REACTORS
330
198
102
}
330
198
100
AcDbDictionary
281
     1
  0
DICTIONARY
  5
239
102
{ACAD_REACTORS
330
198
102
}
330
198
100
AcDbDictionary
281
     1
  0
DICTIONARY
  5
1B5
102
{ACAD_REACTORS
330
198
102
}
330
198
100
AcDbDictionary
281
     1
  3
2dWireframe
350
1BA
  3
Basic
350
1BD
  3
Brighten
350
1C1
  3
ColorChange
350
1C5
  3
Conceptual
350
1BF
  3
Dim
350
1C0
  3
EdgeColorOff
350
1C8
  3
Facepattern
350
1C4
  3
Flat
350
1B6
  3
FlatWithEdges
350
1B7
  3
Gouraud
350
1B8
  3
GouraudWithEdges
350
1B9
  3
Hidden
350
1BC
  3
JitterOff
350
1C6
  3
Linepattern
350
1C3
  3
OverhangOff
350
1C7
  3
Realistic
350
1BE
  3
Shaded
350
1CD
  3
Shaded with edges
350
1CC
  3
Shades of Gray
350
1C9
  3
Sketchy
350
1CA
  3
Thicken
350
1C2
  3
Wireframe
350
1BB
  3
X-Ray
350
1CB
  0
DICTIONARY
  5
237
102
{ACAD_REACTORS
330
198
102
}
330
198
100
AcDbDictionary
281
     1
  3
CANNOSCALE
350
238
  0
DICTIONARY
  5
1F6
102
{ACAD_REACTORS
330
198
102
}
330
198
100
AcDbDictionary
281
     1
  3
Grid/DisplayGrid00
350
1F7
  3
Grid/DisplayGrid01
350
1F8
  3
Grid/DisplayGrid02
350
1F9
  3
Grid/DisplayGrid03
350
1FA
  3
Grid/GridSpacingX00
350
1FB
  3
Grid/GridSpacingX01
350
1FC
  3
Grid/GridSpacingX02
350
1FD
  3
Grid/GridSpacingX03
350
1FE
  3
Grid/GridSpacingY00
350
1FF
  3
Grid/GridSpacingY01
350
200
  3
Grid/GridSpacingY02
350
201
  3
Grid/GridSpacingY03
350
202
  3
Grid/IsometricGrid00
350
203
  3
Grid/IsometricGrid01
350
204
  3
Grid/IsometricGrid02
350
205
  3
Grid/IsometricGrid03
350
206
  3
Grid/IsometricProjection00
350
207
  3
Grid/IsometricProjection01
350
208
  3
Grid/IsometricProjection02
350
209
  3
Grid/IsometricProjection03
350
20A
  3
Grid/MetaGridSpacingX00
350
20B
  3
Grid/MetaGridSpacingX01
350
20C
  3
Grid/MetaGridSpacingX02
350
20D
  3
Grid/MetaGridSpacingX03
350
20E
  3
Grid/MetaGridSpacingY00
350
20F
  3
Grid/MetaGridSpacingY01
350
210
  3
Grid/MetaGridSpacingY02
350
211
  3
Grid/MetaGridSpacingY03
350
212
  3
MultiPageSettings/Columns
350
213
  3
MultiPageSettings/GlueMarginsBottom
350
214
  3
MultiPageSettings/GlueMarginsLeft
350
215
  3
MultiPageSettings/GlueMarginsRight
350
216
  3
MultiPageSettings/GlueMarginsTop
350
217
  3
MultiPageSettings/PrintCropMarks
350
218
  3
MultiPageSettings/Rows
350
219
  3
PageSettings/OffsetX
350
21A
  3
PageSettings/OffsetY
350
21B
  3
PageSettings/PageOrientation
350
21C
  3
PageSettings/PaperHeight
350
21D
  3
PageSettings/PaperWidth
350
21E
  3
PageSettings/Scale
350
21F
  3
PageSettings/ShowPaperBorders
350
220
  3
UnitSettings/PaperUnit
350
221
  0
LAYOUT
  5
1A9
102
{ACAD_REACTORS
330
1A5
102
}
330
1A5
100
AcDbPlotSettings
  1

  2
none_device
  4

  6

 40
0.0
 41
0.0
 42
0.0
 43
0.0
 44
0.0
 45
0.0
 46
0.0
 47
0.0
 48
0.0
 49
0.0
140
0.0
141
0.0
142
1.0
143
1.0
 70
   688
 72
     0
 73
     0
 74
     5
  7

 75
    16
 76
     0
 77
     2
 78
   300
147
1.0
148
0.0
149
0.0
100
AcDbLayout
  1
Layout1
 70
     1
 71
     1
 10
0.0
 20
0.0
 11
12.0
 21
9.0
 12
0.0
 22
0.0
 32
0.0
 14
1.000000000000000E+20
 24
1.000000000000000E+20
 34
1.000000000000000E+20
 15
-1.000000000000000E+20
 25
-1.000000000000000E+20
 35
-1.000000000000000E+20
146
0.0
 13
0.0
 23
0.0
 33
0.0
 16
1.0
 26
0.0
 36
0.0
 17
0.0
 27
1.0
 37
0.0
 76
     0
330
1A6
  0
LAYOUT
  5
1B1
102
{ACAD_REACTORS
330
1A5
102
}
330
1A5
100
AcDbPlotSettings
  1

  2
none_device
  4

  6

 40
0.0
 41
0.0
 42
0.0
 43
0.0
 44
0.0
 45
0.0
 46
0.0
 47
0.0
 48
0.0
 49
0.0
140
0.0
141
0.0
142
1.0
143
1.0
 70
   688
 72
     0
 73
     0
 74
     5
  7

 75
    16
 76
     0
 77
     2
 78
   300
147
1.0
148
0.0
149
0.0
100
AcDbLayout
  1
Layout2
 70
     1
 71
     2
 10
0.0
 20
0.0
 11
0.0
 21
0.0
 12
0.0
 22
0.0
 32
0.0
 14
0.0
 24
0.0
 34
0.0
 15
0.0
 25
0.0
 35
0.0
146
0.0
 13
0.0
 23
0.0
 33
0.0
 16
1.0
 26
0.0
 36
0.0
 17
0.0
 27
1.0
 37
0.0
 76
     0
330
1AE
  0
LAYOUT
  5
1AD
102
{ACAD_REACTORS
330
1A5
102
}
330
1A5
100
AcDbPlotSettings
  1

  2
none_device
  4
Letter_(8.50_x_11.00_Inches)
  6

 40
6.35
 41
6.35
 42
6.35000508
 43
6.35000508
 44
215.9
 45
279.4
 46
0.0
 47
0.0
 48
0.0
 49
0.0
140
0.0
141
0.0
142
1.0
143
1.0
 70
  1712
 72
     0
 73
     0
 74
     0
  7

 75
     0
 76
     0
 77
     2
 78
   300
147
1.0
148
0.0
149
0.0
100
AcDbLayout
  1
Model
 70
     1
 71
     0
 10
0.0
 20
0.0
 11
12.0
 21
9.0
 12
0.0
 22
0.0
 32
0.0
 14
1.000000000000000E+20
 24
1.000000000000000E+20
 34
1.000000000000000E+20
 15
-1.000000000000000E+20
 25
-1.000000000000000E+20
 35
-1.000000000000000E+20
146
0.0
 13
0.0
 23
0.0
 33
0.0
 16
1.0
 26
0.0
 36
0.0
 17
0.0
 27
1.0
 37
0.0
 76
     0
330
1AA
331
1B4
  0
MATERIAL
  5
1D0
102
{ACAD_REACTORS
330
1CE
102
}
330
1CE
100
AcDbMaterial
  1
ByBlock
 72
     1
 94
      127
  0
MATERIAL
  5
1CF
102
{ACAD_REACTORS
330
1CE
102
}
330
1CE
100
AcDbMaterial
  1
ByLayer
 72
     1
 94
      127
  0
MATERIAL
  5
1D1
102
{ACAD_REACTORS
330
1CE
102
}
330
1CE
100
AcDbMaterial
  1
Global
 72
     1
 94
      127
  0
MLINESTYLE
  5
1A3
102
{ACAD_REACTORS
330
1A2
102
}
330
1A2
100
AcDbMlineStyle
  2
Standard
 70
     0
  3

 62
   256
 51
90.0
 52
90.0
 71
     2
 49
0.5
 62
   256
  6
BYLAYER
 49
-0.5
 62
   256
  6
BYLAYER
  0
ACDBPLACEHOLDER
  5
19B
102
{ACAD_REACTORS
330
19A
102
}
330
19A
  0
SCALE
  5
1D3
102
{ACAD_REACTORS
330
1D2
102
}
330
1D2
100
AcDbScale
 70
     0
300
1:1
140
1.0
141
1.0
290
     1
  0
SCALE
  5
1D4
102
{ACAD_REACTORS
330
1D2
102
}
330
1D2
100
AcDbScale
 70
     0
300
1:2
140
1.0
141
2.0
290
     0
  0
SCALE
  5
1D5
102
{ACAD_REACTORS
330
1D2
102
}
330
1D2
100
AcDbScale
 70
     0
300
1:4
140
1.0
141
4.0
290
     0
  0
SCALE
  5
1D6
102
{ACAD_REACTORS
330
1D2
102
}
330
1D2
100
AcDbScale
 70
     0
300
1:5
140
1.0
141
5.0
290
     0
  0
SCALE
  5
1D7
102
{ACAD_REACTORS
330
1D2
102
}
330
1D2
100
AcDbScale
 70
     0
300
1:8
140
1.0
141
8.0
290
     0
  0
SCALE
  5
1D8
102
{ACAD_REACTORS
330
1D2
102
}
330
1D2
100
AcDbScale
 70
     0
300
1:10
140
1.0
141
10.0
290
     0
  0
SCALE
  5
1D9
102
{ACAD_REACTORS
330
1D2
102
}
330
1D2
100
AcDbScale
 70
     0
300
1:16
140
1.0
141
16.0
290
     0
  0
SCALE
  5
1DA
102
{ACAD_REACTORS
330
1D2
102
}
330
1D2
100
AcDbScale
 70
     0
300
1:20
140
1.0
141
20.0
290
     0
  0
SCALE
  5
1DB
102
{ACAD_REACTORS
330
1D2
102
}
330
1D2
100
AcDbScale
 70
     0
300
1:30
140
1.0
141
30.0
290
     0
  0
SCALE
  5
1DC
102
{ACAD_REACTORS
330
1D2
102
}
330
1D2
100
AcDbScale
 70
     0
300
1:40
140
1.0
141
40.0
290
     0
  0
SCALE
  5
1DD
102
{ACAD_REACTORS
330
1D2
102
}
330
1D2
100
AcDbScale
 70
     0
300
1:50
140
1.0
141
50.0
290
     0
  0
SCALE
  5
1DE
102
{ACAD_REACTORS
330
1D2
102
}
330
1D2
100
AcDbScale
 70
     0
300
1:100
140
1.0
141
100.0
290
     0
  0
SCALE
  5
1DF
102
{ACAD_REACTORS
330
1D2
102
}
330
1D2
100
AcDbScale
 70
     0
300
2:1
140
2.0
141
1.0
290
     0
  0
SCALE
  5
1E0
102
{ACAD_REACTORS
330
1D2
102
}
330
1D2
100
AcDbScale
 70
     0
300
4:1
140
4.0
141
1.0
290
     0
  0
SCALE
  5
1E1
102
{ACAD_REACTORS
330
1D2
102
}
330
1D2
100
AcDbScale
 70
     0
300
8:1
140
8.0
141
1.0
290
     0
  0
SCALE
  5
1E2
102
{ACAD_REACTORS
330
1D2
102
}
330
1D2
100
AcDbScale
 70
     0
300
10:1
140
10.0
141
1.0
290
     0
  0
SCALE
  5
1E3
102
{ACAD_REACTORS
330
1D2
102
}
330
1D2
100
AcDbScale
 70
     0
300
100:1
140
100.0
141
1.0
290
     0
  0
SCALE
  5
1E4
102
{ACAD_REACTORS
330
1D2
102
}
330
1D2
100
AcDbScale
 70
     0
300
1/128" = 1'-0"
140
0.0078125
141
12.0
290
     0
  0
SCALE
  5
1E5
102
{ACAD_REACTORS
330
1D2
102
}
330
1D2
100
AcDbScale
 70
     0
300
1/64" = 1'-0"
140
0.015625
141
12.0
290
     0
  0
SCALE
  5
1E6
102
{ACAD_REACTORS
330
1D2
102
}
330
1D2
100
AcDbScale
 70
     0
300
1/32" = 1'-0"
140
0.03125
141
12.0
290
     0
  0
SCALE
  5
1E7
102
{ACAD_REACTORS
330
1D2
102
}
330
1D2
100
AcDbScale
 70
     0
300
1/16" = 1'-0"
140
0.0625
141
12.0
290
     0
  0
SCALE
  5
1E8
102
{ACAD_REACTORS
330
1D2
102
}
330
1D2
100
AcDbScale
 70
     0
300
3/32" = 1'-0"
140
0.09375
141
12.0
290
     0
  0
SCALE
  5
1E9
102
{ACAD_REACTORS
330
1D2
102
}
330
1D2
100
AcDbScale
 70
     0
300
1/8" = 1'-0"
140
0.125
141
12.0
290
     0
  0
SCALE
  5
1EA
102
{ACAD_REACTORS
330
1D2
102
}
330
1D2
100
AcDbScale
 70
     0
300
3/16" = 1'-0"
140
0.1875
141
12.0
290
     0
  0
SCALE
  5
1EB
102
{ACAD_REACTORS
330
1D2
102
}
330
1D2
100
AcDbScale
 70
     0
300
1/4" = 1'-0"
140
0.25
141
12.0
290
     0
  0
SCALE
  5
1EC
102
{ACAD_REACTORS
330
1D2
102
}
330
1D2
100
AcDbScale
 70
     0
300
3/8" = 1'-0"
140
0.375
141
12.0
290
     0
  0
SCALE
  5
1ED
102
{ACAD_REACTORS
330
1D2
102
}
330
1D2
100
AcDbScale
 70
     0
300
1/2" = 1'-0"
140
0.5
141
12.0
290
     0
  0
SCALE
  5
1EE
102
{ACAD_REACTORS
330
1D2
102
}
330
1D2
100
AcDbScale
 70
     0
300
3/4" = 1'-0"
140
0.75
141
12.0
290
     0
  0
SCALE
  5
1EF
102
{ACAD_REACTORS
330
1D2
102
}
330
1D2
100
AcDbScale
 70
     0
300
1" = 1'-0"
140
1.0
141
12.0
290
     0
  0
SCALE
  5
1F0
102
{ACAD_REACTORS
330
1D2
102
}
330
1D2
100
AcDbScale
 70
     0
300
1-1/2" = 1'-0"
140
1.5
141
12.0
290
     0
  0
SCALE
  5
1F1
102
{ACAD_REACTORS
330
1D2
102
}
330
1D2
100
AcDbScale
 70
     0
300
3" = 1'-0"
140
3.0
141
12.0
290
     0
  0
SCALE
  5
1F2
102
{ACAD_REACTORS
330
1D2
102
}
330
1D2
100
AcDbScale
 70
     0
300
6" = 1'-0"
140
6.0
141
12.0
290
     0
  0
SCALE
  5
1F3
102
{ACAD_REACTORS
330
1D2
102
}
330
1D2
100
AcDbScale
 70
     0
300
1'-0" = 1'-0"
140
12.0
141
12.0
290
     0
  0
VISUALSTYLE
  5
1BA
102
{ACAD_REACTORS
330
1B5
102
}
330
1B5
100
AcDbVisualStyle
  2
2dWireframe
 70
     4
177
     3
291
     0
 70
    58
 90
        0
176
     1
 90
        2
176
     1
 90
        0
176
     1
 90
        0
176
     1
 40
0.6
176
     1
 40
30.0
176
     1
 62
     7
420
 16777215
176
     1
 90
        1
176
     1
 90
        4
176
     1
 62
     7
176
     1
 62
   257
176
     1
 90
        1
176
     1
 90
        1
176
     1
 40
1.0
176
     1
 90
        0
176
     1
 62
   257
176
     1
 40
1.0
176
     1
 90
        1
176
     1
 90
        6
176
     1
 90
        2
176
     1
 62
     7
176
     1
 90
        5
176
     1
 90
        0
176
     1
 90
        0
176
     1
290
     0
176
     1
 90
        1
176
     1
 40
0.0
176
     1
 90
        0
176
     1
290
     1
176
     1
290
     1
176
     1
290
     0
176
     1
290
     0
176
     1
290
     0
176
     1
290
     0
176
     1
290
     0
176
     1
290
     0
176
     1
290
     0
176
     1
 90
       50
176
     1
 40
0.0
176
     1
 40
1.0
176
     1
 90
        0
176
     1
 62
   178
420
        0
176
     1
 90
       50
176
     1
 90
        3
176
     1
 62
     5
420
      255
176
     1
290
     0
176
     1
 90
       50
176
     1
 90
       50
176
     1
 90
       50
176
     1
290
     0
176
     1
 90
       50
176
     1
 62
   256
176
     0
 40
1.0
176
     0
 90
        2
176
     1
  1
strokes_ogs.tif
176
     1
290
     0
176
     1
 40
1.0
176
     1
 40
1.0
176
     1
  0
VISUALSTYLE
  5
1BD
102
{ACAD_REACTORS
330
1B5
102
}
330
1B5
100
AcDbVisualStyle
  2
Basic
 70
     7
177
     3
291
     1
 70
    58
 90
        1
176
     1
 90
        0
176
     1
 90
        1
176
     1
 90
        0
176
     1
 40
0.6
176
     1
 40
30.0
176
     1
 62
     7
420
 16777215
176
     1
 90
        0
176
     1
 90
        4
176
     1
 62
     7
176
     1
 62
   257
176
     1
 90
        1
176
     1
 90
        1
176
     1
 40
1.0
176
     1
 90
        8
176
     1
 62
     7
176
     1
 40
1.0
176
     1
 90
        1
176
     1
 90
        6
176
     1
 90
        2
176
     1
 62
     7
176
     1
 90
        5
176
     1
 90
        0
176
     1
 90
        0
176
     1
290
     0
176
     1
 90
        1
176
     1
 40
0.0
176
     1
 90
        0
176
     1
290
     0
176
     1
290
     1
176
     1
290
     1
176
     1
290
     0
176
     1
290
     0
176
     1
290
     0
176
     1
290
     0
176
     1
290
     0
176
     1
290
     0
176
     1
 90
       50
176
     1
 40
0.0
176
     1
 40
1.0
176
     1
 90
        0
176
     1
 62
   178
420
        0
176
     1
 90
       50
176
     1
 90
        3
176
     1
 62
     5
420
      255
176
     1
290
     0
176
     1
 90
       50
176
     1
 90
       50
176
     1
 90
       50
176
     1
290
     0
176
     1
 90
       50
176
     1
 62
   256
176
     0
 40
1.0
176
     0
 90
        2
176
     1
  1
strokes_ogs.tif
176
     1
290
     0
176
     1
 40
1.0
176
     1
 40
1.0
176
     1
  0
VISUALSTYLE
  5
1C1
102
{ACAD_REACTORS
330
1B5
102
}
330
1B5
100
AcDbVisualStyle
  2
Brighten
 70
    12
177
     3
291
     1
 70
    58
 90
        2
176
     1
 90
        2
176
     1
 90
        0
176
     1
 90
        0
176
     1
 40
0.6
176
     1
 40
30.0
176
     1
 62
     7
420
 16777215
176
     1
 90
        1
176
     1
 90
        4
176
     1
 62
     7
176
     1
 62
   257
176
     1
 90
        1
176
     1
 90
        1
176
     1
 40
1.0
176
     1
 90
        8
176
     1
 62
     7
176
     1
 40
1.0
176
     1
 90
        1
176
     1
 90
        6
176
     1
 90
        2
176
     1
 62
     7
176
     1
 90
        5
176
     1
 90
        0
176
     1
 90
        0
176
     1
290
     0
176
     1
 90
        1
176
     1
 40
50.0
176
     1
 90
        0
176
     1
290
     0
176
     1
290
     1
176
     1
290
     1
176
     1
290
     0
176
     1
290
     0
176
     1
290
     0
176
     1
290
     0
176
     1
290
     0
176
     1
290
     0
176
     1
 90
       50
176
     1
 40
0.0
176
     1
 40
1.0
176
     1
 90
        0
176
     1
 62
   178
420
        0
176
     1
 90
       50
176
     1
 90
        3
176
     1
 62
     5
420
      255
176
     1
290
     0
176
     1
 90
       50
176
     1
 90
       50
176
     1
 90
       50
176
     1
290
     0
176
     1
 90
       50
176
     1
 62
   256
176
     0
 40
1.0
176
     0
 90
        2
176
     1
  1
strokes_ogs.tif
176
     1
290
     0
176
     1
 40
1.0
176
     1
 40
1.0
176
     1
  0
VISUALSTYLE
  5
1C5
102
{ACAD_REACTORS
330
1B5
102
}
330
1B5
100
AcDbVisualStyle
  2
ColorChange
 70
    16
177
     3
291
     1
 70
    58
 90
        2
176
     1
 90
        2
176
     1
 90
        3
176
     1
 90
        0
176
     1
 40
0.6
176
     1
 40
30.0
176
     1
 62
     8
420
  8421504
176
     1
 90
        1
176
     1
 90
        4
176
     1
 62
     7
176
     1
 62
   257
176
     1
 90
        1
176
     1
 90
        1
176
     1
 40
1.0
176
     1
 90
        8
176
     1
 62
     8
420
  8421504
176
     1
 40
1.0
176
     1
 90
        1
176
     1
 90
        6
176
     1
 90
        2
176
     1
 62
     7
176
     1
 90
        5
176
     1
 90
        0
176
     1
 90
        0
176
     1
290
     0
176
     1
 90
        1
176
     1
 40
0.0
176
     1
 90
        0
176
     1
290
     0
176
     1
290
     1
176
     1
290
     1
176
     1
290
     0
176
     1
290
     0
176
     1
290
     0
176
     1
290
     0
176
     1
290
     0
176
     1
290
     0
176
     1
 90
       50
176
     1
 40
0.0
176
     1
 40
1.0
176
     1
 90
        0
176
     1
 62
   178
420
        0
176
     1
 90
       50
176
     1
 90
        3
176
     1
 62
     5
420
      255
176
     1
290
     0
176
     1
 90
       50
176
     1
 90
       50
176
     1
 90
       50
176
     1
290
     0
176
     1
 90
       50
176
     1
 62
   256
176
     0
 40
1.0
176
     0
 90
        2
176
     1
  1
strokes_ogs.tif
176
     1
290
     0
176
     1
 40
1.0
176
     1
 40
1.0
176
     1
  0
VISUALSTYLE
  5
1BF
102
{ACAD_REACTORS
330
1B5
102
}
330
1B5
100
AcDbVisualStyle
  2
Conceptual
 70
     9
177
     3
291
     0
 70
    58
 90
        3
176
     1
 90
        2
176
     1
 90
        0
176
     1
 90
        0
176
     1
 40
0.6
176
     1
 40
30.0
176
     1
 62
     7
420
 16777215
176
     1
 90
        2
176
     1
 90
        2
176
     1
 62
     7
176
     1
 62
   257
176
     1
 90
        1
176
     1
 90
        1
176
     1
 40
179.0
176
     1
 90
        8
176
     1
 62
     7
176
     1
 40
1.0
176
     1
 90
        1
176
     1
 90
        6
176
     1
 90
        2
176
     1
 62
     7
176
     1
 90
        3
176
     1
 90
        0
176
     1
 90
        0
176
     1
290
     0
176
     1
 90
        1
176
     1
 40
0.0
176
     1
 90
        0
176
     1
290
     0
176
     1
290
     1
176
     1
290
     1
176
     1
290
     0
176
     1
290
     0
176
     1
290
     0
176
     1
290
     0
176
     1
290
     0
176
     1
290
     0
176
     1
 90
       50
176
     1
 40
0.0
176
     1
 40
1.0
176
     1
 90
        0
176
     1
 62
   178
420
        0
176
     1
 90
       50
176
     1
 90
        3
176
     1
 62
     5
420
      255
176
     1
290
     0
176
     1
 90
       50
176
     1
 90
       50
176
     1
 90
       50
176
     1
290
     0
176
     1
 90
       50
176
     1
 62
   256
176
     0
 40
1.0
176
     0
 90
        2
176
     1
  1
strokes_ogs.tif
176
     1
290
     0
176
     1
 40
1.0
176
     1
 40
1.0
176
     1
  0
VISUALSTYLE
  5
1C0
102
{ACAD_REACTORS
330
1B5
102
}
330
1B5
100
AcDbVisualStyle
  2
Dim
 70
    11
177
     3
291
     1
 70
    58
 90
        2
176
     1
 90
        2
176
     1
 90
        0
176
     1
 90
        0
176
     1
 40
0.6
176
     1
 40
30.0
176
     1
 62
     7
420
 16777215
176
     1
 90
        1
176
     1
 90
        4
176
     1
 62
     7
176
     1
 62
   257
176
     1
 90
        1
176
     1
 90
        1
176
     1
 40
1.0
176
     1
 90
        8
176
     1
 62
     7
176
     1
 40
1.0
176
     1
 90
        1
176
     1
 90
        6
176
     1
 90
        2
176
     1
 62
     7
176
     1
 90
        5
176
     1
 90
        0
176
     1
 90
        0
176
     1
290
     0
176
     1
 90
        1
176
     1
 40
-50.0
176
     1
 90
        0
176
     1
290
     0
176
     1
290
     1
176
     1
290
     1
176
     1
290
     0
176
     1
290
     0
176
     1
290
     0
176
     1
290
     0
176
     1
290
     0
176
     1
290
     0
176
     1
 90
       50
176
     1
 40
0.0
176
     1
 40
1.0
176
     1
 90
        0
176
     1
 62
   178
420
        0
176
     1
 90
       50
176
     1
 90
        3
176
     1
 62
     5
420
      255
176
     1
290
     0
176
     1
 90
       50
176
     1
 90
       50
176
     1
 90
       50
176
     1
290
     0
176
     1
 90
       50
176
     1
 62
   256
176
     0
 40
1.0
176
     0
 90
        2
176
     1
  1
strokes_ogs.tif
176
     1
290
     0
176
     1
 40
1.0
176
     1
 40
1.0
176
     1
  0
VISUALSTYLE
  5
1C8
102
{ACAD_REACTORS
330
1B5
102
}
330
1B5
100
AcDbVisualStyle
  2
EdgeColorOff
 70
    22
177
     3
291
     1
 70
    58
 90
        2
176
     0
 90
        2
176
     0
 90
        0
176
     0
 90
        0
176
     0
 40
0.6
176
     0
 40
30.0
176
     0
 62
     7
420
 16777215
176
     0
 90
        1
176
     0
 90
        4
176
     0
 62
     7
176
     0
 62
   257
176
     0
 90
        1
176
     0
 90
        1
176
     0
 40
1.0
176
     0
 90
        8
176
     2
 62
     7
176
     0
 40
1.0
176
     0
 90
        1
176
     0
 90
        6
176
     0
 90
        2
176
     0
 62
     7
176
     0
 90
        5
176
     0
 90
        0
176
     0
 90
        0
176
     0
290
     0
176
     0
 90
        1
176
     0
 40
0.0
176
     0
 90
        0
176
     0
290
     0
176
     0
290
     1
176
     0
290
     1
176
     0
290
     0
176
     0
290
     0
176
     0
290
     0
176
     0
290
     0
176
     0
290
     0
176
     0
290
     0
176
     0
 90
       50
176
     0
 40
0.0
176
     0
 40
1.0
176
     0
 90
        0
176
     0
 62
   178
420
        0
176
     0
 90
       50
176
     0
 90
        3
176
     0
 62
     5
420
      255
176
     0
290
     0
176
     0
 90
       50
176
     0
 90
       50
176
     0
 90
       50
176
     0
290
     0
176
     0
 90
       50
176
     0
 62
   256
176
     0
 40
1.0
176
     0
 90
        2
176
     0
  1
strokes_ogs.tif
176
     0
290
     0
176
     0
 40
1.0
176
     0
 40
1.0
176
     0
  0
VISUALSTYLE
  5
1C4
102
{ACAD_REACTORS
330
1B5
102
}
330
1B5
100
AcDbVisualStyle
  2
Facepattern
 70
    15
177
     3
291
     1
 70
    58
 90
        2
176
     1
 90
        2
176
     1
 90
        0
176
     1
 90
        0
176
     1
 40
0.6
176
     1
 40
30.0
176
     1
 62
     7
420
 16777215
176
     1
 90
        1
176
     1
 90
        4
176
     1
 62
     7
176
     1
 62
   257
176
     1
 90
        1
176
     1
 90
        1
176
     1
 40
1.0
176
     1
 90
        8
176
     1
 62
     7
176
     1
 40
1.0
176
     1
 90
        1
176
     1
 90
        6
176
     1
 90
        2
176
     1
 62
     7
176
     1
 90
        5
176
     1
 90
        0
176
     1
 90
        0
176
     1
290
     0
176
     1
 90
        1
176
     1
 40
0.0
176
     1
 90
        0
176
     1
290
     0
176
     1
290
     1
176
     1
290
     1
176
     1
290
     0
176
     1
290
     0
176
     1
290
     0
176
     1
290
     0
176
     1
290
     0
176
     1
290
     0
176
     1
 90
       50
176
     1
 40
0.0
176
     1
 40
1.0
176
     1
 90
        0
176
     1
 62
   178
420
        0
176
     1
 90
       50
176
     1
 90
        3
176
     1
 62
     5
420
      255
176
     1
290
     0
176
     1
 90
       50
176
     1
 90
       50
176
     1
 90
       50
176
     1
290
     0
176
     1
 90
       50
176
     1
 62
   256
176
     0
 40
1.0
176
     0
 90
        2
176
     1
  1
strokes_ogs.tif
176
     1
290
     0
176
     1
 40
1.0
176
     1
 40
1.0
176
     1
  0
VISUALSTYLE
  5
1B6
102
{ACAD_REACTORS
330
1B5
102
}
330
1B5
100
AcDbVisualStyle
  2
Flat
 70
     0
177
     3
291
     1
 70
    58
 90
        2
176
     1
 90
        1
176
     1
 90
        1
176
     1
 90
        2
176
     1
 40
0.6
176
     1
 40
30.0
176
     1
 62
     7
420
 16777215
176
     1
 90
        0
176
     1
 90
        0
176
     1
 62
     7
176
     1
 62
   257
176
     1
 90
        1
176
     1
 90
        1
176
     1
 40
1.0
176
     1
 90
        8
176
     1
 62
     7
176
     1
 40
1.0
176
     1
 90
        1
176
     1
 90
        6
176
     1
 90
        2
176
     1
 62
     7
176
     1
 90
        5
176
     1
 90
        0
176
     1
 90
        0
176
     1
290
     0
176
     1
 90
       13
176
     1
 40
0.0
176
     1
 90
        0
176
     1
290
     0
176
     1
290
     1
176
     1
290
     1
176
     1
290
     0
176
     1
290
     0
176
     1
290
     0
176
     1
290
     0
176
     1
290
     0
176
     1
290
     0
176
     1
 90
       50
176
     1
 40
0.0
176
     1
 40
1.0
176
     1
 90
        0
176
     1
 62
   178
420
        0
176
     1
 90
       50
176
     1
 90
        3
176
     1
 62
     5
420
      255
176
     1
290
     0
176
     1
 90
       50
176
     1
 90
       50
176
     1
 90
       50
176
     1
290
     0
176
     1
 90
       50
176
     1
 62
   256
176
     0
 40
1.0
176
     0
 90
        2
176
     1
  1
strokes_ogs.tif
176
     1
290
     0
176
     1
 40
1.0
176
     1
 40
1.0
176
     1
  0
VISUALSTYLE
  5
1B7
102
{ACAD_REACTORS
330
1B5
102
}
330
1B5
100
AcDbVisualStyle
  2
FlatWithEdges
 70
     1
177
     3
291
     1
 70
    58
 90
        2
176
     1
 90
        1
176
     1
 90
        1
176
     1
 90
        2
176
     1
 40
0.6
176
     1
 40
30.0
176
     1
 62
     7
420
 16777215
176
     1
 90
        1
176
     1
 90
        0
176
     1
 62
     7
176
     1
 62
   257
176
     1
 90
        1
176
     1
 90
        1
176
     1
 40
1.0
176
     1
 90
        0
176
     1
 62
   257
176
     1
 40
1.0
176
     1
 90
        1
176
     1
 90
        6
176
     1
 90
        2
176
     1
 62
     7
176
     1
 90
        5
176
     1
 90
        0
176
     1
 90
        0
176
     1
290
     0
176
     1
 90
       13
176
     1
 40
0.0
176
     1
 90
        0
176
     1
290
     0
176
     1
290
     1
176
     1
290
     1
176
     1
290
     0
176
     1
290
     0
176
     1
290
     0
176
     1
290
     0
176
     1
290
     0
176
     1
290
     0
176
     1
 90
       50
176
     1
 40
0.0
176
     1
 40
1.0
176
     1
 90
        0
176
     1
 62
   178
420
        0
176
     1
 90
       50
176
     1
 90
        3
176
     1
 62
     5
420
      255
176
     1
290
     0
176
     1
 90
       50
176
     1
 90
       50
176
     1
 90
       50
176
     1
290
     0
176
     1
 90
       50
176
     1
 62
   256
176
     0
 40
1.0
176
     0
 90
        2
176
     1
  1
strokes_ogs.tif
176
     1
290
     0
176
     1
 40
1.0
176
     1
 40
1.0
176
     1
  0
VISUALSTYLE
  5
1B8
102
{ACAD_REACTORS
330
1B5
102
}
330
1B5
100
AcDbVisualStyle
  2
Gouraud
 70
     2
177
     3
291
     1
 70
    58
 90
        2
176
     1
 90
        2
176
     1
 90
        1
176
     1
 90
        2
176
     1
 40
0.6
176
     1
 40
30.0
176
     1
 62
     7
420
 16777215
176
     1
 90
        0
176
     1
 90
        0
176
     1
 62
     7
176
     1
 62
   257
176
     1
 90
        1
176
     1
 90
        1
176
     1
 40
1.0
176
     1
 90
        0
176
     1
 62
     7
176
     1
 40
1.0
176
     1
 90
        1
176
     1
 90
        6
176
     1
 90
        2
176
     1
 62
     7
176
     1
 90
        5
176
     1
 90
        0
176
     1
 90
        0
176
     1
290
     0
176
     1
 90
       13
176
     1
 40
0.0
176
     1
 90
        0
176
     1
290
     0
176
     1
290
     1
176
     1
290
     1
176
     1
290
     0
176
     1
290
     0
176
     1
290
     0
176
     1
290
     0
176
     1
290
     0
176
     1
290
     0
176
     1
 90
       50
176
     1
 40
0.0
176
     1
 40
1.0
176
     1
 90
        0
176
     1
 62
   178
420
        0
176
     1
 90
       50
176
     1
 90
        3
176
     1
 62
     5
420
      255
176
     1
290
     0
176
     1
 90
       50
176
     1
 90
       50
176
     1
 90
       50
176
     1
290
     0
176
     1
 90
       50
176
     1
 62
   256
176
     0
 40
1.0
176
     0
 90
        2
176
     1
  1
strokes_ogs.tif
176
     1
290
     0
176
     1
 40
1.0
176
     1
 40
1.0
176
     1
  0
VISUALSTYLE
  5
1B9
102
{ACAD_REACTORS
330
1B5
102
}
330
1B5
100
AcDbVisualStyle
  2
GouraudWithEdges
 70
     3
177
     3
291
     1
 70
    58
 90
        2
176
     1
 90
        2
176
     1
 90
        1
176
     1
 90
        2
176
     1
 40
0.6
176
     1
 40
30.0
176
     1
 62
     7
420
 16777215
176
     1
 90
        1
176
     1
 90
        0
176
     1
 62
     7
176
     1
 62
   257
176
     1
 90
        1
176
     1
 90
        1
176
     1
 40
1.0
176
     1
 90
        0
176
     1
 62
   257
176
     1
 40
1.0
176
     1
 90
        1
176
     1
 90
        6
176
     1
 90
        2
176
     1
 62
     7
176
     1
 90
        5
176
     1
 90
        0
176
     1
 90
        0
176
     1
290
     0
176
     1
 90
       13
176
     1
 40
0.0
176
     1
 90
        0
176
     1
290
     0
176
     1
290
     1
176
     1
290
     1
176
     1
290
     0
176
     1
290
     0
176
     1
290
     0
176
     1
290
     0
176
     1
290
     0
176
     1
290
     0
176
     1
 90
       50
176
     1
 40
0.0
176
     1
 40
1.0
176
     1
 90
        0
176
     1
 62
   178
420
        0
176
     1
 90
       50
176
     1
 90
        3
176
     1
 62
     5
420
      255
176
     1
290
     0
176
     1
 90
       50
176
     1
 90
       50
176
     1
 90
       50
176
     1
290
     0
176
     1
 90
       50
176
     1
 62
   256
176
     0
 40
1.0
176
     0
 90
        2
176
     1
  1
strokes_ogs.tif
176
     1
290
     0
176
     1
 40
1.0
176
     1
 40
1.0
176
     1
  0
VISUALSTYLE
  5
1BC
102
{ACAD_REACTORS
330
1B5
102
}
330
1B5
100
AcDbVisualStyle
  2
Hidden
 70
     6
177
     3
291
     0
 70
    58
 90
        1
176
     1
 90
        2
176
     1
 90
        2
176
     1
 90
        0
176
     1
 40
0.6
176
     1
 40
30.0
176
     1
 62
     7
420
 16777215
176
     1
 90
        2
176
     1
 90
        2
176
     1
 62
     7
176
     1
 62
   257
176
     1
 90
        2
176
     1
 90
        1
176
     1
 40
40.0
176
     1
 90
        0
176
     1
 62
   257
176
     1
 40
1.0
176
     1
 90
        1
176
     1
 90
        6
176
     1
 90
        2
176
     1
 62
     7
176
     1
 90
        3
176
     1
 90
        0
176
     1
 90
        0
176
     1
290
     0
176
     1
 90
        1
176
     1
 40
0.0
176
     1
 90
        0
176
     1
290
     0
176
     1
290
     1
176
     1
290
     1
176
     1
290
     0
176
     1
290
     0
176
     1
290
     0
176
     1
290
     0
176
     1
290
     0
176
     1
290
     0
176
     1
 90
       50
176
     1
 40
0.0
176
     1
 40
1.0
176
     1
 90
        0
176
     1
 62
   178
420
        0
176
     1
 90
       50
176
     1
 90
        3
176
     1
 62
     5
420
      255
176
     1
290
     0
176
     1
 90
       50
176
     1
 90
       50
176
     1
 90
       50
176
     1
290
     0
176
     1
 90
       50
176
     1
 62
   256
176
     0
 40
1.0
176
     0
 90
        2
176
     1
  1
strokes_ogs.tif
176
     1
290
     0
176
     1
 40
1.0
176
     1
 40
1.0
176
     1
  0
VISUALSTYLE
  5
1C6
102
{ACAD_REACTORS
330
1B5
102
}
330
1B5
100
AcDbVisualStyle
  2
JitterOff
 70
    20
177
     3
291
     1
 70
    58
 90
        2
176
     0
 90
        2
176
     0
 90
        0
176
     0
 90
        0
176
     0
 40
0.6
176
     0
 40
30.0
176
     0
 62
     7
420
 16777215
176
     0
 90
        1
176
     0
 90
        4
176
     0
 62
     7
176
     0
 62
   257
176
     0
 90
        1
176
     0
 90
        1
176
     0
 40
1.0
176
     0
 90
       10
176
     2
 62
     7
176
     0
 40
1.0
176
     0
 90
        1
176
     0
 90
        6
176
     0
 90
        2
176
     0
 62
     7
176
     0
 90
        5
176
     0
 90
        0
176
     0
 90
        0
176
     0
290
     0
176
     0
 90
        1
176
     0
 40
0.0
176
     0
 90
        0
176
     0
290
     0
176
     0
290
     1
176
     0
290
     1
176
     0
290
     0
176
     0
290
     0
176
     0
290
     0
176
     0
290
     0
176
     0
290
     0
176
     0
290
     0
176
     0
 90
       50
176
     0
 40
0.0
176
     0
 40
1.0
176
     0
 90
        0
176
     0
 62
   178
420
        0
176
     0
 90
       50
176
     0
 90
        3
176
     0
 62
     5
420
      255
176
     0
290
     0
176
     0
 90
       50
176
     0
 90
       50
176
     0
 90
       50
176
     0
290
     0
176
     0
 90
       50
176
     0
 62
   256
176
     0
 40
1.0
176
     0
 90
        2
176
     0
  1
strokes_ogs.tif
176
     0
290
     0
176
     0
 40
1.0
176
     0
 40
1.0
176
     0
  0
VISUALSTYLE
  5
1C3
102
{ACAD_REACTORS
330
1B5
102
}
330
1B5
100
AcDbVisualStyle
  2
Linepattern
 70
    14
177
     3
291
     1
 70
    58
 90
        2
176
     1
 90
        2
176
     1
 90
        0
176
     1
 90
        0
176
     1
 40
0.6
176
     1
 40
30.0
176
     1
 62
     7
420
 16777215
176
     1
 90
        1
176
     1
 90
        4
176
     1
 62
     7
176
     1
 62
   257
176
     1
 90
        7
176
     1
 90
        7
176
     1
 40
1.0
176
     1
 90
        8
176
     1
 62
     7
176
     1
 40
1.0
176
     1
 90
        1
176
     1
 90
        6
176
     1
 90
        2
176
     1
 62
     7
176
     1
 90
        5
176
     1
 90
        0
176
     1
 90
        0
176
     1
290
     0
176
     1
 90
        1
176
     1
 40
0.0
176
     1
 90
        0
176
     1
290
     0
176
     1
290
     1
176
     1
290
     1
176
     1
290
     0
176
     1
290
     0
176
     1
290
     0
176
     1
290
     0
176
     1
290
     0
176
     1
290
     0
176
     1
 90
       50
176
     1
 40
0.0
176
     1
 40
1.0
176
     1
 90
        0
176
     1
 62
   178
420
        0
176
     1
 90
       50
176
     1
 90
        3
176
     1
 62
     5
420
      255
176
     1
290
     0
176
     1
 90
       50
176
     1
 90
       50
176
     1
 90
       50
176
     1
290
     0
176
     1
 90
       50
176
     1
 62
   256
176
     0
 40
1.0
176
     0
 90
        2
176
     1
  1
strokes_ogs.tif
176
     1
290
     0
176
     1
 40
1.0
176
     1
 40
1.0
176
     1
  0
VISUALSTYLE
  5
1C7
102
{ACAD_REACTORS
330
1B5
102
}
330
1B5
100
AcDbVisualStyle
  2
OverhangOff
 70
    21
177
     3
291
     1
 70
    58
 90
        2
176
     0
 90
        2
176
     0
 90
        0
176
     0
 90
        0
176
     0
 40
0.6
176
     0
 40
30.0
176
     0
 62
     7
420
 16777215
176
     0
 90
        1
176
     0
 90
        4
176
     0
 62
     7
176
     0
 62
   257
176
     0
 90
        1
176
     0
 90
        1
176
     0
 40
1.0
176
     0
 90
        9
176
     2
 62
     7
176
     0
 40
1.0
176
     0
 90
        1
176
     0
 90
        6
176
     0
 90
        2
176
     0
 62
     7
176
     0
 90
        5
176
     0
 90
        0
176
     0
 90
        0
176
     0
290
     0
176
     0
 90
        1
176
     0
 40
0.0
176
     0
 90
        0
176
     0
290
     0
176
     0
290
     1
176
     0
290
     1
176
     0
290
     0
176
     0
290
     0
176
     0
290
     0
176
     0
290
     0
176
     0
290
     0
176
     0
290
     0
176
     0
 90
       50
176
     0
 40
0.0
176
     0
 40
1.0
176
     0
 90
        0
176
     0
 62
   178
420
        0
176
     0
 90
       50
176
     0
 90
        3
176
     0
 62
     5
420
      255
176
     0
290
     0
176
     0
 90
       50
176
     0
 90
       50
176
     0
 90
       50
176
     0
290
     0
176
     0
 90
       50
176
     0
 62
   256
176
     0
 40
1.0
176
     0
 90
        2
176
     0
  1
strokes_ogs.tif
176
     0
290
     0
176
     0
 40
1.0
176
     0
 40
1.0
176
     0
  0
VISUALSTYLE
  5
1BE
102
{ACAD_REACTORS
330
1B5
102
}
330
1B5
100
AcDbVisualStyle
  2
Realistic
 70
     8
177
     3
291
     0
 70
    58
 90
        2
176
     1
 90
        3
176
     1
 90
        0
176
     1
 90
        2
176
     1
 40
0.6
176
     1
 40
30.0
176
     1
 62
     7
420
 16777215
176
     1
 90
        0
176
     1
 90
        0
176
     1
 62
     7
176
     1
 62
   257
176
     1
 90
        1
176
     1
 90
        1
176
     1
 40
1.0
176
     1
 90
        8
176
     1
 62
   257
176
     1
 40
1.0
176
     1
 90
        1
176
     1
 90
        6
176
     1
 90
        2
176
     1
 62
     7
176
     1
 90
        3
176
     1
 90
        0
176
     1
 90
        0
176
     1
290
     0
176
     1
 90
       13
176
     1
 40
0.0
176
     1
 90
        0
176
     1
290
     0
176
     1
290
     1
176
     1
290
     1
176
     1
290
     0
176
     1
290
     0
176
     1
290
     0
176
     1
290
     0
176
     1
290
     0
176
     1
290
     0
176
     1
 90
       50
176
     1
 40
0.0
176
     1
 40
1.0
176
     1
 90
        0
176
     1
 62
   178
420
        0
176
     1
 90
       50
176
     1
 90
        3
176
     1
 62
     5
420
      255
176
     1
290
     0
176
     1
 90
       50
176
     1
 90
       50
176
     1
 90
       50
176
     1
290
     0
176
     1
 90
       50
176
     1
 62
   256
176
     0
 40
1.0
176
     0
 90
        2
176
     1
  1
strokes_ogs.tif
176
     1
290
     0
176
     1
 40
1.0
176
     1
 40
1.0
176
     1
  0
VISUALSTYLE
  5
1CD
102
{ACAD_REACTORS
330
1B5
102
}
330
1B5
100
AcDbVisualStyle
  2
Shaded
 70
    27
177
     3
291
     0
 70
    58
 90
        2
176
     1
 90
        2
176
     1
 90
        1
176
     1
 90
        2
176
     1
 40
0.6
176
     1
 40
30.0
176
     1
 62
     7
420
 16777215
176
     1
 90
        0
176
     1
 90
        4
176
     1
 62
     7
176
     1
 62
   257
176
     1
 90
        1
176
     1
 90
        1
176
     1
 40
1.0
176
     1
 90
        8
176
     1
 62
   257
176
     1
 40
1.0
176
     1
 90
        1
176
     1
 90
        6
176
     1
 90
        2
176
     1
 62
     8
420
  7895160
176
     1
 90
        3
176
     1
 90
        0
176
     1
 90
        0
176
     1
290
     0
176
     1
 90
        5
176
     1
 40
0.0
176
     1
 90
        0
176
     1
290
     0
176
     1
290
     1
176
     1
290
     1
176
     1
290
     0
176
     1
290
     0
176
     1
290
     0
176
     1
290
     0
176
     1
290
     0
176
     1
290
     0
176
     1
 90
       50
176
     1
 40
0.0
176
     1
 40
1.0
176
     1
 90
        0
176
     1
 62
   178
420
        0
176
     1
 90
       50
176
     1
 90
        3
176
     1
 62
     5
420
      255
176
     1
290
     0
176
     1
 90
       50
176
     1
 90
       50
176
     1
 90
       50
176
     1
290
     0
176
     1
 90
       50
176
     1
 62
   256
176
     0
 40
1.0
176
     0
 90
        2
176
     1
  1
strokes_ogs.tif
176
     1
290
     0
176
     1
 40
1.0
176
     1
 40
1.0
176
     1
  0
VISUALSTYLE
  5
1CC
102
{ACAD_REACTORS
330
1B5
102
}
330
1B5
100
AcDbVisualStyle
  2
Shaded with edges
 70
    26
177
     3
291
     0
 70
    58
 90
        2
176
     1
 90
        2
176
     1
 90
        1
176
     1
 90
        2
176
     1
 40
0.6
176
     1
 40
30.0
176
     1
 62
     7
420
 16777215
176
     1
 90
        1
176
     1
 90
       10
176
     1
 62
     7
176
     1
 62
   257
176
     1
 90
        2
176
     1
 90
        1
176
     1
 40
1.0
176
     1
 90
        8
176
     1
 62
   257
176
     1
 40
1.0
176
     1
 90
        1
176
     1
 90
        6
176
     1
 90
        2
176
     1
 62
     7
176
     1
 90
        3
176
     1
 90
        0
176
     1
 90
        0
176
     1
290
     0
176
     1
 90
        5
176
     1
 40
0.0
176
     1
 90
        0
176
     1
290
     0
176
     1
290
     1
176
     1
290
     1
176
     1
290
     0
176
     1
290
     0
176
     1
290
     0
176
     1
290
     0
176
     1
290
     0
176
     1
290
     0
176
     1
 90
       50
176
     1
 40
0.0
176
     1
 40
1.0
176
     1
 90
        0
176
     1
 62
   178
420
        0
176
     1
 90
       50
176
     1
 90
        3
176
     1
 62
     5
420
      255
176
     1
290
     0
176
     1
 90
       50
176
     1
 90
       50
176
     1
 90
       50
176
     1
290
     0
176
     1
 90
       50
176
     1
 62
   256
176
     0
 40
1.0
176
     0
 90
        2
176
     1
  1
strokes_ogs.tif
176
     1
290
     0
176
     1
 40
1.0
176
     1
 40
1.0
176
     1
  0
VISUALSTYLE
  5
1C9
102
{ACAD_REACTORS
330
1B5
102
}
330
1B5
100
AcDbVisualStyle
  2
Shades of Gray
 70
    23
177
     3
291
     0
 70
    58
 90
        2
176
     1
 90
        2
176
     1
 90
        3
176
     1
 90
        0
176
     1
 40
0.6
176
     1
 40
30.0
176
     1
 62
     7
420
 16777215
176
     1
 90
        2
176
     1
 90
        2
176
     1
 62
     7
176
     1
 62
     7
176
     1
 90
        1
176
     1
 90
        1
176
     1
 40
40.0
176
     1
 90
        8
176
     1
 62
     7
176
     1
 40
1.0
176
     1
 90
        1
176
     1
 90
        6
176
     1
 90
        2
176
     1
 62
     7
176
     1
 90
        3
176
     1
 90
        0
176
     1
 90
        0
176
     1
290
     0
176
     1
 90
        1
176
     1
 40
0.0
176
     1
 90
        0
176
     1
290
     0
176
     1
290
     1
176
     1
290
     1
176
     1
290
     0
176
     1
290
     0
176
     1
290
     0
176
     1
290
     0
176
     1
290
     0
176
     1
290
     0
176
     1
 90
       50
176
     1
 40
0.0
176
     1
 40
1.0
176
     1
 90
        0
176
     1
 62
   178
420
        0
176
     1
 90
       50
176
     1
 90
        3
176
     1
 62
     5
420
      255
176
     1
290
     0
176
     1
 90
       50
176
     1
 90
       50
176
     1
 90
       50
176
     1
290
     0
176
     1
 90
       50
176
     1
 62
   256
176
     0
 40
1.0
176
     0
 90
        2
176
     1
  1
strokes_ogs.tif
176
     1
290
     0
176
     1
 40
1.0
176
     1
 40
1.0
176
     1
  0
VISUALSTYLE
  5
1CA
102
{ACAD_REACTORS
330
1B5
102
}
330
1B5
100
AcDbVisualStyle
  2
Sketchy
 70
    24
177
     3
291
     0
 70
    58
 90
        1
176
     1
 90
        2
176
     1
 90
        2
176
     1
 90
        0
176
     1
 40
0.6
176
     1
 40
30.0
176
     1
 62
     7
420
 16777215
176
     1
 90
        2
176
     1
 90
        2
176
     1
 62
     7
176
     1
 62
     7
176
     1
 90
        1
176
     1
 90
        1
176
     1
 40
40.0
176
     1
 90
       11
176
     1
 62
     7
176
     1
 40
1.0
176
     1
 90
        1
176
     1
 90
        6
176
     1
 90
        2
176
     1
 62
     7
176
     1
 90
        6
176
     1
 90
        0
176
     1
 90
        0
176
     1
290
     0
176
     1
 90
        1
176
     1
 40
0.0
176
     1
 90
        0
176
     1
290
     0
176
     1
290
     1
176
     1
290
     1
176
     1
290
     0
176
     1
290
     0
176
     1
290
     0
176
     1
290
     0
176
     1
290
     0
176
     1
290
     0
176
     1
 90
       50
176
     1
 40
0.0
176
     1
 40
1.0
176
     1
 90
        0
176
     1
 62
   178
420
        0
176
     1
 90
       50
176
     1
 90
        3
176
     1
 62
     5
420
      255
176
     1
290
     0
176
     1
 90
       50
176
     1
 90
       50
176
     1
 90
       50
176
     1
290
     0
176
     1
 90
       50
176
     1
 62
   256
176
     0
 40
1.0
176
     0
 90
        2
176
     1
  1
strokes_ogs.tif
176
     1
290
     0
176
     1
 40
1.0
176
     1
 40
1.0
176
     1
  0
VISUALSTYLE
  5
1C2
102
{ACAD_REACTORS
330
1B5
102
}
330
1B5
100
AcDbVisualStyle
  2
Thicken
 70
    13
177
     3
291
     1
 70
    58
 90
        2
176
     1
 90
        2
176
     1
 90
        0
176
     1
 90
        0
176
     1
 40
0.6
176
     1
 40
30.0
176
     1
 62
     7
420
 16777215
176
     1
 90
        1
176
     1
 90
        4
176
     1
 62
     7
176
     1
 62
   257
176
     1
 90
        1
176
     1
 90
        1
176
     1
 40
1.0
176
     1
 90
       12
176
     1
 62
     7
176
     1
 40
1.0
176
     1
 90
        1
176
     1
 90
        6
176
     1
 90
        2
176
     1
 62
     7
176
     1
 90
        5
176
     1
 90
        0
176
     1
 90
        0
176
     1
290
     0
176
     1
 90
        1
176
     1
 40
0.0
176
     1
 90
        0
176
     1
290
     0
176
     1
290
     1
176
     1
290
     1
176
     1
290
     0
176
     1
290
     0
176
     1
290
     0
176
     1
290
     0
176
     1
290
     0
176
     1
290
     0
176
     1
 90
       50
176
     1
 40
0.0
176
     1
 40
1.0
176
     1
 90
        0
176
     1
 62
   178
420
        0
176
     1
 90
       50
176
     1
 90
        3
176
     1
 62
     5
420
      255
176
     1
290
     0
176
     1
 90
       50
176
     1
 90
       50
176
     1
 90
       50
176
     1
290
     0
176
     1
 90
       50
176
     1
 62
   256
176
     0
 40
1.0
176
     0
 90
        2
176
     1
  1
strokes_ogs.tif
176
     1
290
     0
176
     1
 40
1.0
176
     1
 40
1.0
176
     1
  0
VISUALSTYLE
  5
1BB
102
{ACAD_REACTORS
330
1B5
102
}
330
1B5
100
AcDbVisualStyle
  2
Wireframe
 70
     5
177
     3
291
     0
 70
    58
 90
        0
176
     1
 90
        2
176
     1
 90
        0
176
     1
 90
        0
176
     1
 40
0.6
176
     1
 40
30.0
176
     1
 62
     7
420
 16777215
176
     1
 90
        1
176
     1
 90
        4
176
     1
 62
     7
176
     1
 62
   257
176
     1
 90
        1
176
     1
 90
        1
176
     1
 40
1.0
176
     1
 90
        0
176
     1
 62
   257
176
     1
 40
1.0
176
     1
 90
        1
176
     1
 90
        6
176
     1
 90
        2
176
     1
 62
     7
176
     1
 90
        3
176
     1
 90
        0
176
     1
 90
        0
176
     1
290
     0
176
     1
 90
        1
176
     1
 40
0.0
176
     1
 90
        0
176
     1
290
     0
176
     1
290
     1
176
     1
290
     1
176
     1
290
     0
176
     1
290
     0
176
     1
290
     0
176
     1
290
     0
176
     1
290
     0
176
     1
290
     0
176
     1
 90
       50
176
     1
 40
0.0
176
     1
 40
1.0
176
     1
 90
        0
176
     1
 62
   178
420
        0
176
     1
 90
       50
176
     1
 90
        3
176
     1
 62
     5
420
      255
176
     1
290
     0
176
     1
 90
       50
176
     1
 90
       50
176
     1
 90
       50
176
     1
290
     0
176
     1
 90
       50
176
     1
 62
   256
176
     0
 40
1.0
176
     0
 90
        2
176
     1
  1
strokes_ogs.tif
176
     1
290
     0
176
     1
 40
1.0
176
     1
 40
1.0
176
     1
  0
VISUALSTYLE
  5
1CB
102
{ACAD_REACTORS
330
1B5
102
}
330
1B5
100
AcDbVisualStyle
  2
X-Ray
 70
    25
177
     3
291
     0
 70
    58
 90
        2
176
     1
 90
        2
176
     1
 90
        1
176
     1
 90
        1
176
     1
 40
0.5
176
     1
 40
30.0
176
     1
 62
     7
420
 16777215
176
     1
 90
        1
176
     1
 90
        0
176
     1
 62
     7
176
     1
 62
   257
176
     1
 90
        1
176
     1
 90
        1
176
     1
 40
1.0
176
     1
 90
        8
176
     1
 62
     7
176
     1
 40
1.0
176
     1
 90
        1
176
     1
 90
        6
176
     1
 90
        2
176
     1
 62
     7
176
     1
 90
        3
176
     1
 90
        0
176
     1
 90
        0
176
     1
290
     0
176
     1
 90
       13
176
     1
 40
0.0
176
     1
 90
        0
176
     1
290
     0
176
     1
290
     1
176
     1
290
     1
176
     1
290
     0
176
     1
290
     0
176
     1
290
     0
176
     1
290
     0
176
     1
290
     0
176
     1
290
     0
176
     1
 90
       50
176
     1
 40
0.0
176
     1
 40
1.0
176
     1
 90
        0
176
     1
 62
   178
420
        0
176
     1
 90
       50
176
     1
 90
        3
176
     1
 62
     5
420
      255
176
     1
290
     0
176
     1
 90
       50
176
     1
 90
       50
176
     1
 90
       50
176
     1
290
     0
176
     1
 90
       50
176
     1
 62
   256
176
     0
 40
1.0
176
     0
 90
        2
176
     1
  1
strokes_ogs.tif
176
     1
290
     0
176
     1
 40
1.0
176
     1
 40
1.0
176
     1
  0
DICTIONARYVAR
  5
238
102
{ACAD_REACTORS
330
237
102
}
330
237
100
DictionaryVariables
280
     0
  1
1:1
  0
XRECORD
  5
1F7
102
{ACAD_REACTORS
330
1F6
102
}
330
1F6
100
AcDbXrecord
280
     1
290
     1
  0
XRECORD
  5
1F8
102
{ACAD_REACTORS
330
1F6
102
}
330
1F6
100
AcDbXrecord
280
     1
290
     1
  0
XRECORD
  5
1F9
102
{ACAD_REACTORS
330
1F6
102
}
330
1F6
100
AcDbXrecord
280
     1
290
     1
  0
XRECORD
  5
1FA
102
{ACAD_REACTORS
330
1F6
102
}
330
1F6
100
AcDbXrecord
280
     1
290
     1
  0
XRECORD
  5
1FB
102
{ACAD_REACTORS
330
1F6
102
}
330
1F6
100
AcDbXrecord
280
     1
1000
auto
  0
XRECORD
  5
1FC
102
{ACAD_REACTORS
330
1F6
102
}
330
1F6
100
AcDbXrecord
280
     1
1000
auto
  0
XRECORD
  5
1FD
102
{ACAD_REACTORS
330
1F6
102
}
330
1F6
100
AcDbXrecord
280
     1
1000
auto
  0
XRECORD
  5
1FE
102
{ACAD_REACTORS
330
1F6
102
}
330
1F6
100
AcDbXrecord
280
     1
1000
auto
  0
XRECORD
  5
1FF
102
{ACAD_REACTORS
330
1F6
102
}
330
1F6
100
AcDbXrecord
280
     1
1000
auto
  0
XRECORD
  5
200
102
{ACAD_REACTORS
330
1F6
102
}
330
1F6
100
AcDbXrecord
280
     1
1000
auto
  0
XRECORD
  5
201
102
{ACAD_REACTORS
330
1F6
102
}
330
1F6
100
AcDbXrecord
280
     1
1000
auto
  0
XRECORD
  5
202
102
{ACAD_REACTORS
330
1F6
102
}
330
1F6
100
AcDbXrecord
280
     1
1000
auto
  0
XRECORD
  5
203
102
{ACAD_REACTORS
330
1F6
102
}
330
1F6
100
AcDbXrecord
280
     1
290
     0
  0
XRECORD
  5
204
102
{ACAD_REACTORS
330
1F6
102
}
330
1F6
100
AcDbXrecord
280
     1
290
     0
  0
XRECORD
  5
205
102
{ACAD_REACTORS
330
1F6
102
}
330
1F6
100
AcDbXrecord
280
     1
290
     0
  0
XRECORD
  5
206
102
{ACAD_REACTORS
330
1F6
102
}
330
1F6
100
AcDbXrecord
280
     1
290
     0
  0
XRECORD
  5
207
102
{ACAD_REACTORS
330
1F6
102
}
330
1F6
100
AcDbXrecord
280
     1
 90
        0
  0
XRECORD
  5
208
102
{ACAD_REACTORS
330
1F6
102
}
330
1F6
100
AcDbXrecord
280
     1
 90
        0
  0
XRECORD
  5
209
102
{ACAD_REACTORS
330
1F6
102
}
330
1F6
100
AcDbXrecord
280
     1
 90
        0
  0
XRECORD
  5
20A
102
{ACAD_REACTORS
330
1F6
102
}
330
1F6
100
AcDbXrecord
280
     1
 90
        0
  0
XRECORD
  5
20B
102
{ACAD_REACTORS
330
1F6
102
}
330
1F6
100
AcDbXrecord
280
     1
1000
auto
  0
XRECORD
  5
20C
102
{ACAD_REACTORS
330
1F6
102
}
330
1F6
100
AcDbXrecord
280
     1
1000
auto
  0
XRECORD
  5
20D
102
{ACAD_REACTORS
330
1F6
102
}
330
1F6
100
AcDbXrecord
280
     1
1000
auto
  0
XRECORD
  5
20E
102
{ACAD_REACTORS
330
1F6
102
}
330
1F6
100
AcDbXrecord
280
     1
1000
auto
  0
XRECORD
  5
20F
102
{ACAD_REACTORS
330
1F6
102
}
330
1F6
100
AcDbXrecord
280
     1
1000
auto
  0
XRECORD
  5
210
102
{ACAD_REACTORS
330
1F6
102
}
330
1F6
100
AcDbXrecord
280
     1
1000
auto
  0
XRECORD
  5
211
102
{ACAD_REACTORS
330
1F6
102
}
330
1F6
100
AcDbXrecord
280
     1
1000
auto
  0
XRECORD
  5
212
102
{ACAD_REACTORS
330
1F6
102
}
330
1F6
100
AcDbXrecord
280
     1
1000
auto
  0
XRECORD
  5
213
102
{ACAD_REACTORS
330
1F6
102
}
330
1F6
100
AcDbXrecord
280
     1
 90
        1
  0
XRECORD
  5
214
102
{ACAD_REACTORS
330
1F6
102
}
330
1F6
100
AcDbXrecord
280
     1
 40
10.0
  0
XRECORD
  5
215
102
{ACAD_REACTORS
330
1F6
102
}
330
1F6
100
AcDbXrecord
280
     1
 40
10.0
  0
XRECORD
  5
216
102
{ACAD_REACTORS
330
1F6
102
}
330
1F6
100
AcDbXrecord
280
     1
 40
10.0
  0
XRECORD
  5
217
102
{ACAD_REACTORS
330
1F6
102
}
330
1F6
100
AcDbXrecord
280
     1
 40
10.0
  0
XRECORD
  5
218
102
{ACAD_REACTORS
330
1F6
102
}
330
1F6
100
AcDbXrecord
280
     1
290
     0
  0
XRECORD
  5
219
102
{ACAD_REACTORS
330
1F6
102
}
330
1F6
100
AcDbXrecord
280
     1
 90
        1
  0
XRECORD
  5
21A
102
{ACAD_REACTORS
330
1F6
102
}
330
1F6
100
AcDbXrecord
280
     1
 40
0.0
  0
XRECORD
  5
21B
102
{ACAD_REACTORS
330
1F6
102
}
330
1F6
100
AcDbXrecord
280
     1
 40
0.0
  0
XRECORD
  5
21C
102
{ACAD_REACTORS
330
1F6
102
}
330
1F6
100
AcDbXrecord
280
     1
1000
Portrait
  0
XRECORD
  5
21D
102
{ACAD_REACTORS
330
1F6
102
}
330
1F6
100
AcDbXrecord
280
     1
 40
297.0
  0
XRECORD
  5
21E
102
{ACAD_REACTORS
330
1F6
102
}
330
1F6
100
AcDbXrecord
280
     1
 40
210.0
  0
XRECORD
  5
21F
102
{ACAD_REACTORS
330
1F6
102
}
330
1F6
100
AcDbXrecord
280
     1
1000
1:1
  0
XRECORD
  5
220
102
{ACAD_REACTORS
330
1F6
102
}
330
1F6
100
AcDbXrecord
280
     1
290
     1
  0
XRECORD
  5
221
102
{ACAD_REACTORS
330
1F6
102
}
330
1F6
100
AcDbXrecord
280
     1
 90
        4
  0
ENDSEC
  0
EOF
