999
dxflib 3.1.5.0
  0
SECTION
  2
HEADER
  9
$ACADVER
  1
AC1015
  9
$HANDSEED
  5
FFFF
  9
$DIMADEC
 70
0
  9
$DIMASZ
 40
2.5
  9
$DIMAUNIT
 70
0
  9
$DIMAZIN
 70
2
  9
$DIMDEC
 70
4
  9
$DIMEXE
 40
1.25
  9
$DIMEXO
 40
0.625
  9
$DIMGAP
 40
0.625
  9
$DIMLUNIT
 70
2
  9
$DIMTSZ
 40
0.0
  9
$DIMTXT
 40
2.5
  9
$DIMZIN
 70
8
  9
$INSUNITS
 70
4
  9
$LTSCALE
 40
1.0
  0
SECTION
  2
TABLES
  0
TABLE
  2
VPORT
  5
8
100
AcDbSymbolTable
 70
1
  0
VPORT
  5
30
100
AcDbSymbolTableRecord
100
AcDbViewportTableRecord
  2
*Active
 70
0
 10
0.0
 20
0.0
 11
1.0
 21
1.0
 12
286.3055555555554861
 22
148.5
 13
0.0
 23
0.0
 14
10.0
 24
10.0
 15
10.0
 25
10.0
 16
0.0
 26
0.0
 36
1.0
 17
0.0
 27
0.0
 37
0.0
 40
297.0
 41
1.92798353909465
 42
50.0
 43
0.0
 44
0.0
 50
0.0
 51
0.0
 71
0
 72
100
 73
1
 74
3
 75
1
 76
1
 77
0
 78
0
281
0
 65
1
110
0.0
120
0.0
130
0.0
111
1.0
121
0.0
131
0.0
112
0.0
122
1.0
132
0.0
 79
0
146
0.0
  0
ENDTAB
  0
TABLE
  2
LTYPE
  5
5
100
AcDbSymbolTable
 70
21
  0
LTYPE
  5
31
100
AcDbSymbolTableRecord
100
AcDbLinetypeTableRecord
  2
CENTER2
 70
0
  3
Center (.5x) ___ _ ___ _ ___ _ ___ _ ___ _ ___
 72
65
 73
4
 40
28.5749999999999993
 49
19.0500000000000007
 74
0
 49
-3.1749999999999998
 74
0
 49
3.1749999999999998
 74
0
 49
-3.1749999999999998
 74
0
  0
LTYPE
  5
32
100
AcDbSymbolTableRecord
100
AcDbLinetypeTableRecord
  2
DIVIDEX2
 70
0
  3
Divide (2x) ________  .  .  ________  .  .  _
 72
65
 73
6
 40
63.5
 49
25.3999999999999986
 74
0
 49
-12.6999999999999993
 74
0
 49
0.0
 74
0
 49
-12.6999999999999993
 74
0
 49
0.0
 74
0
 49
-12.6999999999999993
 74
0
  0
LTYPE
  5
33
100
AcDbSymbolTableRecord
100
AcDbLinetypeTableRecord
  2
DOT2
 70
0
  3
Dot (.5x) .....................................
 72
65
 73
2
 40
3.1749999999999998
 49
0.0
 74
0
 49
-3.1749999999999998
 74
0
  0
LTYPE
  5
34
100
AcDbSymbolTableRecord
100
AcDbLinetypeTableRecord
  2
DASHDOT2
 70
0
  3
Dash dot (.5x) _._._._._._._._._._._._._._._.
 72
65
 73
4
 40
12.6999999999999993
 49
6.3499999999999996
 74
0
 49
-3.1749999999999998
 74
0
 49
0.0
 74
0
 49
-3.1749999999999998
 74
0
  0
LTYPE
  5
35
100
AcDbSymbolTableRecord
100
AcDbLinetypeTableRecord
  2
DIVIDE
 70
0
  3
Divide ____ . . ____ . . ____ . . ____ . . ____
 72
65
 73
6
 40
31.75
 49
12.6999999999999993
 74
0
 49
-6.3499999999999996
 74
0
 49
0.0
 74
0
 49
-6.3499999999999996
 74
0
 49
0.0
 74
0
 49
-6.3499999999999996
 74
0
  0
LTYPE
  5
36
100
AcDbSymbolTableRecord
100
AcDbLinetypeTableRecord
  2
DASHDOT
 70
0
  3
Dash dot __ . __ . __ . __ . __ . __ . __ . __
 72
65
 73
4
 40
25.3999999999999986
 49
12.6999999999999993
 74
0
 49
-6.3499999999999996
 74
0
 49
0.0
 74
0
 49
-6.3499999999999996
 74
0
  0
LTYPE
  5
37
100
AcDbSymbolTableRecord
100
AcDbLinetypeTableRecord
  2
BORDER
 70
0
  3
Border __ __ . __ __ . __ __ . __ __ . __ __ .
 72
65
 73
6
 40
44.4500000000000028
 49
12.6999999999999993
 74
0
 49
-6.3499999999999996
 74
0
 49
12.6999999999999993
 74
0
 49
-6.3499999999999996
 74
0
 49
0.0
 74
0
 49
-6.3499999999999996
 74
0
  0
LTYPE
  5
38
100
AcDbSymbolTableRecord
100
AcDbLinetypeTableRecord
  2
DASHDOTX2
 70
0
  3
Dash dot (2x) ____  .  ____  .  ____  .  ___
 72
65
 73
4
 40
50.7999999999999972
 49
25.3999999999999986
 74
0
 49
-12.6999999999999993
 74
0
 49
0.0
 74
0
 49
-12.6999999999999993
 74
0
  0
LTYPE
  5
39
100
AcDbSymbolTableRecord
100
AcDbLinetypeTableRecord
  2
CENTERX2
 70
0
  3
Center (2x) ________  __  ________  __  _____
 72
65
 73
4
 40
101.5999999999999943
 49
63.5
 74
0
 49
-12.6999999999999993
 74
0
 49
12.6999999999999993
 74
0
 49
-12.6999999999999993
 74
0
  0
LTYPE
  5
3A
100
AcDbSymbolTableRecord
100
AcDbLinetypeTableRecord
  2
BORDER2
 70
0
  3
Border (.5x) __.__.__.__.__.__.__.__.__.__.__.
 72
65
 73
6
 40
22.2250000000000014
 49
6.3499999999999996
 74
0
 49
-3.1749999999999998
 74
0
 49
6.3499999999999996
 74
0
 49
-3.1749999999999998
 74
0
 49
0.0
 74
0
 49
-3.1749999999999998
 74
0
  0
LTYPE
  5
3B
100
AcDbSymbolTableRecord
100
AcDbLinetypeTableRecord
  2
BORDERX2
 70
0
  3
Border (2x) ____  ____  .  ____  ____  .  ___
 72
65
 73
6
 40
88.9000000000000057
 49
25.3999999999999986
 74
0
 49
-12.6999999999999993
 74
0
 49
25.3999999999999986
 74
0
 49
-12.6999999999999993
 74
0
 49
0.0
 74
0
 49
-12.6999999999999993
 74
0
  0
LTYPE
  5
16
100
AcDbSymbolTableRecord
100
AcDbLinetypeTableRecord
  2
CONTINUOUS
 70
0
  3
Solid line
 72
65
 73
0
 40
0.0
  0
LTYPE
  5
14
100
AcDbSymbolTableRecord
100
AcDbLinetypeTableRecord
  2
BYBLOCK
 70
0
  3

 72
65
 73
0
 40
0.0
  0
LTYPE
  5
15
100
AcDbSymbolTableRecord
100
AcDbLinetypeTableRecord
  2
BYLAYER
 70
0
  3

 72
65
 73
0
 40
0.0
  0
LTYPE
  5
3C
100
AcDbSymbolTableRecord
100
AcDbLinetypeTableRecord
  2
DASHED2
 70
0
  3
Dashed (.5x) _ _ _ _ _ _ _ _ _ _ _ _ _ _ _ _ _
 72
65
 73
2
 40
9.5250000000000004
 49
6.3499999999999996
 74
0
 49
-3.1749999999999998
 74
0
  0
LTYPE
  5
3D
100
AcDbSymbolTableRecord
100
AcDbLinetypeTableRecord
  2
CENTER
 70
0
  3
Center ____ _ ____ _ ____ _ ____ _ ____ _ ____
 72
65
 73
4
 40
50.7999999999999972
 49
31.75
 74
0
 49
-6.3499999999999996
 74
0
 49
6.3499999999999996
 74
0
 49
-6.3499999999999996
 74
0
  0
LTYPE
  5
3E
100
AcDbSymbolTableRecord
100
AcDbLinetypeTableRecord
  2
DIVIDE2
 70
0
  3
Divide (.5x) __..__..__..__..__..__..__..__.._
 72
65
 73
6
 40
15.875
 49
6.3499999999999996
 74
0
 49
-3.1749999999999998
 74
0
 49
0.0
 74
0
 49
-3.1749999999999998
 74
0
 49
0.0
 74
0
 49
-3.1749999999999998
 74
0
  0
LTYPE
  5
3F
100
AcDbSymbolTableRecord
100
AcDbLinetypeTableRecord
  2
DASHED
 70
0
  3
Dashed __ __ __ __ __ __ __ __ __ __ __ __ __ _
 72
65
 73
2
 40
19.0500000000000007
 49
12.6999999999999993
 74
0
 49
-6.3499999999999996
 74
0
  0
LTYPE
  5
40
100
AcDbSymbolTableRecord
100
AcDbLinetypeTableRecord
  2
DOTX2
 70
0
  3
Dot (2x) .  .  .  .  .  .  .  .  .  .  .  .  .
 72
65
 73
2
 40
12.6999999999999993
 49
0.0
 74
0
 49
-12.6999999999999993
 74
0
  0
LTYPE
  5
41
100
AcDbSymbolTableRecord
100
AcDbLinetypeTableRecord
  2
DASHEDX2
 70
0
  3
Dashed (2x) ____  ____  ____  ____  ____  ___
 72
65
 73
2
 40
38.1000000000000014
 49
25.3999999999999986
 74
0
 49
-12.6999999999999993
 74
0
  0
LTYPE
  5
42
100
AcDbSymbolTableRecord
100
AcDbLinetypeTableRecord
  2
DOT
 70
0
  3
Dot . . . . . . . . . . . . . . . . . . . . . .
 72
65
 73
2
 40
6.3499999999999996
 49
0.0
 74
0
 49
-6.3499999999999996
 74
0
  0
ENDTAB
  0
TABLE
  2
LAYER
  5
2
100
AcDbSymbolTable
 70
2
  0
LAYER
  5
43
100
AcDbSymbolTableRecord
100
AcDbLayerTableRecord
  2
PCB
 70
0
 62
5
420
255
  6
CONTINUOUS
370
0
390
F
  0
LAYER
  5
10
100
AcDbSymbolTableRecord
100
AcDbLayerTableRecord
  2
0
 70
0
 62
7
420
16777215
  6
CONTINUOUS
370
25
390
F
  0
ENDTAB
  0
TABLE
  2
STYLE
  5
3
100
AcDbSymbolTable
 70
0
  0
ENDTAB
  0
TABLE
  2
VIEW
  5
6
100
AcDbSymbolTable
 70
0
  0
ENDTAB
  0
TABLE
  2
UCS
  5
7
100
AcDbSymbolTable
 70
0
  0
ENDTAB
  0
TABLE
  2
APPID
  5
9
100
AcDbSymbolTable
 70
1
  0
APPID
  5
44
100
AcDbSymbolTableRecord
100
AcDbRegAppTableRecord
  2
QCAD
 70
0
  0
ENDTAB
  0
TABLE
  2
DIMSTYLE
  5
A
100
AcDbSymbolTable
 70
1
100
AcDbDimStyleTable
 71
0
  0
DIMSTYLE
105
27
100
AcDbSymbolTableRecord
100
AcDbDimStyleTableRecord
  2
Standard
 41
2.5
 42
0.625
 43
3.75
 44
1.25
 70
0
 73
0
 74
0
 77
1
 78
8
140
2.5
141
2.5
143
0.03937007874016
147
0.625
171
3
172
1
271
2
272
2
274
3
278
44
283
0
284
8
340
11
  0
ENDTAB
  0
TABLE
  2
BLOCK_RECORD
  5
1
100
AcDbSymbolTable
 70
1
  0
BLOCK_RECORD
  5
1F
100
AcDbSymbolTableRecord
100
AcDbBlockTableRecord
  2
*Model_Space
340
22
  0
BLOCK_RECORD
  5
1B
100
AcDbSymbolTableRecord
100
AcDbBlockTableRecord
  2
*Paper_Space
340
1E
  0
BLOCK_RECORD
  5
23
100
AcDbSymbolTableRecord
100
AcDbBlockTableRecord
  2
*Paper_Space0
340
26
  0
BLOCK_RECORD
  5
45
100
AcDbSymbolTableRecord
100
AcDbBlockTableRecord
  2
*MODEL_SPACE
340
0
  0
ENDTAB
  0
ENDSEC
  0
SECTION
  2
BLOCKS
  0
BLOCK
  5
20
100
AcDbEntity
  8
0
100
AcDbBlockBegin
  2
*MODEL_SPACE
 70
0
 10
0.0
 20
0.0
 30
0.0
  3
*MODEL_SPACE
  1

  0
ENDSEC
  0
SECTION
  2
ENTITIES
  0
ARC
  5
46
100
AcDbEntity
  8
PCB
 62
256
370
-1
  6
BYLAYER
100
AcDbCircle
 10
78.8517435430900377
 20
-16.8254011025228465
 30
0.0
 40
0.8250097356172332
100
AcDbArc
 50
89.9999759691576031
 51
180.0000240424841706
  0
ARC
  5
47
100
AcDbEntity
  8
PCB
 62
256
370
-1
  6
BYLAYER
100
AcDbCircle
 10
78.851742609094913
 20
-16.8254027285644838
 30
0.0
 40
0.8250113616599077
100
AcDbArc
 50
0.0000888991168573
 51
89.9999111046767553
  0
LINE
  5
48
100
AcDbEntity
100
AcDbLine
  8
PCB
 62
256
370
-1
  6
BYLAYER
 10
79.6767539707539072
 20
-16.825401448546188
 30
0.0
 11
79.6767539707539072
 21
-16.825401448546188
 31
0.0
  0
ARC
  5
49
100
AcDbEntity
  8
PCB
 62
256
370
-1
  6
BYLAYER
100
AcDbCircle
 10
78.2517885731240312
 20
-16.8254019943705657
 30
0.0
 40
0.8250097898194085
100
AcDbArc
 50
269.9999797334651248
 51
0.0000379137027178
  0
ARC
  5
4A
100
AcDbEntity
  8
PCB
 62
256
370
-1
  6
BYLAYER
100
AcDbCircle
 10
78.2517896155216022
 20
-16.8254003683303495
 30
0.0
 40
0.8250114158594505
100
AcDbArc
 50
180.0000750204251858
 51
269.9999073405874697
  0
ARC
  5
4B
100
AcDbEntity
  8
PCB
 62
256
370
-1
  6
BYLAYER
100
AcDbCircle
 10
78.251789561321857
 20
-16.8254027285644838
 30
0.0
 40
0.8250113616598292
100
AcDbArc
 50
90.000088895323259
 51
179.9999111008831392
  0
ARC
  5
4C
100
AcDbEntity
  8
PCB
 62
256
370
-1
  6
BYLAYER
100
AcDbCircle
 10
78.2517886273268459
 20
-16.8254011025228465
 30
0.0
 40
0.8250097356172196
100
AcDbArc
 50
359.9999759575158578
 51
90.0000240308423969
  0
LINE
  5
4D
100
AcDbEntity
100
AcDbLine
  8
PCB
 62
256
370
-1
  6
BYLAYER
 10
79.0767983629439186
 20
-16.825401448546188
 30
0.0
 11
79.0767983629439186
 21
-16.825401448546188
 31
0.0
  0
ARC
  5
4E
100
AcDbEntity
  8
PCB
 62
256
370
-1
  6
BYLAYER
100
AcDbCircle
 10
78.8517427717009696
 20
-9.5252969612862444
 30
0.0
 40
0.8250111990540111
100
AcDbArc
 50
270.0000776025981395
 51
359.9999223957796062
  0
ARC
  5
4F
100
AcDbEntity
  8
PCB
 62
256
370
-1
  6
BYLAYER
100
AcDbCircle
 10
78.8517433804842085
 20
-9.5252985873273701
 30
0.0
 40
0.8250095730115903
100
AcDbArc
 50
179.9999646739869377
 51
270.0000353235901684
  0
ARC
  5
50
100
AcDbEntity
  8
PCB
 62
256
370
-1
  6
BYLAYER
100
AcDbCircle
 10
78.8517435430900377
 20
-9.5252977326755968
 30
0.0
 40
0.8250097356172358
100
AcDbArc
 50
89.9999759691576031
 51
180.0000240424841706
  0
ARC
  5
51
100
AcDbEntity
  8
PCB
 62
256
370
-1
  6
BYLAYER
100
AcDbCircle
 10
78.851742609094913
 20
-9.5252993587172909
 30
0.0
 40
0.8250113616599077
100
AcDbArc
 50
0.0000888991168573
 51
89.9999111046767553
  0
LINE
  5
52
100
AcDbEntity
100
AcDbLine
  8
PCB
 62
256
370
-1
  6
BYLAYER
 10
79.6767539707539072
 20
-9.5252980786989383
 30
0.0
 11
79.6767539707539072
 21
-9.5252980786989383
 31
0.0
  0
ARC
  5
53
100
AcDbEntity
  8
PCB
 62
256
370
-1
  6
BYLAYER
100
AcDbCircle
 10
78.2517887899325615
 20
-9.5252985873273701
 30
0.0
 40
0.8250095730122671
100
AcDbArc
 50
269.9999646764098316
 51
0.0000353260130729
  0
ARC
  5
54
100
AcDbEntity
  8
PCB
 62
256
370
-1
  6
BYLAYER
100
AcDbCircle
 10
78.2517893987158004
 20
-9.5252969612862444
 30
0.0
 40
0.8250111990536254
100
AcDbArc
 50
180.0000776042204222
 51
269.9999223974031111
  0
ARC
  5
55
100
AcDbEntity
  8
PCB
 62
256
370
-1
  6
BYLAYER
100
AcDbCircle
 10
78.251789561321857
 20
-9.5252993587172909
 30
0.0
 40
0.8250113616598292
100
AcDbArc
 50
90.000088895323259
 51
179.9999111008831392
  0
ARC
  5
56
100
AcDbEntity
  8
PCB
 62
256
370
-1
  6
BYLAYER
100
AcDbCircle
 10
78.2517886273268459
 20
-9.5252977326755968
 30
0.0
 40
0.8250097356172196
100
AcDbArc
 50
359.9999759575158578
 51
90.0000240308423969
  0
LINE
  5
57
100
AcDbEntity
100
AcDbLine
  8
PCB
 62
256
370
-1
  6
BYLAYER
 10
79.0767983629439186
 20
-9.5252980786989383
 30
0.0
 11
79.0767983629439186
 21
-9.5252980786989383
 31
0.0
  0
ARC
  5
58
100
AcDbEntity
  8
PCB
 62
256
370
-1
  6
BYLAYER
100
AcDbCircle
 10
77.6515775528602035
 20
-9.5252969612862444
 30
0.0
 40
0.8250111990540111
100
AcDbArc
 50
270.0000776025981395
 51
359.9999223957796062
  0
ARC
  5
59
100
AcDbEntity
  8
PCB
 62
256
370
-1
  6
BYLAYER
100
AcDbCircle
 10
77.6515781616434424
 20
-9.5252985873273701
 30
0.0
 40
0.8250095730115903
100
AcDbArc
 50
179.9999646739869377
 51
270.0000353235901684
  0
ARC
  5
5A
100
AcDbEntity
  8
PCB
 62
256
370
-1
  6
BYLAYER
100
AcDbCircle
 10
77.651578324249158
 20
-9.5252977326755968
 30
0.0
 40
0.8250097356172287
100
AcDbArc
 50
89.9999759691576031
 51
180.0000240424841706
  0
ARC
  5
5B
100
AcDbEntity
  8
PCB
 62
256
370
-1
  6
BYLAYER
100
AcDbCircle
 10
77.6515773902541468
 20
-9.5252993587172909
 30
0.0
 40
0.8250113616599167
100
AcDbArc
 50
0.0000888909169664
 51
89.9999111046760873
  0
LINE
  5
5C
100
AcDbEntity
100
AcDbLine
  8
PCB
 62
256
370
-1
  6
BYLAYER
 10
78.4765887519130274
 20
-9.5252980786989383
 30
0.0
 11
78.4765887519130274
 21
-9.5252980786989383
 31
0.0
  0
ARC
  5
5D
100
AcDbEntity
  8
PCB
 62
256
370
-1
  6
BYLAYER
100
AcDbCircle
 10
30.4811466736997545
 20
-39.3707513994111196
 30
0.0
 40
0.6750103257357023
100
AcDbArc
 50
270.0001567083833152
 51
359.9998432889227615
  0
ARC
  5
5E
100
AcDbEntity
  8
PCB
 62
256
370
-1
  6
BYLAYER
100
AcDbCircle
 10
30.4811487400646683
 20
-39.3707530254575317
 30
0.0
 40
0.6750086996865112
100
AcDbArc
 50
180.0000187052434057
 51
269.999981312523289
  0
ARC
  5
5F
100
AcDbEntity
  8
PCB
 62
256
370
-1
  6
BYLAYER
100
AcDbCircle
 10
30.4811471140278627
 20
-39.3707518397400236
 30
0.0
 40
0.6750070736511706
100
AcDbArc
 50
89.9998806666812072
 51
180.0001193330026297
  0
ARC
  5
60
100
AcDbEntity
  8
PCB
 62
256
370
-1
  6
BYLAYER
100
AcDbCircle
 10
30.4811482997470193
 20
-39.3707534657756355
 30
0.0
 40
0.6750086996851622
100
AcDbArc
 50
0.0000187052434022
 51
89.9999813126378285
  0
LINE
  5
61
100
AcDbEntity
100
AcDbLine
  8
PCB
 62
256
370
-1
  6
BYLAYER
 10
31.1561569994321417
 20
-39.3707532456173226
 30
0.0
 11
31.1561569994321417
 21
-39.3707532456173226
 31
0.0
  0
ARC
  5
62
100
AcDbEntity
  8
PCB
 62
256
370
-1
  6
BYLAYER
100
AcDbCircle
 10
27.941114464512907
 20
-39.3707513994111196
 30
0.0
 40
0.6750103257357023
100
AcDbArc
 50
270.0001567083833152
 51
359.9998432889227615
  0
ARC
  5
63
100
AcDbEntity
  8
PCB
 62
256
370
-1
  6
BYLAYER
100
AcDbCircle
 10
27.9411165308778209
 20
-39.3707530254575317
 30
0.0
 40
0.6750086996865112
100
AcDbArc
 50
180.0000187052434057
 51
269.999981312523289
  0
ARC
  5
64
100
AcDbEntity
  8
PCB
 62
256
370
-1
  6
BYLAYER
100
AcDbCircle
 10
27.9411149048410152
 20
-39.3707518397400236
 30
0.0
 40
0.6750070736511706
100
AcDbArc
 50
89.9998806666812072
 51
180.0001193330026297
  0
ARC
  5
65
100
AcDbEntity
  8
PCB
 62
256
370
-1
  6
BYLAYER
100
AcDbCircle
 10
27.9411160905601719
 20
-39.3707534657756355
 30
0.0
 40
0.6750086996851665
100
AcDbArc
 50
0.0000186662334674
 51
89.9999813126374306
  0
LINE
  5
66
100
AcDbEntity
100
AcDbLine
  8
PCB
 62
256
370
-1
  6
BYLAYER
 10
28.6161247902452942
 20
-39.3707532456173226
 30
0.0
 11
28.6161247902452942
 21
-39.3707532456173226
 31
0.0
  0
ARC
  5
67
100
AcDbEntity
  8
PCB
 62
256
370
-1
  6
BYLAYER
100
AcDbCircle
 10
25.4010822553260596
 20
-39.3707513994111196
 30
0.0
 40
0.6750103257357023
100
AcDbArc
 50
270.0001567083833152
 51
359.9998432889227615
  0
ARC
  5
68
100
AcDbEntity
  8
PCB
 62
256
370
-1
  6
BYLAYER
100
AcDbCircle
 10
25.4010845725050558
 20
-39.3707522666364298
 30
0.0
 40
0.6750094585078156
100
AcDbArc
 50
180.0000830972236088
 51
269.9999600230731289
  0
ARC
  5
69
100
AcDbEntity
  8
PCB
 62
256
370
-1
  6
BYLAYER
100
AcDbCircle
 10
25.4010829464647259
 20
-39.3707525985558391
 30
0.0
 40
0.6750078324664692
100
AcDbArc
 50
89.9999019560299303
 51
180.0000549209433416
  0
ARC
  5
6A
100
AcDbEntity
  8
PCB
 62
256
370
-1
  6
BYLAYER
100
AcDbCircle
 10
25.4010838813733244
 20
-39.3707534657756355
 30
0.0
 40
0.6750086996851665
100
AcDbArc
 50
0.0000186662334674
 51
89.9999813126374306
  0
LINE
  5
6B
100
AcDbEntity
100
AcDbLine
  8
PCB
 62
256
370
-1
  6
BYLAYER
 10
26.0760925810584467
 20
-39.3707532456173226
 30
0.0
 11
26.0760925810584467
 21
-39.3707532456173226
 31
0.0
  0
ARC
  5
6C
100
AcDbEntity
  8
PCB
 62
256
370
-1
  6
BYLAYER
100
AcDbCircle
 10
22.8609735507861842
 20
-39.3707523750414907
 30
0.0
 40
0.6750093501033853
100
AcDbArc
 50
270.0000738957663202
 51
359.9999261054099975
  0
ARC
  5
6D
100
AcDbEntity
  8
PCB
 62
256
370
-1
  6
BYLAYER
100
AcDbCircle
 10
22.8609754545437909
 20
-39.3707522124354909
 30
0.0
 40
0.6750095127093789
100
AcDbArc
 50
180.0000876938172496
 51
269.9999123020580782
  0
ARC
  5
6E
100
AcDbEntity
  8
PCB
 62
256
370
-1
  6
BYLAYER
100
AcDbCircle
 10
22.8609738285028925
 20
-39.3707526527579716
 30
0.0
 40
0.6750078866679169
100
AcDbArc
 50
89.9999496771263949
 51
180.0000503219720258
  0
ARC
  5
6F
100
AcDbEntity
  8
PCB
 62
256
370
-1
  6
BYLAYER
100
AcDbCircle
 10
22.8609751768256046
 20
-39.3707524901541888
 30
0.0
 40
0.6750077240639507
100
AcDbArc
 50
359.9999358759719712
 51
90.0000641249964985
  0
LINE
  5
70
100
AcDbEntity
100
AcDbLine
  8
PCB
 62
256
370
-1
  6
BYLAYER
 10
23.5359829008891666
 20
-39.3707532456173226
 30
0.0
 11
23.5359829008891666
 21
-39.3707532456173226
 31
0.0
  0
ARC
  5
71
100
AcDbEntity
  8
PCB
 62
256
370
-1
  6
BYLAYER
100
AcDbCircle
 10
20.3209426116153509
 20
-39.3707523750414907
 30
0.0
 40
0.6750093501033946
100
AcDbArc
 50
270.0000738957659792
 51
359.9999260955461864
  0
ARC
  5
72
100
AcDbEntity
  8
PCB
 62
256
370
-1
  6
BYLAYER
100
AcDbCircle
 10
20.3209445153730712
 20
-39.3707522124354909
 30
0.0
 40
0.6750095127093814
100
AcDbArc
 50
180.0000877021290364
 51
269.9999123020578509
  0
ARC
  5
73
100
AcDbEntity
  8
PCB
 62
256
370
-1
  6
BYLAYER
100
AcDbCircle
 10
20.3209428893312634
 20
-39.3707526527574032
 30
0.0
 40
0.675007886667344
100
AcDbArc
 50
89.9999496770587371
 51
180.0000503219720258
  0
ARC
  5
74
100
AcDbEntity
  8
PCB
 62
256
370
-1
  6
BYLAYER
100
AcDbCircle
 10
20.320944237654885
 20
-39.3707524901541888
 30
0.0
 40
0.6750077240639437
100
AcDbArc
 50
359.9999358759719712
 51
90.0000641249970954
  0
LINE
  5
75
100
AcDbEntity
100
AcDbLine
  8
PCB
 62
256
370
-1
  6
BYLAYER
 10
20.9959519617184469
 20
-39.3707532456173226
 30
0.0
 11
20.9959519617184469
 21
-39.3707532456173226
 31
0.0
  0
ARC
  5
76
100
AcDbEntity
  8
PCB
 62
256
370
-1
  6
BYLAYER
100
AcDbCircle
 10
17.7809104024283897
 20
-39.3707523750412065
 30
0.0
 40
0.6750093501036717
100
AcDbArc
 50
270.0000738957759836
 51
359.9999261054099975
  0
ARC
  5
77
100
AcDbEntity
  8
PCB
 62
256
370
-1
  6
BYLAYER
100
AcDbCircle
 10
17.7809123061861101
 20
-39.3707522124354909
 30
0.0
 40
0.6750095127093765
100
AcDbArc
 50
180.0000876938172496
 51
269.9999123020582488
  0
ARC
  5
78
100
AcDbEntity
  8
PCB
 62
256
370
-1
  6
BYLAYER
100
AcDbCircle
 10
17.7809106801444159
 20
-39.3707526527574032
 30
0.0
 40
0.6750078866673533
100
AcDbArc
 50
89.9999496770587371
 51
180.0000503219720258
  0
ARC
  5
79
100
AcDbEntity
  8
PCB
 62
256
370
-1
  6
BYLAYER
100
AcDbCircle
 10
17.7809120284680375
 20
-39.3707524901541888
 30
0.0
 40
0.6750077240639415
100
AcDbArc
 50
359.9999358759719712
 51
90.0000641249972659
  0
LINE
  5
7A
100
AcDbEntity
100
AcDbLine
  8
PCB
 62
256
370
-1
  6
BYLAYER
 10
18.4559197525315994
 20
-39.3707532456173226
 30
0.0
 11
18.4559197525315994
 21
-39.3707532456173226
 31
0.0
  0
ARC
  5
7B
100
AcDbEntity
  8
PCB
 62
256
370
-1
  6
BYLAYER
100
AcDbCircle
 10
15.2408781932415422
 20
-39.3707523750412065
 30
0.0
 40
0.6750093501036717
100
AcDbArc
 50
270.0000738957759836
 51
359.9999261054099975
  0
ARC
  5
7C
100
AcDbEntity
  8
PCB
 62
256
370
-1
  6
BYLAYER
100
AcDbCircle
 10
15.2408800969992626
 20
-39.3707522124354909
 30
0.0
 40
0.6750095127093765
100
AcDbArc
 50
180.0000876938172496
 51
269.9999123020582488
  0
ARC
  5
7D
100
AcDbEntity
  8
PCB
 62
256
370
-1
  6
BYLAYER
100
AcDbCircle
 10
15.2408784709575684
 20
-39.3707526527574032
 30
0.0
 40
0.675007886667344
100
AcDbArc
 50
89.9999496770587371
 51
180.0000503219720258
  0
ARC
  5
7E
100
AcDbEntity
  8
PCB
 62
256
370
-1
  6
BYLAYER
100
AcDbCircle
 10
15.2408798192811901
 20
-39.3707524901541888
 30
0.0
 40
0.6750077240639391
100
AcDbArc
 50
359.9999358759719712
 51
90.0000641249974649
  0
LINE
  5
7F
100
AcDbEntity
100
AcDbLine
  8
PCB
 62
256
370
-1
  6
BYLAYER
 10
15.9158875433446383
 20
-39.3707532456173226
 30
0.0
 11
15.9158875433446383
 21
-39.3707532456173226
 31
0.0
  0
ARC
  5
80
100
AcDbEntity
  8
PCB
 62
256
370
-1
  6
BYLAYER
100
AcDbCircle
 10
12.7008459840546948
 20
-39.3707523750412065
 30
0.0
 40
0.6750093501036717
100
AcDbArc
 50
270.0000738957757562
 51
359.9999260955461864
  0
ARC
  5
81
100
AcDbEntity
  8
PCB
 62
256
370
-1
  6
BYLAYER
100
AcDbCircle
 10
12.7008478878124151
 20
-39.3707522124354909
 30
0.0
 40
0.6750095127093814
100
AcDbArc
 50
180.0000877021290364
 51
269.9999123020578509
  0
ARC
  5
82
100
AcDbEntity
  8
PCB
 62
256
370
-1
  6
BYLAYER
100
AcDbCircle
 10
12.700846261770721
 20
-39.3707526527574032
 30
0.0
 40
0.6750078866673533
100
AcDbArc
 50
89.9999496770587371
 51
180.0000503219720258
  0
ARC
  5
83
100
AcDbEntity
  8
PCB
 62
256
370
-1
  6
BYLAYER
100
AcDbCircle
 10
12.7008476100943426
 20
-39.3707524901541888
 30
0.0
 40
0.6750077240639391
100
AcDbArc
 50
359.9999358759719712
 51
90.0000641249974649
  0
LINE
  5
84
100
AcDbEntity
100
AcDbLine
  8
PCB
 62
256
370
-1
  6
BYLAYER
 10
13.3758553341577908
 20
-39.3707532456173226
 30
0.0
 11
13.3758553341577908
 21
-39.3707532456173226
 31
0.0
  0
ARC
  5
85
100
AcDbEntity
  8
PCB
 62
256
370
-1
  6
BYLAYER
100
AcDbCircle
 10
10.1608137748678473
 20
-39.3707523750412065
 30
0.0
 40
0.6750093501036717
100
AcDbArc
 50
270.0000738957757562
 51
359.9999260955461864
  0
ARC
  5
86
100
AcDbEntity
  8
PCB
 62
256
370
-1
  6
BYLAYER
100
AcDbCircle
 10
10.1608156786256814
 20
-39.3707522124353204
 30
0.0
 40
0.6750095127094354
100
AcDbArc
 50
180.0000876938172496
 51
269.9999123020533602
  0
ARC
  5
87
100
AcDbEntity
  8
PCB
 62
256
370
-1
  6
BYLAYER
100
AcDbCircle
 10
10.1608140525838735
 20
-39.3707526527574032
 30
0.0
 40
0.675007886667344
100
AcDbArc
 50
89.9999496770583391
 51
180.0000503219720258
  0
ARC
  5
88
100
AcDbEntity
  8
PCB
 62
256
370
-1
  6
BYLAYER
100
AcDbCircle
 10
10.1608154009073814
 20
-39.3707524901541888
 30
0.0
 40
0.6750077240639415
100
AcDbArc
 50
359.9999358759719712
 51
90.0000641249972659
  0
LINE
  5
89
100
AcDbEntity
100
AcDbLine
  8
PCB
 62
256
370
-1
  6
BYLAYER
 10
10.8358231249709434
 20
-39.3707532456173226
 30
0.0
 11
10.8358231249709434
 21
-39.3707532456173226
 31
0.0
  0
ARC
  5
8A
100
AcDbEntity
  8
PCB
 62
256
370
-1
  6
BYLAYER
100
AcDbCircle
 10
30.4811466736997545
 20
-41.9107836085980239
 30
0.0
 40
0.6750103257357023
100
AcDbArc
 50
270.0001567083833152
 51
359.9998432889227615
  0
ARC
  5
8B
100
AcDbEntity
  8
PCB
 62
256
370
-1
  6
BYLAYER
100
AcDbCircle
 10
30.4811487400646683
 20
-41.9107852346444361
 30
0.0
 40
0.6750086996865112
100
AcDbArc
 50
180.0000187052434057
 51
269.999981312523289
  0
ARC
  5
8C
100
AcDbEntity
  8
PCB
 62
256
370
-1
  6
BYLAYER
100
AcDbCircle
 10
30.4811471140278627
 20
-41.9107840489269279
 30
0.0
 40
0.6750070736511706
100
AcDbArc
 50
89.9998806666812072
 51
180.0001193330026297
  0
ARC
  5
8D
100
AcDbEntity
  8
PCB
 62
256
370
-1
  6
BYLAYER
100
AcDbCircle
 10
30.4811482997464509
 20
-41.9107856749639041
 30
0.0
 40
0.6750086996857304
100
AcDbArc
 50
0.0000187052434022
 51
89.9999813125895827
  0
LINE
  5
8E
100
AcDbEntity
100
AcDbLine
  8
PCB
 62
256
370
-1
  6
BYLAYER
 10
31.1561569994321417
 20
-41.9107854548041701
 30
0.0
 11
31.1561569994321417
 21
-41.9107854548041701
 31
0.0
  0
ARC
  5
8F
100
AcDbEntity
  8
PCB
 62
256
370
-1
  6
BYLAYER
100
AcDbCircle
 10
27.941114464512907
 20
-41.9107836085980239
 30
0.0
 40
0.6750103257357023
100
AcDbArc
 50
270.0001567083833152
 51
359.9998432889227615
  0
ARC
  5
90
100
AcDbEntity
  8
PCB
 62
256
370
-1
  6
BYLAYER
100
AcDbCircle
 10
27.9411165308778209
 20
-41.9107852346444361
 30
0.0
 40
0.6750086996865112
100
AcDbArc
 50
180.0000187052434057
 51
269.999981312523289
  0
ARC
  5
91
100
AcDbEntity
  8
PCB
 62
256
370
-1
  6
BYLAYER
100
AcDbCircle
 10
27.9411149048410152
 20
-41.9107840489269279
 30
0.0
 40
0.6750070736511706
100
AcDbArc
 50
89.9998806666808235
 51
180.0001193330026297
  0
ARC
  5
92
100
AcDbEntity
  8
PCB
 62
256
370
-1
  6
BYLAYER
100
AcDbCircle
 10
27.9411160905596034
 20
-41.9107856749639041
 30
0.0
 40
0.6750086996857396
100
AcDbArc
 50
0.0000187052434022
 51
89.9999813125888153
  0
LINE
  5
93
100
AcDbEntity
100
AcDbLine
  8
PCB
 62
256
370
-1
  6
BYLAYER
 10
28.6161247902452942
 20
-41.9107854548041701
 30
0.0
 11
28.6161247902452942
 21
-41.9107854548041701
 31
0.0
  0
ARC
  5
94
100
AcDbEntity
  8
PCB
 62
256
370
-1
  6
BYLAYER
100
AcDbCircle
 10
25.4010822553260596
 20
-41.9107836085980239
 30
0.0
 40
0.6750103257357023
100
AcDbArc
 50
270.0001567083833152
 51
359.9998432889227615
  0
ARC
  5
95
100
AcDbEntity
  8
PCB
 62
256
370
-1
  6
BYLAYER
100
AcDbCircle
 10
25.4010845725050558
 20
-41.9107844758232773
 30
0.0
 40
0.6750094585078156
100
AcDbArc
 50
180.0000830972236088
 51
269.9999600230731289
  0
ARC
  5
96
100
AcDbEntity
  8
PCB
 62
256
370
-1
  6
BYLAYER
100
AcDbCircle
 10
25.4010829464652943
 20
-41.9107848077440508
 30
0.0
 40
0.6750078324678369
100
AcDbArc
 50
89.9999019560777782
 51
180.0000549209433416
  0
ARC
  5
97
100
AcDbEntity
  8
PCB
 62
256
370
-1
  6
BYLAYER
100
AcDbCircle
 10
25.401083881372756
 20
-41.9107856749639041
 30
0.0
 40
0.6750086996857441
100
AcDbArc
 50
0.0000186662334674
 51
89.9999813125884174
  0
LINE
  5
98
100
AcDbEntity
100
AcDbLine
  8
PCB
 62
256
370
-1
  6
BYLAYER
 10
26.0760925810584467
 20
-41.9107854548041701
 30
0.0
 11
26.0760925810584467
 21
-41.9107854548041701
 31
0.0
  0
ARC
  5
99
100
AcDbEntity
  8
PCB
 62
256
370
-1
  6
BYLAYER
100
AcDbCircle
 10
22.8609735507861842
 20
-41.9107845842283382
 30
0.0
 40
0.6750093501033853
100
AcDbArc
 50
270.0000738957663202
 51
359.9999261054099975
  0
ARC
  5
9A
100
AcDbEntity
  8
PCB
 62
256
370
-1
  6
BYLAYER
100
AcDbCircle
 10
22.8609754545437909
 20
-41.9107844216223384
 30
0.0
 40
0.6750095127093789
100
AcDbArc
 50
180.0000876938172496
 51
269.9999123020580782
  0
ARC
  5
9B
100
AcDbEntity
  8
PCB
 62
256
370
-1
  6
BYLAYER
100
AcDbCircle
 10
22.8609738285028925
 20
-41.910784861944876
 30
0.0
 40
0.6750078866679169
100
AcDbArc
 50
89.9999496771263949
 51
180.0000503219720258
  0
ARC
  5
9C
100
AcDbEntity
  8
PCB
 62
256
370
-1
  6
BYLAYER
100
AcDbCircle
 10
22.8609751768261731
 20
-41.910784699339672
 30
0.0
 40
0.6750077240633869
100
AcDbArc
 50
359.9999358759719712
 51
90.0000641250443607
  0
LINE
  5
9D
100
AcDbEntity
100
AcDbLine
  8
PCB
 62
256
370
-1
  6
BYLAYER
 10
23.5359829008891666
 20
-41.9107854548041701
 30
0.0
 11
23.5359829008891666
 21
-41.9107854548041701
 31
0.0
  0
ARC
  5
9E
100
AcDbEntity
  8
PCB
 62
256
370
-1
  6
BYLAYER
100
AcDbCircle
 10
20.3209426116153509
 20
-41.9107845842283382
 30
0.0
 40
0.6750093501033853
100
AcDbArc
 50
270.0000738957659792
 51
359.9999260955461864
  0
ARC
  5
9F
100
AcDbEntity
  8
PCB
 62
256
370
-1
  6
BYLAYER
100
AcDbCircle
 10
20.3209445153730712
 20
-41.9107844216223384
 30
0.0
 40
0.6750095127093814
100
AcDbArc
 50
180.0000877021290364
 51
269.9999123020578509
  0
ARC
  5
A0
100
AcDbEntity
  8
PCB
 62
256
370
-1
  6
BYLAYER
100
AcDbCircle
 10
20.3209428893312634
 20
-41.9107848619443075
 30
0.0
 40
0.6750078866673533
100
AcDbArc
 50
89.9999496770587371
 51
180.0000503219720258
  0
ARC
  5
A1
100
AcDbEntity
  8
PCB
 62
256
370
-1
  6
BYLAYER
100
AcDbCircle
 10
20.3209442376554534
 20
-41.910784699339672
 30
0.0
 40
0.6750077240633707
100
AcDbArc
 50
359.9999358759719712
 51
90.0000641250457107
  0
LINE
  5
A2
100
AcDbEntity
100
AcDbLine
  8
PCB
 62
256
370
-1
  6
BYLAYER
 10
20.9959519617184469
 20
-41.9107854548041701
 30
0.0
 11
20.9959519617184469
 21
-41.9107854548041701
 31
0.0
  0
ARC
  5
A3
100
AcDbEntity
  8
PCB
 62
256
370
-1
  6
BYLAYER
100
AcDbCircle
 10
17.7809104024283897
 20
-41.910784584228054
 30
0.0
 40
0.6750093501036717
100
AcDbArc
 50
270.0000738957759836
 51
359.9999261054099975
  0
ARC
  5
A4
100
AcDbEntity
  8
PCB
 62
256
370
-1
  6
BYLAYER
100
AcDbCircle
 10
17.7809123061861101
 20
-41.9107844216223384
 30
0.0
 40
0.6750095127093765
100
AcDbArc
 50
180.0000876938172496
 51
269.9999123020582488
  0
ARC
  5
A5
100
AcDbEntity
  8
PCB
 62
256
370
-1
  6
BYLAYER
100
AcDbCircle
 10
17.7809106801444159
 20
-41.9107848619443075
 30
0.0
 40
0.675007886667344
100
AcDbArc
 50
89.9999496770587371
 51
180.0000503219720258
  0
ARC
  5
A6
100
AcDbEntity
  8
PCB
 62
256
370
-1
  6
BYLAYER
100
AcDbCircle
 10
17.780912028468606
 20
-41.910784699339672
 30
0.0
 40
0.6750077240633731
100
AcDbArc
 50
359.9999358759719712
 51
90.0000641250455118
  0
LINE
  5
A7
100
AcDbEntity
100
AcDbLine
  8
PCB
 62
256
370
-1
  6
BYLAYER
 10
18.4559197525315994
 20
-41.9107854548041701
 30
0.0
 11
18.4559197525315994
 21
-41.9107854548041701
 31
0.0
  0
ARC
  5
A8
100
AcDbEntity
  8
PCB
 62
256
370
-1
  6
BYLAYER
100
AcDbCircle
 10
15.2408781932415422
 20
-41.910784584228054
 30
0.0
 40
0.6750093501036717
100
AcDbArc
 50
270.0000738957759836
 51
359.9999261054099975
  0
ARC
  5
A9
100
AcDbEntity
  8
PCB
 62
256
370
-1
  6
BYLAYER
100
AcDbCircle
 10
15.2408800969992626
 20
-41.9107844216223384
 30
0.0
 40
0.6750095127093765
100
AcDbArc
 50
180.0000876938172496
 51
269.9999123020582488
  0
ARC
  5
AA
100
AcDbEntity
  8
PCB
 62
256
370
-1
  6
BYLAYER
100
AcDbCircle
 10
15.2408784709575684
 20
-41.9107848619443075
 30
0.0
 40
0.6750078866673533
100
AcDbArc
 50
89.9999496770587371
 51
180.0000503219720258
  0
ARC
  5
AB
100
AcDbEntity
  8
PCB
 62
256
370
-1
  6
BYLAYER
100
AcDbCircle
 10
15.2408798192817585
 20
-41.910784699339672
 30
0.0
 40
0.6750077240633731
100
AcDbArc
 50
359.9999358759719712
 51
90.0000641250455118
  0
LINE
  5
AC
100
AcDbEntity
100
AcDbLine
  8
PCB
 62
256
370
-1
  6
BYLAYER
 10
15.9158875433446383
 20
-41.9107854548041701
 30
0.0
 11
15.9158875433446383
 21
-41.9107854548041701
 31
0.0
  0
ARC
  5
AD
100
AcDbEntity
  8
PCB
 62
256
370
-1
  6
BYLAYER
100
AcDbCircle
 10
12.7008459840546948
 20
-41.910784584228054
 30
0.0
 40
0.6750093501036717
100
AcDbArc
 50
270.0000738957757562
 51
359.9999260955461864
  0
ARC
  5
AE
100
AcDbEntity
  8
PCB
 62
256
370
-1
  6
BYLAYER
100
AcDbCircle
 10
12.7008478878124151
 20
-41.9107844216223384
 30
0.0
 40
0.6750095127093814
100
AcDbArc
 50
180.0000877021290364
 51
269.9999123020578509
  0
ARC
  5
AF
100
AcDbEntity
  8
PCB
 62
256
370
-1
  6
BYLAYER
100
AcDbCircle
 10
12.700846261770721
 20
-41.9107848619443075
 30
0.0
 40
0.675007886667344
100
AcDbArc
 50
89.9999496770585523
 51
180.0000503364552742
  0
ARC
  5
B0
100
AcDbEntity
  8
PCB
 62
256
370
-1
  6
BYLAYER
100
AcDbCircle
 10
12.700847610094911
 20
-41.910784699339672
 30
0.0
 40
0.6750077240633755
100
AcDbArc
 50
359.9999358759719712
 51
90.000064125045327
  0
LINE
  5
B1
100
AcDbEntity
100
AcDbLine
  8
PCB
 62
256
370
-1
  6
BYLAYER
 10
13.3758553341577908
 20
-41.9107854548041701
 30
0.0
 11
13.3758553341577908
 21
-41.9107854548041701
 31
0.0
  0
ARC
  5
B2
100
AcDbEntity
  8
PCB
 62
256
370
-1
  6
BYLAYER
100
AcDbCircle
 10
10.1608137748678473
 20
-41.910784584228054
 30
0.0
 40
0.6750093501036717
100
AcDbArc
 50
270.0000738957757562
 51
359.9999260955461864
  0
ARC
  5
B3
100
AcDbEntity
  8
PCB
 62
256
370
-1
  6
BYLAYER
100
AcDbCircle
 10
10.1608156786256814
 20
-41.9107844216221679
 30
0.0
 40
0.6750095127094401
100
AcDbArc
 50
180.0000877021290364
 51
269.9999123020529623
  0
ARC
  5
B4
100
AcDbEntity
  8
PCB
 62
256
370
-1
  6
BYLAYER
100
AcDbCircle
 10
10.1608140525838735
 20
-41.9107848619443075
 30
0.0
 40
0.6750078866673533
100
AcDbArc
 50
89.9999496770583391
 51
180.0000503219720258
  0
ARC
  5
B5
100
AcDbEntity
  8
PCB
 62
256
370
-1
  6
BYLAYER
100
AcDbCircle
 10
10.1608154009080636
 20
-41.910784699339672
 30
0.0
 40
0.6750077240633707
100
AcDbArc
 50
359.9999358759719712
 51
90.0000641250457107
  0
LINE
  5
B6
100
AcDbEntity
100
AcDbLine
  8
PCB
 62
256
370
-1
  6
BYLAYER
 10
10.8358231249709434
 20
-41.9107854548041701
 30
0.0
 11
10.8358231249709434
 21
-41.9107854548041701
 31
0.0
  0
ARC
  5
B7
100
AcDbEntity
  8
PCB
 62
256
370
-1
  6
BYLAYER
100
AcDbCircle
 10
7.6207815656809998
 20
-39.370752375041377
 30
0.0
 40
0.6750093501035238
100
AcDbArc
 50
270.0000738957708109
 51
359.9999261054099975
  0
ARC
  5
B8
100
AcDbEntity
  8
PCB
 62
256
370
-1
  6
BYLAYER
100
AcDbCircle
 10
7.6207834694387202
 20
-39.3707522124353204
 30
0.0
 40
0.6750095127094411
100
AcDbArc
 50
180.0000876938172496
 51
269.9999123020528486
  0
ARC
  5
B9
100
AcDbEntity
  8
PCB
 62
256
370
-1
  6
BYLAYER
100
AcDbCircle
 10
7.620781843397026
 20
-39.3707526527574032
 30
0.0
 40
0.6750078866673533
100
AcDbArc
 50
89.9999496770582539
 51
180.0000503219720258
  0
ARC
  5
BA
100
AcDbEntity
  8
PCB
 62
256
370
-1
  6
BYLAYER
100
AcDbCircle
 10
7.6207831917209887
 20
-39.3707524901539045
 30
0.0
 40
0.6750077240635372
100
AcDbArc
 50
359.9999358759719712
 51
90.0000641250316846
  0
LINE
  5
BB
100
AcDbEntity
100
AcDbLine
  8
PCB
 62
256
370
-1
  6
BYLAYER
 10
8.2957909157840959
 20
-39.3707532456173226
 30
0.0
 11
8.2957909157840959
 21
-39.3707532456173226
 31
0.0
  0
ARC
  5
BC
100
AcDbEntity
  8
PCB
 62
256
370
-1
  6
BYLAYER
100
AcDbCircle
 10
7.6207815656809998
 20
-41.9107845842282245
 30
0.0
 40
0.6750093501035238
100
AcDbArc
 50
270.0000738957709814
 51
359.9999261054099975
  0
ARC
  5
BD
100
AcDbEntity
  8
PCB
 62
256
370
-1
  6
BYLAYER
100
AcDbCircle
 10
7.6207834694387202
 20
-41.9107844216221679
 30
0.0
 40
0.6750095127094379
100
AcDbArc
 50
180.0000877021290364
 51
269.999912302053076
  0
ARC
  5
BE
100
AcDbEntity
  8
PCB
 62
256
370
-1
  6
BYLAYER
100
AcDbCircle
 10
7.620781843397026
 20
-41.9107848619443075
 30
0.0
 40
0.675007886667344
100
AcDbArc
 50
89.9999496770583391
 51
180.0000503219720258
  0
ARC
  5
BF
100
AcDbEntity
  8
PCB
 62
256
370
-1
  6
BYLAYER
100
AcDbCircle
 10
7.6207831917215572
 20
-41.9107846993393878
 30
0.0
 40
0.6750077240629631
100
AcDbArc
 50
359.9999358759719712
 51
90.0000641250804279
  0
LINE
  5
C0
100
AcDbEntity
100
AcDbLine
  8
PCB
 62
256
370
-1
  6
BYLAYER
 10
8.2957909157840959
 20
-41.9107854548041701
 30
0.0
 11
8.2957909157840959
 21
-41.9107854548041701
 31
0.0
  0
LINE
  5
C1
100
AcDbEntity
100
AcDbLine
  8
PCB
 62
256
370
-1
  6
BYLAYER
 10
80.0008544605494762
 20
0.0
 30
0.0
 11
0.0
 21
0.0
 31
0.0
  0
LINE
  5
C2
100
AcDbEntity
100
AcDbLine
  8
PCB
 62
256
370
-1
  6
BYLAYER
 10
0.0
 20
0.0
 30
0.0
 11
0.0
 21
-43.9984379275348942
 31
0.0
  0
LINE
  5
C3
100
AcDbEntity
100
AcDbLine
  8
PCB
 62
256
370
-1
  6
BYLAYER
 10
80.0008544605494762
 20
-43.9984379275348942
 30
0.0
 11
80.0008544605494762
 21
0.0
 31
0.0
  0
LINE
  5
C4
100
AcDbEntity
100
AcDbLine
  8
PCB
 62
256
370
-1
  6
BYLAYER
 10
0.0
 20
-43.9984379275348942
 30
0.0
 11
80.0008544605494762
 21
-43.9984379275348942
 31
0.0
  0
ARC
  5
C5
100
AcDbEntity
  8
PCB
 62
256
370
-1
  6
BYLAYER
100
AcDbCircle
 10
0.000680717030491
 20
-0.0001854107496797
 30
0.0
 40
0.0016660187276582
100
AcDbArc
 50
270.0003989891537799
 51
359.9996010108296218
  0
ARC
  5
C6
100
AcDbEntity
  8
PCB
 62
256
370
-1
  6
BYLAYER
100
AcDbCircle
 10
0.0006807202535128
 20
-0.0001854053294892
 30
0.0
 40
0.0016660241478335
100
AcDbArc
 50
180.0005853924392056
 51
270.0002881454878434
  0
ARC
  5
C7
100
AcDbEntity
  8
PCB
 62
256
370
-1
  6
BYLAYER
100
AcDbCircle
 10
0.0006807256735328
 20
-0.0001854193927784
 30
0.0
 40
0.0016660295677955
100
AcDbArc
 50
89.9998982541488033
 51
180.0001017460362505
  0
ARC
  5
C8
100
AcDbEntity
  8
PCB
 62
256
370
-1
  6
BYLAYER
100
AcDbCircle
 10
0.0006807116102436
 20
-0.0001854139727016
 30
0.0
 40
0.0016660241478339
100
AcDbArc
 50
359.9997118555051543
 51
89.9994146076981139
  0
LINE
  5
C9
100
AcDbEntity
100
AcDbLine
  8
PCB
 62
256
370
-1
  6
BYLAYER
 10
0.0023467357581239
 20
-0.0001854223513078
 30
0.0
 11
0.0023467357581239
 21
-0.0001854223513078
 31
0.0
  0
LINE
  5
CA
100
AcDbEntity
100
AcDbLine
  8
PCB
 62
256
370
-1
  6
BYLAYER
 10
-0.00254003220914
 20
0.0
 30
0.0
 11
0.0025400322092537
 21
0.0
 31
0.0
  0
LINE
  5
CB
100
AcDbEntity
100
AcDbLine
  8
PCB
 62
256
370
-1
  6
BYLAYER
 10
0.0
 20
0.00254003220914
 30
0.0
 11
0.0
 21
-0.0025400322091969
 31
0.0
  0
ARC
  5
CC
100
AcDbEntity
  8
PCB
 62
256
370
-1
  6
BYLAYER
100
AcDbCircle
 10
7.6207815656806588
 20
-28.5756154859970479
 30
0.0
 40
0.6750093501036672
100
AcDbArc
 50
270.0000738957994599
 51
359.9999260955461864
  0
ARC
  5
CD
100
AcDbEntity
  8
PCB
 62
256
370
-1
  6
BYLAYER
100
AcDbCircle
 10
7.6207834694381518
 20
-28.5756153233925261
 30
0.0
 40
0.6750095127088624
100
AcDbArc
 50
180.0000876938172496
 51
269.9999123021019614
  0
ARC
  5
CE
100
AcDbEntity
  8
PCB
 62
256
370
-1
  6
BYLAYER
100
AcDbCircle
 10
7.620781843397026
 20
-28.5756157637132446
 30
0.0
 40
0.675007886667344
100
AcDbArc
 50
89.9999496770582539
 51
180.0000503219720258
  0
ARC
  5
CF
100
AcDbEntity
  8
PCB
 62
256
370
-1
  6
BYLAYER
100
AcDbCircle
 10
7.6207831917209887
 20
-28.575615601109746
 30
0.0
 40
0.6750077240635372
100
AcDbArc
 50
359.9999358759719712
 51
90.0000641250316846
  0
LINE
  5
D0
100
AcDbEntity
100
AcDbLine
  8
PCB
 62
256
370
-1
  6
BYLAYER
 10
8.2957909157840959
 20
-28.575616356573164
 30
0.0
 11
8.2957909157840959
 21
-28.575616356573164
 31
0.0
  0
ARC
  5
D1
100
AcDbEntity
  8
PCB
 62
256
370
-1
  6
BYLAYER
100
AcDbCircle
 10
7.6207815656806588
 20
-26.0355832768102005
 30
0.0
 40
0.6750093501036625
100
AcDbArc
 50
270.0000738957995736
 51
359.9999261054099975
  0
ARC
  5
D2
100
AcDbEntity
  8
PCB
 62
256
370
-1
  6
BYLAYER
100
AcDbCircle
 10
7.6207834694381518
 20
-26.0355831142056786
 30
0.0
 40
0.6750095127088661
100
AcDbArc
 50
180.0000876938172496
 51
269.9999123021016771
  0
ARC
  5
D3
100
AcDbEntity
  8
PCB
 62
256
370
-1
  6
BYLAYER
100
AcDbCircle
 10
7.620781843397026
 20
-26.0355835545263972
 30
0.0
 40
0.6750078866673486
100
AcDbArc
 50
89.9999496770582539
 51
180.0000503219720258
  0
ARC
  5
D4
100
AcDbEntity
  8
PCB
 62
256
370
-1
  6
BYLAYER
100
AcDbCircle
 10
7.6207831917209887
 20
-26.0355833919228417
 30
0.0
 40
0.6750077240635372
100
AcDbArc
 50
359.9999358759719712
 51
90.0000641250316846
  0
LINE
  5
D5
100
AcDbEntity
100
AcDbLine
  8
PCB
 62
256
370
-1
  6
BYLAYER
 10
8.2957909157840959
 20
-26.0355841473863165
 30
0.0
 11
8.2957909157840959
 21
-26.0355841473863165
 31
0.0
  0
ARC
  5
D6
100
AcDbEntity
  8
PCB
 62
256
370
-1
  6
BYLAYER
100
AcDbCircle
 10
7.6207815656806588
 20
-36.830720165854359
 30
0.0
 40
0.6750093501036625
100
AcDbArc
 50
270.0000738957991757
 51
359.9999261054099975
  0
ARC
  5
D7
100
AcDbEntity
  8
PCB
 62
256
370
-1
  6
BYLAYER
100
AcDbCircle
 10
7.6207834694381518
 20
-36.8307200032498372
 30
0.0
 40
0.6750095127088661
100
AcDbArc
 50
180.0000876938172496
 51
269.9999123021016771
  0
ARC
  5
D8
100
AcDbEntity
  8
PCB
 62
256
370
-1
  6
BYLAYER
100
AcDbCircle
 10
7.620781843397026
 20
-36.8307204435705557
 30
0.0
 40
0.6750078866673486
100
AcDbArc
 50
89.9999496770581402
 51
180.0000503219720258
  0
ARC
  5
D9
100
AcDbEntity
  8
PCB
 62
256
370
-1
  6
BYLAYER
100
AcDbCircle
 10
7.6207831917209887
 20
-36.8307202809670002
 30
0.0
 40
0.6750077240635372
100
AcDbArc
 50
359.9999358759719712
 51
90.0000641250316846
  0
LINE
  5
DA
100
AcDbEntity
100
AcDbLine
  8
PCB
 62
256
370
-1
  6
BYLAYER
 10
8.2957909157840959
 20
-36.8307210364304751
 30
0.0
 11
8.2957909157840959
 21
-36.8307210364304751
 31
0.0
  0
ARC
  5
DB
100
AcDbEntity
  8
PCB
 62
256
370
-1
  6
BYLAYER
100
AcDbCircle
 10
10.1608137748678473
 20
-36.830720165854359
 30
0.0
 40
0.6750093501036672
100
AcDbArc
 50
270.0000738957755289
 51
359.9999261054099975
  0
ARC
  5
DC
100
AcDbEntity
  8
PCB
 62
256
370
-1
  6
BYLAYER
100
AcDbCircle
 10
10.1608156786249992
 20
-36.8307200032498372
 30
0.0
 40
0.6750095127088624
100
AcDbArc
 50
180.0000876938172496
 51
269.9999123021019614
  0
ARC
  5
DD
100
AcDbEntity
  8
PCB
 62
256
370
-1
  6
BYLAYER
100
AcDbCircle
 10
10.1608140525838735
 20
-36.8307204435705557
 30
0.0
 40
0.6750078866673533
100
AcDbArc
 50
89.9999496770583391
 51
180.0000503219720258
  0
ARC
  5
DE
100
AcDbEntity
  8
PCB
 62
256
370
-1
  6
BYLAYER
100
AcDbCircle
 10
10.1608154009073814
 20
-36.8307202809673413
 30
0.0
 40
0.6750077240639437
100
AcDbArc
 50
359.9999358759719712
 51
90.0000641249970954
  0
LINE
  5
DF
100
AcDbEntity
100
AcDbLine
  8
PCB
 62
256
370
-1
  6
BYLAYER
 10
10.8358231249709434
 20
-36.8307210364304751
 30
0.0
 11
10.8358231249709434
 21
-36.8307210364304751
 31
0.0
  0
ARC
  5
E0
100
AcDbEntity
  8
PCB
 62
256
370
-1
  6
BYLAYER
100
AcDbCircle
 10
12.7008459840546948
 20
-36.830720165854359
 30
0.0
 40
0.6750093501036672
100
AcDbArc
 50
270.0000738957755289
 51
359.9999261054099975
  0
ARC
  5
E1
100
AcDbEntity
  8
PCB
 62
256
370
-1
  6
BYLAYER
100
AcDbCircle
 10
12.7008478878118467
 20
-36.8307200032500077
 30
0.0
 40
0.6750095127088106
100
AcDbArc
 50
180.0000877021290364
 51
269.9999123021062815
  0
ARC
  5
E2
100
AcDbEntity
  8
PCB
 62
256
370
-1
  6
BYLAYER
100
AcDbCircle
 10
12.700846261770721
 20
-36.8307204435705557
 30
0.0
 40
0.6750078866673486
100
AcDbArc
 50
89.9999496770585523
 51
180.0000503364552742
  0
ARC
  5
E3
100
AcDbEntity
  8
PCB
 62
256
370
-1
  6
BYLAYER
100
AcDbCircle
 10
12.7008476100943426
 20
-36.8307202809673413
 30
0.0
 40
0.6750077240639437
100
AcDbArc
 50
359.9999358759719712
 51
90.0000641249970954
  0
LINE
  5
E4
100
AcDbEntity
100
AcDbLine
  8
PCB
 62
256
370
-1
  6
BYLAYER
 10
13.3758553341577908
 20
-36.8307210364304751
 30
0.0
 11
13.3758553341577908
 21
-36.8307210364304751
 31
0.0
  0
ARC
  5
E5
100
AcDbEntity
  8
PCB
 62
256
370
-1
  6
BYLAYER
100
AcDbCircle
 10
15.2408781932415422
 20
-36.830720165854359
 30
0.0
 40
0.6750093501036672
100
AcDbArc
 50
270.0000738957757562
 51
359.9999260955461864
  0
ARC
  5
E6
100
AcDbEntity
  8
PCB
 62
256
370
-1
  6
BYLAYER
100
AcDbCircle
 10
15.2408800969986942
 20
-36.8307200032500077
 30
0.0
 40
0.6750095127088083
100
AcDbArc
 50
180.0000876938172496
 51
269.999912302106452
  0
ARC
  5
E7
100
AcDbEntity
  8
PCB
 62
256
370
-1
  6
BYLAYER
100
AcDbCircle
 10
15.2408784709575684
 20
-36.8307204435705557
 30
0.0
 40
0.6750078866673533
100
AcDbArc
 50
89.9999496770587371
 51
180.0000503219720258
  0
ARC
  5
E8
100
AcDbEntity
  8
PCB
 62
256
370
-1
  6
BYLAYER
100
AcDbCircle
 10
15.2408798192811901
 20
-36.8307202809672845
 30
0.0
 40
0.6750077240639391
100
AcDbArc
 50
359.9999358759719712
 51
90.0000641249974649
  0
LINE
  5
E9
100
AcDbEntity
100
AcDbLine
  8
PCB
 62
256
370
-1
  6
BYLAYER
 10
15.9158875433446383
 20
-36.8307210364304751
 30
0.0
 11
15.9158875433446383
 21
-36.8307210364304751
 31
0.0
  0
ARC
  5
EA
100
AcDbEntity
  8
PCB
 62
256
370
-1
  6
BYLAYER
100
AcDbCircle
 10
17.7809104024283897
 20
-36.830720165854359
 30
0.0
 40
0.6750093501036672
100
AcDbArc
 50
270.0000738957755289
 51
359.9999261054099975
  0
ARC
  5
EB
100
AcDbEntity
  8
PCB
 62
256
370
-1
  6
BYLAYER
100
AcDbCircle
 10
17.7809123061855416
 20
-36.8307200032500077
 30
0.0
 40
0.6750095127088036
100
AcDbArc
 50
180.0000876938172496
 51
269.9999123021068499
  0
ARC
  5
EC
100
AcDbEntity
  8
PCB
 62
256
370
-1
  6
BYLAYER
100
AcDbCircle
 10
17.7809106801444159
 20
-36.8307204435705557
 30
0.0
 40
0.6750078866673486
100
AcDbArc
 50
89.9999496770587371
 51
180.0000503219720258
  0
ARC
  5
ED
100
AcDbEntity
  8
PCB
 62
256
370
-1
  6
BYLAYER
100
AcDbCircle
 10
17.7809120284680375
 20
-36.8307202809672845
 30
0.0
 40
0.6750077240639391
100
AcDbArc
 50
359.9999358759719712
 51
90.0000641249974649
  0
LINE
  5
EE
100
AcDbEntity
100
AcDbLine
  8
PCB
 62
256
370
-1
  6
BYLAYER
 10
18.4559197525315994
 20
-36.8307210364304751
 30
0.0
 11
18.4559197525315994
 21
-36.8307210364304751
 31
0.0
  0
ARC
  5
EF
100
AcDbEntity
  8
PCB
 62
256
370
-1
  6
BYLAYER
100
AcDbCircle
 10
20.3209426116153509
 20
-36.8307201658546433
 30
0.0
 40
0.6750093501033853
100
AcDbArc
 50
270.0000738957654107
 51
359.9999261054099975
  0
ARC
  5
F0
100
AcDbEntity
  8
PCB
 62
256
370
-1
  6
BYLAYER
100
AcDbCircle
 10
20.3209445153725028
 20
-36.8307200032500077
 30
0.0
 40
0.6750095127088083
100
AcDbArc
 50
180.0000876938172496
 51
269.999912302106452
  0
ARC
  5
F1
100
AcDbEntity
  8
PCB
 62
256
370
-1
  6
BYLAYER
100
AcDbCircle
 10
20.3209428893312634
 20
-36.8307204435705557
 30
0.0
 40
0.6750078866673533
100
AcDbArc
 50
89.9999496770587371
 51
180.0000503219720258
  0
ARC
  5
F2
100
AcDbEntity
  8
PCB
 62
256
370
-1
  6
BYLAYER
100
AcDbCircle
 10
20.320944237654885
 20
-36.8307202809672845
 30
0.0
 40
0.6750077240639368
100
AcDbArc
 50
359.9999358759719712
 51
90.0000641249976781
  0
LINE
  5
F3
100
AcDbEntity
100
AcDbLine
  8
PCB
 62
256
370
-1
  6
BYLAYER
 10
20.9959519617184469
 20
-36.8307210364304751
 30
0.0
 11
20.9959519617184469
 21
-36.8307210364304751
 31
0.0
  0
ARC
  5
F4
100
AcDbEntity
  8
PCB
 62
256
370
-1
  6
BYLAYER
100
AcDbCircle
 10
22.8609735507861842
 20
-36.8307201658546433
 30
0.0
 40
0.675009350103376
100
AcDbArc
 50
270.0000738957659792
 51
359.9999260955461864
  0
ARC
  5
F5
100
AcDbEntity
  8
PCB
 62
256
370
-1
  6
BYLAYER
100
AcDbCircle
 10
22.8609754545432224
 20
-36.8307200032500077
 30
0.0
 40
0.6750095127088059
100
AcDbArc
 50
180.0000876938172496
 51
269.9999123021066794
  0
ARC
  5
F6
100
AcDbEntity
  8
PCB
 62
256
370
-1
  6
BYLAYER
100
AcDbCircle
 10
22.8609738285028925
 20
-36.8307204435711242
 30
0.0
 40
0.6750078866679169
100
AcDbArc
 50
89.9999496771263949
 51
180.0000503219720258
  0
ARC
  5
F7
100
AcDbEntity
  8
PCB
 62
256
370
-1
  6
BYLAYER
100
AcDbCircle
 10
22.8609751768256046
 20
-36.8307202809673413
 30
0.0
 40
0.6750077240639507
100
AcDbArc
 50
359.9999358759719712
 51
90.0000641249964985
  0
LINE
  5
F8
100
AcDbEntity
100
AcDbLine
  8
PCB
 62
256
370
-1
  6
BYLAYER
 10
23.5359829008891666
 20
-36.8307210364304751
 30
0.0
 11
23.5359829008891666
 21
-36.8307210364304751
 31
0.0
  0
ARC
  5
F9
100
AcDbEntity
  8
PCB
 62
256
370
-1
  6
BYLAYER
100
AcDbCircle
 10
25.401082255326628
 20
-36.8307191902256363
 30
0.0
 40
0.6750103257343302
100
AcDbArc
 50
270.0001567083346572
 51
359.9998432889227615
  0
ARC
  5
FA
100
AcDbEntity
  8
PCB
 62
256
370
-1
  6
BYLAYER
100
AcDbCircle
 10
25.4010845725039189
 20
-36.8307200574511739
 30
0.0
 40
0.675009458506679
100
AcDbArc
 50
180.0000830972236088
 51
269.999960023169649
  0
ARC
  5
FB
100
AcDbEntity
  8
PCB
 62
256
370
-1
  6
BYLAYER
100
AcDbCircle
 10
25.4010829464647259
 20
-36.8307203893689348
 30
0.0
 40
0.6750078324664692
100
AcDbArc
 50
89.9999019560295324
 51
180.0000549209433416
  0
ARC
  5
FC
100
AcDbEntity
  8
PCB
 62
256
370
-1
  6
BYLAYER
100
AcDbCircle
 10
25.4010838813733244
 20
-36.830721256588788
 30
0.0
 40
0.6750086996851714
100
AcDbArc
 50
0.0000187052434022
 51
89.9999813126370469
  0
LINE
  5
FD
100
AcDbEntity
100
AcDbLine
  8
PCB
 62
256
370
-1
  6
BYLAYER
 10
26.0760925810584467
 20
-36.8307210364304751
 30
0.0
 11
26.0760925810584467
 21
-36.8307210364304751
 31
0.0
  0
ARC
  5
FE
100
AcDbEntity
  8
PCB
 62
256
370
-1
  6
BYLAYER
100
AcDbCircle
 10
27.9411144645134755
 20
-36.8307191902256363
 30
0.0
 40
0.6750103257343302
100
AcDbArc
 50
270.0001567083343161
 51
359.9998432935742017
  0
ARC
  5
FF
100
AcDbEntity
  8
PCB
 62
256
370
-1
  6
BYLAYER
100
AcDbCircle
 10
27.941116530876684
 20
-36.8307208162723327
 30
0.0
 40
0.6750086996853744
100
AcDbArc
 50
180.0000186662334443
 51
269.9999813126197523
  0
ARC
  5
100
100
AcDbEntity
  8
PCB
 62
256
370
-1
  6
BYLAYER
100
AcDbCircle
 10
27.9411149048410152
 20
-36.8307196305531761
 30
0.0
 40
0.6750070736511845
100
AcDbArc
 50
89.9998806666812072
 51
180.0001193330026297
  0
ARC
  5
101
100
AcDbEntity
  8
PCB
 62
256
370
-1
  6
BYLAYER
100
AcDbCircle
 10
27.9411160905601719
 20
-36.830721256588788
 30
0.0
 40
0.6750086996851665
100
AcDbArc
 50
0.0000186662334674
 51
89.9999813126374306
  0
LINE
  5
102
100
AcDbEntity
100
AcDbLine
  8
PCB
 62
256
370
-1
  6
BYLAYER
 10
28.6161247902452942
 20
-36.8307210364304751
 30
0.0
 11
28.6161247902452942
 21
-36.8307210364304751
 31
0.0
  0
ARC
  5
103
100
AcDbEntity
  8
PCB
 62
256
370
-1
  6
BYLAYER
100
AcDbCircle
 10
30.4811466737003229
 20
-36.8307191902256363
 30
0.0
 40
0.6750103257343302
100
AcDbArc
 50
270.0001567083346572
 51
359.9998432889227615
  0
ARC
  5
104
100
AcDbEntity
  8
PCB
 62
256
370
-1
  6
BYLAYER
100
AcDbCircle
 10
30.4811487400635315
 20
-36.8307208162723327
 30
0.0
 40
0.6750086996853838
100
AcDbArc
 50
180.0000187052434057
 51
269.9999813126190134
  0
ARC
  5
105
100
AcDbEntity
  8
PCB
 62
256
370
-1
  6
BYLAYER
100
AcDbCircle
 10
30.4811471140278627
 20
-36.8307196305531761
 30
0.0
 40
0.6750070736511845
100
AcDbArc
 50
89.9998806666812072
 51
180.0001193330026297
  0
ARC
  5
106
100
AcDbEntity
  8
PCB
 62
256
370
-1
  6
BYLAYER
100
AcDbCircle
 10
30.4811482997470193
 20
-36.830721256588788
 30
0.0
 40
0.6750086996851665
100
AcDbArc
 50
0.0000186662334674
 51
89.9999813126374306
  0
LINE
  5
107
100
AcDbEntity
100
AcDbLine
  8
PCB
 62
256
370
-1
  6
BYLAYER
 10
31.1561569994321417
 20
-36.8307210364304751
 30
0.0
 11
31.1561569994321417
 21
-36.8307210364304751
 31
0.0
  0
ARC
  5
108
100
AcDbEntity
  8
PCB
 62
256
370
-1
  6
BYLAYER
100
AcDbCircle
 10
10.160814750492591
 20
-10.1603062360442777
 30
0.0
 40
0.6750083744784086
100
AcDbArc
 50
269.9999910833096237
 51
0.0000089544535452
  0
ARC
  5
109
100
AcDbEntity
  8
PCB
 62
256
370
-1
  6
BYLAYER
100
AcDbCircle
 10
10.1608147029991187
 20
-10.1603060734406654
 30
0.0
 40
0.6750085370821561
100
AcDbArc
 50
180.0000049045561639
 51
269.9999951146278363
  0
ARC
  5
10A
100
AcDbEntity
  8
PCB
 62
256
370
-1
  6
BYLAYER
100
AcDbCircle
 10
10.1608148656035837
 20
-10.1603063511552705
 30
0.0
 40
0.6750086996866174
100
AcDbArc
 50
90.0000186874927692
 51
179.9999813337665273
  0
ARC
  5
10B
100
AcDbEntity
  8
PCB
 62
256
370
-1
  6
BYLAYER
100
AcDbCircle
 10
10.1608145878888081
 20
-10.1603061885512034
 30
0.0
 40
0.6750085370821503
100
AcDbArc
 50
0.0000049045561969
 51
89.99999511462822
  0
LINE
  5
10C
100
AcDbEntity
100
AcDbLine
  8
PCB
 62
256
370
-1
  6
BYLAYER
 10
10.8358231249709434
 20
-10.1603061309956502
 30
0.0
 11
10.8358231249709434
 21
-10.1603061309956502
 31
0.0
  0
ARC
  5
10D
100
AcDbEntity
  8
PCB
 62
256
370
-1
  6
BYLAYER
100
AcDbCircle
 10
10.1608145878889218
 20
-7.6202746262633241
 30
0.0
 40
0.6750085370821526
100
AcDbArc
 50
270.0000048853596581
 51
359.9999950954438646
  0
ARC
  5
10E
100
AcDbEntity
  8
PCB
 62
256
370
-1
  6
BYLAYER
100
AcDbCircle
 10
10.1608148656035837
 20
-7.6202744636588591
 30
0.0
 40
0.6750086996867017
100
AcDbArc
 50
180.0000186662334443
 51
269.9999813125072023
  0
ARC
  5
10F
100
AcDbEntity
  8
PCB
 62
256
370
-1
  6
BYLAYER
100
AcDbCircle
 10
10.1608147029992324
 20
-7.6202747413738052
 30
0.0
 40
0.6750085370823524
100
AcDbArc
 50
90.000004885384115
 51
179.9999950954438077
  0
ARC
  5
110
100
AcDbEntity
  8
PCB
 62
256
370
-1
  6
BYLAYER
100
AcDbCircle
 10
10.1608147504927047
 20
-7.6202745787698518
 30
0.0
 40
0.6750083744782677
100
AcDbArc
 50
359.9999910455463805
 51
90.0000089167025408
  0
LINE
  5
111
100
AcDbEntity
100
AcDbLine
  8
PCB
 62
256
370
-1
  6
BYLAYER
 10
10.8358231249709434
 20
-7.6202746838184794
 30
0.0
 11
10.8358231249709434
 21
-7.6202746838184794
 31
0.0
  0
ARC
  5
112
100
AcDbEntity
  8
PCB
 62
256
370
-1
  6
BYLAYER
100
AcDbCircle
 10
10.1608145878889218
 20
-5.0802424170764198
 30
0.0
 40
0.6750085370821548
100
AcDbArc
 50
270.0000048853597718
 51
359.9999950954438646
  0
ARC
  5
113
100
AcDbEntity
  8
PCB
 62
256
370
-1
  6
BYLAYER
100
AcDbCircle
 10
10.16081486560347
 20
-5.0802422544720685
 30
0.0
 40
0.6750086996865562
100
AcDbArc
 50
180.0000186662334443
 51
269.9999813125195374
  0
ARC
  5
114
100
AcDbEntity
  8
PCB
 62
256
370
-1
  6
BYLAYER
100
AcDbCircle
 10
10.1608147029992324
 20
-5.0802425321869578
 30
0.0
 40
0.6750085370823536
100
AcDbArc
 50
90.000004885384115
 51
179.9999950954438077
  0
ARC
  5
115
100
AcDbEntity
  8
PCB
 62
256
370
-1
  6
BYLAYER
100
AcDbCircle
 10
10.1608147504927047
 20
-5.0802423695829475
 30
0.0
 40
0.67500837447827
100
AcDbArc
 50
359.9999910455463805
 51
90.000008916702356
  0
LINE
  5
116
100
AcDbEntity
100
AcDbLine
  8
PCB
 62
256
370
-1
  6
BYLAYER
 10
10.8358231249709434
 20
-5.0802424746316319
 30
0.0
 11
10.8358231249709434
 21
-5.0802424746316319
 31
0.0
  0
ARC
  5
117
100
AcDbEntity
  8
PCB
 62
256
370
-1
  6
BYLAYER
100
AcDbCircle
 10
10.1608147504927047
 20
-2.5402098624869609
 30
0.0
 40
0.6750083744783532
100
AcDbArc
 50
269.9999910832976866
 51
0.0000089544535452
  0
ARC
  5
118
100
AcDbEntity
  8
PCB
 62
256
370
-1
  6
BYLAYER
100
AcDbCircle
 10
10.1608147029992324
 20
-2.5402096998829506
 30
0.0
 40
0.6750085370822969
100
AcDbArc
 50
180.0000049045561639
 51
269.9999951146158992
  0
ARC
  5
119
100
AcDbEntity
  8
PCB
 62
256
370
-1
  6
BYLAYER
100
AcDbCircle
 10
10.160814648798123
 20
-2.5402100147956617
 30
0.0
 40
0.675008482881151
100
AcDbArc
 50
90.0000002847076246
 51
179.9999781493985722
  0
ARC
  5
11A
100
AcDbEntity
  8
PCB
 62
256
370
-1
  6
BYLAYER
100
AcDbCircle
 10
10.1608148046940414
 20
-2.5402098521915946
 30
0.0
 40
0.6750083202768874
100
AcDbArc
 50
0.0000080544844698
 51
90.0000135174024507
  0
LINE
  5
11B
100
AcDbEntity
100
AcDbLine
  8
PCB
 62
256
370
-1
  6
BYLAYER
 10
10.8358231249709434
 20
-2.5402097574383333
 30
0.0
 11
10.8358231249709434
 21
-2.5402097574383333
 31
0.0
  0
SPLINE
  5
11C
  8
PCB
 62
256
370
-1
  6
BYLAYER
100
AcDbEntity
100
AcDbSpline
 70
8
 71
3
 72
8
 73
4
 74
0
 40
0.0
 40
0.0
 40
0.0
 40
0.0
 40
1.0
 40
1.0
 40
1.0
 40
1.0
 10
72.6966870391676139
 20
-22.8604684469460722
 30
0.0
 10
72.6966870391676139
 20
-23.7303271152945854
 30
0.0
 10
71.9915258372852804
 20
-24.4354883171768051
 30
0.0
 10
71.1216664069271474
 20
-24.4354883171768051
 30
0.0
  0
SPLINE
  5
11D
  8
PCB
 62
256
370
-1
  6
BYLAYER
100
AcDbEntity
100
AcDbSpline
 70
8
 71
3
 72
8
 73
4
 74
0
 40
0.0
 40
0.0
 40
0.0
 40
0.0
 40
1.0
 40
1.0
 40
1.0
 40
1.0
 10
71.1216664069271474
 20
-24.4354883171768051
 30
0.0
 10
70.2518069765690143
 20
-24.4354883171768051
 30
0.0
 10
69.5466457746867945
 20
-23.7303271152945854
 30
0.0
 10
69.5466457746867945
 20
-22.8604684469460722
 30
0.0
  0
SPLINE
  5
11E
  8
PCB
 62
256
370
-1
  6
BYLAYER
100
AcDbEntity
100
AcDbSpline
 70
8
 71
3
 72
8
 73
4
 74
0
 40
0.0
 40
0.0
 40
0.0
 40
0.0
 40
1.0
 40
1.0
 40
1.0
 40
1.0
 10
69.5466457746867945
 20
-22.8604684469460722
 30
0.0
 10
69.5466457746867945
 20
-21.9906085085815448
 30
0.0
 10
70.2518069765690143
 20
-21.2854478147057193
 30
0.0
 10
71.1216664069271474
 20
-21.2854478147057193
 30
0.0
  0
SPLINE
  5
11F
  8
PCB
 62
256
370
-1
  6
BYLAYER
100
AcDbEntity
100
AcDbSpline
 70
8
 71
3
 72
8
 73
4
 74
0
 40
0.0
 40
0.0
 40
0.0
 40
0.0
 40
1.0
 40
1.0
 40
1.0
 40
1.0
 10
71.1216664069271474
 20
-21.2854478147057193
 30
0.0
 10
71.9915258372852804
 20
-21.2854478147057193
 30
0.0
 10
72.6966870391676139
 20
-21.9906085085815448
 30
0.0
 10
72.6966870391676139
 20
-22.8604684469460722
 30
0.0
  0
LINE
  5
120
100
AcDbEntity
100
AcDbLine
  8
PCB
 62
256
370
-1
  6
BYLAYER
 10
72.6966870391676139
 20
-22.8604684469460722
 30
0.0
 11
72.6966870391676139
 21
-22.8604684469460722
 31
0.0
  0
SPLINE
  5
121
  8
PCB
 62
256
370
-1
  6
BYLAYER
100
AcDbEntity
100
AcDbSpline
 70
8
 71
3
 72
8
 73
4
 74
0
 40
0.0
 40
0.0
 40
0.0
 40
0.0
 40
1.0
 40
1.0
 40
1.0
 40
1.0
 10
72.6966870391676139
 20
-34.2906888272435708
 30
0.0
 10
72.6966870391676139
 20
-35.1605482576017607
 30
0.0
 10
71.9915258372852804
 20
-35.8657094594839805
 30
0.0
 10
71.1216664069271474
 20
-35.8657094594839805
 30
0.0
  0
SPLINE
  5
122
  8
PCB
 62
256
370
-1
  6
BYLAYER
100
AcDbEntity
100
AcDbSpline
 70
8
 71
3
 72
8
 73
4
 74
0
 40
0.0
 40
0.0
 40
0.0
 40
0.0
 40
1.0
 40
1.0
 40
1.0
 40
1.0
 10
71.1216664069271474
 20
-35.8657094594839805
 30
0.0
 10
70.2518069765690143
 20
-35.8657094594839805
 30
0.0
 10
69.5466457746867945
 20
-35.1605482576017607
 30
0.0
 10
69.5466457746867945
 20
-34.2906888272435708
 30
0.0
  0
SPLINE
  5
123
  8
PCB
 62
256
370
-1
  6
BYLAYER
100
AcDbEntity
100
AcDbSpline
 70
8
 71
3
 72
8
 73
4
 74
0
 40
0.0
 40
0.0
 40
0.0
 40
0.0
 40
1.0
 40
1.0
 40
1.0
 40
1.0
 10
69.5466457746867945
 20
-34.2906888272435708
 30
0.0
 10
69.5466457746867945
 20
-33.420826856853239
 30
0.0
 10
70.2518069765690143
 20
-32.715668195003218
 30
0.0
 10
71.1216664069271474
 20
-32.715668195003218
 30
0.0
  0
SPLINE
  5
124
  8
PCB
 62
256
370
-1
  6
BYLAYER
100
AcDbEntity
100
AcDbSpline
 70
8
 71
3
 72
8
 73
4
 74
0
 40
0.0
 40
0.0
 40
0.0
 40
0.0
 40
1.0
 40
1.0
 40
1.0
 40
1.0
 10
71.1216664069271474
 20
-32.715668195003218
 30
0.0
 10
71.9915258372852804
 20
-32.715668195003218
 30
0.0
 10
72.6966870391676139
 20
-33.420826856853239
 30
0.0
 10
72.6966870391676139
 20
-34.2906888272435708
 30
0.0
  0
LINE
  5
125
100
AcDbEntity
100
AcDbLine
  8
PCB
 62
256
370
-1
  6
BYLAYER
 10
72.6966870391676139
 20
-34.2906888272435708
 30
0.0
 11
72.6966870391676139
 21
-34.2906888272435708
 31
0.0
  0
ARC
  5
126
100
AcDbEntity
  8
PCB
 62
256
370
-1
  6
BYLAYER
100
AcDbCircle
 10
64.7715849311049396
 20
-33.0206717697947738
 30
0.0
 40
0.7250099664208832
100
AcDbArc
 50
270.0000753018262003
 51
359.9999246934860935
  0
ARC
  5
127
100
AcDbEntity
  8
PCB
 62
256
370
-1
  6
BYLAYER
100
AcDbCircle
 10
64.7715852107754699
 20
-33.0206733958351037
 30
0.0
 40
0.7250083403806129
100
AcDbArc
 50
179.9999467913358728
 51
270.0000532002607088
  0
ARC
  5
128
100
AcDbEntity
  8
PCB
 62
256
370
-1
  6
BYLAYER
100
AcDbCircle
 10
64.771583584744576
 20
-33.0206704234350923
 30
0.0
 40
0.7250067143533868
100
AcDbArc
 50
89.9998182977630563
 51
180.0001817014063477
  0
ARC
  5
129
100
AcDbEntity
  8
PCB
 62
256
370
-1
  6
BYLAYER
100
AcDbCircle
 10
64.7715865571452696
 20
-33.0206720494647925
 30
0.0
 40
0.7250083403798457
100
AcDbArc
 50
359.999946805037041
 51
90.0000532003213749
  0
LINE
  5
12A
100
AcDbEntity
100
AcDbLine
  8
PCB
 62
256
370
-1
  6
BYLAYER
 10
65.4965948975249148
 20
-33.0206727226501471
 30
0.0
 11
65.4965948975249148
 21
-33.0206727226501471
 31
0.0
  0
ARC
  5
12B
100
AcDbEntity
  8
PCB
 62
256
370
-1
  6
BYLAYER
100
AcDbCircle
 10
64.7715849311049396
 20
-30.4806395606078659
 30
0.0
 40
0.7250099664208832
100
AcDbArc
 50
270.0000753018247792
 51
359.9999246934860935
  0
ARC
  5
12C
100
AcDbEntity
  8
PCB
 62
256
370
-1
  6
BYLAYER
100
AcDbCircle
 10
64.7715852107754699
 20
-30.4806411866482527
 30
0.0
 40
0.7250083403806312
100
AcDbArc
 50
179.999946805037041
 51
270.0000532002593445
  0
ARC
  5
12D
100
AcDbEntity
  8
PCB
 62
256
370
-1
  6
BYLAYER
100
AcDbCircle
 10
64.771583584744576
 20
-30.4806382142481844
 30
0.0
 40
0.7250067143533868
100
AcDbArc
 50
89.999818297761621
 51
180.0001817054180435
  0
ARC
  5
12E
100
AcDbEntity
  8
PCB
 62
256
370
-1
  6
BYLAYER
100
AcDbCircle
 10
64.7715865571452696
 20
-30.4806398402778846
 30
0.0
 40
0.7250083403798457
100
AcDbArc
 50
359.999946805037041
 51
90.0000532003213749
  0
LINE
  5
12F
100
AcDbEntity
100
AcDbLine
  8
PCB
 62
256
370
-1
  6
BYLAYER
 10
65.4965948975249148
 20
-30.4806405134632961
 30
0.0
 11
65.4965948975249148
 21
-30.4806405134632961
 31
0.0
  0
ARC
  5
130
100
AcDbEntity
  8
PCB
 62
256
370
-1
  6
BYLAYER
100
AcDbCircle
 10
64.7715849311049396
 20
-27.940607351421022
 30
0.0
 40
0.7250099664208832
100
AcDbArc
 50
270.0000753018262003
 51
359.9999246934860935
  0
ARC
  5
131
100
AcDbEntity
  8
PCB
 62
256
370
-1
  6
BYLAYER
100
AcDbCircle
 10
64.7715852107754699
 20
-27.9406089774614088
 30
0.0
 40
0.7250083403806129
100
AcDbArc
 50
179.9999467913358728
 51
270.0000532002607088
  0
ARC
  5
132
100
AcDbEntity
  8
PCB
 62
256
370
-1
  6
BYLAYER
100
AcDbCircle
 10
64.771583584744576
 20
-27.9406060050613405
 30
0.0
 40
0.7250067143533868
100
AcDbArc
 50
89.999818297761621
 51
180.0001817054180435
  0
ARC
  5
133
100
AcDbEntity
  8
PCB
 62
256
370
-1
  6
BYLAYER
100
AcDbCircle
 10
64.7715865571452696
 20
-27.9406076310910407
 30
0.0
 40
0.7250083403798457
100
AcDbArc
 50
359.999946805037041
 51
90.0000532003213749
  0
LINE
  5
134
100
AcDbEntity
100
AcDbLine
  8
PCB
 62
256
370
-1
  6
BYLAYER
 10
65.4965948975249148
 20
-27.9406083042764521
 30
0.0
 11
65.4965948975249148
 21
-27.9406083042764521
 31
0.0
  0
ARC
  5
135
100
AcDbEntity
  8
PCB
 62
256
370
-1
  6
BYLAYER
100
AcDbCircle
 10
64.7715849311049396
 20
-25.4005751422341746
 30
0.0
 40
0.7250099664208832
100
AcDbArc
 50
270.0000753018247792
 51
359.9999246934860935
  0
ARC
  5
136
100
AcDbEntity
  8
PCB
 62
256
370
-1
  6
BYLAYER
100
AcDbCircle
 10
64.7715852107754699
 20
-25.4005767682745045
 30
0.0
 40
0.7250083403806312
100
AcDbArc
 50
179.999946805037041
 51
270.0000532002593445
  0
ARC
  5
137
100
AcDbEntity
  8
PCB
 62
256
370
-1
  6
BYLAYER
100
AcDbCircle
 10
64.771583584744576
 20
-25.400573795874493
 30
0.0
 40
0.7250067143533868
100
AcDbArc
 50
89.999818297761621
 51
180.0001817054180435
  0
ARC
  5
138
100
AcDbEntity
  8
PCB
 62
256
370
-1
  6
BYLAYER
100
AcDbCircle
 10
64.7715865571452696
 20
-25.4005754219041933
 30
0.0
 40
0.7250083403798457
100
AcDbArc
 50
359.999946805037041
 51
90.0000532003213749
  0
LINE
  5
139
100
AcDbEntity
100
AcDbLine
  8
PCB
 62
256
370
-1
  6
BYLAYER
 10
65.4965948975249148
 20
-25.4005760950896047
 30
0.0
 11
65.4965948975249148
 21
-25.4005760950896047
 31
0.0
  0
ARC
  5
13A
100
AcDbEntity
  8
PCB
 62
256
370
-1
  6
BYLAYER
100
AcDbCircle
 10
62.2315527219180922
 20
-31.7506556652012897
 30
0.0
 40
0.7250099664208878
100
AcDbArc
 50
270.0000753018255182
 51
359.9999246934860935
  0
ARC
  5
13B
100
AcDbEntity
  8
PCB
 62
256
370
-1
  6
BYLAYER
100
AcDbCircle
 10
62.2315530015886225
 20
-31.7506572912416765
 30
0.0
 40
0.7250083403806312
100
AcDbArc
 50
179.999946805037041
 51
270.0000532002593445
  0
ARC
  5
13C
100
AcDbEntity
  8
PCB
 62
256
370
-1
  6
BYLAYER
100
AcDbCircle
 10
62.2315513755577285
 20
-31.7506543188416082
 30
0.0
 40
0.7250067143533868
100
AcDbArc
 50
89.9998182977630563
 51
180.0001817014063477
  0
ARC
  5
13D
100
AcDbEntity
  8
PCB
 62
256
370
-1
  6
BYLAYER
100
AcDbCircle
 10
62.2315543479584221
 20
-31.7506559448713652
 30
0.0
 40
0.7250083403798552
100
AcDbArc
 50
359.9999467913358444
 51
90.0000532003206217
  0
LINE
  5
13E
100
AcDbEntity
100
AcDbLine
  8
PCB
 62
256
370
-1
  6
BYLAYER
 10
62.9565626883379537
 20
-31.7506566180567198
 30
0.0
 11
62.9565626883379537
 21
-31.7506566180567198
 31
0.0
  0
ARC
  5
13F
100
AcDbEntity
  8
PCB
 62
256
370
-1
  6
BYLAYER
100
AcDbCircle
 10
62.2315527219180922
 20
-29.2106234560144458
 30
0.0
 40
0.7250099664208784
100
AcDbArc
 50
270.0000753018255182
 51
359.9999246934860935
  0
ARC
  5
140
100
AcDbEntity
  8
PCB
 62
256
370
-1
  6
BYLAYER
100
AcDbCircle
 10
62.2315530015886225
 20
-29.2106250820548325
 30
0.0
 40
0.7250083403806312
100
AcDbArc
 50
179.999946805037041
 51
270.0000532002593445
  0
ARC
  5
141
100
AcDbEntity
  8
PCB
 62
256
370
-1
  6
BYLAYER
100
AcDbCircle
 10
62.2315513755577285
 20
-29.2106221096547642
 30
0.0
 40
0.7250067143533868
100
AcDbArc
 50
89.999818297761621
 51
180.0001817054180435
  0
ARC
  5
142
100
AcDbEntity
  8
PCB
 62
256
370
-1
  6
BYLAYER
100
AcDbCircle
 10
62.2315543479584221
 20
-29.2106237356844645
 30
0.0
 40
0.7250083403798552
100
AcDbArc
 50
359.9999467913358444
 51
90.0000532003206217
  0
LINE
  5
143
100
AcDbEntity
100
AcDbLine
  8
PCB
 62
256
370
-1
  6
BYLAYER
 10
62.9565626883379537
 20
-29.2106244088698759
 30
0.0
 11
62.9565626883379537
 21
-29.2106244088698759
 31
0.0
  0
ARC
  5
144
100
AcDbEntity
  8
PCB
 62
256
370
-1
  6
BYLAYER
100
AcDbCircle
 10
62.2315527219180922
 20
-26.6705912468275983
 30
0.0
 40
0.7250099664208878
100
AcDbArc
 50
270.0000753018255182
 51
359.9999246934860935
  0
ARC
  5
145
100
AcDbEntity
  8
PCB
 62
256
370
-1
  6
BYLAYER
100
AcDbCircle
 10
62.2315530015886225
 20
-26.6705928728679282
 30
0.0
 40
0.7250083403806312
100
AcDbArc
 50
179.999946805037041
 51
270.0000532002593445
  0
ARC
  5
146
100
AcDbEntity
  8
PCB
 62
256
370
-1
  6
BYLAYER
100
AcDbCircle
 10
62.2315513755577285
 20
-26.6705899004679168
 30
0.0
 40
0.7250067143533868
100
AcDbArc
 50
89.999818297761621
 51
180.0001817054180435
  0
ARC
  5
147
100
AcDbEntity
  8
PCB
 62
256
370
-1
  6
BYLAYER
100
AcDbCircle
 10
62.2315543479584221
 20
-26.670591526497617
 30
0.0
 40
0.7250083403798367
100
AcDbArc
 50
359.9999467913358444
 51
90.0000532003220854
  0
LINE
  5
148
100
AcDbEntity
100
AcDbLine
  8
PCB
 62
256
370
-1
  6
BYLAYER
 10
62.9565626883379537
 20
-26.6705921996830284
 30
0.0
 11
62.9565626883379537
 21
-26.6705921996830284
 31
0.0
  0
ARC
  5
149
100
AcDbEntity
  8
PCB
 62
256
370
-1
  6
BYLAYER
100
AcDbCircle
 10
62.2315527219180922
 20
-24.130559037640694
 30
0.0
 40
0.7250099664208832
100
AcDbArc
 50
270.0000753018255182
 51
359.9999246934860935
  0
ARC
  5
14A
100
AcDbEntity
  8
PCB
 62
256
370
-1
  6
BYLAYER
100
AcDbCircle
 10
62.2315530015886225
 20
-24.1305606636810808
 30
0.0
 40
0.7250083403806312
100
AcDbArc
 50
179.999946805037041
 51
270.0000532002593445
  0
ARC
  5
14B
100
AcDbEntity
  8
PCB
 62
256
370
-1
  6
BYLAYER
100
AcDbCircle
 10
62.2315513755577285
 20
-24.1305576912810693
 30
0.0
 40
0.7250067143533868
100
AcDbArc
 50
89.999818297761621
 51
180.0001817054180435
  0
ARC
  5
14C
100
AcDbEntity
  8
PCB
 62
256
370
-1
  6
BYLAYER
100
AcDbCircle
 10
62.2315543479584221
 20
-24.1305593173107695
 30
0.0
 40
0.7250083403798367
100
AcDbArc
 50
359.9999467913358444
 51
90.0000532003220854
  0
LINE
  5
14D
100
AcDbEntity
100
AcDbLine
  8
PCB
 62
256
370
-1
  6
BYLAYER
 10
62.9565626883379537
 20
-24.1305599904961241
 30
0.0
 11
62.9565626883379537
 21
-24.1305599904961241
 31
0.0
  0
SPLINE
  5
14E
  8
PCB
 62
256
370
-1
  6
BYLAYER
100
AcDbEntity
100
AcDbSpline
 70
8
 71
3
 72
8
 73
4
 74
0
 40
0.0
 40
0.0
 40
0.0
 40
0.0
 40
1.0
 40
1.0
 40
1.0
 40
1.0
 10
69.2466070100088018
 20
-20.8304495590450642
 30
0.0
 10
69.2466070100088018
 20
-21.4793917200349824
 30
0.0
 10
68.7205358590997548
 20
-22.0054631249473118
 30
0.0
 10
68.0715931901033855
 20
-22.0054631249473118
 30
0.0
  0
SPLINE
  5
14F
  8
PCB
 62
256
370
-1
  6
BYLAYER
100
AcDbEntity
100
AcDbSpline
 70
8
 71
3
 72
8
 73
4
 74
0
 40
0.0
 40
0.0
 40
0.0
 40
0.0
 40
1.0
 40
1.0
 40
1.0
 40
1.0
 10
68.0715931901033855
 20
-22.0054631249473118
 30
0.0
 10
67.4226505211071299
 20
-22.0054631249473118
 30
0.0
 10
66.8965793701979692
 20
-21.4793917200349824
 30
0.0
 10
66.8965793701979692
 20
-20.8304495590450642
 30
0.0
  0
SPLINE
  5
150
  8
PCB
 62
256
370
-1
  6
BYLAYER
100
AcDbEntity
100
AcDbSpline
 70
8
 71
3
 72
8
 73
4
 74
0
 40
0.0
 40
0.0
 40
0.0
 40
0.0
 40
1.0
 40
1.0
 40
1.0
 40
1.0
 10
66.8965793701979692
 20
-20.8304495590450642
 30
0.0
 10
66.8965793701979692
 20
-20.1815071440519773
 30
0.0
 10
67.4226505211071299
 20
-19.6554357391396479
 30
0.0
 10
68.0715931901033855
 20
-19.6554357391396479
 30
0.0
  0
SPLINE
  5
151
  8
PCB
 62
256
370
-1
  6
BYLAYER
100
AcDbEntity
100
AcDbSpline
 70
8
 71
3
 72
8
 73
4
 74
0
 40
0.0
 40
0.0
 40
0.0
 40
0.0
 40
1.0
 40
1.0
 40
1.0
 40
1.0
 10
68.0715931901033855
 20
-19.6554357391396479
 30
0.0
 10
68.7205358590997548
 20
-19.6554357391396479
 30
0.0
 10
69.2466070100088018
 20
-20.1815071440519773
 30
0.0
 10
69.2466070100088018
 20
-20.8304495590450642
 30
0.0
  0
LINE
  5
152
100
AcDbEntity
100
AcDbLine
  8
PCB
 62
256
370
-1
  6
BYLAYER
 10
69.2466070100088018
 20
-20.8304495590450642
 30
0.0
 11
69.2466070100088018
 21
-20.8304495590450642
 31
0.0
  0
SPLINE
  5
153
  8
PCB
 62
256
370
-1
  6
BYLAYER
100
AcDbEntity
100
AcDbSpline
 70
8
 71
3
 72
8
 73
4
 74
0
 40
0.0
 40
0.0
 40
0.0
 40
0.0
 40
1.0
 40
1.0
 40
1.0
 40
1.0
 10
69.2466070100088018
 20
-36.3206825688257595
 30
0.0
 10
69.2466070100088018
 20
-36.969625237822072
 30
0.0
 10
68.7205358590997548
 20
-37.4956963887311758
 30
0.0
 10
68.0715931901033855
 20
-37.4956963887311758
 30
0.0
  0
SPLINE
  5
154
  8
PCB
 62
256
370
-1
  6
BYLAYER
100
AcDbEntity
100
AcDbSpline
 70
8
 71
3
 72
8
 73
4
 74
0
 40
0.0
 40
0.0
 40
0.0
 40
0.0
 40
1.0
 40
1.0
 40
1.0
 40
1.0
 10
68.0715931901033855
 20
-37.4956963887311758
 30
0.0
 10
67.4226505211071299
 20
-37.4956963887311758
 30
0.0
 10
66.8965793701979692
 20
-36.969625237822072
 30
0.0
 10
66.8965793701979692
 20
-36.3206825688257595
 30
0.0
  0
SPLINE
  5
155
  8
PCB
 62
256
370
-1
  6
BYLAYER
100
AcDbEntity
100
AcDbSpline
 70
8
 71
3
 72
8
 73
4
 74
0
 40
0.0
 40
0.0
 40
0.0
 40
0.0
 40
1.0
 40
1.0
 40
1.0
 40
1.0
 10
66.8965793701979692
 20
-36.3206825688257595
 30
0.0
 10
66.8965793701979692
 20
-35.671739899829447
 30
0.0
 10
67.4226505211071299
 20
-35.1456687489203432
 30
0.0
 10
68.0715931901033855
 20
-35.1456687489203432
 30
0.0
  0
SPLINE
  5
156
  8
PCB
 62
256
370
-1
  6
BYLAYER
100
AcDbEntity
100
AcDbSpline
 70
8
 71
3
 72
8
 73
4
 74
0
 40
0.0
 40
0.0
 40
0.0
 40
0.0
 40
1.0
 40
1.0
 40
1.0
 40
1.0
 10
68.0715931901033855
 20
-35.1456687489203432
 30
0.0
 10
68.7205358590997548
 20
-35.1456687489203432
 30
0.0
 10
69.2466070100088018
 20
-35.671739899829447
 30
0.0
 10
69.2466070100088018
 20
-36.3206825688257595
 30
0.0
  0
LINE
  5
157
100
AcDbEntity
100
AcDbLine
  8
PCB
 62
256
370
-1
  6
BYLAYER
 10
69.2466070100088018
 20
-36.3206825688257595
 30
0.0
 11
69.2466070100088018
 21
-36.3206825688257595
 31
0.0
  0
ARC
  5
158
100
AcDbEntity
  8
PCB
 62
256
370
-1
  6
BYLAYER
100
AcDbCircle
 10
75.1816487505169562
 20
-35.200528305065518
 30
0.0
 40
0.775009607111511
100
AcDbArc
 50
270.0000043995325427
 51
359.9999955636619688
  0
ARC
  5
159
100
AcDbEntity
  8
PCB
 62
256
370
-1
  6
BYLAYER
100
AcDbCircle
 10
75.1816488695371845
 20
-35.200528305065518
 30
0.0
 40
0.7750096071128184
100
AcDbArc
 50
180.0000044363380312
 51
269.9999956004674573
  0
ARC
  5
15A
100
AcDbEntity
  8
PCB
 62
256
370
-1
  6
BYLAYER
100
AcDbCircle
 10
75.1816488695371845
 20
-35.2005284240831315
 30
0.0
 40
0.7750096071115062
100
AcDbArc
 50
90.0000043995318606
 51
179.9999955636619973
  0
ARC
  5
15B
100
AcDbEntity
  8
PCB
 62
256
370
-1
  6
BYLAYER
100
AcDbCircle
 10
75.1816487505169562
 20
-35.2005284240831884
 30
0.0
 40
0.7750096071128092
100
AcDbArc
 50
0.0000044363380004
 51
89.9999956004681394
  0
LINE
  5
15C
100
AcDbEntity
100
AcDbLine
  8
PCB
 62
256
370
-1
  6
BYLAYER
 10
75.9566583576297489
 20
-35.2005283645743248
 30
0.0
 11
75.9566583576297489
 21
-35.2005283645743248
 31
0.0
  0
ARC
  5
15D
100
AcDbEntity
  8
PCB
 62
256
370
-1
  6
BYLAYER
100
AcDbCircle
 10
75.1816487505169562
 20
-21.9504746701514364
 30
0.0
 40
0.775009607111511
100
AcDbArc
 50
270.0000043995318038
 51
359.9999955636619688
  0
ARC
  5
15E
100
AcDbEntity
  8
PCB
 62
256
370
-1
  6
BYLAYER
100
AcDbCircle
 10
75.1816488695371845
 20
-21.9504746701514364
 30
0.0
 40
0.7750096071128092
100
AcDbArc
 50
180.0000044363380312
 51
269.9999956004680826
  0
ARC
  5
15F
100
AcDbEntity
  8
PCB
 62
256
370
-1
  6
BYLAYER
100
AcDbCircle
 10
75.1816487069329469
 20
-21.950474626564926
 30
0.0
 40
0.7750094445073173
100
AcDbArc
 50
89.9999923783385753
 51
180.0000076839628207
  0
ARC
  5
160
100
AcDbEntity
  8
PCB
 62
256
370
-1
  6
BYLAYER
100
AcDbCircle
 10
75.1816489131211938
 20
-21.950474626564926
 30
0.0
 40
0.7750094445085233
100
AcDbArc
 50
359.9999924114937926
 51
90.0000076216621068
  0
LINE
  5
161
100
AcDbEntity
100
AcDbLine
  8
PCB
 62
256
370
-1
  6
BYLAYER
 10
75.9566583576297489
 20
-21.9504747296603
 30
0.0
 11
75.9566583576297489
 21
-21.9504747296603
 31
0.0
  0
ARC
  5
162
100
AcDbEntity
  8
PCB
 62
256
370
-1
  6
BYLAYER
100
AcDbCircle
 10
75.1816487505168425
 20
-24.4904824950290845
 30
0.0
 40
0.775009607111511
100
AcDbArc
 50
270.0000043995332248
 51
359.9999955636619688
  0
ARC
  5
163
100
AcDbEntity
  8
PCB
 62
256
370
-1
  6
BYLAYER
100
AcDbCircle
 10
75.1816488695371845
 20
-24.4904824950290845
 30
0.0
 40
0.7750096071128092
100
AcDbArc
 50
180.0000044363380312
 51
269.9999956004680826
  0
ARC
  5
164
100
AcDbEntity
  8
PCB
 62
256
370
-1
  6
BYLAYER
100
AcDbCircle
 10
75.1816488695371845
 20
-24.4904826140467549
 30
0.0
 40
0.7750096071115062
100
AcDbArc
 50
90.0000043995318606
 51
179.9999955636619973
  0
ARC
  5
165
100
AcDbEntity
  8
PCB
 62
256
370
-1
  6
BYLAYER
100
AcDbCircle
 10
75.1816487505169562
 20
-24.4904826140467549
 30
0.0
 40
0.7750096071128092
100
AcDbArc
 50
0.0000044363380004
 51
89.9999956004681394
  0
LINE
  5
166
100
AcDbEntity
100
AcDbLine
  8
PCB
 62
256
370
-1
  6
BYLAYER
 10
75.9566583576297489
 20
-24.4904825545379481
 30
0.0
 11
75.9566583576297489
 21
-24.4904825545379481
 31
0.0
  0
ARC
  5
167
100
AcDbEntity
  8
PCB
 62
256
370
-1
  6
BYLAYER
100
AcDbCircle
 10
75.1816487505169562
 20
-32.3856646108446284
 30
0.0
 40
0.7750096071115202
100
AcDbArc
 50
270.0000043995325427
 51
359.9999955636619688
  0
ARC
  5
168
100
AcDbEntity
  8
PCB
 62
256
370
-1
  6
BYLAYER
100
AcDbCircle
 10
75.1816488695371845
 20
-32.3856646108446284
 30
0.0
 40
0.7750096071128092
100
AcDbArc
 50
180.0000044363380312
 51
269.9999956004680826
  0
ARC
  5
169
100
AcDbEntity
  8
PCB
 62
256
370
-1
  6
BYLAYER
100
AcDbCircle
 10
75.1816488695371845
 20
-32.3856647298622988
 30
0.0
 40
0.775009607111511
100
AcDbArc
 50
90.0000043995325427
 51
179.9999955636619973
  0
ARC
  5
16A
100
AcDbEntity
  8
PCB
 62
256
370
-1
  6
BYLAYER
100
AcDbCircle
 10
75.1816487505169562
 20
-32.3856647298622988
 30
0.0
 40
0.7750096071128184
100
AcDbArc
 50
0.0000044363380004
 51
89.9999956004674573
  0
LINE
  5
16B
100
AcDbEntity
100
AcDbLine
  8
PCB
 62
256
370
-1
  6
BYLAYER
 10
75.9566583576297489
 20
-32.3856646703534352
 30
0.0
 11
75.9566583576297489
 21
-32.3856646703534352
 31
0.0
  0
LINE
  5
16C
100
AcDbEntity
100
AcDbLine
  8
PCB
 62
256
370
-1
  6
BYLAYER
 10
76.8359743279027043
 20
-5.3188274460372895
 30
0.0
 11
77.4354219292707739
 21
-5.3188274460372895
 31
0.0
  0
LINE
  5
16D
100
AcDbEntity
100
AcDbLine
  8
PCB
 62
256
370
-1
  6
BYLAYER
 10
76.8359743279027043
 20
-3.5687452539075366
 30
0.0
 11
77.4354219292707739
 21
-3.5687452539075366
 31
0.0
  0
LINE
  5
16E
100
AcDbEntity
100
AcDbLine
  8
PCB
 62
256
370
-1
  6
BYLAYER
 10
76.8359743279027043
 20
-1.9431246400279747
 30
0.0
 11
77.4354219292707739
 21
-1.9431246400279747
 31
0.0
  0
LINE
  5
16F
100
AcDbEntity
100
AcDbLine
  8
PCB
 62
256
370
-1
  6
BYLAYER
 10
76.8359743279027043
 20
-6.9444480599169083
 30
0.0
 11
77.4354219292707739
 21
-6.9444480599169083
 31
0.0
  0
ARC
  5
170
100
AcDbEntity
  8
PCB
 62
256
370
-1
  6
BYLAYER
100
AcDbCircle
 10
74.5766160238542852
 20
-7.945296789319741
 30
0.0
 40
0.8250097356172402
100
AcDbArc
 50
269.9999759691589247
 51
0.0000240121466403
  0
ARC
  5
171
100
AcDbEntity
  8
PCB
 62
256
370
-1
  6
BYLAYER
100
AcDbCircle
 10
74.5766153318076022
 20
-7.945296789319741
 30
0.0
 40
0.8250097356172196
100
AcDbArc
 50
179.9999759575158294
 51
270.0000240308424395
  0
ARC
  5
172
100
AcDbEntity
  8
PCB
 62
256
370
-1
  6
BYLAYER
100
AcDbCircle
 10
74.5766151692020003
 20
-7.9452959346680245
 30
0.0
 40
0.8250095730123411
100
AcDbArc
 50
89.9999646764213992
 51
180.0000353260130623
  0
ARC
  5
173
100
AcDbEntity
  8
PCB
 62
256
370
-1
  6
BYLAYER
100
AcDbCircle
 10
74.5766161864598871
 20
-7.9452959346680245
 30
0.0
 40
0.8250095730117751
100
AcDbArc
 50
359.9999646739869377
 51
90.0000353235773218
  0
LINE
  5
174
100
AcDbEntity
100
AcDbLine
  8
PCB
 62
256
370
-1
  6
BYLAYER
 10
75.4016257594714716
 20
-7.9452964432963427
 30
0.0
 11
75.4016257594714716
 21
-7.9452964432963427
 31
0.0
  0
ARC
  5
175
100
AcDbEntity
  8
PCB
 62
256
370
-1
  6
BYLAYER
100
AcDbCircle
 10
74.5766160238545126
 20
-0.9451971317060384
 30
0.0
 40
0.8250097356171635
100
AcDbArc
 50
269.9999759691460781
 51
0.0000240121466403
  0
ARC
  5
176
100
AcDbEntity
  8
PCB
 62
256
370
-1
  6
BYLAYER
100
AcDbCircle
 10
74.5766153318073748
 20
-0.9451971317060952
 30
0.0
 40
0.8250097356170346
100
AcDbArc
 50
179.9999759575158294
 51
270.0000240308552293
  0
ARC
  5
177
100
AcDbEntity
  8
PCB
 62
256
370
-1
  6
BYLAYER
100
AcDbCircle
 10
74.5766151692018866
 20
-0.9451962770540376
 30
0.0
 40
0.8250095730121045
100
AcDbArc
 50
89.9999646764098458
 51
180.0000353260130623
  0
ARC
  5
178
100
AcDbEntity
  8
PCB
 62
256
370
-1
  6
BYLAYER
100
AcDbCircle
 10
74.5766161864600008
 20
-0.9451962770540376
 30
0.0
 40
0.8250095730116271
100
AcDbArc
 50
359.9999646739869377
 51
90.0000353235875963
  0
LINE
  5
179
100
AcDbEntity
100
AcDbLine
  8
PCB
 62
256
370
-1
  6
BYLAYER
 10
75.4016257594714716
 20
-0.94519678568264
 30
0.0
 11
75.4016257594714716
 21
-0.94519678568264
 31
0.0
  0
LINE
  5
17A
100
AcDbEntity
100
AcDbLine
  8
PCB
 62
256
370
-1
  6
BYLAYER
 10
73.2748491706227014
 20
-11.5749267772645794
 30
0.0
 11
72.7262022134383415
 21
-11.5749267772645794
 31
0.0
  0
LINE
  5
17B
100
AcDbEntity
100
AcDbLine
  8
PCB
 62
256
370
-1
  6
BYLAYER
 10
73.2748491706227014
 20
-13.1751470690522865
 30
0.0
 11
72.7262022134383415
 21
-13.1751470690522865
 31
0.0
  0
LINE
  5
17C
100
AcDbEntity
100
AcDbLine
  8
PCB
 62
256
370
-1
  6
BYLAYER
 10
73.2748491706227014
 20
-14.7753673608399936
 30
0.0
 11
72.7262022134383415
 21
-14.7753673608399936
 31
0.0
  0
LINE
  5
17D
100
AcDbEntity
100
AcDbLine
  8
PCB
 62
256
370
-1
  6
BYLAYER
 10
74.8750694624103517
 20
-12.3750369231584045
 30
0.0
 11
74.3264225052261054
 21
-12.3750369231584045
 31
0.0
  0
LINE
  5
17E
100
AcDbEntity
100
AcDbLine
  8
PCB
 62
256
370
-1
  6
BYLAYER
 10
74.8750694624103517
 20
-13.9752572149461685
 30
0.0
 11
74.3264225052261054
 21
-13.9752572149461685
 31
0.0
  0
ARC
  5
17F
100
AcDbEntity
  8
PCB
 62
256
370
-1
  6
BYLAYER
100
AcDbCircle
 10
77.6515773360544017
 20
-16.8254003683303495
 30
0.0
 40
0.8250114158606768
100
AcDbArc
 50
270.0000926594112229
 51
359.9999249795747573
  0
ARC
  5
180
100
AcDbEntity
  8
PCB
 62
256
370
-1
  6
BYLAYER
100
AcDbCircle
 10
77.6515783784519726
 20
-16.8254019943705657
 30
0.0
 40
0.8250097898200853
100
AcDbArc
 50
179.9999620862972733
 51
270.0000202665348752
  0
ARC
  5
181
100
AcDbEntity
  8
PCB
 62
256
370
-1
  6
BYLAYER
100
AcDbCircle
 10
77.651578324249158
 20
-16.8254011025228465
 30
0.0
 40
0.8250097356172332
100
AcDbArc
 50
89.9999759691563241
 51
180.0000240424841706
  0
ARC
  5
182
100
AcDbEntity
  8
PCB
 62
256
370
-1
  6
BYLAYER
100
AcDbCircle
 10
77.6515773902541468
 20
-16.8254027285645407
 30
0.0
 40
0.8250113616599167
100
AcDbArc
 50
0.0000888909169664
 51
89.9999111046760873
  0
LINE
  5
183
100
AcDbEntity
100
AcDbLine
  8
PCB
 62
256
370
-1
  6
BYLAYER
 10
78.4765887519130274
 20
-16.825401448546188
 30
0.0
 11
78.4765887519130274
 21
-16.825401448546188
 31
0.0
  0
ARC
  5
184
100
AcDbEntity
  8
PCB
 62
256
370
-1
  6
BYLAYER
100
AcDbCircle
 10
78.8517425548951678
 20
-16.8254003683303495
 30
0.0
 40
0.8250114158606768
100
AcDbArc
 50
270.0000926594112229
 51
359.9999249795747573
  0
ARC
  5
185
100
AcDbEntity
  8
PCB
 62
256
370
-1
  6
BYLAYER
100
AcDbCircle
 10
78.8517435972927387
 20
-16.8254019943705657
 30
0.0
 40
0.8250097898201036
100
AcDbArc
 50
179.9999621055281693
 51
270.0000202665335678
  0
ENDSEC
  0
SECTION
  2
OBJECTS
  0
DICTIONARY
  5
C
100
AcDbDictionary
280
0
281
1
  3
ACAD_GROUP
350
D
  3
ACAD_LAYOUT
350
1A
  3
ACAD_MLINESTYLE
350
17
  3
ACAD_PLOTSETTINGS
350
19
  3
ACAD_PLOTSTYLENAME
350
E
  3
AcDbVariableDictionary
350
186
  3
QCAD_OBJECTS
350
187
  0
DICTIONARY
  5
D
100
AcDbDictionary
280
0
281
1
  0
ACDBDICTIONARYWDFLT
  5
E
100
AcDbDictionary
281
1
  3
Normal
350
F
100
AcDbDictionaryWithDefault
340
F
  0
ACDBPLACEHOLDER
  5
F
  0
DICTIONARY
  5
17
100
AcDbDictionary
280
0
281
1
  3
Standard
350
18
  0
MLINESTYLE
  5
18
100
AcDbMlineStyle
  2
STANDARD
 70
0
  3

 62
256
 51
90.0
 52
90.0
 71
2
 49
0.5
 62
256
  6
BYLAYER
 49
-0.5
 62
256
  6
BYLAYER
  0
DICTIONARY
  5
19
100
AcDbDictionary
280
0
281
1
  0
DICTIONARY
  5
1A
100
AcDbDictionary
281
1
  3
Layout1
350
1E
  3
Layout2
350
26
  3
Model
350
22
  0
LAYOUT
  5
1E
100
AcDbPlotSettings
  1

  2
C:\Program Files\AutoCAD 2002\plotters\DWF ePlot (optimized for plotting).pc3
  4

  6

 40
0.0
 41
0.0
 42
0.0
 43
0.0
 44
0.0
 45
0.0
 46
0.0
 47
0.0
 48
0.0
 49
0.0
140
0.0
141
0.0
142
1.0
143
1.0
 70
688
 72
0
 73
0
 74
5
  7

 75
16
147
1.0
148
0.0
149
0.0
100
AcDbLayout
  1
Layout1
 70
1
 71
1
 10
0.0
 20
0.0
 11
420.0
 21
297.0
 12
0.0
 22
0.0
 32
0.0
 14
100000000000000000000.0
 24
100000000000000000000.0
 34
100000000000000000000.0
 15
-100000000000000000000.0
 25
-100000000000000000000.0
 35
-100000000000000000000.0
146
0.0
 13
0.0
 23
0.0
 33
0.0
 16
1.0
 26
0.0
 36
0.0
 17
0.0
 27
1.0
 37
0.0
 76
0
330
1B
  0
LAYOUT
  5
22
100
AcDbPlotSettings
  1

  2
C:\Program Files\AutoCAD 2002\plotters\DWF ePlot (optimized for plotting).pc3
  4

  6

 40
0.0
 41
0.0
 42
0.0
 43
0.0
 44
0.0
 45
0.0
 46
0.0
 47
0.0
 48
0.0
 49
0.0
140
0.0
141
0.0
142
1.0
143
1.0
 70
1712
 72
0
 73
0
 74
0
  7

 75
0
147
1.0
148
0.0
149
0.0
100
AcDbLayout
  1
Model
 70
1
 71
0
 10
0.0
 20
0.0
 11
12.0
 21
9.0
 12
0.0
 22
0.0
 32
0.0
 14
0.0
 24
0.0
 34
0.0
 15
0.0
 25
0.0
 35
0.0
146
0.0
 13
0.0
 23
0.0
 33
0.0
 16
1.0
 26
0.0
 36
0.0
 17
0.0
 27
1.0
 37
0.0
 76
0
330
1F
  0
LAYOUT
  5
26
100
AcDbPlotSettings
  1

  2
C:\Program Files\AutoCAD 2002\plotters\DWF ePlot (optimized for plotting).pc3
  4

  6

 40
0.0
 41
0.0
 42
0.0
 43
0.0
 44
0.0
 45
0.0
 46
0.0
 47
0.0
 48
0.0
 49
0.0
140
0.0
141
0.0
142
1.0
143
1.0
 70
688
 72
0
 73
0
 74
5
  7

 75
16
147
1.0
148
0.0
149
0.0
100
AcDbLayout
  1
Layout2
 70
1
 71
2
 10
0.0
 20
0.0
 11
12.0
 21
9.0
 12
0.0
 22
0.0
 32
0.0
 14
0.0
 24
0.0
 34
0.0
 15
0.0
 25
0.0
 35
0.0
146
0.0
 13
0.0
 23
0.0
 33
0.0
 16
1.0
 26
0.0
 36
0.0
 17
0.0
 27
1.0
 37
0.0
 76
0
330
23
  0
DICTIONARY
  5
186
100
AcDbDictionary
281
1
  3
DIMASSOC
350
189
  3
HIDETEXT
350
188
  0
DICTIONARYVAR
  5
188
100
DictionaryVariables
280
0
  1
2
  0
DICTIONARYVAR
  5
189
100
DictionaryVariables
280
0
  1
1
  0
DICTIONARY
  5
187
100
AcDbDictionary
281
1
  3
Grid/DisplayGrid00
350
18A
  3
Grid/DisplayGrid01
350
18B
  3
Grid/DisplayGrid02
350
18C
  3
Grid/DisplayGrid03
350
18D
  3
Grid/GridSpacingX00
350
18E
  3
Grid/GridSpacingX01
350
18F
  3
Grid/GridSpacingX02
350
190
  3
Grid/GridSpacingX03
350
191
  3
Grid/GridSpacingY00
350
192
  3
Grid/GridSpacingY01
350
193
  3
Grid/GridSpacingY02
350
194
  3
Grid/GridSpacingY03
350
195
  3
Grid/IsometricGrid00
350
196
  3
Grid/IsometricGrid01
350
197
  3
Grid/IsometricGrid02
350
198
  3
Grid/IsometricGrid03
350
199
  3
Grid/IsometricProjection00
350
19A
  3
Grid/IsometricProjection01
350
19B
  3
Grid/IsometricProjection02
350
19C
  3
Grid/IsometricProjection03
350
19D
  3
Grid/MetaGridSpacingX00
350
19E
  3
Grid/MetaGridSpacingX01
350
19F
  3
Grid/MetaGridSpacingX02
350
1A0
  3
Grid/MetaGridSpacingX03
350
1A1
  3
Grid/MetaGridSpacingY00
350
1A2
  3
Grid/MetaGridSpacingY01
350
1A3
  3
Grid/MetaGridSpacingY02
350
1A4
  3
Grid/MetaGridSpacingY03
350
1A5
  3
MultiPageSettings/Columns
350
1A6
  3
MultiPageSettings/GlueMarginsBottom
350
1A7
  3
MultiPageSettings/GlueMarginsLeft
350
1A8
  3
MultiPageSettings/GlueMarginsRight
350
1A9
  3
MultiPageSettings/GlueMarginsTop
350
1AA
  3
MultiPageSettings/PrintCropMarks
350
1AB
  3
MultiPageSettings/Rows
350
1AC
  3
PageSettings/OffsetX
350
1AD
  3
PageSettings/OffsetY
350
1AE
  3
PageSettings/PageOrientation
350
1AF
  3
PageSettings/PaperHeight
350
1B0
  3
PageSettings/PaperWidth
350
1B1
  3
PageSettings/Scale
350
1B2
  3
PageSettings/ShowPaperBorders
350
1B3
  3
UnitSettings/PaperUnit
350
1B4
  0
XRECORD
  5
18A
330
187
100
AcDbXrecord
280
1
290
1
  0
XRECORD
  5
18B
330
187
100
AcDbXrecord
280
1
290
1
  0
XRECORD
  5
18C
330
187
100
AcDbXrecord
280
1
290
1
  0
XRECORD
  5
18D
330
187
100
AcDbXrecord
280
1
290
1
  0
XRECORD
  5
18E
330
187
100
AcDbXrecord
280
1
1000
auto
  0
XRECORD
  5
18F
330
187
100
AcDbXrecord
280
1
1000
auto
  0
XRECORD
  5
190
330
187
100
AcDbXrecord
280
1
1000
auto
  0
XRECORD
  5
191
330
187
100
AcDbXrecord
280
1
1000
auto
  0
XRECORD
  5
192
330
187
100
AcDbXrecord
280
1
1000
auto
  0
XRECORD
  5
193
330
187
100
AcDbXrecord
280
1
1000
auto
  0
XRECORD
  5
194
330
187
100
AcDbXrecord
280
1
1000
auto
  0
XRECORD
  5
195
330
187
100
AcDbXrecord
280
1
1000
auto
  0
XRECORD
  5
196
330
187
100
AcDbXrecord
280
1
290
0
  0
XRECORD
  5
197
330
187
100
AcDbXrecord
280
1
290
0
  0
XRECORD
  5
198
330
187
100
AcDbXrecord
280
1
290
0
  0
XRECORD
  5
199
330
187
100
AcDbXrecord
280
1
290
0
  0
XRECORD
  5
19A
330
187
100
AcDbXrecord
280
1
 90
0
  0
XRECORD
  5
19B
330
187
100
AcDbXrecord
280
1
 90
0
  0
XRECORD
  5
19C
330
187
100
AcDbXrecord
280
1
 90
0
  0
XRECORD
  5
19D
330
187
100
AcDbXrecord
280
1
 90
0
  0
XRECORD
  5
19E
330
187
100
AcDbXrecord
280
1
1000
auto
  0
XRECORD
  5
19F
330
187
100
AcDbXrecord
280
1
1000
auto
  0
XRECORD
  5
1A0
330
187
100
AcDbXrecord
280
1
1000
auto
  0
XRECORD
  5
1A1
330
187
100
AcDbXrecord
280
1
1000
auto
  0
XRECORD
  5
1A2
330
187
100
AcDbXrecord
280
1
1000
auto
  0
XRECORD
  5
1A3
330
187
100
AcDbXrecord
280
1
1000
auto
  0
XRECORD
  5
1A4
330
187
100
AcDbXrecord
280
1
1000
auto
  0
XRECORD
  5
1A5
330
187
100
AcDbXrecord
280
1
1000
auto
  0
XRECORD
  5
1A6
330
187
100
AcDbXrecord
280
1
 90
1
  0
XRECORD
  5
1A7
330
187
100
AcDbXrecord
280
1
 40
10.0
  0
XRECORD
  5
1A8
330
187
100
AcDbXrecord
280
1
 40
10.0
  0
XRECORD
  5
1A9
330
187
100
AcDbXrecord
280
1
 40
10.0
  0
XRECORD
  5
1AA
330
187
100
AcDbXrecord
280
1
 40
10.0
  0
XRECORD
  5
1AB
330
187
100
AcDbXrecord
280
1
290
0
  0
XRECORD
  5
1AC
330
187
100
AcDbXrecord
280
1
 90
1
  0
XRECORD
  5
1AD
330
187
100
AcDbXrecord
280
1
 40
0.0
  0
XRECORD
  5
1AE
330
187
100
AcDbXrecord
280
1
 40
0.0
  0
XRECORD
  5
1AF
330
187
100
AcDbXrecord
280
1
1000
Portrait
  0
XRECORD
  5
1B0
330
187
100
AcDbXrecord
280
1
 40
297.0
  0
XRECORD
  5
1B1
330
187
100
AcDbXrecord
280
1
 40
210.0
  0
XRECORD
  5
1B2
330
187
100
AcDbXrecord
280
1
1000
1:1
  0
XRECORD
  5
1B3
330
187
100
AcDbXrecord
280
1
290
1
  0
XRECORD
  5
1B4
330
187
100
AcDbXrecord
280
1
 90
4
  0
ENDSEC
  0
EOF
