999
dxflib 3.1.5.0
  0
SECTION
  2
HEADER
  9
$ACADVER
  1
AC1015
  9
$HANDSEED
  5
FFFF
  9
$DIMADEC
 70
0
  9
$DIMASZ
 40
2.5
  9
$DIMAUNIT
 70
0
  9
$DIMAZIN
 70
2
  9
$DIMDEC
 70
4
  9
$DIMEXE
 40
1.25
  9
$DIMEXO
 40
0.625
  9
$DIMGAP
 40
0.625
  9
$DIMLUNIT
 70
2
  9
$DIMTSZ
 40
0.0
  9
$DIMTXT
 40
2.5
  9
$DIMZIN
 70
8
  9
$INSUNITS
 70
4
  9
$LTSCALE
 40
1.0
  0
SECTION
  2
TABLES
  0
TABLE
  2
VPORT
  5
8
100
AcDbSymbolTable
 70
1
  0
VPORT
  5
30
100
AcDbSymbolTableRecord
100
AcDbViewportTableRecord
  2
*Active
 70
0
 10
0.0
 20
0.0
 11
1.0
 21
1.0
 12
286.3055555555554861
 22
148.5
 13
0.0
 23
0.0
 14
10.0
 24
10.0
 15
10.0
 25
10.0
 16
0.0
 26
0.0
 36
1.0
 17
0.0
 27
0.0
 37
0.0
 40
297.0
 41
1.92798353909465
 42
50.0
 43
0.0
 44
0.0
 50
0.0
 51
0.0
 71
0
 72
100
 73
1
 74
3
 75
1
 76
1
 77
0
 78
0
281
0
 65
1
110
0.0
120
0.0
130
0.0
111
1.0
121
0.0
131
0.0
112
0.0
122
1.0
132
0.0
 79
0
146
0.0
  0
ENDTAB
  0
TABLE
  2
LTYPE
  5
5
100
AcDbSymbolTable
 70
21
  0
LTYPE
  5
31
100
AcDbSymbolTableRecord
100
AcDbLinetypeTableRecord
  2
CENTER2
 70
0
  3
Center (.5x) ___ _ ___ _ ___ _ ___ _ ___ _ ___
 72
65
 73
4
 40
28.5749999999999993
 49
19.0500000000000007
 74
0
 49
-3.1749999999999998
 74
0
 49
3.1749999999999998
 74
0
 49
-3.1749999999999998
 74
0
  0
LTYPE
  5
32
100
AcDbSymbolTableRecord
100
AcDbLinetypeTableRecord
  2
DIVIDEX2
 70
0
  3
Divide (2x) ________  .  .  ________  .  .  _
 72
65
 73
6
 40
63.5
 49
25.3999999999999986
 74
0
 49
-12.6999999999999993
 74
0
 49
0.0
 74
0
 49
-12.6999999999999993
 74
0
 49
0.0
 74
0
 49
-12.6999999999999993
 74
0
  0
LTYPE
  5
33
100
AcDbSymbolTableRecord
100
AcDbLinetypeTableRecord
  2
DOT2
 70
0
  3
Dot (.5x) .....................................
 72
65
 73
2
 40
3.1749999999999998
 49
0.0
 74
0
 49
-3.1749999999999998
 74
0
  0
LTYPE
  5
34
100
AcDbSymbolTableRecord
100
AcDbLinetypeTableRecord
  2
DASHDOT2
 70
0
  3
Dash dot (.5x) _._._._._._._._._._._._._._._.
 72
65
 73
4
 40
12.6999999999999993
 49
6.3499999999999996
 74
0
 49
-3.1749999999999998
 74
0
 49
0.0
 74
0
 49
-3.1749999999999998
 74
0
  0
LTYPE
  5
35
100
AcDbSymbolTableRecord
100
AcDbLinetypeTableRecord
  2
DIVIDE
 70
0
  3
Divide ____ . . ____ . . ____ . . ____ . . ____
 72
65
 73
6
 40
31.75
 49
12.6999999999999993
 74
0
 49
-6.3499999999999996
 74
0
 49
0.0
 74
0
 49
-6.3499999999999996
 74
0
 49
0.0
 74
0
 49
-6.3499999999999996
 74
0
  0
LTYPE
  5
36
100
AcDbSymbolTableRecord
100
AcDbLinetypeTableRecord
  2
DASHDOT
 70
0
  3
Dash dot __ . __ . __ . __ . __ . __ . __ . __
 72
65
 73
4
 40
25.3999999999999986
 49
12.6999999999999993
 74
0
 49
-6.3499999999999996
 74
0
 49
0.0
 74
0
 49
-6.3499999999999996
 74
0
  0
LTYPE
  5
37
100
AcDbSymbolTableRecord
100
AcDbLinetypeTableRecord
  2
BORDER
 70
0
  3
Border __ __ . __ __ . __ __ . __ __ . __ __ .
 72
65
 73
6
 40
44.4500000000000028
 49
12.6999999999999993
 74
0
 49
-6.3499999999999996
 74
0
 49
12.6999999999999993
 74
0
 49
-6.3499999999999996
 74
0
 49
0.0
 74
0
 49
-6.3499999999999996
 74
0
  0
LTYPE
  5
38
100
AcDbSymbolTableRecord
100
AcDbLinetypeTableRecord
  2
DASHDOTX2
 70
0
  3
Dash dot (2x) ____  .  ____  .  ____  .  ___
 72
65
 73
4
 40
50.7999999999999972
 49
25.3999999999999986
 74
0
 49
-12.6999999999999993
 74
0
 49
0.0
 74
0
 49
-12.6999999999999993
 74
0
  0
LTYPE
  5
39
100
AcDbSymbolTableRecord
100
AcDbLinetypeTableRecord
  2
CENTERX2
 70
0
  3
Center (2x) ________  __  ________  __  _____
 72
65
 73
4
 40
101.5999999999999943
 49
63.5
 74
0
 49
-12.6999999999999993
 74
0
 49
12.6999999999999993
 74
0
 49
-12.6999999999999993
 74
0
  0
LTYPE
  5
3A
100
AcDbSymbolTableRecord
100
AcDbLinetypeTableRecord
  2
BORDER2
 70
0
  3
Border (.5x) __.__.__.__.__.__.__.__.__.__.__.
 72
65
 73
6
 40
22.2250000000000014
 49
6.3499999999999996
 74
0
 49
-3.1749999999999998
 74
0
 49
6.3499999999999996
 74
0
 49
-3.1749999999999998
 74
0
 49
0.0
 74
0
 49
-3.1749999999999998
 74
0
  0
LTYPE
  5
3B
100
AcDbSymbolTableRecord
100
AcDbLinetypeTableRecord
  2
BORDERX2
 70
0
  3
Border (2x) ____  ____  .  ____  ____  .  ___
 72
65
 73
6
 40
88.9000000000000057
 49
25.3999999999999986
 74
0
 49
-12.6999999999999993
 74
0
 49
25.3999999999999986
 74
0
 49
-12.6999999999999993
 74
0
 49
0.0
 74
0
 49
-12.6999999999999993
 74
0
  0
LTYPE
  5
16
100
AcDbSymbolTableRecord
100
AcDbLinetypeTableRecord
  2
CONTINUOUS
 70
0
  3
Solid line
 72
65
 73
0
 40
0.0
  0
LTYPE
  5
14
100
AcDbSymbolTableRecord
100
AcDbLinetypeTableRecord
  2
BYBLOCK
 70
0
  3

 72
65
 73
0
 40
0.0
  0
LTYPE
  5
15
100
AcDbSymbolTableRecord
100
AcDbLinetypeTableRecord
  2
BYLAYER
 70
0
  3

 72
65
 73
0
 40
0.0
  0
LTYPE
  5
3C
100
AcDbSymbolTableRecord
100
AcDbLinetypeTableRecord
  2
DASHED2
 70
0
  3
Dashed (.5x) _ _ _ _ _ _ _ _ _ _ _ _ _ _ _ _ _
 72
65
 73
2
 40
9.5250000000000004
 49
6.3499999999999996
 74
0
 49
-3.1749999999999998
 74
0
  0
LTYPE
  5
3D
100
AcDbSymbolTableRecord
100
AcDbLinetypeTableRecord
  2
CENTER
 70
0
  3
Center ____ _ ____ _ ____ _ ____ _ ____ _ ____
 72
65
 73
4
 40
50.7999999999999972
 49
31.75
 74
0
 49
-6.3499999999999996
 74
0
 49
6.3499999999999996
 74
0
 49
-6.3499999999999996
 74
0
  0
LTYPE
  5
3E
100
AcDbSymbolTableRecord
100
AcDbLinetypeTableRecord
  2
DIVIDE2
 70
0
  3
Divide (.5x) __..__..__..__..__..__..__..__.._
 72
65
 73
6
 40
15.875
 49
6.3499999999999996
 74
0
 49
-3.1749999999999998
 74
0
 49
0.0
 74
0
 49
-3.1749999999999998
 74
0
 49
0.0
 74
0
 49
-3.1749999999999998
 74
0
  0
LTYPE
  5
3F
100
AcDbSymbolTableRecord
100
AcDbLinetypeTableRecord
  2
DASHED
 70
0
  3
Dashed __ __ __ __ __ __ __ __ __ __ __ __ __ _
 72
65
 73
2
 40
19.0500000000000007
 49
12.6999999999999993
 74
0
 49
-6.3499999999999996
 74
0
  0
LTYPE
  5
40
100
AcDbSymbolTableRecord
100
AcDbLinetypeTableRecord
  2
DOTX2
 70
0
  3
Dot (2x) .  .  .  .  .  .  .  .  .  .  .  .  .
 72
65
 73
2
 40
12.6999999999999993
 49
0.0
 74
0
 49
-12.6999999999999993
 74
0
  0
LTYPE
  5
41
100
AcDbSymbolTableRecord
100
AcDbLinetypeTableRecord
  2
DASHEDX2
 70
0
  3
Dashed (2x) ____  ____  ____  ____  ____  ___
 72
65
 73
2
 40
38.1000000000000014
 49
25.3999999999999986
 74
0
 49
-12.6999999999999993
 74
0
  0
LTYPE
  5
42
100
AcDbSymbolTableRecord
100
AcDbLinetypeTableRecord
  2
DOT
 70
0
  3
Dot . . . . . . . . . . . . . . . . . . . . . .
 72
65
 73
2
 40
6.3499999999999996
 49
0.0
 74
0
 49
-6.3499999999999996
 74
0
  0
ENDTAB
  0
TABLE
  2
LAYER
  5
2
100
AcDbSymbolTable
 70
2
  0
LAYER
  5
43
100
AcDbSymbolTableRecord
100
AcDbLayerTableRecord
  2
engrave
 70
0
 62
3
420
65280
  6
CONTINUOUS
370
5
390
F
  0
LAYER
  5
10
100
AcDbSymbolTableRecord
100
AcDbLayerTableRecord
  2
0
 70
0
 62
7
420
16777215
  6
CONTINUOUS
370
25
390
F
  0
ENDTAB
  0
TABLE
  2
STYLE
  5
3
100
AcDbSymbolTable
 70
0
  0
ENDTAB
  0
TABLE
  2
VIEW
  5
6
100
AcDbSymbolTable
 70
0
  0
ENDTAB
  0
TABLE
  2
UCS
  5
7
100
AcDbSymbolTable
 70
0
  0
ENDTAB
  0
TABLE
  2
APPID
  5
9
100
AcDbSymbolTable
 70
1
  0
APPID
  5
44
100
AcDbSymbolTableRecord
100
AcDbRegAppTableRecord
  2
QCAD
 70
0
  0
ENDTAB
  0
TABLE
  2
DIMSTYLE
  5
A
100
AcDbSymbolTable
 70
1
100
AcDbDimStyleTable
 71
0
  0
DIMSTYLE
105
27
100
AcDbSymbolTableRecord
100
AcDbDimStyleTableRecord
  2
Standard
 41
2.5
 42
0.625
 43
3.75
 44
1.25
 70
0
 73
0
 74
0
 77
1
 78
8
140
2.5
141
2.5
143
0.03937007874016
147
0.625
171
3
172
1
271
2
272
2
274
3
278
44
283
0
284
8
340
11
  0
ENDTAB
  0
TABLE
  2
BLOCK_RECORD
  5
1
100
AcDbSymbolTable
 70
1
  0
BLOCK_RECORD
  5
1F
100
AcDbSymbolTableRecord
100
AcDbBlockTableRecord
  2
*Model_Space
340
22
  0
BLOCK_RECORD
  5
1B
100
AcDbSymbolTableRecord
100
AcDbBlockTableRecord
  2
*Paper_Space
340
1E
  0
BLOCK_RECORD
  5
23
100
AcDbSymbolTableRecord
100
AcDbBlockTableRecord
  2
*Paper_Space0
340
26
  0
BLOCK_RECORD
  5
45
100
AcDbSymbolTableRecord
100
AcDbBlockTableRecord
  2
*MODEL_SPACE
340
0
  0
ENDTAB
  0
ENDSEC
  0
SECTION
  2
BLOCKS
  0
BLOCK
  5
20
100
AcDbEntity
  8
0
100
AcDbBlockBegin
  2
*MODEL_SPACE
 70
0
 10
0.0
 20
0.0
 30
0.0
  3
*MODEL_SPACE
  1

  0
ENDSEC
  0
SECTION
  2
ENTITIES
  0
ARC
  5
46
100
AcDbEntity
  8
engrave
 62
256
370
-1
  6
BYLAYER
100
AcDbCircle
 10
-9.1538898561027544
 20
-1.3008175181560899
 30
0.0
 40
0.1432714601946705
100
AcDbArc
 50
181.8499007756146568
 51
257.6153147725020176
  0
LINE
  5
47
100
AcDbEntity
100
AcDbLine
  8
engrave
 62
256
370
-1
  6
BYLAYER
 10
-9.2970866467414943
 20
-1.3054424999999936
 30
0.0
 11
-9.2970866467414943
 21
1.305165000000021
 31
0.0
  0
ARC
  5
48
100
AcDbEntity
  8
engrave
 62
256
370
-1
  6
BYLAYER
100
AcDbCircle
 10
-9.1539159520629063
 20
1.3003987524224714
 30
0.0
 40
0.1432500084842087
100
AcDbArc
 50
102.3758831301380923
 51
178.0932895952371382
  0
LINE
  5
49
100
AcDbEntity
100
AcDbLine
  8
engrave
 62
256
370
-1
  6
BYLAYER
 10
-9.1846178967415462
 20
1.4403200000000753
 30
0.0
 11
-6.5611803967415225
 21
1.9285025000000688
 31
0.0
  0
ARC
  5
4A
100
AcDbEntity
  8
engrave
 62
256
370
-1
  6
BYLAYER
100
AcDbCircle
 10
-6.6121517826165954
 20
2.1366395633874946
 30
0.0
 40
0.2142874689140493
100
AcDbArc
 50
283.7605367886154681
 51
338.5005910821283237
  0
LINE
  5
4B
100
AcDbEntity
100
AcDbLine
  8
engrave
 62
256
370
-1
  6
BYLAYER
 10
-6.4127741467415289
 20
2.0581049999999879
 30
0.0
 11
-5.6929928967415462
 21
3.8165574999999636
 31
0.0
  0
ARC
  5
4C
100
AcDbEntity
  8
engrave
 62
256
370
-1
  6
BYLAYER
100
AcDbCircle
 10
-5.8920615836392498
 20
3.9013691789206506
 30
0.0
 40
0.2163824461099298
100
AcDbArc
 50
336.9239446759394241
 51
31.2406759706651016
  0
LINE
  5
4D
100
AcDbEntity
100
AcDbLine
  8
engrave
 62
256
370
-1
  6
BYLAYER
 10
-5.7070553967415689
 20
4.0135924999999917
 30
0.0
 11
-7.2110866467415944
 21
6.2051399999999477
 31
0.0
  0
ARC
  5
4E
100
AcDbEntity
  8
engrave
 62
256
370
-1
  6
BYLAYER
100
AcDbCircle
 10
-7.0905876343852041
 20
6.2823591419866363
 30
0.0
 40
0.1431181605108885
100
AcDbArc
 50
136.7534467669800904
 51
212.6528863017445872
  0
LINE
  5
4F
100
AcDbEntity
100
AcDbLine
  8
engrave
 62
256
370
-1
  6
BYLAYER
 10
-7.1948366467415807
 20
6.3804150000000037
 30
0.0
 11
-5.349055396741508
 21
8.2263550000000443
 31
0.0
  0
ARC
  5
50
100
AcDbEntity
  8
engrave
 62
256
370
-1
  6
BYLAYER
100
AcDbCircle
 10
-5.2510005068570562
 20
8.1215877632593312
 30
0.0
 40
0.1434954191761317
100
AcDbArc
 50
57.4401728690818985
 51
133.1045025243172972
  0
LINE
  5
51
100
AcDbEntity
100
AcDbLine
  8
engrave
 62
256
370
-1
  6
BYLAYER
 10
-5.1737741467416098
 20
8.2425300000000199
 30
0.0
 11
-3.0198678967415189
 21
6.7645775000000059
 31
0.0
  0
ARC
  5
52
100
AcDbEntity
  8
engrave
 62
256
370
-1
  6
BYLAYER
100
AcDbCircle
 10
-2.9101742614576578
 20
6.9456788851977409
 30
0.0
 40
0.211731918572299
100
AcDbArc
 50
238.796588689608086
 51
294.0832587375324465
  0
LINE
  5
53
100
AcDbEntity
100
AcDbLine
  8
engrave
 62
256
370
-1
  6
BYLAYER
 10
-2.8237741467415871
 20
6.7523774999999988
 30
0.0
 11
-1.0099303967415407
 21
7.530004999999993
 31
0.0
  0
ARC
  5
54
100
AcDbEntity
  8
engrave
 62
256
370
-1
  6
BYLAYER
100
AcDbCircle
 10
-1.0927700822758224
 20
7.7318946879554789
 30
0.0
 40
0.2182243332036551
100
AcDbArc
 50
292.3093985278702576
 51
346.278152135093876
  0
LINE
  5
55
100
AcDbEntity
100
AcDbLine
  8
engrave
 62
256
370
-1
  6
BYLAYER
 10
-0.8807741467414898
 20
7.6801299999999957
 30
0.0
 11
-0.4091178967415798
 21
10.2163675000000786
 31
0.0
  0
ARC
  5
56
100
AcDbEntity
  8
engrave
 62
256
370
-1
  6
BYLAYER
100
AcDbCircle
 10
-0.2688376077596812
 20
10.1852282115161508
 30
0.0
 40
0.1436948668676351
100
AcDbArc
 50
91.9188745185931566
 51
167.484468811542655
  0
LINE
  5
57
100
AcDbEntity
100
AcDbLine
  8
engrave
 62
256
370
-1
  6
BYLAYER
 10
-0.2736491467414934
 20
10.3288424999999826
 30
0.0
 11
2.3368196032583883
 21
10.3286925000000203
 31
0.0
  0
ARC
  5
58
100
AcDbEntity
  8
engrave
 62
256
370
-1
  6
BYLAYER
100
AcDbCircle
 10
2.3323017714876615
 20
10.1854326467929788
 30
0.0
 40
0.1433310725028716
100
AcDbArc
 50
12.4016815658704758
 51
88.1937233113666252
  0
LINE
  5
59
100
AcDbEntity
100
AcDbLine
  8
engrave
 62
256
370
-1
  6
BYLAYER
 10
2.4722883532584747
 20
10.2162150000000658
 30
0.0
 11
2.9326946032584802
 21
7.7421550000000581
 31
0.0
  0
ARC
  5
5A
100
AcDbEntity
  8
engrave
 62
256
370
-1
  6
BYLAYER
100
AcDbCircle
 10
3.1362418247484785
 20
7.7913611251896429
 30
0.0
 40
0.2094103964288569
100
AcDbArc
 50
193.5901258325444871
 51
249.4568633968477513
  0
LINE
  5
5B
100
AcDbEntity
100
AcDbLine
  8
engrave
 62
256
370
-1
  6
BYLAYER
 10
3.0627571032584884
 20
7.5952675000000101
 30
0.0
 11
4.9921633532584311
 21
6.8228900000000623
 31
0.0
  0
ARC
  5
5C
100
AcDbEntity
  8
engrave
 62
256
370
-1
  6
BYLAYER
100
AcDbCircle
 10
5.0763879463726171
 20
7.0224184045227149
 30
0.0
 40
0.2165764675503684
100
AcDbArc
 50
247.1145014197832381
 51
301.3901540147454625
  0
LINE
  5
5D
100
AcDbEntity
100
AcDbLine
  8
engrave
 62
256
370
-1
  6
BYLAYER
 10
5.1891946032584402
 20
6.8375400000000228
 30
0.0
 11
7.2371018532584204
 21
8.2428225000000204
 31
0.0
  0
ARC
  5
5E
100
AcDbEntity
  8
engrave
 62
256
370
-1
  6
BYLAYER
100
AcDbCircle
 10
7.3143513877999995
 20
8.1213463896919258
 30
0.0
 40
0.1439581048863557
100
AcDbArc
 50
46.9952249935520285
 51
122.4532466176065526
  0
LINE
  5
5F
100
AcDbEntity
100
AcDbLine
  8
engrave
 62
256
370
-1
  6
BYLAYER
 10
7.412539353258464
 20
8.2266224999999942
 30
0.0
 11
9.2583218532583906
 21
6.3805300000000544
 31
0.0
  0
ARC
  5
60
100
AcDbEntity
  8
engrave
 62
256
370
-1
  6
BYLAYER
100
AcDbCircle
 10
9.1526814921800188
 20
6.2823451480243522
 30
0.0
 40
0.1442225746762452
100
AcDbArc
 50
327.6884953493552644
 51
42.9051715819038364
  0
LINE
  5
61
100
AcDbEntity
100
AcDbLine
  8
engrave
 62
256
370
-1
  6
BYLAYER
 10
9.2745718532584043
 20
6.2052549999999984
 30
0.0
 11
7.8938218532584843
 21
4.1936050000000806
 31
0.0
  0
ARC
  5
62
100
AcDbEntity
  8
engrave
 62
256
370
-1
  6
BYLAYER
100
AcDbCircle
 10
8.062413670670022
 20
4.091314101224417
 30
0.0
 40
0.1971969291607864
100
AcDbArc
 50
148.7532607944833956
 51
207.3416368066910422
  0
LINE
  5
63
100
AcDbEntity
100
AcDbLine
  8
engrave
 62
256
370
-1
  6
BYLAYER
 10
7.8872468532584863
 20
4.0007425000000341
 30
0.0
 11
8.3609018532583796
 21
3.1135674999999639
 31
0.0
  0
ARC
  5
64
100
AcDbEntity
  8
engrave
 62
256
370
-1
  6
BYLAYER
100
AcDbCircle
 10
8.268749937959452
 20
3.0647107443211654
 30
0.0
 40
0.1043022438336401
100
AcDbArc
 50
291.6402981765961613
 51
27.9314723724347402
  0
LINE
  5
65
100
AcDbEntity
100
AcDbLine
  8
engrave
 62
256
370
-1
  6
BYLAYER
 10
8.3072143532584697
 20
2.9677600000000313
 30
0.0
 11
3.8872446032584067
 21
1.1384849999999789
 31
0.0
  0
ARC
  5
66
100
AcDbEntity
  8
engrave
 62
256
370
-1
  6
BYLAYER
100
AcDbCircle
 10
3.8378264689393946
 20
1.2675288786903467
 30
0.0
 40
0.1381827580670633
100
AcDbArc
 50
213.0440889841447927
 51
290.9546439007003755
  0
LINE
  5
67
100
AcDbEntity
100
AcDbLine
  8
engrave
 62
256
370
-1
  6
BYLAYER
 10
3.7219946032585058
 20
1.1921800000000404
 30
0.0
 11
3.5860571032584376
 21
1.4142049999999573
 31
0.0
  0
ARC
  5
68
100
AcDbEntity
  8
engrave
 62
256
370
-1
  6
BYLAYER
100
AcDbCircle
 10
2.6987169615241529
 20
0.8460021030940981
 30
0.0
 40
1.0536731272958073
100
AcDbArc
 50
32.6332216214825692
 51
42.2612449642466714
  0
ARC
  5
69
100
AcDbEntity
  8
engrave
 62
256
370
-1
  6
BYLAYER
100
AcDbCircle
 10
1.0478050526801299
 20
0.0034014533340825
 30
0.0
 40
2.8835137533248996
100
AcDbArc
 50
32.5447213930501249
 51
90.0216922047900852
  0
ARC
  5
6A
100
AcDbEntity
  8
engrave
 62
256
370
-1
  6
BYLAYER
100
AcDbCircle
 10
1.0467809621079569
 20
-0.0000901086835609
 30
0.0
 40
2.8870051094752873
100
AcDbArc
 50
90.0013417716941717
 51
179.998807077165452
  0
ARC
  5
6B
100
AcDbEntity
  8
engrave
 62
256
370
-1
  6
BYLAYER
100
AcDbCircle
 10
1.0466465284708848
 20
0.0000531756371958
 30
0.0
 40
2.8868706764105934
100
AcDbArc
 50
180.00165078873178
 51
270.001326272882693
  0
ARC
  5
6C
100
AcDbEntity
  8
engrave
 62
256
370
-1
  6
BYLAYER
100
AcDbCircle
 10
1.0480034210067943
 20
-0.0036689385907164
 30
0.0
 40
2.8831488500303277
100
AcDbArc
 50
269.9743629470480641
 51
327.4593140631804999
  0
ARC
  5
6D
100
AcDbEntity
  8
engrave
 62
256
370
-1
  6
BYLAYER
100
AcDbCircle
 10
2.7087452264810254
 20
-0.8523317094806897
 30
0.0
 40
1.0419292514554064
100
AcDbArc
 50
317.6295629932178031
 51
327.3526803104724081
  0
LINE
  5
6E
100
AcDbEntity
100
AcDbLine
  8
engrave
 62
256
370
-1
  6
BYLAYER
 10
3.5860571032584376
 20
-1.4144174999999803
 30
0.0
 11
3.7219946032585058
 21
-1.1923924999999498
 31
0.0
  0
ARC
  5
6F
100
AcDbEntity
  8
engrave
 62
256
370
-1
  6
BYLAYER
100
AcDbCircle
 10
3.8380567849640075
 20
-1.2684501918585864
 30
0.0
 40
0.1387631165444096
100
AcDbArc
 50
69.2388330682936299
 51
146.7624340468537696
  0
LINE
  5
70
100
AcDbEntity
100
AcDbLine
  8
engrave
 62
256
370
-1
  6
BYLAYER
 10
3.8872446032584067
 20
-1.1386975000000019
 30
0.0
 11
8.3073718532584699
 21
-2.9678199999999277
 31
0.0
  0
ARC
  5
71
100
AcDbEntity
  8
engrave
 62
256
370
-1
  6
BYLAYER
100
AcDbCircle
 10
8.2688501972271489
 20
-3.0647901461869322
 30
0.0
 40
0.1043413975127652
100
AcDbArc
 50
332.0950894092295584
 51
68.3344142268945944
  0
LINE
  5
72
100
AcDbEntity
100
AcDbLine
  8
engrave
 62
256
370
-1
  6
BYLAYER
 10
8.3610593532584936
 20
-3.1136224999999866
 30
0.0
 11
7.8873718532583981
 21
-4.0007974999999432
 31
0.0
  0
ARC
  5
73
100
AcDbEntity
  8
engrave
 62
256
370
-1
  6
BYLAYER
100
AcDbCircle
 10
8.0623722150153263
 20
-4.0913774277331312
 30
0.0
 40
0.1970529114811025
100
AcDbArc
 50
152.6339830911813067
 51
211.2710181480459823
  0
LINE
  5
74
100
AcDbEntity
100
AcDbLine
  8
engrave
 62
256
370
-1
  6
BYLAYER
 10
7.8939468532585098
 20
-4.1936649999999771
 30
0.0
 11
9.2746968532584297
 21
-6.2054649999999709
 31
0.0
  0
ARC
  5
75
100
AcDbEntity
  8
engrave
 62
256
370
-1
  6
BYLAYER
100
AcDbCircle
 10
9.1533142003008798
 20
-6.2825154245056991
 30
0.0
 40
0.1437724464406881
100
AcDbArc
 50
316.990734418279601
 51
32.4062755212848046
  0
LINE
  5
76
100
AcDbEntity
100
AcDbLine
  8
engrave
 62
256
370
-1
  6
BYLAYER
 10
9.2584468532584161
 20
-6.3805849999999635
 30
0.0
 11
7.4126643532584895
 21
-8.2266799999999556
 31
0.0
  0
ARC
  5
77
100
AcDbEntity
  8
engrave
 62
256
370
-1
  6
BYLAYER
100
AcDbCircle
 10
7.3145242666222403
 20
-8.1219223922150512
 30
0.0
 40
0.1435466230664514
100
AcDbArc
 50
237.419571680506067
 51
313.1319567083374977
  0
LINE
  5
78
100
AcDbEntity
100
AcDbLine
  8
engrave
 62
256
370
-1
  6
BYLAYER
 10
7.2372268532584458
 20
-8.2428799999999818
 30
0.0
 11
5.1893196032584656
 21
-6.8374425000000327
 31
0.0
  0
ARC
  5
79
100
AcDbEntity
  8
engrave
 62
256
370
-1
  6
BYLAYER
100
AcDbCircle
 10
5.076588164645611
 20
-7.0233621224766365
 30
0.0
 40
0.217426960778959
100
AcDbArc
 50
58.7696803309053877
 51
112.8124280753435613
  0
LINE
  5
7A
100
AcDbEntity
100
AcDbLine
  8
engrave
 62
256
370
-1
  6
BYLAYER
 10
4.9922883532584565
 20
-6.8229425000000345
 30
0.0
 11
3.0628821032585138
 21
-7.5953224999999192
 31
0.0
  0
ARC
  5
7B
100
AcDbEntity
  8
engrave
 62
256
370
-1
  6
BYLAYER
100
AcDbCircle
 10
3.1361243322901347
 20
-7.7912540805667403
 30
0.0
 40
0.2091736321263035
100
AcDbArc
 50
110.4965139604217796
 51
166.3954765992227749
  0
LINE
  5
7C
100
AcDbEntity
100
AcDbLine
  8
engrave
 62
256
370
-1
  6
BYLAYER
 10
2.932819603258392
 20
-7.7420524999999669
 30
0.0
 11
2.4724133532583865
 21
-10.2161124999999764
 31
0.0
  0
ARC
  5
7D
100
AcDbEntity
  8
engrave
 62
256
370
-1
  6
BYLAYER
100
AcDbCircle
 10
2.3323137092753514
 20
-10.1851971609836163
 30
0.0
 40
0.1434700959457571
100
AcDbArc
 50
271.8497009645895446
 51
347.5561459281271368
  0
LINE
  5
7E
100
AcDbEntity
100
AcDbLine
  8
engrave
 62
256
370
-1
  6
BYLAYER
 10
2.3369446032584138
 20
-10.3285924999999814
 30
0.0
 11
-0.2735241467415817
 21
-10.3288424999999187
 31
0.0
  0
ARC
  5
7F
100
AcDbEntity
  8
engrave
 62
256
370
-1
  6
BYLAYER
100
AcDbCircle
 10
-0.2691163336246545
 20
-10.185474764604205
 30
0.0
 40
0.1434354780694234
100
AcDbArc
 50
192.5624506365805644
 51
268.2390071276573735
  0
LINE
  5
80
100
AcDbEntity
100
AcDbLine
  8
engrave
 62
256
370
-1
  6
BYLAYER
 10
-0.4091178967415798
 20
-10.2166749999999773
 30
0.0
 11
-0.8807741467414898
 21
-7.6802849999999934
 31
0.0
  0
ARC
  5
81
100
AcDbEntity
  8
engrave
 62
256
370
-1
  6
BYLAYER
100
AcDbCircle
 10
-1.0935524536914754
 20
-7.7327227814319839
 30
0.0
 40
0.2191445386725436
100
AcDbArc
 50
13.8442852307852604
 51
67.5681641062591183
  0
LINE
  5
82
100
AcDbEntity
100
AcDbLine
  8
engrave
 62
256
370
-1
  6
BYLAYER
 10
-1.0099303967415407
 20
-7.5301599999999906
 30
0.0
 11
-2.8237741467415871
 21
-6.7526874999999462
 31
0.0
  0
ARC
  5
83
100
AcDbEntity
  8
engrave
 62
256
370
-1
  6
BYLAYER
100
AcDbCircle
 10
-2.9101306806976508
 20
-6.9444821610588532
 30
0.0
 40
0.2103393519235072
100
AcDbArc
 50
65.7600986374255854
 51
121.4473674910535266
  0
LINE
  5
84
100
AcDbEntity
100
AcDbLine
  8
engrave
 62
256
370
-1
  6
BYLAYER
 10
-3.0198678967415189
 20
-6.7650375000000293
 30
0.0
 11
-5.1737741467416098
 21
-8.2428349999999817
 31
0.0
  0
ARC
  5
85
100
AcDbEntity
  8
engrave
 62
256
370
-1
  6
BYLAYER
100
AcDbCircle
 10
-5.2509526933745319
 20
-8.1215370880382487
 30
0.0
 40
0.143769647376071
100
AcDbArc
 50
226.9716363295290762
 51
302.4674825371968154
  0
LINE
  5
86
100
AcDbEntity
100
AcDbLine
  8
engrave
 62
256
370
-1
  6
BYLAYER
 10
-5.349055396741508
 20
-8.2266350000000692
 30
0.0
 11
-7.1948366467415807
 21
-6.380854999999964
 31
0.0
  0
ARC
  5
87
100
AcDbEntity
  8
engrave
 62
256
370
-1
  6
BYLAYER
100
AcDbCircle
 10
-7.0904775725050539
 20
-6.2828550056026087
 30
0.0
 40
0.1431601036511254
100
AcDbArc
 50
147.4026013474890533
 51
223.2000877114427908
  0
LINE
  5
88
100
AcDbEntity
100
AcDbLine
  8
engrave
 62
256
370
-1
  6
BYLAYER
 10
-7.2110866467415944
 20
-6.205729999999984
 30
0.0
 11
-5.7070553967415689
 21
-4.0140224999999772
 31
0.0
  0
ARC
  5
89
100
AcDbEntity
  8
engrave
 62
256
370
-1
  6
BYLAYER
100
AcDbCircle
 10
-5.8918047799779769
 20
-3.9018207361192152
 30
0.0
 40
0.2161517300975532
100
AcDbArc
 50
328.728905469387314
 51
23.1061641424048076
  0
LINE
  5
8A
100
AcDbEntity
100
AcDbLine
  8
engrave
 62
256
370
-1
  6
BYLAYER
 10
-5.6929928967415462
 20
-3.816994999999987
 30
0.0
 11
-6.4127741467415289
 21
-2.0586924999999736
 31
0.0
  0
ARC
  5
8B
100
AcDbEntity
  8
engrave
 62
256
370
-1
  6
BYLAYER
100
AcDbCircle
 10
-6.6123382097645189
 20
-2.1374325010056863
 30
0.0
 40
0.2145362510360853
100
AcDbArc
 50
21.5322100999578723
 51
76.2044717557282354
  0
LINE
  5
8C
100
AcDbEntity
100
AcDbLine
  8
engrave
 62
256
370
-1
  6
BYLAYER
 10
-6.5611803967415225
 20
-1.9290849999999535
 30
0.0
 11
-9.1846178967415462
 21
-1.4407549999999345
 31
0.0
  0
ENDSEC
  0
SECTION
  2
OBJECTS
  0
DICTIONARY
  5
C
100
AcDbDictionary
280
0
281
1
  3
ACAD_GROUP
350
D
  3
ACAD_LAYOUT
350
1A
  3
ACAD_MLINESTYLE
350
17
  3
ACAD_PLOTSETTINGS
350
19
  3
ACAD_PLOTSTYLENAME
350
E
  3
AcDbVariableDictionary
350
8D
  3
QCAD_OBJECTS
350
8E
  0
DICTIONARY
  5
D
100
AcDbDictionary
280
0
281
1
  0
ACDBDICTIONARYWDFLT
  5
E
100
AcDbDictionary
281
1
  3
Normal
350
F
100
AcDbDictionaryWithDefault
340
F
  0
ACDBPLACEHOLDER
  5
F
  0
DICTIONARY
  5
17
100
AcDbDictionary
280
0
281
1
  3
Standard
350
18
  0
MLINESTYLE
  5
18
100
AcDbMlineStyle
  2
STANDARD
 70
0
  3

 62
256
 51
90.0
 52
90.0
 71
2
 49
0.5
 62
256
  6
BYLAYER
 49
-0.5
 62
256
  6
BYLAYER
  0
DICTIONARY
  5
19
100
AcDbDictionary
280
0
281
1
  0
DICTIONARY
  5
1A
100
AcDbDictionary
281
1
  3
Layout1
350
1E
  3
Layout2
350
26
  3
Model
350
22
  0
LAYOUT
  5
1E
100
AcDbPlotSettings
  1

  2
C:\Program Files\AutoCAD 2002\plotters\DWF ePlot (optimized for plotting).pc3
  4

  6

 40
0.0
 41
0.0
 42
0.0
 43
0.0
 44
0.0
 45
0.0
 46
0.0
 47
0.0
 48
0.0
 49
0.0
140
0.0
141
0.0
142
1.0
143
1.0
 70
688
 72
0
 73
0
 74
5
  7

 75
16
147
1.0
148
0.0
149
0.0
100
AcDbLayout
  1
Layout1
 70
1
 71
1
 10
0.0
 20
0.0
 11
420.0
 21
297.0
 12
0.0
 22
0.0
 32
0.0
 14
100000000000000000000.0
 24
100000000000000000000.0
 34
100000000000000000000.0
 15
-100000000000000000000.0
 25
-100000000000000000000.0
 35
-100000000000000000000.0
146
0.0
 13
0.0
 23
0.0
 33
0.0
 16
1.0
 26
0.0
 36
0.0
 17
0.0
 27
1.0
 37
0.0
 76
0
330
1B
  0
LAYOUT
  5
22
100
AcDbPlotSettings
  1

  2
C:\Program Files\AutoCAD 2002\plotters\DWF ePlot (optimized for plotting).pc3
  4

  6

 40
0.0
 41
0.0
 42
0.0
 43
0.0
 44
0.0
 45
0.0
 46
0.0
 47
0.0
 48
0.0
 49
0.0
140
0.0
141
0.0
142
1.0
143
1.0
 70
1712
 72
0
 73
0
 74
0
  7

 75
0
147
1.0
148
0.0
149
0.0
100
AcDbLayout
  1
Model
 70
1
 71
0
 10
0.0
 20
0.0
 11
12.0
 21
9.0
 12
0.0
 22
0.0
 32
0.0
 14
0.0
 24
0.0
 34
0.0
 15
0.0
 25
0.0
 35
0.0
146
0.0
 13
0.0
 23
0.0
 33
0.0
 16
1.0
 26
0.0
 36
0.0
 17
0.0
 27
1.0
 37
0.0
 76
0
330
1F
  0
LAYOUT
  5
26
100
AcDbPlotSettings
  1

  2
C:\Program Files\AutoCAD 2002\plotters\DWF ePlot (optimized for plotting).pc3
  4

  6

 40
0.0
 41
0.0
 42
0.0
 43
0.0
 44
0.0
 45
0.0
 46
0.0
 47
0.0
 48
0.0
 49
0.0
140
0.0
141
0.0
142
1.0
143
1.0
 70
688
 72
0
 73
0
 74
5
  7

 75
16
147
1.0
148
0.0
149
0.0
100
AcDbLayout
  1
Layout2
 70
1
 71
2
 10
0.0
 20
0.0
 11
12.0
 21
9.0
 12
0.0
 22
0.0
 32
0.0
 14
0.0
 24
0.0
 34
0.0
 15
0.0
 25
0.0
 35
0.0
146
0.0
 13
0.0
 23
0.0
 33
0.0
 16
1.0
 26
0.0
 36
0.0
 17
0.0
 27
1.0
 37
0.0
 76
0
330
23
  0
DICTIONARY
  5
8D
100
AcDbDictionary
281
1
  3
DIMASSOC
350
90
  3
HIDETEXT
350
8F
  0
DICTIONARYVAR
  5
8F
100
DictionaryVariables
280
0
  1
2
  0
DICTIONARYVAR
  5
90
100
DictionaryVariables
280
0
  1
1
  0
DICTIONARY
  5
8E
100
AcDbDictionary
281
1
  3
Grid/DisplayGrid00
350
91
  3
Grid/DisplayGrid01
350
92
  3
Grid/DisplayGrid02
350
93
  3
Grid/DisplayGrid03
350
94
  3
Grid/GridSpacingX00
350
95
  3
Grid/GridSpacingX01
350
96
  3
Grid/GridSpacingX02
350
97
  3
Grid/GridSpacingX03
350
98
  3
Grid/GridSpacingY00
350
99
  3
Grid/GridSpacingY01
350
9A
  3
Grid/GridSpacingY02
350
9B
  3
Grid/GridSpacingY03
350
9C
  3
Grid/IsometricGrid00
350
9D
  3
Grid/IsometricGrid01
350
9E
  3
Grid/IsometricGrid02
350
9F
  3
Grid/IsometricGrid03
350
A0
  3
Grid/IsometricProjection00
350
A1
  3
Grid/IsometricProjection01
350
A2
  3
Grid/IsometricProjection02
350
A3
  3
Grid/IsometricProjection03
350
A4
  3
Grid/MetaGridSpacingX00
350
A5
  3
Grid/MetaGridSpacingX01
350
A6
  3
Grid/MetaGridSpacingX02
350
A7
  3
Grid/MetaGridSpacingX03
350
A8
  3
Grid/MetaGridSpacingY00
350
A9
  3
Grid/MetaGridSpacingY01
350
AA
  3
Grid/MetaGridSpacingY02
350
AB
  3
Grid/MetaGridSpacingY03
350
AC
  3
MultiPageSettings/Columns
350
AD
  3
MultiPageSettings/GlueMarginsBottom
350
AE
  3
MultiPageSettings/GlueMarginsLeft
350
AF
  3
MultiPageSettings/GlueMarginsRight
350
B0
  3
MultiPageSettings/GlueMarginsTop
350
B1
  3
MultiPageSettings/PrintCropMarks
350
B2
  3
MultiPageSettings/Rows
350
B3
  3
PageSettings/OffsetX
350
B4
  3
PageSettings/OffsetY
350
B5
  3
PageSettings/PageOrientation
350
B6
  3
PageSettings/PaperHeight
350
B7
  3
PageSettings/PaperWidth
350
B8
  3
PageSettings/Scale
350
B9
  3
PageSettings/ShowPaperBorders
350
BA
  3
UnitSettings/PaperUnit
350
BB
  0
XRECORD
  5
91
330
8E
100
AcDbXrecord
280
1
290
1
  0
XRECORD
  5
92
330
8E
100
AcDbXrecord
280
1
290
1
  0
XRECORD
  5
93
330
8E
100
AcDbXrecord
280
1
290
1
  0
XRECORD
  5
94
330
8E
100
AcDbXrecord
280
1
290
1
  0
XRECORD
  5
95
330
8E
100
AcDbXrecord
280
1
1000
auto
  0
XRECORD
  5
96
330
8E
100
AcDbXrecord
280
1
1000
auto
  0
XRECORD
  5
97
330
8E
100
AcDbXrecord
280
1
1000
auto
  0
XRECORD
  5
98
330
8E
100
AcDbXrecord
280
1
1000
auto
  0
XRECORD
  5
99
330
8E
100
AcDbXrecord
280
1
1000
auto
  0
XRECORD
  5
9A
330
8E
100
AcDbXrecord
280
1
1000
auto
  0
XRECORD
  5
9B
330
8E
100
AcDbXrecord
280
1
1000
auto
  0
XRECORD
  5
9C
330
8E
100
AcDbXrecord
280
1
1000
auto
  0
XRECORD
  5
9D
330
8E
100
AcDbXrecord
280
1
290
0
  0
XRECORD
  5
9E
330
8E
100
AcDbXrecord
280
1
290
0
  0
XRECORD
  5
9F
330
8E
100
AcDbXrecord
280
1
290
0
  0
XRECORD
  5
A0
330
8E
100
AcDbXrecord
280
1
290
0
  0
XRECORD
  5
A1
330
8E
100
AcDbXrecord
280
1
 90
0
  0
XRECORD
  5
A2
330
8E
100
AcDbXrecord
280
1
 90
0
  0
XRECORD
  5
A3
330
8E
100
AcDbXrecord
280
1
 90
0
  0
XRECORD
  5
A4
330
8E
100
AcDbXrecord
280
1
 90
0
  0
XRECORD
  5
A5
330
8E
100
AcDbXrecord
280
1
1000
auto
  0
XRECORD
  5
A6
330
8E
100
AcDbXrecord
280
1
1000
auto
  0
XRECORD
  5
A7
330
8E
100
AcDbXrecord
280
1
1000
auto
  0
XRECORD
  5
A8
330
8E
100
AcDbXrecord
280
1
1000
auto
  0
XRECORD
  5
A9
330
8E
100
AcDbXrecord
280
1
1000
auto
  0
XRECORD
  5
AA
330
8E
100
AcDbXrecord
280
1
1000
auto
  0
XRECORD
  5
AB
330
8E
100
AcDbXrecord
280
1
1000
auto
  0
XRECORD
  5
AC
330
8E
100
AcDbXrecord
280
1
1000
auto
  0
XRECORD
  5
AD
330
8E
100
AcDbXrecord
280
1
 90
1
  0
XRECORD
  5
AE
330
8E
100
AcDbXrecord
280
1
 40
10.0
  0
XRECORD
  5
AF
330
8E
100
AcDbXrecord
280
1
 40
10.0
  0
XRECORD
  5
B0
330
8E
100
AcDbXrecord
280
1
 40
10.0
  0
XRECORD
  5
B1
330
8E
100
AcDbXrecord
280
1
 40
10.0
  0
XRECORD
  5
B2
330
8E
100
AcDbXrecord
280
1
290
0
  0
XRECORD
  5
B3
330
8E
100
AcDbXrecord
280
1
 90
1
  0
XRECORD
  5
B4
330
8E
100
AcDbXrecord
280
1
 40
0.0
  0
XRECORD
  5
B5
330
8E
100
AcDbXrecord
280
1
 40
0.0
  0
XRECORD
  5
B6
330
8E
100
AcDbXrecord
280
1
1000
Portrait
  0
XRECORD
  5
B7
330
8E
100
AcDbXrecord
280
1
 40
297.0
  0
XRECORD
  5
B8
330
8E
100
AcDbXrecord
280
1
 40
210.0
  0
XRECORD
  5
B9
330
8E
100
AcDbXrecord
280
1
1000
1:1
  0
XRECORD
  5
BA
330
8E
100
AcDbXrecord
280
1
290
1
  0
XRECORD
  5
BB
330
8E
100
AcDbXrecord
280
1
 90
4
  0
ENDSEC
  0
EOF
