999
dxflib 3.1.5.0
  0
SECTION
  2
HEADER
  9
$ACADVER
  1
AC1015
  9
$HANDSEED
  5
FFFF
  9
$DIMADEC
 70
0
  9
$DIMASZ
 40
2.5
  9
$DIMAUNIT
 70
0
  9
$DIMAZIN
 70
2
  9
$DIMDEC
 70
4
  9
$DIMEXE
 40
1.25
  9
$DIMEXO
 40
0.625
  9
$DIMGAP
 40
0.625
  9
$DIMLUNIT
 70
2
  9
$DIMTSZ
 40
0.0
  9
$DIMTXT
 40
2.5
  9
$DIMZIN
 70
8
  9
$INSUNITS
 70
4
  9
$LTSCALE
 40
1.0
  0
SECTION
  2
TABLES
  0
TABLE
  2
VPORT
  5
8
100
AcDbSymbolTable
 70
1
  0
VPORT
  5
30
100
AcDbSymbolTableRecord
100
AcDbViewportTableRecord
  2
*Active
 70
0
 10
0.0
 20
0.0
 11
1.0
 21
1.0
 12
286.3055555555554861
 22
148.5
 13
0.0
 23
0.0
 14
10.0
 24
10.0
 15
10.0
 25
10.0
 16
0.0
 26
0.0
 36
1.0
 17
0.0
 27
0.0
 37
0.0
 40
297.0
 41
1.92798353909465
 42
50.0
 43
0.0
 44
0.0
 50
0.0
 51
0.0
 71
0
 72
100
 73
1
 74
3
 75
1
 76
1
 77
0
 78
0
281
0
 65
1
110
0.0
120
0.0
130
0.0
111
1.0
121
0.0
131
0.0
112
0.0
122
1.0
132
0.0
 79
0
146
0.0
  0
ENDTAB
  0
TABLE
  2
LTYPE
  5
5
100
AcDbSymbolTable
 70
21
  0
LTYPE
  5
31
100
AcDbSymbolTableRecord
100
AcDbLinetypeTableRecord
  2
CENTER2
 70
0
  3
Center (.5x) ___ _ ___ _ ___ _ ___ _ ___ _ ___
 72
65
 73
4
 40
28.5749999999999993
 49
19.0500000000000007
 74
0
 49
-3.1749999999999998
 74
0
 49
3.1749999999999998
 74
0
 49
-3.1749999999999998
 74
0
  0
LTYPE
  5
32
100
AcDbSymbolTableRecord
100
AcDbLinetypeTableRecord
  2
DIVIDEX2
 70
0
  3
Divide (2x) ________  .  .  ________  .  .  _
 72
65
 73
6
 40
63.5
 49
25.3999999999999986
 74
0
 49
-12.6999999999999993
 74
0
 49
0.0
 74
0
 49
-12.6999999999999993
 74
0
 49
0.0
 74
0
 49
-12.6999999999999993
 74
0
  0
LTYPE
  5
33
100
AcDbSymbolTableRecord
100
AcDbLinetypeTableRecord
  2
DOT2
 70
0
  3
Dot (.5x) .....................................
 72
65
 73
2
 40
3.1749999999999998
 49
0.0
 74
0
 49
-3.1749999999999998
 74
0
  0
LTYPE
  5
34
100
AcDbSymbolTableRecord
100
AcDbLinetypeTableRecord
  2
DASHDOT2
 70
0
  3
Dash dot (.5x) _._._._._._._._._._._._._._._.
 72
65
 73
4
 40
12.6999999999999993
 49
6.3499999999999996
 74
0
 49
-3.1749999999999998
 74
0
 49
0.0
 74
0
 49
-3.1749999999999998
 74
0
  0
LTYPE
  5
35
100
AcDbSymbolTableRecord
100
AcDbLinetypeTableRecord
  2
DIVIDE
 70
0
  3
Divide ____ . . ____ . . ____ . . ____ . . ____
 72
65
 73
6
 40
31.75
 49
12.6999999999999993
 74
0
 49
-6.3499999999999996
 74
0
 49
0.0
 74
0
 49
-6.3499999999999996
 74
0
 49
0.0
 74
0
 49
-6.3499999999999996
 74
0
  0
LTYPE
  5
36
100
AcDbSymbolTableRecord
100
AcDbLinetypeTableRecord
  2
DASHDOT
 70
0
  3
Dash dot __ . __ . __ . __ . __ . __ . __ . __
 72
65
 73
4
 40
25.3999999999999986
 49
12.6999999999999993
 74
0
 49
-6.3499999999999996
 74
0
 49
0.0
 74
0
 49
-6.3499999999999996
 74
0
  0
LTYPE
  5
37
100
AcDbSymbolTableRecord
100
AcDbLinetypeTableRecord
  2
BORDER
 70
0
  3
Border __ __ . __ __ . __ __ . __ __ . __ __ .
 72
65
 73
6
 40
44.4500000000000028
 49
12.6999999999999993
 74
0
 49
-6.3499999999999996
 74
0
 49
12.6999999999999993
 74
0
 49
-6.3499999999999996
 74
0
 49
0.0
 74
0
 49
-6.3499999999999996
 74
0
  0
LTYPE
  5
38
100
AcDbSymbolTableRecord
100
AcDbLinetypeTableRecord
  2
DASHDOTX2
 70
0
  3
Dash dot (2x) ____  .  ____  .  ____  .  ___
 72
65
 73
4
 40
50.7999999999999972
 49
25.3999999999999986
 74
0
 49
-12.6999999999999993
 74
0
 49
0.0
 74
0
 49
-12.6999999999999993
 74
0
  0
LTYPE
  5
39
100
AcDbSymbolTableRecord
100
AcDbLinetypeTableRecord
  2
CENTERX2
 70
0
  3
Center (2x) ________  __  ________  __  _____
 72
65
 73
4
 40
101.5999999999999943
 49
63.5
 74
0
 49
-12.6999999999999993
 74
0
 49
12.6999999999999993
 74
0
 49
-12.6999999999999993
 74
0
  0
LTYPE
  5
3A
100
AcDbSymbolTableRecord
100
AcDbLinetypeTableRecord
  2
BORDER2
 70
0
  3
Border (.5x) __.__.__.__.__.__.__.__.__.__.__.
 72
65
 73
6
 40
22.2250000000000014
 49
6.3499999999999996
 74
0
 49
-3.1749999999999998
 74
0
 49
6.3499999999999996
 74
0
 49
-3.1749999999999998
 74
0
 49
0.0
 74
0
 49
-3.1749999999999998
 74
0
  0
LTYPE
  5
3B
100
AcDbSymbolTableRecord
100
AcDbLinetypeTableRecord
  2
BORDERX2
 70
0
  3
Border (2x) ____  ____  .  ____  ____  .  ___
 72
65
 73
6
 40
88.9000000000000057
 49
25.3999999999999986
 74
0
 49
-12.6999999999999993
 74
0
 49
25.3999999999999986
 74
0
 49
-12.6999999999999993
 74
0
 49
0.0
 74
0
 49
-12.6999999999999993
 74
0
  0
LTYPE
  5
16
100
AcDbSymbolTableRecord
100
AcDbLinetypeTableRecord
  2
CONTINUOUS
 70
0
  3
Solid line
 72
65
 73
0
 40
0.0
  0
LTYPE
  5
14
100
AcDbSymbolTableRecord
100
AcDbLinetypeTableRecord
  2
BYBLOCK
 70
0
  3

 72
65
 73
0
 40
0.0
  0
LTYPE
  5
15
100
AcDbSymbolTableRecord
100
AcDbLinetypeTableRecord
  2
BYLAYER
 70
0
  3

 72
65
 73
0
 40
0.0
  0
LTYPE
  5
3C
100
AcDbSymbolTableRecord
100
AcDbLinetypeTableRecord
  2
DASHED2
 70
0
  3
Dashed (.5x) _ _ _ _ _ _ _ _ _ _ _ _ _ _ _ _ _
 72
65
 73
2
 40
9.5250000000000004
 49
6.3499999999999996
 74
0
 49
-3.1749999999999998
 74
0
  0
LTYPE
  5
3D
100
AcDbSymbolTableRecord
100
AcDbLinetypeTableRecord
  2
CENTER
 70
0
  3
Center ____ _ ____ _ ____ _ ____ _ ____ _ ____
 72
65
 73
4
 40
50.7999999999999972
 49
31.75
 74
0
 49
-6.3499999999999996
 74
0
 49
6.3499999999999996
 74
0
 49
-6.3499999999999996
 74
0
  0
LTYPE
  5
3E
100
AcDbSymbolTableRecord
100
AcDbLinetypeTableRecord
  2
DIVIDE2
 70
0
  3
Divide (.5x) __..__..__..__..__..__..__..__.._
 72
65
 73
6
 40
15.875
 49
6.3499999999999996
 74
0
 49
-3.1749999999999998
 74
0
 49
0.0
 74
0
 49
-3.1749999999999998
 74
0
 49
0.0
 74
0
 49
-3.1749999999999998
 74
0
  0
LTYPE
  5
3F
100
AcDbSymbolTableRecord
100
AcDbLinetypeTableRecord
  2
DASHED
 70
0
  3
Dashed __ __ __ __ __ __ __ __ __ __ __ __ __ _
 72
65
 73
2
 40
19.0500000000000007
 49
12.6999999999999993
 74
0
 49
-6.3499999999999996
 74
0
  0
LTYPE
  5
40
100
AcDbSymbolTableRecord
100
AcDbLinetypeTableRecord
  2
DOTX2
 70
0
  3
Dot (2x) .  .  .  .  .  .  .  .  .  .  .  .  .
 72
65
 73
2
 40
12.6999999999999993
 49
0.0
 74
0
 49
-12.6999999999999993
 74
0
  0
LTYPE
  5
41
100
AcDbSymbolTableRecord
100
AcDbLinetypeTableRecord
  2
DASHEDX2
 70
0
  3
Dashed (2x) ____  ____  ____  ____  ____  ___
 72
65
 73
2
 40
38.1000000000000014
 49
25.3999999999999986
 74
0
 49
-12.6999999999999993
 74
0
  0
LTYPE
  5
42
100
AcDbSymbolTableRecord
100
AcDbLinetypeTableRecord
  2
DOT
 70
0
  3
Dot . . . . . . . . . . . . . . . . . . . . . .
 72
65
 73
2
 40
6.3499999999999996
 49
0.0
 74
0
 49
-6.3499999999999996
 74
0
  0
ENDTAB
  0
TABLE
  2
LAYER
  5
2
100
AcDbSymbolTable
 70
3
  0
LAYER
  5
43
100
AcDbSymbolTableRecord
100
AcDbLayerTableRecord
  2
engrave
 70
0
 62
3
420
65280
  6
CONTINUOUS
370
5
390
F
  0
LAYER
  5
44
100
AcDbSymbolTableRecord
100
AcDbLayerTableRecord
  2
cut
 70
0
 62
1
420
16711680
  6
CONTINUOUS
370
0
390
F
  0
LAYER
  5
10
100
AcDbSymbolTableRecord
100
AcDbLayerTableRecord
  2
0
 70
0
 62
7
420
16777215
  6
CONTINUOUS
370
25
390
F
  0
ENDTAB
  0
TABLE
  2
STYLE
  5
3
100
AcDbSymbolTable
 70
0
  0
ENDTAB
  0
TABLE
  2
VIEW
  5
6
100
AcDbSymbolTable
 70
0
  0
ENDTAB
  0
TABLE
  2
UCS
  5
7
100
AcDbSymbolTable
 70
0
  0
ENDTAB
  0
TABLE
  2
APPID
  5
9
100
AcDbSymbolTable
 70
1
  0
APPID
  5
45
100
AcDbSymbolTableRecord
100
AcDbRegAppTableRecord
  2
QCAD
 70
0
  0
ENDTAB
  0
TABLE
  2
DIMSTYLE
  5
A
100
AcDbSymbolTable
 70
1
100
AcDbDimStyleTable
 71
0
  0
DIMSTYLE
105
27
100
AcDbSymbolTableRecord
100
AcDbDimStyleTableRecord
  2
Standard
 41
2.5
 42
0.625
 43
3.75
 44
1.25
 70
0
 73
0
 74
0
 77
1
 78
8
140
2.5
141
2.5
143
0.03937007874016
147
0.625
171
3
172
1
271
2
272
2
274
3
278
44
283
0
284
8
340
11
  0
ENDTAB
  0
TABLE
  2
BLOCK_RECORD
  5
1
100
AcDbSymbolTable
 70
1
  0
BLOCK_RECORD
  5
1F
100
AcDbSymbolTableRecord
100
AcDbBlockTableRecord
  2
*Model_Space
340
22
  0
BLOCK_RECORD
  5
1B
100
AcDbSymbolTableRecord
100
AcDbBlockTableRecord
  2
*Paper_Space
340
1E
  0
BLOCK_RECORD
  5
23
100
AcDbSymbolTableRecord
100
AcDbBlockTableRecord
  2
*Paper_Space0
340
26
  0
BLOCK_RECORD
  5
46
100
AcDbSymbolTableRecord
100
AcDbBlockTableRecord
  2
*MODEL_SPACE
340
0
  0
BLOCK_RECORD
  5
47
100
AcDbSymbolTableRecord
100
AcDbBlockTableRecord
  2
rippe_4
340
0
  0
ENDTAB
  0
ENDSEC
  0
SECTION
  2
BLOCKS
  0
BLOCK
  5
20
100
AcDbEntity
  8
0
100
AcDbBlockBegin
  2
*MODEL_SPACE
 70
0
 10
0.0
 20
0.0
 30
0.0
  3
*MODEL_SPACE
  1

  0
BLOCK
  5
48
100
AcDbEntity
  8
0
100
AcDbBlockBegin
  2
rippe_4
 70
0
 10
0.0
 20
0.0
 30
0.0
  3
rippe_4
  1

  0
LWPOLYLINE
  5
49
  8
engrave
 62
256
370
-1
  6
BYLAYER
100
AcDbEntity
100
AcDbPolyline
 90
2
 70
0
 10
8.7823199999999986
 20
4.1314934359999924
 30
0.0
 10
6.9569068720000047
 20
3.4360978119999928
 30
0.0
  0
LWPOLYLINE
  5
4A
  8
engrave
 62
256
370
-1
  6
BYLAYER
100
AcDbEntity
100
AcDbPolyline
 90
2
 70
0
 10
8.7823199999999986
 20
2.7407021880000002
 30
0.0
 10
6.9569068720000047
 20
3.4360978119999928
 30
0.0
  0
LWPOLYLINE
  5
4B
  8
engrave
 62
256
370
-1
  6
BYLAYER
100
AcDbEntity
100
AcDbPolyline
 90
2
 70
0
 10
8.7823199999999986
 20
2.3060799999999801
 30
0.0
 10
6.9569068720000047
 20
2.306079999999973
 30
0.0
  0
LWPOLYLINE
  5
4C
  8
engrave
 62
256
370
-1
  6
BYLAYER
100
AcDbEntity
100
AcDbPolyline
 90
12
 70
0
 10
8.7823199999999986
 20
2.3060799999999801
 30
0.0
 10
8.7823199999999986
 20
1.6976090599999836
 30
0.0
 10
8.6953956239999997
 20
1.4368356239999827
 30
0.0
 10
8.5215468720000018
 20
1.2629868719999919
 30
0.0
 10
8.3476978120000069
 20
1.1760621879999817
 30
0.0
 10
8.086924683999996
 20
1.0891378119999828
 30
0.0
 10
7.6523021880000073
 20
1.0891378119999828
 30
0.0
 10
7.3915290600000034
 20
1.1760621879999817
 30
0.0
 10
7.2176799999999943
 20
1.262986871999999
 30
0.0
 10
7.0438312479999965
 20
1.4368356239999969
 30
0.0
 10
6.9569068720000047
 20
1.6976090599999836
 30
0.0
 10
6.9569068720000047
 20
2.306079999999973
 30
0.0
  0
LWPOLYLINE
  5
4D
  8
cut
 62
256
370
-1
  6
BYLAYER
100
AcDbEntity
100
AcDbPolyline
 90
2
 70
0
 10
11.51760749999994
 20
-9.4909675000000107
 30
0.0
 10
11.5176037499998074
 20
-9.4909675000000107
 30
0.0
  0
LWPOLYLINE
  5
4E
  8
engrave
 62
256
370
-1
  6
BYLAYER
100
AcDbEntity
100
AcDbPolyline
 90
18
 70
0
 10
8.3476978120000069
 20
-0.7362753160000182
 30
0.0
 10
8.5215468720000018
 20
-0.649350940000005
 30
0.0
 10
8.6953956239999997
 20
-0.4755021880000072
 30
0.0
 10
8.7823199999999986
 20
-0.3016531280000194
 30
0.0
 10
8.7823199999999986
 20
0.0460446839999875
 30
0.0
 10
8.6953956239999997
 20
0.2198934359999996
 30
0.0
 10
8.5215468720000018
 20
0.3937421879999903
 30
0.0
 10
8.3476978120000069
 20
0.4806668719999863
 30
0.0
 10
8.086924683999996
 20
0.5675912479999994
 30
0.0
 10
7.6523021880000073
 20
0.5675912479999781
 30
0.0
 10
7.3915290600000034
 20
0.4806668719999863
 30
0.0
 10
7.2176799999999943
 20
0.3937421879999903
 30
0.0
 10
7.0438312479999965
 20
0.2198934359999924
 30
0.0
 10
6.9569068720000047
 20
0.0460446839999875
 30
0.0
 10
6.9569068720000047
 20
-0.3016531280000194
 30
0.0
 10
7.0438312479999965
 20
-0.4755021880000072
 30
0.0
 10
7.2176799999999943
 20
-0.6493509399999979
 30
0.0
 10
7.3915290600000034
 20
-0.736275316000004
 30
0.0
  0
LWPOLYLINE
  5
4F
  8
cut
 62
256
370
-1
  6
BYLAYER
100
AcDbEntity
100
AcDbPolyline
 90
2
 70
0
 10
15.5176062499999716
 20
-9.4909675000000107
 30
0.0
 10
15.5176025000000664
 20
-9.4909675000000107
 30
0.0
  0
LWPOLYLINE
  5
50
  8
cut
 62
256
370
-1
  6
BYLAYER
100
AcDbEntity
100
AcDbPolyline
 90
2
 70
0
 10
6.0176675000000159
 20
-18.0176837500000033
 30
0.0
 10
6.0176575000000412
 20
-18.0176837500000033
 30
0.0
  0
LWPOLYLINE
  5
51
  8
engrave
 62
256
370
-1
  6
BYLAYER
100
AcDbEntity
100
AcDbPolyline
 90
10
 70
0
 10
6.8999999999999986
 20
-52.4999999999999929
 30
0.0
 10
5.5961334359999881
 20
-52.4999999999999929
 30
0.0
 10
5.3353599999999943
 20
-52.5869243759999918
 30
0.0
 10
5.1615112479999894
 20
-52.7607734359999867
 30
0.0
 10
5.0745865639999934
 20
-53.0215465639999906
 30
0.0
 10
5.0745865639999934
 20
-53.1953956239999997
 30
0.0
 10
5.1615112479999894
 20
-53.4561687519999893
 30
0.0
 10
5.3353599999999943
 20
-53.6300178119999984
 30
0.0
 10
5.5961334359999881
 20
-53.7169421879999902
 30
0.0
 10
6.8999999999999986
 20
-53.7169421879999902
 30
0.0
  0
LWPOLYLINE
  5
52
  8
cut
 62
256
370
-1
  6
BYLAYER
100
AcDbEntity
100
AcDbPolyline
 90
2
 70
0
 10
0.0
 20
0.0
 30
0.0
 10
0.0
 20
0.0
 30
0.0
  0
LWPOLYLINE
  5
53
  8
engrave
 62
256
370
-1
  6
BYLAYER
100
AcDbEntity
100
AcDbPolyline
 90
20
 70
0
 10
6.6392265639999906
 20
-55.5423556239999954
 30
0.0
 10
6.8130756239999926
 20
-55.3685065639999934
 30
0.0
 10
6.8999999999999986
 20
-55.1077334359999895
 30
0.0
 10
6.8999999999999986
 20
-54.7600356239999897
 30
0.0
 10
6.8130756239999926
 20
-54.4992621879999959
 30
0.0
 10
6.6392265639999906
 20
-54.325413435999991
 30
0.0
 10
6.4653778119999927
 20
-54.325413435999991
 30
0.0
 10
6.2915287519999907
 20
-54.412337811999997
 30
0.0
 10
6.2046043759999989
 20
-54.4992621879999959
 30
0.0
 10
6.1176799999999858
 20
-54.6731109399999937
 30
0.0
 10
5.9438312479999951
 20
-55.1946578119999884
 30
0.0
 10
5.856906563999992
 20
-55.3685065639999934
 30
0.0
 10
5.7699821880000002
 20
-55.4554309399999852
 30
0.0
 10
5.5961334359999881
 20
-55.5423556239999954
 30
0.0
 10
5.3353599999999943
 20
-55.5423556239999954
 30
0.0
 10
5.1615112479999894
 20
-55.3685065639999934
 30
0.0
 10
5.0745865639999934
 20
-55.1077334359999895
 30
0.0
 10
5.0745865639999934
 20
-54.7600356239999826
 30
0.0
 10
5.1615112479999894
 20
-54.4992621879999959
 30
0.0
 10
5.3353599999999943
 20
-54.325413435999991
 30
0.0
  0
LINE
  5
54
100
AcDbEntity
100
AcDbLine
  8
cut
 62
256
370
-1
  6
BYLAYER
 10
0.0
 20
-54.0000325000000316
 30
0.0
 11
0.0
 21
-33.0000225
 31
0.0
  0
LWPOLYLINE
  5
55
  8
engrave
 62
256
370
-1
  6
BYLAYER
100
AcDbEntity
100
AcDbPolyline
 90
2
 70
0
 10
6.8999999999999986
 20
-56.1508265639999991
 30
0.0
 10
5.0745865639999934
 20
-56.1508265639999991
 30
0.0
  0
LINE
  5
56
100
AcDbEntity
100
AcDbLine
  8
cut
 62
256
370
-1
  6
BYLAYER
 10
0.0
 20
-33.0000225
 30
0.0
 11
-2.0000037500001326
 21
-32.9999875000000316
 31
0.0
  0
LWPOLYLINE
  5
57
  8
engrave
 62
256
370
-1
  6
BYLAYER
100
AcDbEntity
100
AcDbPolyline
 90
9
 70
0
 10
6.8999999999999986
 20
-56.1508265639999991
 30
0.0
 10
6.8999999999999986
 20
-56.9331465639999905
 30
0.0
 10
6.8130756239999926
 20
-57.1939199999999843
 30
0.0
 10
6.7261512479999936
 20
-57.2808443759999975
 30
0.0
 10
6.5523021879999916
 20
-57.3677687519999893
 30
0.0
 10
6.3784534359999938
 20
-57.3677687519999893
 30
0.0
 10
6.2046043759999989
 20
-57.2808443759999975
 30
0.0
 10
6.1176799999999858
 20
-57.1939199999999843
 30
0.0
 10
6.030755623999994
 20
-56.9331465639999905
 30
0.0
  0
LINE
  5
58
100
AcDbEntity
100
AcDbLine
  8
cut
 62
256
370
-1
  6
BYLAYER
 10
-2.0000037500001326
 20
-32.9999875000000316
 30
0.0
 11
-2.0000037500001326
 21
-27.9999975000000063
 31
0.0
  0
LWPOLYLINE
  5
59
  8
engrave
 62
256
370
-1
  6
BYLAYER
100
AcDbEntity
100
AcDbPolyline
 90
10
 70
0
 10
6.030755623999994
 20
-56.1508265639999991
 30
0.0
 10
6.030755623999994
 20
-56.9331465639999905
 30
0.0
 10
5.9438312479999951
 20
-57.1939199999999843
 30
0.0
 10
5.856906563999992
 20
-57.2808443759999975
 30
0.0
 10
5.6830578119999942
 20
-57.3677687519999893
 30
0.0
 10
5.4222843759999861
 20
-57.3677687519999893
 30
0.0
 10
5.2484356239999883
 20
-57.2808443759999975
 30
0.0
 10
5.1615112479999894
 20
-57.1939199999999843
 30
0.0
 10
5.0745865639999934
 20
-56.9331465639999905
 30
0.0
 10
5.0745865639999934
 20
-56.1508265639999991
 30
0.0
  0
LINE
  5
5A
100
AcDbEntity
100
AcDbLine
  8
cut
 62
256
370
-1
  6
BYLAYER
 10
-2.0000037500001326
 20
-27.9999975000000063
 30
0.0
 11
0.0
 21
-28.0000075000000379
 31
0.0
  0
LWPOLYLINE
  5
5B
  8
engrave
 62
256
370
-1
  6
BYLAYER
100
AcDbEntity
100
AcDbPolyline
 90
14
 70
0
 10
6.4653778119999927
 20
-59.3670309399999994
 30
0.0
 10
6.5523021879999845
 20
-59.3670309399999994
 30
0.0
 10
6.7261512479999936
 20
-59.4539556239999953
 30
0.0
 10
6.8130756239999926
 20
-59.5408799999999871
 30
0.0
 10
6.8999999999999986
 20
-59.7147287519999921
 30
0.0
 10
6.8999999999999986
 20
-60.062426563999999
 30
0.0
 10
6.8130756239999926
 20
-60.2362756239999939
 30
0.0
 10
6.7261512479999936
 20
-60.3231999999999928
 30
0.0
 10
6.5523021879999916
 20
-60.4101243759999846
 30
0.0
 10
6.3784534359999938
 20
-60.4101243759999846
 30
0.0
 10
6.2046043759999989
 20
-60.3231999999999928
 30
0.0
 10
5.9438312479999951
 20
-60.1493509399999908
 30
0.0
 10
5.0745865639999934
 20
-59.2801065639999933
 30
0.0
 10
5.0745865639999934
 20
-60.4970487519999978
 30
0.0
  0
LINE
  5
5C
100
AcDbEntity
100
AcDbLine
  8
cut
 62
256
370
-1
  6
BYLAYER
 10
0.0
 20
-28.0000075000000379
 30
0.0
 11
0.0
 21
-24.9999962500000379
 31
0.0
  0
LWPOLYLINE
  5
5D
  8
engrave
 62
256
370
-1
  6
BYLAYER
100
AcDbEntity
100
AcDbPolyline
 90
5
 70
0
 10
5.5092087519999993
 20
-61.1055199999999843
 30
0.0
 10
5.4222843759999861
 20
-61.0185956239999996
 30
0.0
 10
5.3353599999999943
 20
-61.1055199999999843
 30
0.0
 10
5.4222843759999861
 20
-61.1924443759999974
 30
0.0
 10
5.5092087519999993
 20
-61.1055199999999843
 30
0.0
  0
LINE
  5
5E
100
AcDbEntity
100
AcDbLine
  8
cut
 62
256
370
-1
  6
BYLAYER
 10
0.0
 20
-24.9999962500000379
 30
0.0
 11
2.0000024999999368
 21
-24.9999962500000379
 31
0.0
  0
LWPOLYLINE
  5
5F
  8
engrave
 62
256
370
-1
  6
BYLAYER
100
AcDbEntity
100
AcDbPolyline
 90
17
 70
0
 10
6.8999999999999986
 20
-62.2355378119999898
 30
0.0
 10
6.8130756239999783
 20
-61.974764375999996
 30
0.0
 10
6.5523021879999916
 20
-61.8009156239999982
 30
0.0
 10
6.1176799999999858
 20
-61.7139909400000022
 30
0.0
 10
5.856906563999992
 20
-61.7139909400000022
 30
0.0
 10
5.4222843759999861
 20
-61.8009156239999982
 30
0.0
 10
5.1615112479999894
 20
-61.974764375999996
 30
0.0
 10
5.0745865640000005
 20
-62.2355378119999898
 30
0.0
 10
5.0745865639999934
 20
-62.4093865639999876
 30
0.0
 10
5.1615112479999894
 20
-62.6701599999999814
 30
0.0
 10
5.4222843759999861
 20
-62.8440087519999935
 30
0.0
 10
5.856906563999992
 20
-62.9309334360000037
 30
0.0
 10
6.1176799999999858
 20
-62.9309334360000037
 30
0.0
 10
6.5523021879999916
 20
-62.8440087519999935
 30
0.0
 10
6.8130756239999926
 20
-62.6701599999999814
 30
0.0
 10
6.8999999999999986
 20
-62.4093865639999876
 30
0.0
 10
6.8999999999999986
 20
-62.2355378119999898
 30
0.0
  0
LINE
  5
60
100
AcDbEntity
100
AcDbLine
  8
cut
 62
256
370
-1
  6
BYLAYER
 10
2.0000024999999368
 20
-24.9999962500000379
 30
0.0
 11
2.0000024999999368
 21
-25.9000062500000467
 31
0.0
  0
LWPOLYLINE
  5
61
  8
engrave
 62
256
370
-1
  6
BYLAYER
100
AcDbEntity
100
AcDbPolyline
 90
2
 70
0
 10
12.0
 20
-52.4999999999999929
 30
0.0
 10
10.1745865640000162
 20
-52.4999999999999929
 30
0.0
  0
LINE
  5
62
100
AcDbEntity
100
AcDbLine
  8
cut
 62
256
370
-1
  6
BYLAYER
 10
2.0000024999999368
 20
-25.9000062500000467
 30
0.0
 11
3.2499999999997726
 21
-25.9000062500000467
 31
0.0
  0
LWPOLYLINE
  5
63
  8
engrave
 62
256
370
-1
  6
BYLAYER
100
AcDbEntity
100
AcDbPolyline
 90
2
 70
0
 10
12.0
 20
-52.4999999999999929
 30
0.0
 10
12.0
 20
-53.6300178119999913
 30
0.0
  0
LINE
  5
64
100
AcDbEntity
100
AcDbLine
  8
cut
 62
256
370
-1
  6
BYLAYER
 10
3.2499999999997726
 20
-25.9000062500000467
 30
0.0
 11
3.2499999999997726
 21
-24.9999962500000379
 31
0.0
  0
LWPOLYLINE
  5
65
  8
engrave
 62
256
370
-1
  6
BYLAYER
100
AcDbEntity
100
AcDbPolyline
 90
2
 70
0
 10
11.1307556240000096
 20
-52.4999999999999929
 30
0.0
 10
11.1307556240000096
 20
-53.1953956239999926
 30
0.0
  0
LINE
  5
66
100
AcDbEntity
100
AcDbLine
  8
cut
 62
256
370
-1
  6
BYLAYER
 10
3.2499999999997726
 20
-24.9999962500000379
 30
0.0
 11
4.0000062499998421
 21
-24.9999962500000379
 31
0.0
  0
LWPOLYLINE
  5
67
  8
engrave
 62
256
370
-1
  6
BYLAYER
100
AcDbEntity
100
AcDbPolyline
 90
2
 70
0
 10
10.1745865640000162
 20
-52.4999999999999929
 30
0.0
 10
10.1745865640000162
 20
-53.6300178119999913
 30
0.0
  0
LINE
  5
68
100
AcDbEntity
100
AcDbLine
  8
cut
 62
256
370
-1
  6
BYLAYER
 10
4.0000062499998421
 20
-24.9999962500000379
 30
0.0
 11
4.0000062499998421
 21
-22.9999925000000189
 31
0.0
  0
LWPOLYLINE
  5
69
  8
engrave
 62
256
370
-1
  6
BYLAYER
100
AcDbEntity
100
AcDbPolyline
 90
2
 70
0
 10
12.0
 20
-54.499262188000003
 30
0.0
 10
10.1745865640000162
 20
-54.499262188000003
 30
0.0
  0
LINE
  5
6A
100
AcDbEntity
100
AcDbLine
  8
cut
 62
256
370
-1
  6
BYLAYER
 10
4.0000062499998421
 20
-22.9999925000000189
 30
0.0
 11
3.2499999999997726
 21
-22.9999925000000189
 31
0.0
  0
LWPOLYLINE
  5
6B
  8
engrave
 62
256
370
-1
  6
BYLAYER
100
AcDbEntity
100
AcDbPolyline
 90
2
 70
0
 10
12.0
 20
-53.8907912479999993
 30
0.0
 10
12.0
 20
-55.1077334359999895
 30
0.0
  0
LINE
  5
6C
100
AcDbEntity
100
AcDbLine
  8
cut
 62
256
370
-1
  6
BYLAYER
 10
3.2499999999997726
 20
-22.9999925000000189
 30
0.0
 11
3.2499999999997726
 21
-22.1000075000000038
 31
0.0
  0
LWPOLYLINE
  5
6D
  8
engrave
 62
256
370
-1
  6
BYLAYER
100
AcDbEntity
100
AcDbPolyline
 90
2
 70
0
 10
12.0
 20
-55.5423556239999883
 30
0.0
 10
10.1745865640000162
 20
-55.5423556239999883
 30
0.0
  0
LINE
  5
6E
100
AcDbEntity
100
AcDbLine
  8
cut
 62
256
370
-1
  6
BYLAYER
 10
3.2499999999997726
 20
-22.1000075000000038
 30
0.0
 11
2.0000024999999368
 21
-22.1000075000000038
 31
0.0
  0
LWPOLYLINE
  5
6F
  8
engrave
 62
256
370
-1
  6
BYLAYER
100
AcDbEntity
100
AcDbPolyline
 90
2
 70
0
 10
12.0
 20
-56.7592978119999927
 30
0.0
 10
10.1745865640000162
 20
-56.7592978119999927
 30
0.0
  0
LINE
  5
70
100
AcDbEntity
100
AcDbLine
  8
cut
 62
256
370
-1
  6
BYLAYER
 10
2.0000024999999368
 20
-22.1000075000000038
 30
0.0
 11
2.0000024999999368
 21
-22.9999925000000189
 31
0.0
  0
LWPOLYLINE
  5
71
  8
engrave
 62
256
370
-1
  6
BYLAYER
100
AcDbEntity
100
AcDbPolyline
 90
2
 70
0
 10
11.1307556240000096
 20
-55.5423556239999883
 30
0.0
 10
11.1307556240000096
 20
-56.7592978119999927
 30
0.0
  0
LINE
  5
72
100
AcDbEntity
100
AcDbLine
  8
cut
 62
256
370
-1
  6
BYLAYER
 10
2.0000024999999368
 20
-22.9999925000000189
 30
0.0
 11
0.0
 21
-22.9999925000000189
 31
0.0
  0
LWPOLYLINE
  5
73
  8
engrave
 62
256
370
-1
  6
BYLAYER
100
AcDbEntity
100
AcDbPolyline
 90
2
 70
0
 10
12.0
 20
-57.4546934359999923
 30
0.0
 10
10.1745865640000162
 20
-57.4546934359999923
 30
0.0
  0
LINE
  5
74
100
AcDbEntity
100
AcDbLine
  8
cut
 62
256
370
-1
  6
BYLAYER
 10
0.0
 20
-22.9999925000000189
 30
0.0
 11
0.0
 21
-17.0000049999999874
 31
0.0
  0
LWPOLYLINE
  5
75
  8
engrave
 62
256
370
-1
  6
BYLAYER
100
AcDbEntity
100
AcDbPolyline
 90
2
 70
0
 10
12.0
 20
-57.4546934359999923
 30
0.0
 10
12.0
 20
-58.5847112479999907
 30
0.0
  0
LINE
  5
76
100
AcDbEntity
100
AcDbLine
  8
cut
 62
256
370
-1
  6
BYLAYER
 10
0.0
 20
-17.0000049999999874
 30
0.0
 11
2.0000024999999368
 21
-17.0000049999999874
 31
0.0
  0
LWPOLYLINE
  5
77
  8
engrave
 62
256
370
-1
  6
BYLAYER
100
AcDbEntity
100
AcDbPolyline
 90
2
 70
0
 10
11.1307556240000096
 20
-57.4546934359999923
 30
0.0
 10
11.1307556240000025
 20
-58.1500887519999878
 30
0.0
  0
LINE
  5
78
100
AcDbEntity
100
AcDbLine
  8
cut
 62
256
370
-1
  6
BYLAYER
 10
2.0000024999999368
 20
-17.0000049999999874
 30
0.0
 11
2.0000024999999368
 21
-17.9000075000000152
 31
0.0
  0
LWPOLYLINE
  5
79
  8
engrave
 62
256
370
-1
  6
BYLAYER
100
AcDbEntity
100
AcDbPolyline
 90
2
 70
0
 10
10.1745865640000162
 20
-57.4546934359999923
 30
0.0
 10
10.1745865640000162
 20
-58.5847112479999907
 30
0.0
  0
LINE
  5
7A
100
AcDbEntity
100
AcDbLine
  8
cut
 62
256
370
-1
  6
BYLAYER
 10
2.0000024999999368
 20
-17.9000075000000152
 30
0.0
 11
3.2499999999997726
 21
-17.9000075000000152
 31
0.0
  0
LINE
  5
7B
100
AcDbEntity
100
AcDbLine
  8
cut
 62
256
370
-1
  6
BYLAYER
 10
3.2499999999997726
 20
-17.9000075000000152
 30
0.0
 11
3.2499999999997726
 21
-17.0000049999999874
 31
0.0
  0
LINE
  5
7C
100
AcDbEntity
100
AcDbLine
  8
cut
 62
256
370
-1
  6
BYLAYER
 10
3.2499999999997726
 20
-17.0000049999999874
 30
0.0
 11
4.0000062499998421
 21
-17.0000049999999874
 31
0.0
  0
LINE
  5
7D
100
AcDbEntity
100
AcDbLine
  8
cut
 62
256
370
-1
  6
BYLAYER
 10
4.0000062499998421
 20
-17.0000049999999874
 30
0.0
 11
4.0000062499998421
 21
-15.0000012500000253
 31
0.0
  0
LINE
  5
7E
100
AcDbEntity
100
AcDbLine
  8
cut
 62
256
370
-1
  6
BYLAYER
 10
4.0000062499998421
 20
-15.0000012500000253
 30
0.0
 11
3.2499999999997726
 21
-15.0000012500000253
 31
0.0
  0
LINE
  5
7F
100
AcDbEntity
100
AcDbLine
  8
cut
 62
256
370
-1
  6
BYLAYER
 10
3.2499999999997726
 20
-15.0000012500000253
 30
0.0
 11
3.2499999999997726
 21
-14.1000087500000291
 31
0.0
  0
LINE
  5
80
100
AcDbEntity
100
AcDbLine
  8
cut
 62
256
370
-1
  6
BYLAYER
 10
3.2499999999997726
 20
-14.1000087500000291
 30
0.0
 11
2.0000024999999368
 21
-14.1000087500000291
 31
0.0
  0
LINE
  5
81
100
AcDbEntity
100
AcDbLine
  8
cut
 62
256
370
-1
  6
BYLAYER
 10
2.0000024999999368
 20
-14.1000087500000291
 30
0.0
 11
2.0000024999999368
 21
-15.0000012500000253
 31
0.0
  0
LINE
  5
82
100
AcDbEntity
100
AcDbLine
  8
cut
 62
256
370
-1
  6
BYLAYER
 10
2.0000024999999368
 20
-15.0000012500000253
 30
0.0
 11
0.0
 21
-15.0000012500000253
 31
0.0
  0
LINE
  5
83
100
AcDbEntity
100
AcDbLine
  8
engrave
 62
256
370
-1
  6
BYLAYER
 10
13.0
 20
-1.0
 30
0.0
 11
13.0
 21
-2.8000037500000303
 31
0.0
  0
LINE
  5
84
100
AcDbEntity
100
AcDbLine
  8
cut
 62
256
370
-1
  6
BYLAYER
 10
0.0
 20
-15.0000012500000253
 30
0.0
 11
0.0
 21
-12.0000075000000379
 31
0.0
  0
LINE
  5
85
100
AcDbEntity
100
AcDbLine
  8
engrave
 62
256
370
-1
  6
BYLAYER
 10
13.0
 20
-8.0
 30
0.0
 11
13.0
 21
-5.2000050000000329
 31
0.0
  0
LINE
  5
86
100
AcDbEntity
100
AcDbLine
  8
cut
 62
256
370
-1
  6
BYLAYER
 10
0.0
 20
-12.0000075000000379
 30
0.0
 11
-2.0000037500001326
 21
-12.0000012500000253
 31
0.0
  0
LINE
  5
87
100
AcDbEntity
100
AcDbLine
  8
engrave
 62
256
370
-1
  6
BYLAYER
 10
17.0
 20
-8.0
 30
0.0
 11
18.0
 21
-7.0
 31
0.0
  0
LINE
  5
88
100
AcDbEntity
100
AcDbLine
  8
cut
 62
256
370
-1
  6
BYLAYER
 10
-2.0000037500001326
 20
-12.0000012500000253
 30
0.0
 11
-2.0000037500001326
 21
-7.0
 31
0.0
  0
LINE
  5
89
100
AcDbEntity
100
AcDbLine
  8
engrave
 62
256
370
-1
  6
BYLAYER
 10
18.0
 20
-7.0
 30
0.0
 11
18.0
 21
-5.2000050000000329
 31
0.0
  0
LINE
  5
8A
100
AcDbEntity
100
AcDbLine
  8
cut
 62
256
370
-1
  6
BYLAYER
 10
-2.0000037500001326
 20
-7.0
 30
0.0
 11
0.0
 21
-7.000003750000019
 31
0.0
  0
LINE
  5
8B
100
AcDbEntity
100
AcDbLine
  8
engrave
 62
256
370
-1
  6
BYLAYER
 10
18.0
 20
-1.0
 30
0.0
 11
18.0
 21
-2.8000037500000303
 31
0.0
  0
LINE
  5
8C
100
AcDbEntity
100
AcDbLine
  8
cut
 62
256
370
-1
  6
BYLAYER
 10
0.0
 20
-7.000003750000019
 30
0.0
 11
0.0
 21
0.0
 31
0.0
  0
LINE
  5
8D
100
AcDbEntity
100
AcDbLine
  8
engrave
 62
256
370
-1
  6
BYLAYER
 10
10.0088287500000206
 20
-14.0176608310507689
 30
0.0
 11
8.0
 21
-12.0
 31
0.0
  0
LINE
  5
8E
100
AcDbEntity
100
AcDbLine
  8
cut
 62
256
370
-1
  6
BYLAYER
 10
24.0000012499999684
 20
-0.000003750000019
 30
0.0
 11
21.9999974999998358
 21
-0.000003750000019
 31
0.0
  0
LINE
  5
8F
100
AcDbEntity
100
AcDbLine
  8
engrave
 62
256
370
-1
  6
BYLAYER
 10
8.0
 20
-12.0
 30
0.0
 11
8.0
 21
-1.0
 31
0.0
  0
LINE
  5
90
100
AcDbEntity
100
AcDbLine
  8
cut
 62
256
370
-1
  6
BYLAYER
 10
21.9999974999998358
 20
-0.000003750000019
 30
0.0
 11
21.9999625000000378
 21
-2.8000037500000303
 31
0.0
  0
LINE
  5
91
100
AcDbEntity
100
AcDbLine
  8
engrave
 62
256
370
-1
  6
BYLAYER
 10
11.0
 20
-52.0
 30
0.0
 11
11.0
 21
-51.2000362500000392
 31
0.0
  0
LINE
  5
92
100
AcDbEntity
100
AcDbLine
  8
cut
 62
256
370
-1
  6
BYLAYER
 10
21.9999625000000378
 20
-2.8000037500000303
 30
0.0
 11
9.9999799999998231
 21
-2.8000037500000303
 31
0.0
  0
LINE
  5
93
100
AcDbEntity
100
AcDbLine
  8
engrave
 62
256
370
-1
  6
BYLAYER
 10
5.0
 20
-51.0
 30
0.0
 11
6.0
 21
-52.0
 31
0.0
  0
LINE
  5
94
100
AcDbEntity
100
AcDbLine
  8
cut
 62
256
370
-1
  6
BYLAYER
 10
9.9999799999998231
 20
-2.8000037500000303
 30
0.0
 11
9.9999799999998231
 21
-5.2000050000000329
 31
0.0
  0
LINE
  5
95
100
AcDbEntity
100
AcDbLine
  8
cut
 62
256
370
-1
  6
BYLAYER
 10
9.9999799999998231
 20
-5.2000050000000329
 30
0.0
 11
21.9999974999998358
 21
-5.2000050000000329
 31
0.0
  0
LINE
  5
96
100
AcDbEntity
100
AcDbLine
  8
cut
 62
256
370
-1
  6
BYLAYER
 10
21.9999974999998358
 20
-5.2000050000000329
 30
0.0
 11
21.9999974999998358
 21
-12.000003750000019
 31
0.0
  0
LINE
  5
97
100
AcDbEntity
100
AcDbLine
  8
cut
 62
256
370
-1
  6
BYLAYER
 10
21.9999974999998358
 20
-12.000003750000019
 30
0.0
 11
23.9999662499999431
 21
-12.000003750000019
 31
0.0
  0
LINE
  5
98
100
AcDbEntity
100
AcDbLine
  8
cut
 62
256
370
-1
  6
BYLAYER
 10
23.9999662499999431
 20
-12.000003750000019
 30
0.0
 11
24.0000012499999684
 21
-44.000003750000019
 31
0.0
  0
LINE
  5
99
100
AcDbEntity
100
AcDbLine
  8
cut
 62
256
370
-1
  6
BYLAYER
 10
24.0000012499999684
 20
-44.000003750000019
 30
0.0
 11
21.9999974999998358
 21
-44.000003750000019
 31
0.0
  0
LINE
  5
9A
100
AcDbEntity
100
AcDbLine
  8
cut
 62
256
370
-1
  6
BYLAYER
 10
21.9999974999998358
 20
-44.000003750000019
 30
0.0
 11
21.9999974999998358
 21
-48.8000037499999735
 31
0.0
  0
LINE
  5
9B
100
AcDbEntity
100
AcDbLine
  8
cut
 62
256
370
-1
  6
BYLAYER
 10
21.9999974999998358
 20
-48.8000037499999735
 30
0.0
 11
9.9999799999998231
 21
-48.8000537500000178
 31
0.0
  0
LINE
  5
9C
100
AcDbEntity
100
AcDbLine
  8
cut
 62
256
370
-1
  6
BYLAYER
 10
9.9999799999998231
 20
-48.8000537500000178
 30
0.0
 11
9.9999799999998231
 21
-51.2000362500000392
 31
0.0
  0
LINE
  5
9D
100
AcDbEntity
100
AcDbLine
  8
cut
 62
256
370
-1
  6
BYLAYER
 10
9.9999799999998231
 20
-51.2000362500000392
 30
0.0
 11
21.9999625000000378
 21
-51.2000362500000392
 31
0.0
  0
LINE
  5
9E
100
AcDbEntity
100
AcDbLine
  8
cut
 62
256
370
-1
  6
BYLAYER
 10
21.9999625000000378
 20
-51.2000362500000392
 30
0.0
 11
21.9999974999998358
 21
-54.0000325000000316
 31
0.0
  0
LINE
  5
9F
100
AcDbEntity
100
AcDbLine
  8
cut
 62
256
370
-1
  6
BYLAYER
 10
21.9999974999998358
 20
-54.0000325000000316
 30
0.0
 11
24.0000012499999684
 21
-54.0000325000000316
 31
0.0
  0
LINE
  5
A0
100
AcDbEntity
100
AcDbLine
  8
cut
 62
256
370
-1
  6
BYLAYER
 10
5.999973749999981
 20
-42.000003750000019
 30
0.0
 11
20.399973750000072
 21
-42.000003750000019
 31
0.0
  0
LINE
  5
A1
100
AcDbEntity
100
AcDbLine
  8
cut
 62
256
370
-1
  6
BYLAYER
 10
20.399973750000072
 20
-42.000003750000019
 30
0.0
 11
20.399973750000072
 21
-25.0000025000000505
 31
0.0
  0
LINE
  5
A2
100
AcDbEntity
100
AcDbLine
  8
cut
 62
256
370
-1
  6
BYLAYER
 10
20.399973750000072
 20
-25.0000025000000505
 30
0.0
 11
5.999973749999981
 21
-25.0000025000000505
 31
0.0
  0
LINE
  5
A3
100
AcDbEntity
100
AcDbLine
  8
cut
 62
256
370
-1
  6
BYLAYER
 10
5.999973749999981
 20
-25.0000025000000505
 30
0.0
 11
5.9999737499998673
 21
-42.0000037500000758
 31
0.0
  0
LINE
  5
A4
100
AcDbEntity
100
AcDbLine
  8
cut
 62
256
370
-1
  6
BYLAYER
 10
16.4000037499999962
 20
-14.0000075000000379
 30
0.0
 11
18.4000062499999331
 21
-14.0000075000000379
 31
0.0
  0
LINE
  5
A5
100
AcDbEntity
100
AcDbLine
  8
cut
 62
256
370
-1
  6
BYLAYER
 10
18.4000062499999331
 20
-14.0000075000000379
 30
0.0
 11
20.4000099999998383
 21
-15.0000087500000063
 31
0.0
  0
LINE
  5
A6
100
AcDbEntity
100
AcDbLine
  8
cut
 62
256
370
-1
  6
BYLAYER
 10
20.4000099999998383
 20
-15.0000087500000063
 30
0.0
 11
20.4000099999998383
 21
-21.0000075000000379
 31
0.0
  0
LINE
  5
A7
100
AcDbEntity
100
AcDbLine
  8
cut
 62
256
370
-1
  6
BYLAYER
 10
20.4000099999998383
 20
-21.0000075000000379
 30
0.0
 11
18.4000062499999331
 21
-22.0000087500000063
 31
0.0
  0
LINE
  5
A8
100
AcDbEntity
100
AcDbLine
  8
cut
 62
256
370
-1
  6
BYLAYER
 10
18.4000062499999331
 20
-22.0000087500000063
 30
0.0
 11
16.4000037499999962
 21
-22.0000087500000063
 31
0.0
  0
LINE
  5
A9
100
AcDbEntity
100
AcDbLine
  8
cut
 62
256
370
-1
  6
BYLAYER
 10
16.4000037499999962
 20
-22.0000087500000063
 30
0.0
 11
16.4000037499998825
 21
-14.0000075000000948
 31
0.0
  0
ARC
  5
AA
100
AcDbEntity
  8
cut
 62
256
370
-1
  6
BYLAYER
100
AcDbCircle
 10
12.0000006249999842
 20
-54.0000325000000316
 30
0.0
 40
12.0000006250000126
100
AcDbArc
 50
180.0
 51
0.0
  0
ARC
  5
AB
100
AcDbEntity
  8
cut
 62
256
370
-1
  6
BYLAYER
100
AcDbCircle
 10
12.0000006249999842
 20
0.0
 30
0.0
 40
12.0000006250000126
100
AcDbArc
 50
0.0
 51
180.0
  0
CIRCLE
  5
AC
100
AcDbEntity
100
AcDbCircle
  8
cut
 62
256
370
-1
  6
BYLAYER
 10
10.0088287500000206
 20
-18.0088418750000301
 30
0.0
 40
3.9911810439492612
  0
CIRCLE
  5
AD
100
AcDbEntity
100
AcDbCircle
  8
cut
 62
256
370
-1
  6
BYLAYER
 10
13.0
 20
-9.5
 30
0.0
 40
1.5
  0
CIRCLE
  5
AE
100
AcDbEntity
100
AcDbCircle
  8
cut
 62
256
370
-1
  6
BYLAYER
 10
17.0
 20
-9.5
 30
0.0
 40
1.5
  0
CIRCLE
  5
AF
100
AcDbEntity
100
AcDbCircle
  8
engrave
 62
256
370
-1
  6
BYLAYER
 10
5.0
 20
0.0999999999999979
 30
0.0
 40
1.0
  0
CIRCLE
  5
B0
100
AcDbEntity
100
AcDbCircle
  8
engrave
 62
256
370
-1
  6
BYLAYER
 10
4.9999999999998863
 20
3.099999999999941
 30
0.0
 40
0.5
  0
CIRCLE
  5
B1
100
AcDbEntity
100
AcDbCircle
  8
engrave
 62
256
370
-1
  6
BYLAYER
 10
5.0
 20
6.1000000000000014
 30
0.0
 40
1.0
  0
ARC
  5
B2
100
AcDbEntity
  8
engrave
 62
256
370
-1
  6
BYLAYER
100
AcDbCircle
 10
4.9999999999998863
 20
3.099999999999941
 30
0.0
 40
1.0
100
AcDbArc
 50
0.0
 51
180.0
  0
LINE
  5
B3
100
AcDbEntity
100
AcDbLine
  8
engrave
 62
256
370
-1
  6
BYLAYER
 10
5.0
 20
5.1000000000000014
 30
0.0
 11
4.9999999999998863
 21
4.099999999999941
 31
0.0
  0
LINE
  5
B4
100
AcDbEntity
100
AcDbLine
  8
engrave
 62
256
370
-1
  6
BYLAYER
 10
4.9999999999998863
 20
2.599999999999941
 30
0.0
 11
5.0
 21
1.0999999999999979
 31
0.0
  0
LINE
  5
B5
100
AcDbEntity
100
AcDbLine
  8
engrave
 62
256
370
-1
  6
BYLAYER
 10
4.9999999999998863
 20
0.599999999999941
 30
0.0
 11
4.9999999999998863
 21
-0.400000000000059
 31
0.0
  0
LINE
  5
B6
100
AcDbEntity
100
AcDbLine
  8
engrave
 62
256
370
-1
  6
BYLAYER
 10
4.4999999999998863
 20
0.099999999999941
 30
0.0
 11
5.4999999999998863
 21
0.099999999999941
 31
0.0
  0
LINE
  5
B7
100
AcDbEntity
100
AcDbLine
  8
engrave
 62
256
370
-1
  6
BYLAYER
 10
4.9999999999998863
 20
5.5999999999999446
 30
0.0
 11
4.9999999999998863
 21
6.5999999999999446
 31
0.0
  0
LINE
  5
B8
100
AcDbEntity
100
AcDbLine
  8
engrave
 62
256
370
-1
  6
BYLAYER
 10
18.0
 20
-22.0
 30
0.0
 11
16.0
 21
-24.0
 31
0.0
  0
LINE
  5
B9
100
AcDbEntity
100
AcDbLine
  8
engrave
 62
256
370
-1
  6
BYLAYER
 10
16.0
 20
-24.0
 30
0.0
 11
6.0
 21
-24.0
 31
0.0
  0
LINE
  5
BA
100
AcDbEntity
100
AcDbLine
  8
engrave
 62
256
370
-1
  6
BYLAYER
 10
10.9999900000701274
 20
-48.8000495832977563
 30
0.0
 11
11.0
 21
-43.0
 31
0.0
  0
LINE
  5
BB
100
AcDbEntity
100
AcDbLine
  8
engrave
 62
256
370
-1
  6
BYLAYER
 10
11.0
 20
-43.0
 30
0.0
 11
12.0
 21
-42.0
 31
0.0
  0
LINE
  5
BC
100
AcDbEntity
100
AcDbLine
  8
engrave
 62
256
370
-1
  6
BYLAYER
 10
5.0
 20
-51.0
 30
0.0
 11
5.0
 21
-25.0
 31
0.0
  0
LINE
  5
BD
100
AcDbEntity
100
AcDbLine
  8
engrave
 62
256
370
-1
  6
BYLAYER
 10
5.0
 20
-25.0
 30
0.0
 11
6.0
 21
-24.0
 31
0.0
  0
LWPOLYLINE
  5
BE
  8
engrave
 62
256
370
-1
  6
BYLAYER
100
AcDbEntity
100
AcDbPolyline
 90
2
 70
0
 10
12.0
 20
-59.1062578119999955
 30
0.0
 10
10.1745865640000162
 20
-59.1062578119999955
 30
0.0
  0
LWPOLYLINE
  5
BF
  8
engrave
 62
256
370
-1
  6
BYLAYER
100
AcDbEntity
100
AcDbPolyline
 90
10
 70
0
 10
12.0
 20
-59.1062578119999955
 30
0.0
 10
12.0
 20
-59.888577811999987
 30
0.0
 10
11.9130756240000153
 20
-60.1493512479999879
 30
0.0
 10
11.8261509400000051
 20
-60.2362756239999939
 30
0.0
 10
11.6523021880000144
 20
-60.3231999999999999
 30
0.0
 10
11.4784534360000094
 20
-60.3231999999999999
 30
0.0
 10
11.3046043760000074
 20
-60.2362756239999939
 30
0.0
 10
11.2176800000000014
 20
-60.1493512479999879
 30
0.0
 10
11.1307556240000096
 20
-59.888577811999987
 30
0.0
 10
11.1307556240000096
 20
-59.1062578119999955
 30
0.0
  0
LWPOLYLINE
  5
C0
  8
engrave
 62
256
370
-1
  6
BYLAYER
100
AcDbEntity
100
AcDbPolyline
 90
2
 70
0
 10
11.1307556240000096
 20
-59.7147287519999992
 30
0.0
 10
10.1745865640000162
 20
-60.3231999999999999
 30
0.0
  0
LWPOLYLINE
  5
C1
  8
engrave
 62
256
370
-1
  6
BYLAYER
100
AcDbEntity
100
AcDbPolyline
 90
2
 70
0
 10
12.0
 20
-60.9316712479999936
 30
0.0
 10
10.1745865640000162
 20
-60.9316712479999936
 30
0.0
  0
LWPOLYLINE
  5
C2
  8
engrave
 62
256
370
-1
  6
BYLAYER
100
AcDbEntity
100
AcDbPolyline
 90
2
 70
0
 10
12.0
 20
-60.9316712479999936
 30
0.0
 10
10.1745865640000162
 20
-62.1486134360000051
 30
0.0
  0
LWPOLYLINE
  5
C3
  8
engrave
 62
256
370
-1
  6
BYLAYER
100
AcDbEntity
100
AcDbPolyline
 90
2
 70
0
 10
12.0
 20
-62.1486134360000051
 30
0.0
 10
10.1745865640000162
 20
-62.1486134360000051
 30
0.0
  0
LWPOLYLINE
  5
C4
  8
engrave
 62
256
370
-1
  6
BYLAYER
100
AcDbEntity
100
AcDbPolyline
 90
2
 70
0
 10
12.0
 20
-62.8440087519999793
 30
0.0
 10
10.1745865640000162
 20
-62.8440087519999793
 30
0.0
  0
LWPOLYLINE
  5
C5
  8
engrave
 62
256
370
-1
  6
BYLAYER
100
AcDbEntity
100
AcDbPolyline
 90
2
 70
0
 10
12.0
 20
-62.8440087519999793
 30
0.0
 10
12.0
 20
-63.9740265639999848
 30
0.0
  0
LWPOLYLINE
  5
C6
  8
engrave
 62
256
370
-1
  6
BYLAYER
100
AcDbEntity
100
AcDbPolyline
 90
2
 70
0
 10
11.1307556240000025
 20
-62.8440087519999793
 30
0.0
 10
11.1307556240000025
 20
-63.5394043759999931
 30
0.0
  0
LWPOLYLINE
  5
C7
  8
engrave
 62
256
370
-1
  6
BYLAYER
100
AcDbEntity
100
AcDbPolyline
 90
2
 70
0
 10
10.1745865640000162
 20
-62.8440087519999793
 30
0.0
 10
10.1745865640000162
 20
-63.9740265639999848
 30
0.0
  0
LWPOLYLINE
  5
C8
  8
engrave
 62
256
370
-1
  6
BYLAYER
100
AcDbEntity
100
AcDbPolyline
 90
2
 70
0
 10
12.0
 20
-64.8432712479999793
 30
0.0
 10
10.1745865640000162
 20
-64.8432712479999793
 30
0.0
  0
LWPOLYLINE
  5
C9
  8
engrave
 62
256
370
-1
  6
BYLAYER
100
AcDbEntity
100
AcDbPolyline
 90
2
 70
0
 10
12.0
 20
-64.2347999999999786
 30
0.0
 10
12.0
 20
-65.4517421879999972
 30
0.0
  0
LWPOLYLINE
  5
CA
  8
engrave
 62
256
370
-1
  6
BYLAYER
100
AcDbEntity
100
AcDbPolyline
 90
2
 70
0
 10
14.0
 20
7.0
 30
0.0
 10
12.1745868720000061
 20
7.0
 30
0.0
  0
LWPOLYLINE
  5
CB
  8
engrave
 62
256
370
-1
  6
BYLAYER
100
AcDbEntity
100
AcDbPolyline
 90
2
 70
0
 10
14.0
 20
7.0
 30
0.0
 10
14.0
 20
5.8699821879999874
 30
0.0
  0
LWPOLYLINE
  5
CC
  8
engrave
 62
256
370
-1
  6
BYLAYER
100
AcDbEntity
100
AcDbPolyline
 90
2
 70
0
 10
13.1307556240000167
 20
7.0
 30
0.0
 10
13.1307556240000167
 20
6.3046043760000003
 30
0.0
  0
LWPOLYLINE
  5
CD
  8
engrave
 62
256
370
-1
  6
BYLAYER
100
AcDbEntity
100
AcDbPolyline
 90
3
 70
0
 10
14.0
 20
5.4353600000000029
 30
0.0
 10
12.1745868720000061
 20
5.4353600000000029
 30
0.0
 10
12.1745868720000061
 20
4.3922665640000034
 30
0.0
  0
LWPOLYLINE
  5
CE
  8
engrave
 62
256
370
-1
  6
BYLAYER
100
AcDbEntity
100
AcDbPolyline
 90
2
 70
0
 10
14.0
 20
3.523022188000013
 30
0.0
 10
12.1745868720000061
 20
4.2184178120000055
 30
0.0
  0
LWPOLYLINE
  5
CF
  8
engrave
 62
256
370
-1
  6
BYLAYER
100
AcDbEntity
100
AcDbPolyline
 90
2
 70
0
 10
14.0
 20
3.523022188000013
 30
0.0
 10
12.1745868720000061
 20
2.8276265640000062
 30
0.0
  0
LWPOLYLINE
  5
D0
  8
engrave
 62
256
370
-1
  6
BYLAYER
100
AcDbEntity
100
AcDbPolyline
 90
2
 70
0
 10
12.7830578120000098
 20
3.9576443760000046
 30
0.0
 10
12.7830578120000098
 20
3.0884000000000071
 30
0.0
  0
LWPOLYLINE
  5
D1
  8
engrave
 62
256
370
-1
  6
BYLAYER
100
AcDbEntity
100
AcDbPolyline
 90
20
 70
0
 10
13.7392268720000033
 20
1.2629865639999949
 30
0.0
 10
13.9130756240000011
 20
1.4368356239999969
 30
0.0
 10
14.0
 20
1.6976087519999936
 30
0.0
 10
14.0
 20
2.0453065640000005
 30
0.0
 10
13.9130756240000011
 20
2.3060799999999944
 30
0.0
 10
13.7392268720000033
 20
2.4799287519999993
 30
0.0
 10
13.5653778119999942
 20
2.4799287519999993
 30
0.0
 10
13.3915290600000105
 20
2.3930043759999933
 30
0.0
 10
13.3046046839999974
 20
2.3060800000000157
 30
0.0
 10
13.2176800000000085
 20
2.1322312479999965
 30
0.0
 10
13.0438312480000036
 20
1.6106843760000018
 30
0.0
 10
12.9569068720000118
 20
1.4368356239999969
 30
0.0
 10
12.8699824960000058
 20
1.3499112480000051
 30
0.0
 10
12.6961334360000038
 20
1.2629865639999949
 30
0.0
 10
12.43536000000001
 20
1.2629865639999949
 30
0.0
 10
12.2615112479999979
 20
1.4368356239999969
 30
0.0
 10
12.174586871999999
 20
1.6976087519999936
 30
0.0
 10
12.174586871999999
 20
2.0453065640000077
 30
0.0
 10
12.2615112479999979
 20
2.3060799999999944
 30
0.0
 10
12.43536000000001
 20
2.4799287519999993
 30
0.0
  0
LWPOLYLINE
  5
D2
  8
engrave
 62
256
370
-1
  6
BYLAYER
100
AcDbEntity
100
AcDbPolyline
 90
2
 70
0
 10
14.0
 20
0.6545156239999912
 30
0.0
 10
12.1745868720000061
 20
0.6545156239999912
 30
0.0
  0
LWPOLYLINE
  5
D3
  8
engrave
 62
256
370
-1
  6
BYLAYER
100
AcDbEntity
100
AcDbPolyline
 90
2
 70
0
 10
14.0
 20
-0.562426563999999
 30
0.0
 10
12.1745868720000061
 20
-0.562426563999999
 30
0.0
  0
LWPOLYLINE
  5
D4
  8
engrave
 62
256
370
-1
  6
BYLAYER
100
AcDbEntity
100
AcDbPolyline
 90
2
 70
0
 10
13.1307556240000167
 20
0.6545156239999912
 30
0.0
 10
13.1307556240000167
 20
-0.562426563999999
 30
0.0
  0
LWPOLYLINE
  5
D5
  8
engrave
 62
256
370
-1
  6
BYLAYER
100
AcDbEntity
100
AcDbPolyline
 90
2
 70
0
 10
19.0
 20
7.0
 30
0.0
 10
17.1745865639999948
 20
7.0
 30
0.0
  0
LWPOLYLINE
  5
D6
  8
engrave
 62
256
370
-1
  6
BYLAYER
100
AcDbEntity
100
AcDbPolyline
 90
10
 70
0
 10
19.0
 20
7.0
 30
0.0
 10
19.0
 20
6.2176800000000156
 30
0.0
 10
18.913075623999994
 20
5.9569065639999934
 30
0.0
 10
18.8261512480000022
 20
5.8699821880000087
 30
0.0
 10
18.6523021879999931
 20
5.7830578120000098
 30
0.0
 10
18.4784534359999952
 20
5.7830578120000169
 30
0.0
 10
18.3046043760000003
 20
5.8699821880000087
 30
0.0
 10
18.2176799999999943
 20
5.9569065640000076
 30
0.0
 10
18.1307556239999883
 20
6.2176800000000085
 30
0.0
 10
18.1307556239999883
 20
7.0000000000000142
 30
0.0
  0
LWPOLYLINE
  5
D7
  8
engrave
 62
256
370
-1
  6
BYLAYER
100
AcDbEntity
100
AcDbPolyline
 90
2
 70
0
 10
18.1307556239999883
 20
6.3915290600000105
 30
0.0
 10
17.1745865639999948
 20
5.7830578120000098
 30
0.0
  0
LWPOLYLINE
  5
D8
  8
engrave
 62
256
370
-1
  6
BYLAYER
100
AcDbEntity
100
AcDbPolyline
 90
2
 70
0
 10
19.0
 20
5.1745865640000019
 30
0.0
 10
17.1745865639999948
 20
5.174586564000009
 30
0.0
  0
LWPOLYLINE
  5
D9
  8
engrave
 62
256
370
-1
  6
BYLAYER
100
AcDbEntity
100
AcDbPolyline
 90
2
 70
0
 10
19.0
 20
5.1745865640000019
 30
0.0
 10
19.0
 20
4.0445690600000077
 30
0.0
  0
LWPOLYLINE
  5
DA
  8
engrave
 62
256
370
-1
  6
BYLAYER
100
AcDbEntity
100
AcDbPolyline
 90
2
 70
0
 10
18.1307556239999883
 20
5.174586564000009
 30
0.0
 10
18.1307556239999883
 20
4.4791912479999922
 30
0.0
  0
LWPOLYLINE
  5
DB
  8
engrave
 62
256
370
-1
  6
BYLAYER
100
AcDbEntity
100
AcDbPolyline
 90
2
 70
0
 10
17.1745865639999948
 20
5.174586564000009
 30
0.0
 10
17.1745865639999948
 20
4.0445690599999935
 30
0.0
  0
LWPOLYLINE
  5
DC
  8
engrave
 62
256
370
-1
  6
BYLAYER
100
AcDbEntity
100
AcDbPolyline
 90
20
 70
0
 10
18.7392265640000062
 20
2.3930043760000004
 30
0.0
 10
18.913075623999994
 20
2.5668534360000095
 30
0.0
 10
19.0
 20
2.8276265640000062
 30
0.0
 10
19.0
 20
3.1753243760000061
 30
0.0
 10
18.913075623999994
 20
3.436097812000007
 30
0.0
 10
18.7392265640000062
 20
3.609946564000019
 30
0.0
 10
18.5653778120000013
 20
3.609946564000019
 30
0.0
 10
18.3915290599999892
 20
3.5230221879999988
 30
0.0
 10
18.3046043760000003
 20
3.436097812000007
 30
0.0
 10
18.2176799999999943
 20
3.2622490600000091
 30
0.0
 10
18.0438312479999894
 20
2.7407021880000073
 30
0.0
 10
17.9569065639999934
 20
2.5668534360000095
 30
0.0
 10
17.8699821879999874
 20
2.4799290600000106
 30
0.0
 10
17.6961334359999896
 20
2.3930043760000004
 30
0.0
 10
17.4353599999999886
 20
2.3930043760000004
 30
0.0
 10
17.2615112479999908
 20
2.5668534360000095
 30
0.0
 10
17.1745865639999948
 20
2.8276265640000062
 30
0.0
 10
17.1745865639999948
 20
3.1753243760000061
 30
0.0
 10
17.2615112479999908
 20
3.436097812000007
 30
0.0
 10
17.4353599999999886
 20
3.6099465640000048
 30
0.0
  0
LWPOLYLINE
  5
DD
  8
engrave
 62
256
370
-1
  6
BYLAYER
100
AcDbEntity
100
AcDbPolyline
 90
2
 70
0
 10
19.0
 20
1.784533436000018
 30
0.0
 10
17.1745865639999948
 20
1.7845334360000038
 30
0.0
  0
LWPOLYLINE
  5
DE
  8
engrave
 62
256
370
-1
  6
BYLAYER
100
AcDbEntity
100
AcDbPolyline
 90
2
 70
0
 10
19.0
 20
1.784533436000018
 30
0.0
 10
19.0
 20
0.6545156240000054
 30
0.0
  0
LWPOLYLINE
  5
DF
  8
engrave
 62
256
370
-1
  6
BYLAYER
100
AcDbEntity
100
AcDbPolyline
 90
2
 70
0
 10
18.1307556239999883
 20
1.7845334360000038
 30
0.0
 10
18.1307556239999883
 20
1.0891378120000041
 30
0.0
  0
LWPOLYLINE
  5
E0
  8
engrave
 62
256
370
-1
  6
BYLAYER
100
AcDbEntity
100
AcDbPolyline
 90
2
 70
0
 10
17.1745865639999948
 20
1.7845334360000038
 30
0.0
 10
17.1745865639999948
 20
0.6545156240000125
 30
0.0
  0
LWPOLYLINE
  5
E1
  8
engrave
 62
256
370
-1
  6
BYLAYER
100
AcDbEntity
100
AcDbPolyline
 90
2
 70
0
 10
19.0
 20
-0.214728751999985
 30
0.0
 10
17.1745865639999948
 20
-0.214728751999985
 30
0.0
  0
LWPOLYLINE
  5
E2
  8
engrave
 62
256
370
-1
  6
BYLAYER
100
AcDbEntity
100
AcDbPolyline
 90
2
 70
0
 10
19.0
 20
0.3937421880000045
 30
0.0
 10
19.0
 20
-0.8231999999999928
 30
0.0
  0
LWPOLYLINE
  5
E3
  8
engrave
 62
256
370
-1
  6
BYLAYER
100
AcDbEntity
100
AcDbPolyline
 90
23
 70
0
 10
8.5215468720000018
 20
5.9569068719999834
 30
0.0
 10
8.6953956239999997
 20
6.0438312479999894
 30
0.0
 10
8.7823199999999986
 20
6.3046046839999903
 30
0.0
 10
8.7823199999999986
 20
6.4784534359999881
 30
0.0
 10
8.6953956239999997
 20
6.7392268720000033
 30
0.0
 10
8.4346221880000058
 20
6.913075623999994
 30
0.0
 10
8.0
 20
7.0
 30
0.0
 10
7.5653778120000013
 20
6.9999999999999858
 30
0.0
 10
7.2176799999999943
 20
6.9130756239999869
 30
0.0
 10
7.0438312479999965
 20
6.7392268720000033
 30
0.0
 10
6.9569068720000047
 20
6.4784534359999952
 30
0.0
 10
6.9569068720000047
 20
6.3915290599999821
 30
0.0
 10
7.0438312479999965
 20
6.1307556239999812
 30
0.0
 10
7.2176799999999943
 20
5.9569068719999834
 30
0.0
 10
7.4784534359999952
 20
5.8699821879999945
 30
0.0
 10
7.5653778120000013
 20
5.8699821879999874
 30
0.0
 10
7.8261512480000022
 20
5.9569068719999834
 30
0.0
 10
8.0
 20
6.1307556240000025
 30
0.0
 10
8.086924683999996
 20
6.3915290599999963
 30
0.0
 10
8.086924683999996
 20
6.4784534359999952
 30
0.0
 10
8.0
 20
6.739226871999989
 30
0.0
 10
7.8261512480000022
 20
6.913075623999994
 30
0.0
 10
7.5653778120000013
 20
6.9999999999999858
 30
0.0
  0
ENDBLK
  5
E4
100
AcDbEntity
  8
0
100
AcDbBlockEnd
  0
ENDSEC
  0
SECTION
  2
ENTITIES
  0
LWPOLYLINE
  5
E5
  8
engrave
 62
256
370
-1
  6
BYLAYER
100
AcDbEntity
100
AcDbPolyline
 90
17
 70
0
 10
6.8999999999999986
 20
-62.2355378119999898
 30
0.0
 10
6.8130756239999783
 20
-61.974764375999996
 30
0.0
 10
6.5523021879999916
 20
-61.8009156239999982
 30
0.0
 10
6.1176799999999858
 20
-61.7139909400000022
 30
0.0
 10
5.856906563999992
 20
-61.7139909400000022
 30
0.0
 10
5.4222843759999861
 20
-61.8009156239999982
 30
0.0
 10
5.1615112479999894
 20
-61.974764375999996
 30
0.0
 10
5.0745865640000005
 20
-62.2355378119999898
 30
0.0
 10
5.0745865639999934
 20
-62.4093865639999876
 30
0.0
 10
5.1615112479999894
 20
-62.6701599999999814
 30
0.0
 10
5.4222843759999861
 20
-62.8440087519999935
 30
0.0
 10
5.856906563999992
 20
-62.9309334360000037
 30
0.0
 10
6.1176799999999858
 20
-62.9309334360000037
 30
0.0
 10
6.5523021879999916
 20
-62.8440087519999935
 30
0.0
 10
6.8130756239999926
 20
-62.6701599999999814
 30
0.0
 10
6.8999999999999986
 20
-62.4093865639999876
 30
0.0
 10
6.8999999999999986
 20
-62.2355378119999898
 30
0.0
  0
LINE
  5
E6
100
AcDbEntity
100
AcDbLine
  8
cut
 62
256
370
-1
  6
BYLAYER
 10
2.0000024999999368
 20
-24.9999962500000379
 30
0.0
 11
2.0000024999999368
 21
-25.9000062500000467
 31
0.0
  0
LWPOLYLINE
  5
E7
  8
engrave
 62
256
370
-1
  6
BYLAYER
100
AcDbEntity
100
AcDbPolyline
 90
2
 70
0
 10
12.0
 20
-52.4999999999999858
 30
0.0
 10
10.1745865640000162
 20
-52.4999999999999858
 30
0.0
  0
LINE
  5
E8
100
AcDbEntity
100
AcDbLine
  8
cut
 62
256
370
-1
  6
BYLAYER
 10
2.0000024999999368
 20
-25.9000062500000467
 30
0.0
 11
3.2499999999997726
 21
-25.9000062500000467
 31
0.0
  0
LWPOLYLINE
  5
E9
  8
engrave
 62
256
370
-1
  6
BYLAYER
100
AcDbEntity
100
AcDbPolyline
 90
2
 70
0
 10
12.0
 20
-52.4999999999999858
 30
0.0
 10
12.0
 20
-53.6300178119999913
 30
0.0
  0
LINE
  5
EA
100
AcDbEntity
100
AcDbLine
  8
cut
 62
256
370
-1
  6
BYLAYER
 10
3.2499999999997726
 20
-25.9000062500000467
 30
0.0
 11
3.2499999999997726
 21
-24.9999962500000379
 31
0.0
  0
LWPOLYLINE
  5
EB
  8
engrave
 62
256
370
-1
  6
BYLAYER
100
AcDbEntity
100
AcDbPolyline
 90
2
 70
0
 10
11.1307556240000096
 20
-52.4999999999999858
 30
0.0
 10
11.1307556240000096
 20
-53.1953956239999854
 30
0.0
  0
LINE
  5
EC
100
AcDbEntity
100
AcDbLine
  8
cut
 62
256
370
-1
  6
BYLAYER
 10
3.2499999999997726
 20
-24.9999962500000379
 30
0.0
 11
4.0000062499998421
 21
-24.9999962500000379
 31
0.0
  0
LWPOLYLINE
  5
ED
  8
engrave
 62
256
370
-1
  6
BYLAYER
100
AcDbEntity
100
AcDbPolyline
 90
2
 70
0
 10
10.1745865640000162
 20
-52.4999999999999858
 30
0.0
 10
10.1745865640000162
 20
-53.6300178119999913
 30
0.0
  0
LINE
  5
EE
100
AcDbEntity
100
AcDbLine
  8
cut
 62
256
370
-1
  6
BYLAYER
 10
4.0000062499998421
 20
-24.9999962500000379
 30
0.0
 11
4.0000062499998421
 21
-22.9999925000000189
 31
0.0
  0
LWPOLYLINE
  5
EF
  8
engrave
 62
256
370
-1
  6
BYLAYER
100
AcDbEntity
100
AcDbPolyline
 90
2
 70
0
 10
12.0
 20
-54.499262188000003
 30
0.0
 10
10.1745865640000162
 20
-54.499262188000003
 30
0.0
  0
LINE
  5
F0
100
AcDbEntity
100
AcDbLine
  8
cut
 62
256
370
-1
  6
BYLAYER
 10
4.0000062499998421
 20
-22.9999925000000189
 30
0.0
 11
3.2499999999997726
 21
-22.9999925000000189
 31
0.0
  0
LWPOLYLINE
  5
F1
  8
engrave
 62
256
370
-1
  6
BYLAYER
100
AcDbEntity
100
AcDbPolyline
 90
2
 70
0
 10
12.0
 20
-53.8907912479999993
 30
0.0
 10
12.0
 20
-55.1077334359999895
 30
0.0
  0
LINE
  5
F2
100
AcDbEntity
100
AcDbLine
  8
cut
 62
256
370
-1
  6
BYLAYER
 10
3.2499999999997726
 20
-22.9999925000000189
 30
0.0
 11
3.2499999999997726
 21
-22.1000075000000038
 31
0.0
  0
LWPOLYLINE
  5
F3
  8
engrave
 62
256
370
-1
  6
BYLAYER
100
AcDbEntity
100
AcDbPolyline
 90
2
 70
0
 10
12.0
 20
-55.5423556239999812
 30
0.0
 10
10.1745865640000162
 20
-55.5423556239999812
 30
0.0
  0
LINE
  5
F4
100
AcDbEntity
100
AcDbLine
  8
cut
 62
256
370
-1
  6
BYLAYER
 10
3.2499999999997726
 20
-22.1000075000000038
 30
0.0
 11
2.0000024999999368
 21
-22.1000075000000038
 31
0.0
  0
LWPOLYLINE
  5
F5
  8
engrave
 62
256
370
-1
  6
BYLAYER
100
AcDbEntity
100
AcDbPolyline
 90
2
 70
0
 10
12.0
 20
-56.7592978119999856
 30
0.0
 10
10.1745865640000162
 20
-56.7592978119999856
 30
0.0
  0
LINE
  5
F6
100
AcDbEntity
100
AcDbLine
  8
cut
 62
256
370
-1
  6
BYLAYER
 10
2.0000024999999368
 20
-22.1000075000000038
 30
0.0
 11
2.0000024999999368
 21
-22.9999925000000189
 31
0.0
  0
LWPOLYLINE
  5
F7
  8
engrave
 62
256
370
-1
  6
BYLAYER
100
AcDbEntity
100
AcDbPolyline
 90
2
 70
0
 10
11.1307556240000096
 20
-55.5423556239999812
 30
0.0
 10
11.1307556240000096
 20
-56.7592978119999856
 30
0.0
  0
LINE
  5
F8
100
AcDbEntity
100
AcDbLine
  8
cut
 62
256
370
-1
  6
BYLAYER
 10
2.0000024999999368
 20
-22.9999925000000189
 30
0.0
 11
0.0
 21
-22.9999925000000189
 31
0.0
  0
LWPOLYLINE
  5
F9
  8
engrave
 62
256
370
-1
  6
BYLAYER
100
AcDbEntity
100
AcDbPolyline
 90
2
 70
0
 10
12.0
 20
-57.4546934359999852
 30
0.0
 10
10.1745865640000162
 20
-57.4546934359999852
 30
0.0
  0
LINE
  5
FA
100
AcDbEntity
100
AcDbLine
  8
cut
 62
256
370
-1
  6
BYLAYER
 10
0.0
 20
-22.9999925000000189
 30
0.0
 11
0.0
 21
-17.0000049999999874
 31
0.0
  0
LWPOLYLINE
  5
FB
  8
engrave
 62
256
370
-1
  6
BYLAYER
100
AcDbEntity
100
AcDbPolyline
 90
2
 70
0
 10
12.0
 20
-57.4546934359999852
 30
0.0
 10
12.0
 20
-58.5847112479999907
 30
0.0
  0
LINE
  5
FC
100
AcDbEntity
100
AcDbLine
  8
cut
 62
256
370
-1
  6
BYLAYER
 10
0.0
 20
-17.0000049999999874
 30
0.0
 11
2.0000024999999368
 21
-17.0000049999999874
 31
0.0
  0
LWPOLYLINE
  5
FD
  8
engrave
 62
256
370
-1
  6
BYLAYER
100
AcDbEntity
100
AcDbPolyline
 90
2
 70
0
 10
11.1307556240000096
 20
-57.4546934359999852
 30
0.0
 10
11.1307556240000025
 20
-58.1500887519999878
 30
0.0
  0
LINE
  5
FE
100
AcDbEntity
100
AcDbLine
  8
cut
 62
256
370
-1
  6
BYLAYER
 10
2.0000024999999368
 20
-17.0000049999999874
 30
0.0
 11
2.0000024999999368
 21
-17.9000075000000152
 31
0.0
  0
LWPOLYLINE
  5
FF
  8
engrave
 62
256
370
-1
  6
BYLAYER
100
AcDbEntity
100
AcDbPolyline
 90
2
 70
0
 10
10.1745865640000162
 20
-57.4546934359999852
 30
0.0
 10
10.1745865640000162
 20
-58.5847112479999907
 30
0.0
  0
LINE
  5
100
100
AcDbEntity
100
AcDbLine
  8
cut
 62
256
370
-1
  6
BYLAYER
 10
2.0000024999999368
 20
-17.9000075000000152
 30
0.0
 11
3.2499999999997726
 21
-17.9000075000000152
 31
0.0
  0
LINE
  5
101
100
AcDbEntity
100
AcDbLine
  8
cut
 62
256
370
-1
  6
BYLAYER
 10
3.2499999999997726
 20
-17.9000075000000152
 30
0.0
 11
3.2499999999997726
 21
-17.0000049999999874
 31
0.0
  0
LINE
  5
102
100
AcDbEntity
100
AcDbLine
  8
cut
 62
256
370
-1
  6
BYLAYER
 10
3.2499999999997726
 20
-17.0000049999999874
 30
0.0
 11
4.0000062499998421
 21
-17.0000049999999874
 31
0.0
  0
LINE
  5
103
100
AcDbEntity
100
AcDbLine
  8
cut
 62
256
370
-1
  6
BYLAYER
 10
4.0000062499998421
 20
-17.0000049999999874
 30
0.0
 11
4.0000062499998421
 21
-15.0000012500000253
 31
0.0
  0
LINE
  5
104
100
AcDbEntity
100
AcDbLine
  8
cut
 62
256
370
-1
  6
BYLAYER
 10
4.0000062499998421
 20
-15.0000012500000253
 30
0.0
 11
3.2499999999997726
 21
-15.0000012500000253
 31
0.0
  0
LINE
  5
105
100
AcDbEntity
100
AcDbLine
  8
cut
 62
256
370
-1
  6
BYLAYER
 10
3.2499999999997726
 20
-15.0000012500000253
 30
0.0
 11
3.2499999999997726
 21
-14.1000087500000291
 31
0.0
  0
LINE
  5
106
100
AcDbEntity
100
AcDbLine
  8
cut
 62
256
370
-1
  6
BYLAYER
 10
3.2499999999997726
 20
-14.1000087500000291
 30
0.0
 11
2.0000024999999368
 21
-14.1000087500000291
 31
0.0
  0
LINE
  5
107
100
AcDbEntity
100
AcDbLine
  8
cut
 62
256
370
-1
  6
BYLAYER
 10
2.0000024999999368
 20
-14.1000087500000291
 30
0.0
 11
2.0000024999999368
 21
-15.0000012500000253
 31
0.0
  0
LINE
  5
108
100
AcDbEntity
100
AcDbLine
  8
cut
 62
256
370
-1
  6
BYLAYER
 10
2.0000024999999368
 20
-15.0000012500000253
 30
0.0
 11
0.0
 21
-15.0000012500000253
 31
0.0
  0
LINE
  5
109
100
AcDbEntity
100
AcDbLine
  8
engrave
 62
256
370
-1
  6
BYLAYER
 10
13.0
 20
-1.0
 30
0.0
 11
13.0
 21
-2.8000037500000303
 31
0.0
  0
LINE
  5
10A
100
AcDbEntity
100
AcDbLine
  8
cut
 62
256
370
-1
  6
BYLAYER
 10
0.0
 20
-15.0000012500000253
 30
0.0
 11
0.0
 21
-12.0000075000000379
 31
0.0
  0
LINE
  5
10B
100
AcDbEntity
100
AcDbLine
  8
engrave
 62
256
370
-1
  6
BYLAYER
 10
13.0
 20
-8.0
 30
0.0
 11
13.0
 21
-5.2000050000000329
 31
0.0
  0
LINE
  5
10C
100
AcDbEntity
100
AcDbLine
  8
cut
 62
256
370
-1
  6
BYLAYER
 10
0.0
 20
-12.0000075000000379
 30
0.0
 11
-2.0000037500001326
 21
-12.0000012500000253
 31
0.0
  0
LINE
  5
10D
100
AcDbEntity
100
AcDbLine
  8
engrave
 62
256
370
-1
  6
BYLAYER
 10
17.0
 20
-8.0
 30
0.0
 11
18.0
 21
-7.0
 31
0.0
  0
LINE
  5
10E
100
AcDbEntity
100
AcDbLine
  8
cut
 62
256
370
-1
  6
BYLAYER
 10
-2.0000037500001326
 20
-12.0000012500000253
 30
0.0
 11
-2.0000037500001326
 21
-7.0
 31
0.0
  0
LINE
  5
10F
100
AcDbEntity
100
AcDbLine
  8
engrave
 62
256
370
-1
  6
BYLAYER
 10
18.0
 20
-7.0
 30
0.0
 11
18.0
 21
-5.2000050000000329
 31
0.0
  0
LINE
  5
110
100
AcDbEntity
100
AcDbLine
  8
cut
 62
256
370
-1
  6
BYLAYER
 10
-2.0000037500001326
 20
-7.0
 30
0.0
 11
0.0
 21
-7.000003750000019
 31
0.0
  0
LINE
  5
111
100
AcDbEntity
100
AcDbLine
  8
engrave
 62
256
370
-1
  6
BYLAYER
 10
18.0
 20
-1.0
 30
0.0
 11
18.0
 21
-2.8000037500000303
 31
0.0
  0
LINE
  5
112
100
AcDbEntity
100
AcDbLine
  8
cut
 62
256
370
-1
  6
BYLAYER
 10
0.0
 20
-7.000003750000019
 30
0.0
 11
0.0
 21
0.0
 31
0.0
  0
LINE
  5
113
100
AcDbEntity
100
AcDbLine
  8
engrave
 62
256
370
-1
  6
BYLAYER
 10
10.0088287500000206
 20
-14.0176608310507689
 30
0.0
 11
8.0
 21
-12.0
 31
0.0
  0
LINE
  5
114
100
AcDbEntity
100
AcDbLine
  8
cut
 62
256
370
-1
  6
BYLAYER
 10
24.0000012499999684
 20
-0.000003750000019
 30
0.0
 11
21.9999974999998358
 21
-0.000003750000019
 31
0.0
  0
LINE
  5
115
100
AcDbEntity
100
AcDbLine
  8
engrave
 62
256
370
-1
  6
BYLAYER
 10
8.0
 20
-12.0
 30
0.0
 11
8.0
 21
-1.0
 31
0.0
  0
LINE
  5
116
100
AcDbEntity
100
AcDbLine
  8
cut
 62
256
370
-1
  6
BYLAYER
 10
21.9999974999998358
 20
-0.000003750000019
 30
0.0
 11
21.9999625000000378
 21
-2.8000037500000303
 31
0.0
  0
LINE
  5
117
100
AcDbEntity
100
AcDbLine
  8
engrave
 62
256
370
-1
  6
BYLAYER
 10
11.0
 20
-52.0
 30
0.0
 11
11.0
 21
-51.2000362500000392
 31
0.0
  0
LINE
  5
118
100
AcDbEntity
100
AcDbLine
  8
cut
 62
256
370
-1
  6
BYLAYER
 10
21.9999625000000378
 20
-2.8000037500000303
 30
0.0
 11
9.9999799999998231
 21
-2.8000037500000303
 31
0.0
  0
LINE
  5
119
100
AcDbEntity
100
AcDbLine
  8
engrave
 62
256
370
-1
  6
BYLAYER
 10
5.0
 20
-51.0
 30
0.0
 11
6.0
 21
-52.0
 31
0.0
  0
LINE
  5
11A
100
AcDbEntity
100
AcDbLine
  8
cut
 62
256
370
-1
  6
BYLAYER
 10
9.9999799999998231
 20
-2.8000037500000303
 30
0.0
 11
9.9999799999998231
 21
-5.2000050000000329
 31
0.0
  0
LINE
  5
11B
100
AcDbEntity
100
AcDbLine
  8
cut
 62
256
370
-1
  6
BYLAYER
 10
9.9999799999998231
 20
-5.2000050000000329
 30
0.0
 11
21.9999974999998358
 21
-5.2000050000000329
 31
0.0
  0
LINE
  5
11C
100
AcDbEntity
100
AcDbLine
  8
cut
 62
256
370
-1
  6
BYLAYER
 10
21.9999974999998358
 20
-5.2000050000000329
 30
0.0
 11
21.9999974999998358
 21
-12.000003750000019
 31
0.0
  0
LINE
  5
11D
100
AcDbEntity
100
AcDbLine
  8
cut
 62
256
370
-1
  6
BYLAYER
 10
21.9999974999998358
 20
-12.000003750000019
 30
0.0
 11
23.9999662499999431
 21
-12.000003750000019
 31
0.0
  0
LINE
  5
11E
100
AcDbEntity
100
AcDbLine
  8
cut
 62
256
370
-1
  6
BYLAYER
 10
23.9999662499999431
 20
-12.000003750000019
 30
0.0
 11
24.0000012499999684
 21
-44.000003750000019
 31
0.0
  0
LINE
  5
11F
100
AcDbEntity
100
AcDbLine
  8
cut
 62
256
370
-1
  6
BYLAYER
 10
24.0000012499999684
 20
-44.000003750000019
 30
0.0
 11
21.9999974999998358
 21
-44.000003750000019
 31
0.0
  0
LINE
  5
120
100
AcDbEntity
100
AcDbLine
  8
cut
 62
256
370
-1
  6
BYLAYER
 10
21.9999974999998358
 20
-44.000003750000019
 30
0.0
 11
21.9999974999998358
 21
-48.8000037499999735
 31
0.0
  0
LINE
  5
121
100
AcDbEntity
100
AcDbLine
  8
cut
 62
256
370
-1
  6
BYLAYER
 10
21.9999974999998358
 20
-48.8000037499999735
 30
0.0
 11
9.9999799999998231
 21
-48.8000537500000178
 31
0.0
  0
LINE
  5
122
100
AcDbEntity
100
AcDbLine
  8
cut
 62
256
370
-1
  6
BYLAYER
 10
9.9999799999998231
 20
-48.8000537500000178
 30
0.0
 11
9.9999799999998231
 21
-51.2000362500000392
 31
0.0
  0
LINE
  5
123
100
AcDbEntity
100
AcDbLine
  8
cut
 62
256
370
-1
  6
BYLAYER
 10
9.9999799999998231
 20
-51.2000362500000392
 30
0.0
 11
21.9999625000000378
 21
-51.2000362500000392
 31
0.0
  0
LINE
  5
124
100
AcDbEntity
100
AcDbLine
  8
cut
 62
256
370
-1
  6
BYLAYER
 10
21.9999625000000378
 20
-51.2000362500000392
 30
0.0
 11
21.9999974999998358
 21
-54.0000325000000316
 31
0.0
  0
LINE
  5
125
100
AcDbEntity
100
AcDbLine
  8
cut
 62
256
370
-1
  6
BYLAYER
 10
21.9999974999998358
 20
-54.0000325000000316
 30
0.0
 11
24.0000012499999684
 21
-54.0000325000000316
 31
0.0
  0
LINE
  5
126
100
AcDbEntity
100
AcDbLine
  8
cut
 62
256
370
-1
  6
BYLAYER
 10
5.999973749999981
 20
-42.000003750000019
 30
0.0
 11
20.399973750000072
 21
-42.000003750000019
 31
0.0
  0
LINE
  5
127
100
AcDbEntity
100
AcDbLine
  8
cut
 62
256
370
-1
  6
BYLAYER
 10
20.399973750000072
 20
-42.000003750000019
 30
0.0
 11
20.399973750000072
 21
-25.0000025000000505
 31
0.0
  0
LINE
  5
128
100
AcDbEntity
100
AcDbLine
  8
cut
 62
256
370
-1
  6
BYLAYER
 10
20.399973750000072
 20
-25.0000025000000505
 30
0.0
 11
5.999973749999981
 21
-25.0000025000000505
 31
0.0
  0
LINE
  5
129
100
AcDbEntity
100
AcDbLine
  8
cut
 62
256
370
-1
  6
BYLAYER
 10
5.999973749999981
 20
-25.0000025000000505
 30
0.0
 11
5.9999737499998673
 21
-42.0000037500000758
 31
0.0
  0
LINE
  5
12A
100
AcDbEntity
100
AcDbLine
  8
cut
 62
256
370
-1
  6
BYLAYER
 10
16.4000037499999962
 20
-14.0000075000000379
 30
0.0
 11
18.4000062499999331
 21
-14.0000075000000379
 31
0.0
  0
LINE
  5
12B
100
AcDbEntity
100
AcDbLine
  8
cut
 62
256
370
-1
  6
BYLAYER
 10
18.4000062499999331
 20
-14.0000075000000379
 30
0.0
 11
20.4000099999998383
 21
-15.0000087500000063
 31
0.0
  0
LINE
  5
12C
100
AcDbEntity
100
AcDbLine
  8
cut
 62
256
370
-1
  6
BYLAYER
 10
20.4000099999998383
 20
-15.0000087500000063
 30
0.0
 11
20.4000099999998383
 21
-21.0000075000000379
 31
0.0
  0
LINE
  5
12D
100
AcDbEntity
100
AcDbLine
  8
cut
 62
256
370
-1
  6
BYLAYER
 10
20.4000099999998383
 20
-21.0000075000000379
 30
0.0
 11
18.4000062499999331
 21
-22.0000087500000063
 31
0.0
  0
LINE
  5
12E
100
AcDbEntity
100
AcDbLine
  8
cut
 62
256
370
-1
  6
BYLAYER
 10
18.4000062499999331
 20
-22.0000087500000063
 30
0.0
 11
16.4000037499999962
 21
-22.0000087500000063
 31
0.0
  0
LINE
  5
12F
100
AcDbEntity
100
AcDbLine
  8
cut
 62
256
370
-1
  6
BYLAYER
 10
16.4000037499999962
 20
-22.0000087500000063
 30
0.0
 11
16.4000037499998825
 21
-14.0000075000000948
 31
0.0
  0
ARC
  5
130
100
AcDbEntity
  8
cut
 62
256
370
-1
  6
BYLAYER
100
AcDbCircle
 10
12.0000006249999842
 20
-54.0000325000000316
 30
0.0
 40
12.0000006250000126
100
AcDbArc
 50
180.0
 51
0.0
  0
ARC
  5
131
100
AcDbEntity
  8
cut
 62
256
370
-1
  6
BYLAYER
100
AcDbCircle
 10
12.0000006249999842
 20
0.0
 30
0.0
 40
12.0000006250000126
100
AcDbArc
 50
0.0
 51
180.0
  0
CIRCLE
  5
132
100
AcDbEntity
100
AcDbCircle
  8
cut
 62
256
370
-1
  6
BYLAYER
 10
10.0088287500000206
 20
-18.0088418750000301
 30
0.0
 40
3.9911810439492612
  0
CIRCLE
  5
133
100
AcDbEntity
100
AcDbCircle
  8
cut
 62
256
370
-1
  6
BYLAYER
 10
13.0
 20
-9.5
 30
0.0
 40
1.5
  0
CIRCLE
  5
134
100
AcDbEntity
100
AcDbCircle
  8
cut
 62
256
370
-1
  6
BYLAYER
 10
17.0
 20
-9.5
 30
0.0
 40
1.5
  0
CIRCLE
  5
135
100
AcDbEntity
100
AcDbCircle
  8
engrave
 62
256
370
-1
  6
BYLAYER
 10
5.0
 20
0.0999999999999979
 30
0.0
 40
1.0
  0
CIRCLE
  5
136
100
AcDbEntity
100
AcDbCircle
  8
engrave
 62
256
370
-1
  6
BYLAYER
 10
4.9999999999998863
 20
3.099999999999941
 30
0.0
 40
0.5
  0
CIRCLE
  5
137
100
AcDbEntity
100
AcDbCircle
  8
engrave
 62
256
370
-1
  6
BYLAYER
 10
5.0
 20
6.1000000000000014
 30
0.0
 40
1.0
  0
ARC
  5
138
100
AcDbEntity
  8
engrave
 62
256
370
-1
  6
BYLAYER
100
AcDbCircle
 10
4.9999999999998863
 20
3.099999999999941
 30
0.0
 40
1.0
100
AcDbArc
 50
0.0
 51
180.0
  0
LINE
  5
139
100
AcDbEntity
100
AcDbLine
  8
engrave
 62
256
370
-1
  6
BYLAYER
 10
5.0
 20
5.1000000000000014
 30
0.0
 11
4.9999999999998863
 21
4.099999999999941
 31
0.0
  0
LINE
  5
13A
100
AcDbEntity
100
AcDbLine
  8
engrave
 62
256
370
-1
  6
BYLAYER
 10
4.9999999999998863
 20
2.599999999999941
 30
0.0
 11
5.0
 21
1.0999999999999979
 31
0.0
  0
LINE
  5
13B
100
AcDbEntity
100
AcDbLine
  8
engrave
 62
256
370
-1
  6
BYLAYER
 10
4.9999999999998863
 20
0.599999999999941
 30
0.0
 11
4.9999999999998863
 21
-0.400000000000059
 31
0.0
  0
LINE
  5
13C
100
AcDbEntity
100
AcDbLine
  8
engrave
 62
256
370
-1
  6
BYLAYER
 10
4.4999999999998863
 20
0.099999999999941
 30
0.0
 11
5.4999999999998863
 21
0.099999999999941
 31
0.0
  0
LINE
  5
13D
100
AcDbEntity
100
AcDbLine
  8
engrave
 62
256
370
-1
  6
BYLAYER
 10
4.9999999999998863
 20
5.5999999999999446
 30
0.0
 11
4.9999999999998863
 21
6.5999999999999446
 31
0.0
  0
LINE
  5
13E
100
AcDbEntity
100
AcDbLine
  8
engrave
 62
256
370
-1
  6
BYLAYER
 10
18.0
 20
-22.0
 30
0.0
 11
16.0
 21
-24.0
 31
0.0
  0
LINE
  5
13F
100
AcDbEntity
100
AcDbLine
  8
engrave
 62
256
370
-1
  6
BYLAYER
 10
16.0
 20
-24.0
 30
0.0
 11
6.0
 21
-24.0
 31
0.0
  0
LINE
  5
140
100
AcDbEntity
100
AcDbLine
  8
engrave
 62
256
370
-1
  6
BYLAYER
 10
10.9999900000701274
 20
-48.8000495832977492
 30
0.0
 11
11.0
 21
-43.0
 31
0.0
  0
LINE
  5
141
100
AcDbEntity
100
AcDbLine
  8
engrave
 62
256
370
-1
  6
BYLAYER
 10
11.0
 20
-43.0
 30
0.0
 11
12.0
 21
-42.0
 31
0.0
  0
LINE
  5
142
100
AcDbEntity
100
AcDbLine
  8
engrave
 62
256
370
-1
  6
BYLAYER
 10
5.0
 20
-51.0
 30
0.0
 11
5.0
 21
-25.0
 31
0.0
  0
LINE
  5
143
100
AcDbEntity
100
AcDbLine
  8
engrave
 62
256
370
-1
  6
BYLAYER
 10
5.0
 20
-25.0
 30
0.0
 11
6.0
 21
-24.0
 31
0.0
  0
LWPOLYLINE
  5
144
  8
engrave
 62
256
370
-1
  6
BYLAYER
100
AcDbEntity
100
AcDbPolyline
 90
2
 70
0
 10
12.0
 20
-59.1062578119999955
 30
0.0
 10
10.1745865640000162
 20
-59.1062578119999955
 30
0.0
  0
LWPOLYLINE
  5
145
  8
engrave
 62
256
370
-1
  6
BYLAYER
100
AcDbEntity
100
AcDbPolyline
 90
10
 70
0
 10
12.0
 20
-59.1062578119999955
 30
0.0
 10
12.0
 20
-59.8885778119999799
 30
0.0
 10
11.9130756240000153
 20
-60.1493512479999879
 30
0.0
 10
11.8261509400000051
 20
-60.2362756239999868
 30
0.0
 10
11.6523021880000144
 20
-60.3231999999999999
 30
0.0
 10
11.4784534360000094
 20
-60.3231999999999999
 30
0.0
 10
11.3046043760000074
 20
-60.2362756239999868
 30
0.0
 10
11.2176800000000014
 20
-60.1493512479999879
 30
0.0
 10
11.1307556240000096
 20
-59.8885778119999799
 30
0.0
 10
11.1307556240000096
 20
-59.1062578119999955
 30
0.0
  0
LWPOLYLINE
  5
146
  8
engrave
 62
256
370
-1
  6
BYLAYER
100
AcDbEntity
100
AcDbPolyline
 90
2
 70
0
 10
11.1307556240000096
 20
-59.7147287519999992
 30
0.0
 10
10.1745865640000162
 20
-60.3231999999999999
 30
0.0
  0
LWPOLYLINE
  5
147
  8
engrave
 62
256
370
-1
  6
BYLAYER
100
AcDbEntity
100
AcDbPolyline
 90
2
 70
0
 10
12.0
 20
-60.9316712479999865
 30
0.0
 10
10.1745865640000162
 20
-60.9316712479999865
 30
0.0
  0
LWPOLYLINE
  5
148
  8
engrave
 62
256
370
-1
  6
BYLAYER
100
AcDbEntity
100
AcDbPolyline
 90
2
 70
0
 10
12.0
 20
-60.9316712479999865
 30
0.0
 10
10.1745865640000162
 20
-62.1486134360000051
 30
0.0
  0
LWPOLYLINE
  5
149
  8
engrave
 62
256
370
-1
  6
BYLAYER
100
AcDbEntity
100
AcDbPolyline
 90
2
 70
0
 10
12.0
 20
-62.1486134360000051
 30
0.0
 10
10.1745865640000162
 20
-62.1486134360000051
 30
0.0
  0
LWPOLYLINE
  5
14A
  8
engrave
 62
256
370
-1
  6
BYLAYER
100
AcDbEntity
100
AcDbPolyline
 90
2
 70
0
 10
12.0
 20
-62.8440087519999793
 30
0.0
 10
10.1745865640000162
 20
-62.8440087519999793
 30
0.0
  0
LWPOLYLINE
  5
14B
  8
engrave
 62
256
370
-1
  6
BYLAYER
100
AcDbEntity
100
AcDbPolyline
 90
2
 70
0
 10
12.0
 20
-62.8440087519999793
 30
0.0
 10
12.0
 20
-63.9740265639999848
 30
0.0
  0
LWPOLYLINE
  5
14C
  8
engrave
 62
256
370
-1
  6
BYLAYER
100
AcDbEntity
100
AcDbPolyline
 90
2
 70
0
 10
11.1307556240000025
 20
-62.8440087519999793
 30
0.0
 10
11.1307556240000025
 20
-63.5394043759999931
 30
0.0
  0
LWPOLYLINE
  5
14D
  8
engrave
 62
256
370
-1
  6
BYLAYER
100
AcDbEntity
100
AcDbPolyline
 90
2
 70
0
 10
10.1745865640000162
 20
-62.8440087519999793
 30
0.0
 10
10.1745865640000162
 20
-63.9740265639999848
 30
0.0
  0
LWPOLYLINE
  5
14E
  8
engrave
 62
256
370
-1
  6
BYLAYER
100
AcDbEntity
100
AcDbPolyline
 90
2
 70
0
 10
12.0
 20
-64.8432712479999793
 30
0.0
 10
10.1745865640000162
 20
-64.8432712479999793
 30
0.0
  0
LWPOLYLINE
  5
14F
  8
engrave
 62
256
370
-1
  6
BYLAYER
100
AcDbEntity
100
AcDbPolyline
 90
2
 70
0
 10
12.0
 20
-64.2347999999999786
 30
0.0
 10
12.0
 20
-65.4517421879999972
 30
0.0
  0
LWPOLYLINE
  5
150
  8
engrave
 62
256
370
-1
  6
BYLAYER
100
AcDbEntity
100
AcDbPolyline
 90
2
 70
0
 10
14.0
 20
7.0
 30
0.0
 10
12.1745868720000061
 20
7.0
 30
0.0
  0
LWPOLYLINE
  5
151
  8
engrave
 62
256
370
-1
  6
BYLAYER
100
AcDbEntity
100
AcDbPolyline
 90
2
 70
0
 10
14.0
 20
7.0
 30
0.0
 10
14.0
 20
5.8699821879999874
 30
0.0
  0
LWPOLYLINE
  5
152
  8
engrave
 62
256
370
-1
  6
BYLAYER
100
AcDbEntity
100
AcDbPolyline
 90
2
 70
0
 10
13.1307556240000167
 20
7.0
 30
0.0
 10
13.1307556240000167
 20
6.3046043760000003
 30
0.0
  0
LWPOLYLINE
  5
153
  8
engrave
 62
256
370
-1
  6
BYLAYER
100
AcDbEntity
100
AcDbPolyline
 90
3
 70
0
 10
14.0
 20
5.4353600000000029
 30
0.0
 10
12.1745868720000061
 20
5.4353600000000029
 30
0.0
 10
12.1745868720000061
 20
4.3922665640000034
 30
0.0
  0
LWPOLYLINE
  5
154
  8
engrave
 62
256
370
-1
  6
BYLAYER
100
AcDbEntity
100
AcDbPolyline
 90
2
 70
0
 10
14.0
 20
3.523022188000013
 30
0.0
 10
12.1745868720000061
 20
4.2184178120000055
 30
0.0
  0
LWPOLYLINE
  5
155
  8
engrave
 62
256
370
-1
  6
BYLAYER
100
AcDbEntity
100
AcDbPolyline
 90
2
 70
0
 10
14.0
 20
3.523022188000013
 30
0.0
 10
12.1745868720000061
 20
2.8276265640000062
 30
0.0
  0
LWPOLYLINE
  5
156
  8
engrave
 62
256
370
-1
  6
BYLAYER
100
AcDbEntity
100
AcDbPolyline
 90
2
 70
0
 10
12.7830578120000098
 20
3.9576443760000046
 30
0.0
 10
12.7830578120000098
 20
3.0884000000000071
 30
0.0
  0
LWPOLYLINE
  5
157
  8
engrave
 62
256
370
-1
  6
BYLAYER
100
AcDbEntity
100
AcDbPolyline
 90
20
 70
0
 10
13.7392268720000033
 20
1.2629865639999949
 30
0.0
 10
13.9130756240000011
 20
1.4368356239999969
 30
0.0
 10
14.0
 20
1.6976087519999936
 30
0.0
 10
14.0
 20
2.0453065640000005
 30
0.0
 10
13.9130756240000011
 20
2.3060799999999944
 30
0.0
 10
13.7392268720000033
 20
2.4799287519999993
 30
0.0
 10
13.5653778119999942
 20
2.4799287519999993
 30
0.0
 10
13.3915290600000105
 20
2.3930043759999933
 30
0.0
 10
13.3046046839999974
 20
2.3060800000000157
 30
0.0
 10
13.2176800000000085
 20
2.1322312479999965
 30
0.0
 10
13.0438312480000036
 20
1.6106843760000018
 30
0.0
 10
12.9569068720000118
 20
1.4368356239999969
 30
0.0
 10
12.8699824960000058
 20
1.3499112480000051
 30
0.0
 10
12.6961334360000038
 20
1.2629865639999949
 30
0.0
 10
12.43536000000001
 20
1.2629865639999949
 30
0.0
 10
12.2615112479999979
 20
1.4368356239999969
 30
0.0
 10
12.174586871999999
 20
1.6976087519999936
 30
0.0
 10
12.174586871999999
 20
2.0453065640000077
 30
0.0
 10
12.2615112479999979
 20
2.3060799999999944
 30
0.0
 10
12.43536000000001
 20
2.4799287519999993
 30
0.0
  0
LWPOLYLINE
  5
158
  8
engrave
 62
256
370
-1
  6
BYLAYER
100
AcDbEntity
100
AcDbPolyline
 90
2
 70
0
 10
14.0
 20
0.6545156239999912
 30
0.0
 10
12.1745868720000061
 20
0.6545156239999912
 30
0.0
  0
LWPOLYLINE
  5
159
  8
engrave
 62
256
370
-1
  6
BYLAYER
100
AcDbEntity
100
AcDbPolyline
 90
2
 70
0
 10
14.0
 20
-0.562426563999999
 30
0.0
 10
12.1745868720000061
 20
-0.562426563999999
 30
0.0
  0
LWPOLYLINE
  5
15A
  8
engrave
 62
256
370
-1
  6
BYLAYER
100
AcDbEntity
100
AcDbPolyline
 90
2
 70
0
 10
13.1307556240000167
 20
0.6545156239999912
 30
0.0
 10
13.1307556240000167
 20
-0.562426563999999
 30
0.0
  0
LWPOLYLINE
  5
15B
  8
engrave
 62
256
370
-1
  6
BYLAYER
100
AcDbEntity
100
AcDbPolyline
 90
2
 70
0
 10
19.0
 20
7.0
 30
0.0
 10
17.1745865639999948
 20
7.0
 30
0.0
  0
LWPOLYLINE
  5
15C
  8
engrave
 62
256
370
-1
  6
BYLAYER
100
AcDbEntity
100
AcDbPolyline
 90
10
 70
0
 10
19.0
 20
7.0
 30
0.0
 10
19.0
 20
6.2176800000000156
 30
0.0
 10
18.913075623999994
 20
5.9569065639999934
 30
0.0
 10
18.8261512480000022
 20
5.8699821880000087
 30
0.0
 10
18.6523021879999931
 20
5.7830578120000098
 30
0.0
 10
18.4784534359999952
 20
5.7830578120000169
 30
0.0
 10
18.3046043760000003
 20
5.8699821880000087
 30
0.0
 10
18.2176799999999943
 20
5.9569065640000076
 30
0.0
 10
18.1307556239999883
 20
6.2176800000000085
 30
0.0
 10
18.1307556239999883
 20
7.0000000000000142
 30
0.0
  0
LWPOLYLINE
  5
15D
  8
engrave
 62
256
370
-1
  6
BYLAYER
100
AcDbEntity
100
AcDbPolyline
 90
2
 70
0
 10
18.1307556239999883
 20
6.3915290600000105
 30
0.0
 10
17.1745865639999948
 20
5.7830578120000098
 30
0.0
  0
LWPOLYLINE
  5
15E
  8
engrave
 62
256
370
-1
  6
BYLAYER
100
AcDbEntity
100
AcDbPolyline
 90
2
 70
0
 10
19.0
 20
5.1745865640000019
 30
0.0
 10
17.1745865639999948
 20
5.174586564000009
 30
0.0
  0
LWPOLYLINE
  5
15F
  8
engrave
 62
256
370
-1
  6
BYLAYER
100
AcDbEntity
100
AcDbPolyline
 90
2
 70
0
 10
19.0
 20
5.1745865640000019
 30
0.0
 10
19.0
 20
4.0445690600000077
 30
0.0
  0
LWPOLYLINE
  5
160
  8
engrave
 62
256
370
-1
  6
BYLAYER
100
AcDbEntity
100
AcDbPolyline
 90
2
 70
0
 10
18.1307556239999883
 20
5.174586564000009
 30
0.0
 10
18.1307556239999883
 20
4.4791912479999922
 30
0.0
  0
LWPOLYLINE
  5
161
  8
engrave
 62
256
370
-1
  6
BYLAYER
100
AcDbEntity
100
AcDbPolyline
 90
2
 70
0
 10
17.1745865639999948
 20
5.174586564000009
 30
0.0
 10
17.1745865639999948
 20
4.0445690599999935
 30
0.0
  0
LWPOLYLINE
  5
162
  8
engrave
 62
256
370
-1
  6
BYLAYER
100
AcDbEntity
100
AcDbPolyline
 90
20
 70
0
 10
18.7392265640000062
 20
2.3930043760000004
 30
0.0
 10
18.913075623999994
 20
2.5668534360000095
 30
0.0
 10
19.0
 20
2.8276265640000062
 30
0.0
 10
19.0
 20
3.1753243760000061
 30
0.0
 10
18.913075623999994
 20
3.436097812000007
 30
0.0
 10
18.7392265640000062
 20
3.609946564000019
 30
0.0
 10
18.5653778120000013
 20
3.609946564000019
 30
0.0
 10
18.3915290599999892
 20
3.5230221879999988
 30
0.0
 10
18.3046043760000003
 20
3.436097812000007
 30
0.0
 10
18.2176799999999943
 20
3.2622490600000091
 30
0.0
 10
18.0438312479999894
 20
2.7407021880000073
 30
0.0
 10
17.9569065639999934
 20
2.5668534360000095
 30
0.0
 10
17.8699821879999874
 20
2.4799290600000106
 30
0.0
 10
17.6961334359999896
 20
2.3930043760000004
 30
0.0
 10
17.4353599999999886
 20
2.3930043760000004
 30
0.0
 10
17.2615112479999908
 20
2.5668534360000095
 30
0.0
 10
17.1745865639999948
 20
2.8276265640000062
 30
0.0
 10
17.1745865639999948
 20
3.1753243760000061
 30
0.0
 10
17.2615112479999908
 20
3.436097812000007
 30
0.0
 10
17.4353599999999886
 20
3.6099465640000048
 30
0.0
  0
LWPOLYLINE
  5
163
  8
engrave
 62
256
370
-1
  6
BYLAYER
100
AcDbEntity
100
AcDbPolyline
 90
2
 70
0
 10
19.0
 20
1.784533436000018
 30
0.0
 10
17.1745865639999948
 20
1.7845334360000038
 30
0.0
  0
LWPOLYLINE
  5
164
  8
engrave
 62
256
370
-1
  6
BYLAYER
100
AcDbEntity
100
AcDbPolyline
 90
2
 70
0
 10
19.0
 20
1.784533436000018
 30
0.0
 10
19.0
 20
0.6545156240000054
 30
0.0
  0
LWPOLYLINE
  5
165
  8
engrave
 62
256
370
-1
  6
BYLAYER
100
AcDbEntity
100
AcDbPolyline
 90
2
 70
0
 10
18.1307556239999883
 20
1.7845334360000038
 30
0.0
 10
18.1307556239999883
 20
1.0891378120000041
 30
0.0
  0
LWPOLYLINE
  5
166
  8
engrave
 62
256
370
-1
  6
BYLAYER
100
AcDbEntity
100
AcDbPolyline
 90
2
 70
0
 10
17.1745865639999948
 20
1.7845334360000038
 30
0.0
 10
17.1745865639999948
 20
0.6545156240000125
 30
0.0
  0
LWPOLYLINE
  5
167
  8
engrave
 62
256
370
-1
  6
BYLAYER
100
AcDbEntity
100
AcDbPolyline
 90
2
 70
0
 10
19.0
 20
-0.214728751999985
 30
0.0
 10
17.1745865639999948
 20
-0.214728751999985
 30
0.0
  0
LWPOLYLINE
  5
168
  8
engrave
 62
256
370
-1
  6
BYLAYER
100
AcDbEntity
100
AcDbPolyline
 90
2
 70
0
 10
19.0
 20
0.3937421880000045
 30
0.0
 10
19.0
 20
-0.8231999999999928
 30
0.0
  0
LWPOLYLINE
  5
169
  8
engrave
 62
256
370
-1
  6
BYLAYER
100
AcDbEntity
100
AcDbPolyline
 90
23
 70
0
 10
8.5215468720000018
 20
5.9569068719999834
 30
0.0
 10
8.6953956239999997
 20
6.0438312479999894
 30
0.0
 10
8.7823199999999986
 20
6.3046046839999903
 30
0.0
 10
8.7823199999999986
 20
6.4784534359999881
 30
0.0
 10
8.6953956239999997
 20
6.7392268720000033
 30
0.0
 10
8.4346221880000058
 20
6.913075623999994
 30
0.0
 10
8.0
 20
7.0
 30
0.0
 10
7.5653778120000013
 20
6.9999999999999858
 30
0.0
 10
7.2176799999999943
 20
6.9130756239999869
 30
0.0
 10
7.0438312479999965
 20
6.7392268720000033
 30
0.0
 10
6.9569068720000047
 20
6.4784534359999952
 30
0.0
 10
6.9569068720000047
 20
6.3915290599999821
 30
0.0
 10
7.0438312479999965
 20
6.1307556239999812
 30
0.0
 10
7.2176799999999943
 20
5.9569068719999834
 30
0.0
 10
7.4784534359999952
 20
5.8699821879999945
 30
0.0
 10
7.5653778120000013
 20
5.8699821879999874
 30
0.0
 10
7.8261512480000022
 20
5.9569068719999834
 30
0.0
 10
8.0
 20
6.1307556240000025
 30
0.0
 10
8.086924683999996
 20
6.3915290599999963
 30
0.0
 10
8.086924683999996
 20
6.4784534359999952
 30
0.0
 10
8.0
 20
6.739226871999989
 30
0.0
 10
7.8261512480000022
 20
6.913075623999994
 30
0.0
 10
7.5653778120000013
 20
6.9999999999999858
 30
0.0
  0
LWPOLYLINE
  5
16A
  8
engrave
 62
256
370
-1
  6
BYLAYER
100
AcDbEntity
100
AcDbPolyline
 90
2
 70
0
 10
8.7823199999999986
 20
4.1314934359999924
 30
0.0
 10
6.9569068720000047
 20
3.4360978119999928
 30
0.0
  0
LWPOLYLINE
  5
16B
  8
engrave
 62
256
370
-1
  6
BYLAYER
100
AcDbEntity
100
AcDbPolyline
 90
2
 70
0
 10
8.7823199999999986
 20
2.7407021880000002
 30
0.0
 10
6.9569068720000047
 20
3.4360978119999928
 30
0.0
  0
LWPOLYLINE
  5
16C
  8
engrave
 62
256
370
-1
  6
BYLAYER
100
AcDbEntity
100
AcDbPolyline
 90
2
 70
0
 10
8.7823199999999986
 20
2.3060799999999801
 30
0.0
 10
6.9569068720000047
 20
2.306079999999973
 30
0.0
  0
LWPOLYLINE
  5
16D
  8
engrave
 62
256
370
-1
  6
BYLAYER
100
AcDbEntity
100
AcDbPolyline
 90
12
 70
0
 10
8.7823199999999986
 20
2.3060799999999801
 30
0.0
 10
8.7823199999999986
 20
1.6976090599999836
 30
0.0
 10
8.6953956239999997
 20
1.4368356239999827
 30
0.0
 10
8.5215468720000018
 20
1.2629868719999919
 30
0.0
 10
8.3476978120000069
 20
1.1760621879999817
 30
0.0
 10
8.086924683999996
 20
1.0891378119999828
 30
0.0
 10
7.6523021880000073
 20
1.0891378119999828
 30
0.0
 10
7.3915290600000034
 20
1.1760621879999817
 30
0.0
 10
7.2176799999999943
 20
1.262986871999999
 30
0.0
 10
7.0438312479999965
 20
1.4368356239999969
 30
0.0
 10
6.9569068720000047
 20
1.6976090599999836
 30
0.0
 10
6.9569068720000047
 20
2.306079999999973
 30
0.0
  0
LWPOLYLINE
  5
16E
  8
cut
 62
256
370
-1
  6
BYLAYER
100
AcDbEntity
100
AcDbPolyline
 90
2
 70
0
 10
11.51760749999994
 20
-9.4909675000000107
 30
0.0
 10
11.5176037499998074
 20
-9.4909675000000107
 30
0.0
  0
LWPOLYLINE
  5
16F
  8
engrave
 62
256
370
-1
  6
BYLAYER
100
AcDbEntity
100
AcDbPolyline
 90
18
 70
0
 10
8.3476978120000069
 20
-0.7362753160000182
 30
0.0
 10
8.5215468720000018
 20
-0.649350940000005
 30
0.0
 10
8.6953956239999997
 20
-0.4755021880000072
 30
0.0
 10
8.7823199999999986
 20
-0.3016531280000194
 30
0.0
 10
8.7823199999999986
 20
0.0460446839999875
 30
0.0
 10
8.6953956239999997
 20
0.2198934359999996
 30
0.0
 10
8.5215468720000018
 20
0.3937421879999903
 30
0.0
 10
8.3476978120000069
 20
0.4806668719999863
 30
0.0
 10
8.086924683999996
 20
0.5675912479999994
 30
0.0
 10
7.6523021880000073
 20
0.5675912479999781
 30
0.0
 10
7.3915290600000034
 20
0.4806668719999863
 30
0.0
 10
7.2176799999999943
 20
0.3937421879999903
 30
0.0
 10
7.0438312479999965
 20
0.2198934359999924
 30
0.0
 10
6.9569068720000047
 20
0.0460446839999875
 30
0.0
 10
6.9569068720000047
 20
-0.3016531280000194
 30
0.0
 10
7.0438312479999965
 20
-0.4755021880000072
 30
0.0
 10
7.2176799999999943
 20
-0.6493509399999979
 30
0.0
 10
7.3915290600000034
 20
-0.736275316000004
 30
0.0
  0
LWPOLYLINE
  5
170
  8
cut
 62
256
370
-1
  6
BYLAYER
100
AcDbEntity
100
AcDbPolyline
 90
2
 70
0
 10
15.5176062499999716
 20
-9.4909675000000107
 30
0.0
 10
15.5176025000000664
 20
-9.4909675000000107
 30
0.0
  0
LWPOLYLINE
  5
171
  8
cut
 62
256
370
-1
  6
BYLAYER
100
AcDbEntity
100
AcDbPolyline
 90
2
 70
0
 10
6.0176675000000159
 20
-18.0176837500000033
 30
0.0
 10
6.0176575000000412
 20
-18.0176837500000033
 30
0.0
  0
LWPOLYLINE
  5
172
  8
engrave
 62
256
370
-1
  6
BYLAYER
100
AcDbEntity
100
AcDbPolyline
 90
10
 70
0
 10
6.8999999999999986
 20
-52.4999999999999858
 30
0.0
 10
5.5961334359999881
 20
-52.4999999999999858
 30
0.0
 10
5.3353599999999943
 20
-52.5869243759999847
 30
0.0
 10
5.1615112479999894
 20
-52.7607734359999796
 30
0.0
 10
5.0745865639999934
 20
-53.0215465639999906
 30
0.0
 10
5.0745865639999934
 20
-53.1953956239999997
 30
0.0
 10
5.1615112479999894
 20
-53.4561687519999822
 30
0.0
 10
5.3353599999999943
 20
-53.6300178119999913
 30
0.0
 10
5.5961334359999881
 20
-53.7169421879999902
 30
0.0
 10
6.8999999999999986
 20
-53.7169421879999902
 30
0.0
  0
LWPOLYLINE
  5
173
  8
cut
 62
256
370
-1
  6
BYLAYER
100
AcDbEntity
100
AcDbPolyline
 90
2
 70
0
 10
0.0
 20
0.0
 30
0.0
 10
0.0
 20
0.0
 30
0.0
  0
LWPOLYLINE
  5
174
  8
engrave
 62
256
370
-1
  6
BYLAYER
100
AcDbEntity
100
AcDbPolyline
 90
20
 70
0
 10
6.6392265639999906
 20
-55.5423556239999954
 30
0.0
 10
6.8130756239999926
 20
-55.3685065639999863
 30
0.0
 10
6.8999999999999986
 20
-55.1077334359999895
 30
0.0
 10
6.8999999999999986
 20
-54.7600356239999826
 30
0.0
 10
6.8130756239999926
 20
-54.4992621879999888
 30
0.0
 10
6.6392265639999906
 20
-54.325413435999991
 30
0.0
 10
6.4653778119999927
 20
-54.325413435999991
 30
0.0
 10
6.2915287519999907
 20
-54.4123378119999899
 30
0.0
 10
6.2046043759999989
 20
-54.4992621879999888
 30
0.0
 10
6.1176799999999858
 20
-54.6731109399999866
 30
0.0
 10
5.9438312479999951
 20
-55.1946578119999884
 30
0.0
 10
5.856906563999992
 20
-55.3685065639999863
 30
0.0
 10
5.7699821880000002
 20
-55.4554309399999852
 30
0.0
 10
5.5961334359999881
 20
-55.5423556239999954
 30
0.0
 10
5.3353599999999943
 20
-55.5423556239999954
 30
0.0
 10
5.1615112479999894
 20
-55.3685065639999863
 30
0.0
 10
5.0745865639999934
 20
-55.1077334359999895
 30
0.0
 10
5.0745865639999934
 20
-54.7600356239999826
 30
0.0
 10
5.1615112479999894
 20
-54.4992621879999888
 30
0.0
 10
5.3353599999999943
 20
-54.325413435999991
 30
0.0
  0
LINE
  5
175
100
AcDbEntity
100
AcDbLine
  8
cut
 62
256
370
-1
  6
BYLAYER
 10
0.0
 20
-54.0000325000000316
 30
0.0
 11
0.0
 21
-33.0000225
 31
0.0
  0
LWPOLYLINE
  5
176
  8
engrave
 62
256
370
-1
  6
BYLAYER
100
AcDbEntity
100
AcDbPolyline
 90
2
 70
0
 10
6.8999999999999986
 20
-56.1508265639999991
 30
0.0
 10
5.0745865639999934
 20
-56.1508265639999991
 30
0.0
  0
LINE
  5
177
100
AcDbEntity
100
AcDbLine
  8
cut
 62
256
370
-1
  6
BYLAYER
 10
0.0
 20
-33.0000225
 30
0.0
 11
-2.0000037500001326
 21
-32.9999875000000316
 31
0.0
  0
LWPOLYLINE
  5
178
  8
engrave
 62
256
370
-1
  6
BYLAYER
100
AcDbEntity
100
AcDbPolyline
 90
9
 70
0
 10
6.8999999999999986
 20
-56.1508265639999991
 30
0.0
 10
6.8999999999999986
 20
-56.9331465639999834
 30
0.0
 10
6.8130756239999926
 20
-57.1939199999999772
 30
0.0
 10
6.7261512479999936
 20
-57.2808443759999903
 30
0.0
 10
6.5523021879999916
 20
-57.3677687519999893
 30
0.0
 10
6.3784534359999938
 20
-57.3677687519999893
 30
0.0
 10
6.2046043759999989
 20
-57.2808443759999903
 30
0.0
 10
6.1176799999999858
 20
-57.1939199999999772
 30
0.0
 10
6.030755623999994
 20
-56.9331465639999834
 30
0.0
  0
LINE
  5
179
100
AcDbEntity
100
AcDbLine
  8
cut
 62
256
370
-1
  6
BYLAYER
 10
-2.0000037500001326
 20
-32.9999875000000316
 30
0.0
 11
-2.0000037500001326
 21
-27.9999975000000063
 31
0.0
  0
LWPOLYLINE
  5
17A
  8
engrave
 62
256
370
-1
  6
BYLAYER
100
AcDbEntity
100
AcDbPolyline
 90
10
 70
0
 10
6.030755623999994
 20
-56.1508265639999991
 30
0.0
 10
6.030755623999994
 20
-56.9331465639999834
 30
0.0
 10
5.9438312479999951
 20
-57.1939199999999772
 30
0.0
 10
5.856906563999992
 20
-57.2808443759999903
 30
0.0
 10
5.6830578119999942
 20
-57.3677687519999893
 30
0.0
 10
5.4222843759999861
 20
-57.3677687519999893
 30
0.0
 10
5.2484356239999883
 20
-57.2808443759999903
 30
0.0
 10
5.1615112479999894
 20
-57.1939199999999772
 30
0.0
 10
5.0745865639999934
 20
-56.9331465639999834
 30
0.0
 10
5.0745865639999934
 20
-56.1508265639999991
 30
0.0
  0
LINE
  5
17B
100
AcDbEntity
100
AcDbLine
  8
cut
 62
256
370
-1
  6
BYLAYER
 10
-2.0000037500001326
 20
-27.9999975000000063
 30
0.0
 11
0.0
 21
-28.0000075000000379
 31
0.0
  0
LWPOLYLINE
  5
17C
  8
engrave
 62
256
370
-1
  6
BYLAYER
100
AcDbEntity
100
AcDbPolyline
 90
14
 70
0
 10
6.4653778119999927
 20
-59.3670309399999923
 30
0.0
 10
6.5523021879999845
 20
-59.3670309399999923
 30
0.0
 10
6.7261512479999936
 20
-59.4539556239999882
 30
0.0
 10
6.8130756239999926
 20
-59.5408799999999871
 30
0.0
 10
6.8999999999999986
 20
-59.714728751999985
 30
0.0
 10
6.8999999999999986
 20
-60.0624265639999919
 30
0.0
 10
6.8130756239999926
 20
-60.2362756239999868
 30
0.0
 10
6.7261512479999936
 20
-60.3231999999999857
 30
0.0
 10
6.5523021879999916
 20
-60.4101243759999846
 30
0.0
 10
6.3784534359999938
 20
-60.4101243759999846
 30
0.0
 10
6.2046043759999989
 20
-60.3231999999999857
 30
0.0
 10
5.9438312479999951
 20
-60.1493509399999908
 30
0.0
 10
5.0745865639999934
 20
-59.2801065639999933
 30
0.0
 10
5.0745865639999934
 20
-60.4970487519999978
 30
0.0
  0
LINE
  5
17D
100
AcDbEntity
100
AcDbLine
  8
cut
 62
256
370
-1
  6
BYLAYER
 10
0.0
 20
-28.0000075000000379
 30
0.0
 11
0.0
 21
-24.9999962500000379
 31
0.0
  0
LWPOLYLINE
  5
17E
  8
engrave
 62
256
370
-1
  6
BYLAYER
100
AcDbEntity
100
AcDbPolyline
 90
5
 70
0
 10
5.5092087519999993
 20
-61.1055199999999843
 30
0.0
 10
5.4222843759999861
 20
-61.0185956239999996
 30
0.0
 10
5.3353599999999943
 20
-61.1055199999999843
 30
0.0
 10
5.4222843759999861
 20
-61.1924443759999974
 30
0.0
 10
5.5092087519999993
 20
-61.1055199999999843
 30
0.0
  0
LINE
  5
17F
100
AcDbEntity
100
AcDbLine
  8
cut
 62
256
370
-1
  6
BYLAYER
 10
0.0
 20
-24.9999962500000379
 30
0.0
 11
2.0000024999999368
 21
-24.9999962500000379
 31
0.0
  0
ENDSEC
  0
SECTION
  2
OBJECTS
  0
DICTIONARY
  5
C
100
AcDbDictionary
280
0
281
1
  3
ACAD_GROUP
350
D
  3
ACAD_LAYOUT
350
1A
  3
ACAD_MLINESTYLE
350
17
  3
ACAD_PLOTSETTINGS
350
19
  3
ACAD_PLOTSTYLENAME
350
E
  3
AcDbVariableDictionary
350
180
  3
QCAD_OBJECTS
350
181
  0
DICTIONARY
  5
D
100
AcDbDictionary
280
0
281
1
  0
ACDBDICTIONARYWDFLT
  5
E
100
AcDbDictionary
281
1
  3
Normal
350
F
100
AcDbDictionaryWithDefault
340
F
  0
ACDBPLACEHOLDER
  5
F
  0
DICTIONARY
  5
17
100
AcDbDictionary
280
0
281
1
  3
Standard
350
18
  0
MLINESTYLE
  5
18
100
AcDbMlineStyle
  2
STANDARD
 70
0
  3

 62
256
 51
90.0
 52
90.0
 71
2
 49
0.5
 62
256
  6
BYLAYER
 49
-0.5
 62
256
  6
BYLAYER
  0
DICTIONARY
  5
19
100
AcDbDictionary
280
0
281
1
  0
DICTIONARY
  5
1A
100
AcDbDictionary
281
1
  3
Layout1
350
1E
  3
Layout2
350
26
  3
Model
350
22
  0
LAYOUT
  5
1E
100
AcDbPlotSettings
  1

  2
C:\Program Files\AutoCAD 2002\plotters\DWF ePlot (optimized for plotting).pc3
  4

  6

 40
0.0
 41
0.0
 42
0.0
 43
0.0
 44
0.0
 45
0.0
 46
0.0
 47
0.0
 48
0.0
 49
0.0
140
0.0
141
0.0
142
1.0
143
1.0
 70
688
 72
0
 73
0
 74
5
  7

 75
16
147
1.0
148
0.0
149
0.0
100
AcDbLayout
  1
Layout1
 70
1
 71
1
 10
0.0
 20
0.0
 11
420.0
 21
297.0
 12
0.0
 22
0.0
 32
0.0
 14
100000000000000000000.0
 24
100000000000000000000.0
 34
100000000000000000000.0
 15
-100000000000000000000.0
 25
-100000000000000000000.0
 35
-100000000000000000000.0
146
0.0
 13
0.0
 23
0.0
 33
0.0
 16
1.0
 26
0.0
 36
0.0
 17
0.0
 27
1.0
 37
0.0
 76
0
330
1B
  0
LAYOUT
  5
22
100
AcDbPlotSettings
  1

  2
C:\Program Files\AutoCAD 2002\plotters\DWF ePlot (optimized for plotting).pc3
  4

  6

 40
0.0
 41
0.0
 42
0.0
 43
0.0
 44
0.0
 45
0.0
 46
0.0
 47
0.0
 48
0.0
 49
0.0
140
0.0
141
0.0
142
1.0
143
1.0
 70
1712
 72
0
 73
0
 74
0
  7

 75
0
147
1.0
148
0.0
149
0.0
100
AcDbLayout
  1
Model
 70
1
 71
0
 10
0.0
 20
0.0
 11
12.0
 21
9.0
 12
0.0
 22
0.0
 32
0.0
 14
0.0
 24
0.0
 34
0.0
 15
0.0
 25
0.0
 35
0.0
146
0.0
 13
0.0
 23
0.0
 33
0.0
 16
1.0
 26
0.0
 36
0.0
 17
0.0
 27
1.0
 37
0.0
 76
0
330
1F
  0
LAYOUT
  5
26
100
AcDbPlotSettings
  1

  2
C:\Program Files\AutoCAD 2002\plotters\DWF ePlot (optimized for plotting).pc3
  4

  6

 40
0.0
 41
0.0
 42
0.0
 43
0.0
 44
0.0
 45
0.0
 46
0.0
 47
0.0
 48
0.0
 49
0.0
140
0.0
141
0.0
142
1.0
143
1.0
 70
688
 72
0
 73
0
 74
5
  7

 75
16
147
1.0
148
0.0
149
0.0
100
AcDbLayout
  1
Layout2
 70
1
 71
2
 10
0.0
 20
0.0
 11
12.0
 21
9.0
 12
0.0
 22
0.0
 32
0.0
 14
0.0
 24
0.0
 34
0.0
 15
0.0
 25
0.0
 35
0.0
146
0.0
 13
0.0
 23
0.0
 33
0.0
 16
1.0
 26
0.0
 36
0.0
 17
0.0
 27
1.0
 37
0.0
 76
0
330
23
  0
DICTIONARY
  5
180
100
AcDbDictionary
281
1
  3
DIMASSOC
350
183
  3
HIDETEXT
350
182
  0
DICTIONARYVAR
  5
182
100
DictionaryVariables
280
0
  1
2
  0
DICTIONARYVAR
  5
183
100
DictionaryVariables
280
0
  1
1
  0
DICTIONARY
  5
181
100
AcDbDictionary
281
1
  3
Grid/DisplayGrid00
350
184
  3
Grid/DisplayGrid01
350
185
  3
Grid/DisplayGrid02
350
186
  3
Grid/DisplayGrid03
350
187
  3
Grid/GridSpacingX00
350
188
  3
Grid/GridSpacingX01
350
189
  3
Grid/GridSpacingX02
350
18A
  3
Grid/GridSpacingX03
350
18B
  3
Grid/GridSpacingY00
350
18C
  3
Grid/GridSpacingY01
350
18D
  3
Grid/GridSpacingY02
350
18E
  3
Grid/GridSpacingY03
350
18F
  3
Grid/IsometricGrid00
350
190
  3
Grid/IsometricGrid01
350
191
  3
Grid/IsometricGrid02
350
192
  3
Grid/IsometricGrid03
350
193
  3
Grid/IsometricProjection00
350
194
  3
Grid/IsometricProjection01
350
195
  3
Grid/IsometricProjection02
350
196
  3
Grid/IsometricProjection03
350
197
  3
Grid/MetaGridSpacingX00
350
198
  3
Grid/MetaGridSpacingX01
350
199
  3
Grid/MetaGridSpacingX02
350
19A
  3
Grid/MetaGridSpacingX03
350
19B
  3
Grid/MetaGridSpacingY00
350
19C
  3
Grid/MetaGridSpacingY01
350
19D
  3
Grid/MetaGridSpacingY02
350
19E
  3
Grid/MetaGridSpacingY03
350
19F
  3
MultiPageSettings/Columns
350
1A0
  3
MultiPageSettings/GlueMarginsBottom
350
1A1
  3
MultiPageSettings/GlueMarginsLeft
350
1A2
  3
MultiPageSettings/GlueMarginsRight
350
1A3
  3
MultiPageSettings/GlueMarginsTop
350
1A4
  3
MultiPageSettings/PrintCropMarks
350
1A5
  3
MultiPageSettings/Rows
350
1A6
  3
PageSettings/OffsetX
350
1A7
  3
PageSettings/OffsetY
350
1A8
  3
PageSettings/PageOrientation
350
1A9
  3
PageSettings/PaperHeight
350
1AA
  3
PageSettings/PaperWidth
350
1AB
  3
PageSettings/Scale
350
1AC
  3
PageSettings/ShowPaperBorders
350
1AD
  3
UnitSettings/PaperUnit
350
1AE
  0
XRECORD
  5
184
330
181
100
AcDbXrecord
280
1
290
1
  0
XRECORD
  5
185
330
181
100
AcDbXrecord
280
1
290
1
  0
XRECORD
  5
186
330
181
100
AcDbXrecord
280
1
290
1
  0
XRECORD
  5
187
330
181
100
AcDbXrecord
280
1
290
1
  0
XRECORD
  5
188
330
181
100
AcDbXrecord
280
1
1000
auto
  0
XRECORD
  5
189
330
181
100
AcDbXrecord
280
1
1000
auto
  0
XRECORD
  5
18A
330
181
100
AcDbXrecord
280
1
1000
auto
  0
XRECORD
  5
18B
330
181
100
AcDbXrecord
280
1
1000
auto
  0
XRECORD
  5
18C
330
181
100
AcDbXrecord
280
1
1000
auto
  0
XRECORD
  5
18D
330
181
100
AcDbXrecord
280
1
1000
auto
  0
XRECORD
  5
18E
330
181
100
AcDbXrecord
280
1
1000
auto
  0
XRECORD
  5
18F
330
181
100
AcDbXrecord
280
1
1000
auto
  0
XRECORD
  5
190
330
181
100
AcDbXrecord
280
1
290
0
  0
XRECORD
  5
191
330
181
100
AcDbXrecord
280
1
290
0
  0
XRECORD
  5
192
330
181
100
AcDbXrecord
280
1
290
0
  0
XRECORD
  5
193
330
181
100
AcDbXrecord
280
1
290
0
  0
XRECORD
  5
194
330
181
100
AcDbXrecord
280
1
 90
0
  0
XRECORD
  5
195
330
181
100
AcDbXrecord
280
1
 90
0
  0
XRECORD
  5
196
330
181
100
AcDbXrecord
280
1
 90
0
  0
XRECORD
  5
197
330
181
100
AcDbXrecord
280
1
 90
0
  0
XRECORD
  5
198
330
181
100
AcDbXrecord
280
1
1000
auto
  0
XRECORD
  5
199
330
181
100
AcDbXrecord
280
1
1000
auto
  0
XRECORD
  5
19A
330
181
100
AcDbXrecord
280
1
1000
auto
  0
XRECORD
  5
19B
330
181
100
AcDbXrecord
280
1
1000
auto
  0
XRECORD
  5
19C
330
181
100
AcDbXrecord
280
1
1000
auto
  0
XRECORD
  5
19D
330
181
100
AcDbXrecord
280
1
1000
auto
  0
XRECORD
  5
19E
330
181
100
AcDbXrecord
280
1
1000
auto
  0
XRECORD
  5
19F
330
181
100
AcDbXrecord
280
1
1000
auto
  0
XRECORD
  5
1A0
330
181
100
AcDbXrecord
280
1
 90
1
  0
XRECORD
  5
1A1
330
181
100
AcDbXrecord
280
1
 40
10.0
  0
XRECORD
  5
1A2
330
181
100
AcDbXrecord
280
1
 40
10.0
  0
XRECORD
  5
1A3
330
181
100
AcDbXrecord
280
1
 40
10.0
  0
XRECORD
  5
1A4
330
181
100
AcDbXrecord
280
1
 40
10.0
  0
XRECORD
  5
1A5
330
181
100
AcDbXrecord
280
1
290
0
  0
XRECORD
  5
1A6
330
181
100
AcDbXrecord
280
1
 90
1
  0
XRECORD
  5
1A7
330
181
100
AcDbXrecord
280
1
 40
0.0
  0
XRECORD
  5
1A8
330
181
100
AcDbXrecord
280
1
 40
0.0
  0
XRECORD
  5
1A9
330
181
100
AcDbXrecord
280
1
1000
Portrait
  0
XRECORD
  5
1AA
330
181
100
AcDbXrecord
280
1
 40
297.0
  0
XRECORD
  5
1AB
330
181
100
AcDbXrecord
280
1
 40
210.0
  0
XRECORD
  5
1AC
330
181
100
AcDbXrecord
280
1
1000
1:1
  0
XRECORD
  5
1AD
330
181
100
AcDbXrecord
280
1
290
1
  0
XRECORD
  5
1AE
330
181
100
AcDbXrecord
280
1
 90
4
  0
ENDSEC
  0
EOF
