999
dxflib 3.1.5.0
  0
SECTION
  2
HEADER
  9
$ACADVER
  1
AC1015
  9
$HANDSEED
  5
FFFF
  9
$DIMADEC
 70
0
  9
$DIMASZ
 40
2.5
  9
$DIMAUNIT
 70
0
  9
$DIMAZIN
 70
2
  9
$DIMDEC
 70
4
  9
$DIMEXE
 40
1.25
  9
$DIMEXO
 40
0.625
  9
$DIMGAP
 40
0.625
  9
$DIMLUNIT
 70
2
  9
$DIMTSZ
 40
0.0
  9
$DIMTXT
 40
2.5
  9
$DIMZIN
 70
8
  9
$INSUNITS
 70
4
  9
$LTSCALE
 40
1.0
  0
SECTION
  2
TABLES
  0
TABLE
  2
VPORT
  5
8
100
AcDbSymbolTable
 70
1
  0
VPORT
  5
30
100
AcDbSymbolTableRecord
100
AcDbViewportTableRecord
  2
*Active
 70
0
 10
0.0
 20
0.0
 11
1.0
 21
1.0
 12
286.3055555555554861
 22
148.5
 13
0.0
 23
0.0
 14
10.0
 24
10.0
 15
10.0
 25
10.0
 16
0.0
 26
0.0
 36
1.0
 17
0.0
 27
0.0
 37
0.0
 40
297.0
 41
1.92798353909465
 42
50.0
 43
0.0
 44
0.0
 50
0.0
 51
0.0
 71
0
 72
100
 73
1
 74
3
 75
1
 76
1
 77
0
 78
0
281
0
 65
1
110
0.0
120
0.0
130
0.0
111
1.0
121
0.0
131
0.0
112
0.0
122
1.0
132
0.0
 79
0
146
0.0
  0
ENDTAB
  0
TABLE
  2
LTYPE
  5
5
100
AcDbSymbolTable
 70
21
  0
LTYPE
  5
31
100
AcDbSymbolTableRecord
100
AcDbLinetypeTableRecord
  2
CENTER2
 70
0
  3
Center (.5x) ___ _ ___ _ ___ _ ___ _ ___ _ ___
 72
65
 73
4
 40
28.5749999999999993
 49
19.0500000000000007
 74
0
 49
-3.1749999999999998
 74
0
 49
3.1749999999999998
 74
0
 49
-3.1749999999999998
 74
0
  0
LTYPE
  5
32
100
AcDbSymbolTableRecord
100
AcDbLinetypeTableRecord
  2
DIVIDEX2
 70
0
  3
Divide (2x) ________  .  .  ________  .  .  _
 72
65
 73
6
 40
63.5
 49
25.3999999999999986
 74
0
 49
-12.6999999999999993
 74
0
 49
0.0
 74
0
 49
-12.6999999999999993
 74
0
 49
0.0
 74
0
 49
-12.6999999999999993
 74
0
  0
LTYPE
  5
33
100
AcDbSymbolTableRecord
100
AcDbLinetypeTableRecord
  2
DOT2
 70
0
  3
Dot (.5x) .....................................
 72
65
 73
2
 40
3.1749999999999998
 49
0.0
 74
0
 49
-3.1749999999999998
 74
0
  0
LTYPE
  5
34
100
AcDbSymbolTableRecord
100
AcDbLinetypeTableRecord
  2
DASHDOT2
 70
0
  3
Dash dot (.5x) _._._._._._._._._._._._._._._.
 72
65
 73
4
 40
12.6999999999999993
 49
6.3499999999999996
 74
0
 49
-3.1749999999999998
 74
0
 49
0.0
 74
0
 49
-3.1749999999999998
 74
0
  0
LTYPE
  5
35
100
AcDbSymbolTableRecord
100
AcDbLinetypeTableRecord
  2
DIVIDE
 70
0
  3
Divide ____ . . ____ . . ____ . . ____ . . ____
 72
65
 73
6
 40
31.75
 49
12.6999999999999993
 74
0
 49
-6.3499999999999996
 74
0
 49
0.0
 74
0
 49
-6.3499999999999996
 74
0
 49
0.0
 74
0
 49
-6.3499999999999996
 74
0
  0
LTYPE
  5
36
100
AcDbSymbolTableRecord
100
AcDbLinetypeTableRecord
  2
DASHDOT
 70
0
  3
Dash dot __ . __ . __ . __ . __ . __ . __ . __
 72
65
 73
4
 40
25.3999999999999986
 49
12.6999999999999993
 74
0
 49
-6.3499999999999996
 74
0
 49
0.0
 74
0
 49
-6.3499999999999996
 74
0
  0
LTYPE
  5
37
100
AcDbSymbolTableRecord
100
AcDbLinetypeTableRecord
  2
BORDER
 70
0
  3
Border __ __ . __ __ . __ __ . __ __ . __ __ .
 72
65
 73
6
 40
44.4500000000000028
 49
12.6999999999999993
 74
0
 49
-6.3499999999999996
 74
0
 49
12.6999999999999993
 74
0
 49
-6.3499999999999996
 74
0
 49
0.0
 74
0
 49
-6.3499999999999996
 74
0
  0
LTYPE
  5
38
100
AcDbSymbolTableRecord
100
AcDbLinetypeTableRecord
  2
DASHDOTX2
 70
0
  3
Dash dot (2x) ____  .  ____  .  ____  .  ___
 72
65
 73
4
 40
50.7999999999999972
 49
25.3999999999999986
 74
0
 49
-12.6999999999999993
 74
0
 49
0.0
 74
0
 49
-12.6999999999999993
 74
0
  0
LTYPE
  5
39
100
AcDbSymbolTableRecord
100
AcDbLinetypeTableRecord
  2
CENTERX2
 70
0
  3
Center (2x) ________  __  ________  __  _____
 72
65
 73
4
 40
101.5999999999999943
 49
63.5
 74
0
 49
-12.6999999999999993
 74
0
 49
12.6999999999999993
 74
0
 49
-12.6999999999999993
 74
0
  0
LTYPE
  5
3A
100
AcDbSymbolTableRecord
100
AcDbLinetypeTableRecord
  2
BORDER2
 70
0
  3
Border (.5x) __.__.__.__.__.__.__.__.__.__.__.
 72
65
 73
6
 40
22.2250000000000014
 49
6.3499999999999996
 74
0
 49
-3.1749999999999998
 74
0
 49
6.3499999999999996
 74
0
 49
-3.1749999999999998
 74
0
 49
0.0
 74
0
 49
-3.1749999999999998
 74
0
  0
LTYPE
  5
3B
100
AcDbSymbolTableRecord
100
AcDbLinetypeTableRecord
  2
BORDERX2
 70
0
  3
Border (2x) ____  ____  .  ____  ____  .  ___
 72
65
 73
6
 40
88.9000000000000057
 49
25.3999999999999986
 74
0
 49
-12.6999999999999993
 74
0
 49
25.3999999999999986
 74
0
 49
-12.6999999999999993
 74
0
 49
0.0
 74
0
 49
-12.6999999999999993
 74
0
  0
LTYPE
  5
16
100
AcDbSymbolTableRecord
100
AcDbLinetypeTableRecord
  2
CONTINUOUS
 70
0
  3
Solid line
 72
65
 73
0
 40
0.0
  0
LTYPE
  5
14
100
AcDbSymbolTableRecord
100
AcDbLinetypeTableRecord
  2
BYBLOCK
 70
0
  3

 72
65
 73
0
 40
0.0
  0
LTYPE
  5
15
100
AcDbSymbolTableRecord
100
AcDbLinetypeTableRecord
  2
BYLAYER
 70
0
  3

 72
65
 73
0
 40
0.0
  0
LTYPE
  5
3C
100
AcDbSymbolTableRecord
100
AcDbLinetypeTableRecord
  2
DASHED2
 70
0
  3
Dashed (.5x) _ _ _ _ _ _ _ _ _ _ _ _ _ _ _ _ _
 72
65
 73
2
 40
9.5250000000000004
 49
6.3499999999999996
 74
0
 49
-3.1749999999999998
 74
0
  0
LTYPE
  5
3D
100
AcDbSymbolTableRecord
100
AcDbLinetypeTableRecord
  2
CENTER
 70
0
  3
Center ____ _ ____ _ ____ _ ____ _ ____ _ ____
 72
65
 73
4
 40
50.7999999999999972
 49
31.75
 74
0
 49
-6.3499999999999996
 74
0
 49
6.3499999999999996
 74
0
 49
-6.3499999999999996
 74
0
  0
LTYPE
  5
3E
100
AcDbSymbolTableRecord
100
AcDbLinetypeTableRecord
  2
DIVIDE2
 70
0
  3
Divide (.5x) __..__..__..__..__..__..__..__.._
 72
65
 73
6
 40
15.875
 49
6.3499999999999996
 74
0
 49
-3.1749999999999998
 74
0
 49
0.0
 74
0
 49
-3.1749999999999998
 74
0
 49
0.0
 74
0
 49
-3.1749999999999998
 74
0
  0
LTYPE
  5
3F
100
AcDbSymbolTableRecord
100
AcDbLinetypeTableRecord
  2
DASHED
 70
0
  3
Dashed __ __ __ __ __ __ __ __ __ __ __ __ __ _
 72
65
 73
2
 40
19.0500000000000007
 49
12.6999999999999993
 74
0
 49
-6.3499999999999996
 74
0
  0
LTYPE
  5
40
100
AcDbSymbolTableRecord
100
AcDbLinetypeTableRecord
  2
DOTX2
 70
0
  3
Dot (2x) .  .  .  .  .  .  .  .  .  .  .  .  .
 72
65
 73
2
 40
12.6999999999999993
 49
0.0
 74
0
 49
-12.6999999999999993
 74
0
  0
LTYPE
  5
41
100
AcDbSymbolTableRecord
100
AcDbLinetypeTableRecord
  2
DASHEDX2
 70
0
  3
Dashed (2x) ____  ____  ____  ____  ____  ___
 72
65
 73
2
 40
38.1000000000000014
 49
25.3999999999999986
 74
0
 49
-12.6999999999999993
 74
0
  0
LTYPE
  5
42
100
AcDbSymbolTableRecord
100
AcDbLinetypeTableRecord
  2
DOT
 70
0
  3
Dot . . . . . . . . . . . . . . . . . . . . . .
 72
65
 73
2
 40
6.3499999999999996
 49
0.0
 74
0
 49
-6.3499999999999996
 74
0
  0
ENDTAB
  0
TABLE
  2
LAYER
  5
2
100
AcDbSymbolTable
 70
2
  0
LAYER
  5
43
100
AcDbSymbolTableRecord
100
AcDbLayerTableRecord
  2
PCB
 70
0
 62
5
420
255
  6
CONTINUOUS
370
0
390
F
  0
LAYER
  5
10
100
AcDbSymbolTableRecord
100
AcDbLayerTableRecord
  2
0
 70
0
 62
7
420
16777215
  6
CONTINUOUS
390
F
  0
ENDTAB
  0
TABLE
  2
STYLE
  5
3
100
AcDbSymbolTable
 70
0
  0
ENDTAB
  0
TABLE
  2
VIEW
  5
6
100
AcDbSymbolTable
 70
0
  0
ENDTAB
  0
TABLE
  2
UCS
  5
7
100
AcDbSymbolTable
 70
0
  0
ENDTAB
  0
TABLE
  2
APPID
  5
9
100
AcDbSymbolTable
 70
1
  0
APPID
  5
44
100
AcDbSymbolTableRecord
100
AcDbRegAppTableRecord
  2
QCAD
 70
0
  0
ENDTAB
  0
TABLE
  2
DIMSTYLE
  5
A
100
AcDbSymbolTable
 70
1
100
AcDbDimStyleTable
 71
0
  0
DIMSTYLE
105
27
100
AcDbSymbolTableRecord
100
AcDbDimStyleTableRecord
  2
Standard
 41
2.5
 42
0.625
 43
3.75
 44
1.25
 70
0
 73
0
 74
0
 77
1
 78
8
140
2.5
141
2.5
143
0.03937007874016
147
0.625
171
3
172
1
271
2
272
2
274
3
278
44
283
0
284
8
340
11
  0
ENDTAB
  0
TABLE
  2
BLOCK_RECORD
  5
1
100
AcDbSymbolTable
 70
1
  0
BLOCK_RECORD
  5
1F
100
AcDbSymbolTableRecord
100
AcDbBlockTableRecord
  2
*Model_Space
340
22
  0
BLOCK_RECORD
  5
1B
100
AcDbSymbolTableRecord
100
AcDbBlockTableRecord
  2
*Paper_Space
340
1E
  0
BLOCK_RECORD
  5
23
100
AcDbSymbolTableRecord
100
AcDbBlockTableRecord
  2
*Paper_Space0
340
26
  0
BLOCK_RECORD
  5
45
100
AcDbSymbolTableRecord
100
AcDbBlockTableRecord
  2
*MODEL_SPACE
340
0
  0
ENDTAB
  0
ENDSEC
  0
SECTION
  2
BLOCKS
  0
BLOCK
  5
20
100
AcDbEntity
  8
0
100
AcDbBlockBegin
  2
*MODEL_SPACE
 70
0
 10
0.0
 20
0.0
 30
0.0
  3
*MODEL_SPACE
  1

  0
ENDSEC
  0
SECTION
  2
ENTITIES
  0
LINE
  5
46
100
AcDbEntity
100
AcDbLine
  8
PCB
 62
256
370
-1
  6
BYLAYER
 10
0.0
 20
0.0
 30
0.0
 11
80.0013917492199198
 21
0.0
 31
0.0
  0
LINE
  5
47
100
AcDbEntity
100
AcDbLine
  8
PCB
 62
256
370
-1
  6
BYLAYER
 10
-0.0025400492681342
 20
-30.0030619552256326
 30
0.0
 11
-0.0025400492681342
 21
0.0
 31
0.0
  0
LINE
  5
48
100
AcDbEntity
100
AcDbLine
  8
PCB
 62
256
370
-1
  6
BYLAYER
 10
79.9988516999519561
 20
-30.0030619552256326
 30
0.0
 11
79.9988516999519561
 21
0.0
 31
0.0
  0
LINE
  5
49
100
AcDbEntity
100
AcDbLine
  8
PCB
 62
256
370
-1
  6
BYLAYER
 10
-0.0025400492681342
 20
-30.0030619552256326
 30
0.0
 11
79.9988516999519561
 21
-30.0030619552256326
 31
0.0
  0
LINE
  5
4A
100
AcDbEntity
100
AcDbLine
  8
PCB
 62
256
370
-1
  6
BYLAYER
 10
63.0821235741643704
 20
-5.5017467147831098
 30
0.0
 11
63.0821235741643704
 21
-3.5205082856368506
 31
0.0
  0
LINE
  5
4B
100
AcDbEntity
100
AcDbLine
  8
PCB
 62
256
370
-1
  6
BYLAYER
 10
63.0821235741643704
 20
-3.5205082856368506
 30
0.0
 11
64.5553521496833582
 21
-3.5205082856368506
 31
0.0
  0
LINE
  5
4C
100
AcDbEntity
100
AcDbLine
  8
PCB
 62
256
370
-1
  6
BYLAYER
 10
64.5553521496833582
 20
-3.5205082856368506
 30
0.0
 11
64.5553521496833582
 21
-5.5017467147831098
 31
0.0
  0
LINE
  5
4D
100
AcDbEntity
100
AcDbLine
  8
PCB
 62
256
370
-1
  6
BYLAYER
 10
64.5553521496833582
 20
-5.5017467147831098
 30
0.0
 11
63.0821235741643704
 21
-5.5017467147831098
 31
0.0
  0
LINE
  5
4E
100
AcDbEntity
100
AcDbLine
  8
PCB
 62
256
370
-1
  6
BYLAYER
 10
66.384187622741365
 20
-5.5017467147831098
 30
0.0
 11
66.384187622741365
 21
-3.5205082856368506
 31
0.0
  0
LINE
  5
4F
100
AcDbEntity
100
AcDbLine
  8
PCB
 62
256
370
-1
  6
BYLAYER
 10
66.384187622741365
 20
-3.5205082856368506
 30
0.0
 11
67.8574161982605801
 21
-3.5205082856368506
 31
0.0
  0
LINE
  5
50
100
AcDbEntity
100
AcDbLine
  8
PCB
 62
256
370
-1
  6
BYLAYER
 10
67.8574161982605801
 20
-3.5205082856368506
 30
0.0
 11
67.8574161982605801
 21
-5.5017467147831098
 31
0.0
  0
LINE
  5
51
100
AcDbEntity
100
AcDbLine
  8
PCB
 62
256
370
-1
  6
BYLAYER
 10
67.8574161982605801
 20
-5.5017467147831098
 30
0.0
 11
66.384187622741365
 21
-5.5017467147831098
 31
0.0
  0
LINE
  5
52
100
AcDbEntity
100
AcDbLine
  8
PCB
 62
256
370
-1
  6
BYLAYER
 10
43.3332405144046788
 20
-4.0920193709674777
 30
0.0
 11
44.4254616997034191
 21
-4.0920193709674777
 31
0.0
  0
LINE
  5
53
100
AcDbEntity
100
AcDbLine
  8
PCB
 62
256
370
-1
  6
BYLAYER
 10
44.4254616997034191
 20
-4.0920193709674777
 30
0.0
 11
44.4254616997034191
 21
-4.6762307026388896
 31
0.0
  0
LINE
  5
54
100
AcDbEntity
100
AcDbLine
  8
PCB
 62
256
370
-1
  6
BYLAYER
 10
44.4254616997034191
 20
-4.6762307026388896
 30
0.0
 11
43.3332405144046788
 21
-4.6762307026388896
 31
0.0
  0
LINE
  5
55
100
AcDbEntity
100
AcDbLine
  8
PCB
 62
256
370
-1
  6
BYLAYER
 10
43.3332405144046788
 20
-4.6762307026388896
 30
0.0
 11
43.3332405144046788
 21
-4.0920193709674777
 31
0.0
  0
LINE
  5
56
100
AcDbEntity
100
AcDbLine
  8
PCB
 62
256
370
-1
  6
BYLAYER
 10
43.3332405144046788
 20
-5.6160489318492921
 30
0.0
 11
44.4254616997034191
 21
-5.6160489318492921
 31
0.0
  0
LINE
  5
57
100
AcDbEntity
100
AcDbLine
  8
PCB
 62
256
370
-1
  6
BYLAYER
 10
44.4254616997034191
 20
-5.6160489318492921
 30
0.0
 11
44.4254616997034191
 21
-6.2002602635205903
 31
0.0
  0
LINE
  5
58
100
AcDbEntity
100
AcDbLine
  8
PCB
 62
256
370
-1
  6
BYLAYER
 10
44.4254616997034191
 20
-6.2002602635205903
 30
0.0
 11
43.3332405144046788
 21
-6.2002602635205903
 31
0.0
  0
LINE
  5
59
100
AcDbEntity
100
AcDbLine
  8
PCB
 62
256
370
-1
  6
BYLAYER
 10
43.3332405144046788
 20
-6.2002602635205903
 30
0.0
 11
43.3332405144046788
 21
-5.6160489318492921
 31
0.0
  0
LINE
  5
5A
100
AcDbEntity
100
AcDbLine
  8
PCB
 62
256
370
-1
  6
BYLAYER
 10
45.1112750021002284
 20
-3.774513212450529
 30
0.0
 11
46.4575011142123913
 21
-3.774513212450529
 31
0.0
  0
LINE
  5
5B
100
AcDbEntity
100
AcDbLine
  8
PCB
 62
256
370
-1
  6
BYLAYER
 10
46.4575011142123913
 20
-3.774513212450529
 30
0.0
 11
46.4575011142123913
 21
-4.612729470935534
 31
0.0
  0
LINE
  5
5C
100
AcDbEntity
100
AcDbLine
  8
PCB
 62
256
370
-1
  6
BYLAYER
 10
46.4575011142123913
 20
-4.612729470935534
 30
0.0
 11
45.1112750021002284
 21
-4.612729470935534
 31
0.0
  0
LINE
  5
5D
100
AcDbEntity
100
AcDbLine
  8
PCB
 62
256
370
-1
  6
BYLAYER
 10
45.1112750021002284
 20
-4.612729470935534
 30
0.0
 11
45.1112750021002284
 21
-3.774513212450529
 31
0.0
  0
LINE
  5
5E
100
AcDbEntity
100
AcDbLine
  8
PCB
 62
256
370
-1
  6
BYLAYER
 10
45.1112750021002284
 20
-5.6795501635526762
 30
0.0
 11
46.4575011142123913
 21
-5.6795501635526762
 31
0.0
  0
LINE
  5
5F
100
AcDbEntity
100
AcDbLine
  8
PCB
 62
256
370
-1
  6
BYLAYER
 10
46.4575011142123913
 20
-5.6795501635526762
 30
0.0
 11
46.4575011142123913
 21
-6.5177664220376528
 31
0.0
  0
LINE
  5
60
100
AcDbEntity
100
AcDbLine
  8
PCB
 62
256
370
-1
  6
BYLAYER
 10
46.4575011142123913
 20
-6.5177664220376528
 30
0.0
 11
45.1112750021002284
 21
-6.5177664220376528
 31
0.0
  0
LINE
  5
61
100
AcDbEntity
100
AcDbLine
  8
PCB
 62
256
370
-1
  6
BYLAYER
 10
45.1112750021002284
 20
-6.5177664220376528
 30
0.0
 11
45.1112750021002284
 21
-5.6795501635526762
 31
0.0
  0
LINE
  5
62
100
AcDbEntity
100
AcDbLine
  8
PCB
 62
256
370
-1
  6
BYLAYER
 10
41.3647023315991191
 20
-5.4255452367390831
 30
0.0
 11
42.5839259803046843
 21
-5.4255452367390831
 31
0.0
  0
LINE
  5
63
100
AcDbEntity
100
AcDbLine
  8
PCB
 62
256
370
-1
  6
BYLAYER
 10
42.5839259803046843
 20
-5.4255452367390831
 30
0.0
 11
42.5839259803046843
 21
-6.1367590318172347
 31
0.0
  0
LINE
  5
64
100
AcDbEntity
100
AcDbLine
  8
PCB
 62
256
370
-1
  6
BYLAYER
 10
42.5839259803046843
 20
-6.1367590318172347
 30
0.0
 11
41.3647023315991191
 21
-6.1367590318172347
 31
0.0
  0
LINE
  5
65
100
AcDbEntity
100
AcDbLine
  8
PCB
 62
256
370
-1
  6
BYLAYER
 10
41.3647023315991191
 20
-6.1367590318172347
 30
0.0
 11
41.3647023315991191
 21
-5.4255452367390831
 31
0.0
  0
LINE
  5
66
100
AcDbEntity
100
AcDbLine
  8
PCB
 62
256
370
-1
  6
BYLAYER
 10
41.3647023315991191
 20
-6.6955698708072191
 30
0.0
 11
42.5839259803046843
 21
-6.6955698708072191
 31
0.0
  0
LINE
  5
67
100
AcDbEntity
100
AcDbLine
  8
PCB
 62
256
370
-1
  6
BYLAYER
 10
42.5839259803046843
 20
-6.6955698708072191
 30
0.0
 11
42.5839259803046843
 21
-7.4067836658853423
 31
0.0
  0
LINE
  5
68
100
AcDbEntity
100
AcDbLine
  8
PCB
 62
256
370
-1
  6
BYLAYER
 10
42.5839259803046843
 20
-7.4067836658853423
 30
0.0
 11
41.3647023315991191
 21
-7.4067836658853423
 31
0.0
  0
LINE
  5
69
100
AcDbEntity
100
AcDbLine
  8
PCB
 62
256
370
-1
  6
BYLAYER
 10
41.3647023315991191
 20
-7.4067836658853423
 30
0.0
 11
41.3647023315991191
 21
-6.6955698708072191
 31
0.0
  0
LINE
  5
6A
100
AcDbEntity
100
AcDbLine
  8
PCB
 62
256
370
-1
  6
BYLAYER
 10
41.3647023315991191
 20
-7.9655945048753551
 30
0.0
 11
42.5839259803046843
 21
-7.9655945048753551
 31
0.0
  0
LINE
  5
6B
100
AcDbEntity
100
AcDbLine
  8
PCB
 62
256
370
-1
  6
BYLAYER
 10
42.5839259803046843
 20
-7.9655945048753551
 30
0.0
 11
42.5839259803046843
 21
-8.6768082999534784
 31
0.0
  0
LINE
  5
6C
100
AcDbEntity
100
AcDbLine
  8
PCB
 62
256
370
-1
  6
BYLAYER
 10
42.5839259803046843
 20
-8.6768082999534784
 30
0.0
 11
41.3647023315991191
 21
-8.6768082999534784
 31
0.0
  0
LINE
  5
6D
100
AcDbEntity
100
AcDbLine
  8
PCB
 62
256
370
-1
  6
BYLAYER
 10
41.3647023315991191
 20
-8.6768082999534784
 30
0.0
 11
41.3647023315991191
 21
-7.9655945048753551
 31
0.0
  0
LINE
  5
6E
100
AcDbEntity
100
AcDbLine
  8
PCB
 62
256
370
-1
  6
BYLAYER
 10
41.3647023315991191
 20
-9.2356191389434628
 30
0.0
 11
42.5839259803046843
 21
-9.2356191389434628
 31
0.0
  0
LINE
  5
6F
100
AcDbEntity
100
AcDbLine
  8
PCB
 62
256
370
-1
  6
BYLAYER
 10
42.5839259803046843
 20
-9.2356191389434628
 30
0.0
 11
42.5839259803046843
 21
-9.9468329340216144
 31
0.0
  0
LINE
  5
70
100
AcDbEntity
100
AcDbLine
  8
PCB
 62
256
370
-1
  6
BYLAYER
 10
42.5839259803046843
 20
-9.9468329340216144
 30
0.0
 11
41.3647023315991191
 21
-9.9468329340216144
 31
0.0
  0
LINE
  5
71
100
AcDbEntity
100
AcDbLine
  8
PCB
 62
256
370
-1
  6
BYLAYER
 10
41.3647023315991191
 20
-9.9468329340216144
 30
0.0
 11
41.3647023315991191
 21
-9.2356191389434628
 31
0.0
  0
LINE
  5
72
100
AcDbEntity
100
AcDbLine
  8
PCB
 62
256
370
-1
  6
BYLAYER
 10
35.0145791612585526
 20
-9.2356191389434628
 30
0.0
 11
36.2338028099638905
 21
-9.2356191389434628
 31
0.0
  0
LINE
  5
73
100
AcDbEntity
100
AcDbLine
  8
PCB
 62
256
370
-1
  6
BYLAYER
 10
36.2338028099638905
 20
-9.2356191389434628
 30
0.0
 11
36.2338028099638905
 21
-9.9468329340216144
 31
0.0
  0
LINE
  5
74
100
AcDbEntity
100
AcDbLine
  8
PCB
 62
256
370
-1
  6
BYLAYER
 10
36.2338028099638905
 20
-9.9468329340216144
 30
0.0
 11
35.0145791612585526
 21
-9.9468329340216144
 31
0.0
  0
LINE
  5
75
100
AcDbEntity
100
AcDbLine
  8
PCB
 62
256
370
-1
  6
BYLAYER
 10
35.0145791612585526
 20
-9.9468329340216144
 30
0.0
 11
35.0145791612585526
 21
-9.2356191389434628
 31
0.0
  0
LINE
  5
76
100
AcDbEntity
100
AcDbLine
  8
PCB
 62
256
370
-1
  6
BYLAYER
 10
35.0145791612585526
 20
-7.9655945048753551
 30
0.0
 11
36.2338028099638905
 21
-7.9655945048753551
 31
0.0
  0
LINE
  5
77
100
AcDbEntity
100
AcDbLine
  8
PCB
 62
256
370
-1
  6
BYLAYER
 10
36.2338028099638905
 20
-7.9655945048753551
 30
0.0
 11
36.2338028099638905
 21
-8.6768082999534784
 31
0.0
  0
LINE
  5
78
100
AcDbEntity
100
AcDbLine
  8
PCB
 62
256
370
-1
  6
BYLAYER
 10
36.2338028099638905
 20
-8.6768082999534784
 30
0.0
 11
35.0145791612585526
 21
-8.6768082999534784
 31
0.0
  0
LINE
  5
79
100
AcDbEntity
100
AcDbLine
  8
PCB
 62
256
370
-1
  6
BYLAYER
 10
35.0145791612585526
 20
-8.6768082999534784
 30
0.0
 11
35.0145791612585526
 21
-7.9655945048753551
 31
0.0
  0
LINE
  5
7A
100
AcDbEntity
100
AcDbLine
  8
PCB
 62
256
370
-1
  6
BYLAYER
 10
35.0145791612585526
 20
-6.6955698708072191
 30
0.0
 11
36.2338028099638905
 21
-6.6955698708072191
 31
0.0
  0
LINE
  5
7B
100
AcDbEntity
100
AcDbLine
  8
PCB
 62
256
370
-1
  6
BYLAYER
 10
36.2338028099638905
 20
-6.6955698708072191
 30
0.0
 11
36.2338028099638905
 21
-7.4067836658853423
 31
0.0
  0
LINE
  5
7C
100
AcDbEntity
100
AcDbLine
  8
PCB
 62
256
370
-1
  6
BYLAYER
 10
36.2338028099638905
 20
-7.4067836658853423
 30
0.0
 11
35.0145791612585526
 21
-7.4067836658853423
 31
0.0
  0
LINE
  5
7D
100
AcDbEntity
100
AcDbLine
  8
PCB
 62
256
370
-1
  6
BYLAYER
 10
35.0145791612585526
 20
-7.4067836658853423
 30
0.0
 11
35.0145791612585526
 21
-6.6955698708072191
 31
0.0
  0
LINE
  5
7E
100
AcDbEntity
100
AcDbLine
  8
PCB
 62
256
370
-1
  6
BYLAYER
 10
35.0145791612585526
 20
-5.4255452367390831
 30
0.0
 11
36.2338028099638905
 21
-5.4255452367390831
 31
0.0
  0
LINE
  5
7F
100
AcDbEntity
100
AcDbLine
  8
PCB
 62
256
370
-1
  6
BYLAYER
 10
36.2338028099638905
 20
-5.4255452367390831
 30
0.0
 11
36.2338028099638905
 21
-6.1367590318172347
 31
0.0
  0
LINE
  5
80
100
AcDbEntity
100
AcDbLine
  8
PCB
 62
256
370
-1
  6
BYLAYER
 10
36.2338028099638905
 20
-6.1367590318172347
 30
0.0
 11
35.0145791612585526
 21
-6.1367590318172347
 31
0.0
  0
LINE
  5
81
100
AcDbEntity
100
AcDbLine
  8
PCB
 62
256
370
-1
  6
BYLAYER
 10
35.0145791612585526
 20
-6.1367590318172347
 30
0.0
 11
35.0145791612585526
 21
-5.4255452367390831
 31
0.0
  0
LINE
  5
82
100
AcDbEntity
100
AcDbLine
  8
PCB
 62
256
370
-1
  6
BYLAYER
 10
28.9311611640721367
 20
-18.1359517744930088
 30
0.0
 11
27.7119375153667988
 21
-18.1359517744930088
 31
0.0
  0
LINE
  5
83
100
AcDbEntity
100
AcDbLine
  8
PCB
 62
256
370
-1
  6
BYLAYER
 10
27.7119375153667988
 20
-18.1359517744930088
 30
0.0
 11
27.7119375153667988
 21
-17.4247379794147719
 31
0.0
  0
LINE
  5
84
100
AcDbEntity
100
AcDbLine
  8
PCB
 62
256
370
-1
  6
BYLAYER
 10
27.7119375153667988
 20
-17.4247379794147719
 30
0.0
 11
28.9311611640721367
 21
-17.4247379794147719
 31
0.0
  0
LINE
  5
85
100
AcDbEntity
100
AcDbLine
  8
PCB
 62
256
370
-1
  6
BYLAYER
 10
28.9311611640721367
 20
-17.4247379794147719
 30
0.0
 11
28.9311611640721367
 21
-18.1359517744930088
 31
0.0
  0
LINE
  5
86
100
AcDbEntity
100
AcDbLine
  8
PCB
 62
256
370
-1
  6
BYLAYER
 10
28.9311611640721367
 20
-16.8659271404249012
 30
0.0
 11
27.7119375153667988
 21
-16.8659271404249012
 31
0.0
  0
LINE
  5
87
100
AcDbEntity
100
AcDbLine
  8
PCB
 62
256
370
-1
  6
BYLAYER
 10
27.7119375153667988
 20
-16.8659271404249012
 30
0.0
 11
27.7119375153667988
 21
-16.1547133453466358
 31
0.0
  0
LINE
  5
88
100
AcDbEntity
100
AcDbLine
  8
PCB
 62
256
370
-1
  6
BYLAYER
 10
27.7119375153667988
 20
-16.1547133453466358
 30
0.0
 11
28.9311611640721367
 21
-16.1547133453466358
 31
0.0
  0
LINE
  5
89
100
AcDbEntity
100
AcDbLine
  8
PCB
 62
256
370
-1
  6
BYLAYER
 10
28.9311611640721367
 20
-16.1547133453466358
 30
0.0
 11
28.9311611640721367
 21
-16.8659271404249012
 31
0.0
  0
LINE
  5
8A
100
AcDbEntity
100
AcDbLine
  8
PCB
 62
256
370
-1
  6
BYLAYER
 10
28.9311611640721367
 20
-15.5959025063566514
 30
0.0
 11
27.7119375153667988
 21
-15.5959025063566514
 31
0.0
  0
LINE
  5
8B
100
AcDbEntity
100
AcDbLine
  8
PCB
 62
256
370
-1
  6
BYLAYER
 10
27.7119375153667988
 20
-15.5959025063566514
 30
0.0
 11
27.7119375153667988
 21
-14.8846887112784998
 31
0.0
  0
LINE
  5
8C
100
AcDbEntity
100
AcDbLine
  8
PCB
 62
256
370
-1
  6
BYLAYER
 10
27.7119375153667988
 20
-14.8846887112784998
 30
0.0
 11
28.9311611640721367
 21
-14.8846887112784998
 31
0.0
  0
LINE
  5
8D
100
AcDbEntity
100
AcDbLine
  8
PCB
 62
256
370
-1
  6
BYLAYER
 10
28.9311611640721367
 20
-14.8846887112784998
 30
0.0
 11
28.9311611640721367
 21
-15.5959025063566514
 31
0.0
  0
LINE
  5
8E
100
AcDbEntity
100
AcDbLine
  8
PCB
 62
256
370
-1
  6
BYLAYER
 10
28.9311611640721367
 20
-14.3258778722885154
 30
0.0
 11
27.7119375153667988
 21
-14.3258778722885154
 31
0.0
  0
LINE
  5
8F
100
AcDbEntity
100
AcDbLine
  8
PCB
 62
256
370
-1
  6
BYLAYER
 10
27.7119375153667988
 20
-14.3258778722885154
 30
0.0
 11
27.7119375153667988
 21
-13.6146640772103922
 31
0.0
  0
LINE
  5
90
100
AcDbEntity
100
AcDbLine
  8
PCB
 62
256
370
-1
  6
BYLAYER
 10
27.7119375153667988
 20
-13.6146640772103922
 30
0.0
 11
28.9311611640721367
 21
-13.6146640772103922
 31
0.0
  0
LINE
  5
91
100
AcDbEntity
100
AcDbLine
  8
PCB
 62
256
370
-1
  6
BYLAYER
 10
28.9311611640721367
 20
-13.6146640772103922
 30
0.0
 11
28.9311611640721367
 21
-14.3258778722885154
 31
0.0
  0
LINE
  5
92
100
AcDbEntity
100
AcDbLine
  8
PCB
 62
256
370
-1
  6
BYLAYER
 10
28.9311611640721367
 20
-13.0558532382203794
 30
0.0
 11
27.7119375153667988
 21
-13.0558532382203794
 31
0.0
  0
LINE
  5
93
100
AcDbEntity
100
AcDbLine
  8
PCB
 62
256
370
-1
  6
BYLAYER
 10
27.7119375153667988
 20
-13.0558532382203794
 30
0.0
 11
27.7119375153667988
 21
-12.3446394431422561
 31
0.0
  0
LINE
  5
94
100
AcDbEntity
100
AcDbLine
  8
PCB
 62
256
370
-1
  6
BYLAYER
 10
27.7119375153667988
 20
-12.3446394431422561
 30
0.0
 11
28.9311611640721367
 21
-12.3446394431422561
 31
0.0
  0
LINE
  5
95
100
AcDbEntity
100
AcDbLine
  8
PCB
 62
256
370
-1
  6
BYLAYER
 10
28.9311611640721367
 20
-12.3446394431422561
 30
0.0
 11
28.9311611640721367
 21
-13.0558532382203794
 31
0.0
  0
LINE
  5
96
100
AcDbEntity
100
AcDbLine
  8
PCB
 62
256
370
-1
  6
BYLAYER
 10
28.9311611640721367
 20
-11.7858286041522717
 30
0.0
 11
27.7119375153667988
 21
-11.7858286041522717
 31
0.0
  0
LINE
  5
97
100
AcDbEntity
100
AcDbLine
  8
PCB
 62
256
370
-1
  6
BYLAYER
 10
27.7119375153667988
 20
-11.7858286041522717
 30
0.0
 11
27.7119375153667988
 21
-11.0746148090741201
 31
0.0
  0
LINE
  5
98
100
AcDbEntity
100
AcDbLine
  8
PCB
 62
256
370
-1
  6
BYLAYER
 10
27.7119375153667988
 20
-11.0746148090741201
 30
0.0
 11
28.9311611640721367
 21
-11.0746148090741201
 31
0.0
  0
LINE
  5
99
100
AcDbEntity
100
AcDbLine
  8
PCB
 62
256
370
-1
  6
BYLAYER
 10
28.9311611640721367
 20
-11.0746148090741201
 30
0.0
 11
28.9311611640721367
 21
-11.7858286041522717
 31
0.0
  0
LINE
  5
9A
100
AcDbEntity
100
AcDbLine
  8
PCB
 62
256
370
-1
  6
BYLAYER
 10
28.9311611640721367
 20
-10.5158039700841357
 30
0.0
 11
27.7119375153667988
 21
-10.5158039700841357
 31
0.0
  0
LINE
  5
9B
100
AcDbEntity
100
AcDbLine
  8
PCB
 62
256
370
-1
  6
BYLAYER
 10
27.7119375153667988
 20
-10.5158039700841357
 30
0.0
 11
27.7119375153667988
 21
-9.8045901750060125
 31
0.0
  0
LINE
  5
9C
100
AcDbEntity
100
AcDbLine
  8
PCB
 62
256
370
-1
  6
BYLAYER
 10
27.7119375153667988
 20
-9.8045901750060125
 30
0.0
 11
28.9311611640721367
 21
-9.8045901750060125
 31
0.0
  0
LINE
  5
9D
100
AcDbEntity
100
AcDbLine
  8
PCB
 62
256
370
-1
  6
BYLAYER
 10
28.9311611640721367
 20
-9.8045901750060125
 30
0.0
 11
28.9311611640721367
 21
-10.5158039700841357
 31
0.0
  0
LINE
  5
9E
100
AcDbEntity
100
AcDbLine
  8
PCB
 62
256
370
-1
  6
BYLAYER
 10
28.9311611640721367
 20
-9.2457793360159997
 30
0.0
 11
27.7119375153667988
 21
-9.2457793360159997
 31
0.0
  0
LINE
  5
9F
100
AcDbEntity
100
AcDbLine
  8
PCB
 62
256
370
-1
  6
BYLAYER
 10
27.7119375153667988
 20
-9.2457793360159997
 30
0.0
 11
27.7119375153667988
 21
-8.5345655409378764
 31
0.0
  0
LINE
  5
A0
100
AcDbEntity
100
AcDbLine
  8
PCB
 62
256
370
-1
  6
BYLAYER
 10
27.7119375153667988
 20
-8.5345655409378764
 30
0.0
 11
28.9311611640721367
 21
-8.5345655409378764
 31
0.0
  0
LINE
  5
A1
100
AcDbEntity
100
AcDbLine
  8
PCB
 62
256
370
-1
  6
BYLAYER
 10
28.9311611640721367
 20
-8.5345655409378764
 30
0.0
 11
28.9311611640721367
 21
-9.2457793360159997
 31
0.0
  0
LINE
  5
A2
100
AcDbEntity
100
AcDbLine
  8
PCB
 62
256
370
-1
  6
BYLAYER
 10
28.9311611640721367
 20
-7.975754701947892
 30
0.0
 11
27.7119375153667988
 21
-7.975754701947892
 31
0.0
  0
LINE
  5
A3
100
AcDbEntity
100
AcDbLine
  8
PCB
 62
256
370
-1
  6
BYLAYER
 10
27.7119375153667988
 20
-7.975754701947892
 30
0.0
 11
27.7119375153667988
 21
-7.2645409068697404
 31
0.0
  0
LINE
  5
A4
100
AcDbEntity
100
AcDbLine
  8
PCB
 62
256
370
-1
  6
BYLAYER
 10
27.7119375153667988
 20
-7.2645409068697404
 30
0.0
 11
28.9311611640721367
 21
-7.2645409068697404
 31
0.0
  0
LINE
  5
A5
100
AcDbEntity
100
AcDbLine
  8
PCB
 62
256
370
-1
  6
BYLAYER
 10
28.9311611640721367
 20
-7.2645409068697404
 30
0.0
 11
28.9311611640721367
 21
-7.975754701947892
 31
0.0
  0
LINE
  5
A6
100
AcDbEntity
100
AcDbLine
  8
PCB
 62
256
370
-1
  6
BYLAYER
 10
28.9311611640721367
 20
-6.705730067879756
 30
0.0
 11
27.7119375153667988
 21
-6.705730067879756
 31
0.0
  0
LINE
  5
A7
100
AcDbEntity
100
AcDbLine
  8
PCB
 62
256
370
-1
  6
BYLAYER
 10
27.7119375153667988
 20
-6.705730067879756
 30
0.0
 11
27.7119375153667988
 21
-5.9945162728016328
 31
0.0
  0
LINE
  5
A8
100
AcDbEntity
100
AcDbLine
  8
PCB
 62
256
370
-1
  6
BYLAYER
 10
27.7119375153667988
 20
-5.9945162728016328
 30
0.0
 11
28.9311611640721367
 21
-5.9945162728016328
 31
0.0
  0
LINE
  5
A9
100
AcDbEntity
100
AcDbLine
  8
PCB
 62
256
370
-1
  6
BYLAYER
 10
28.9311611640721367
 20
-5.9945162728016328
 30
0.0
 11
28.9311611640721367
 21
-6.705730067879756
 31
0.0
  0
LINE
  5
AA
100
AcDbEntity
100
AcDbLine
  8
PCB
 62
256
370
-1
  6
BYLAYER
 10
28.9311611640721367
 20
-5.4357054338116484
 30
0.0
 11
27.7119375153667988
 21
-5.4357054338116484
 31
0.0
  0
LINE
  5
AB
100
AcDbEntity
100
AcDbLine
  8
PCB
 62
256
370
-1
  6
BYLAYER
 10
27.7119375153667988
 20
-5.4357054338116484
 30
0.0
 11
27.7119375153667988
 21
-4.7244916387334968
 31
0.0
  0
LINE
  5
AC
100
AcDbEntity
100
AcDbLine
  8
PCB
 62
256
370
-1
  6
BYLAYER
 10
27.7119375153667988
 20
-4.7244916387334968
 30
0.0
 11
28.9311611640721367
 21
-4.7244916387334968
 31
0.0
  0
LINE
  5
AD
100
AcDbEntity
100
AcDbLine
  8
PCB
 62
256
370
-1
  6
BYLAYER
 10
28.9311611640721367
 20
-4.7244916387334968
 30
0.0
 11
28.9311611640721367
 21
-5.4357054338116484
 31
0.0
  0
LINE
  5
AE
100
AcDbEntity
100
AcDbLine
  8
PCB
 62
256
370
-1
  6
BYLAYER
 10
28.9311611640721367
 20
-4.1656807997435124
 30
0.0
 11
27.7119375153667988
 21
-4.1656807997435124
 31
0.0
  0
LINE
  5
AF
100
AcDbEntity
100
AcDbLine
  8
PCB
 62
256
370
-1
  6
BYLAYER
 10
27.7119375153667988
 20
-4.1656807997435124
 30
0.0
 11
27.7119375153667988
 21
-3.4544670046653607
 31
0.0
  0
LINE
  5
B0
100
AcDbEntity
100
AcDbLine
  8
PCB
 62
256
370
-1
  6
BYLAYER
 10
27.7119375153667988
 20
-3.4544670046653607
 30
0.0
 11
28.9311611640721367
 21
-3.4544670046653607
 31
0.0
  0
LINE
  5
B1
100
AcDbEntity
100
AcDbLine
  8
PCB
 62
256
370
-1
  6
BYLAYER
 10
28.9311611640721367
 20
-3.4544670046653607
 30
0.0
 11
28.9311611640721367
 21
-4.1656807997435124
 31
0.0
  0
LINE
  5
B2
100
AcDbEntity
100
AcDbLine
  8
PCB
 62
256
370
-1
  6
BYLAYER
 10
19.2789739451543483
 20
-18.1359517744930088
 30
0.0
 11
18.059750296448783
 21
-18.1359517744930088
 31
0.0
  0
LINE
  5
B3
100
AcDbEntity
100
AcDbLine
  8
PCB
 62
256
370
-1
  6
BYLAYER
 10
18.059750296448783
 20
-18.1359517744930088
 30
0.0
 11
18.059750296448783
 21
-17.4247379794147719
 31
0.0
  0
LINE
  5
B4
100
AcDbEntity
100
AcDbLine
  8
PCB
 62
256
370
-1
  6
BYLAYER
 10
18.059750296448783
 20
-17.4247379794147719
 30
0.0
 11
19.2789739451543483
 21
-17.4247379794147719
 31
0.0
  0
LINE
  5
B5
100
AcDbEntity
100
AcDbLine
  8
PCB
 62
256
370
-1
  6
BYLAYER
 10
19.2789739451543483
 20
-17.4247379794147719
 30
0.0
 11
19.2789739451543483
 21
-18.1359517744930088
 31
0.0
  0
LINE
  5
B6
100
AcDbEntity
100
AcDbLine
  8
PCB
 62
256
370
-1
  6
BYLAYER
 10
19.2789739451543483
 20
-16.8659271404249012
 30
0.0
 11
18.059750296448783
 21
-16.8659271404249012
 31
0.0
  0
LINE
  5
B7
100
AcDbEntity
100
AcDbLine
  8
PCB
 62
256
370
-1
  6
BYLAYER
 10
18.059750296448783
 20
-16.8659271404249012
 30
0.0
 11
18.059750296448783
 21
-16.1547133453466358
 31
0.0
  0
LINE
  5
B8
100
AcDbEntity
100
AcDbLine
  8
PCB
 62
256
370
-1
  6
BYLAYER
 10
18.059750296448783
 20
-16.1547133453466358
 30
0.0
 11
19.2789739451543483
 21
-16.1547133453466358
 31
0.0
  0
LINE
  5
B9
100
AcDbEntity
100
AcDbLine
  8
PCB
 62
256
370
-1
  6
BYLAYER
 10
19.2789739451543483
 20
-16.1547133453466358
 30
0.0
 11
19.2789739451543483
 21
-16.8659271404249012
 31
0.0
  0
LINE
  5
BA
100
AcDbEntity
100
AcDbLine
  8
PCB
 62
256
370
-1
  6
BYLAYER
 10
19.2789739451543483
 20
-15.5959025063566514
 30
0.0
 11
18.059750296448783
 21
-15.5959025063566514
 31
0.0
  0
LINE
  5
BB
100
AcDbEntity
100
AcDbLine
  8
PCB
 62
256
370
-1
  6
BYLAYER
 10
18.059750296448783
 20
-15.5959025063566514
 30
0.0
 11
18.059750296448783
 21
-14.8846887112784998
 31
0.0
  0
LINE
  5
BC
100
AcDbEntity
100
AcDbLine
  8
PCB
 62
256
370
-1
  6
BYLAYER
 10
18.059750296448783
 20
-14.8846887112784998
 30
0.0
 11
19.2789739451543483
 21
-14.8846887112784998
 31
0.0
  0
LINE
  5
BD
100
AcDbEntity
100
AcDbLine
  8
PCB
 62
256
370
-1
  6
BYLAYER
 10
19.2789739451543483
 20
-14.8846887112784998
 30
0.0
 11
19.2789739451543483
 21
-15.5959025063566514
 31
0.0
  0
LINE
  5
BE
100
AcDbEntity
100
AcDbLine
  8
PCB
 62
256
370
-1
  6
BYLAYER
 10
19.2789739451543483
 20
-14.3258778722885154
 30
0.0
 11
18.059750296448783
 21
-14.3258778722885154
 31
0.0
  0
LINE
  5
BF
100
AcDbEntity
100
AcDbLine
  8
PCB
 62
256
370
-1
  6
BYLAYER
 10
18.059750296448783
 20
-14.3258778722885154
 30
0.0
 11
18.059750296448783
 21
-13.6146640772103922
 31
0.0
  0
LINE
  5
C0
100
AcDbEntity
100
AcDbLine
  8
PCB
 62
256
370
-1
  6
BYLAYER
 10
18.059750296448783
 20
-13.6146640772103922
 30
0.0
 11
19.2789739451543483
 21
-13.6146640772103922
 31
0.0
  0
LINE
  5
C1
100
AcDbEntity
100
AcDbLine
  8
PCB
 62
256
370
-1
  6
BYLAYER
 10
19.2789739451543483
 20
-13.6146640772103922
 30
0.0
 11
19.2789739451543483
 21
-14.3258778722885154
 31
0.0
  0
LINE
  5
C2
100
AcDbEntity
100
AcDbLine
  8
PCB
 62
256
370
-1
  6
BYLAYER
 10
19.2789739451543483
 20
-13.0558532382203794
 30
0.0
 11
18.059750296448783
 21
-13.0558532382203794
 31
0.0
  0
LINE
  5
C3
100
AcDbEntity
100
AcDbLine
  8
PCB
 62
256
370
-1
  6
BYLAYER
 10
18.059750296448783
 20
-13.0558532382203794
 30
0.0
 11
18.059750296448783
 21
-12.3446394431422561
 31
0.0
  0
LINE
  5
C4
100
AcDbEntity
100
AcDbLine
  8
PCB
 62
256
370
-1
  6
BYLAYER
 10
18.059750296448783
 20
-12.3446394431422561
 30
0.0
 11
19.2789739451543483
 21
-12.3446394431422561
 31
0.0
  0
LINE
  5
C5
100
AcDbEntity
100
AcDbLine
  8
PCB
 62
256
370
-1
  6
BYLAYER
 10
19.2789739451543483
 20
-12.3446394431422561
 30
0.0
 11
19.2789739451543483
 21
-13.0558532382203794
 31
0.0
  0
LINE
  5
C6
100
AcDbEntity
100
AcDbLine
  8
PCB
 62
256
370
-1
  6
BYLAYER
 10
19.2789739451543483
 20
-11.7858286041522717
 30
0.0
 11
18.059750296448783
 21
-11.7858286041522717
 31
0.0
  0
LINE
  5
C7
100
AcDbEntity
100
AcDbLine
  8
PCB
 62
256
370
-1
  6
BYLAYER
 10
18.059750296448783
 20
-11.7858286041522717
 30
0.0
 11
18.059750296448783
 21
-11.0746148090741201
 31
0.0
  0
LINE
  5
C8
100
AcDbEntity
100
AcDbLine
  8
PCB
 62
256
370
-1
  6
BYLAYER
 10
18.059750296448783
 20
-11.0746148090741201
 30
0.0
 11
19.2789739451543483
 21
-11.0746148090741201
 31
0.0
  0
LINE
  5
C9
100
AcDbEntity
100
AcDbLine
  8
PCB
 62
256
370
-1
  6
BYLAYER
 10
19.2789739451543483
 20
-11.0746148090741201
 30
0.0
 11
19.2789739451543483
 21
-11.7858286041522717
 31
0.0
  0
LINE
  5
CA
100
AcDbEntity
100
AcDbLine
  8
PCB
 62
256
370
-1
  6
BYLAYER
 10
19.2789739451543483
 20
-10.5158039700841357
 30
0.0
 11
18.059750296448783
 21
-10.5158039700841357
 31
0.0
  0
LINE
  5
CB
100
AcDbEntity
100
AcDbLine
  8
PCB
 62
256
370
-1
  6
BYLAYER
 10
18.059750296448783
 20
-10.5158039700841357
 30
0.0
 11
18.059750296448783
 21
-9.8045901750060125
 31
0.0
  0
LINE
  5
CC
100
AcDbEntity
100
AcDbLine
  8
PCB
 62
256
370
-1
  6
BYLAYER
 10
18.059750296448783
 20
-9.8045901750060125
 30
0.0
 11
19.2789739451543483
 21
-9.8045901750060125
 31
0.0
  0
LINE
  5
CD
100
AcDbEntity
100
AcDbLine
  8
PCB
 62
256
370
-1
  6
BYLAYER
 10
19.2789739451543483
 20
-9.8045901750060125
 30
0.0
 11
19.2789739451543483
 21
-10.5158039700841357
 31
0.0
  0
LINE
  5
CE
100
AcDbEntity
100
AcDbLine
  8
PCB
 62
256
370
-1
  6
BYLAYER
 10
19.2789739451543483
 20
-9.2457793360159997
 30
0.0
 11
18.059750296448783
 21
-9.2457793360159997
 31
0.0
  0
LINE
  5
CF
100
AcDbEntity
100
AcDbLine
  8
PCB
 62
256
370
-1
  6
BYLAYER
 10
18.059750296448783
 20
-9.2457793360159997
 30
0.0
 11
18.059750296448783
 21
-8.5345655409378764
 31
0.0
  0
LINE
  5
D0
100
AcDbEntity
100
AcDbLine
  8
PCB
 62
256
370
-1
  6
BYLAYER
 10
18.059750296448783
 20
-8.5345655409378764
 30
0.0
 11
19.2789739451543483
 21
-8.5345655409378764
 31
0.0
  0
LINE
  5
D1
100
AcDbEntity
100
AcDbLine
  8
PCB
 62
256
370
-1
  6
BYLAYER
 10
19.2789739451543483
 20
-8.5345655409378764
 30
0.0
 11
19.2789739451543483
 21
-9.2457793360159997
 31
0.0
  0
LINE
  5
D2
100
AcDbEntity
100
AcDbLine
  8
PCB
 62
256
370
-1
  6
BYLAYER
 10
19.2789739451543483
 20
-7.975754701947892
 30
0.0
 11
18.059750296448783
 21
-7.975754701947892
 31
0.0
  0
LINE
  5
D3
100
AcDbEntity
100
AcDbLine
  8
PCB
 62
256
370
-1
  6
BYLAYER
 10
18.059750296448783
 20
-7.975754701947892
 30
0.0
 11
18.059750296448783
 21
-7.2645409068697404
 31
0.0
  0
LINE
  5
D4
100
AcDbEntity
100
AcDbLine
  8
PCB
 62
256
370
-1
  6
BYLAYER
 10
18.059750296448783
 20
-7.2645409068697404
 30
0.0
 11
19.2789739451543483
 21
-7.2645409068697404
 31
0.0
  0
LINE
  5
D5
100
AcDbEntity
100
AcDbLine
  8
PCB
 62
256
370
-1
  6
BYLAYER
 10
19.2789739451543483
 20
-7.2645409068697404
 30
0.0
 11
19.2789739451543483
 21
-7.975754701947892
 31
0.0
  0
LINE
  5
D6
100
AcDbEntity
100
AcDbLine
  8
PCB
 62
256
370
-1
  6
BYLAYER
 10
19.2789739451543483
 20
-6.705730067879756
 30
0.0
 11
18.059750296448783
 21
-6.705730067879756
 31
0.0
  0
LINE
  5
D7
100
AcDbEntity
100
AcDbLine
  8
PCB
 62
256
370
-1
  6
BYLAYER
 10
18.059750296448783
 20
-6.705730067879756
 30
0.0
 11
18.059750296448783
 21
-5.9945162728016328
 31
0.0
  0
LINE
  5
D8
100
AcDbEntity
100
AcDbLine
  8
PCB
 62
256
370
-1
  6
BYLAYER
 10
18.059750296448783
 20
-5.9945162728016328
 30
0.0
 11
19.2789739451543483
 21
-5.9945162728016328
 31
0.0
  0
LINE
  5
D9
100
AcDbEntity
100
AcDbLine
  8
PCB
 62
256
370
-1
  6
BYLAYER
 10
19.2789739451543483
 20
-5.9945162728016328
 30
0.0
 11
19.2789739451543483
 21
-6.705730067879756
 31
0.0
  0
LINE
  5
DA
100
AcDbEntity
100
AcDbLine
  8
PCB
 62
256
370
-1
  6
BYLAYER
 10
19.2789739451543483
 20
-5.4357054338116484
 30
0.0
 11
18.059750296448783
 21
-5.4357054338116484
 31
0.0
  0
LINE
  5
DB
100
AcDbEntity
100
AcDbLine
  8
PCB
 62
256
370
-1
  6
BYLAYER
 10
18.059750296448783
 20
-5.4357054338116484
 30
0.0
 11
18.059750296448783
 21
-4.7244916387334968
 31
0.0
  0
LINE
  5
DC
100
AcDbEntity
100
AcDbLine
  8
PCB
 62
256
370
-1
  6
BYLAYER
 10
18.059750296448783
 20
-4.7244916387334968
 30
0.0
 11
19.2789739451543483
 21
-4.7244916387334968
 31
0.0
  0
LINE
  5
DD
100
AcDbEntity
100
AcDbLine
  8
PCB
 62
256
370
-1
  6
BYLAYER
 10
19.2789739451543483
 20
-4.7244916387334968
 30
0.0
 11
19.2789739451543483
 21
-5.4357054338116484
 31
0.0
  0
LINE
  5
DE
100
AcDbEntity
100
AcDbLine
  8
PCB
 62
256
370
-1
  6
BYLAYER
 10
19.2789739451543483
 20
-4.1656807997435124
 30
0.0
 11
18.059750296448783
 21
-4.1656807997435124
 31
0.0
  0
LINE
  5
DF
100
AcDbEntity
100
AcDbLine
  8
PCB
 62
256
370
-1
  6
BYLAYER
 10
18.059750296448783
 20
-4.1656807997435124
 30
0.0
 11
18.059750296448783
 21
-3.4544670046653607
 31
0.0
  0
LINE
  5
E0
100
AcDbEntity
100
AcDbLine
  8
PCB
 62
256
370
-1
  6
BYLAYER
 10
18.059750296448783
 20
-3.4544670046653607
 30
0.0
 11
19.2789739451543483
 21
-3.4544670046653607
 31
0.0
  0
LINE
  5
E1
100
AcDbEntity
100
AcDbLine
  8
PCB
 62
256
370
-1
  6
BYLAYER
 10
19.2789739451543483
 20
-3.4544670046653607
 30
0.0
 11
19.2789739451543483
 21
-4.1656807997435124
 31
0.0
  0
ARC
  5
E2
100
AcDbEntity
  8
PCB
 62
256
370
-1
  6
BYLAYER
100
AcDbCircle
 10
76.201983498340951
 20
-17.7817921814746853
 30
0.0
 40
0.7255828693402615
100
AcDbArc
 50
270.0000012280333408
 51
359.9999982924526876
  0
ARC
  5
E3
100
AcDbEntity
  8
PCB
 62
256
370
-1
  6
BYLAYER
100
AcDbCircle
 10
76.2019835294440782
 20
-17.7817921814746853
 30
0.0
 40
0.7255828693395915
100
AcDbArc
 50
180.0000012074182791
 51
269.9999987719658634
  0
ARC
  5
E4
100
AcDbEntity
  8
PCB
 62
256
370
-1
  6
BYLAYER
100
AcDbCircle
 10
76.2019835294440782
 20
-17.7817922125790915
 30
0.0
 40
0.7255828693402637
100
AcDbArc
 50
90.0000012280326303
 51
179.9999987925817209
  0
ARC
  5
E5
100
AcDbEntity
  8
PCB
 62
256
370
-1
  6
BYLAYER
100
AcDbCircle
 10
76.201983498340951
 20
-17.7817922125790915
 30
0.0
 40
0.7255828693395731
100
AcDbArc
 50
0.0000012074182697
 51
89.999998771967384
  0
LINE
  5
E6
100
AcDbEntity
100
AcDbLine
  8
PCB
 62
256
370
-1
  6
BYLAYER
 10
76.9275663676805834
 20
-17.781792197026931
 30
0.0
 11
76.9275663676805834
 21
-17.781792197026931
 31
0.0
  0
ARC
  5
E7
100
AcDbEntity
  8
PCB
 62
256
370
-1
  6
BYLAYER
100
AcDbCircle
 10
76.201983498340951
 20
-15.2417429133382996
 30
0.0
 40
0.7255828693402661
100
AcDbArc
 50
270.0000012280348756
 51
359.9999987925817777
  0
ARC
  5
E8
100
AcDbEntity
  8
PCB
 62
256
370
-1
  6
BYLAYER
100
AcDbCircle
 10
76.2019835294440782
 20
-15.2417429133382996
 30
0.0
 40
0.7255828693395915
100
AcDbArc
 50
180.0000012074182791
 51
269.9999987719658634
  0
ARC
  5
E9
100
AcDbEntity
  8
PCB
 62
256
370
-1
  6
BYLAYER
100
AcDbCircle
 10
76.2019835294440782
 20
-15.2417429444428194
 30
0.0
 40
0.7255828693402592
100
AcDbArc
 50
90.0000012280318913
 51
179.9999987925817209
  0
ARC
  5
EA
100
AcDbEntity
  8
PCB
 62
256
370
-1
  6
BYLAYER
100
AcDbCircle
 10
76.201983498340951
 20
-15.2417429444428194
 30
0.0
 40
0.7255828693395731
100
AcDbArc
 50
0.0000012074182697
 51
89.999998771967384
  0
LINE
  5
EB
100
AcDbEntity
100
AcDbLine
  8
PCB
 62
256
370
-1
  6
BYLAYER
 10
76.9275663676805834
 20
-15.2417429288905737
 30
0.0
 11
76.9275663676805834
 21
-15.2417429288905737
 31
0.0
  0
ARC
  5
EC
100
AcDbEntity
  8
PCB
 62
256
370
-1
  6
BYLAYER
100
AcDbCircle
 10
76.201983498340951
 20
-12.7016936452020559
 30
0.0
 40
0.7255828693402661
100
AcDbArc
 50
270.0000012280333408
 51
359.9999982924526876
  0
ARC
  5
ED
100
AcDbEntity
  8
PCB
 62
256
370
-1
  6
BYLAYER
100
AcDbCircle
 10
76.2019835294440782
 20
-12.7016936452020559
 30
0.0
 40
0.7255828693395915
100
AcDbArc
 50
180.0000012074182791
 51
269.9999987719658634
  0
ARC
  5
EE
100
AcDbEntity
  8
PCB
 62
256
370
-1
  6
BYLAYER
100
AcDbCircle
 10
76.2019835294440782
 20
-12.7016936763065758
 30
0.0
 40
0.7255828693402615
100
AcDbArc
 50
90.0000012280326303
 51
179.9999987925817209
  0
ARC
  5
EF
100
AcDbEntity
  8
PCB
 62
256
370
-1
  6
BYLAYER
100
AcDbCircle
 10
76.201983498340951
 20
-12.7016936763065758
 30
0.0
 40
0.7255828693395731
100
AcDbArc
 50
0.0000012074182697
 51
89.999998771967384
  0
LINE
  5
F0
100
AcDbEntity
100
AcDbLine
  8
PCB
 62
256
370
-1
  6
BYLAYER
 10
76.9275663676805834
 20
-12.7016936607543016
 30
0.0
 11
76.9275663676805834
 21
-12.7016936607543016
 31
0.0
  0
ARC
  5
F1
100
AcDbEntity
  8
PCB
 62
256
370
-1
  6
BYLAYER
100
AcDbCircle
 10
76.201983498340951
 20
-10.1616443770657838
 30
0.0
 40
0.7255828693402661
100
AcDbArc
 50
270.0000012280348756
 51
359.9999987925817777
  0
ARC
  5
F2
100
AcDbEntity
  8
PCB
 62
256
370
-1
  6
BYLAYER
100
AcDbCircle
 10
76.2019835294440782
 20
-10.1616443770657838
 30
0.0
 40
0.7255828693395915
100
AcDbArc
 50
180.0000012074182791
 51
269.9999987719658634
  0
ARC
  5
F3
100
AcDbEntity
  8
PCB
 62
256
370
-1
  6
BYLAYER
100
AcDbCircle
 10
76.2019835294440782
 20
-10.1616444081703321
 30
0.0
 40
0.7255828693402615
100
AcDbArc
 50
90.0000012280326303
 51
179.9999987925817209
  0
ARC
  5
F4
100
AcDbEntity
  8
PCB
 62
256
370
-1
  6
BYLAYER
100
AcDbCircle
 10
76.201983498340951
 20
-10.1616444081703321
 30
0.0
 40
0.7255828693395824
100
AcDbArc
 50
0.0000017075472925
 51
89.9999987719666592
  0
LINE
  5
F5
100
AcDbEntity
100
AcDbLine
  8
PCB
 62
256
370
-1
  6
BYLAYER
 10
76.9275663676805834
 20
-10.161644392618058
 30
0.0
 11
76.9275663676805834
 21
-10.161644392618058
 31
0.0
  0
ARC
  5
F6
100
AcDbEntity
  8
PCB
 62
256
370
-1
  6
BYLAYER
100
AcDbCircle
 10
76.2019834983411783
 20
-7.6215958709446454
 30
0.0
 40
0.725582869339901
100
AcDbArc
 50
270.0000012280216879
 51
359.9999987925817777
  0
ARC
  5
F7
100
AcDbEntity
  8
PCB
 62
256
370
-1
  6
BYLAYER
100
AcDbCircle
 10
76.2019835294438508
 20
-7.6215958709446454
 30
0.0
 40
0.7255828693394344
100
AcDbArc
 50
180.0000012074182791
 51
269.9999987719783121
  0
ARC
  5
F8
100
AcDbEntity
  8
PCB
 62
256
370
-1
  6
BYLAYER
100
AcDbCircle
 10
76.2019835294438508
 20
-7.6215959020484263
 30
0.0
 40
0.7255828693398918
100
AcDbArc
 50
90.0000012280202242
 51
179.999998292452716
  0
ARC
  5
F9
100
AcDbEntity
  8
PCB
 62
256
370
-1
  6
BYLAYER
100
AcDbCircle
 10
76.2019834983411783
 20
-7.6215959020484263
 30
0.0
 40
0.7255828693394344
100
AcDbArc
 50
0.0000012074182697
 51
89.9999987719783263
  0
LINE
  5
FA
100
AcDbEntity
100
AcDbLine
  8
PCB
 62
256
370
-1
  6
BYLAYER
 10
76.9275663676805834
 20
-7.6215958864965501
 30
0.0
 11
76.9275663676805834
 21
-7.6215958864965501
 31
0.0
  0
ARC
  5
FB
100
AcDbEntity
  8
PCB
 62
256
370
-1
  6
BYLAYER
100
AcDbCircle
 10
76.201983498340951
 20
-5.0815466028084018
 30
0.0
 40
0.7255828693399022
100
AcDbArc
 50
270.0000012280224269
 51
359.9999987925817777
  0
ARC
  5
FC
100
AcDbEntity
  8
PCB
 62
256
370
-1
  6
BYLAYER
100
AcDbCircle
 10
76.2019835294438508
 20
-5.0815466028084018
 30
0.0
 40
0.7255828693394344
100
AcDbArc
 50
180.0000012074182791
 51
269.9999987719783121
  0
ARC
  5
FD
100
AcDbEntity
  8
PCB
 62
256
370
-1
  6
BYLAYER
100
AcDbCircle
 10
76.2019835294438508
 20
-5.0815466339121826
 30
0.0
 40
0.7255828693398907
100
AcDbArc
 50
90.0000012280202242
 51
179.999998292452716
  0
ARC
  5
FE
100
AcDbEntity
  8
PCB
 62
256
370
-1
  6
BYLAYER
100
AcDbCircle
 10
76.2019834983411783
 20
-5.0815466339121826
 30
0.0
 40
0.7255828693394344
100
AcDbArc
 50
0.0000012074182697
 51
89.9999987719783263
  0
LINE
  5
FF
100
AcDbEntity
100
AcDbLine
  8
PCB
 62
256
370
-1
  6
BYLAYER
 10
76.9275663676805834
 20
-5.0815466183603064
 30
0.0
 11
76.9275663676805834
 21
-5.0815466183603064
 31
0.0
  0
ARC
  5
100
100
AcDbEntity
  8
PCB
 62
256
370
-1
  6
BYLAYER
100
AcDbCircle
 10
76.2019834441366584
 20
-2.5414970264635883
 30
0.0
 40
0.7255829235435255
100
AcDbArc
 50
270.000005508278889
 51
0.0000145392412911
  0
ARC
  5
101
100
AcDbEntity
  8
PCB
 62
256
370
-1
  6
BYLAYER
100
AcDbCircle
 10
76.2019835836483708
 20
-2.5414970264635883
 30
0.0
 40
0.7255829235438177
100
AcDbArc
 50
179.9999854607587224
 51
269.9999944917219068
  0
ARC
  5
102
100
AcDbEntity
  8
PCB
 62
256
370
-1
  6
BYLAYER
100
AcDbCircle
 10
76.2019835294440782
 20
-2.5414968577662194
 30
0.0
 40
0.7255828693401067
100
AcDbArc
 50
90.0000012280326303
 51
179.9999987925817209
  0
ARC
  5
103
100
AcDbEntity
  8
PCB
 62
256
370
-1
  6
BYLAYER
100
AcDbCircle
 10
76.201983498340951
 20
-2.5414968577662194
 30
0.0
 40
0.7255828693395731
100
AcDbArc
 50
0.0000012074182697
 51
89.999998771967384
  0
LINE
  5
104
100
AcDbEntity
100
AcDbLine
  8
PCB
 62
256
370
-1
  6
BYLAYER
 10
76.9275663676805834
 20
-2.541496842214201
 30
0.0
 11
76.9275663676805834
 21
-2.541496842214201
 31
0.0
  0
ARC
  5
105
100
AcDbEntity
  8
PCB
 62
256
370
-1
  6
BYLAYER
100
AcDbCircle
 10
10.160807176826097
 20
-10.1616443770649028
 30
0.0
 40
0.7255828693411763
100
AcDbArc
 50
270.0000012281590216
 51
359.9999987925817777
  0
ARC
  5
106
100
AcDbEntity
  8
PCB
 62
256
370
-1
  6
BYLAYER
100
AcDbCircle
 10
10.1608072079320664
 20
-10.1616443770650449
 30
0.0
 40
0.7255828693408045
100
AcDbArc
 50
180.0000017075473124
 51
269.9999987718703096
  0
ARC
  5
107
100
AcDbEntity
  8
PCB
 62
256
370
-1
  6
BYLAYER
100
AcDbCircle
 10
10.1608072079320664
 20
-10.1616444081710711
 30
0.0
 40
0.7255828693410238
100
AcDbArc
 50
90.0000012281298609
 51
179.9999987925817209
  0
ARC
  5
108
100
AcDbEntity
  8
PCB
 62
256
370
-1
  6
BYLAYER
100
AcDbCircle
 10
10.160807176826097
 20
-10.1616444081712132
 30
0.0
 40
0.7255828693411787
100
AcDbArc
 50
0.0000012074182697
 51
89.9999987718407795
  0
LINE
  5
109
100
AcDbEntity
100
AcDbLine
  8
PCB
 62
256
370
-1
  6
BYLAYER
 10
10.8863900461672642
 20
-10.161644392618058
 30
0.0
 11
10.8863900461672642
 21
-10.161644392618058
 31
0.0
  0
ARC
  5
10A
100
AcDbEntity
  8
PCB
 62
256
370
-1
  6
BYLAYER
100
AcDbCircle
 10
10.1608071768262676
 20
-7.6215958709437643
 30
0.0
 40
0.7255828693408102
100
AcDbArc
 50
270.0000012281471982
 51
359.9999987925817777
  0
ARC
  5
10B
100
AcDbEntity
  8
PCB
 62
256
370
-1
  6
BYLAYER
100
AcDbCircle
 10
10.1608072079319527
 20
-7.6215958709439064
 30
0.0
 40
0.7255828693406587
100
AcDbArc
 50
180.0000012074182791
 51
269.999998771881792
  0
ARC
  5
10C
100
AcDbEntity
  8
PCB
 62
256
370
-1
  6
BYLAYER
100
AcDbCircle
 10
10.1608072079319527
 20
-7.6215959020491937
 30
0.0
 40
0.7255828693406564
100
AcDbArc
 50
90.0000012281178243
 51
179.999998292452716
  0
ARC
  5
10D
100
AcDbEntity
  8
PCB
 62
256
370
-1
  6
BYLAYER
100
AcDbCircle
 10
10.1608071768262676
 20
-7.6215959020493074
 30
0.0
 40
0.7255828693410238
100
AcDbArc
 50
0.0000012074182697
 51
89.9999987718530008
  0
LINE
  5
10E
100
AcDbEntity
100
AcDbLine
  8
PCB
 62
256
370
-1
  6
BYLAYER
 10
10.8863900461672642
 20
-7.6215958864965501
 30
0.0
 11
10.8863900461672642
 21
-7.6215958864965501
 31
0.0
  0
ARC
  5
10F
100
AcDbEntity
  8
PCB
 62
256
370
-1
  6
BYLAYER
100
AcDbCircle
 10
10.1608071768262676
 20
-5.0815466028075207
 30
0.0
 40
0.725582869340809
100
AcDbArc
 50
270.0000012281471982
 51
359.9999987925817777
  0
ARC
  5
110
100
AcDbEntity
  8
PCB
 62
256
370
-1
  6
BYLAYER
100
AcDbCircle
 10
10.1608072079319527
 20
-5.0815466028076628
 30
0.0
 40
0.7255828693406587
100
AcDbArc
 50
180.0000012074182791
 51
269.999998771881792
  0
ARC
  5
111
100
AcDbEntity
  8
PCB
 62
256
370
-1
  6
BYLAYER
100
AcDbCircle
 10
10.1608072079319527
 20
-5.08154663391295
 30
0.0
 40
0.7255828693406564
100
AcDbArc
 50
90.0000012281178243
 51
179.999998292452716
  0
ARC
  5
112
100
AcDbEntity
  8
PCB
 62
256
370
-1
  6
BYLAYER
100
AcDbCircle
 10
10.1608071768262676
 20
-5.0815466339130637
 30
0.0
 40
0.7255828693410261
100
AcDbArc
 50
0.0000012074182697
 51
89.999998771852816
  0
LINE
  5
113
100
AcDbEntity
100
AcDbLine
  8
PCB
 62
256
370
-1
  6
BYLAYER
 10
10.8863900461672642
 20
-5.0815466183603064
 30
0.0
 11
10.8863900461672642
 21
-5.0815466183603064
 31
0.0
  0
ARC
  5
114
100
AcDbEntity
  8
PCB
 62
256
370
-1
  6
BYLAYER
100
AcDbCircle
 10
10.1608071226243624
 20
-2.541497026464242
 30
0.0
 40
0.7255829235429163
100
AcDbArc
 50
270.0000055082101085
 51
0.0000145392412911
  0
ARC
  5
115
100
AcDbEntity
  8
PCB
 62
256
370
-1
  6
BYLAYER
100
AcDbCircle
 10
10.160807262133801
 20
-2.5414970264644978
 30
0.0
 40
0.7255829235425308
100
AcDbArc
 50
179.9999854607587224
 51
269.9999944918236565
  0
ARC
  5
116
100
AcDbEntity
  8
PCB
 62
256
370
-1
  6
BYLAYER
100
AcDbCircle
 10
10.1608072079320664
 20
-2.5414968577669867
 30
0.0
 40
0.7255828693408702
100
AcDbArc
 50
90.0000012281300314
 51
179.9999987925817209
  0
ARC
  5
117
100
AcDbEntity
  8
PCB
 62
256
370
-1
  6
BYLAYER
100
AcDbCircle
 10
10.160807176826097
 20
-2.5414968577672425
 30
0.0
 40
0.7255828693411763
100
AcDbArc
 50
0.0000012074182697
 51
89.99999877184095
  0
LINE
  5
118
100
AcDbEntity
100
AcDbLine
  8
PCB
 62
256
370
-1
  6
BYLAYER
 10
10.8863900461672642
 20
-2.541496842214201
 30
0.0
 11
10.8863900461672642
 21
-2.541496842214201
 31
0.0
  0
LINE
  5
119
100
AcDbEntity
100
AcDbLine
  8
PCB
 62
256
370
-1
  6
BYLAYER
 10
45.1214351991727654
 20
-11.6893067319631712
 30
0.0
 11
43.7752090870606025
 21
-11.6893067319631712
 31
0.0
  0
LINE
  5
11A
100
AcDbEntity
100
AcDbLine
  8
PCB
 62
256
370
-1
  6
BYLAYER
 10
43.7752090870606025
 20
-11.6893067319631712
 30
0.0
 11
43.7752090870606025
 21
-10.8485504242099466
 31
0.0
  0
LINE
  5
11B
100
AcDbEntity
100
AcDbLine
  8
PCB
 62
256
370
-1
  6
BYLAYER
 10
43.7752090870606025
 20
-10.8485504242099466
 30
0.0
 11
45.1214351991727654
 21
-10.8485504242099466
 31
0.0
  0
LINE
  5
11C
100
AcDbEntity
100
AcDbLine
  8
PCB
 62
256
370
-1
  6
BYLAYER
 10
45.1214351991727654
 20
-10.8485504242099466
 30
0.0
 11
45.1214351991727654
 21
-11.6893067319631712
 31
0.0
  0
LINE
  5
11D
100
AcDbEntity
100
AcDbLine
  8
PCB
 62
256
370
-1
  6
BYLAYER
 10
45.1214351991727654
 20
-9.7842697808609103
 30
0.0
 11
43.7752090870606025
 21
-9.7842697808609103
 31
0.0
  0
LINE
  5
11E
100
AcDbEntity
100
AcDbLine
  8
PCB
 62
256
370
-1
  6
BYLAYER
 10
43.7752090870606025
 20
-9.7842697808609103
 30
0.0
 11
43.7752090870606025
 21
-8.9435134731078278
 31
0.0
  0
LINE
  5
11F
100
AcDbEntity
100
AcDbLine
  8
PCB
 62
256
370
-1
  6
BYLAYER
 10
43.7752090870606025
 20
-8.9435134731078278
 30
0.0
 11
45.1214351991727654
 21
-8.9435134731078278
 31
0.0
  0
LINE
  5
120
100
AcDbEntity
100
AcDbLine
  8
PCB
 62
256
370
-1
  6
BYLAYER
 10
45.1214351991727654
 20
-8.9435134731078278
 30
0.0
 11
45.1214351991727654
 21
-9.7842697808609103
 31
0.0
  0
LINE
  5
121
100
AcDbEntity
100
AcDbLine
  8
PCB
 62
256
370
-1
  6
BYLAYER
 10
70.3847652200561242
 20
-14.3766788576512283
 30
0.0
 11
70.3847652200561242
 21
-16.3579172867976297
 31
0.0
  0
LINE
  5
122
100
AcDbEntity
100
AcDbLine
  8
PCB
 62
256
370
-1
  6
BYLAYER
 10
70.3847652200561242
 20
-16.3579172867976297
 30
0.0
 11
66.7778952593025679
 21
-16.3579172867976297
 31
0.0
  0
LINE
  5
123
100
AcDbEntity
100
AcDbLine
  8
PCB
 62
256
370
-1
  6
BYLAYER
 10
66.7778952593025679
 20
-16.3579172867976297
 30
0.0
 11
66.7778952593025679
 21
-14.3766788576512283
 31
0.0
  0
LINE
  5
124
100
AcDbEntity
100
AcDbLine
  8
PCB
 62
256
370
-1
  6
BYLAYER
 10
66.7778952593025679
 20
-14.3766788576512283
 30
0.0
 11
70.3847652200561242
 21
-14.3766788576512283
 31
0.0
  0
LINE
  5
125
100
AcDbEntity
100
AcDbLine
  8
PCB
 62
256
370
-1
  6
BYLAYER
 10
69.06393960062519
 20
-7.7725507604970119
 30
0.0
 11
69.06393960062519
 21
-9.7537891896432996
 31
0.0
  0
LINE
  5
126
100
AcDbEntity
100
AcDbLine
  8
PCB
 62
256
370
-1
  6
BYLAYER
 10
69.06393960062519
 20
-9.7537891896432996
 30
0.0
 11
68.0987208787335021
 21
-9.7537891896432996
 31
0.0
  0
LINE
  5
127
100
AcDbEntity
100
AcDbLine
  8
PCB
 62
256
370
-1
  6
BYLAYER
 10
68.0987208787335021
 20
-9.7537891896432996
 30
0.0
 11
68.0987208787335021
 21
-7.7725507604970119
 31
0.0
  0
LINE
  5
128
100
AcDbEntity
100
AcDbLine
  8
PCB
 62
256
370
-1
  6
BYLAYER
 10
68.0987208787335021
 20
-7.7725507604970119
 30
0.0
 11
69.06393960062519
 21
-7.7725507604970119
 31
0.0
  0
LINE
  5
129
100
AcDbEntity
100
AcDbLine
  8
PCB
 62
256
370
-1
  6
BYLAYER
 10
66.7778952593025679
 20
-7.7725507604970119
 30
0.0
 11
66.7778952593025679
 21
-9.7537891896432996
 31
0.0
  0
LINE
  5
12A
100
AcDbEntity
100
AcDbLine
  8
PCB
 62
256
370
-1
  6
BYLAYER
 10
66.7778952593025679
 20
-9.7537891896432996
 30
0.0
 11
65.81267653741088
 21
-9.7537891896432996
 31
0.0
  0
LINE
  5
12B
100
AcDbEntity
100
AcDbLine
  8
PCB
 62
256
370
-1
  6
BYLAYER
 10
65.81267653741088
 20
-9.7537891896432996
 30
0.0
 11
65.81267653741088
 21
-7.7725507604970119
 31
0.0
  0
LINE
  5
12C
100
AcDbEntity
100
AcDbLine
  8
PCB
 62
256
370
-1
  6
BYLAYER
 10
65.81267653741088
 20
-7.7725507604970119
 30
0.0
 11
66.7778952593025679
 21
-7.7725507604970119
 31
0.0
  0
LINE
  5
12D
100
AcDbEntity
100
AcDbLine
  8
PCB
 62
256
370
-1
  6
BYLAYER
 10
71.3499839419478121
 20
-7.7725507604970119
 30
0.0
 11
71.3499839419478121
 21
-9.7537891896432996
 31
0.0
  0
LINE
  5
12E
100
AcDbEntity
100
AcDbLine
  8
PCB
 62
256
370
-1
  6
BYLAYER
 10
71.3499839419478121
 20
-9.7537891896432996
 30
0.0
 11
70.3847652200561242
 21
-9.7537891896432996
 31
0.0
  0
LINE
  5
12F
100
AcDbEntity
100
AcDbLine
  8
PCB
 62
256
370
-1
  6
BYLAYER
 10
70.3847652200561242
 20
-9.7537891896432996
 30
0.0
 11
70.3847652200561242
 21
-7.7725507604970119
 31
0.0
  0
LINE
  5
130
100
AcDbEntity
100
AcDbLine
  8
PCB
 62
256
370
-1
  6
BYLAYER
 10
70.3847652200561242
 20
-7.7725507604970119
 30
0.0
 11
71.3499839419478121
 21
-7.7725507604970119
 31
0.0
  0
LINE
  5
131
100
AcDbEntity
100
AcDbLine
  8
PCB
 62
256
370
-1
  6
BYLAYER
 10
1.9253573452472779
 20
-22.4235549391070492
 30
0.0
 11
0.6756531053242156
 21
-22.4235549391070492
 31
0.0
  0
LINE
  5
132
100
AcDbEntity
100
AcDbLine
  8
PCB
 62
256
370
-1
  6
BYLAYER
 10
0.6756531053242156
 20
-22.4235549391070492
 30
0.0
 11
0.6756531053242156
 21
-21.5751784835495357
 31
0.0
  0
LINE
  5
133
100
AcDbEntity
100
AcDbLine
  8
PCB
 62
256
370
-1
  6
BYLAYER
 10
0.6756531053242156
 20
-21.5751784835495357
 30
0.0
 11
1.9253573452472779
 21
-21.5751784835495357
 31
0.0
  0
LINE
  5
134
100
AcDbEntity
100
AcDbLine
  8
PCB
 62
256
370
-1
  6
BYLAYER
 10
1.9253573452472779
 20
-21.5751784835495357
 30
0.0
 11
1.9253573452472779
 21
-22.4235549391070492
 31
0.0
  0
LINE
  5
135
100
AcDbEntity
100
AcDbLine
  8
PCB
 62
256
370
-1
  6
BYLAYER
 10
4.3231638543679196
 20
-21.4735765128240814
 30
0.0
 11
3.0734596144448574
 21
-21.4735765128240814
 31
0.0
  0
LINE
  5
136
100
AcDbEntity
100
AcDbLine
  8
PCB
 62
256
370
-1
  6
BYLAYER
 10
3.0734596144448574
 20
-21.4735765128240814
 30
0.0
 11
3.0734596144448574
 21
-20.6252000572665679
 31
0.0
  0
LINE
  5
137
100
AcDbEntity
100
AcDbLine
  8
PCB
 62
256
370
-1
  6
BYLAYER
 10
3.0734596144448574
 20
-20.6252000572665679
 30
0.0
 11
4.3231638543679196
 21
-20.6252000572665679
 31
0.0
  0
LINE
  5
138
100
AcDbEntity
100
AcDbLine
  8
PCB
 62
256
370
-1
  6
BYLAYER
 10
4.3231638543679196
 20
-20.6252000572665679
 30
0.0
 11
4.3231638543679196
 21
-21.4735765128240814
 31
0.0
  0
LINE
  5
139
100
AcDbEntity
100
AcDbLine
  8
PCB
 62
256
370
-1
  6
BYLAYER
 10
4.3231638543679196
 20
-23.373533365390017
 30
0.0
 11
3.0734596144448574
 21
-23.373533365390017
 31
0.0
  0
LINE
  5
13A
100
AcDbEntity
100
AcDbLine
  8
PCB
 62
256
370
-1
  6
BYLAYER
 10
3.0734596144448574
 20
-23.373533365390017
 30
0.0
 11
3.0734596144448574
 21
-22.5251569098324751
 31
0.0
  0
LINE
  5
13B
100
AcDbEntity
100
AcDbLine
  8
PCB
 62
256
370
-1
  6
BYLAYER
 10
3.0734596144448574
 20
-22.5251569098324751
 30
0.0
 11
4.3231638543679196
 21
-22.5251569098324751
 31
0.0
  0
LINE
  5
13C
100
AcDbEntity
100
AcDbLine
  8
PCB
 62
256
370
-1
  6
BYLAYER
 10
4.3231638543679196
 20
-22.5251569098324751
 30
0.0
 11
4.3231638543679196
 21
-23.373533365390017
 31
0.0
  0
LINE
  5
13D
100
AcDbEntity
100
AcDbLine
  8
PCB
 62
256
370
-1
  6
BYLAYER
 10
76.9279321347751193
 20
-22.4235549391070492
 30
0.0
 11
75.6782278948521707
 21
-22.4235549391070492
 31
0.0
  0
LINE
  5
13E
100
AcDbEntity
100
AcDbLine
  8
PCB
 62
256
370
-1
  6
BYLAYER
 10
75.6782278948521707
 20
-22.4235549391070492
 30
0.0
 11
75.6782278948521707
 21
-21.5751784835495357
 31
0.0
  0
LINE
  5
13F
100
AcDbEntity
100
AcDbLine
  8
PCB
 62
256
370
-1
  6
BYLAYER
 10
75.6782278948521707
 20
-21.5751784835495357
 30
0.0
 11
76.9279321347751193
 21
-21.5751784835495357
 31
0.0
  0
LINE
  5
140
100
AcDbEntity
100
AcDbLine
  8
PCB
 62
256
370
-1
  6
BYLAYER
 10
76.9279321347751193
 20
-21.5751784835495357
 30
0.0
 11
76.9279321347751193
 21
-22.4235549391070492
 31
0.0
  0
LINE
  5
141
100
AcDbEntity
100
AcDbLine
  8
PCB
 62
256
370
-1
  6
BYLAYER
 10
79.3257386438956473
 20
-21.4735765128240814
 30
0.0
 11
78.0760344039726988
 21
-21.4735765128240814
 31
0.0
  0
LINE
  5
142
100
AcDbEntity
100
AcDbLine
  8
PCB
 62
256
370
-1
  6
BYLAYER
 10
78.0760344039726988
 20
-21.4735765128240814
 30
0.0
 11
78.0760344039726988
 21
-20.6252000572665679
 31
0.0
  0
LINE
  5
143
100
AcDbEntity
100
AcDbLine
  8
PCB
 62
256
370
-1
  6
BYLAYER
 10
78.0760344039726988
 20
-20.6252000572665679
 30
0.0
 11
79.3257386438956473
 21
-20.6252000572665679
 31
0.0
  0
LINE
  5
144
100
AcDbEntity
100
AcDbLine
  8
PCB
 62
256
370
-1
  6
BYLAYER
 10
79.3257386438956473
 20
-20.6252000572665679
 30
0.0
 11
79.3257386438956473
 21
-21.4735765128240814
 31
0.0
  0
LINE
  5
145
100
AcDbEntity
100
AcDbLine
  8
PCB
 62
256
370
-1
  6
BYLAYER
 10
79.3257386438956473
 20
-23.373533365390017
 30
0.0
 11
78.0760344039726988
 21
-23.373533365390017
 31
0.0
  0
LINE
  5
146
100
AcDbEntity
100
AcDbLine
  8
PCB
 62
256
370
-1
  6
BYLAYER
 10
78.0760344039726988
 20
-23.373533365390017
 30
0.0
 11
78.0760344039726988
 21
-22.5251569098324751
 31
0.0
  0
LINE
  5
147
100
AcDbEntity
100
AcDbLine
  8
PCB
 62
256
370
-1
  6
BYLAYER
 10
78.0760344039726988
 20
-22.5251569098324751
 30
0.0
 11
79.3257386438956473
 21
-22.5251569098324751
 31
0.0
  0
LINE
  5
148
100
AcDbEntity
100
AcDbLine
  8
PCB
 62
256
370
-1
  6
BYLAYER
 10
79.3257386438956473
 20
-22.5251569098324751
 30
0.0
 11
79.3257386438956473
 21
-23.373533365390017
 31
0.0
  0
LINE
  5
149
100
AcDbEntity
100
AcDbLine
  8
PCB
 62
256
370
-1
  6
BYLAYER
 10
71.9265751258146793
 20
-22.4235549391070492
 30
0.0
 11
70.6768708858917307
 21
-22.4235549391070492
 31
0.0
  0
LINE
  5
14A
100
AcDbEntity
100
AcDbLine
  8
PCB
 62
256
370
-1
  6
BYLAYER
 10
70.6768708858917307
 20
-22.4235549391070492
 30
0.0
 11
70.6768708858917307
 21
-21.5751784835495357
 31
0.0
  0
LINE
  5
14B
100
AcDbEntity
100
AcDbLine
  8
PCB
 62
256
370
-1
  6
BYLAYER
 10
70.6768708858917307
 20
-21.5751784835495357
 30
0.0
 11
71.9265751258146793
 21
-21.5751784835495357
 31
0.0
  0
LINE
  5
14C
100
AcDbEntity
100
AcDbLine
  8
PCB
 62
256
370
-1
  6
BYLAYER
 10
71.9265751258146793
 20
-21.5751784835495357
 30
0.0
 11
71.9265751258146793
 21
-22.4235549391070492
 31
0.0
  0
LINE
  5
14D
100
AcDbEntity
100
AcDbLine
  8
PCB
 62
256
370
-1
  6
BYLAYER
 10
74.3243816349354347
 20
-21.4735765128240814
 30
0.0
 11
73.0746773950124862
 21
-21.4735765128240814
 31
0.0
  0
LINE
  5
14E
100
AcDbEntity
100
AcDbLine
  8
PCB
 62
256
370
-1
  6
BYLAYER
 10
73.0746773950124862
 20
-21.4735765128240814
 30
0.0
 11
73.0746773950124862
 21
-20.6252000572665679
 31
0.0
  0
LINE
  5
14F
100
AcDbEntity
100
AcDbLine
  8
PCB
 62
256
370
-1
  6
BYLAYER
 10
73.0746773950124862
 20
-20.6252000572665679
 30
0.0
 11
74.3243816349354347
 21
-20.6252000572665679
 31
0.0
  0
LINE
  5
150
100
AcDbEntity
100
AcDbLine
  8
PCB
 62
256
370
-1
  6
BYLAYER
 10
74.3243816349354347
 20
-20.6252000572665679
 30
0.0
 11
74.3243816349354347
 21
-21.4735765128240814
 31
0.0
  0
LINE
  5
151
100
AcDbEntity
100
AcDbLine
  8
PCB
 62
256
370
-1
  6
BYLAYER
 10
74.3243816349354347
 20
-23.373533365390017
 30
0.0
 11
73.0746773950124862
 21
-23.373533365390017
 31
0.0
  0
LINE
  5
152
100
AcDbEntity
100
AcDbLine
  8
PCB
 62
256
370
-1
  6
BYLAYER
 10
73.0746773950124862
 20
-23.373533365390017
 30
0.0
 11
73.0746773950124862
 21
-22.5251569098324751
 31
0.0
  0
LINE
  5
153
100
AcDbEntity
100
AcDbLine
  8
PCB
 62
256
370
-1
  6
BYLAYER
 10
73.0746773950124862
 20
-22.5251569098324751
 30
0.0
 11
74.3243816349354347
 21
-22.5251569098324751
 31
0.0
  0
LINE
  5
154
100
AcDbEntity
100
AcDbLine
  8
PCB
 62
256
370
-1
  6
BYLAYER
 10
74.3243816349354347
 20
-22.5251569098324751
 30
0.0
 11
74.3243816349354347
 21
-23.373533365390017
 31
0.0
  0
LINE
  5
155
100
AcDbEntity
100
AcDbLine
  8
PCB
 62
256
370
-1
  6
BYLAYER
 10
66.9277581661226577
 20
-22.4235549391070492
 30
0.0
 11
65.6780539261994818
 21
-22.4235549391070492
 31
0.0
  0
LINE
  5
156
100
AcDbEntity
100
AcDbLine
  8
PCB
 62
256
370
-1
  6
BYLAYER
 10
65.6780539261994818
 20
-22.4235549391070492
 30
0.0
 11
65.6780539261994818
 21
-21.5751784835495357
 31
0.0
  0
LINE
  5
157
100
AcDbEntity
100
AcDbLine
  8
PCB
 62
256
370
-1
  6
BYLAYER
 10
65.6780539261994818
 20
-21.5751784835495357
 30
0.0
 11
66.9277581661226577
 21
-21.5751784835495357
 31
0.0
  0
LINE
  5
158
100
AcDbEntity
100
AcDbLine
  8
PCB
 62
256
370
-1
  6
BYLAYER
 10
66.9277581661226577
 20
-21.5751784835495357
 30
0.0
 11
66.9277581661226577
 21
-22.4235549391070492
 31
0.0
  0
LINE
  5
159
100
AcDbEntity
100
AcDbLine
  8
PCB
 62
256
370
-1
  6
BYLAYER
 10
69.3255646752431858
 20
-21.4735765128240814
 30
0.0
 11
68.0758604353202372
 21
-21.4735765128240814
 31
0.0
  0
LINE
  5
15A
100
AcDbEntity
100
AcDbLine
  8
PCB
 62
256
370
-1
  6
BYLAYER
 10
68.0758604353202372
 20
-21.4735765128240814
 30
0.0
 11
68.0758604353202372
 21
-20.6252000572665679
 31
0.0
  0
LINE
  5
15B
100
AcDbEntity
100
AcDbLine
  8
PCB
 62
256
370
-1
  6
BYLAYER
 10
68.0758604353202372
 20
-20.6252000572665679
 30
0.0
 11
69.3255646752431858
 21
-20.6252000572665679
 31
0.0
  0
LINE
  5
15C
100
AcDbEntity
100
AcDbLine
  8
PCB
 62
256
370
-1
  6
BYLAYER
 10
69.3255646752431858
 20
-20.6252000572665679
 30
0.0
 11
69.3255646752431858
 21
-21.4735765128240814
 31
0.0
  0
LINE
  5
15D
100
AcDbEntity
100
AcDbLine
  8
PCB
 62
256
370
-1
  6
BYLAYER
 10
69.3255646752431858
 20
-23.373533365390017
 30
0.0
 11
68.0758604353202372
 21
-23.373533365390017
 31
0.0
  0
LINE
  5
15E
100
AcDbEntity
100
AcDbLine
  8
PCB
 62
256
370
-1
  6
BYLAYER
 10
68.0758604353202372
 20
-23.373533365390017
 30
0.0
 11
68.0758604353202372
 21
-22.5251569098324751
 31
0.0
  0
LINE
  5
15F
100
AcDbEntity
100
AcDbLine
  8
PCB
 62
256
370
-1
  6
BYLAYER
 10
68.0758604353202372
 20
-22.5251569098324751
 30
0.0
 11
69.3255646752431858
 21
-22.5251569098324751
 31
0.0
  0
LINE
  5
160
100
AcDbEntity
100
AcDbLine
  8
PCB
 62
256
370
-1
  6
BYLAYER
 10
69.3255646752431858
 20
-22.5251569098324751
 30
0.0
 11
69.3255646752431858
 21
-23.373533365390017
 31
0.0
  0
LINE
  5
161
100
AcDbEntity
100
AcDbLine
  8
PCB
 62
256
370
-1
  6
BYLAYER
 10
61.9264011571622177
 20
-22.4235549391070492
 30
0.0
 11
60.6766969172392692
 21
-22.4235549391070492
 31
0.0
  0
LINE
  5
162
100
AcDbEntity
100
AcDbLine
  8
PCB
 62
256
370
-1
  6
BYLAYER
 10
60.6766969172392692
 20
-22.4235549391070492
 30
0.0
 11
60.6766969172392692
 21
-21.5751784835495357
 31
0.0
  0
LINE
  5
163
100
AcDbEntity
100
AcDbLine
  8
PCB
 62
256
370
-1
  6
BYLAYER
 10
60.6766969172392692
 20
-21.5751784835495357
 30
0.0
 11
61.9264011571622177
 21
-21.5751784835495357
 31
0.0
  0
LINE
  5
164
100
AcDbEntity
100
AcDbLine
  8
PCB
 62
256
370
-1
  6
BYLAYER
 10
61.9264011571622177
 20
-21.5751784835495357
 30
0.0
 11
61.9264011571622177
 21
-22.4235549391070492
 31
0.0
  0
LINE
  5
165
100
AcDbEntity
100
AcDbLine
  8
PCB
 62
256
370
-1
  6
BYLAYER
 10
64.3242076662829732
 20
-21.4735765128240814
 30
0.0
 11
63.0745034263597972
 21
-21.4735765128240814
 31
0.0
  0
LINE
  5
166
100
AcDbEntity
100
AcDbLine
  8
PCB
 62
256
370
-1
  6
BYLAYER
 10
63.0745034263597972
 20
-21.4735765128240814
 30
0.0
 11
63.0745034263597972
 21
-20.6252000572665679
 31
0.0
  0
LINE
  5
167
100
AcDbEntity
100
AcDbLine
  8
PCB
 62
256
370
-1
  6
BYLAYER
 10
63.0745034263597972
 20
-20.6252000572665679
 30
0.0
 11
64.3242076662829732
 21
-20.6252000572665679
 31
0.0
  0
LINE
  5
168
100
AcDbEntity
100
AcDbLine
  8
PCB
 62
256
370
-1
  6
BYLAYER
 10
64.3242076662829732
 20
-20.6252000572665679
 30
0.0
 11
64.3242076662829732
 21
-21.4735765128240814
 31
0.0
  0
LINE
  5
169
100
AcDbEntity
100
AcDbLine
  8
PCB
 62
256
370
-1
  6
BYLAYER
 10
64.3242076662829732
 20
-23.373533365390017
 30
0.0
 11
63.0745034263597972
 21
-23.373533365390017
 31
0.0
  0
LINE
  5
16A
100
AcDbEntity
100
AcDbLine
  8
PCB
 62
256
370
-1
  6
BYLAYER
 10
63.0745034263597972
 20
-23.373533365390017
 30
0.0
 11
63.0745034263597972
 21
-22.5251569098324751
 31
0.0
  0
LINE
  5
16B
100
AcDbEntity
100
AcDbLine
  8
PCB
 62
256
370
-1
  6
BYLAYER
 10
63.0745034263597972
 20
-22.5251569098324751
 30
0.0
 11
64.3242076662829732
 21
-22.5251569098324751
 31
0.0
  0
LINE
  5
16C
100
AcDbEntity
100
AcDbLine
  8
PCB
 62
256
370
-1
  6
BYLAYER
 10
64.3242076662829732
 20
-22.5251569098324751
 30
0.0
 11
64.3242076662829732
 21
-23.373533365390017
 31
0.0
  0
LINE
  5
16D
100
AcDbEntity
100
AcDbLine
  8
PCB
 62
256
370
-1
  6
BYLAYER
 10
56.9275841974701962
 20
-22.4235549391070492
 30
0.0
 11
55.6778799575470202
 21
-22.4235549391070492
 31
0.0
  0
LINE
  5
16E
100
AcDbEntity
100
AcDbLine
  8
PCB
 62
256
370
-1
  6
BYLAYER
 10
55.6778799575470202
 20
-22.4235549391070492
 30
0.0
 11
55.6778799575470202
 21
-21.5751784835495357
 31
0.0
  0
LINE
  5
16F
100
AcDbEntity
100
AcDbLine
  8
PCB
 62
256
370
-1
  6
BYLAYER
 10
55.6778799575470202
 20
-21.5751784835495357
 30
0.0
 11
56.9275841974701962
 21
-21.5751784835495357
 31
0.0
  0
LINE
  5
170
100
AcDbEntity
100
AcDbLine
  8
PCB
 62
256
370
-1
  6
BYLAYER
 10
56.9275841974701962
 20
-21.5751784835495357
 30
0.0
 11
56.9275841974701962
 21
-22.4235549391070492
 31
0.0
  0
LINE
  5
171
100
AcDbEntity
100
AcDbLine
  8
PCB
 62
256
370
-1
  6
BYLAYER
 10
59.3253907065907242
 20
-21.4735765128240814
 30
0.0
 11
58.0756864666677757
 21
-21.4735765128240814
 31
0.0
  0
LINE
  5
172
100
AcDbEntity
100
AcDbLine
  8
PCB
 62
256
370
-1
  6
BYLAYER
 10
58.0756864666677757
 20
-21.4735765128240814
 30
0.0
 11
58.0756864666677757
 21
-20.6252000572665679
 31
0.0
  0
LINE
  5
173
100
AcDbEntity
100
AcDbLine
  8
PCB
 62
256
370
-1
  6
BYLAYER
 10
58.0756864666677757
 20
-20.6252000572665679
 30
0.0
 11
59.3253907065907242
 21
-20.6252000572665679
 31
0.0
  0
LINE
  5
174
100
AcDbEntity
100
AcDbLine
  8
PCB
 62
256
370
-1
  6
BYLAYER
 10
59.3253907065907242
 20
-20.6252000572665679
 30
0.0
 11
59.3253907065907242
 21
-21.4735765128240814
 31
0.0
  0
LINE
  5
175
100
AcDbEntity
100
AcDbLine
  8
PCB
 62
256
370
-1
  6
BYLAYER
 10
59.3253907065907242
 20
-23.373533365390017
 30
0.0
 11
58.0756864666677757
 21
-23.373533365390017
 31
0.0
  0
LINE
  5
176
100
AcDbEntity
100
AcDbLine
  8
PCB
 62
256
370
-1
  6
BYLAYER
 10
58.0756864666677757
 20
-23.373533365390017
 30
0.0
 11
58.0756864666677757
 21
-22.5251569098324751
 31
0.0
  0
LINE
  5
177
100
AcDbEntity
100
AcDbLine
  8
PCB
 62
256
370
-1
  6
BYLAYER
 10
58.0756864666677757
 20
-22.5251569098324751
 30
0.0
 11
59.3253907065907242
 21
-22.5251569098324751
 31
0.0
  0
LINE
  5
178
100
AcDbEntity
100
AcDbLine
  8
PCB
 62
256
370
-1
  6
BYLAYER
 10
59.3253907065907242
 20
-22.5251569098324751
 30
0.0
 11
59.3253907065907242
 21
-23.373533365390017
 31
0.0
  0
LINE
  5
179
100
AcDbEntity
100
AcDbLine
  8
PCB
 62
256
370
-1
  6
BYLAYER
 10
51.9262271885097562
 20
-22.4235549391070492
 30
0.0
 11
50.6765229485868076
 21
-22.4235549391070492
 31
0.0
  0
LINE
  5
17A
100
AcDbEntity
100
AcDbLine
  8
PCB
 62
256
370
-1
  6
BYLAYER
 10
50.6765229485868076
 20
-22.4235549391070492
 30
0.0
 11
50.6765229485868076
 21
-21.5751784835495357
 31
0.0
  0
LINE
  5
17B
100
AcDbEntity
100
AcDbLine
  8
PCB
 62
256
370
-1
  6
BYLAYER
 10
50.6765229485868076
 20
-21.5751784835495357
 30
0.0
 11
51.9262271885097562
 21
-21.5751784835495357
 31
0.0
  0
LINE
  5
17C
100
AcDbEntity
100
AcDbLine
  8
PCB
 62
256
370
-1
  6
BYLAYER
 10
51.9262271885097562
 20
-21.5751784835495357
 30
0.0
 11
51.9262271885097562
 21
-22.4235549391070492
 31
0.0
  0
LINE
  5
17D
100
AcDbEntity
100
AcDbLine
  8
PCB
 62
256
370
-1
  6
BYLAYER
 10
54.3240336976305116
 20
-21.4735765128240814
 30
0.0
 11
53.0743294577073357
 21
-21.4735765128240814
 31
0.0
  0
LINE
  5
17E
100
AcDbEntity
100
AcDbLine
  8
PCB
 62
256
370
-1
  6
BYLAYER
 10
53.0743294577073357
 20
-21.4735765128240814
 30
0.0
 11
53.0743294577073357
 21
-20.6252000572665679
 31
0.0
  0
LINE
  5
17F
100
AcDbEntity
100
AcDbLine
  8
PCB
 62
256
370
-1
  6
BYLAYER
 10
53.0743294577073357
 20
-20.6252000572665679
 30
0.0
 11
54.3240336976305116
 21
-20.6252000572665679
 31
0.0
  0
LINE
  5
180
100
AcDbEntity
100
AcDbLine
  8
PCB
 62
256
370
-1
  6
BYLAYER
 10
54.3240336976305116
 20
-20.6252000572665679
 30
0.0
 11
54.3240336976305116
 21
-21.4735765128240814
 31
0.0
  0
LINE
  5
181
100
AcDbEntity
100
AcDbLine
  8
PCB
 62
256
370
-1
  6
BYLAYER
 10
54.3240336976305116
 20
-23.373533365390017
 30
0.0
 11
53.0743294577073357
 21
-23.373533365390017
 31
0.0
  0
LINE
  5
182
100
AcDbEntity
100
AcDbLine
  8
PCB
 62
256
370
-1
  6
BYLAYER
 10
53.0743294577073357
 20
-23.373533365390017
 30
0.0
 11
53.0743294577073357
 21
-22.5251569098324751
 31
0.0
  0
LINE
  5
183
100
AcDbEntity
100
AcDbLine
  8
PCB
 62
256
370
-1
  6
BYLAYER
 10
53.0743294577073357
 20
-22.5251569098324751
 30
0.0
 11
54.3240336976305116
 21
-22.5251569098324751
 31
0.0
  0
LINE
  5
184
100
AcDbEntity
100
AcDbLine
  8
PCB
 62
256
370
-1
  6
BYLAYER
 10
54.3240336976305116
 20
-22.5251569098324751
 30
0.0
 11
54.3240336976305116
 21
-23.373533365390017
 31
0.0
  0
LINE
  5
185
100
AcDbEntity
100
AcDbLine
  8
PCB
 62
256
370
-1
  6
BYLAYER
 10
46.9274102288175072
 20
-22.4235549391070492
 30
0.0
 11
45.6777059888945587
 21
-22.4235549391070492
 31
0.0
  0
LINE
  5
186
100
AcDbEntity
100
AcDbLine
  8
PCB
 62
256
370
-1
  6
BYLAYER
 10
45.6777059888945587
 20
-22.4235549391070492
 30
0.0
 11
45.6777059888945587
 21
-21.5751784835495357
 31
0.0
  0
LINE
  5
187
100
AcDbEntity
100
AcDbLine
  8
PCB
 62
256
370
-1
  6
BYLAYER
 10
45.6777059888945587
 20
-21.5751784835495357
 30
0.0
 11
46.9274102288175072
 21
-21.5751784835495357
 31
0.0
  0
LINE
  5
188
100
AcDbEntity
100
AcDbLine
  8
PCB
 62
256
370
-1
  6
BYLAYER
 10
46.9274102288175072
 20
-21.5751784835495357
 30
0.0
 11
46.9274102288175072
 21
-22.4235549391070492
 31
0.0
  0
LINE
  5
189
100
AcDbEntity
100
AcDbLine
  8
PCB
 62
256
370
-1
  6
BYLAYER
 10
49.3252167379382627
 20
-21.4735765128240814
 30
0.0
 11
48.0755124980153141
 21
-21.4735765128240814
 31
0.0
  0
LINE
  5
18A
100
AcDbEntity
100
AcDbLine
  8
PCB
 62
256
370
-1
  6
BYLAYER
 10
48.0755124980153141
 20
-21.4735765128240814
 30
0.0
 11
48.0755124980153141
 21
-20.6252000572665679
 31
0.0
  0
LINE
  5
18B
100
AcDbEntity
100
AcDbLine
  8
PCB
 62
256
370
-1
  6
BYLAYER
 10
48.0755124980153141
 20
-20.6252000572665679
 30
0.0
 11
49.3252167379382627
 21
-20.6252000572665679
 31
0.0
  0
LINE
  5
18C
100
AcDbEntity
100
AcDbLine
  8
PCB
 62
256
370
-1
  6
BYLAYER
 10
49.3252167379382627
 20
-20.6252000572665679
 30
0.0
 11
49.3252167379382627
 21
-21.4735765128240814
 31
0.0
  0
LINE
  5
18D
100
AcDbEntity
100
AcDbLine
  8
PCB
 62
256
370
-1
  6
BYLAYER
 10
49.3252167379382627
 20
-23.373533365390017
 30
0.0
 11
48.0755124980153141
 21
-23.373533365390017
 31
0.0
  0
LINE
  5
18E
100
AcDbEntity
100
AcDbLine
  8
PCB
 62
256
370
-1
  6
BYLAYER
 10
48.0755124980153141
 20
-23.373533365390017
 30
0.0
 11
48.0755124980153141
 21
-22.5251569098324751
 31
0.0
  0
LINE
  5
18F
100
AcDbEntity
100
AcDbLine
  8
PCB
 62
256
370
-1
  6
BYLAYER
 10
48.0755124980153141
 20
-22.5251569098324751
 30
0.0
 11
49.3252167379382627
 21
-22.5251569098324751
 31
0.0
  0
LINE
  5
190
100
AcDbEntity
100
AcDbLine
  8
PCB
 62
256
370
-1
  6
BYLAYER
 10
49.3252167379382627
 20
-22.5251569098324751
 30
0.0
 11
49.3252167379382627
 21
-23.373533365390017
 31
0.0
  0
LINE
  5
191
100
AcDbEntity
100
AcDbLine
  8
PCB
 62
256
370
-1
  6
BYLAYER
 10
41.9260532198572946
 20
-22.4235549391070492
 30
0.0
 11
40.6763489799343461
 21
-22.4235549391070492
 31
0.0
  0
LINE
  5
192
100
AcDbEntity
100
AcDbLine
  8
PCB
 62
256
370
-1
  6
BYLAYER
 10
40.6763489799343461
 20
-22.4235549391070492
 30
0.0
 11
40.6763489799343461
 21
-21.5751784835495357
 31
0.0
  0
LINE
  5
193
100
AcDbEntity
100
AcDbLine
  8
PCB
 62
256
370
-1
  6
BYLAYER
 10
40.6763489799343461
 20
-21.5751784835495357
 30
0.0
 11
41.9260532198572946
 21
-21.5751784835495357
 31
0.0
  0
LINE
  5
194
100
AcDbEntity
100
AcDbLine
  8
PCB
 62
256
370
-1
  6
BYLAYER
 10
41.9260532198572946
 20
-21.5751784835495357
 30
0.0
 11
41.9260532198572946
 21
-22.4235549391070492
 31
0.0
  0
LINE
  5
195
100
AcDbEntity
100
AcDbLine
  8
PCB
 62
256
370
-1
  6
BYLAYER
 10
44.3238597289778227
 20
-21.4735765128240814
 30
0.0
 11
43.0741554890548741
 21
-21.4735765128240814
 31
0.0
  0
LINE
  5
196
100
AcDbEntity
100
AcDbLine
  8
PCB
 62
256
370
-1
  6
BYLAYER
 10
43.0741554890548741
 20
-21.4735765128240814
 30
0.0
 11
43.0741554890548741
 21
-20.6252000572665679
 31
0.0
  0
LINE
  5
197
100
AcDbEntity
100
AcDbLine
  8
PCB
 62
256
370
-1
  6
BYLAYER
 10
43.0741554890548741
 20
-20.6252000572665679
 30
0.0
 11
44.3238597289778227
 21
-20.6252000572665679
 31
0.0
  0
LINE
  5
198
100
AcDbEntity
100
AcDbLine
  8
PCB
 62
256
370
-1
  6
BYLAYER
 10
44.3238597289778227
 20
-20.6252000572665679
 30
0.0
 11
44.3238597289778227
 21
-21.4735765128240814
 31
0.0
  0
LINE
  5
199
100
AcDbEntity
100
AcDbLine
  8
PCB
 62
256
370
-1
  6
BYLAYER
 10
44.3238597289778227
 20
-23.373533365390017
 30
0.0
 11
43.0741554890548741
 21
-23.373533365390017
 31
0.0
  0
LINE
  5
19A
100
AcDbEntity
100
AcDbLine
  8
PCB
 62
256
370
-1
  6
BYLAYER
 10
43.0741554890548741
 20
-23.373533365390017
 30
0.0
 11
43.0741554890548741
 21
-22.5251569098324751
 31
0.0
  0
LINE
  5
19B
100
AcDbEntity
100
AcDbLine
  8
PCB
 62
256
370
-1
  6
BYLAYER
 10
43.0741554890548741
 20
-22.5251569098324751
 30
0.0
 11
44.3238597289778227
 21
-22.5251569098324751
 31
0.0
  0
LINE
  5
19C
100
AcDbEntity
100
AcDbLine
  8
PCB
 62
256
370
-1
  6
BYLAYER
 10
44.3238597289778227
 20
-22.5251569098324751
 30
0.0
 11
44.3238597289778227
 21
-23.373533365390017
 31
0.0
  0
LINE
  5
19D
100
AcDbEntity
100
AcDbLine
  8
PCB
 62
256
370
-1
  6
BYLAYER
 10
36.9272362601650457
 20
-22.4235549391070492
 30
0.0
 11
35.6775320202420971
 21
-22.4235549391070492
 31
0.0
  0
LINE
  5
19E
100
AcDbEntity
100
AcDbLine
  8
PCB
 62
256
370
-1
  6
BYLAYER
 10
35.6775320202420971
 20
-22.4235549391070492
 30
0.0
 11
35.6775320202420971
 21
-21.5751784835495357
 31
0.0
  0
LINE
  5
19F
100
AcDbEntity
100
AcDbLine
  8
PCB
 62
256
370
-1
  6
BYLAYER
 10
35.6775320202420971
 20
-21.5751784835495357
 30
0.0
 11
36.9272362601650457
 21
-21.5751784835495357
 31
0.0
  0
LINE
  5
1A0
100
AcDbEntity
100
AcDbLine
  8
PCB
 62
256
370
-1
  6
BYLAYER
 10
36.9272362601650457
 20
-21.5751784835495357
 30
0.0
 11
36.9272362601650457
 21
-22.4235549391070492
 31
0.0
  0
LINE
  5
1A1
100
AcDbEntity
100
AcDbLine
  8
PCB
 62
256
370
-1
  6
BYLAYER
 10
39.3250427692858011
 20
-21.4735765128240814
 30
0.0
 11
38.0753385293626252
 21
-21.4735765128240814
 31
0.0
  0
LINE
  5
1A2
100
AcDbEntity
100
AcDbLine
  8
PCB
 62
256
370
-1
  6
BYLAYER
 10
38.0753385293626252
 20
-21.4735765128240814
 30
0.0
 11
38.0753385293626252
 21
-20.6252000572665679
 31
0.0
  0
LINE
  5
1A3
100
AcDbEntity
100
AcDbLine
  8
PCB
 62
256
370
-1
  6
BYLAYER
 10
38.0753385293626252
 20
-20.6252000572665679
 30
0.0
 11
39.3250427692858011
 21
-20.6252000572665679
 31
0.0
  0
LINE
  5
1A4
100
AcDbEntity
100
AcDbLine
  8
PCB
 62
256
370
-1
  6
BYLAYER
 10
39.3250427692858011
 20
-20.6252000572665679
 30
0.0
 11
39.3250427692858011
 21
-21.4735765128240814
 31
0.0
  0
LINE
  5
1A5
100
AcDbEntity
100
AcDbLine
  8
PCB
 62
256
370
-1
  6
BYLAYER
 10
39.3250427692858011
 20
-23.373533365390017
 30
0.0
 11
38.0753385293626252
 21
-23.373533365390017
 31
0.0
  0
LINE
  5
1A6
100
AcDbEntity
100
AcDbLine
  8
PCB
 62
256
370
-1
  6
BYLAYER
 10
38.0753385293626252
 20
-23.373533365390017
 30
0.0
 11
38.0753385293626252
 21
-22.5251569098324751
 31
0.0
  0
LINE
  5
1A7
100
AcDbEntity
100
AcDbLine
  8
PCB
 62
256
370
-1
  6
BYLAYER
 10
38.0753385293626252
 20
-22.5251569098324751
 30
0.0
 11
39.3250427692858011
 21
-22.5251569098324751
 31
0.0
  0
LINE
  5
1A8
100
AcDbEntity
100
AcDbLine
  8
PCB
 62
256
370
-1
  6
BYLAYER
 10
39.3250427692858011
 20
-22.5251569098324751
 30
0.0
 11
39.3250427692858011
 21
-23.373533365390017
 31
0.0
  0
LINE
  5
1A9
100
AcDbEntity
100
AcDbLine
  8
PCB
 62
256
370
-1
  6
BYLAYER
 10
31.9258792512048331
 20
-22.4235549391070492
 30
0.0
 11
30.6761750112816571
 21
-22.4235549391070492
 31
0.0
  0
LINE
  5
1AA
100
AcDbEntity
100
AcDbLine
  8
PCB
 62
256
370
-1
  6
BYLAYER
 10
30.6761750112816571
 20
-22.4235549391070492
 30
0.0
 11
30.6761750112816571
 21
-21.5751784835495357
 31
0.0
  0
LINE
  5
1AB
100
AcDbEntity
100
AcDbLine
  8
PCB
 62
256
370
-1
  6
BYLAYER
 10
30.6761750112816571
 20
-21.5751784835495357
 30
0.0
 11
31.9258792512048331
 21
-21.5751784835495357
 31
0.0
  0
LINE
  5
1AC
100
AcDbEntity
100
AcDbLine
  8
PCB
 62
256
370
-1
  6
BYLAYER
 10
31.9258792512048331
 20
-21.5751784835495357
 30
0.0
 11
31.9258792512048331
 21
-22.4235549391070492
 31
0.0
  0
LINE
  5
1AD
100
AcDbEntity
100
AcDbLine
  8
PCB
 62
256
370
-1
  6
BYLAYER
 10
34.3236857603253611
 20
-21.4735765128240814
 30
0.0
 11
33.0739815204024126
 21
-21.4735765128240814
 31
0.0
  0
LINE
  5
1AE
100
AcDbEntity
100
AcDbLine
  8
PCB
 62
256
370
-1
  6
BYLAYER
 10
33.0739815204024126
 20
-21.4735765128240814
 30
0.0
 11
33.0739815204024126
 21
-20.6252000572665679
 31
0.0
  0
LINE
  5
1AF
100
AcDbEntity
100
AcDbLine
  8
PCB
 62
256
370
-1
  6
BYLAYER
 10
33.0739815204024126
 20
-20.6252000572665679
 30
0.0
 11
34.3236857603253611
 21
-20.6252000572665679
 31
0.0
  0
LINE
  5
1B0
100
AcDbEntity
100
AcDbLine
  8
PCB
 62
256
370
-1
  6
BYLAYER
 10
34.3236857603253611
 20
-20.6252000572665679
 30
0.0
 11
34.3236857603253611
 21
-21.4735765128240814
 31
0.0
  0
LINE
  5
1B1
100
AcDbEntity
100
AcDbLine
  8
PCB
 62
256
370
-1
  6
BYLAYER
 10
34.3236857603253611
 20
-23.373533365390017
 30
0.0
 11
33.0739815204024126
 21
-23.373533365390017
 31
0.0
  0
LINE
  5
1B2
100
AcDbEntity
100
AcDbLine
  8
PCB
 62
256
370
-1
  6
BYLAYER
 10
33.0739815204024126
 20
-23.373533365390017
 30
0.0
 11
33.0739815204024126
 21
-22.5251569098324751
 31
0.0
  0
LINE
  5
1B3
100
AcDbEntity
100
AcDbLine
  8
PCB
 62
256
370
-1
  6
BYLAYER
 10
33.0739815204024126
 20
-22.5251569098324751
 30
0.0
 11
34.3236857603253611
 21
-22.5251569098324751
 31
0.0
  0
LINE
  5
1B4
100
AcDbEntity
100
AcDbLine
  8
PCB
 62
256
370
-1
  6
BYLAYER
 10
34.3236857603253611
 20
-22.5251569098324751
 30
0.0
 11
34.3236857603253611
 21
-23.373533365390017
 31
0.0
  0
LINE
  5
1B5
100
AcDbEntity
100
AcDbLine
  8
PCB
 62
256
370
-1
  6
BYLAYER
 10
26.9270622915125841
 20
-22.4235549391070492
 30
0.0
 11
25.6773580515896356
 21
-22.4235549391070492
 31
0.0
  0
LINE
  5
1B6
100
AcDbEntity
100
AcDbLine
  8
PCB
 62
256
370
-1
  6
BYLAYER
 10
25.6773580515896356
 20
-22.4235549391070492
 30
0.0
 11
25.6773580515896356
 21
-21.5751784835495357
 31
0.0
  0
LINE
  5
1B7
100
AcDbEntity
100
AcDbLine
  8
PCB
 62
256
370
-1
  6
BYLAYER
 10
25.6773580515896356
 20
-21.5751784835495357
 30
0.0
 11
26.9270622915125841
 21
-21.5751784835495357
 31
0.0
  0
LINE
  5
1B8
100
AcDbEntity
100
AcDbLine
  8
PCB
 62
256
370
-1
  6
BYLAYER
 10
26.9270622915125841
 20
-21.5751784835495357
 30
0.0
 11
26.9270622915125841
 21
-22.4235549391070492
 31
0.0
  0
LINE
  5
1B9
100
AcDbEntity
100
AcDbLine
  8
PCB
 62
256
370
-1
  6
BYLAYER
 10
29.3248688006333396
 20
-21.4735765128240814
 30
0.0
 11
28.0751645607101636
 21
-21.4735765128240814
 31
0.0
  0
LINE
  5
1BA
100
AcDbEntity
100
AcDbLine
  8
PCB
 62
256
370
-1
  6
BYLAYER
 10
28.0751645607101636
 20
-21.4735765128240814
 30
0.0
 11
28.0751645607101636
 21
-20.6252000572665679
 31
0.0
  0
LINE
  5
1BB
100
AcDbEntity
100
AcDbLine
  8
PCB
 62
256
370
-1
  6
BYLAYER
 10
28.0751645607101636
 20
-20.6252000572665679
 30
0.0
 11
29.3248688006333396
 21
-20.6252000572665679
 31
0.0
  0
LINE
  5
1BC
100
AcDbEntity
100
AcDbLine
  8
PCB
 62
256
370
-1
  6
BYLAYER
 10
29.3248688006333396
 20
-20.6252000572665679
 30
0.0
 11
29.3248688006333396
 21
-21.4735765128240814
 31
0.0
  0
LINE
  5
1BD
100
AcDbEntity
100
AcDbLine
  8
PCB
 62
256
370
-1
  6
BYLAYER
 10
29.3248688006333396
 20
-23.373533365390017
 30
0.0
 11
28.0751645607101636
 21
-23.373533365390017
 31
0.0
  0
LINE
  5
1BE
100
AcDbEntity
100
AcDbLine
  8
PCB
 62
256
370
-1
  6
BYLAYER
 10
28.0751645607101636
 20
-23.373533365390017
 30
0.0
 11
28.0751645607101636
 21
-22.5251569098324751
 31
0.0
  0
LINE
  5
1BF
100
AcDbEntity
100
AcDbLine
  8
PCB
 62
256
370
-1
  6
BYLAYER
 10
28.0751645607101636
 20
-22.5251569098324751
 30
0.0
 11
29.3248688006333396
 21
-22.5251569098324751
 31
0.0
  0
LINE
  5
1C0
100
AcDbEntity
100
AcDbLine
  8
PCB
 62
256
370
-1
  6
BYLAYER
 10
29.3248688006333396
 20
-22.5251569098324751
 30
0.0
 11
29.3248688006333396
 21
-23.373533365390017
 31
0.0
  0
LINE
  5
1C1
100
AcDbEntity
100
AcDbLine
  8
PCB
 62
256
370
-1
  6
BYLAYER
 10
21.9257052825523715
 20
-22.4235549391070492
 30
0.0
 11
20.6760010426291956
 21
-22.4235549391070492
 31
0.0
  0
LINE
  5
1C2
100
AcDbEntity
100
AcDbLine
  8
PCB
 62
256
370
-1
  6
BYLAYER
 10
20.6760010426291956
 20
-22.4235549391070492
 30
0.0
 11
20.6760010426291956
 21
-21.5751784835495357
 31
0.0
  0
LINE
  5
1C3
100
AcDbEntity
100
AcDbLine
  8
PCB
 62
256
370
-1
  6
BYLAYER
 10
20.6760010426291956
 20
-21.5751784835495357
 30
0.0
 11
21.9257052825523715
 21
-21.5751784835495357
 31
0.0
  0
LINE
  5
1C4
100
AcDbEntity
100
AcDbLine
  8
PCB
 62
256
370
-1
  6
BYLAYER
 10
21.9257052825523715
 20
-21.5751784835495357
 30
0.0
 11
21.9257052825523715
 21
-22.4235549391070492
 31
0.0
  0
LINE
  5
1C5
100
AcDbEntity
100
AcDbLine
  8
PCB
 62
256
370
-1
  6
BYLAYER
 10
24.3235117916728996
 20
-21.4735765128240814
 30
0.0
 11
23.073807551749951
 21
-21.4735765128240814
 31
0.0
  0
LINE
  5
1C6
100
AcDbEntity
100
AcDbLine
  8
PCB
 62
256
370
-1
  6
BYLAYER
 10
23.073807551749951
 20
-21.4735765128240814
 30
0.0
 11
23.073807551749951
 21
-20.6252000572665679
 31
0.0
  0
LINE
  5
1C7
100
AcDbEntity
100
AcDbLine
  8
PCB
 62
256
370
-1
  6
BYLAYER
 10
23.073807551749951
 20
-20.6252000572665679
 30
0.0
 11
24.3235117916728996
 21
-20.6252000572665679
 31
0.0
  0
LINE
  5
1C8
100
AcDbEntity
100
AcDbLine
  8
PCB
 62
256
370
-1
  6
BYLAYER
 10
24.3235117916728996
 20
-20.6252000572665679
 30
0.0
 11
24.3235117916728996
 21
-21.4735765128240814
 31
0.0
  0
LINE
  5
1C9
100
AcDbEntity
100
AcDbLine
  8
PCB
 62
256
370
-1
  6
BYLAYER
 10
24.3235117916728996
 20
-23.373533365390017
 30
0.0
 11
23.073807551749951
 21
-23.373533365390017
 31
0.0
  0
LINE
  5
1CA
100
AcDbEntity
100
AcDbLine
  8
PCB
 62
256
370
-1
  6
BYLAYER
 10
23.073807551749951
 20
-23.373533365390017
 30
0.0
 11
23.073807551749951
 21
-22.5251569098324751
 31
0.0
  0
LINE
  5
1CB
100
AcDbEntity
100
AcDbLine
  8
PCB
 62
256
370
-1
  6
BYLAYER
 10
23.073807551749951
 20
-22.5251569098324751
 30
0.0
 11
24.3235117916728996
 21
-22.5251569098324751
 31
0.0
  0
LINE
  5
1CC
100
AcDbEntity
100
AcDbLine
  8
PCB
 62
256
370
-1
  6
BYLAYER
 10
24.3235117916728996
 20
-22.5251569098324751
 30
0.0
 11
24.3235117916728996
 21
-23.373533365390017
 31
0.0
  0
LINE
  5
1CD
100
AcDbEntity
100
AcDbLine
  8
PCB
 62
256
370
-1
  6
BYLAYER
 10
16.9268883228601226
 20
-22.4235549391070492
 30
0.0
 11
15.6771840829369467
 21
-22.4235549391070492
 31
0.0
  0
LINE
  5
1CE
100
AcDbEntity
100
AcDbLine
  8
PCB
 62
256
370
-1
  6
BYLAYER
 10
15.6771840829369467
 20
-22.4235549391070492
 30
0.0
 11
15.6771840829369467
 21
-21.5751784835495357
 31
0.0
  0
LINE
  5
1CF
100
AcDbEntity
100
AcDbLine
  8
PCB
 62
256
370
-1
  6
BYLAYER
 10
15.6771840829369467
 20
-21.5751784835495357
 30
0.0
 11
16.9268883228601226
 21
-21.5751784835495357
 31
0.0
  0
LINE
  5
1D0
100
AcDbEntity
100
AcDbLine
  8
PCB
 62
256
370
-1
  6
BYLAYER
 10
16.9268883228601226
 20
-21.5751784835495357
 30
0.0
 11
16.9268883228601226
 21
-22.4235549391070492
 31
0.0
  0
LINE
  5
1D1
100
AcDbEntity
100
AcDbLine
  8
PCB
 62
256
370
-1
  6
BYLAYER
 10
19.3246948319806506
 20
-21.4735765128240814
 30
0.0
 11
18.0749905920577021
 21
-21.4735765128240814
 31
0.0
  0
LINE
  5
1D2
100
AcDbEntity
100
AcDbLine
  8
PCB
 62
256
370
-1
  6
BYLAYER
 10
18.0749905920577021
 20
-21.4735765128240814
 30
0.0
 11
18.0749905920577021
 21
-20.6252000572665679
 31
0.0
  0
LINE
  5
1D3
100
AcDbEntity
100
AcDbLine
  8
PCB
 62
256
370
-1
  6
BYLAYER
 10
18.0749905920577021
 20
-20.6252000572665679
 30
0.0
 11
19.3246948319806506
 21
-20.6252000572665679
 31
0.0
  0
LINE
  5
1D4
100
AcDbEntity
100
AcDbLine
  8
PCB
 62
256
370
-1
  6
BYLAYER
 10
19.3246948319806506
 20
-20.6252000572665679
 30
0.0
 11
19.3246948319806506
 21
-21.4735765128240814
 31
0.0
  0
LINE
  5
1D5
100
AcDbEntity
100
AcDbLine
  8
PCB
 62
256
370
-1
  6
BYLAYER
 10
19.3246948319806506
 20
-23.373533365390017
 30
0.0
 11
18.0749905920577021
 21
-23.373533365390017
 31
0.0
  0
LINE
  5
1D6
100
AcDbEntity
100
AcDbLine
  8
PCB
 62
256
370
-1
  6
BYLAYER
 10
18.0749905920577021
 20
-23.373533365390017
 30
0.0
 11
18.0749905920577021
 21
-22.5251569098324751
 31
0.0
  0
LINE
  5
1D7
100
AcDbEntity
100
AcDbLine
  8
PCB
 62
256
370
-1
  6
BYLAYER
 10
18.0749905920577021
 20
-22.5251569098324751
 30
0.0
 11
19.3246948319806506
 21
-22.5251569098324751
 31
0.0
  0
LINE
  5
1D8
100
AcDbEntity
100
AcDbLine
  8
PCB
 62
256
370
-1
  6
BYLAYER
 10
19.3246948319806506
 20
-22.5251569098324751
 30
0.0
 11
19.3246948319806506
 21
-23.373533365390017
 31
0.0
  0
LINE
  5
1D9
100
AcDbEntity
100
AcDbLine
  8
PCB
 62
256
370
-1
  6
BYLAYER
 10
11.9255313138997963
 20
-22.4235549391070492
 30
0.0
 11
10.675827073976734
 21
-22.4235549391070492
 31
0.0
  0
LINE
  5
1DA
100
AcDbEntity
100
AcDbLine
  8
PCB
 62
256
370
-1
  6
BYLAYER
 10
10.675827073976734
 20
-22.4235549391070492
 30
0.0
 11
10.675827073976734
 21
-21.5751784835495357
 31
0.0
  0
LINE
  5
1DB
100
AcDbEntity
100
AcDbLine
  8
PCB
 62
256
370
-1
  6
BYLAYER
 10
10.675827073976734
 20
-21.5751784835495357
 30
0.0
 11
11.9255313138997963
 21
-21.5751784835495357
 31
0.0
  0
LINE
  5
1DC
100
AcDbEntity
100
AcDbLine
  8
PCB
 62
256
370
-1
  6
BYLAYER
 10
11.9255313138997963
 20
-21.5751784835495357
 30
0.0
 11
11.9255313138997963
 21
-22.4235549391070492
 31
0.0
  0
LINE
  5
1DD
100
AcDbEntity
100
AcDbLine
  8
PCB
 62
256
370
-1
  6
BYLAYER
 10
14.323337823020438
 20
-21.4735765128240814
 30
0.0
 11
13.0736335830974895
 21
-21.4735765128240814
 31
0.0
  0
LINE
  5
1DE
100
AcDbEntity
100
AcDbLine
  8
PCB
 62
256
370
-1
  6
BYLAYER
 10
13.0736335830974895
 20
-21.4735765128240814
 30
0.0
 11
13.0736335830974895
 21
-20.6252000572665679
 31
0.0
  0
LINE
  5
1DF
100
AcDbEntity
100
AcDbLine
  8
PCB
 62
256
370
-1
  6
BYLAYER
 10
13.0736335830974895
 20
-20.6252000572665679
 30
0.0
 11
14.323337823020438
 21
-20.6252000572665679
 31
0.0
  0
LINE
  5
1E0
100
AcDbEntity
100
AcDbLine
  8
PCB
 62
256
370
-1
  6
BYLAYER
 10
14.323337823020438
 20
-20.6252000572665679
 30
0.0
 11
14.323337823020438
 21
-21.4735765128240814
 31
0.0
  0
LINE
  5
1E1
100
AcDbEntity
100
AcDbLine
  8
PCB
 62
256
370
-1
  6
BYLAYER
 10
14.323337823020438
 20
-23.373533365390017
 30
0.0
 11
13.0736335830974895
 21
-23.373533365390017
 31
0.0
  0
LINE
  5
1E2
100
AcDbEntity
100
AcDbLine
  8
PCB
 62
256
370
-1
  6
BYLAYER
 10
13.0736335830974895
 20
-23.373533365390017
 30
0.0
 11
13.0736335830974895
 21
-22.5251569098324751
 31
0.0
  0
LINE
  5
1E3
100
AcDbEntity
100
AcDbLine
  8
PCB
 62
256
370
-1
  6
BYLAYER
 10
13.0736335830974895
 20
-22.5251569098324751
 30
0.0
 11
14.323337823020438
 21
-22.5251569098324751
 31
0.0
  0
LINE
  5
1E4
100
AcDbEntity
100
AcDbLine
  8
PCB
 62
256
370
-1
  6
BYLAYER
 10
14.323337823020438
 20
-22.5251569098324751
 30
0.0
 11
14.323337823020438
 21
-23.373533365390017
 31
0.0
  0
LINE
  5
1E5
100
AcDbEntity
100
AcDbLine
  8
PCB
 62
256
370
-1
  6
BYLAYER
 10
6.9267143542076042
 20
-22.4235549391070492
 30
0.0
 11
5.6770101142845419
 21
-22.4235549391070492
 31
0.0
  0
LINE
  5
1E6
100
AcDbEntity
100
AcDbLine
  8
PCB
 62
256
370
-1
  6
BYLAYER
 10
5.6770101142845419
 20
-22.4235549391070492
 30
0.0
 11
5.6770101142845419
 21
-21.5751784835495357
 31
0.0
  0
LINE
  5
1E7
100
AcDbEntity
100
AcDbLine
  8
PCB
 62
256
370
-1
  6
BYLAYER
 10
5.6770101142845419
 20
-21.5751784835495357
 30
0.0
 11
6.9267143542076042
 21
-21.5751784835495357
 31
0.0
  0
LINE
  5
1E8
100
AcDbEntity
100
AcDbLine
  8
PCB
 62
256
370
-1
  6
BYLAYER
 10
6.9267143542076042
 20
-21.5751784835495357
 30
0.0
 11
6.9267143542076042
 21
-22.4235549391070492
 31
0.0
  0
LINE
  5
1E9
100
AcDbEntity
100
AcDbLine
  8
PCB
 62
256
370
-1
  6
BYLAYER
 10
9.3245208633282459
 20
-21.4735765128240814
 30
0.0
 11
8.0748166234051837
 21
-21.4735765128240814
 31
0.0
  0
LINE
  5
1EA
100
AcDbEntity
100
AcDbLine
  8
PCB
 62
256
370
-1
  6
BYLAYER
 10
8.0748166234051837
 20
-21.4735765128240814
 30
0.0
 11
8.0748166234051837
 21
-20.6252000572665679
 31
0.0
  0
LINE
  5
1EB
100
AcDbEntity
100
AcDbLine
  8
PCB
 62
256
370
-1
  6
BYLAYER
 10
8.0748166234051837
 20
-20.6252000572665679
 30
0.0
 11
9.3245208633282459
 21
-20.6252000572665679
 31
0.0
  0
LINE
  5
1EC
100
AcDbEntity
100
AcDbLine
  8
PCB
 62
256
370
-1
  6
BYLAYER
 10
9.3245208633282459
 20
-20.6252000572665679
 30
0.0
 11
9.3245208633282459
 21
-21.4735765128240814
 31
0.0
  0
LINE
  5
1ED
100
AcDbEntity
100
AcDbLine
  8
PCB
 62
256
370
-1
  6
BYLAYER
 10
9.3245208633282459
 20
-23.373533365390017
 30
0.0
 11
8.0748166234051837
 21
-23.373533365390017
 31
0.0
  0
LINE
  5
1EE
100
AcDbEntity
100
AcDbLine
  8
PCB
 62
256
370
-1
  6
BYLAYER
 10
8.0748166234051837
 20
-23.373533365390017
 30
0.0
 11
8.0748166234051837
 21
-22.5251569098324751
 31
0.0
  0
LINE
  5
1EF
100
AcDbEntity
100
AcDbLine
  8
PCB
 62
256
370
-1
  6
BYLAYER
 10
8.0748166234051837
 20
-22.5251569098324751
 30
0.0
 11
9.3245208633282459
 21
-22.5251569098324751
 31
0.0
  0
LINE
  5
1F0
100
AcDbEntity
100
AcDbLine
  8
PCB
 62
256
370
-1
  6
BYLAYER
 10
9.3245208633282459
 20
-22.5251569098324751
 30
0.0
 11
9.3245208633282459
 21
-23.373533365390017
 31
0.0
  0
LINE
  5
1F1
100
AcDbEntity
100
AcDbLine
  8
PCB
 62
256
370
-1
  6
BYLAYER
 10
57.8039011949770156
 20
-14.5443221093482578
 30
0.0
 11
55.8556834063165297
 21
-14.5443221093482578
 31
0.0
  0
LINE
  5
1F2
100
AcDbEntity
100
AcDbLine
  8
PCB
 62
256
370
-1
  6
BYLAYER
 10
55.8556834063165297
 20
-14.5443221093482578
 30
0.0
 11
55.8556834063165297
 21
-13.3962198401506498
 31
0.0
  0
LINE
  5
1F3
100
AcDbEntity
100
AcDbLine
  8
PCB
 62
256
370
-1
  6
BYLAYER
 10
55.8556834063165297
 20
-13.3962198401506498
 30
0.0
 11
57.8039011949770156
 21
-13.3962198401506498
 31
0.0
  0
LINE
  5
1F4
100
AcDbEntity
100
AcDbLine
  8
PCB
 62
256
370
-1
  6
BYLAYER
 10
57.8039011949770156
 20
-13.3962198401506498
 30
0.0
 11
57.8039011949770156
 21
-14.5443221093482578
 31
0.0
  0
LINE
  5
1F5
100
AcDbEntity
100
AcDbLine
  8
PCB
 62
256
370
-1
  6
BYLAYER
 10
64.0041614584977197
 20
-13.3454188547879369
 30
0.0
 11
62.0559436698372338
 21
-13.3454188547879369
 31
0.0
  0
LINE
  5
1F6
100
AcDbEntity
100
AcDbLine
  8
PCB
 62
256
370
-1
  6
BYLAYER
 10
62.0559436698372338
 20
-13.3454188547879369
 30
0.0
 11
62.0559436698372338
 21
-12.1973165855903289
 31
0.0
  0
LINE
  5
1F7
100
AcDbEntity
100
AcDbLine
  8
PCB
 62
256
370
-1
  6
BYLAYER
 10
62.0559436698372338
 20
-12.1973165855903289
 30
0.0
 11
64.0041614584977197
 21
-12.1973165855903289
 31
0.0
  0
LINE
  5
1F8
100
AcDbEntity
100
AcDbLine
  8
PCB
 62
256
370
-1
  6
BYLAYER
 10
64.0041614584977197
 20
-12.1973165855903289
 30
0.0
 11
64.0041614584977197
 21
-13.3454188547879369
 31
0.0
  0
LINE
  5
1F9
100
AcDbEntity
100
AcDbLine
  8
PCB
 62
256
370
-1
  6
BYLAYER
 10
64.0041614584977197
 20
-15.7432253639085786
 30
0.0
 11
62.0559436698372338
 21
-15.7432253639085786
 31
0.0
  0
LINE
  5
1FA
100
AcDbEntity
100
AcDbLine
  8
PCB
 62
256
370
-1
  6
BYLAYER
 10
62.0559436698372338
 20
-15.7432253639085786
 30
0.0
 11
62.0559436698372338
 21
-14.5951230947109707
 31
0.0
  0
LINE
  5
1FB
100
AcDbEntity
100
AcDbLine
  8
PCB
 62
256
370
-1
  6
BYLAYER
 10
62.0559436698372338
 20
-14.5951230947109707
 30
0.0
 11
64.0041614584977197
 21
-14.5951230947109707
 31
0.0
  0
LINE
  5
1FC
100
AcDbEntity
100
AcDbLine
  8
PCB
 62
256
370
-1
  6
BYLAYER
 10
64.0041614584977197
 20
-14.5951230947109707
 30
0.0
 11
64.0041614584977197
 21
-15.7432253639085786
 31
0.0
  0
LINE
  5
1FD
100
AcDbEntity
100
AcDbLine
  8
PCB
 62
256
370
-1
  6
BYLAYER
 10
52.6831618704143239
 20
-9.1060766262685036
 30
0.0
 11
54.6339197083430008
 21
-9.1060766262685036
 31
0.0
  0
LINE
  5
1FE
100
AcDbEntity
100
AcDbLine
  8
PCB
 62
256
370
-1
  6
BYLAYER
 10
54.6339197083430008
 20
-9.1060766262685036
 30
0.0
 11
54.6339197083430008
 21
-10.2567189447342173
 31
0.0
  0
LINE
  5
1FF
100
AcDbEntity
100
AcDbLine
  8
PCB
 62
256
370
-1
  6
BYLAYER
 10
54.6339197083430008
 20
-10.2567189447342173
 30
0.0
 11
52.6831618704143239
 21
-10.2567189447342173
 31
0.0
  0
LINE
  5
200
100
AcDbEntity
100
AcDbLine
  8
PCB
 62
256
370
-1
  6
BYLAYER
 10
52.6831618704143239
 20
-10.2567189447342173
 30
0.0
 11
52.6831618704143239
 21
-9.1060766262685036
 31
0.0
  0
LINE
  5
201
100
AcDbEntity
100
AcDbLine
  8
PCB
 62
256
370
-1
  6
BYLAYER
 10
46.4829016068938472
 20
-10.3049798808288529
 30
0.0
 11
48.4336594448225242
 21
-10.3049798808288529
 31
0.0
  0
LINE
  5
202
100
AcDbEntity
100
AcDbLine
  8
PCB
 62
256
370
-1
  6
BYLAYER
 10
48.4336594448225242
 20
-10.3049798808288529
 30
0.0
 11
48.4336594448225242
 21
-11.4556221992945666
 31
0.0
  0
LINE
  5
203
100
AcDbEntity
100
AcDbLine
  8
PCB
 62
256
370
-1
  6
BYLAYER
 10
48.4336594448225242
 20
-11.4556221992945666
 30
0.0
 11
46.4829016068938472
 21
-11.4556221992945666
 31
0.0
  0
LINE
  5
204
100
AcDbEntity
100
AcDbLine
  8
PCB
 62
256
370
-1
  6
BYLAYER
 10
46.4829016068938472
 20
-11.4556221992945666
 30
0.0
 11
46.4829016068938472
 21
-10.3049798808288529
 31
0.0
  0
LINE
  5
205
100
AcDbEntity
100
AcDbLine
  8
PCB
 62
256
370
-1
  6
BYLAYER
 10
46.4829016068938472
 20
-7.9071733717081827
 30
0.0
 11
48.4336594448225242
 21
-7.9071733717081827
 31
0.0
  0
LINE
  5
206
100
AcDbEntity
100
AcDbLine
  8
PCB
 62
256
370
-1
  6
BYLAYER
 10
48.4336594448225242
 20
-7.9071733717081827
 30
0.0
 11
48.4336594448225242
 21
-9.0578156901738964
 31
0.0
  0
LINE
  5
207
100
AcDbEntity
100
AcDbLine
  8
PCB
 62
256
370
-1
  6
BYLAYER
 10
48.4336594448225242
 20
-9.0578156901738964
 30
0.0
 11
46.4829016068938472
 21
-9.0578156901738964
 31
0.0
  0
LINE
  5
208
100
AcDbEntity
100
AcDbLine
  8
PCB
 62
256
370
-1
  6
BYLAYER
 10
46.4829016068938472
 20
-9.0578156901738964
 30
0.0
 11
46.4829016068938472
 21
-7.9071733717081827
 31
0.0
  0
LINE
  5
209
100
AcDbEntity
100
AcDbLine
  8
PCB
 62
256
370
-1
  6
BYLAYER
 10
57.8039011949770156
 20
-8.1941989390076344
 30
0.0
 11
55.8556834063165297
 21
-8.1941989390076344
 31
0.0
  0
LINE
  5
20A
100
AcDbEntity
100
AcDbLine
  8
PCB
 62
256
370
-1
  6
BYLAYER
 10
55.8556834063165297
 20
-8.1941989390076344
 30
0.0
 11
55.8556834063165297
 21
-7.0460966698100265
 31
0.0
  0
LINE
  5
20B
100
AcDbEntity
100
AcDbLine
  8
PCB
 62
256
370
-1
  6
BYLAYER
 10
55.8556834063165297
 20
-7.0460966698100265
 30
0.0
 11
57.8039011949770156
 21
-7.0460966698100265
 31
0.0
  0
LINE
  5
20C
100
AcDbEntity
100
AcDbLine
  8
PCB
 62
256
370
-1
  6
BYLAYER
 10
57.8039011949770156
 20
-7.0460966698100265
 30
0.0
 11
57.8039011949770156
 21
-8.1941989390076344
 31
0.0
  0
LINE
  5
20D
100
AcDbEntity
100
AcDbLine
  8
PCB
 62
256
370
-1
  6
BYLAYER
 10
64.0041614584977197
 20
-6.9952956844473135
 30
0.0
 11
62.0559436698372338
 21
-6.9952956844473135
 31
0.0
  0
LINE
  5
20E
100
AcDbEntity
100
AcDbLine
  8
PCB
 62
256
370
-1
  6
BYLAYER
 10
62.0559436698372338
 20
-6.9952956844473135
 30
0.0
 11
62.0559436698372338
 21
-5.8471934152496772
 31
0.0
  0
LINE
  5
20F
100
AcDbEntity
100
AcDbLine
  8
PCB
 62
256
370
-1
  6
BYLAYER
 10
62.0559436698372338
 20
-5.8471934152496772
 30
0.0
 11
64.0041614584977197
 21
-5.8471934152496772
 31
0.0
  0
LINE
  5
210
100
AcDbEntity
100
AcDbLine
  8
PCB
 62
256
370
-1
  6
BYLAYER
 10
64.0041614584977197
 20
-5.8471934152496772
 30
0.0
 11
64.0041614584977197
 21
-6.9952956844473135
 31
0.0
  0
LINE
  5
211
100
AcDbEntity
100
AcDbLine
  8
PCB
 62
256
370
-1
  6
BYLAYER
 10
64.0041614584977197
 20
-9.3931021935679553
 30
0.0
 11
62.0559436698372338
 21
-9.3931021935679553
 31
0.0
  0
LINE
  5
212
100
AcDbEntity
100
AcDbLine
  8
PCB
 62
256
370
-1
  6
BYLAYER
 10
62.0559436698372338
 20
-9.3931021935679553
 30
0.0
 11
62.0559436698372338
 21
-8.2449999243703473
 31
0.0
  0
LINE
  5
213
100
AcDbEntity
100
AcDbLine
  8
PCB
 62
256
370
-1
  6
BYLAYER
 10
62.0559436698372338
 20
-8.2449999243703473
 30
0.0
 11
64.0041614584977197
 21
-8.2449999243703473
 31
0.0
  0
LINE
  5
214
100
AcDbEntity
100
AcDbLine
  8
PCB
 62
256
370
-1
  6
BYLAYER
 10
64.0041614584977197
 20
-8.2449999243703473
 30
0.0
 11
64.0041614584977197
 21
-9.3931021935679553
 31
0.0
  0
LINE
  5
215
100
AcDbEntity
100
AcDbLine
  8
PCB
 62
256
370
-1
  6
BYLAYER
 10
72.9375147345331243
 20
-4.7905329197049582
 30
0.0
 11
72.9375147345331243
 21
-6.7717713488513596
 31
0.0
  0
LINE
  5
216
100
AcDbEntity
100
AcDbLine
  8
PCB
 62
256
370
-1
  6
BYLAYER
 10
72.9375147345331243
 20
-6.7717713488513596
 30
0.0
 11
71.4642861590139091
 21
-6.7717713488513596
 31
0.0
  0
LINE
  5
217
100
AcDbEntity
100
AcDbLine
  8
PCB
 62
256
370
-1
  6
BYLAYER
 10
71.4642861590139091
 20
-6.7717713488513596
 30
0.0
 11
71.4642861590139091
 21
-4.7905329197049582
 31
0.0
  0
LINE
  5
218
100
AcDbEntity
100
AcDbLine
  8
PCB
 62
256
370
-1
  6
BYLAYER
 10
71.4642861590139091
 20
-4.7905329197049582
 30
0.0
 11
72.9375147345331243
 21
-4.7905329197049582
 31
0.0
  0
LINE
  5
219
100
AcDbEntity
100
AcDbLine
  8
PCB
 62
256
370
-1
  6
BYLAYER
 10
69.6354506859559024
 20
-4.7905329197049582
 30
0.0
 11
69.6354506859559024
 21
-6.7717713488513596
 31
0.0
  0
LINE
  5
21A
100
AcDbEntity
100
AcDbLine
  8
PCB
 62
256
370
-1
  6
BYLAYER
 10
69.6354506859559024
 20
-6.7717713488513596
 30
0.0
 11
68.1622221104369146
 21
-6.7717713488513596
 31
0.0
  0
LINE
  5
21B
100
AcDbEntity
100
AcDbLine
  8
PCB
 62
256
370
-1
  6
BYLAYER
 10
68.1622221104369146
 20
-6.7717713488513596
 30
0.0
 11
68.1622221104369146
 21
-4.7905329197049582
 31
0.0
  0
LINE
  5
21C
100
AcDbEntity
100
AcDbLine
  8
PCB
 62
256
370
-1
  6
BYLAYER
 10
68.1622221104369146
 20
-4.7905329197049582
 30
0.0
 11
69.6354506859559024
 21
-4.7905329197049582
 31
0.0
  0
LINE
  5
21D
100
AcDbEntity
100
AcDbLine
  8
PCB
 62
256
370
-1
  6
BYLAYER
 10
79.0539533722051146
 20
-23.955204647793181
 30
0.0
 11
79.0539533722051146
 21
-25.0474258330917507
 31
0.0
  0
LINE
  5
21E
100
AcDbEntity
100
AcDbLine
  8
PCB
 62
256
370
-1
  6
BYLAYER
 10
79.0539533722051146
 20
-25.0474258330917507
 30
0.0
 11
78.4697420405339017
 21
-25.0474258330917507
 31
0.0
  0
LINE
  5
21F
100
AcDbEntity
100
AcDbLine
  8
PCB
 62
256
370
-1
  6
BYLAYER
 10
78.4697420405339017
 20
-25.0474258330917507
 30
0.0
 11
78.4697420405339017
 21
-23.955204647793181
 31
0.0
  0
LINE
  5
220
100
AcDbEntity
100
AcDbLine
  8
PCB
 62
256
370
-1
  6
BYLAYER
 10
78.4697420405339017
 20
-23.955204647793181
 30
0.0
 11
79.0539533722051146
 21
-23.955204647793181
 31
0.0
  0
LINE
  5
221
100
AcDbEntity
100
AcDbLine
  8
PCB
 62
256
370
-1
  6
BYLAYER
 10
77.5299238113234424
 20
-23.955204647793181
 30
0.0
 11
77.5299238113234424
 21
-25.0474258330917507
 31
0.0
  0
LINE
  5
222
100
AcDbEntity
100
AcDbLine
  8
PCB
 62
256
370
-1
  6
BYLAYER
 10
77.5299238113234424
 20
-25.0474258330917507
 30
0.0
 11
76.945712479652002
 21
-25.0474258330917507
 31
0.0
  0
LINE
  5
223
100
AcDbEntity
100
AcDbLine
  8
PCB
 62
256
370
-1
  6
BYLAYER
 10
76.945712479652002
 20
-25.0474258330917507
 30
0.0
 11
76.945712479652002
 21
-23.955204647793181
 31
0.0
  0
LINE
  5
224
100
AcDbEntity
100
AcDbLine
  8
PCB
 62
256
370
-1
  6
BYLAYER
 10
76.945712479652002
 20
-23.955204647793181
 30
0.0
 11
77.5299238113234424
 21
-23.955204647793181
 31
0.0
  0
LINE
  5
225
100
AcDbEntity
100
AcDbLine
  8
PCB
 62
256
370
-1
  6
BYLAYER
 10
74.052596363244902
 20
-23.955204647793181
 30
0.0
 11
74.052596363244902
 21
-25.0474258330917507
 31
0.0
  0
LINE
  5
226
100
AcDbEntity
100
AcDbLine
  8
PCB
 62
256
370
-1
  6
BYLAYER
 10
74.052596363244902
 20
-25.0474258330917507
 30
0.0
 11
73.4683850315734617
 21
-25.0474258330917507
 31
0.0
  0
LINE
  5
227
100
AcDbEntity
100
AcDbLine
  8
PCB
 62
256
370
-1
  6
BYLAYER
 10
73.4683850315734617
 20
-25.0474258330917507
 30
0.0
 11
73.4683850315734617
 21
-23.955204647793181
 31
0.0
  0
LINE
  5
228
100
AcDbEntity
100
AcDbLine
  8
PCB
 62
256
370
-1
  6
BYLAYER
 10
73.4683850315734617
 20
-23.955204647793181
 30
0.0
 11
74.052596363244902
 21
-23.955204647793181
 31
0.0
  0
LINE
  5
229
100
AcDbEntity
100
AcDbLine
  8
PCB
 62
256
370
-1
  6
BYLAYER
 10
72.5285668023630024
 20
-23.955204647793181
 30
0.0
 11
72.5285668023630024
 21
-25.0474258330917507
 31
0.0
  0
LINE
  5
22A
100
AcDbEntity
100
AcDbLine
  8
PCB
 62
256
370
-1
  6
BYLAYER
 10
72.5285668023630024
 20
-25.0474258330917507
 30
0.0
 11
71.9443554706917894
 21
-25.0474258330917507
 31
0.0
  0
LINE
  5
22B
100
AcDbEntity
100
AcDbLine
  8
PCB
 62
256
370
-1
  6
BYLAYER
 10
71.9443554706917894
 20
-25.0474258330917507
 30
0.0
 11
71.9443554706917894
 21
-23.955204647793181
 31
0.0
  0
LINE
  5
22C
100
AcDbEntity
100
AcDbLine
  8
PCB
 62
256
370
-1
  6
BYLAYER
 10
71.9443554706917894
 20
-23.955204647793181
 30
0.0
 11
72.5285668023630024
 21
-23.955204647793181
 31
0.0
  0
LINE
  5
22D
100
AcDbEntity
100
AcDbLine
  8
PCB
 62
256
370
-1
  6
BYLAYER
 10
69.0537794035526531
 20
-23.955204647793181
 30
0.0
 11
69.0537794035526531
 21
-25.0474258330917507
 31
0.0
  0
LINE
  5
22E
100
AcDbEntity
100
AcDbLine
  8
PCB
 62
256
370
-1
  6
BYLAYER
 10
69.0537794035526531
 20
-25.0474258330917507
 30
0.0
 11
68.4695680718812127
 21
-25.0474258330917507
 31
0.0
  0
LINE
  5
22F
100
AcDbEntity
100
AcDbLine
  8
PCB
 62
256
370
-1
  6
BYLAYER
 10
68.4695680718812127
 20
-25.0474258330917507
 30
0.0
 11
68.4695680718812127
 21
-23.955204647793181
 31
0.0
  0
LINE
  5
230
100
AcDbEntity
100
AcDbLine
  8
PCB
 62
256
370
-1
  6
BYLAYER
 10
68.4695680718812127
 20
-23.955204647793181
 30
0.0
 11
69.0537794035526531
 21
-23.955204647793181
 31
0.0
  0
LINE
  5
231
100
AcDbEntity
100
AcDbLine
  8
PCB
 62
256
370
-1
  6
BYLAYER
 10
67.5297498426709808
 20
-23.955204647793181
 30
0.0
 11
67.5297498426709808
 21
-25.0474258330917507
 31
0.0
  0
LINE
  5
232
100
AcDbEntity
100
AcDbLine
  8
PCB
 62
256
370
-1
  6
BYLAYER
 10
67.5297498426709808
 20
-25.0474258330917507
 30
0.0
 11
66.9455385109995404
 21
-25.0474258330917507
 31
0.0
  0
LINE
  5
233
100
AcDbEntity
100
AcDbLine
  8
PCB
 62
256
370
-1
  6
BYLAYER
 10
66.9455385109995404
 20
-25.0474258330917507
 30
0.0
 11
66.9455385109995404
 21
-23.955204647793181
 31
0.0
  0
LINE
  5
234
100
AcDbEntity
100
AcDbLine
  8
PCB
 62
256
370
-1
  6
BYLAYER
 10
66.9455385109995404
 20
-23.955204647793181
 30
0.0
 11
67.5297498426709808
 21
-23.955204647793181
 31
0.0
  0
LINE
  5
235
100
AcDbEntity
100
AcDbLine
  8
PCB
 62
256
370
-1
  6
BYLAYER
 10
64.0524223945924405
 20
-23.955204647793181
 30
0.0
 11
64.0524223945924405
 21
-25.0474258330917507
 31
0.0
  0
LINE
  5
236
100
AcDbEntity
100
AcDbLine
  8
PCB
 62
256
370
-1
  6
BYLAYER
 10
64.0524223945924405
 20
-25.0474258330917507
 30
0.0
 11
63.4682110629210001
 21
-25.0474258330917507
 31
0.0
  0
LINE
  5
237
100
AcDbEntity
100
AcDbLine
  8
PCB
 62
256
370
-1
  6
BYLAYER
 10
63.4682110629210001
 20
-25.0474258330917507
 30
0.0
 11
63.4682110629210001
 21
-23.955204647793181
 31
0.0
  0
LINE
  5
238
100
AcDbEntity
100
AcDbLine
  8
PCB
 62
256
370
-1
  6
BYLAYER
 10
63.4682110629210001
 20
-23.955204647793181
 30
0.0
 11
64.0524223945924405
 21
-23.955204647793181
 31
0.0
  0
LINE
  5
239
100
AcDbEntity
100
AcDbLine
  8
PCB
 62
256
370
-1
  6
BYLAYER
 10
62.5283928337105408
 20
-23.955204647793181
 30
0.0
 11
62.5283928337105408
 21
-25.0474258330917507
 31
0.0
  0
LINE
  5
23A
100
AcDbEntity
100
AcDbLine
  8
PCB
 62
256
370
-1
  6
BYLAYER
 10
62.5283928337105408
 20
-25.0474258330917507
 30
0.0
 11
61.9441815020393278
 21
-25.0474258330917507
 31
0.0
  0
LINE
  5
23B
100
AcDbEntity
100
AcDbLine
  8
PCB
 62
256
370
-1
  6
BYLAYER
 10
61.9441815020393278
 20
-25.0474258330917507
 30
0.0
 11
61.9441815020393278
 21
-23.955204647793181
 31
0.0
  0
LINE
  5
23C
100
AcDbEntity
100
AcDbLine
  8
PCB
 62
256
370
-1
  6
BYLAYER
 10
61.9441815020393278
 20
-23.955204647793181
 30
0.0
 11
62.5283928337105408
 21
-23.955204647793181
 31
0.0
  0
LINE
  5
23D
100
AcDbEntity
100
AcDbLine
  8
PCB
 62
256
370
-1
  6
BYLAYER
 10
59.0536054349001915
 20
-23.955204647793181
 30
0.0
 11
59.0536054349001915
 21
-25.0474258330917507
 31
0.0
  0
LINE
  5
23E
100
AcDbEntity
100
AcDbLine
  8
PCB
 62
256
370
-1
  6
BYLAYER
 10
59.0536054349001915
 20
-25.0474258330917507
 30
0.0
 11
58.4693941032287512
 21
-25.0474258330917507
 31
0.0
  0
LINE
  5
23F
100
AcDbEntity
100
AcDbLine
  8
PCB
 62
256
370
-1
  6
BYLAYER
 10
58.4693941032287512
 20
-25.0474258330917507
 30
0.0
 11
58.4693941032287512
 21
-23.955204647793181
 31
0.0
  0
LINE
  5
240
100
AcDbEntity
100
AcDbLine
  8
PCB
 62
256
370
-1
  6
BYLAYER
 10
58.4693941032287512
 20
-23.955204647793181
 30
0.0
 11
59.0536054349001915
 21
-23.955204647793181
 31
0.0
  0
LINE
  5
241
100
AcDbEntity
100
AcDbLine
  8
PCB
 62
256
370
-1
  6
BYLAYER
 10
57.5295758740182919
 20
-23.955204647793181
 30
0.0
 11
57.5295758740182919
 21
-25.0474258330917507
 31
0.0
  0
LINE
  5
242
100
AcDbEntity
100
AcDbLine
  8
PCB
 62
256
370
-1
  6
BYLAYER
 10
57.5295758740182919
 20
-25.0474258330917507
 30
0.0
 11
56.9453645423470789
 21
-25.0474258330917507
 31
0.0
  0
LINE
  5
243
100
AcDbEntity
100
AcDbLine
  8
PCB
 62
256
370
-1
  6
BYLAYER
 10
56.9453645423470789
 20
-25.0474258330917507
 30
0.0
 11
56.9453645423470789
 21
-23.955204647793181
 31
0.0
  0
LINE
  5
244
100
AcDbEntity
100
AcDbLine
  8
PCB
 62
256
370
-1
  6
BYLAYER
 10
56.9453645423470789
 20
-23.955204647793181
 30
0.0
 11
57.5295758740182919
 21
-23.955204647793181
 31
0.0
  0
LINE
  5
245
100
AcDbEntity
100
AcDbLine
  8
PCB
 62
256
370
-1
  6
BYLAYER
 10
54.0522484259397515
 20
-23.955204647793181
 30
0.0
 11
54.0522484259397515
 21
-25.0474258330917507
 31
0.0
  0
LINE
  5
246
100
AcDbEntity
100
AcDbLine
  8
PCB
 62
256
370
-1
  6
BYLAYER
 10
54.0522484259397515
 20
-25.0474258330917507
 30
0.0
 11
53.4680370942685386
 21
-25.0474258330917507
 31
0.0
  0
LINE
  5
247
100
AcDbEntity
100
AcDbLine
  8
PCB
 62
256
370
-1
  6
BYLAYER
 10
53.4680370942685386
 20
-25.0474258330917507
 30
0.0
 11
53.4680370942685386
 21
-23.955204647793181
 31
0.0
  0
LINE
  5
248
100
AcDbEntity
100
AcDbLine
  8
PCB
 62
256
370
-1
  6
BYLAYER
 10
53.4680370942685386
 20
-23.955204647793181
 30
0.0
 11
54.0522484259397515
 21
-23.955204647793181
 31
0.0
  0
LINE
  5
249
100
AcDbEntity
100
AcDbLine
  8
PCB
 62
256
370
-1
  6
BYLAYER
 10
52.5282188650580792
 20
-23.955204647793181
 30
0.0
 11
52.5282188650580792
 21
-25.0474258330917507
 31
0.0
  0
LINE
  5
24A
100
AcDbEntity
100
AcDbLine
  8
PCB
 62
256
370
-1
  6
BYLAYER
 10
52.5282188650580792
 20
-25.0474258330917507
 30
0.0
 11
51.9440075333866389
 21
-25.0474258330917507
 31
0.0
  0
LINE
  5
24B
100
AcDbEntity
100
AcDbLine
  8
PCB
 62
256
370
-1
  6
BYLAYER
 10
51.9440075333866389
 20
-25.0474258330917507
 30
0.0
 11
51.9440075333866389
 21
-23.955204647793181
 31
0.0
  0
LINE
  5
24C
100
AcDbEntity
100
AcDbLine
  8
PCB
 62
256
370
-1
  6
BYLAYER
 10
51.9440075333866389
 20
-23.955204647793181
 30
0.0
 11
52.5282188650580792
 21
-23.955204647793181
 31
0.0
  0
LINE
  5
24D
100
AcDbEntity
100
AcDbLine
  8
PCB
 62
256
370
-1
  6
BYLAYER
 10
49.05343146624773
 20
-23.955204647793181
 30
0.0
 11
49.05343146624773
 21
-25.0474258330917507
 31
0.0
  0
LINE
  5
24E
100
AcDbEntity
100
AcDbLine
  8
PCB
 62
256
370
-1
  6
BYLAYER
 10
49.05343146624773
 20
-25.0474258330917507
 30
0.0
 11
48.4692201345762896
 21
-25.0474258330917507
 31
0.0
  0
LINE
  5
24F
100
AcDbEntity
100
AcDbLine
  8
PCB
 62
256
370
-1
  6
BYLAYER
 10
48.4692201345762896
 20
-25.0474258330917507
 30
0.0
 11
48.4692201345762896
 21
-23.955204647793181
 31
0.0
  0
LINE
  5
250
100
AcDbEntity
100
AcDbLine
  8
PCB
 62
256
370
-1
  6
BYLAYER
 10
48.4692201345762896
 20
-23.955204647793181
 30
0.0
 11
49.05343146624773
 21
-23.955204647793181
 31
0.0
  0
LINE
  5
251
100
AcDbEntity
100
AcDbLine
  8
PCB
 62
256
370
-1
  6
BYLAYER
 10
47.5294019053658303
 20
-23.955204647793181
 30
0.0
 11
47.5294019053658303
 21
-25.0474258330917507
 31
0.0
  0
LINE
  5
252
100
AcDbEntity
100
AcDbLine
  8
PCB
 62
256
370
-1
  6
BYLAYER
 10
47.5294019053658303
 20
-25.0474258330917507
 30
0.0
 11
46.9451905736946173
 21
-25.0474258330917507
 31
0.0
  0
LINE
  5
253
100
AcDbEntity
100
AcDbLine
  8
PCB
 62
256
370
-1
  6
BYLAYER
 10
46.9451905736946173
 20
-25.0474258330917507
 30
0.0
 11
46.9451905736946173
 21
-23.955204647793181
 31
0.0
  0
LINE
  5
254
100
AcDbEntity
100
AcDbLine
  8
PCB
 62
256
370
-1
  6
BYLAYER
 10
46.9451905736946173
 20
-23.955204647793181
 30
0.0
 11
47.5294019053658303
 21
-23.955204647793181
 31
0.0
  0
LINE
  5
255
100
AcDbEntity
100
AcDbLine
  8
PCB
 62
256
370
-1
  6
BYLAYER
 10
44.05207445728729
 20
-23.955204647793181
 30
0.0
 11
44.05207445728729
 21
-25.0474258330917507
 31
0.0
  0
LINE
  5
256
100
AcDbEntity
100
AcDbLine
  8
PCB
 62
256
370
-1
  6
BYLAYER
 10
44.05207445728729
 20
-25.0474258330917507
 30
0.0
 11
43.467863125616077
 21
-25.0474258330917507
 31
0.0
  0
LINE
  5
257
100
AcDbEntity
100
AcDbLine
  8
PCB
 62
256
370
-1
  6
BYLAYER
 10
43.467863125616077
 20
-25.0474258330917507
 30
0.0
 11
43.467863125616077
 21
-23.955204647793181
 31
0.0
  0
LINE
  5
258
100
AcDbEntity
100
AcDbLine
  8
PCB
 62
256
370
-1
  6
BYLAYER
 10
43.467863125616077
 20
-23.955204647793181
 30
0.0
 11
44.05207445728729
 21
-23.955204647793181
 31
0.0
  0
LINE
  5
259
100
AcDbEntity
100
AcDbLine
  8
PCB
 62
256
370
-1
  6
BYLAYER
 10
42.5280448964056177
 20
-23.955204647793181
 30
0.0
 11
42.5280448964056177
 21
-25.0474258330917507
 31
0.0
  0
LINE
  5
25A
100
AcDbEntity
100
AcDbLine
  8
PCB
 62
256
370
-1
  6
BYLAYER
 10
42.5280448964056177
 20
-25.0474258330917507
 30
0.0
 11
41.9438335647341773
 21
-25.0474258330917507
 31
0.0
  0
LINE
  5
25B
100
AcDbEntity
100
AcDbLine
  8
PCB
 62
256
370
-1
  6
BYLAYER
 10
41.9438335647341773
 20
-25.0474258330917507
 30
0.0
 11
41.9438335647341773
 21
-23.955204647793181
 31
0.0
  0
LINE
  5
25C
100
AcDbEntity
100
AcDbLine
  8
PCB
 62
256
370
-1
  6
BYLAYER
 10
41.9438335647341773
 20
-23.955204647793181
 30
0.0
 11
42.5280448964056177
 21
-23.955204647793181
 31
0.0
  0
LINE
  5
25D
100
AcDbEntity
100
AcDbLine
  8
PCB
 62
256
370
-1
  6
BYLAYER
 10
39.0532574975952684
 20
-23.955204647793181
 30
0.0
 11
39.0532574975952684
 21
-25.0474258330917507
 31
0.0
  0
LINE
  5
25E
100
AcDbEntity
100
AcDbLine
  8
PCB
 62
256
370
-1
  6
BYLAYER
 10
39.0532574975952684
 20
-25.0474258330917507
 30
0.0
 11
38.4690461659238281
 21
-25.0474258330917507
 31
0.0
  0
LINE
  5
25F
100
AcDbEntity
100
AcDbLine
  8
PCB
 62
256
370
-1
  6
BYLAYER
 10
38.4690461659238281
 20
-25.0474258330917507
 30
0.0
 11
38.4690461659238281
 21
-23.955204647793181
 31
0.0
  0
LINE
  5
260
100
AcDbEntity
100
AcDbLine
  8
PCB
 62
256
370
-1
  6
BYLAYER
 10
38.4690461659238281
 20
-23.955204647793181
 30
0.0
 11
39.0532574975952684
 21
-23.955204647793181
 31
0.0
  0
LINE
  5
261
100
AcDbEntity
100
AcDbLine
  8
PCB
 62
256
370
-1
  6
BYLAYER
 10
37.5292279367133688
 20
-23.955204647793181
 30
0.0
 11
37.5292279367133688
 21
-25.0474258330917507
 31
0.0
  0
LINE
  5
262
100
AcDbEntity
100
AcDbLine
  8
PCB
 62
256
370
-1
  6
BYLAYER
 10
37.5292279367133688
 20
-25.0474258330917507
 30
0.0
 11
36.9450166050421558
 21
-25.0474258330917507
 31
0.0
  0
LINE
  5
263
100
AcDbEntity
100
AcDbLine
  8
PCB
 62
256
370
-1
  6
BYLAYER
 10
36.9450166050421558
 20
-25.0474258330917507
 30
0.0
 11
36.9450166050421558
 21
-23.955204647793181
 31
0.0
  0
LINE
  5
264
100
AcDbEntity
100
AcDbLine
  8
PCB
 62
256
370
-1
  6
BYLAYER
 10
36.9450166050421558
 20
-23.955204647793181
 30
0.0
 11
37.5292279367133688
 21
-23.955204647793181
 31
0.0
  0
LINE
  5
265
100
AcDbEntity
100
AcDbLine
  8
PCB
 62
256
370
-1
  6
BYLAYER
 10
34.0519004886348284
 20
-23.955204647793181
 30
0.0
 11
34.0519004886348284
 21
-25.0474258330917507
 31
0.0
  0
LINE
  5
266
100
AcDbEntity
100
AcDbLine
  8
PCB
 62
256
370
-1
  6
BYLAYER
 10
34.0519004886348284
 20
-25.0474258330917507
 30
0.0
 11
33.4676891569633881
 21
-25.0474258330917507
 31
0.0
  0
LINE
  5
267
100
AcDbEntity
100
AcDbLine
  8
PCB
 62
256
370
-1
  6
BYLAYER
 10
33.4676891569633881
 20
-25.0474258330917507
 30
0.0
 11
33.4676891569633881
 21
-23.955204647793181
 31
0.0
  0
LINE
  5
268
100
AcDbEntity
100
AcDbLine
  8
PCB
 62
256
370
-1
  6
BYLAYER
 10
33.4676891569633881
 20
-23.955204647793181
 30
0.0
 11
34.0519004886348284
 21
-23.955204647793181
 31
0.0
  0
LINE
  5
269
100
AcDbEntity
100
AcDbLine
  8
PCB
 62
256
370
-1
  6
BYLAYER
 10
32.5278709277531561
 20
-23.955204647793181
 30
0.0
 11
32.5278709277531561
 21
-25.0474258330917507
 31
0.0
  0
LINE
  5
26A
100
AcDbEntity
100
AcDbLine
  8
PCB
 62
256
370
-1
  6
BYLAYER
 10
32.5278709277531561
 20
-25.0474258330917507
 30
0.0
 11
31.9436595960817158
 21
-25.0474258330917507
 31
0.0
  0
LINE
  5
26B
100
AcDbEntity
100
AcDbLine
  8
PCB
 62
256
370
-1
  6
BYLAYER
 10
31.9436595960817158
 20
-25.0474258330917507
 30
0.0
 11
31.9436595960817158
 21
-23.955204647793181
 31
0.0
  0
LINE
  5
26C
100
AcDbEntity
100
AcDbLine
  8
PCB
 62
256
370
-1
  6
BYLAYER
 10
31.9436595960817158
 20
-23.955204647793181
 30
0.0
 11
32.5278709277531561
 21
-23.955204647793181
 31
0.0
  0
LINE
  5
26D
100
AcDbEntity
100
AcDbLine
  8
PCB
 62
256
370
-1
  6
BYLAYER
 10
29.0530835289425795
 20
-23.955204647793181
 30
0.0
 11
29.0530835289425795
 21
-25.0474258330917507
 31
0.0
  0
LINE
  5
26E
100
AcDbEntity
100
AcDbLine
  8
PCB
 62
256
370
-1
  6
BYLAYER
 10
29.0530835289425795
 20
-25.0474258330917507
 30
0.0
 11
28.4688721972713665
 21
-25.0474258330917507
 31
0.0
  0
LINE
  5
26F
100
AcDbEntity
100
AcDbLine
  8
PCB
 62
256
370
-1
  6
BYLAYER
 10
28.4688721972713665
 20
-25.0474258330917507
 30
0.0
 11
28.4688721972713665
 21
-23.955204647793181
 31
0.0
  0
LINE
  5
270
100
AcDbEntity
100
AcDbLine
  8
PCB
 62
256
370
-1
  6
BYLAYER
 10
28.4688721972713665
 20
-23.955204647793181
 30
0.0
 11
29.0530835289425795
 21
-23.955204647793181
 31
0.0
  0
LINE
  5
271
100
AcDbEntity
100
AcDbLine
  8
PCB
 62
256
370
-1
  6
BYLAYER
 10
27.5290539680609072
 20
-23.955204647793181
 30
0.0
 11
27.5290539680609072
 21
-25.0474258330917507
 31
0.0
  0
LINE
  5
272
100
AcDbEntity
100
AcDbLine
  8
PCB
 62
256
370
-1
  6
BYLAYER
 10
27.5290539680609072
 20
-25.0474258330917507
 30
0.0
 11
26.9448426363894669
 21
-25.0474258330917507
 31
0.0
  0
LINE
  5
273
100
AcDbEntity
100
AcDbLine
  8
PCB
 62
256
370
-1
  6
BYLAYER
 10
26.9448426363894669
 20
-25.0474258330917507
 30
0.0
 11
26.9448426363894669
 21
-23.955204647793181
 31
0.0
  0
LINE
  5
274
100
AcDbEntity
100
AcDbLine
  8
PCB
 62
256
370
-1
  6
BYLAYER
 10
26.9448426363894669
 20
-23.955204647793181
 30
0.0
 11
27.5290539680609072
 21
-23.955204647793181
 31
0.0
  0
LINE
  5
275
100
AcDbEntity
100
AcDbLine
  8
PCB
 62
256
370
-1
  6
BYLAYER
 10
24.0517265199823669
 20
-23.955204647793181
 30
0.0
 11
24.0517265199823669
 21
-25.0474258330917507
 31
0.0
  0
LINE
  5
276
100
AcDbEntity
100
AcDbLine
  8
PCB
 62
256
370
-1
  6
BYLAYER
 10
24.0517265199823669
 20
-25.0474258330917507
 30
0.0
 11
23.4675151883109265
 21
-25.0474258330917507
 31
0.0
  0
LINE
  5
277
100
AcDbEntity
100
AcDbLine
  8
PCB
 62
256
370
-1
  6
BYLAYER
 10
23.4675151883109265
 20
-25.0474258330917507
 30
0.0
 11
23.4675151883109265
 21
-23.955204647793181
 31
0.0
  0
LINE
  5
278
100
AcDbEntity
100
AcDbLine
  8
PCB
 62
256
370
-1
  6
BYLAYER
 10
23.4675151883109265
 20
-23.955204647793181
 30
0.0
 11
24.0517265199823669
 21
-23.955204647793181
 31
0.0
  0
LINE
  5
279
100
AcDbEntity
100
AcDbLine
  8
PCB
 62
256
370
-1
  6
BYLAYER
 10
22.5276969591004672
 20
-23.955204647793181
 30
0.0
 11
22.5276969591004672
 21
-25.0474258330917507
 31
0.0
  0
LINE
  5
27A
100
AcDbEntity
100
AcDbLine
  8
PCB
 62
256
370
-1
  6
BYLAYER
 10
22.5276969591004672
 20
-25.0474258330917507
 30
0.0
 11
21.9434856274292542
 21
-25.0474258330917507
 31
0.0
  0
LINE
  5
27B
100
AcDbEntity
100
AcDbLine
  8
PCB
 62
256
370
-1
  6
BYLAYER
 10
21.9434856274292542
 20
-25.0474258330917507
 30
0.0
 11
21.9434856274292542
 21
-23.955204647793181
 31
0.0
  0
LINE
  5
27C
100
AcDbEntity
100
AcDbLine
  8
PCB
 62
256
370
-1
  6
BYLAYER
 10
21.9434856274292542
 20
-23.955204647793181
 30
0.0
 11
22.5276969591004672
 21
-23.955204647793181
 31
0.0
  0
LINE
  5
27D
100
AcDbEntity
100
AcDbLine
  8
PCB
 62
256
370
-1
  6
BYLAYER
 10
19.052909560290118
 20
-23.955204647793181
 30
0.0
 11
19.052909560290118
 21
-25.0474258330917507
 31
0.0
  0
LINE
  5
27E
100
AcDbEntity
100
AcDbLine
  8
PCB
 62
256
370
-1
  6
BYLAYER
 10
19.052909560290118
 20
-25.0474258330917507
 30
0.0
 11
18.468698228618905
 21
-25.0474258330917507
 31
0.0
  0
LINE
  5
27F
100
AcDbEntity
100
AcDbLine
  8
PCB
 62
256
370
-1
  6
BYLAYER
 10
18.468698228618905
 20
-25.0474258330917507
 30
0.0
 11
18.468698228618905
 21
-23.955204647793181
 31
0.0
  0
LINE
  5
280
100
AcDbEntity
100
AcDbLine
  8
PCB
 62
256
370
-1
  6
BYLAYER
 10
18.468698228618905
 20
-23.955204647793181
 30
0.0
 11
19.052909560290118
 21
-23.955204647793181
 31
0.0
  0
LINE
  5
281
100
AcDbEntity
100
AcDbLine
  8
PCB
 62
256
370
-1
  6
BYLAYER
 10
17.5288799994084457
 20
-23.955204647793181
 30
0.0
 11
17.5288799994084457
 21
-25.0474258330917507
 31
0.0
  0
LINE
  5
282
100
AcDbEntity
100
AcDbLine
  8
PCB
 62
256
370
-1
  6
BYLAYER
 10
17.5288799994084457
 20
-25.0474258330917507
 30
0.0
 11
16.9446686677370053
 21
-25.0474258330917507
 31
0.0
  0
LINE
  5
283
100
AcDbEntity
100
AcDbLine
  8
PCB
 62
256
370
-1
  6
BYLAYER
 10
16.9446686677370053
 20
-25.0474258330917507
 30
0.0
 11
16.9446686677370053
 21
-23.955204647793181
 31
0.0
  0
LINE
  5
284
100
AcDbEntity
100
AcDbLine
  8
PCB
 62
256
370
-1
  6
BYLAYER
 10
16.9446686677370053
 20
-23.955204647793181
 30
0.0
 11
17.5288799994084457
 21
-23.955204647793181
 31
0.0
  0
LINE
  5
285
100
AcDbEntity
100
AcDbLine
  8
PCB
 62
256
370
-1
  6
BYLAYER
 10
14.0515525513299053
 20
-23.955204647793181
 30
0.0
 11
14.0515525513299053
 21
-25.0474258330917507
 31
0.0
  0
LINE
  5
286
100
AcDbEntity
100
AcDbLine
  8
PCB
 62
256
370
-1
  6
BYLAYER
 10
14.0515525513299053
 20
-25.0474258330917507
 30
0.0
 11
13.467341219658465
 21
-25.0474258330917507
 31
0.0
  0
LINE
  5
287
100
AcDbEntity
100
AcDbLine
  8
PCB
 62
256
370
-1
  6
BYLAYER
 10
13.467341219658465
 20
-25.0474258330917507
 30
0.0
 11
13.467341219658465
 21
-23.955204647793181
 31
0.0
  0
LINE
  5
288
100
AcDbEntity
100
AcDbLine
  8
PCB
 62
256
370
-1
  6
BYLAYER
 10
13.467341219658465
 20
-23.955204647793181
 30
0.0
 11
14.0515525513299053
 21
-23.955204647793181
 31
0.0
  0
LINE
  5
289
100
AcDbEntity
100
AcDbLine
  8
PCB
 62
256
370
-1
  6
BYLAYER
 10
12.5275229904480057
 20
-23.955204647793181
 30
0.0
 11
12.5275229904480057
 21
-25.0474258330917507
 31
0.0
  0
LINE
  5
28A
100
AcDbEntity
100
AcDbLine
  8
PCB
 62
256
370
-1
  6
BYLAYER
 10
12.5275229904480057
 20
-25.0474258330917507
 30
0.0
 11
11.9433116587767358
 21
-25.0474258330917507
 31
0.0
  0
LINE
  5
28B
100
AcDbEntity
100
AcDbLine
  8
PCB
 62
256
370
-1
  6
BYLAYER
 10
11.9433116587767358
 20
-25.0474258330917507
 30
0.0
 11
11.9433116587767358
 21
-23.955204647793181
 31
0.0
  0
LINE
  5
28C
100
AcDbEntity
100
AcDbLine
  8
PCB
 62
256
370
-1
  6
BYLAYER
 10
11.9433116587767358
 20
-23.955204647793181
 30
0.0
 11
12.5275229904480057
 21
-23.955204647793181
 31
0.0
  0
LINE
  5
28D
100
AcDbEntity
100
AcDbLine
  8
PCB
 62
256
370
-1
  6
BYLAYER
 10
9.0527355916376564
 20
-23.955204647793181
 30
0.0
 11
9.0527355916376564
 21
-25.0474258330917507
 31
0.0
  0
LINE
  5
28E
100
AcDbEntity
100
AcDbLine
  8
PCB
 62
256
370
-1
  6
BYLAYER
 10
9.0527355916376564
 20
-25.0474258330917507
 30
0.0
 11
8.4685242599663297
 21
-25.0474258330917507
 31
0.0
  0
LINE
  5
28F
100
AcDbEntity
100
AcDbLine
  8
PCB
 62
256
370
-1
  6
BYLAYER
 10
8.4685242599663297
 20
-25.0474258330917507
 30
0.0
 11
8.4685242599663297
 21
-23.955204647793181
 31
0.0
  0
LINE
  5
290
100
AcDbEntity
100
AcDbLine
  8
PCB
 62
256
370
-1
  6
BYLAYER
 10
8.4685242599663297
 20
-23.955204647793181
 30
0.0
 11
9.0527355916376564
 21
-23.955204647793181
 31
0.0
  0
LINE
  5
291
100
AcDbEntity
100
AcDbLine
  8
PCB
 62
256
370
-1
  6
BYLAYER
 10
7.5287060307559273
 20
-23.955204647793181
 30
0.0
 11
7.5287060307559273
 21
-25.0474258330917507
 31
0.0
  0
LINE
  5
292
100
AcDbEntity
100
AcDbLine
  8
PCB
 62
256
370
-1
  6
BYLAYER
 10
7.5287060307559273
 20
-25.0474258330917507
 30
0.0
 11
6.9444946990845438
 21
-25.0474258330917507
 31
0.0
  0
LINE
  5
293
100
AcDbEntity
100
AcDbLine
  8
PCB
 62
256
370
-1
  6
BYLAYER
 10
6.9444946990845438
 20
-25.0474258330917507
 30
0.0
 11
6.9444946990845438
 21
-23.955204647793181
 31
0.0
  0
LINE
  5
294
100
AcDbEntity
100
AcDbLine
  8
PCB
 62
256
370
-1
  6
BYLAYER
 10
6.9444946990845438
 20
-23.955204647793181
 30
0.0
 11
7.5287060307559273
 21
-23.955204647793181
 31
0.0
  0
LINE
  5
295
100
AcDbEntity
100
AcDbLine
  8
PCB
 62
256
370
-1
  6
BYLAYER
 10
4.0513785826773301
 20
-23.955204647793181
 30
0.0
 11
4.0513785826773301
 21
-25.0474258330917507
 31
0.0
  0
LINE
  5
296
100
AcDbEntity
100
AcDbLine
  8
PCB
 62
256
370
-1
  6
BYLAYER
 10
4.0513785826773301
 20
-25.0474258330917507
 30
0.0
 11
3.4671672510060034
 21
-25.0474258330917507
 31
0.0
  0
LINE
  5
297
100
AcDbEntity
100
AcDbLine
  8
PCB
 62
256
370
-1
  6
BYLAYER
 10
3.4671672510060034
 20
-25.0474258330917507
 30
0.0
 11
3.4671672510060034
 21
-23.955204647793181
 31
0.0
  0
LINE
  5
298
100
AcDbEntity
100
AcDbLine
  8
PCB
 62
256
370
-1
  6
BYLAYER
 10
3.4671672510060034
 20
-23.955204647793181
 30
0.0
 11
4.0513785826773301
 21
-23.955204647793181
 31
0.0
  0
LINE
  5
299
100
AcDbEntity
100
AcDbLine
  8
PCB
 62
256
370
-1
  6
BYLAYER
 10
2.5273490217956009
 20
-23.955204647793181
 30
0.0
 11
2.5273490217956009
 21
-25.0474258330917507
 31
0.0
  0
LINE
  5
29A
100
AcDbEntity
100
AcDbLine
  8
PCB
 62
256
370
-1
  6
BYLAYER
 10
2.5273490217956009
 20
-25.0474258330917507
 30
0.0
 11
1.9431376901242174
 21
-25.0474258330917507
 31
0.0
  0
LINE
  5
29B
100
AcDbEntity
100
AcDbLine
  8
PCB
 62
256
370
-1
  6
BYLAYER
 10
1.9431376901242174
 20
-25.0474258330917507
 30
0.0
 11
1.9431376901242174
 21
-23.955204647793181
 31
0.0
  0
LINE
  5
29C
100
AcDbEntity
100
AcDbLine
  8
PCB
 62
256
370
-1
  6
BYLAYER
 10
1.9431376901242174
 20
-23.955204647793181
 30
0.0
 11
2.5273490217956009
 21
-23.955204647793181
 31
0.0
  0
LINE
  5
29D
100
AcDbEntity
100
AcDbLine
  8
PCB
 62
256
370
-1
  6
BYLAYER
 10
64.3699285531092755
 20
-25.8272209584095833
 30
0.0
 11
64.3699285531092755
 21
-27.1759871197900793
 31
0.0
  0
LINE
  5
29E
100
AcDbEntity
100
AcDbLine
  8
PCB
 62
256
370
-1
  6
BYLAYER
 10
64.3699285531092755
 20
-27.1759871197900793
 30
0.0
 11
63.5317122946244126
 21
-27.1759871197900793
 31
0.0
  0
LINE
  5
29F
100
AcDbEntity
100
AcDbLine
  8
PCB
 62
256
370
-1
  6
BYLAYER
 10
63.5317122946244126
 20
-27.1759871197900793
 30
0.0
 11
63.5317122946244126
 21
-25.8272209584095833
 31
0.0
  0
LINE
  5
2A0
100
AcDbEntity
100
AcDbLine
  8
PCB
 62
256
370
-1
  6
BYLAYER
 10
63.5317122946244126
 20
-25.8272209584095833
 30
0.0
 11
64.3699285531092755
 21
-25.8272209584095833
 31
0.0
  0
LINE
  5
2A1
100
AcDbEntity
100
AcDbLine
  8
PCB
 62
256
370
-1
  6
BYLAYER
 10
62.4648916020071283
 20
-25.8272209584095833
 30
0.0
 11
62.4648916020071283
 21
-27.1759871197900793
 31
0.0
  0
LINE
  5
2A2
100
AcDbEntity
100
AcDbLine
  8
PCB
 62
256
370
-1
  6
BYLAYER
 10
62.4648916020071283
 20
-27.1759871197900793
 30
0.0
 11
61.6266753435222654
 21
-27.1759871197900793
 31
0.0
  0
LINE
  5
2A3
100
AcDbEntity
100
AcDbLine
  8
PCB
 62
256
370
-1
  6
BYLAYER
 10
61.6266753435222654
 20
-27.1759871197900793
 30
0.0
 11
61.6266753435222654
 21
-25.8272209584095833
 31
0.0
  0
LINE
  5
2A4
100
AcDbEntity
100
AcDbLine
  8
PCB
 62
256
370
-1
  6
BYLAYER
 10
61.6266753435222654
 20
-25.8272209584095833
 30
0.0
 11
62.4648916020071283
 21
-25.8272209584095833
 31
0.0
  0
LINE
  5
2A5
100
AcDbEntity
100
AcDbLine
  8
PCB
 62
256
370
-1
  6
BYLAYER
 10
69.3712855620697155
 20
-25.8272209584095833
 30
0.0
 11
69.3712855620697155
 21
-27.1759871197900793
 31
0.0
  0
LINE
  5
2A6
100
AcDbEntity
100
AcDbLine
  8
PCB
 62
256
370
-1
  6
BYLAYER
 10
69.3712855620697155
 20
-27.1759871197900793
 30
0.0
 11
68.5330693035846252
 21
-27.1759871197900793
 31
0.0
  0
LINE
  5
2A7
100
AcDbEntity
100
AcDbLine
  8
PCB
 62
256
370
-1
  6
BYLAYER
 10
68.5330693035846252
 20
-27.1759871197900793
 30
0.0
 11
68.5330693035846252
 21
-25.8272209584095833
 31
0.0
  0
LINE
  5
2A8
100
AcDbEntity
100
AcDbLine
  8
PCB
 62
256
370
-1
  6
BYLAYER
 10
68.5330693035846252
 20
-25.8272209584095833
 30
0.0
 11
69.3712855620697155
 21
-25.8272209584095833
 31
0.0
  0
LINE
  5
2A9
100
AcDbEntity
100
AcDbLine
  8
PCB
 62
256
370
-1
  6
BYLAYER
 10
67.4662486109675683
 20
-25.8272209584095833
 30
0.0
 11
67.4662486109675683
 21
-27.1759871197900793
 31
0.0
  0
LINE
  5
2AA
100
AcDbEntity
100
AcDbLine
  8
PCB
 62
256
370
-1
  6
BYLAYER
 10
67.4662486109675683
 20
-27.1759871197900793
 30
0.0
 11
66.628032352482478
 21
-27.1759871197900793
 31
0.0
  0
LINE
  5
2AB
100
AcDbEntity
100
AcDbLine
  8
PCB
 62
256
370
-1
  6
BYLAYER
 10
66.628032352482478
 20
-27.1759871197900793
 30
0.0
 11
66.628032352482478
 21
-25.8272209584095833
 31
0.0
  0
LINE
  5
2AC
100
AcDbEntity
100
AcDbLine
  8
PCB
 62
256
370
-1
  6
BYLAYER
 10
66.628032352482478
 20
-25.8272209584095833
 30
0.0
 11
67.4662486109675683
 21
-25.8272209584095833
 31
0.0
  0
LINE
  5
2AD
100
AcDbEntity
100
AcDbLine
  8
PCB
 62
256
370
-1
  6
BYLAYER
 10
74.3701025217619645
 20
-25.8272209584095833
 30
0.0
 11
74.3701025217619645
 21
-27.1759871197900793
 31
0.0
  0
LINE
  5
2AE
100
AcDbEntity
100
AcDbLine
  8
PCB
 62
256
370
-1
  6
BYLAYER
 10
74.3701025217619645
 20
-27.1759871197900793
 30
0.0
 11
73.5318862632768742
 21
-27.1759871197900793
 31
0.0
  0
LINE
  5
2AF
100
AcDbEntity
100
AcDbLine
  8
PCB
 62
256
370
-1
  6
BYLAYER
 10
73.5318862632768742
 20
-27.1759871197900793
 30
0.0
 11
73.5318862632768742
 21
-25.8272209584095833
 31
0.0
  0
LINE
  5
2B0
100
AcDbEntity
100
AcDbLine
  8
PCB
 62
256
370
-1
  6
BYLAYER
 10
73.5318862632768742
 20
-25.8272209584095833
 30
0.0
 11
74.3701025217619645
 21
-25.8272209584095833
 31
0.0
  0
LINE
  5
2B1
100
AcDbEntity
100
AcDbLine
  8
PCB
 62
256
370
-1
  6
BYLAYER
 10
72.4650655706595899
 20
-25.8272209584095833
 30
0.0
 11
72.4650655706595899
 21
-27.1759871197900793
 31
0.0
  0
LINE
  5
2B2
100
AcDbEntity
100
AcDbLine
  8
PCB
 62
256
370
-1
  6
BYLAYER
 10
72.4650655706595899
 20
-27.1759871197900793
 30
0.0
 11
71.6268493121747269
 21
-27.1759871197900793
 31
0.0
  0
LINE
  5
2B3
100
AcDbEntity
100
AcDbLine
  8
PCB
 62
256
370
-1
  6
BYLAYER
 10
71.6268493121747269
 20
-27.1759871197900793
 30
0.0
 11
71.6268493121747269
 21
-25.8272209584095833
 31
0.0
  0
LINE
  5
2B4
100
AcDbEntity
100
AcDbLine
  8
PCB
 62
256
370
-1
  6
BYLAYER
 10
71.6268493121747269
 20
-25.8272209584095833
 30
0.0
 11
72.4650655706595899
 21
-25.8272209584095833
 31
0.0
  0
LINE
  5
2B5
100
AcDbEntity
100
AcDbLine
  8
PCB
 62
256
370
-1
  6
BYLAYER
 10
79.3714595307221771
 20
-25.8272209584095833
 30
0.0
 11
79.3714595307221771
 21
-27.1759871197900793
 31
0.0
  0
LINE
  5
2B6
100
AcDbEntity
100
AcDbLine
  8
PCB
 62
256
370
-1
  6
BYLAYER
 10
79.3714595307221771
 20
-27.1759871197900793
 30
0.0
 11
78.5332432722373142
 21
-27.1759871197900793
 31
0.0
  0
LINE
  5
2B7
100
AcDbEntity
100
AcDbLine
  8
PCB
 62
256
370
-1
  6
BYLAYER
 10
78.5332432722373142
 20
-27.1759871197900793
 30
0.0
 11
78.5332432722373142
 21
-25.8272209584095833
 31
0.0
  0
LINE
  5
2B8
100
AcDbEntity
100
AcDbLine
  8
PCB
 62
256
370
-1
  6
BYLAYER
 10
78.5332432722373142
 20
-25.8272209584095833
 30
0.0
 11
79.3714595307221771
 21
-25.8272209584095833
 31
0.0
  0
LINE
  5
2B9
100
AcDbEntity
100
AcDbLine
  8
PCB
 62
256
370
-1
  6
BYLAYER
 10
77.4664225796200299
 20
-25.8272209584095833
 30
0.0
 11
77.4664225796200299
 21
-27.1759871197900793
 31
0.0
  0
LINE
  5
2BA
100
AcDbEntity
100
AcDbLine
  8
PCB
 62
256
370
-1
  6
BYLAYER
 10
77.4664225796200299
 20
-27.1759871197900793
 30
0.0
 11
76.6282063211349396
 21
-27.1759871197900793
 31
0.0
  0
LINE
  5
2BB
100
AcDbEntity
100
AcDbLine
  8
PCB
 62
256
370
-1
  6
BYLAYER
 10
76.6282063211349396
 20
-27.1759871197900793
 30
0.0
 11
76.6282063211349396
 21
-25.8272209584095833
 31
0.0
  0
LINE
  5
2BC
100
AcDbEntity
100
AcDbLine
  8
PCB
 62
256
370
-1
  6
BYLAYER
 10
76.6282063211349396
 20
-25.8272209584095833
 30
0.0
 11
77.4664225796200299
 21
-25.8272209584095833
 31
0.0
  0
LINE
  5
2BD
100
AcDbEntity
100
AcDbLine
  8
PCB
 62
256
370
-1
  6
BYLAYER
 10
59.371111593417254
 20
-25.8272209584095833
 30
0.0
 11
59.371111593417254
 21
-27.1759871197900793
 31
0.0
  0
LINE
  5
2BE
100
AcDbEntity
100
AcDbLine
  8
PCB
 62
256
370
-1
  6
BYLAYER
 10
59.371111593417254
 20
-27.1759871197900793
 30
0.0
 11
58.5328953349321637
 21
-27.1759871197900793
 31
0.0
  0
LINE
  5
2BF
100
AcDbEntity
100
AcDbLine
  8
PCB
 62
256
370
-1
  6
BYLAYER
 10
58.5328953349321637
 20
-27.1759871197900793
 30
0.0
 11
58.5328953349321637
 21
-25.8272209584095833
 31
0.0
  0
LINE
  5
2C0
100
AcDbEntity
100
AcDbLine
  8
PCB
 62
256
370
-1
  6
BYLAYER
 10
58.5328953349321637
 20
-25.8272209584095833
 30
0.0
 11
59.371111593417254
 21
-25.8272209584095833
 31
0.0
  0
LINE
  5
2C1
100
AcDbEntity
100
AcDbLine
  8
PCB
 62
256
370
-1
  6
BYLAYER
 10
57.4660746423151068
 20
-25.8272209584095833
 30
0.0
 11
57.4660746423151068
 21
-27.1759871197900793
 31
0.0
  0
LINE
  5
2C2
100
AcDbEntity
100
AcDbLine
  8
PCB
 62
256
370
-1
  6
BYLAYER
 10
57.4660746423151068
 20
-27.1759871197900793
 30
0.0
 11
56.6278583838300165
 21
-27.1759871197900793
 31
0.0
  0
LINE
  5
2C3
100
AcDbEntity
100
AcDbLine
  8
PCB
 62
256
370
-1
  6
BYLAYER
 10
56.6278583838300165
 20
-27.1759871197900793
 30
0.0
 11
56.6278583838300165
 21
-25.8272209584095833
 31
0.0
  0
LINE
  5
2C4
100
AcDbEntity
100
AcDbLine
  8
PCB
 62
256
370
-1
  6
BYLAYER
 10
56.6278583838300165
 20
-25.8272209584095833
 30
0.0
 11
57.4660746423151068
 21
-25.8272209584095833
 31
0.0
  0
LINE
  5
2C5
100
AcDbEntity
100
AcDbLine
  8
PCB
 62
256
370
-1
  6
BYLAYER
 10
54.369754584456814
 20
-25.8272209584095833
 30
0.0
 11
54.369754584456814
 21
-27.1759871197900793
 31
0.0
  0
LINE
  5
2C6
100
AcDbEntity
100
AcDbLine
  8
PCB
 62
256
370
-1
  6
BYLAYER
 10
54.369754584456814
 20
-27.1759871197900793
 30
0.0
 11
53.5315383259719511
 21
-27.1759871197900793
 31
0.0
  0
LINE
  5
2C7
100
AcDbEntity
100
AcDbLine
  8
PCB
 62
256
370
-1
  6
BYLAYER
 10
53.5315383259719511
 20
-27.1759871197900793
 30
0.0
 11
53.5315383259719511
 21
-25.8272209584095833
 31
0.0
  0
LINE
  5
2C8
100
AcDbEntity
100
AcDbLine
  8
PCB
 62
256
370
-1
  6
BYLAYER
 10
53.5315383259719511
 20
-25.8272209584095833
 30
0.0
 11
54.369754584456814
 21
-25.8272209584095833
 31
0.0
  0
LINE
  5
2C9
100
AcDbEntity
100
AcDbLine
  8
PCB
 62
256
370
-1
  6
BYLAYER
 10
52.4647176333546668
 20
-25.8272209584095833
 30
0.0
 11
52.4647176333546668
 21
-27.1759871197900793
 31
0.0
  0
LINE
  5
2CA
100
AcDbEntity
100
AcDbLine
  8
PCB
 62
256
370
-1
  6
BYLAYER
 10
52.4647176333546668
 20
-27.1759871197900793
 30
0.0
 11
51.6265013748698038
 21
-27.1759871197900793
 31
0.0
  0
LINE
  5
2CB
100
AcDbEntity
100
AcDbLine
  8
PCB
 62
256
370
-1
  6
BYLAYER
 10
51.6265013748698038
 20
-27.1759871197900793
 30
0.0
 11
51.6265013748698038
 21
-25.8272209584095833
 31
0.0
  0
LINE
  5
2CC
100
AcDbEntity
100
AcDbLine
  8
PCB
 62
256
370
-1
  6
BYLAYER
 10
51.6265013748698038
 20
-25.8272209584095833
 30
0.0
 11
52.4647176333546668
 21
-25.8272209584095833
 31
0.0
  0
LINE
  5
2CD
100
AcDbEntity
100
AcDbLine
  8
PCB
 62
256
370
-1
  6
BYLAYER
 10
49.3709376247647924
 20
-25.8272209584095833
 30
0.0
 11
49.3709376247647924
 21
-27.1759871197900793
 31
0.0
  0
LINE
  5
2CE
100
AcDbEntity
100
AcDbLine
  8
PCB
 62
256
370
-1
  6
BYLAYER
 10
49.3709376247647924
 20
-27.1759871197900793
 30
0.0
 11
48.5327213662797021
 21
-27.1759871197900793
 31
0.0
  0
LINE
  5
2CF
100
AcDbEntity
100
AcDbLine
  8
PCB
 62
256
370
-1
  6
BYLAYER
 10
48.5327213662797021
 20
-27.1759871197900793
 30
0.0
 11
48.5327213662797021
 21
-25.8272209584095833
 31
0.0
  0
LINE
  5
2D0
100
AcDbEntity
100
AcDbLine
  8
PCB
 62
256
370
-1
  6
BYLAYER
 10
48.5327213662797021
 20
-25.8272209584095833
 30
0.0
 11
49.3709376247647924
 21
-25.8272209584095833
 31
0.0
  0
LINE
  5
2D1
100
AcDbEntity
100
AcDbLine
  8
PCB
 62
256
370
-1
  6
BYLAYER
 10
47.4659006736624178
 20
-25.8272209584095833
 30
0.0
 11
47.4659006736624178
 21
-27.1759871197900793
 31
0.0
  0
LINE
  5
2D2
100
AcDbEntity
100
AcDbLine
  8
PCB
 62
256
370
-1
  6
BYLAYER
 10
47.4659006736624178
 20
-27.1759871197900793
 30
0.0
 11
46.6276844151775549
 21
-27.1759871197900793
 31
0.0
  0
LINE
  5
2D3
100
AcDbEntity
100
AcDbLine
  8
PCB
 62
256
370
-1
  6
BYLAYER
 10
46.6276844151775549
 20
-27.1759871197900793
 30
0.0
 11
46.6276844151775549
 21
-25.8272209584095833
 31
0.0
  0
LINE
  5
2D4
100
AcDbEntity
100
AcDbLine
  8
PCB
 62
256
370
-1
  6
BYLAYER
 10
46.6276844151775549
 20
-25.8272209584095833
 30
0.0
 11
47.4659006736624178
 21
-25.8272209584095833
 31
0.0
  0
LINE
  5
2D5
100
AcDbEntity
100
AcDbLine
  8
PCB
 62
256
370
-1
  6
BYLAYER
 10
44.3695806158043524
 20
-25.8272209584095833
 30
0.0
 11
44.3695806158043524
 21
-27.1759871197900793
 31
0.0
  0
LINE
  5
2D6
100
AcDbEntity
100
AcDbLine
  8
PCB
 62
256
370
-1
  6
BYLAYER
 10
44.3695806158043524
 20
-27.1759871197900793
 30
0.0
 11
43.5313643573194895
 21
-27.1759871197900793
 31
0.0
  0
LINE
  5
2D7
100
AcDbEntity
100
AcDbLine
  8
PCB
 62
256
370
-1
  6
BYLAYER
 10
43.5313643573194895
 20
-27.1759871197900793
 30
0.0
 11
43.5313643573194895
 21
-25.8272209584095833
 31
0.0
  0
LINE
  5
2D8
100
AcDbEntity
100
AcDbLine
  8
PCB
 62
256
370
-1
  6
BYLAYER
 10
43.5313643573194895
 20
-25.8272209584095833
 30
0.0
 11
44.3695806158043524
 21
-25.8272209584095833
 31
0.0
  0
LINE
  5
2D9
100
AcDbEntity
100
AcDbLine
  8
PCB
 62
256
370
-1
  6
BYLAYER
 10
42.4645436647022052
 20
-25.8272209584095833
 30
0.0
 11
42.4645436647022052
 21
-27.1759871197900793
 31
0.0
  0
LINE
  5
2DA
100
AcDbEntity
100
AcDbLine
  8
PCB
 62
256
370
-1
  6
BYLAYER
 10
42.4645436647022052
 20
-27.1759871197900793
 30
0.0
 11
41.6263274062171149
 21
-27.1759871197900793
 31
0.0
  0
LINE
  5
2DB
100
AcDbEntity
100
AcDbLine
  8
PCB
 62
256
370
-1
  6
BYLAYER
 10
41.6263274062171149
 20
-27.1759871197900793
 30
0.0
 11
41.6263274062171149
 21
-25.8272209584095833
 31
0.0
  0
LINE
  5
2DC
100
AcDbEntity
100
AcDbLine
  8
PCB
 62
256
370
-1
  6
BYLAYER
 10
41.6263274062171149
 20
-25.8272209584095833
 30
0.0
 11
42.4645436647022052
 21
-25.8272209584095833
 31
0.0
  0
LINE
  5
2DD
100
AcDbEntity
100
AcDbLine
  8
PCB
 62
256
370
-1
  6
BYLAYER
 10
39.3707636561121035
 20
-25.8272209584095833
 30
0.0
 11
39.3707636561121035
 21
-27.1759871197900793
 31
0.0
  0
LINE
  5
2DE
100
AcDbEntity
100
AcDbLine
  8
PCB
 62
256
370
-1
  6
BYLAYER
 10
39.3707636561121035
 20
-27.1759871197900793
 30
0.0
 11
38.5325473976272406
 21
-27.1759871197900793
 31
0.0
  0
LINE
  5
2DF
100
AcDbEntity
100
AcDbLine
  8
PCB
 62
256
370
-1
  6
BYLAYER
 10
38.5325473976272406
 20
-27.1759871197900793
 30
0.0
 11
38.5325473976272406
 21
-25.8272209584095833
 31
0.0
  0
LINE
  5
2E0
100
AcDbEntity
100
AcDbLine
  8
PCB
 62
256
370
-1
  6
BYLAYER
 10
38.5325473976272406
 20
-25.8272209584095833
 30
0.0
 11
39.3707636561121035
 21
-25.8272209584095833
 31
0.0
  0
LINE
  5
2E1
100
AcDbEntity
100
AcDbLine
  8
PCB
 62
256
370
-1
  6
BYLAYER
 10
37.4657267050099563
 20
-25.8272209584095833
 30
0.0
 11
37.4657267050099563
 21
-27.1759871197900793
 31
0.0
  0
LINE
  5
2E2
100
AcDbEntity
100
AcDbLine
  8
PCB
 62
256
370
-1
  6
BYLAYER
 10
37.4657267050099563
 20
-27.1759871197900793
 30
0.0
 11
36.6275104465250934
 21
-27.1759871197900793
 31
0.0
  0
LINE
  5
2E3
100
AcDbEntity
100
AcDbLine
  8
PCB
 62
256
370
-1
  6
BYLAYER
 10
36.6275104465250934
 20
-27.1759871197900793
 30
0.0
 11
36.6275104465250934
 21
-25.8272209584095833
 31
0.0
  0
LINE
  5
2E4
100
AcDbEntity
100
AcDbLine
  8
PCB
 62
256
370
-1
  6
BYLAYER
 10
36.6275104465250934
 20
-25.8272209584095833
 30
0.0
 11
37.4657267050099563
 21
-25.8272209584095833
 31
0.0
  0
LINE
  5
2E5
100
AcDbEntity
100
AcDbLine
  8
PCB
 62
256
370
-1
  6
BYLAYER
 10
34.3694066471518909
 20
-25.8272209584095833
 30
0.0
 11
34.3694066471518909
 21
-27.1759871197900793
 31
0.0
  0
LINE
  5
2E6
100
AcDbEntity
100
AcDbLine
  8
PCB
 62
256
370
-1
  6
BYLAYER
 10
34.3694066471518909
 20
-27.1759871197900793
 30
0.0
 11
33.5311903886668006
 21
-27.1759871197900793
 31
0.0
  0
LINE
  5
2E7
100
AcDbEntity
100
AcDbLine
  8
PCB
 62
256
370
-1
  6
BYLAYER
 10
33.5311903886668006
 20
-27.1759871197900793
 30
0.0
 11
33.5311903886668006
 21
-25.8272209584095833
 31
0.0
  0
LINE
  5
2E8
100
AcDbEntity
100
AcDbLine
  8
PCB
 62
256
370
-1
  6
BYLAYER
 10
33.5311903886668006
 20
-25.8272209584095833
 30
0.0
 11
34.3694066471518909
 21
-25.8272209584095833
 31
0.0
  0
LINE
  5
2E9
100
AcDbEntity
100
AcDbLine
  8
PCB
 62
256
370
-1
  6
BYLAYER
 10
32.4643696960497437
 20
-25.8272209584095833
 30
0.0
 11
32.4643696960497437
 21
-27.1759871197900793
 31
0.0
  0
LINE
  5
2EA
100
AcDbEntity
100
AcDbLine
  8
PCB
 62
256
370
-1
  6
BYLAYER
 10
32.4643696960497437
 20
-27.1759871197900793
 30
0.0
 11
31.6261534375646534
 21
-27.1759871197900793
 31
0.0
  0
LINE
  5
2EB
100
AcDbEntity
100
AcDbLine
  8
PCB
 62
256
370
-1
  6
BYLAYER
 10
31.6261534375646534
 20
-27.1759871197900793
 30
0.0
 11
31.6261534375646534
 21
-25.8272209584095833
 31
0.0
  0
LINE
  5
2EC
100
AcDbEntity
100
AcDbLine
  8
PCB
 62
256
370
-1
  6
BYLAYER
 10
31.6261534375646534
 20
-25.8272209584095833
 30
0.0
 11
32.4643696960497437
 21
-25.8272209584095833
 31
0.0
  0
LINE
  5
2ED
100
AcDbEntity
100
AcDbLine
  8
PCB
 62
256
370
-1
  6
BYLAYER
 10
29.3705896874596419
 20
-25.8272209584095833
 30
0.0
 11
29.3705896874596419
 21
-27.1759871197900793
 31
0.0
  0
LINE
  5
2EE
100
AcDbEntity
100
AcDbLine
  8
PCB
 62
256
370
-1
  6
BYLAYER
 10
29.3705896874596419
 20
-27.1759871197900793
 30
0.0
 11
28.532373428974779
 21
-27.1759871197900793
 31
0.0
  0
LINE
  5
2EF
100
AcDbEntity
100
AcDbLine
  8
PCB
 62
256
370
-1
  6
BYLAYER
 10
28.532373428974779
 20
-27.1759871197900793
 30
0.0
 11
28.532373428974779
 21
-25.8272209584095833
 31
0.0
  0
LINE
  5
2F0
100
AcDbEntity
100
AcDbLine
  8
PCB
 62
256
370
-1
  6
BYLAYER
 10
28.532373428974779
 20
-25.8272209584095833
 30
0.0
 11
29.3705896874596419
 21
-25.8272209584095833
 31
0.0
  0
LINE
  5
2F1
100
AcDbEntity
100
AcDbLine
  8
PCB
 62
256
370
-1
  6
BYLAYER
 10
27.4655527363574947
 20
-25.8272209584095833
 30
0.0
 11
27.4655527363574947
 21
-27.1759871197900793
 31
0.0
  0
LINE
  5
2F2
100
AcDbEntity
100
AcDbLine
  8
PCB
 62
256
370
-1
  6
BYLAYER
 10
27.4655527363574947
 20
-27.1759871197900793
 30
0.0
 11
26.6273364778726318
 21
-27.1759871197900793
 31
0.0
  0
LINE
  5
2F3
100
AcDbEntity
100
AcDbLine
  8
PCB
 62
256
370
-1
  6
BYLAYER
 10
26.6273364778726318
 20
-27.1759871197900793
 30
0.0
 11
26.6273364778726318
 21
-25.8272209584095833
 31
0.0
  0
LINE
  5
2F4
100
AcDbEntity
100
AcDbLine
  8
PCB
 62
256
370
-1
  6
BYLAYER
 10
26.6273364778726318
 20
-25.8272209584095833
 30
0.0
 11
27.4655527363574947
 21
-25.8272209584095833
 31
0.0
  0
LINE
  5
2F5
100
AcDbEntity
100
AcDbLine
  8
PCB
 62
256
370
-1
  6
BYLAYER
 10
24.3692326784994293
 20
-25.8272209584095833
 30
0.0
 11
24.3692326784994293
 21
-27.1759871197900793
 31
0.0
  0
LINE
  5
2F6
100
AcDbEntity
100
AcDbLine
  8
PCB
 62
256
370
-1
  6
BYLAYER
 10
24.3692326784994293
 20
-27.1759871197900793
 30
0.0
 11
23.531016420014339
 21
-27.1759871197900793
 31
0.0
  0
LINE
  5
2F7
100
AcDbEntity
100
AcDbLine
  8
PCB
 62
256
370
-1
  6
BYLAYER
 10
23.531016420014339
 20
-27.1759871197900793
 30
0.0
 11
23.531016420014339
 21
-25.8272209584095833
 31
0.0
  0
LINE
  5
2F8
100
AcDbEntity
100
AcDbLine
  8
PCB
 62
256
370
-1
  6
BYLAYER
 10
23.531016420014339
 20
-25.8272209584095833
 30
0.0
 11
24.3692326784994293
 21
-25.8272209584095833
 31
0.0
  0
LINE
  5
2F9
100
AcDbEntity
100
AcDbLine
  8
PCB
 62
256
370
-1
  6
BYLAYER
 10
22.4641957273972821
 20
-25.8272209584095833
 30
0.0
 11
22.4641957273972821
 21
-27.1759871197900793
 31
0.0
  0
LINE
  5
2FA
100
AcDbEntity
100
AcDbLine
  8
PCB
 62
256
370
-1
  6
BYLAYER
 10
22.4641957273972821
 20
-27.1759871197900793
 30
0.0
 11
21.6259794689121918
 21
-27.1759871197900793
 31
0.0
  0
LINE
  5
2FB
100
AcDbEntity
100
AcDbLine
  8
PCB
 62
256
370
-1
  6
BYLAYER
 10
21.6259794689121918
 20
-27.1759871197900793
 30
0.0
 11
21.6259794689121918
 21
-25.8272209584095833
 31
0.0
  0
LINE
  5
2FC
100
AcDbEntity
100
AcDbLine
  8
PCB
 62
256
370
-1
  6
BYLAYER
 10
21.6259794689121918
 20
-25.8272209584095833
 30
0.0
 11
22.4641957273972821
 21
-25.8272209584095833
 31
0.0
  0
LINE
  5
2FD
100
AcDbEntity
100
AcDbLine
  8
PCB
 62
256
370
-1
  6
BYLAYER
 10
4.3688847411943925
 20
-25.8272209584095833
 30
0.0
 11
4.3688847411943925
 21
-27.1759871197900793
 31
0.0
  0
LINE
  5
2FE
100
AcDbEntity
100
AcDbLine
  8
PCB
 62
256
370
-1
  6
BYLAYER
 10
4.3688847411943925
 20
-27.1759871197900793
 30
0.0
 11
3.5306684827094159
 21
-27.1759871197900793
 31
0.0
  0
LINE
  5
2FF
100
AcDbEntity
100
AcDbLine
  8
PCB
 62
256
370
-1
  6
BYLAYER
 10
3.5306684827094159
 20
-27.1759871197900793
 30
0.0
 11
3.5306684827094159
 21
-25.8272209584095833
 31
0.0
  0
LINE
  5
300
100
AcDbEntity
100
AcDbLine
  8
PCB
 62
256
370
-1
  6
BYLAYER
 10
3.5306684827094159
 20
-25.8272209584095833
 30
0.0
 11
4.3688847411943925
 21
-25.8272209584095833
 31
0.0
  0
LINE
  5
301
100
AcDbEntity
100
AcDbLine
  8
PCB
 62
256
370
-1
  6
BYLAYER
 10
2.4638477900921885
 20
-25.8272209584095833
 30
0.0
 11
2.4638477900921885
 21
-27.1759871197900793
 31
0.0
  0
LINE
  5
302
100
AcDbEntity
100
AcDbLine
  8
PCB
 62
256
370
-1
  6
BYLAYER
 10
2.4638477900921885
 20
-27.1759871197900793
 30
0.0
 11
1.6256315316072119
 21
-27.1759871197900793
 31
0.0
  0
LINE
  5
303
100
AcDbEntity
100
AcDbLine
  8
PCB
 62
256
370
-1
  6
BYLAYER
 10
1.6256315316072119
 20
-27.1759871197900793
 30
0.0
 11
1.6256315316072119
 21
-25.8272209584095833
 31
0.0
  0
LINE
  5
304
100
AcDbEntity
100
AcDbLine
  8
PCB
 62
256
370
-1
  6
BYLAYER
 10
1.6256315316072119
 20
-25.8272209584095833
 30
0.0
 11
2.4638477900921885
 21
-25.8272209584095833
 31
0.0
  0
LINE
  5
305
100
AcDbEntity
100
AcDbLine
  8
PCB
 62
256
370
-1
  6
BYLAYER
 10
9.370241750154662
 20
-25.8272209584095833
 30
0.0
 11
9.370241750154662
 21
-27.1759871197900793
 31
0.0
  0
LINE
  5
306
100
AcDbEntity
100
AcDbLine
  8
PCB
 62
256
370
-1
  6
BYLAYER
 10
9.370241750154662
 20
-27.1759871197900793
 30
0.0
 11
8.5320254916697422
 21
-27.1759871197900793
 31
0.0
  0
LINE
  5
307
100
AcDbEntity
100
AcDbLine
  8
PCB
 62
256
370
-1
  6
BYLAYER
 10
8.5320254916697422
 20
-27.1759871197900793
 30
0.0
 11
8.5320254916697422
 21
-25.8272209584095833
 31
0.0
  0
LINE
  5
308
100
AcDbEntity
100
AcDbLine
  8
PCB
 62
256
370
-1
  6
BYLAYER
 10
8.5320254916697422
 20
-25.8272209584095833
 30
0.0
 11
9.370241750154662
 21
-25.8272209584095833
 31
0.0
  0
LINE
  5
309
100
AcDbEntity
100
AcDbLine
  8
PCB
 62
256
370
-1
  6
BYLAYER
 10
7.4652047990525148
 20
-25.8272209584095833
 30
0.0
 11
7.4652047990525148
 21
-27.1759871197900793
 31
0.0
  0
LINE
  5
30A
100
AcDbEntity
100
AcDbLine
  8
PCB
 62
256
370
-1
  6
BYLAYER
 10
7.4652047990525148
 20
-27.1759871197900793
 30
0.0
 11
6.6269885405675382
 21
-27.1759871197900793
 31
0.0
  0
LINE
  5
30B
100
AcDbEntity
100
AcDbLine
  8
PCB
 62
256
370
-1
  6
BYLAYER
 10
6.6269885405675382
 20
-27.1759871197900793
 30
0.0
 11
6.6269885405675382
 21
-25.8272209584095833
 31
0.0
  0
LINE
  5
30C
100
AcDbEntity
100
AcDbLine
  8
PCB
 62
256
370
-1
  6
BYLAYER
 10
6.6269885405675382
 20
-25.8272209584095833
 30
0.0
 11
7.4652047990525148
 21
-25.8272209584095833
 31
0.0
  0
LINE
  5
30D
100
AcDbEntity
100
AcDbLine
  8
PCB
 62
256
370
-1
  6
BYLAYER
 10
14.3690587098469678
 20
-25.8272209584095833
 30
0.0
 11
14.3690587098469678
 21
-27.1759871197900793
 31
0.0
  0
LINE
  5
30E
100
AcDbEntity
100
AcDbLine
  8
PCB
 62
256
370
-1
  6
BYLAYER
 10
14.3690587098469678
 20
-27.1759871197900793
 30
0.0
 11
13.5308424513618775
 21
-27.1759871197900793
 31
0.0
  0
LINE
  5
30F
100
AcDbEntity
100
AcDbLine
  8
PCB
 62
256
370
-1
  6
BYLAYER
 10
13.5308424513618775
 20
-27.1759871197900793
 30
0.0
 11
13.5308424513618775
 21
-25.8272209584095833
 31
0.0
  0
LINE
  5
310
100
AcDbEntity
100
AcDbLine
  8
PCB
 62
256
370
-1
  6
BYLAYER
 10
13.5308424513618775
 20
-25.8272209584095833
 30
0.0
 11
14.3690587098469678
 21
-25.8272209584095833
 31
0.0
  0
LINE
  5
311
100
AcDbEntity
100
AcDbLine
  8
PCB
 62
256
370
-1
  6
BYLAYER
 10
12.4640217587445932
 20
-25.8272209584095833
 30
0.0
 11
12.4640217587445932
 21
-27.1759871197900793
 31
0.0
  0
LINE
  5
312
100
AcDbEntity
100
AcDbLine
  8
PCB
 62
256
370
-1
  6
BYLAYER
 10
12.4640217587445932
 20
-27.1759871197900793
 30
0.0
 11
11.6258055002596734
 21
-27.1759871197900793
 31
0.0
  0
LINE
  5
313
100
AcDbEntity
100
AcDbLine
  8
PCB
 62
256
370
-1
  6
BYLAYER
 10
11.6258055002596734
 20
-27.1759871197900793
 30
0.0
 11
11.6258055002596734
 21
-25.8272209584095833
 31
0.0
  0
LINE
  5
314
100
AcDbEntity
100
AcDbLine
  8
PCB
 62
256
370
-1
  6
BYLAYER
 10
11.6258055002596734
 20
-25.8272209584095833
 30
0.0
 11
12.4640217587445932
 21
-25.8272209584095833
 31
0.0
  0
LINE
  5
315
100
AcDbEntity
100
AcDbLine
  8
PCB
 62
256
370
-1
  6
BYLAYER
 10
19.3704157188071804
 20
-25.8272209584095833
 30
0.0
 11
19.3704157188071804
 21
-27.1759871197900793
 31
0.0
  0
LINE
  5
316
100
AcDbEntity
100
AcDbLine
  8
PCB
 62
256
370
-1
  6
BYLAYER
 10
19.3704157188071804
 20
-27.1759871197900793
 30
0.0
 11
18.5321994603223175
 21
-27.1759871197900793
 31
0.0
  0
LINE
  5
317
100
AcDbEntity
100
AcDbLine
  8
PCB
 62
256
370
-1
  6
BYLAYER
 10
18.5321994603223175
 20
-27.1759871197900793
 30
0.0
 11
18.5321994603223175
 21
-25.8272209584095833
 31
0.0
  0
LINE
  5
318
100
AcDbEntity
100
AcDbLine
  8
PCB
 62
256
370
-1
  6
BYLAYER
 10
18.5321994603223175
 20
-25.8272209584095833
 30
0.0
 11
19.3704157188071804
 21
-25.8272209584095833
 31
0.0
  0
LINE
  5
319
100
AcDbEntity
100
AcDbLine
  8
PCB
 62
256
370
-1
  6
BYLAYER
 10
17.4653787677050332
 20
-25.8272209584095833
 30
0.0
 11
17.4653787677050332
 21
-27.1759871197900793
 31
0.0
  0
LINE
  5
31A
100
AcDbEntity
100
AcDbLine
  8
PCB
 62
256
370
-1
  6
BYLAYER
 10
17.4653787677050332
 20
-27.1759871197900793
 30
0.0
 11
16.6271625092199429
 21
-27.1759871197900793
 31
0.0
  0
LINE
  5
31B
100
AcDbEntity
100
AcDbLine
  8
PCB
 62
256
370
-1
  6
BYLAYER
 10
16.6271625092199429
 20
-27.1759871197900793
 30
0.0
 11
16.6271625092199429
 21
-25.8272209584095833
 31
0.0
  0
LINE
  5
31C
100
AcDbEntity
100
AcDbLine
  8
PCB
 62
256
370
-1
  6
BYLAYER
 10
16.6271625092199429
 20
-25.8272209584095833
 30
0.0
 11
17.4653787677050332
 21
-25.8272209584095833
 31
0.0
  0
LINE
  5
31D
100
AcDbEntity
100
AcDbLine
  8
PCB
 62
256
370
-1
  6
BYLAYER
 10
73.6639688252200813
 20
-11.5673843670925294
 30
0.0
 11
72.5133265067543107
 21
-11.5673843670925294
 31
0.0
  0
LINE
  5
31E
100
AcDbEntity
100
AcDbLine
  8
PCB
 62
256
370
-1
  6
BYLAYER
 10
72.5133265067543107
 20
-11.5673843670925294
 30
0.0
 11
72.5133265067543107
 21
-10.4167420486268156
 31
0.0
  0
LINE
  5
31F
100
AcDbEntity
100
AcDbLine
  8
PCB
 62
256
370
-1
  6
BYLAYER
 10
72.5133265067543107
 20
-10.4167420486268156
 30
0.0
 11
73.6639688252200813
 21
-10.4167420486268156
 31
0.0
  0
LINE
  5
320
100
AcDbEntity
100
AcDbLine
  8
PCB
 62
256
370
-1
  6
BYLAYER
 10
73.6639688252200813
 20
-10.4167420486268156
 30
0.0
 11
73.6639688252200813
 21
-11.5673843670925294
 31
0.0
  0
LINE
  5
321
100
AcDbEntity
100
AcDbLine
  8
PCB
 62
256
370
-1
  6
BYLAYER
 10
73.6639688252200813
 20
-8.7657100243382615
 30
0.0
 11
72.5133265067543107
 21
-8.7657100243382615
 31
0.0
  0
LINE
  5
322
100
AcDbEntity
100
AcDbLine
  8
PCB
 62
256
370
-1
  6
BYLAYER
 10
72.5133265067543107
 20
-8.7657100243382615
 30
0.0
 11
72.5133265067543107
 21
-7.6176077551406536
 31
0.0
  0
LINE
  5
323
100
AcDbEntity
100
AcDbLine
  8
PCB
 62
256
370
-1
  6
BYLAYER
 10
72.5133265067543107
 20
-7.6176077551406536
 30
0.0
 11
73.6639688252200813
 21
-7.6176077551406536
 31
0.0
  0
LINE
  5
324
100
AcDbEntity
100
AcDbLine
  8
PCB
 62
256
370
-1
  6
BYLAYER
 10
73.6639688252200813
 20
-7.6176077551406536
 30
0.0
 11
73.6639688252200813
 21
-8.7657100243382615
 31
0.0
  0
LINE
  5
325
100
AcDbEntity
100
AcDbLine
  8
PCB
 62
256
370
-1
  6
BYLAYER
 10
22.0527077459591965
 20
-18.9538476388327979
 30
0.0
 11
22.0527077459591965
 21
-20.0486088733995871
 31
0.0
  0
LINE
  5
326
100
AcDbEntity
100
AcDbLine
  8
PCB
 62
256
370
-1
  6
BYLAYER
 10
22.0527077459591965
 20
-20.0486088733995871
 30
0.0
 11
21.4684964142877561
 21
-20.0486088733995871
 31
0.0
  0
LINE
  5
327
100
AcDbEntity
100
AcDbLine
  8
PCB
 62
256
370
-1
  6
BYLAYER
 10
21.4684964142877561
 20
-20.0486088733995871
 30
0.0
 11
21.4684964142877561
 21
-18.9538476388327979
 31
0.0
  0
LINE
  5
328
100
AcDbEntity
100
AcDbLine
  8
PCB
 62
256
370
-1
  6
BYLAYER
 10
21.4684964142877561
 20
-18.9538476388327979
 30
0.0
 11
22.0527077459591965
 21
-18.9538476388327979
 31
0.0
  0
LINE
  5
329
100
AcDbEntity
100
AcDbLine
  8
PCB
 62
256
370
-1
  6
BYLAYER
 10
20.5286781850772968
 20
-18.9538476388327979
 30
0.0
 11
20.5286781850772968
 21
-20.0486088733995871
 31
0.0
  0
LINE
  5
32A
100
AcDbEntity
100
AcDbLine
  8
PCB
 62
256
370
-1
  6
BYLAYER
 10
20.5286781850772968
 20
-20.0486088733995871
 30
0.0
 11
19.9444668534060838
 21
-20.0486088733995871
 31
0.0
  0
LINE
  5
32B
100
AcDbEntity
100
AcDbLine
  8
PCB
 62
256
370
-1
  6
BYLAYER
 10
19.9444668534060838
 20
-20.0486088733995871
 30
0.0
 11
19.9444668534060838
 21
-18.9538476388327979
 31
0.0
  0
LINE
  5
32C
100
AcDbEntity
100
AcDbLine
  8
PCB
 62
256
370
-1
  6
BYLAYER
 10
19.9444668534060838
 20
-18.9538476388327979
 30
0.0
 11
20.5286781850772968
 21
-18.9538476388327979
 31
0.0
  0
ENDSEC
  0
SECTION
  2
OBJECTS
  0
DICTIONARY
  5
C
100
AcDbDictionary
280
0
281
1
  3
ACAD_GROUP
350
D
  3
ACAD_LAYOUT
350
1A
  3
ACAD_MLINESTYLE
350
17
  3
ACAD_PLOTSETTINGS
350
19
  3
ACAD_PLOTSTYLENAME
350
E
  3
AcDbVariableDictionary
350
32D
  3
QCAD_OBJECTS
350
32E
  0
DICTIONARY
  5
D
100
AcDbDictionary
280
0
281
1
  0
ACDBDICTIONARYWDFLT
  5
E
100
AcDbDictionary
281
1
  3
Normal
350
F
100
AcDbDictionaryWithDefault
340
F
  0
ACDBPLACEHOLDER
  5
F
  0
DICTIONARY
  5
17
100
AcDbDictionary
280
0
281
1
  3
Standard
350
18
  0
MLINESTYLE
  5
18
100
AcDbMlineStyle
  2
STANDARD
 70
0
  3

 62
256
 51
90.0
 52
90.0
 71
2
 49
0.5
 62
256
  6
BYLAYER
 49
-0.5
 62
256
  6
BYLAYER
  0
DICTIONARY
  5
19
100
AcDbDictionary
280
0
281
1
  0
DICTIONARY
  5
1A
100
AcDbDictionary
281
1
  3
Layout1
350
1E
  3
Layout2
350
26
  3
Model
350
22
  0
LAYOUT
  5
1E
100
AcDbPlotSettings
  1

  2
C:\Program Files\AutoCAD 2002\plotters\DWF ePlot (optimized for plotting).pc3
  4

  6

 40
0.0
 41
0.0
 42
0.0
 43
0.0
 44
0.0
 45
0.0
 46
0.0
 47
0.0
 48
0.0
 49
0.0
140
0.0
141
0.0
142
1.0
143
1.0
 70
688
 72
0
 73
0
 74
5
  7

 75
16
147
1.0
148
0.0
149
0.0
100
AcDbLayout
  1
Layout1
 70
1
 71
1
 10
0.0
 20
0.0
 11
420.0
 21
297.0
 12
0.0
 22
0.0
 32
0.0
 14
100000000000000000000.0
 24
100000000000000000000.0
 34
100000000000000000000.0
 15
-100000000000000000000.0
 25
-100000000000000000000.0
 35
-100000000000000000000.0
146
0.0
 13
0.0
 23
0.0
 33
0.0
 16
1.0
 26
0.0
 36
0.0
 17
0.0
 27
1.0
 37
0.0
 76
0
330
1B
  0
LAYOUT
  5
22
100
AcDbPlotSettings
  1

  2
C:\Program Files\AutoCAD 2002\plotters\DWF ePlot (optimized for plotting).pc3
  4

  6

 40
0.0
 41
0.0
 42
0.0
 43
0.0
 44
0.0
 45
0.0
 46
0.0
 47
0.0
 48
0.0
 49
0.0
140
0.0
141
0.0
142
1.0
143
1.0
 70
1712
 72
0
 73
0
 74
0
  7

 75
0
147
1.0
148
0.0
149
0.0
100
AcDbLayout
  1
Model
 70
1
 71
0
 10
0.0
 20
0.0
 11
12.0
 21
9.0
 12
0.0
 22
0.0
 32
0.0
 14
0.0
 24
0.0
 34
0.0
 15
0.0
 25
0.0
 35
0.0
146
0.0
 13
0.0
 23
0.0
 33
0.0
 16
1.0
 26
0.0
 36
0.0
 17
0.0
 27
1.0
 37
0.0
 76
0
330
1F
  0
LAYOUT
  5
26
100
AcDbPlotSettings
  1

  2
C:\Program Files\AutoCAD 2002\plotters\DWF ePlot (optimized for plotting).pc3
  4

  6

 40
0.0
 41
0.0
 42
0.0
 43
0.0
 44
0.0
 45
0.0
 46
0.0
 47
0.0
 48
0.0
 49
0.0
140
0.0
141
0.0
142
1.0
143
1.0
 70
688
 72
0
 73
0
 74
5
  7

 75
16
147
1.0
148
0.0
149
0.0
100
AcDbLayout
  1
Layout2
 70
1
 71
2
 10
0.0
 20
0.0
 11
12.0
 21
9.0
 12
0.0
 22
0.0
 32
0.0
 14
0.0
 24
0.0
 34
0.0
 15
0.0
 25
0.0
 35
0.0
146
0.0
 13
0.0
 23
0.0
 33
0.0
 16
1.0
 26
0.0
 36
0.0
 17
0.0
 27
1.0
 37
0.0
 76
0
330
23
  0
DICTIONARY
  5
32D
100
AcDbDictionary
281
1
  3
DIMASSOC
350
330
  3
HIDETEXT
350
32F
  0
DICTIONARYVAR
  5
32F
100
DictionaryVariables
280
0
  1
2
  0
DICTIONARYVAR
  5
330
100
DictionaryVariables
280
0
  1
1
  0
DICTIONARY
  5
32E
100
AcDbDictionary
281
1
  3
Grid/DisplayGrid00
350
331
  3
Grid/DisplayGrid01
350
332
  3
Grid/DisplayGrid02
350
333
  3
Grid/DisplayGrid03
350
334
  3
Grid/GridSpacingX00
350
335
  3
Grid/GridSpacingX01
350
336
  3
Grid/GridSpacingX02
350
337
  3
Grid/GridSpacingX03
350
338
  3
Grid/GridSpacingY00
350
339
  3
Grid/GridSpacingY01
350
33A
  3
Grid/GridSpacingY02
350
33B
  3
Grid/GridSpacingY03
350
33C
  3
Grid/IsometricGrid00
350
33D
  3
Grid/IsometricGrid01
350
33E
  3
Grid/IsometricGrid02
350
33F
  3
Grid/IsometricGrid03
350
340
  3
Grid/IsometricProjection00
350
341
  3
Grid/IsometricProjection01
350
342
  3
Grid/IsometricProjection02
350
343
  3
Grid/IsometricProjection03
350
344
  3
Grid/MetaGridSpacingX00
350
345
  3
Grid/MetaGridSpacingX01
350
346
  3
Grid/MetaGridSpacingX02
350
347
  3
Grid/MetaGridSpacingX03
350
348
  3
Grid/MetaGridSpacingY00
350
349
  3
Grid/MetaGridSpacingY01
350
34A
  3
Grid/MetaGridSpacingY02
350
34B
  3
Grid/MetaGridSpacingY03
350
34C
  3
MultiPageSettings/Columns
350
34D
  3
MultiPageSettings/GlueMarginsBottom
350
34E
  3
MultiPageSettings/GlueMarginsLeft
350
34F
  3
MultiPageSettings/GlueMarginsRight
350
350
  3
MultiPageSettings/GlueMarginsTop
350
351
  3
MultiPageSettings/PrintCropMarks
350
352
  3
MultiPageSettings/Rows
350
353
  3
PageSettings/OffsetX
350
354
  3
PageSettings/OffsetY
350
355
  3
PageSettings/PageOrientation
350
356
  3
PageSettings/PaperHeight
350
357
  3
PageSettings/PaperWidth
350
358
  3
PageSettings/Scale
350
359
  3
PageSettings/ShowPaperBorders
350
35A
  3
UnitSettings/PaperUnit
350
35B
  0
XRECORD
  5
331
330
32E
100
AcDbXrecord
280
1
290
1
  0
XRECORD
  5
332
330
32E
100
AcDbXrecord
280
1
290
1
  0
XRECORD
  5
333
330
32E
100
AcDbXrecord
280
1
290
1
  0
XRECORD
  5
334
330
32E
100
AcDbXrecord
280
1
290
1
  0
XRECORD
  5
335
330
32E
100
AcDbXrecord
280
1
1000
auto
  0
XRECORD
  5
336
330
32E
100
AcDbXrecord
280
1
1000
auto
  0
XRECORD
  5
337
330
32E
100
AcDbXrecord
280
1
1000
auto
  0
XRECORD
  5
338
330
32E
100
AcDbXrecord
280
1
1000
auto
  0
XRECORD
  5
339
330
32E
100
AcDbXrecord
280
1
1000
auto
  0
XRECORD
  5
33A
330
32E
100
AcDbXrecord
280
1
1000
auto
  0
XRECORD
  5
33B
330
32E
100
AcDbXrecord
280
1
1000
auto
  0
XRECORD
  5
33C
330
32E
100
AcDbXrecord
280
1
1000
auto
  0
XRECORD
  5
33D
330
32E
100
AcDbXrecord
280
1
290
0
  0
XRECORD
  5
33E
330
32E
100
AcDbXrecord
280
1
290
0
  0
XRECORD
  5
33F
330
32E
100
AcDbXrecord
280
1
290
0
  0
XRECORD
  5
340
330
32E
100
AcDbXrecord
280
1
290
0
  0
XRECORD
  5
341
330
32E
100
AcDbXrecord
280
1
 90
0
  0
XRECORD
  5
342
330
32E
100
AcDbXrecord
280
1
 90
0
  0
XRECORD
  5
343
330
32E
100
AcDbXrecord
280
1
 90
0
  0
XRECORD
  5
344
330
32E
100
AcDbXrecord
280
1
 90
0
  0
XRECORD
  5
345
330
32E
100
AcDbXrecord
280
1
1000
auto
  0
XRECORD
  5
346
330
32E
100
AcDbXrecord
280
1
1000
auto
  0
XRECORD
  5
347
330
32E
100
AcDbXrecord
280
1
1000
auto
  0
XRECORD
  5
348
330
32E
100
AcDbXrecord
280
1
1000
auto
  0
XRECORD
  5
349
330
32E
100
AcDbXrecord
280
1
1000
auto
  0
XRECORD
  5
34A
330
32E
100
AcDbXrecord
280
1
1000
auto
  0
XRECORD
  5
34B
330
32E
100
AcDbXrecord
280
1
1000
auto
  0
XRECORD
  5
34C
330
32E
100
AcDbXrecord
280
1
1000
auto
  0
XRECORD
  5
34D
330
32E
100
AcDbXrecord
280
1
 90
1
  0
XRECORD
  5
34E
330
32E
100
AcDbXrecord
280
1
 40
10.0
  0
XRECORD
  5
34F
330
32E
100
AcDbXrecord
280
1
 40
10.0
  0
XRECORD
  5
350
330
32E
100
AcDbXrecord
280
1
 40
10.0
  0
XRECORD
  5
351
330
32E
100
AcDbXrecord
280
1
 40
10.0
  0
XRECORD
  5
352
330
32E
100
AcDbXrecord
280
1
290
0
  0
XRECORD
  5
353
330
32E
100
AcDbXrecord
280
1
 90
1
  0
XRECORD
  5
354
330
32E
100
AcDbXrecord
280
1
 40
0.0
  0
XRECORD
  5
355
330
32E
100
AcDbXrecord
280
1
 40
0.0
  0
XRECORD
  5
356
330
32E
100
AcDbXrecord
280
1
1000
Portrait
  0
XRECORD
  5
357
330
32E
100
AcDbXrecord
280
1
 40
297.0
  0
XRECORD
  5
358
330
32E
100
AcDbXrecord
280
1
 40
210.0
  0
XRECORD
  5
359
330
32E
100
AcDbXrecord
280
1
1000
1:1
  0
XRECORD
  5
35A
330
32E
100
AcDbXrecord
280
1
290
1
  0
XRECORD
  5
35B
330
32E
100
AcDbXrecord
280
1
 90
4
  0
ENDSEC
  0
EOF
